<svg xmlns="http://www.w3.org/2000/svg" xmlns:xlink="http://www.w3.org/1999/xlink" width="100%" height="100%" viewBox="0 0 500 800" style="background: rgba(224,255,255,0.00); white-space: pre;"><defs><symbol id="tCell" preserveAspectRatio="none" width="303.8" height="304.4" viewBox="0 0 303.8 304.4" overflow="visible"><g fill-rule="evenodd" clip-rule="evenodd" stroke-linecap="round" stroke-linejoin="round" stroke-miterlimit="1.5" transform="translate(176.5,178.9) rotate(-30) scale(1.008,1.009) translate(-148.4,-183.1)"><path d="M68.2 266.7c-27.5-19.7-66.6-53.1-64.3-109.6c1.7-42.4 19.8-79.1 46-108.8c19.3-21.8 37.7-38.4 67.6-44.4c17.4-3.5 34.4-2.6 50.8 3c42.7 14.7 82.7 45.3 104.9 86.1c21.2 39 9.2 101.1-17 135.8c-10.9 14.4-25.6 26.7-39.2 37.9c-16.2 13.4-29.9 21.7-51.6 25.2c-30.9 4.9-72.8-7.8-97.2-25.2Z" fill="rgba(255,255,255,0.50)" stroke="#3c839b" stroke-width="1.8"/><path d="M102.5 124.5c31.5-40 82.3-46.4 122.9-16.8c31.9 23.2 44.1 82.3 17.6 114.5c-28.6 34.7-94.1 54.7-132.9 30c-40.6-25.9-26.6-103.4-7.6-127.6Z" fill="url(#Gradient-0)" transform="translate(-5.2,1.3)"/><g transform="translate(148.4,152) translate(-149.1,-152.6)"><g opacity=".8" transform="translate(.7,.6)"><path d="M69.7 264.4c-26.9-19.4-65.3-52.2-63-107.5c1.7-41.5 19.4-77.6 45-106.6c19-21.4 37-37.7 66.3-43.5c17.1-3.4 33.8-2.6 49.8 2.9c41.9 14.4 81.1 44.4 102.8 84.4c20.8 38.2 9.1 99-16.6 133.1c-10.7 14.1-25.1 26.1-38.5 37.2c-15.9 13-29.3 21.2-50.5 24.6c-30.3 4.8-71.4-7.6-95.3-24.6Z" fill="#87d088"/><image xlink:href="https://www.abc.net.au/res/sites/news-projects/interactive-virus-treatment/master/exports/t_texture.jpg" width="223.5" height="221.7" preserveAspectRatio="none" mask="url(#Mask-1)" transform="translate(163.9,144.9) rotate(-30) skewX(0) scale(1.25,1.249) translate(-129.2,-118.2)"/><path d="M69.7 264.4c-26.9-19.4-65.3-52.2-63-107.5c1.7-41.5 19.4-77.6 45-106.6c19-21.4 37-37.7 66.3-43.5c17.1-3.4 33.8-2.6 49.8 2.9c41.9 14.4 81.1 44.4 102.8 84.4c20.8 38.2 9.1 99-16.6 133.1c-10.7 14.1-25.1 26.1-38.5 37.2c-15.9 13-29.3 21.2-50.5 24.6c-30.3 4.8-71.4-7.6-95.3-24.6Zm1.1-1.5c-26.6-19.1-64.6-51.3-62.3-106c1.7-41 19.2-76.7 44.6-105.4c18.7-21.1 36.4-37.2 65.3-43c16.8-3.3 33.1-2.5 48.8 2.9c41.5 14.2 80.3 44 101.8 83.6c20.5 37.6 8.9 97.6-16.5 131.1c-10.5 14-24.9 25.9-38.1 36.9c-15.6 12.8-28.8 20.9-49.7 24.2c-29.9 4.8-70.4-7.5-93.9-24.3Z" fill="#3d839b" fill-opacity=".8"/><path d="M69.7 264.4c-26.9-19.4-65.3-52.2-63-107.5c1.7-41.5 19.4-77.6 45-106.6c19-21.4 37-37.7 66.3-43.5c17.1-3.4 33.8-2.6 49.8 2.9c41.9 14.4 81.1 44.4 102.8 84.4c20.8 38.2 9.1 99-16.6 133.1c-10.7 14.1-25.1 26.1-38.5 37.2c-15.9 13-29.3 21.2-50.5 24.6c-30.3 4.8-71.4-7.6-95.3-24.6Z" fill="url(#Gradient-1)"/><path d="M69.7 264.4c-26.9-19.4-65.3-52.2-63-107.5c1.7-41.5 19.4-77.6 45-106.6c19-21.4 37-37.7 66.3-43.5c17.1-3.4 33.8-2.6 49.8 2.9c41.9 14.4 81.1 44.4 102.8 84.4c20.8 38.2 9.1 99-16.6 133.1c-10.7 14.1-25.1 26.1-38.5 37.2c-15.9 13-29.3 21.2-50.5 24.6c-30.3 4.8-71.4-7.6-95.3-24.6Z" fill="url(#Gradient-2)"/><path d="M69.7 264.4c-26.9-19.4-65.3-52.2-63-107.5c1.7-41.5 19.4-77.6 45-106.6c19-21.4 37-37.7 66.3-43.5c17.1-3.4 33.8-2.6 49.8 2.9c41.9 14.4 81.1 44.4 102.8 84.4c20.8 38.2 9.1 99-16.6 133.1c-10.7 14.1-25.1 26.1-38.5 37.2c-15.9 13-29.3 21.2-50.5 24.6c-30.3 4.8-71.4-7.6-95.3-24.6Z" fill="url(#Gradient-3)"/></g><g transform="translate(149.1,152.6) translate(-149.1,-152.6)"><g transform="translate(260.7,232.1) translate(-6.8,-5.8)"><g transform="translate(-253.2,-225.7)"><path d="M265.1 230.7c1.7 1.1 1.8 2.5 1.2 2.4c-0.4-0.1-0.8 .4-2.6-0.8c-1.8-1.2-3-2.4-2.6-2.8c.3-0.3 2.2 0 4 1.2Z" fill="url(#Gradient-4)"/><path d="M262.5 233.9c1.8 1.5 .9 1.6 1.5 2.6c.3 .5-1.3 .8-3-0.7c-1.8-1.5-2.6-3.4-2.2-3.8c.3-0.4 2 .4 3.7 2Z" fill="url(#Gradient-5)"/><path d="M265.1 230.7c1.7 1.1 1.8 2.5 1.2 2.4c-0.4-0.1-0.8 .4-2.6-0.8c-1.8-1.2-3-2.4-2.6-2.8c.3-0.3 2.2 0 4 1.2Z" fill="none" stroke="#aa3372" stroke-width=".3"/><path d="M262.5 233.9c1.8 1.5 .9 1.6 1.5 2.6c.3 .5-1.3 .8-3-0.7c-1.8-1.5-2.6-3.4-2.2-3.8c.3-0.4 2 .4 3.7 2Z" fill="none" stroke="#aa3372" stroke-width=".3"/><path d="M259.5 227.1c.2-0.4 .6-0.3 1.5-0.1c.9 .2 1.6 .7 1.6 1.1c.2 0 .3 0 .4 .1c.2 0 .3 0 .5 .1c.1 .1 .2 .1 .3 .2c.2 .1 .3 .2 .4 .3c.8 .6 1.7 1.2 1.3 1.6c-0.2 .3-0.8 .3-1.5-0.1c0 .3 .2 .6 .2 .9c-0.2 .9 .5 1.1 1 1.3c1 .7 1.7 2.1 1.1 3c-0.5 .7-2.2 .7-3.3 0c-0.5-0.1-0.6-1-1.1-1.3c-0.2-0.1-0.7 .4-1 .3c-0.2-0.1-0.4 0-0.7 .1c.7 .6 1 1.5 .6 1.9c-0.4 .5-1.2-0.4-2.1-1.1c-0.1-0.1-0.2-0.2-0.3-0.3c-0.1-0.1-0.2-0.2-0.3-0.4c-0.1-0.1-0.2-0.2-0.2-0.4c-0.1-0.1-0.1-0.3-0.2-0.4c-0.4-0.1-0.9-0.7-1.2-1.5c-0.4-0.9-0.7-1.1-0.3-1.3c0 0 0 0 0 0c0 0 0 0 .1 0c0 0 0 0 0 0c0 0 0 0 0 0c0-0.1 0-0.1-0.1-0.1c0-0.1 0-0.1 0-0.1c0-0.1-0.1-0.1-0.1-0.1c0-0.1 0-0.1-0.1-0.1c-1.4-1.9-2.8-2.7-2-3.8c.7-1.2 2.1-0.6 4.2-0.1c.4 .1 .8 .2 1.3 .3Z" fill="url(#Gradient-6)"/><path d="M262.3 230.4c.5 .2 .8 1.2 1.3 1.4c.4 .2 1 .3 1.4 .6c1.1 .7 1.7 2.2 1.3 3c-0.4 .9-2.3 .8-3.5 0c-0.4-0.3-0.6-0.9-1-1.2c-0.2-0.2-0.7-0.3-1-0.5c-0.8-0.5-0.8-1.2-0.9-1.3" fill="none" stroke="#aa3372" stroke-width=".3"/><path d="M260.9 234.5c-0.2-0.1-0.4 0-0.7 .1c.7 .6 1 1.5 .6 1.9c-0.4 .5-1.2-0.4-2-1.1c-0.2-0.1-0.3-0.2-0.4-0.3c-0.1-0.1-0.2-0.3-0.3-0.4c-0.1-0.1-0.1-0.3-0.2-0.4c-0.1-0.2-0.1-0.3-0.1-0.5c-0.4 0-0.9-0.6-1.3-1.4c-0.4-0.9-0.7-1.1-0.3-1.3c0 0 0 0 0 0c0 0 0 0 .1 0c0 0 0 0 0 0c0 0 0 0 0 0c0-0.1 0-0.1-0.1-0.1c0-0.1 0-0.1 0-0.1c0-0.1-0.1-0.1-0.1-0.1c0-0.1 0-0.1-0.1-0.1c-1.4-1.9-2.8-2.7-2-3.8c.7-1.2 2.1-0.6 4.2-0.1c.4 .1 .8 .2 1.3 .3c.2-0.4 .6-0.3 1.5-0.1c.9 .2 1.6 .7 1.6 1.2c.2 0 .3 0 .5 0c.1 .1 .2 .1 .4 .2c.1 0 .2 .1 .4 .2c.1 0 .2 .1 .3 .2c.8 .7 1.7 1.2 1.3 1.6c-0.2 .3-0.8 .3-1.5-0.1c0 .3 0 .7 .2 .9" fill="none" stroke="#aa3372" stroke-width=".3"/></g></g><g transform="translate(280.8,199.8) rotate(-28.3) translate(-6.8,-5.8)"><g transform="translate(-253.2,-225.7)"><path d="M265.1 230.7c1.7 1.1 1.8 2.5 1.2 2.4c-0.4-0.1-0.8 .4-2.6-0.8c-1.8-1.2-3-2.4-2.6-2.8c.3-0.3 2.2 0 4 1.2Z" fill="url(#Gradient-4)"/><path d="M262.5 233.9c1.8 1.5 .9 1.6 1.5 2.6c.3 .5-1.3 .8-3-0.7c-1.8-1.5-2.6-3.4-2.2-3.8c.3-0.4 2 .4 3.7 2Z" fill="url(#Gradient-5)"/><path d="M265.1 230.7c1.7 1.1 1.8 2.5 1.2 2.4c-0.4-0.1-0.8 .4-2.6-0.8c-1.8-1.2-3-2.4-2.6-2.8c.3-0.3 2.2 0 4 1.2Z" fill="none" stroke="#aa3372" stroke-width=".3"/><path d="M262.5 233.9c1.8 1.5 .9 1.6 1.5 2.6c.3 .5-1.3 .8-3-0.7c-1.8-1.5-2.6-3.4-2.2-3.8c.3-0.4 2 .4 3.7 2Z" fill="none" stroke="#aa3372" stroke-width=".3"/><path d="M259.5 227.1c.2-0.4 .6-0.3 1.5-0.1c.9 .2 1.6 .7 1.6 1.1c.2 0 .3 0 .4 .1c.2 0 .3 0 .5 .1c.1 .1 .2 .1 .3 .2c.2 .1 .3 .2 .4 .3c.8 .6 1.7 1.2 1.3 1.6c-0.2 .3-0.8 .3-1.5-0.1c0 .3 .2 .6 .2 .9c-0.2 .9 .5 1.1 1 1.3c1 .7 1.7 2.1 1.1 3c-0.5 .7-2.2 .7-3.3 0c-0.5-0.1-0.6-1-1.1-1.3c-0.2-0.1-0.7 .4-1 .3c-0.2-0.1-0.4 0-0.7 .1c.7 .6 1 1.5 .6 1.9c-0.4 .5-1.2-0.4-2.1-1.1c-0.1-0.1-0.2-0.2-0.3-0.3c-0.1-0.1-0.2-0.2-0.3-0.4c-0.1-0.1-0.2-0.2-0.2-0.4c-0.1-0.1-0.1-0.3-0.2-0.4c-0.4-0.1-0.9-0.7-1.2-1.5c-0.4-0.9-0.7-1.1-0.3-1.3c0 0 0 0 0 0c0 0 0 0 .1 0c0 0 0 0 0 0c0 0 0 0 0 0c0-0.1 0-0.1-0.1-0.1c0-0.1 0-0.1 0-0.1c0-0.1-0.1-0.1-0.1-0.1c0-0.1 0-0.1-0.1-0.1c-1.4-1.9-2.8-2.7-2-3.8c.7-1.2 2.1-0.6 4.2-0.1c.4 .1 .8 .2 1.3 .3Z" fill="url(#Gradient-6)"/><path d="M262.3 230.4c.5 .2 .8 1.2 1.3 1.4c.4 .2 1 .3 1.4 .6c1.1 .7 1.7 2.2 1.3 3c-0.4 .9-2.3 .8-3.5 0c-0.4-0.3-0.6-0.9-1-1.2c-0.2-0.2-0.7-0.3-1-0.5c-0.8-0.5-0.8-1.2-0.9-1.3" fill="none" stroke="#aa3372" stroke-width=".3"/><path d="M260.9 234.5c-0.2-0.1-0.4 0-0.7 .1c.7 .6 1 1.5 .6 1.9c-0.4 .5-1.2-0.4-2-1.1c-0.2-0.1-0.3-0.2-0.4-0.3c-0.1-0.1-0.2-0.3-0.3-0.4c-0.1-0.1-0.1-0.3-0.2-0.4c-0.1-0.2-0.1-0.3-0.1-0.5c-0.4 0-0.9-0.6-1.3-1.4c-0.4-0.9-0.7-1.1-0.3-1.3c0 0 0 0 0 0c0 0 0 0 .1 0c0 0 0 0 0 0c0 0 0 0 0 0c0-0.1 0-0.1-0.1-0.1c0-0.1 0-0.1 0-0.1c0-0.1-0.1-0.1-0.1-0.1c0-0.1 0-0.1-0.1-0.1c-1.4-1.9-2.8-2.7-2-3.8c.7-1.2 2.1-0.6 4.2-0.1c.4 .1 .8 .2 1.3 .3c.2-0.4 .6-0.3 1.5-0.1c.9 .2 1.6 .7 1.6 1.2c.2 0 .3 0 .5 0c.1 .1 .2 .1 .4 .2c.1 0 .2 .1 .4 .2c.1 0 .2 .1 .3 .2c.8 .7 1.7 1.2 1.3 1.6c-0.2 .3-0.8 .3-1.5-0.1c0 .3 0 .7 .2 .9" fill="none" stroke="#aa3372" stroke-width=".3"/></g></g><g transform="translate(289.2,134) rotate(-40.1) translate(-6.8,-5.8)"><g transform="translate(-253.2,-225.7)"><path d="M265.1 230.7c1.7 1.1 1.8 2.5 1.2 2.4c-0.4-0.1-0.8 .4-2.6-0.8c-1.8-1.2-3-2.4-2.6-2.8c.3-0.3 2.2 0 4 1.2Z" fill="url(#Gradient-4)"/><path d="M262.5 233.9c1.8 1.5 .9 1.6 1.5 2.6c.3 .5-1.3 .8-3-0.7c-1.8-1.5-2.6-3.4-2.2-3.8c.3-0.4 2 .4 3.7 2Z" fill="url(#Gradient-5)"/><path d="M265.1 230.7c1.7 1.1 1.8 2.5 1.2 2.4c-0.4-0.1-0.8 .4-2.6-0.8c-1.8-1.2-3-2.4-2.6-2.8c.3-0.3 2.2 0 4 1.2Z" fill="none" stroke="#aa3372" stroke-width=".3"/><path d="M262.5 233.9c1.8 1.5 .9 1.6 1.5 2.6c.3 .5-1.3 .8-3-0.7c-1.8-1.5-2.6-3.4-2.2-3.8c.3-0.4 2 .4 3.7 2Z" fill="none" stroke="#aa3372" stroke-width=".3"/><path d="M259.5 227.1c.2-0.4 .6-0.3 1.5-0.1c.9 .2 1.6 .7 1.6 1.1c.2 0 .3 0 .4 .1c.2 0 .3 0 .5 .1c.1 .1 .2 .1 .3 .2c.2 .1 .3 .2 .4 .3c.8 .6 1.7 1.2 1.3 1.6c-0.2 .3-0.8 .3-1.5-0.1c0 .3 .2 .6 .2 .9c-0.2 .9 .5 1.1 1 1.3c1 .7 1.7 2.1 1.1 3c-0.5 .7-2.2 .7-3.3 0c-0.5-0.1-0.6-1-1.1-1.3c-0.2-0.1-0.7 .4-1 .3c-0.2-0.1-0.4 0-0.7 .1c.7 .6 1 1.5 .6 1.9c-0.4 .5-1.2-0.4-2.1-1.1c-0.1-0.1-0.2-0.2-0.3-0.3c-0.1-0.1-0.2-0.2-0.3-0.4c-0.1-0.1-0.2-0.2-0.2-0.4c-0.1-0.1-0.1-0.3-0.2-0.4c-0.4-0.1-0.9-0.7-1.2-1.5c-0.4-0.9-0.7-1.1-0.3-1.3c0 0 0 0 0 0c0 0 0 0 .1 0c0 0 0 0 0 0c0 0 0 0 0 0c0-0.1 0-0.1-0.1-0.1c0-0.1 0-0.1 0-0.1c0-0.1-0.1-0.1-0.1-0.1c0-0.1 0-0.1-0.1-0.1c-1.4-1.9-2.8-2.7-2-3.8c.7-1.2 2.1-0.6 4.2-0.1c.4 .1 .8 .2 1.3 .3Z" fill="url(#Gradient-6)"/><path d="M262.3 230.4c.5 .2 .8 1.2 1.3 1.4c.4 .2 1 .3 1.4 .6c1.1 .7 1.7 2.2 1.3 3c-0.4 .9-2.3 .8-3.5 0c-0.4-0.3-0.6-0.9-1-1.2c-0.2-0.2-0.7-0.3-1-0.5c-0.8-0.5-0.8-1.2-0.9-1.3" fill="none" stroke="#aa3372" stroke-width=".3"/><path d="M260.9 234.5c-0.2-0.1-0.4 0-0.7 .1c.7 .6 1 1.5 .6 1.9c-0.4 .5-1.2-0.4-2-1.1c-0.2-0.1-0.3-0.2-0.4-0.3c-0.1-0.1-0.2-0.3-0.3-0.4c-0.1-0.1-0.1-0.3-0.2-0.4c-0.1-0.2-0.1-0.3-0.1-0.5c-0.4 0-0.9-0.6-1.3-1.4c-0.4-0.9-0.7-1.1-0.3-1.3c0 0 0 0 0 0c0 0 0 0 .1 0c0 0 0 0 0 0c0 0 0 0 0 0c0-0.1 0-0.1-0.1-0.1c0-0.1 0-0.1 0-0.1c0-0.1-0.1-0.1-0.1-0.1c0-0.1 0-0.1-0.1-0.1c-1.4-1.9-2.8-2.7-2-3.8c.7-1.2 2.1-0.6 4.2-0.1c.4 .1 .8 .2 1.3 .3c.2-0.4 .6-0.3 1.5-0.1c.9 .2 1.6 .7 1.6 1.2c.2 0 .3 0 .5 0c.1 .1 .2 .1 .4 .2c.1 0 .2 .1 .4 .2c.1 0 .2 .1 .3 .2c.8 .7 1.7 1.2 1.3 1.6c-0.2 .3-0.8 .3-1.5-0.1c0 .3 0 .7 .2 .9" fill="none" stroke="#aa3372" stroke-width=".3"/></g></g><g transform="translate(196.8,13.9) rotate(-92.6) translate(-6.8,-5.8)"><g transform="translate(-253.2,-225.7)"><path d="M265.1 230.7c1.7 1.1 1.8 2.5 1.2 2.4c-0.4-0.1-0.8 .4-2.6-0.8c-1.8-1.2-3-2.4-2.6-2.8c.3-0.3 2.2 0 4 1.2Z" fill="url(#Gradient-4)"/><path d="M262.5 233.9c1.8 1.5 .9 1.6 1.5 2.6c.3 .5-1.3 .8-3-0.7c-1.8-1.5-2.6-3.4-2.2-3.8c.3-0.4 2 .4 3.7 2Z" fill="url(#Gradient-5)"/><path d="M265.1 230.7c1.7 1.1 1.8 2.5 1.2 2.4c-0.4-0.1-0.8 .4-2.6-0.8c-1.8-1.2-3-2.4-2.6-2.8c.3-0.3 2.2 0 4 1.2Z" fill="none" stroke="#aa3372" stroke-width=".3"/><path d="M262.5 233.9c1.8 1.5 .9 1.6 1.5 2.6c.3 .5-1.3 .8-3-0.7c-1.8-1.5-2.6-3.4-2.2-3.8c.3-0.4 2 .4 3.7 2Z" fill="none" stroke="#aa3372" stroke-width=".3"/><path d="M259.5 227.1c.2-0.4 .6-0.3 1.5-0.1c.9 .2 1.6 .7 1.6 1.1c.2 0 .3 0 .4 .1c.2 0 .3 0 .5 .1c.1 .1 .2 .1 .3 .2c.2 .1 .3 .2 .4 .3c.8 .6 1.7 1.2 1.3 1.6c-0.2 .3-0.8 .3-1.5-0.1c0 .3 .2 .6 .2 .9c-0.2 .9 .5 1.1 1 1.3c1 .7 1.7 2.1 1.1 3c-0.5 .7-2.2 .7-3.3 0c-0.5-0.1-0.6-1-1.1-1.3c-0.2-0.1-0.7 .4-1 .3c-0.2-0.1-0.4 0-0.7 .1c.7 .6 1 1.5 .6 1.9c-0.4 .5-1.2-0.4-2.1-1.1c-0.1-0.1-0.2-0.2-0.3-0.3c-0.1-0.1-0.2-0.2-0.3-0.4c-0.1-0.1-0.2-0.2-0.2-0.4c-0.1-0.1-0.1-0.3-0.2-0.4c-0.4-0.1-0.9-0.7-1.2-1.5c-0.4-0.9-0.7-1.1-0.3-1.3c0 0 0 0 0 0c0 0 0 0 .1 0c0 0 0 0 0 0c0 0 0 0 0 0c0-0.1 0-0.1-0.1-0.1c0-0.1 0-0.1 0-0.1c0-0.1-0.1-0.1-0.1-0.1c0-0.1 0-0.1-0.1-0.1c-1.4-1.9-2.8-2.7-2-3.8c.7-1.2 2.1-0.6 4.2-0.1c.4 .1 .8 .2 1.3 .3Z" fill="url(#Gradient-6)"/><path d="M262.3 230.4c.5 .2 .8 1.2 1.3 1.4c.4 .2 1 .3 1.4 .6c1.1 .7 1.7 2.2 1.3 3c-0.4 .9-2.3 .8-3.5 0c-0.4-0.3-0.6-0.9-1-1.2c-0.2-0.2-0.7-0.3-1-0.5c-0.8-0.5-0.8-1.2-0.9-1.3" fill="none" stroke="#aa3372" stroke-width=".3"/><path d="M260.9 234.5c-0.2-0.1-0.4 0-0.7 .1c.7 .6 1 1.5 .6 1.9c-0.4 .5-1.2-0.4-2-1.1c-0.2-0.1-0.3-0.2-0.4-0.3c-0.1-0.1-0.2-0.3-0.3-0.4c-0.1-0.1-0.1-0.3-0.2-0.4c-0.1-0.2-0.1-0.3-0.1-0.5c-0.4 0-0.9-0.6-1.3-1.4c-0.4-0.9-0.7-1.1-0.3-1.3c0 0 0 0 0 0c0 0 0 0 .1 0c0 0 0 0 0 0c0 0 0 0 0 0c0-0.1 0-0.1-0.1-0.1c0-0.1 0-0.1 0-0.1c0-0.1-0.1-0.1-0.1-0.1c0-0.1 0-0.1-0.1-0.1c-1.4-1.9-2.8-2.7-2-3.8c.7-1.2 2.1-0.6 4.2-0.1c.4 .1 .8 .2 1.3 .3c.2-0.4 .6-0.3 1.5-0.1c.9 .2 1.6 .7 1.6 1.2c.2 0 .3 0 .5 0c.1 .1 .2 .1 .4 .2c.1 0 .2 .1 .4 .2c.1 0 .2 .1 .3 .2c.8 .7 1.7 1.2 1.3 1.6c-0.2 .3-0.8 .3-1.5-0.1c0 .3 0 .7 .2 .9" fill="none" stroke="#aa3372" stroke-width=".3"/></g></g><g transform="translate(90.1,7.7) rotate(-160.4) translate(-6.8,-5.8)"><g transform="translate(-253.2,-225.7)"><path d="M265.1 230.7c1.7 1.1 1.8 2.5 1.2 2.4c-0.4-0.1-0.8 .4-2.6-0.8c-1.8-1.2-3-2.4-2.6-2.8c.3-0.3 2.2 0 4 1.2Z" fill="url(#Gradient-4)"/><path d="M262.5 233.9c1.8 1.5 .9 1.6 1.5 2.6c.3 .5-1.3 .8-3-0.7c-1.8-1.5-2.6-3.4-2.2-3.8c.3-0.4 2 .4 3.7 2Z" fill="url(#Gradient-5)"/><path d="M265.1 230.7c1.7 1.1 1.8 2.5 1.2 2.4c-0.4-0.1-0.8 .4-2.6-0.8c-1.8-1.2-3-2.4-2.6-2.8c.3-0.3 2.2 0 4 1.2Z" fill="none" stroke="#aa3372" stroke-width=".3"/><path d="M262.5 233.9c1.8 1.5 .9 1.6 1.5 2.6c.3 .5-1.3 .8-3-0.7c-1.8-1.5-2.6-3.4-2.2-3.8c.3-0.4 2 .4 3.7 2Z" fill="none" stroke="#aa3372" stroke-width=".3"/><path d="M259.5 227.1c.2-0.4 .6-0.3 1.5-0.1c.9 .2 1.6 .7 1.6 1.1c.2 0 .3 0 .4 .1c.2 0 .3 0 .5 .1c.1 .1 .2 .1 .3 .2c.2 .1 .3 .2 .4 .3c.8 .6 1.7 1.2 1.3 1.6c-0.2 .3-0.8 .3-1.5-0.1c0 .3 .2 .6 .2 .9c-0.2 .9 .5 1.1 1 1.3c1 .7 1.7 2.1 1.1 3c-0.5 .7-2.2 .7-3.3 0c-0.5-0.1-0.6-1-1.1-1.3c-0.2-0.1-0.7 .4-1 .3c-0.2-0.1-0.4 0-0.7 .1c.7 .6 1 1.5 .6 1.9c-0.4 .5-1.2-0.4-2.1-1.1c-0.1-0.1-0.2-0.2-0.3-0.3c-0.1-0.1-0.2-0.2-0.3-0.4c-0.1-0.1-0.2-0.2-0.2-0.4c-0.1-0.1-0.1-0.3-0.2-0.4c-0.4-0.1-0.9-0.7-1.2-1.5c-0.4-0.9-0.7-1.1-0.3-1.3c0 0 0 0 0 0c0 0 0 0 .1 0c0 0 0 0 0 0c0 0 0 0 0 0c0-0.1 0-0.1-0.1-0.1c0-0.1 0-0.1 0-0.1c0-0.1-0.1-0.1-0.1-0.1c0-0.1 0-0.1-0.1-0.1c-1.4-1.9-2.8-2.7-2-3.8c.7-1.2 2.1-0.6 4.2-0.1c.4 .1 .8 .2 1.3 .3Z" fill="url(#Gradient-6)"/><path d="M262.3 230.4c.5 .2 .8 1.2 1.3 1.4c.4 .2 1 .3 1.4 .6c1.1 .7 1.7 2.2 1.3 3c-0.4 .9-2.3 .8-3.5 0c-0.4-0.3-0.6-0.9-1-1.2c-0.2-0.2-0.7-0.3-1-0.5c-0.8-0.5-0.8-1.2-0.9-1.3" fill="none" stroke="#aa3372" stroke-width=".3"/><path d="M260.9 234.5c-0.2-0.1-0.4 0-0.7 .1c.7 .6 1 1.5 .6 1.9c-0.4 .5-1.2-0.4-2-1.1c-0.2-0.1-0.3-0.2-0.4-0.3c-0.1-0.1-0.2-0.3-0.3-0.4c-0.1-0.1-0.1-0.3-0.2-0.4c-0.1-0.2-0.1-0.3-0.1-0.5c-0.4 0-0.9-0.6-1.3-1.4c-0.4-0.9-0.7-1.1-0.3-1.3c0 0 0 0 0 0c0 0 0 0 .1 0c0 0 0 0 0 0c0 0 0 0 0 0c0-0.1 0-0.1-0.1-0.1c0-0.1 0-0.1 0-0.1c0-0.1-0.1-0.1-0.1-0.1c0-0.1 0-0.1-0.1-0.1c-1.4-1.9-2.8-2.7-2-3.8c.7-1.2 2.1-0.6 4.2-0.1c.4 .1 .8 .2 1.3 .3c.2-0.4 .6-0.3 1.5-0.1c.9 .2 1.6 .7 1.6 1.2c.2 0 .3 0 .5 0c.1 .1 .2 .1 .4 .2c.1 0 .2 .1 .4 .2c.1 0 .2 .1 .3 .2c.8 .7 1.7 1.2 1.3 1.6c-0.2 .3-0.8 .3-1.5-0.1c0 .3 0 .7 .2 .9" fill="none" stroke="#aa3372" stroke-width=".3"/></g></g><g transform="translate(35.9,57.3) rotate(-175.8) translate(-6.8,-5.8)"><g transform="translate(-253.2,-225.7)"><path d="M265.1 230.7c1.7 1.1 1.8 2.5 1.2 2.4c-0.4-0.1-0.8 .4-2.6-0.8c-1.8-1.2-3-2.4-2.6-2.8c.3-0.3 2.2 0 4 1.2Z" fill="url(#Gradient-4)"/><path d="M262.5 233.9c1.8 1.5 .9 1.6 1.5 2.6c.3 .5-1.3 .8-3-0.7c-1.8-1.5-2.6-3.4-2.2-3.8c.3-0.4 2 .4 3.7 2Z" fill="url(#Gradient-5)"/><path d="M265.1 230.7c1.7 1.1 1.8 2.5 1.2 2.4c-0.4-0.1-0.8 .4-2.6-0.8c-1.8-1.2-3-2.4-2.6-2.8c.3-0.3 2.2 0 4 1.2Z" fill="none" stroke="#aa3372" stroke-width=".3"/><path d="M262.5 233.9c1.8 1.5 .9 1.6 1.5 2.6c.3 .5-1.3 .8-3-0.7c-1.8-1.5-2.6-3.4-2.2-3.8c.3-0.4 2 .4 3.7 2Z" fill="none" stroke="#aa3372" stroke-width=".3"/><path d="M259.5 227.1c.2-0.4 .6-0.3 1.5-0.1c.9 .2 1.6 .7 1.6 1.1c.2 0 .3 0 .4 .1c.2 0 .3 0 .5 .1c.1 .1 .2 .1 .3 .2c.2 .1 .3 .2 .4 .3c.8 .6 1.7 1.2 1.3 1.6c-0.2 .3-0.8 .3-1.5-0.1c0 .3 .2 .6 .2 .9c-0.2 .9 .5 1.1 1 1.3c1 .7 1.7 2.1 1.1 3c-0.5 .7-2.2 .7-3.3 0c-0.5-0.1-0.6-1-1.1-1.3c-0.2-0.1-0.7 .4-1 .3c-0.2-0.1-0.4 0-0.7 .1c.7 .6 1 1.5 .6 1.9c-0.4 .5-1.2-0.4-2.1-1.1c-0.1-0.1-0.2-0.2-0.3-0.3c-0.1-0.1-0.2-0.2-0.3-0.4c-0.1-0.1-0.2-0.2-0.2-0.4c-0.1-0.1-0.1-0.3-0.2-0.4c-0.4-0.1-0.9-0.7-1.2-1.5c-0.4-0.9-0.7-1.1-0.3-1.3c0 0 0 0 0 0c0 0 0 0 .1 0c0 0 0 0 0 0c0 0 0 0 0 0c0-0.1 0-0.1-0.1-0.1c0-0.1 0-0.1 0-0.1c0-0.1-0.1-0.1-0.1-0.1c0-0.1 0-0.1-0.1-0.1c-1.4-1.9-2.8-2.7-2-3.8c.7-1.2 2.1-0.6 4.2-0.1c.4 .1 .8 .2 1.3 .3Z" fill="url(#Gradient-6)"/><path d="M262.3 230.4c.5 .2 .8 1.2 1.3 1.4c.4 .2 1 .3 1.4 .6c1.1 .7 1.7 2.2 1.3 3c-0.4 .9-2.3 .8-3.5 0c-0.4-0.3-0.6-0.9-1-1.2c-0.2-0.2-0.7-0.3-1-0.5c-0.8-0.5-0.8-1.2-0.9-1.3" fill="none" stroke="#aa3372" stroke-width=".3"/><path d="M260.9 234.5c-0.2-0.1-0.4 0-0.7 .1c.7 .6 1 1.5 .6 1.9c-0.4 .5-1.2-0.4-2-1.1c-0.2-0.1-0.3-0.2-0.4-0.3c-0.1-0.1-0.2-0.3-0.3-0.4c-0.1-0.1-0.1-0.3-0.2-0.4c-0.1-0.2-0.1-0.3-0.1-0.5c-0.4 0-0.9-0.6-1.3-1.4c-0.4-0.9-0.7-1.1-0.3-1.3c0 0 0 0 0 0c0 0 0 0 .1 0c0 0 0 0 0 0c0 0 0 0 0 0c0-0.1 0-0.1-0.1-0.1c0-0.1 0-0.1 0-0.1c0-0.1-0.1-0.1-0.1-0.1c0-0.1 0-0.1-0.1-0.1c-1.4-1.9-2.8-2.7-2-3.8c.7-1.2 2.1-0.6 4.2-0.1c.4 .1 .8 .2 1.3 .3c.2-0.4 .6-0.3 1.5-0.1c.9 .2 1.6 .7 1.6 1.2c.2 0 .3 0 .5 0c.1 .1 .2 .1 .4 .2c.1 0 .2 .1 .4 .2c.1 0 .2 .1 .3 .2c.8 .7 1.7 1.2 1.3 1.6c-0.2 .3-0.8 .3-1.5-0.1c0 .3 0 .7 .2 .9" fill="none" stroke="#aa3372" stroke-width=".3"/></g></g><g transform="translate(22.4,76.4) rotate(-185.2) translate(-6.8,-5.8)"><g transform="translate(-253.2,-225.7)"><path d="M265.1 230.7c1.7 1.1 1.8 2.5 1.2 2.4c-0.4-0.1-0.8 .4-2.6-0.8c-1.8-1.2-3-2.4-2.6-2.8c.3-0.3 2.2 0 4 1.2Z" fill="url(#Gradient-4)"/><path d="M262.5 233.9c1.8 1.5 .9 1.6 1.5 2.6c.3 .5-1.3 .8-3-0.7c-1.8-1.5-2.6-3.4-2.2-3.8c.3-0.4 2 .4 3.7 2Z" fill="url(#Gradient-5)"/><path d="M265.1 230.7c1.7 1.1 1.8 2.5 1.2 2.4c-0.4-0.1-0.8 .4-2.6-0.8c-1.8-1.2-3-2.4-2.6-2.8c.3-0.3 2.2 0 4 1.2Z" fill="none" stroke="#aa3372" stroke-width=".3"/><path d="M262.5 233.9c1.8 1.5 .9 1.6 1.5 2.6c.3 .5-1.3 .8-3-0.7c-1.8-1.5-2.6-3.4-2.2-3.8c.3-0.4 2 .4 3.7 2Z" fill="none" stroke="#aa3372" stroke-width=".3"/><path d="M259.5 227.1c.2-0.4 .6-0.3 1.5-0.1c.9 .2 1.6 .7 1.6 1.1c.2 0 .3 0 .4 .1c.2 0 .3 0 .5 .1c.1 .1 .2 .1 .3 .2c.2 .1 .3 .2 .4 .3c.8 .6 1.7 1.2 1.3 1.6c-0.2 .3-0.8 .3-1.5-0.1c0 .3 .2 .6 .2 .9c-0.2 .9 .5 1.1 1 1.3c1 .7 1.7 2.1 1.1 3c-0.5 .7-2.2 .7-3.3 0c-0.5-0.1-0.6-1-1.1-1.3c-0.2-0.1-0.7 .4-1 .3c-0.2-0.1-0.4 0-0.7 .1c.7 .6 1 1.5 .6 1.9c-0.4 .5-1.2-0.4-2.1-1.1c-0.1-0.1-0.2-0.2-0.3-0.3c-0.1-0.1-0.2-0.2-0.3-0.4c-0.1-0.1-0.2-0.2-0.2-0.4c-0.1-0.1-0.1-0.3-0.2-0.4c-0.4-0.1-0.9-0.7-1.2-1.5c-0.4-0.9-0.7-1.1-0.3-1.3c0 0 0 0 0 0c0 0 0 0 .1 0c0 0 0 0 0 0c0 0 0 0 0 0c0-0.1 0-0.1-0.1-0.1c0-0.1 0-0.1 0-0.1c0-0.1-0.1-0.1-0.1-0.1c0-0.1 0-0.1-0.1-0.1c-1.4-1.9-2.8-2.7-2-3.8c.7-1.2 2.1-0.6 4.2-0.1c.4 .1 .8 .2 1.3 .3Z" fill="url(#Gradient-6)"/><path d="M262.3 230.4c.5 .2 .8 1.2 1.3 1.4c.4 .2 1 .3 1.4 .6c1.1 .7 1.7 2.2 1.3 3c-0.4 .9-2.3 .8-3.5 0c-0.4-0.3-0.6-0.9-1-1.2c-0.2-0.2-0.7-0.3-1-0.5c-0.8-0.5-0.8-1.2-0.9-1.3" fill="none" stroke="#aa3372" stroke-width=".3"/><path d="M260.9 234.5c-0.2-0.1-0.4 0-0.7 .1c.7 .6 1 1.5 .6 1.9c-0.4 .5-1.2-0.4-2-1.1c-0.2-0.1-0.3-0.2-0.4-0.3c-0.1-0.1-0.2-0.3-0.3-0.4c-0.1-0.1-0.1-0.3-0.2-0.4c-0.1-0.2-0.1-0.3-0.1-0.5c-0.4 0-0.9-0.6-1.3-1.4c-0.4-0.9-0.7-1.1-0.3-1.3c0 0 0 0 0 0c0 0 0 0 .1 0c0 0 0 0 0 0c0 0 0 0 0 0c0-0.1 0-0.1-0.1-0.1c0-0.1 0-0.1 0-0.1c0-0.1-0.1-0.1-0.1-0.1c0-0.1 0-0.1-0.1-0.1c-1.4-1.9-2.8-2.7-2-3.8c.7-1.2 2.1-0.6 4.2-0.1c.4 .1 .8 .2 1.3 .3c.2-0.4 .6-0.3 1.5-0.1c.9 .2 1.6 .7 1.6 1.2c.2 0 .3 0 .5 0c.1 .1 .2 .1 .4 .2c.1 0 .2 .1 .4 .2c.1 0 .2 .1 .3 .2c.8 .7 1.7 1.2 1.3 1.6c-0.2 .3-0.8 .3-1.5-0.1c0 .3 0 .7 .2 .9" fill="none" stroke="#aa3372" stroke-width=".3"/></g></g><g transform="translate(8.2,112.7) rotate(-195.8) translate(-6.8,-5.8)"><g transform="translate(-253.2,-225.7)"><path d="M265.1 230.7c1.7 1.1 1.8 2.5 1.2 2.4c-0.4-0.1-0.8 .4-2.6-0.8c-1.8-1.2-3-2.4-2.6-2.8c.3-0.3 2.2 0 4 1.2Z" fill="url(#Gradient-4)"/><path d="M262.5 233.9c1.8 1.5 .9 1.6 1.5 2.6c.3 .5-1.3 .8-3-0.7c-1.8-1.5-2.6-3.4-2.2-3.8c.3-0.4 2 .4 3.7 2Z" fill="url(#Gradient-5)"/><path d="M265.1 230.7c1.7 1.1 1.8 2.5 1.2 2.4c-0.4-0.1-0.8 .4-2.6-0.8c-1.8-1.2-3-2.4-2.6-2.8c.3-0.3 2.2 0 4 1.2Z" fill="none" stroke="#aa3372" stroke-width=".3"/><path d="M262.5 233.9c1.8 1.5 .9 1.6 1.5 2.6c.3 .5-1.3 .8-3-0.7c-1.8-1.5-2.6-3.4-2.2-3.8c.3-0.4 2 .4 3.7 2Z" fill="none" stroke="#aa3372" stroke-width=".3"/><path d="M259.5 227.1c.2-0.4 .6-0.3 1.5-0.1c.9 .2 1.6 .7 1.6 1.1c.2 0 .3 0 .4 .1c.2 0 .3 0 .5 .1c.1 .1 .2 .1 .3 .2c.2 .1 .3 .2 .4 .3c.8 .6 1.7 1.2 1.3 1.6c-0.2 .3-0.8 .3-1.5-0.1c0 .3 .2 .6 .2 .9c-0.2 .9 .5 1.1 1 1.3c1 .7 1.7 2.1 1.1 3c-0.5 .7-2.2 .7-3.3 0c-0.5-0.1-0.6-1-1.1-1.3c-0.2-0.1-0.7 .4-1 .3c-0.2-0.1-0.4 0-0.7 .1c.7 .6 1 1.5 .6 1.9c-0.4 .5-1.2-0.4-2.1-1.1c-0.1-0.1-0.2-0.2-0.3-0.3c-0.1-0.1-0.2-0.2-0.3-0.4c-0.1-0.1-0.2-0.2-0.2-0.4c-0.1-0.1-0.1-0.3-0.2-0.4c-0.4-0.1-0.9-0.7-1.2-1.5c-0.4-0.9-0.7-1.1-0.3-1.3c0 0 0 0 0 0c0 0 0 0 .1 0c0 0 0 0 0 0c0 0 0 0 0 0c0-0.1 0-0.1-0.1-0.1c0-0.1 0-0.1 0-0.1c0-0.1-0.1-0.1-0.1-0.1c0-0.1 0-0.1-0.1-0.1c-1.4-1.9-2.8-2.7-2-3.8c.7-1.2 2.1-0.6 4.2-0.1c.4 .1 .8 .2 1.3 .3Z" fill="url(#Gradient-6)"/><path d="M262.3 230.4c.5 .2 .8 1.2 1.3 1.4c.4 .2 1 .3 1.4 .6c1.1 .7 1.7 2.2 1.3 3c-0.4 .9-2.3 .8-3.5 0c-0.4-0.3-0.6-0.9-1-1.2c-0.2-0.2-0.7-0.3-1-0.5c-0.8-0.5-0.8-1.2-0.9-1.3" fill="none" stroke="#aa3372" stroke-width=".3"/><path d="M260.9 234.5c-0.2-0.1-0.4 0-0.7 .1c.7 .6 1 1.5 .6 1.9c-0.4 .5-1.2-0.4-2-1.1c-0.2-0.1-0.3-0.2-0.4-0.3c-0.1-0.1-0.2-0.3-0.3-0.4c-0.1-0.1-0.1-0.3-0.2-0.4c-0.1-0.2-0.1-0.3-0.1-0.5c-0.4 0-0.9-0.6-1.3-1.4c-0.4-0.9-0.7-1.1-0.3-1.3c0 0 0 0 0 0c0 0 0 0 .1 0c0 0 0 0 0 0c0 0 0 0 0 0c0-0.1 0-0.1-0.1-0.1c0-0.1 0-0.1 0-0.1c0-0.1-0.1-0.1-0.1-0.1c0-0.1 0-0.1-0.1-0.1c-1.4-1.9-2.8-2.7-2-3.8c.7-1.2 2.1-0.6 4.2-0.1c.4 .1 .8 .2 1.3 .3c.2-0.4 .6-0.3 1.5-0.1c.9 .2 1.6 .7 1.6 1.2c.2 0 .3 0 .5 0c.1 .1 .2 .1 .4 .2c.1 0 .2 .1 .4 .2c.1 0 .2 .1 .3 .2c.8 .7 1.7 1.2 1.3 1.6c-0.2 .3-0.8 .3-1.5-0.1c0 .3 0 .7 .2 .9" fill="none" stroke="#aa3372" stroke-width=".3"/></g></g><g transform="translate(21.6,227) rotate(-247.7) translate(-6.8,-5.8)"><g transform="translate(-253.2,-225.7)"><path d="M265.1 230.7c1.7 1.1 1.8 2.5 1.2 2.4c-0.4-0.1-0.8 .4-2.6-0.8c-1.8-1.2-3-2.4-2.6-2.8c.3-0.3 2.2 0 4 1.2Z" fill="url(#Gradient-4)"/><path d="M262.5 233.9c1.8 1.5 .9 1.6 1.5 2.6c.3 .5-1.3 .8-3-0.7c-1.8-1.5-2.6-3.4-2.2-3.8c.3-0.4 2 .4 3.7 2Z" fill="url(#Gradient-5)"/><path d="M265.1 230.7c1.7 1.1 1.8 2.5 1.2 2.4c-0.4-0.1-0.8 .4-2.6-0.8c-1.8-1.2-3-2.4-2.6-2.8c.3-0.3 2.2 0 4 1.2Z" fill="none" stroke="#aa3372" stroke-width=".3"/><path d="M262.5 233.9c1.8 1.5 .9 1.6 1.5 2.6c.3 .5-1.3 .8-3-0.7c-1.8-1.5-2.6-3.4-2.2-3.8c.3-0.4 2 .4 3.7 2Z" fill="none" stroke="#aa3372" stroke-width=".3"/><path d="M259.5 227.1c.2-0.4 .6-0.3 1.5-0.1c.9 .2 1.6 .7 1.6 1.1c.2 0 .3 0 .4 .1c.2 0 .3 0 .5 .1c.1 .1 .2 .1 .3 .2c.2 .1 .3 .2 .4 .3c.8 .6 1.7 1.2 1.3 1.6c-0.2 .3-0.8 .3-1.5-0.1c0 .3 .2 .6 .2 .9c-0.2 .9 .5 1.1 1 1.3c1 .7 1.7 2.1 1.1 3c-0.5 .7-2.2 .7-3.3 0c-0.5-0.1-0.6-1-1.1-1.3c-0.2-0.1-0.7 .4-1 .3c-0.2-0.1-0.4 0-0.7 .1c.7 .6 1 1.5 .6 1.9c-0.4 .5-1.2-0.4-2.1-1.1c-0.1-0.1-0.2-0.2-0.3-0.3c-0.1-0.1-0.2-0.2-0.3-0.4c-0.1-0.1-0.2-0.2-0.2-0.4c-0.1-0.1-0.1-0.3-0.2-0.4c-0.4-0.1-0.9-0.7-1.2-1.5c-0.4-0.9-0.7-1.1-0.3-1.3c0 0 0 0 0 0c0 0 0 0 .1 0c0 0 0 0 0 0c0 0 0 0 0 0c0-0.1 0-0.1-0.1-0.1c0-0.1 0-0.1 0-0.1c0-0.1-0.1-0.1-0.1-0.1c0-0.1 0-0.1-0.1-0.1c-1.4-1.9-2.8-2.7-2-3.8c.7-1.2 2.1-0.6 4.2-0.1c.4 .1 .8 .2 1.3 .3Z" fill="url(#Gradient-6)"/><path d="M262.3 230.4c.5 .2 .8 1.2 1.3 1.4c.4 .2 1 .3 1.4 .6c1.1 .7 1.7 2.2 1.3 3c-0.4 .9-2.3 .8-3.5 0c-0.4-0.3-0.6-0.9-1-1.2c-0.2-0.2-0.7-0.3-1-0.5c-0.8-0.5-0.8-1.2-0.9-1.3" fill="none" stroke="#aa3372" stroke-width=".3"/><path d="M260.9 234.5c-0.2-0.1-0.4 0-0.7 .1c.7 .6 1 1.5 .6 1.9c-0.4 .5-1.2-0.4-2-1.1c-0.2-0.1-0.3-0.2-0.4-0.3c-0.1-0.1-0.2-0.3-0.3-0.4c-0.1-0.1-0.1-0.3-0.2-0.4c-0.1-0.2-0.1-0.3-0.1-0.5c-0.4 0-0.9-0.6-1.3-1.4c-0.4-0.9-0.7-1.1-0.3-1.3c0 0 0 0 0 0c0 0 0 0 .1 0c0 0 0 0 0 0c0 0 0 0 0 0c0-0.1 0-0.1-0.1-0.1c0-0.1 0-0.1 0-0.1c0-0.1-0.1-0.1-0.1-0.1c0-0.1 0-0.1-0.1-0.1c-1.4-1.9-2.8-2.7-2-3.8c.7-1.2 2.1-0.6 4.2-0.1c.4 .1 .8 .2 1.3 .3c.2-0.4 .6-0.3 1.5-0.1c.9 .2 1.6 .7 1.6 1.2c.2 0 .3 0 .5 0c.1 .1 .2 .1 .4 .2c.1 0 .2 .1 .4 .2c.1 0 .2 .1 .3 .2c.8 .7 1.7 1.2 1.3 1.6c-0.2 .3-0.8 .3-1.5-0.1c0 .3 0 .7 .2 .9" fill="none" stroke="#aa3372" stroke-width=".3"/></g></g><g transform="translate(44.6,253.7) rotate(-267.9) translate(-6.8,-5.8)"><g transform="translate(-253.2,-225.7)"><path d="M265.1 230.7c1.7 1.1 1.8 2.5 1.2 2.4c-0.4-0.1-0.8 .4-2.6-0.8c-1.8-1.2-3-2.4-2.6-2.8c.3-0.3 2.2 0 4 1.2Z" fill="url(#Gradient-4)"/><path d="M262.5 233.9c1.8 1.5 .9 1.6 1.5 2.6c.3 .5-1.3 .8-3-0.7c-1.8-1.5-2.6-3.4-2.2-3.8c.3-0.4 2 .4 3.7 2Z" fill="url(#Gradient-5)"/><path d="M265.1 230.7c1.7 1.1 1.8 2.5 1.2 2.4c-0.4-0.1-0.8 .4-2.6-0.8c-1.8-1.2-3-2.4-2.6-2.8c.3-0.3 2.2 0 4 1.2Z" fill="none" stroke="#aa3372" stroke-width=".3"/><path d="M262.5 233.9c1.8 1.5 .9 1.6 1.5 2.6c.3 .5-1.3 .8-3-0.7c-1.8-1.5-2.6-3.4-2.2-3.8c.3-0.4 2 .4 3.7 2Z" fill="none" stroke="#aa3372" stroke-width=".3"/><path d="M259.5 227.1c.2-0.4 .6-0.3 1.5-0.1c.9 .2 1.6 .7 1.6 1.1c.2 0 .3 0 .4 .1c.2 0 .3 0 .5 .1c.1 .1 .2 .1 .3 .2c.2 .1 .3 .2 .4 .3c.8 .6 1.7 1.2 1.3 1.6c-0.2 .3-0.8 .3-1.5-0.1c0 .3 .2 .6 .2 .9c-0.2 .9 .5 1.1 1 1.3c1 .7 1.7 2.1 1.1 3c-0.5 .7-2.2 .7-3.3 0c-0.5-0.1-0.6-1-1.1-1.3c-0.2-0.1-0.7 .4-1 .3c-0.2-0.1-0.4 0-0.7 .1c.7 .6 1 1.5 .6 1.9c-0.4 .5-1.2-0.4-2.1-1.1c-0.1-0.1-0.2-0.2-0.3-0.3c-0.1-0.1-0.2-0.2-0.3-0.4c-0.1-0.1-0.2-0.2-0.2-0.4c-0.1-0.1-0.1-0.3-0.2-0.4c-0.4-0.1-0.9-0.7-1.2-1.5c-0.4-0.9-0.7-1.1-0.3-1.3c0 0 0 0 0 0c0 0 0 0 .1 0c0 0 0 0 0 0c0 0 0 0 0 0c0-0.1 0-0.1-0.1-0.1c0-0.1 0-0.1 0-0.1c0-0.1-0.1-0.1-0.1-0.1c0-0.1 0-0.1-0.1-0.1c-1.4-1.9-2.8-2.7-2-3.8c.7-1.2 2.1-0.6 4.2-0.1c.4 .1 .8 .2 1.3 .3Z" fill="url(#Gradient-6)"/><path d="M262.3 230.4c.5 .2 .8 1.2 1.3 1.4c.4 .2 1 .3 1.4 .6c1.1 .7 1.7 2.2 1.3 3c-0.4 .9-2.3 .8-3.5 0c-0.4-0.3-0.6-0.9-1-1.2c-0.2-0.2-0.7-0.3-1-0.5c-0.8-0.5-0.8-1.2-0.9-1.3" fill="none" stroke="#aa3372" stroke-width=".3"/><path d="M260.9 234.5c-0.2-0.1-0.4 0-0.7 .1c.7 .6 1 1.5 .6 1.9c-0.4 .5-1.2-0.4-2-1.1c-0.2-0.1-0.3-0.2-0.4-0.3c-0.1-0.1-0.2-0.3-0.3-0.4c-0.1-0.1-0.1-0.3-0.2-0.4c-0.1-0.2-0.1-0.3-0.1-0.5c-0.4 0-0.9-0.6-1.3-1.4c-0.4-0.9-0.7-1.1-0.3-1.3c0 0 0 0 0 0c0 0 0 0 .1 0c0 0 0 0 0 0c0 0 0 0 0 0c0-0.1 0-0.1-0.1-0.1c0-0.1 0-0.1 0-0.1c0-0.1-0.1-0.1-0.1-0.1c0-0.1 0-0.1-0.1-0.1c-1.4-1.9-2.8-2.7-2-3.8c.7-1.2 2.1-0.6 4.2-0.1c.4 .1 .8 .2 1.3 .3c.2-0.4 .6-0.3 1.5-0.1c.9 .2 1.6 .7 1.6 1.2c.2 0 .3 0 .5 0c.1 .1 .2 .1 .4 .2c.1 0 .2 .1 .4 .2c.1 0 .2 .1 .3 .2c.8 .7 1.7 1.2 1.3 1.6c-0.2 .3-0.8 .3-1.5-0.1c0 .3 0 .7 .2 .9" fill="none" stroke="#aa3372" stroke-width=".3"/></g></g><g transform="translate(133.6,296.4) rotate(-296.9) translate(-6.8,-5.8)"><g transform="translate(-253.2,-225.7)"><path d="M265.1 230.7c1.7 1.1 1.8 2.5 1.2 2.4c-0.4-0.1-0.8 .4-2.6-0.8c-1.8-1.2-3-2.4-2.6-2.8c.3-0.3 2.2 0 4 1.2Z" fill="url(#Gradient-4)"/><path d="M262.5 233.9c1.8 1.5 .9 1.6 1.5 2.6c.3 .5-1.3 .8-3-0.7c-1.8-1.5-2.6-3.4-2.2-3.8c.3-0.4 2 .4 3.7 2Z" fill="url(#Gradient-5)"/><path d="M265.1 230.7c1.7 1.1 1.8 2.5 1.2 2.4c-0.4-0.1-0.8 .4-2.6-0.8c-1.8-1.2-3-2.4-2.6-2.8c.3-0.3 2.2 0 4 1.2Z" fill="none" stroke="#aa3372" stroke-width=".3"/><path d="M262.5 233.9c1.8 1.5 .9 1.6 1.5 2.6c.3 .5-1.3 .8-3-0.7c-1.8-1.5-2.6-3.4-2.2-3.8c.3-0.4 2 .4 3.7 2Z" fill="none" stroke="#aa3372" stroke-width=".3"/><path d="M259.5 227.1c.2-0.4 .6-0.3 1.5-0.1c.9 .2 1.6 .7 1.6 1.1c.2 0 .3 0 .4 .1c.2 0 .3 0 .5 .1c.1 .1 .2 .1 .3 .2c.2 .1 .3 .2 .4 .3c.8 .6 1.7 1.2 1.3 1.6c-0.2 .3-0.8 .3-1.5-0.1c0 .3 .2 .6 .2 .9c-0.2 .9 .5 1.1 1 1.3c1 .7 1.7 2.1 1.1 3c-0.5 .7-2.2 .7-3.3 0c-0.5-0.1-0.6-1-1.1-1.3c-0.2-0.1-0.7 .4-1 .3c-0.2-0.1-0.4 0-0.7 .1c.7 .6 1 1.5 .6 1.9c-0.4 .5-1.2-0.4-2.1-1.1c-0.1-0.1-0.2-0.2-0.3-0.3c-0.1-0.1-0.2-0.2-0.3-0.4c-0.1-0.1-0.2-0.2-0.2-0.4c-0.1-0.1-0.1-0.3-0.2-0.4c-0.4-0.1-0.9-0.7-1.2-1.5c-0.4-0.9-0.7-1.1-0.3-1.3c0 0 0 0 0 0c0 0 0 0 .1 0c0 0 0 0 0 0c0 0 0 0 0 0c0-0.1 0-0.1-0.1-0.1c0-0.1 0-0.1 0-0.1c0-0.1-0.1-0.1-0.1-0.1c0-0.1 0-0.1-0.1-0.1c-1.4-1.9-2.8-2.7-2-3.8c.7-1.2 2.1-0.6 4.2-0.1c.4 .1 .8 .2 1.3 .3Z" fill="url(#Gradient-6)"/><path d="M262.3 230.4c.5 .2 .8 1.2 1.3 1.4c.4 .2 1 .3 1.4 .6c1.1 .7 1.7 2.2 1.3 3c-0.4 .9-2.3 .8-3.5 0c-0.4-0.3-0.6-0.9-1-1.2c-0.2-0.2-0.7-0.3-1-0.5c-0.8-0.5-0.8-1.2-0.9-1.3" fill="none" stroke="#aa3372" stroke-width=".3"/><path d="M260.9 234.5c-0.2-0.1-0.4 0-0.7 .1c.7 .6 1 1.5 .6 1.9c-0.4 .5-1.2-0.4-2-1.1c-0.2-0.1-0.3-0.2-0.4-0.3c-0.1-0.1-0.2-0.3-0.3-0.4c-0.1-0.1-0.1-0.3-0.2-0.4c-0.1-0.2-0.1-0.3-0.1-0.5c-0.4 0-0.9-0.6-1.3-1.4c-0.4-0.9-0.7-1.1-0.3-1.3c0 0 0 0 0 0c0 0 0 0 .1 0c0 0 0 0 0 0c0 0 0 0 0 0c0-0.1 0-0.1-0.1-0.1c0-0.1 0-0.1 0-0.1c0-0.1-0.1-0.1-0.1-0.1c0-0.1 0-0.1-0.1-0.1c-1.4-1.9-2.8-2.7-2-3.8c.7-1.2 2.1-0.6 4.2-0.1c.4 .1 .8 .2 1.3 .3c.2-0.4 .6-0.3 1.5-0.1c.9 .2 1.6 .7 1.6 1.2c.2 0 .3 0 .5 0c.1 .1 .2 .1 .4 .2c.1 0 .2 .1 .4 .2c.1 0 .2 .1 .3 .2c.8 .7 1.7 1.2 1.3 1.6c-0.2 .3-0.8 .3-1.5-0.1c0 .3 0 .7 .2 .9" fill="none" stroke="#aa3372" stroke-width=".3"/></g></g></g></g></g></symbol><symbol id="bCell" preserveAspectRatio="none" width="251.8" height="231.4" viewBox="0 0 251.8 231.4" overflow="visible"><g fill-rule="evenodd" clip-rule="evenodd" stroke-linecap="round" stroke-miterlimit="1.8" transform="translate(8,21.8) scale(.8,.8)"><path d="M10.6 77.3c23-35.4 67.9-104 175.5-62.2c79.1 30.7 122.6 92.4 101.2 145.3c-21.4 52.8-46.5 90-120.3 99c-73.8 9.1-86.2-6.6-119.2-31.8c-33.1-25.1-60.3-114.8-37.2-150.3Z" fill="rgba(255,255,255,0.50)" stroke="#c67272"/><path d="M227.8 193.8c-13.1 21.7-38.6 63.8-98.7 37.5c-44.2-19.3-68.3-57.6-56-90.1c12.2-32.4 26.4-55.2 67.9-60.4c41.4-5.2 48.2 4.5 66.7 20.2c18.4 15.6 33.2 71.1 20.1 92.8Z" fill="url(#Gradient-7)"/><g opacity=".8"><path d="M13.3 78.4c22.6-34.7 66.6-101.9 172-61c77.5 30.1 120.1 90.6 99.2 142.4c-21 51.8-45.5 88.2-117.9 97.1c-72.3 8.8-84.5-6.5-116.9-31.2c-32.4-24.6-59-112.6-36.4-147.3Z" fill="#eaa647" stroke="#e18967"/><image xlink:href="https://www.abc.net.au/res/sites/news-projects/interactive-virus-treatment/master/exports/bCell_texture.jpg" width="285" height="256" preserveAspectRatio="none" mask="url(#Mask-2)" transform="translate(147.3,132) translate(-142.5,-128)"/><path d="M13.3 78.4c22.6-34.7 66.6-101.9 172-61c77.5 30.1 120.1 90.6 99.2 142.4c-21 51.8-45.5 88.2-117.9 97.1c-72.3 8.8-84.5-6.5-116.9-31.2c-32.4-24.6-59-112.6-36.4-147.3Z" fill="url(#Gradient-8)"/><path d="M13.3 78.4c22.6-34.7 66.6-101.9 172-61c77.5 30.1 120.1 90.6 99.2 142.4c-21 51.8-45.5 88.2-117.9 97.1c-72.3 8.8-84.5-6.5-116.9-31.2c-32.4-24.6-59-112.6-36.4-147.3Z" fill="url(#Gradient-9)"/></g></g></symbol><symbol id="eProtein" preserveAspectRatio="none" width="8.3" height="7.4" viewBox="0 0 8.3 7.4" overflow="visible"><path d="M-0.3 0c1.2 .2 2.8 1.8 2.3 3.6c-0.6 1.9-2.8 2.3-3.6 2.2c-0.8-0.1-3.2-1.2-2.2-3.3c1-2 2.3-2.7 3.5-2.5Z" stroke="#4598ff" fill="#2ce3ff" stroke-miterlimit="1.5" stroke-linecap="round" stroke-linejoin="round" stroke-width="1.3" transform="translate(5.2,.8)"/></symbol><symbol id="mProtein" preserveAspectRatio="none" width="8.3" height="7.4" viewBox="0 0 8.3 7.4" overflow="visible"><path d="M-0.3 0c1.2 .2 2.8 1.8 2.3 3.6c-0.6 1.9-2.8 2.3-3.6 2.2c-0.8-0.1-3.2-1.2-2.2-3.3c1-2 2.3-2.7 3.5-2.5Z" stroke="#ffbc20" fill="#f8ff3a" stroke-miterlimit="1.5" stroke-linecap="round" stroke-linejoin="round" stroke-width="1.3" transform="translate(5.2,.8)"/></symbol><symbol id="IL6" preserveAspectRatio="none" width="16.7" height="17.1" viewBox="0 0 16.7 17.1" overflow="visible"><g stroke="#8f3872" stroke-width=".3" fill-rule="evenodd" clip-rule="evenodd" stroke-linecap="round" stroke-miterlimit="1.8" transform="translate(8.3,8.6) scale(.6,.6) translate(-14.2,-15.4)"><path d="M15 4.3c-0.3-0.4-0.3-0.9-0.2-1.4c.2-0.4 .5-0.8 1-1c.4-0.1 .9-0.1 1.3 .2c.4 .2 .7 .6 .8 1.1c.8-0.1 1.6 .5 1.7 1.4c.2-0.1 .4 0 .6 0v-0.1c-0.1-0.4 0-0.9 .3-1.3c.3-0.3 .7-0.5 1.1-0.6c.4 0 .9 .1 1.2 .4c.3 .3 .5 .7 .5 1.2c.5 .1 .9 .4 1.1 .8c.2 .5 .2 1 0 1.4c-0.2 .4-0.6 .8-1.1 .9c-0.5 .1-1-0.1-1.3-0.4c.1 .2 .1 .5 .1 .7c0 .3 0 .5-0.2 .7c-0.1 .2-0.2 .4-0.4 .6c-0.2 .1-0.4 .2-0.7 .2v.1c.1 .4-0.1 .8-0.3 1.2c.2 .1 .3 .3 .4 .4c.1 .2 .2 .4 .2 .7c.1 .2 0 .4 0 .6c-0.1 .2-0.2 .4-0.4 .6c.4 .2 .7 .6 .7 1.1c0-0.2 0-0.4 .1-0.6c0-0.2 .1-0.4 .3-0.5c.1-0.2 .2-0.3 .4-0.5c.2-0.1 .4-0.1 .6-0.1c-0.1-0.5 .1-1 .4-1.4c.4-0.3 .9-0.5 1.4-0.4c.4 0 .9 .3 1.1 .8c.3 .4 .3 .9 .1 1.4c.4 0 .7 .2 .9 .5c.3 .2 .4 .6 .4 1c0 .3-0.1 .7-0.3 1c-0.3 .3-0.6 .5-1 .6c.1 .8-0.5 1.6-1.3 1.7c.1 .6-0.2 1.1-0.6 1.5c.2 .1 .3 .2 .4 .4c.1 .1 .1 .3 .1 .5c.1 .2 .1 .4 0 .6c0 .1-0.1 .3-0.2 .5c.3 .1 .5 .3 .7 .6c.2 .3 .2 .6 .2 .9c0 .3-0.1 .6-0.3 .9c-0.2 .2-0.5 .4-0.8 .5c.2 .2 .3 .5 .4 .7c0 .3 0 .6-0.1 .9c-0.1 .2-0.3 .5-0.5 .6c-0.2 .2-0.5 .3-0.8 .4c.7-0.1 1.3 .2 1.6 .7c.3 .6 .3 1.3-0.1 1.8c-0.4 .5-1 .7-1.7 .5c-0.6-0.1-1-0.7-1.1-1.3c-0.2 0-0.4 0-0.6 0c-0.1 .2-0.3 .5-0.5 .7c-0.2 .1-0.5 .3-0.8 .3c-0.3 .1-0.5 0-0.8-0.1c-0.3-0.1-0.5-0.2-0.7-0.5c-0.3 0-0.5-0.1-0.8-0.3c-0.2 .3-0.4 .4-0.7 .5c-0.3 .1-0.6 .1-0.9 0c-0.3 0-0.6-0.2-0.8-0.4c-0.2-0.3-0.3-0.5-0.3-0.8h-0.1c-0.6 0-1.1-0.2-1.5-0.7h-0.1c-0.6 .1-1.1-0.1-1.4-0.5h-0.3c-0.4 .1-0.8 0-1.1-0.2c0 .2-0.1 .4-0.2 .6c-0.1 .2-0.3 .3-0.5 .4c-0.2 .2-0.4 .2-0.6 .3c-0.2 0-0.4 0-0.6 0v.1c0 .4-0.1 .8-0.3 1.2c-0.3 .3-0.7 .5-1.1 .6c-0.4 0-0.9-0.1-1.2-0.4c-0.3-0.3-0.5-0.7-0.5-1.1c-0.2-0.1-0.3-0.1-0.4-0.2c-0.1 0-0.2-0.1-0.3-0.2c-0.1-0.1-0.2-0.2-0.3-0.3c-0.1-0.1-0.1-0.3-0.2-0.4c-0.2 .1-0.4 .2-0.7 .2c-0.3 .1-0.5 0-0.8-0.1c-0.2-0.1-0.4-0.3-0.6-0.5c-0.1-0.2-0.2-0.5-0.3-0.7c0-0.2 0-0.4 .1-0.5c-0.5-0.1-0.9-0.4-1.1-0.8c-0.2-0.5-0.2-1 0-1.4c.2-0.4 .5-0.7 1-0.9c.4-0.1 .9 0 1.3 .3c-0.1-0.3-0.1-0.5-0.1-0.8c0-0.2 .1-0.5 .2-0.7c.2-0.2 .4-0.4 .6-0.5c.2-0.1 .5-0.2 .7-0.2c-0.1-0.2-0.2-0.4-0.3-0.7c0-0.3 .1-0.6 .2-0.9c.1-0.3 .3-0.5 .6-0.7c.3-0.1 .6-0.2 .9-0.2c.3 0 .6 .1 .8 .3c.1-0.1 .3-0.3 .4-0.4c.2-0.1 .4-0.1 .6-0.2c.1 0 .3 0 .5 0c.2 .1 .4 .1 .5 .2h.1c0-0.1 .1-0.2 .1-0.3h-0.2c-0.3 0-0.6 0-0.8-0.1c-0.3-0.1-0.5-0.3-0.6-0.5c-0.2-0.2-0.3-0.5-0.4-0.7c0-0.3 0-0.6 .1-0.9c-0.3-0.4-0.4-1-0.2-1.5c.3-0.5 .7-0.9 1.3-1c.5 0 1.1 .2 1.4 .6c.4 .5 .5 1.1 .2 1.6c.1 .1 .2 .2 .2 .3c.1 .2 .1 .3 .1 .4c.1 .2 .1 .3 0 .4c0 .2 0 .3 0 .4c0 0 0 0 0 0c.1 0 .1 0 .1 0c.1 0 .1 0 .1 0c.1 0 .1 0 .1 0c-0.1-0.3-0.2-0.5-0.3-0.8c0-0.3 .1-0.5 .2-0.8c.1-0.2 .2-0.4 .5-0.6c.2-0.2 .4-0.3 .7-0.3c0-0.3 0-0.7 .1-0.9c-0.3-0.1-0.6-0.2-0.8-0.4c-0.3-0.2-0.5-0.5-0.5-0.9c-0.1-0.3-0.1-0.6 .1-0.9c.1-0.3 .3-0.6 .6-0.8c0-0.2 0-0.5 0-0.8c.1-0.3 .3-0.5 .5-0.7c.2-0.2 .5-0.4 .8-0.4c.3-0.1 .6 0 .8 .1c.1-0.2 .2-0.3 .3-0.5c.1-0.1 .2-0.2 .4-0.3c.1-0.1 .3-0.2 .4-0.2c.2 0 .4 0 .6 0c-0.2-0.2-0.4-0.4-0.5-0.7c-0.1-0.2-0.1-0.5 0-0.7c0-0.3 .1-0.5 .3-0.8c.1-0.2 .4-0.3 .6-0.4Zm-11.4 18.6Zm17.8-17.1c0 0 0 .1 0 .1c0 .1 0 .1 0 .1c0 .1 0 .1 0 .2c0 0 0 0 0 .1l.1 .1c0-0.1 0-0.1 0-0.1c0-0.1-0.1-0.1-0.1-0.2c0 0 0-0.1 0-0.1c0-0.1 0-0.1 0-0.2Z" fill="#6a64cb"/><path d="M5.1 23.1c-0.8 .1-1.5-0.5-1.6-1.3c-0.1-0.8 .4-1.5 1.1-1.7c.8-0.2 1.6 .2 1.9 .9c.3 .8-0.1 1.6-0.8 2c.3 0 .5 0 .7 .1c.2 .1 .4 .2 .6 .4c.1 .2 .2 .4 .3 .6c.1 .2 .1 .4 0 .7c.7 0 1.2 .4 1.4 1.1c.2 .6 0 1.3-0.5 1.7c-0.5 .4-1.2 .4-1.7 .1c-0.6-0.3-0.9-1-0.8-1.6c-0.4 0-0.7-0.2-0.9-0.4c-0.3-0.2-0.5-0.5-0.5-0.9c-0.1-0.3 0-0.6 .1-0.9c.2-0.4 .4-0.6 .7-0.8Zm10.2-17.2c0-0.6 .4-1.2 .9-1.4c.6-0.3 1.3-0.2 1.7 .3c.5 .4 .6 1.1 .4 1.7c-0.2 .6-0.8 1-1.4 1c0 .6-0.4 1.1-0.9 1.4c.1 .2 .1 .4 .1 .6c0 .2 0 .4-0.1 .6c-0.1 .2-0.2 .4-0.3 .6c-0.2 .1-0.4 .2-0.6 .3c.3 .2 .6 .4 .7 .7c.1 .3 .2 .7 .1 1c0 .3-0.2 .6-0.5 .8c-0.2 .3-0.5 .4-0.8 .4c-0.2 .1-0.4 .1-0.6 0c-0.1 .4-0.4 .7-0.8 .9c0 .2 .1 .3 .1 .4c0 .1 0 .3 0 .4c0 .1 0 .2-0.1 .4c0 .1-0.1 .2-0.2 .3c.1 .1 .2 .2 .3 .3c.1 .1 .1 .2 .2 .4c0 .1 .1 .2 .1 .4c0 .1 0 .3-0.1 .4c.2 .1 .3 .2 .4 .3c.1 .1 .2 .2 .2 .4c.1 .1 .1 .3 .1 .4c0 .2 0 .3 0 .5c.4 .2 .7 .5 .8 .9c.3-0.1 .7-0.2 1.1-0.1c.3 .1 .6 .4 .8 .7c.2 .3 .3 .6 .3 1c0 .4-0.2 .7-0.5 1c.2 0 .4 0 .6 .1c.2 .1 .3 .2 .5 .3c.1 .1 .2 .3 .3 .5c.1 .2 .1 .3 .1 .5c.7-0.1 1.3 .3 1.6 .8c.3 .6 .3 1.3-0.1 1.8c-0.4 .5-1.1 .7-1.7 .5c-0.6-0.2-1.1-0.8-1.1-1.4c-0.2 0-0.3 0-0.4 0c-0.2 0-0.3-0.1-0.4-0.1c-0.2-0.1-0.3-0.1-0.4-0.2c-0.1-0.1-0.2-0.2-0.3-0.3c-0.2 .4-0.6 .7-1.1 .8c-0.5 .1-1-0.1-1.3-0.4c-0.4-0.3-0.6-0.8-0.5-1.3c0-0.5 .2-0.9 .6-1.2c0-0.1 0-0.1-0.1-0.2c0-0.1 0-0.2 0-0.3c0-0.1 0-0.2 0-0.3c0 0 0-0.1 0-0.2c0 0-0.1 0-0.1-0.1c0 0-0.1 0-0.1 0c-0.1 0-0.1-0.1-0.1-0.1c-0.1 0-0.1 0-0.1 0c-0.3 .2-0.7 .3-1 .3c-0.4 0-0.8-0.1-1.1-0.3c-0.2-0.3-0.4-0.6-0.5-1c-0.1-0.3 0-0.7 .2-1c-0.2 0-0.5-0.1-0.6-0.3c-0.2-0.1-0.4-0.3-0.5-0.5c-0.1-0.2-0.2-0.4-0.2-0.6c0-0.3 0-0.5 .1-0.7c-0.1-0.1-0.2-0.2-0.3-0.3c-0.1-0.2-0.1-0.3-0.2-0.4c0-0.2 0-0.3 0-0.4c0-0.2 0-0.3 0-0.5c-0.5-0.1-0.9-0.6-1-1.1c-0.1-0.5 0-1.1 .4-1.5c.4-0.4 .9-0.5 1.5-0.4c.5 .1 .9 .5 1.1 1.1c.1-0.2 .3-0.4 .5-0.5c0-0.2-0.1-0.4-0.1-0.6c0-0.2 .1-0.4 .2-0.6c0-0.2 .2-0.4 .3-0.5c.2-0.1 .3-0.3 .5-0.3c-0.1-0.2-0.1-0.5-0.1-0.7c0-0.3 0-0.5 .1-0.7c.1-0.2 .3-0.4 .5-0.5c.2-0.2 .4-0.3 .6-0.3c-0.1-0.7 .3-1.4 .9-1.7c-0.1-0.2-0.2-0.5-0.1-0.7c0-0.3 .1-0.5 .2-0.8c.1-0.2 .3-0.4 .5-0.5c.3-0.1 .5-0.2 .8-0.2Zm2 5.8c-0.4-0.5-0.4-1.2-0.1-1.7c.3-0.5 .9-0.8 1.5-0.8c.7 .1 1.2 .5 1.4 1.1c.2 .6 0 1.3-0.5 1.7c.1 .1 .1 .1 .2 .2c0 .1 0 .2 .1 .3c0 .1 0 .3 0 .4c0 .1 0 .2 0 .3c.1 .1 .2 .1 .2 .3c.1 .1 .2 .2 .2 .3c.1 .1 .1 .2 .1 .4c0 .1 0 .2 0 .3c.2 .1 .4 .2 .5 .4c.2 .1 .3 .3 .4 .5c.1 .2 .1 .4 .1 .6c0 .2 0 .4-0.1 .5c.1 0 .2-0.1 .3-0.1c.1-0.1 .2-0.1 .3-0.1c.1 0 .3 0 .4 0c.1 0 .2 0 .3 0c-0.1-0.1-0.1-0.2-0.1-0.3c-0.1-0.2-0.1-0.3-0.1-0.4c0-0.2 0-0.3 .1-0.4c0-0.1 0-0.3 .1-0.4c-0.6-0.2-1.1-0.7-1.1-1.4c0-0.7 .4-1.3 1-1.5c.6-0.3 1.3-0.1 1.7 .4c.5 .5 .6 1.2 .3 1.8c.3 .1 .6 .4 .8 .7c.2 .4 .2 .8 .1 1.2c-0.1 .4-0.3 .7-0.7 .9c-0.3 .2-0.7 .3-1.1 .2c.1 .2 .2 .5 .2 .8c-0.1 .3-0.2 .6-0.3 .8c-0.2 .3-0.4 .5-0.7 .6c-0.3 .1-0.6 .1-0.9 .1c-0.1 .4-0.4 .8-0.8 1c.8-0.2 1.6 .2 1.9 1c.3 .8-0.1 1.7-0.9 2c-0.8 .3-1.7-0.1-2-0.9c-0.3-0.8 .1-1.7 .9-2c-0.3 0-0.5 .1-0.7 .1c-0.3-0.1-0.5-0.1-0.7-0.3c-0.2-0.1-0.4-0.2-0.5-0.4c-0.1-0.2-0.2-0.5-0.3-0.7c-0.1-0.7 .3-1.4 1-1.6c-0.3 0-0.5-0.1-0.7-0.2c-0.1-0.1-0.3-0.2-0.5-0.4c-0.1-0.1-0.2-0.3-0.3-0.5c0-0.3 0-0.5 0-0.7c-0.2 0-0.3-0.1-0.5-0.3c-0.1-0.1-0.2-0.2-0.3-0.4c-0.1-0.1-0.2-0.3-0.2-0.5c0-0.2 0-0.3 0-0.5c-0.2-0.2-0.3-0.3-0.4-0.5c-0.1-0.3-0.1-0.5-0.1-0.7c0-0.2 0-0.4 .1-0.7c.1-0.2 .2-0.3 .4-0.5Zm3.4 5.6c0 0-0.1 .1-0.2 .1c0 0 .1 0 .2 .1v-0.2Zm2.3-11c.1 .5 0 .9-0.2 1.3c-0.3 .3-0.7 .6-1.1 .6c-0.4 .1-0.9 0-1.2-0.3c-0.4-0.3-0.6-0.7-0.6-1.2c0-0.4 .2-0.7 .4-1c.3-0.3 .6-0.5 1-0.6c.4 0 .8 .1 1.1 .3c.3 .2 .5 .5 .6 .9Z" fill="#5453b0"/><path d="M13.7 19c-0.7-0.1-1.2-0.6-1.3-1.2c-0.2-0.6 .1-1.3 .6-1.6c.5-0.4 1.2-0.4 1.8-0.1c.5 .4 .8 1 .6 1.7c.2 0 .4 0 .5 .1c.2 .1 .3 .2 .5 .3c.1 .2 .2 .3 .3 .5c0 .1 .1 .3 .1 .5c.2-0.1 .4-0.1 .7 0c.2 0 .4 .1 .6 .2c.2 .1 .3 .3 .5 .5c.1 .2 .2 .4 .2 .6c.2 0 .5 0 .7 .2c.2 .1 .4 .2 .6 .4c.2 .2 .3 .5 .3 .7c0 .3 0 .5-0.1 .8c.2 0 .4 .2 .6 .3c0-0.1 .1-0.2 .2-0.2c.1-0.1 .2-0.1 .3-0.1c.2-0.1 .3-0.1 .4-0.1c.1 0 .2 0 .3 0c-0.4-0.3-0.6-0.9-0.5-1.5c.2-0.5 .6-1 1.1-1.1c.5-0.2 1.1-0.1 1.5 .3c.4 .4 .6 .9 .5 1.5c.3 .1 .5 .4 .6 .7c.2 .3 .2 .6 .1 .9c-0.1 .4-0.2 .6-0.5 .9c-0.2 .2-0.5 .3-0.8 .3c.1 .2 .3 .3 .4 .5c.1 .2 .2 .4 .2 .6c0 .2 0 .4-0.1 .6c0 .2-0.1 .4-0.2 .6c.3 .3 .5 .8 .4 1.3c0 .5-0.3 .9-0.8 1.2c-0.4 .2-0.9 .2-1.4 0c-0.4-0.2-0.8-0.6-0.9-1c-0.1 .3-0.3 .5-0.5 .7c-0.3 .2-0.6 .3-0.9 .3c-0.3 0-0.6 0-0.9-0.2c-0.3-0.2-0.5-0.4-0.6-0.7c-0.4 .6-1.1 .9-1.8 .7c-0.7-0.2-1.2-0.9-1.2-1.6c.1-0.7 .6-1.3 1.4-1.4c.7-0.2 1.4 .2 1.7 .9c.1-0.2 .3-0.4 .5-0.5c0-0.4 .1-0.6 .2-0.9c-0.2 0-0.4-0.1-0.6-0.2c-0.2-0.1-0.4-0.3-0.5-0.5c-0.2-0.2-0.2-0.4-0.3-0.7c0-0.2 0-0.4 .1-0.7h-0.1c-0.3 .3-0.7 .5-1.1 .5c-0.5 .1-0.9-0.1-1.2-0.3c-0.3-0.3-0.5-0.7-0.5-1.2c0-0.4 .1-0.8 .4-1.1c0 0 0-0.1 0-0.1c0-0.1-0.1-0.1-0.1-0.1c0-0.1 0-0.1 0-0.2c0 0 0-0.1 0-0.1v-0.1c-0.1 0-0.2 0-0.3 .1c-0.2 0-0.5 0-0.7-0.1c-0.2-0.1-0.5-0.3-0.6-0.4c-0.2-0.2-0.3-0.4-0.4-0.7c-0.1-0.2-0.1-0.5 0-0.7Zm-7.7 1.9c-0.7 .1-1.3-0.2-1.6-0.7c-0.3-0.5-0.3-1.2 0-1.7c.4-0.5 1-0.8 1.6-0.7c.7 .2 1.1 .6 1.3 1.2v.1c.4-0.1 .8 0 1.1 .2c.4 .3 .6 .6 .7 1.1c0 .4-0.1 .8-0.3 1.1c-0.3 .4-0.6 .6-1 .6c0 .1 .1 .2 .1 .4c.1 .1 .1 .2 .1 .3c0 .1 0 .2 0 .3c0 .1 0 .2-0.1 .3h.2c.8-0.1 1.5 .4 1.7 1.1c.5 .2 1 .6 1.1 1.2c.1 .5 0 1.1-0.4 1.5c-0.4 .4-1 .5-1.5 .4c-0.6-0.2-1-0.6-1.1-1.1c-0.2-0.1-0.4-0.2-0.6-0.3c-0.2-0.1-0.3-0.3-0.4-0.5c-0.1-0.2-0.2-0.4-0.2-0.6c0-0.2 0-0.4 .1-0.6h-0.1c-0.5 .1-0.9 0-1.2-0.3c-0.4-0.2-0.6-0.6-0.6-1c-0.1-0.4 0-0.8 .2-1.1c.3-0.4 .6-0.6 1.1-0.7c-0.1-0.1-0.2-0.3-0.2-0.5Zm10.2-16.5c-0.7 .1-1.3-0.3-1.6-0.9c-0.3-0.6-0.2-1.3 .3-1.8c.5-0.5 1.2-0.6 1.8-0.2c.6 .3 .9 1 .8 1.6h.1c.8-0.1 1.6 .5 1.7 1.3l.3 .2c0-0.4 .1-0.8 .4-1.1c.3-0.3 .6-0.5 1-0.6c.4 0 .8 .1 1.1 .3c.3 .2 .6 .6 .6 .9v.1l.2-0.1c.6-0.1 1.3 .2 1.6 .8c.3 .5 .3 1.2-0.1 1.7c-0.4 .5-1.1 .8-1.7 .6c-0.6-0.2-1-0.7-1.1-1.3c-0.1 0-0.2 0-0.4 0c-0.1 0-0.2 0-0.3 0c-0.1 0-0.2-0.1-0.3-0.1c-0.1 0-0.2-0.1-0.3-0.2v.1c0 .3 0 .7-0.2 1c.2 .2 .4 .5 .5 .9c0 .4-0.1 .7-0.3 1c-0.1 .3-0.4 .6-0.8 .7c-0.3 .1-0.7 .1-1 0c.1 .1 .2 .2 .2 .3c.4-0.2 .8-0.2 1.2-0.1c.4 .1 .7 .4 .9 .7c.2 .4 .2 .8 .1 1.2c-0.1 .4-0.3 .7-0.6 .9c.2 0 .5 .1 .7 .2c.2 .1 .4 .2 .6 .4c.1 .2 .2 .5 .3 .7c0 .2 0 .5 0 .7c.5 .1 1 .5 1.2 1c.1-0.1 .2-0.2 .4-0.2c.1-0.1 .3-0.1 .5-0.1c.1 0 .3 0 .4 0c.2 .1 .3 .1 .5 .2c-0.1-0.1-0.1-0.2-0.1-0.3c0-0.1 0-0.2 0-0.3c0-0.1 0-0.2 .1-0.3c0-0.1 0-0.1 .1-0.2c-0.7-0.1-1.3-0.6-1.5-1.3c-0.1-0.6 .2-1.3 .8-1.7c.6-0.3 1.3-0.2 1.8 .2c.6 .5 .7 1.3 .4 1.9c.5 0 .9 .3 1.2 .7c.3 .4 .3 .9 .2 1.3c-0.2 .5-0.5 .9-1 1c-0.5 .2-1 .1-1.4-0.1c.1 .3 .1 .8-0.1 1.1c-0.2 .4-0.5 .6-0.8 .8c-0.4 .1-0.8 .1-1.2-0.1c-0.4-0.1-0.7-0.4-0.8-0.8c-0.2 .2-0.5 .3-0.8 .3c-0.2 .1-0.5 0-0.8-0.1c-0.2-0.1-0.5-0.2-0.6-0.5c-0.2-0.2-0.3-0.4-0.3-0.7c-0.1-0.2 0-0.5 0-0.7c-0.3 0-0.6-0.1-0.8-0.4c-0.3-0.2-0.4-0.5-0.5-0.8c-0.1-0.3 0-0.6 .1-0.9c.1-0.3 .3-0.6 .6-0.7c-0.1 0-0.3 0-0.4-0.1c-0.2 0-0.3-0.1-0.4-0.1c-0.1-0.1-0.2-0.2-0.3-0.3c-0.2-0.1-0.2-0.2-0.3-0.3c-0.2 .1-0.3 .1-0.5 .2c-0.3 0-0.6-0.1-0.8-0.2c-0.3-0.1-0.5-0.2-0.6-0.4c-0.2-0.3-0.3-0.5-0.4-0.8c0-0.2 0-0.5 .1-0.8c-0.2-0.2-0.4-0.5-0.4-0.9c-0.1-0.4 0-0.7 .2-1c.2-0.3 .5-0.5 .8-0.7c.3-0.1 .7-0.1 1.1 0l.1-0.2c-0.3-0.2-0.4-0.5-0.5-0.9c-0.2 0-0.3-0.1-0.4-0.2c-0.2-0.2-0.3-0.3-0.4-0.5c-0.1-0.1-0.1-0.3-0.1-0.5c-0.1-0.1-0.1-0.3 0-0.5Z" fill="#9995e6"/></g></symbol><radialGradient id="Gradient-0" cx="0" cy="0" r="1" fx="0" fy="0" gradientUnits="userSpaceOnUse" gradientTransform="matrix(86.8 0 0 86.9 170.7 176.2)"><stop offset="0" stop-color="#a4009e"/><stop offset=".7" stop-color="#a4009e" stop-opacity=".86"/><stop offset=".8" stop-color="#a4009e" stop-opacity=".47"/><stop offset="1" stop-color="#a4009e" stop-opacity="0"/></radialGradient><linearGradient id="Gradient-1" x1="0" y1="0" x2="1" y2="-0.2" gradientUnits="userSpaceOnUse" gradientTransform="matrix(-148.2 -249.1 191.9 -154 230.3 265.2)"><stop offset="0" stop-color="#55b0b8" stop-opacity="0"/><stop offset=".5" stop-color="#55b0b8" stop-opacity=".18"/><stop offset="1" stop-color="#55b0b8" stop-opacity=".8"/></linearGradient><radialGradient id="Gradient-2" cx="0" cy="0" r="1" fx="0" fy="0" gradientUnits="userSpaceOnUse" gradientTransform="matrix(72 123.8 -123.8 72 143.6 148.6)"><stop offset="0" stop-color="#3d839b" stop-opacity="0"/><stop offset=".5" stop-color="#3d839b" stop-opacity="0"/><stop offset=".9" stop-color="#3d839b" stop-opacity="0"/><stop offset="1" stop-color="#3d839b"/></radialGradient><radialGradient id="Gradient-3" cx="0" cy="0" r="1" fx="0" fy="0" gradientUnits="userSpaceOnUse" gradientTransform="matrix(84.9 179 -166.2 91.4 124 99)"><stop offset="0" stop-color="#fff" stop-opacity=".4"/><stop offset=".1" stop-color="#fff" stop-opacity=".29"/><stop offset=".3" stop-color="#fff" stop-opacity="0"/><stop offset=".5" stop-color="#3d839b" stop-opacity="0"/><stop offset=".8" stop-color="#3d839b" stop-opacity=".6"/><stop offset="1" stop-color="#3d839b" stop-opacity=".3"/></radialGradient><linearGradient id="Gradient-4" x1="0" y1="0" x2="1" y2=".1" gradientUnits="userSpaceOnUse" gradientTransform="matrix(.7 1.5 -3.1 .5 264.2 231.2)"><stop offset="0" stop-color="#fdb15f"/><stop offset=".2" stop-color="#f58b63"/><stop offset=".4" stop-color="#ed6666"/><stop offset="1" stop-color="#e95567"/></linearGradient><linearGradient id="Gradient-5" x1="0" y1="0" x2="1" y2=".1" gradientUnits="userSpaceOnUse" gradientTransform="matrix(.6 1.9 -3.1 .4 261.6 234.5)"><stop offset="0" stop-color="#fdb15f"/><stop offset=".2" stop-color="#f58b63"/><stop offset=".4" stop-color="#ed6666"/><stop offset="1" stop-color="#e95567"/></linearGradient><linearGradient id="Gradient-6" x1="0" y1="0" x2="1" y2="0" gradientUnits="userSpaceOnUse" gradientTransform="matrix(9.6 8.6 -4.2 4.7 256 225.6)"><stop offset="0" stop-color="#e95567"/><stop offset=".7" stop-color="#ffbc5a"/><stop offset=".9" stop-color="#fcad5c"/><stop offset="1" stop-color="#f38561"/><stop offset="1" stop-color="#e95567"/></linearGradient><radialGradient id="Gradient-7" cx="0" cy="0" r="1" fx="0" fy="0" gradientUnits="userSpaceOnUse" gradientTransform="matrix(-81.5 -0.7 .6 -80.1 151.4 159.4)"><stop offset="0" stop-color="#3e3eff"/><stop offset=".7" stop-color="#3e3eff" stop-opacity=".86"/><stop offset=".8" stop-color="#3e3eff" stop-opacity=".47"/><stop offset="1" stop-color="#3e3eff" stop-opacity="0"/></radialGradient><radialGradient id="Gradient-8" cx="0" cy="0" r="1" fx="0" fy="0" gradientUnits="userSpaceOnUse" gradientTransform="matrix(59.7 127.4 -127.4 59.7 148.6 132)"><stop offset="0" stop-color="#c67272" stop-opacity="0"/><stop offset=".5" stop-color="#c67272" stop-opacity="0"/><stop offset=".9" stop-color="#c67272" stop-opacity="0"/><stop offset="1" stop-color="#c67272"/></radialGradient><radialGradient id="Gradient-9" cx="0" cy="0" r="1" fx="0" fy="0" gradientUnits="userSpaceOnUse" gradientTransform="matrix(86.4 156.3 -156.3 86.4 126.4 89.3)"><stop offset="0" stop-color="#fff" stop-opacity=".4"/><stop offset=".1" stop-color="#fff" stop-opacity=".29"/><stop offset=".3" stop-color="#fff" stop-opacity="0"/><stop offset=".5" stop-color="#da6a41" stop-opacity="0"/><stop offset=".8" stop-color="#da6a41"/><stop offset="1" stop-color="#da6a41" stop-opacity=".3"/></radialGradient><mask id="Mask-1"><path d="M69.7 264.4c-26.9-19.4-65.3-52.2-63-107.5c1.7-41.5 19.4-77.6 45-106.6c19-21.4 37-37.7 66.3-43.5c17.1-3.4 33.8-2.6 49.8 2.9c41.9 14.4 81.1 44.4 102.8 84.4c20.8 38.2 9.1 99-16.6 133.1c-10.7 14.1-25.1 26.1-38.5 37.2c-15.9 13-29.3 21.2-50.5 24.6c-30.3 4.8-71.4-7.6-95.3-24.6Z" fill="#fff" transform="translate(73.6,-47.9) rotate(30) scale(.8,.801)"/></mask><mask id="Mask-2"><path d="M13.3 78.4c22.6-34.7 66.6-101.9 172-61c77.5 30.1 120.1 90.6 99.2 142.4c-21 51.8-45.5 88.2-117.9 97.1c-72.3 8.8-84.5-6.5-116.9-31.2c-32.4-24.6-59-112.6-36.4-147.3Z" fill="#fff" transform="translate(-4.8,-4)"/></mask></defs><g transform="translate(158.4,491.1) translate(-795.3,-832)"><g id="All" transform="translate(68.6,1572.2) translate(0,0) scale(3,3) translate(-262.8,-577.3)"><g id="Cytokines" transform="translate(529.1,252) scale(.803,.803) translate(-252.6,-348.4)"><use width="16.7" height="17.1" xlink:href="#IL6" transform="translate(301.8,495.6) rotate(-2915) translate(-8.3,-8.6)"/><use width="16.7" height="17.1" xlink:href="#IL6" transform="translate(256.3,559) rotate(1983.6) translate(-8.3,-8.6)"/><use width="16.7" height="17.1" xlink:href="#IL6" transform="translate(191.1,381.4) rotate(2629.9) translate(-8.3,-8.6)"/><use width="16.7" height="17.1" xlink:href="#IL6" transform="translate(240.4,245.4) rotate(-3329) translate(-8.3,-8.6)"/><g transform="translate(293.1,408.1) translate(-11.6,-11.7)"><use width="16.7" height="17.1" xlink:href="#IL6" transform="translate(-79.7,22.8) rotate(-3048.6) translate(-8.3,-8.6)"/><use width="16.7" height="17.1" xlink:href="#IL6" transform="translate(-49.1,105.9) rotate(-2978.6) translate(-8.3,-8.6)"/><use width="16.7" height="17.1" xlink:href="#IL6" transform="translate(-176.4,56.3) rotate(-3027.9) translate(-8.3,-8.6)"/><use width="16.7" height="17.1" xlink:href="#IL6" transform="translate(-158.2,-68.8) rotate(2071) translate(-8.3,-8.6)"/><use width="16.7" height="17.1" xlink:href="#IL6" transform="translate(76.4,174.6) rotate(2071) translate(-8.3,-8.6)"/></g></g><g id="_a0" opacity="0" transform="translate(602.7,345.6) translate(-592.5,-842)"><use id="_a1" xlink:href="#tCell" width="242.3" height="241.3" transform="translate(984.4,996.6) rotate(-20) translate(-121.2,-120.6)"/><use id="_a2" xlink:href="#tCell" width="242.3" height="241.3" transform="translate(1019.7,440.3) translate(0,0) rotate(30) translate(-121.2,-120.6)"/><use id="_a3" xlink:href="#tCell" width="242.3" height="241.3" transform="translate(643.3,1129.4) translate(0,0) rotate(30) translate(-121.2,-120.6)"/><use id="_a4" xlink:href="#tCell" width="242.3" height="241.3" transform="translate(544.3,165.1) translate(0,0) rotate(30) translate(-121.2,-120.6)"/><use id="_a5" xlink:href="#tCell" width="242.3" height="241.3" transform="translate(170.4,798.7) translate(0,0) rotate(40) translate(-121.2,-120.6)"/><use id="_a6" xlink:href="#tCell" width="242.3" height="241.3" transform="translate(310.4,1294.5) rotate(-10) translate(-121.2,-120.6)"/><use id="_a7" xlink:href="#bCell" width="251.8" height="231.4" transform="translate(934.4,820.7) translate(0,0) translate(-125.9,-115.7)"/><use id="_a8" xlink:href="#bCell" width="251.8" height="231.4" transform="translate(324.1,444.3) rotate(-20) translate(-125.9,-115.7)"/><use id="_a9" xlink:href="#bCell" width="251.8" height="231.4" transform="translate(752.1,1274.6) translate(0,0) rotate(30) translate(-125.9,-115.7)"/><use id="_a10" xlink:href="#bCell" width="251.8" height="231.4" transform="translate(544.3,1548.2) translate(0,0) rotate(-10) translate(-125.9,-115.7)"/></g><use id="_a11" xlink:href="#bCell" width="251.8" height="231.4" transform="translate(401.5,445.5) translate(0,0) rotate(-30) translate(-125.9,-115.7)"/><use xlink:href="#tCell" width="242.3" height="241.3" transform="translate(628.1,244.9) rotate(80) translate(-121.2,-120.6)"/><g transform="translate(786,198.5) rotate(113.2) scale(.8,.8)"><path d="M265.1 230.7c1.7 1.1 1.8 2.5 1.2 2.4c-0.4-0.1-0.8 .4-2.6-0.8c-1.8-1.2-3-2.4-2.6-2.8c.3-0.3 2.2 0 4 1.2Z" fill="url(#Gradient-4)"/><path d="M262.5 233.9c1.8 1.5 .9 1.6 1.5 2.6c.3 .5-1.3 .8-3-0.7c-1.8-1.5-2.6-3.4-2.2-3.8c.3-0.4 2 .4 3.7 2Z" fill="url(#Gradient-5)"/><path d="M265.1 230.7c1.7 1.1 1.8 2.5 1.2 2.4c-0.4-0.1-0.8 .4-2.6-0.8c-1.8-1.2-3-2.4-2.6-2.8c.3-0.3 2.2 0 4 1.2Z" fill="none" stroke="#aa3372" stroke-width=".3"/><path d="M262.5 233.9c1.8 1.5 .9 1.6 1.5 2.6c.3 .5-1.3 .8-3-0.7c-1.8-1.5-2.6-3.4-2.2-3.8c.3-0.4 2 .4 3.7 2Z" fill="none" stroke="#aa3372" stroke-width=".3"/></g><use width="16.7" height="17.1" xlink:href="#IL6" transform="translate(526.6,320.2) rotate(-696.6) scale(.8,.8) translate(-8.3,-8.6)"/><g transform="translate(786,198.5) rotate(113.2) scale(.8,.8)"><path d="M259.5 227.1c.2-0.4 .6-0.3 1.5-0.1c.9 .2 1.6 .7 1.6 1.1c.2 0 .3 0 .4 .1c.2 0 .3 0 .5 .1c.1 .1 .2 .1 .3 .2c.2 .1 .3 .2 .4 .3c.8 .6 1.7 1.2 1.3 1.6c-0.2 .3-0.8 .3-1.5-0.1c0 .3 .2 .6 .2 .9c-0.2 .9 .5 1.1 1 1.3c1 .7 1.7 2.1 1.1 3c-0.5 .7-2.2 .7-3.3 0c-0.5-0.1-0.6-1-1.1-1.3c-0.2-0.1-0.7 .4-1 .3c-0.2-0.1-0.4 0-0.7 .1c.7 .6 1 1.5 .6 1.9c-0.4 .5-1.2-0.4-2.1-1.1c-0.1-0.1-0.2-0.2-0.3-0.3c-0.1-0.1-0.2-0.2-0.3-0.4c-0.1-0.1-0.2-0.2-0.2-0.4c-0.1-0.1-0.1-0.3-0.2-0.4c-0.4-0.1-0.9-0.7-1.2-1.5c-0.4-0.9-0.7-1.1-0.3-1.3c0 0 0 0 0 0c0 0 0 0 .1 0c0 0 0 0 0 0c0 0 0 0 0 0c0-0.1 0-0.1-0.1-0.1c0-0.1 0-0.1 0-0.1c0-0.1-0.1-0.1-0.1-0.1c0-0.1 0-0.1-0.1-0.1c-1.4-1.9-2.8-2.7-2-3.8c.7-1.2 2.1-0.6 4.2-0.1c.4 .1 .8 .2 1.3 .3Z" fill="url(#Gradient-6)"/><path d="M262.3 230.4c.5 .2 .8 1.2 1.3 1.4c.4 .2 1 .3 1.4 .6c1.1 .7 1.7 2.2 1.3 3c-0.4 .9-2.3 .8-3.5 0c-0.4-0.3-0.6-0.9-1-1.2c-0.2-0.2-0.7-0.3-1-0.5c-0.8-0.5-0.8-1.2-0.9-1.3" fill="none" stroke="#aa3372" stroke-width=".3"/><path d="M260.9 234.5c-0.2-0.1-0.4 0-0.7 .1c.7 .6 1 1.5 .6 1.9c-0.4 .5-1.2-0.4-2-1.1c-0.2-0.1-0.3-0.2-0.4-0.3c-0.1-0.1-0.2-0.3-0.3-0.4c-0.1-0.1-0.1-0.3-0.2-0.4c-0.1-0.2-0.1-0.3-0.1-0.5c-0.4 0-0.9-0.6-1.3-1.4c-0.4-0.9-0.7-1.1-0.3-1.3c0 0 0 0 0 0c0 0 0 0 .1 0c0 0 0 0 0 0c0 0 0 0 0 0c0-0.1 0-0.1-0.1-0.1c0-0.1 0-0.1 0-0.1c0-0.1-0.1-0.1-0.1-0.1c0-0.1 0-0.1-0.1-0.1c-1.4-1.9-2.8-2.7-2-3.8c.7-1.2 2.1-0.6 4.2-0.1c.4 .1 .8 .2 1.3 .3c.2-0.4 .6-0.3 1.5-0.1c.9 .2 1.6 .7 1.6 1.2c.2 0 .3 0 .5 0c.1 .1 .2 .1 .4 .2c.1 0 .2 .1 .4 .2c.1 0 .2 .1 .3 .2c.8 .7 1.7 1.2 1.3 1.6c-0.2 .3-0.8 .3-1.5-0.1c0 .3 0 .7 .2 .9" fill="none" stroke="#aa3372" stroke-width=".3"/></g><g transform="translate(773.3,324.6) rotate(162.2) scale(.8,.8)"><path d="M265.1 230.7c1.7 1.1 1.8 2.5 1.2 2.4c-0.4-0.1-0.8 .4-2.6-0.8c-1.8-1.2-3-2.4-2.6-2.8c.3-0.3 2.2 0 4 1.2Z" fill="url(#Gradient-4)"/><path d="M262.5 233.9c1.8 1.5 .9 1.6 1.5 2.6c.3 .5-1.3 .8-3-0.7c-1.8-1.5-2.6-3.4-2.2-3.8c.3-0.4 2 .4 3.7 2Z" fill="url(#Gradient-5)"/><path d="M265.1 230.7c1.7 1.1 1.8 2.5 1.2 2.4c-0.4-0.1-0.8 .4-2.6-0.8c-1.8-1.2-3-2.4-2.6-2.8c.3-0.3 2.2 0 4 1.2Z" fill="none" stroke="#aa3372" stroke-width=".3"/><path d="M262.5 233.9c1.8 1.5 .9 1.6 1.5 2.6c.3 .5-1.3 .8-3-0.7c-1.8-1.5-2.6-3.4-2.2-3.8c.3-0.4 2 .4 3.7 2Z" fill="none" stroke="#aa3372" stroke-width=".3"/></g><g stroke="#9b6400" stroke-width=".3" fill-rule="evenodd" clip-rule="evenodd" stroke-linecap="round" stroke-miterlimit="1.8" transform="translate(508.2,210.7) rotate(-1052) scale(.603,.603) translate(-14.7,-15.3)"><path d="M2 3.8c-0.2-0.3-0.3-0.7-0.2-1.1c.1-0.4 .4-0.8 .7-1c.4-0.2 .8-0.3 1.2-0.2c.4 .1 .7 .3 .9 .7c.3-0.2 .6-0.4 .9-0.4c.3 0 .6 0 .9 .2c.3 .2 .5 .4 .6 .7c.2 .3 .2 .6 .1 .9c.3 .3 .4 .7 .3 1.1c.2-0.1 .4-0.1 .6-0.1c.2 0 .4 .1 .5 .2c.2 0 .4 .1 .5 .3c.1 .1 .2 .3 .3 .4c.2-0.1 .5-0.2 .8-0.3c.3 0 .6 .1 .8 .2c.3 .1 .5 .3 .7 .6c.1 .2 .2 .5 .2 .8h.2c.3 .1 .5 .2 .8 .4c.2 .2 .3 .5 .4 .8c.1 .2 .1 .5 0 .8c-0.1 .3-0.3 .6-0.5 .7c0 .1 .1 .3 .1 .4c.1 .1 .1 .2 .1 .4c0 .1 0 .2 0 .3c0 .2 0 .3-0.1 .4c.5 .2 .9 .7 .9 1.3c.3-0.1 .5 0 .8 .1c.2 .1 .4 .3 .6 .5c.1 .2 .2 .5 .3 .8c0 .2-0.1 .5-0.2 .7c.1 .1 .2 .2 .3 .2c.2-0.5 .6-0.9 1.2-1c0-0.1 0-0.3 0-0.5c.1-0.6 .7-1.1 1.3-1.2c.1-0.1 .3-0.1 .4-0.2c0-0.1-0.1-0.3-0.1-0.4c-0.3-0.2-0.6-0.5-0.7-0.9c-0.2-0.3-0.2-0.8 0-1.1c.1-0.4 .4-0.7 .8-0.8c.3-0.2 .7-0.2 1.1-0.1v-0.1c.1-0.4 .4-0.8 .7-1c-0.1-0.4 0-0.8 .2-1.2c.2-0.3 .5-0.6 .9-0.7c.4-0.1 .8 0 1.2 .2c.3 .2 .6 .5 .7 .9c.2-0.3 .5-0.5 .8-0.6c.4 0 .7 0 1 .1c.3 .1 .6 .3 .8 .6c.2 .3 .2 .7 .2 1c.3-0.1 .6-0.1 .9 0c.3 .1 .5 .3 .7 .6c.2 .2 .3 .5 .3 .8c0 .3 0 .6-0.2 .9c.3 .1 .6 .3 .8 .5c.2 .2 .3 .5 .3 .8c.1 .3 0 .6-0.1 .9c-0.1 .3-0.4 .5-0.6 .7c.2 .2 .3 .4 .3 .7c.1 .3 0 .6-0.1 .8c-0.1 .3-0.2 .5-0.5 .7c-0.2 .2-0.5 .3-0.7 .3l-0.2 .1c-0.1 .1-0.2 .2-0.3 .3c-0.2 0-0.3 .1-0.5 .1c-0.1 0-0.3 0-0.4 0c-0.2 0-0.3 0-0.4-0.1c-0.1 .2-0.2 .3-0.3 .4c-0.1 .2-0.2 .3-0.3 .4c-0.2 .1-0.3 .1-0.5 .2c-0.1 0-0.3 0-0.4 0c-0.2 .2-0.4 .3-0.6 .4c-0.1 0-0.3 .1-0.6 .1c-0.2 0-0.4-0.1-0.5-0.2c-0.2-0.1-0.4-0.2-0.5-0.3c-0.2 .1-0.4 .2-0.6 .3c-0.2 .1-0.4 .1-0.6 .1c-0.2 0-0.4-0.1-0.6-0.2c-0.1 0-0.3-0.2-0.4-0.3c-0.3 .1-0.5 .2-0.8 .3c-0.3 .5-1 .8-1.6 .7h-0.1l-0.2 .1c.1 .2 .1 .4 .2 .6c0 .1-0.1 .3-0.1 .5c-0.1 .1-0.2 .3-0.3 .5c-0.1 .1-0.2 .2-0.4 .3c.3 .1 .5 .2 .7 .3c.2 .2 .4 .4 .5 .6c.1 .2 .1 .5 .1 .7c0 .3-0.1 .5-0.2 .7c.6 .3 .9 .9 .9 1.5c.4 .1 .7 .4 .9 .7c.3 .4 .3 .8 .2 1.2c-0.1 .4-0.3 .7-0.7 1c-0.3 .2-0.7 .3-1.1 .2l-0.1-0.1c-0.1 .2-0.1 .3-0.2 .4c.2 .3 .3 .7 .2 1.1c0 .4-0.3 .7-0.6 .9c-0.3 .3-0.7 .4-1 .4c-0.4-0.1-0.8-0.2-1.1-0.5c-0.1 .2-0.3 .4-0.6 .6c-0.2 .1-0.5 .2-0.8 .2c-0.3-0.1-0.5-0.2-0.8-0.3c-0.2-0.2-0.4-0.4-0.5-0.7c-0.2 .2-0.5 .3-0.7 .3c-0.3 .1-0.5 .1-0.8 0c-0.2-0.1-0.4-0.3-0.6-0.5c-0.2-0.2-0.3-0.4-0.4-0.7c-0.2 0-0.4 0-0.6-0.1c-0.2-0.1-0.4-0.3-0.5-0.4c-0.2-0.2-0.3-0.4-0.3-0.6c-0.1-0.3-0.1-0.5-0.1-0.7v-0.1c0-0.1 0-0.2 0-0.3c-0.1-0.1 0-0.2 0-0.4c0-0.1 0-0.2 0-0.3c.1-0.1 .1-0.2 .2-0.3c-0.4-0.1-0.7-0.3-0.9-0.6c-0.3-0.1-0.6-0.3-0.9-0.5c-0.2-0.3-0.3-0.6-0.3-1c-0.1-0.3 0-0.7 .2-0.9c.2-0.3 .5-0.5 .8-0.6c-0.3-0.3-0.5-0.7-0.6-1.1c0-0.4 .1-0.8 .3-1.1c.3-0.3 .6-0.6 1-0.6c.4-0.1 .9 0 1.2 .3c.1-0.1 .2-0.1 .3-0.1c.1 0 .2-0.1 .3-0.1c.1 0 .2 .1 .3 .1c.1 0 .2 0 .3 .1c.1-0.5 .4-0.9 .8-1.1c0 0 0 0 0-0.1c0 0 0 0 0 0c0-0.1 .1-0.1 .1-0.1c0 0 0-0.1 0-0.1c-0.2-0.1-0.4-0.2-0.5-0.3c-0.2-0.2-0.3-0.4-0.4-0.6c0-0.1-0.1-0.3-0.1-0.6c.1-0.2 .1-0.4 .2-0.5l-0.1-0.1c-0.5-0.1-0.9-0.4-1.1-0.9c-0.3-0.1-0.5-0.2-0.6-0.4c-0.2 .3-0.4 .5-0.7 .6c-0.2 .2-0.5 .2-0.8 .2c-0.3 0-0.6-0.1-0.8-0.3c-0.3-0.2-0.5-0.4-0.5-0.7c-0.3 .1-0.6 0-0.9 0c-0.3-0.1-0.6-0.3-0.7-0.5c-0.2-0.3-0.3-0.5-0.4-0.8c0-0.3 0-0.6 .2-0.9c-0.2 0-0.4 0-0.5 0c-0.2 0-0.4-0.1-0.5-0.2c-0.2-0.1-0.3-0.2-0.5-0.4c-0.1-0.1-0.2-0.3-0.2-0.4c-0.1-0.2-0.1-0.4-0.1-0.6c-0.1 0-0.2 0-0.3 0c-0.4-0.1-0.7-0.3-1-0.7c-0.2-0.3-0.3-0.7-0.2-1.1c0-0.4 .3-0.7 .6-1c.3-0.2 .7-0.3 1.1-0.3c-0.3-0.1-0.4-0.3-0.6-0.5c-0.1-0.2-0.2-0.5-0.2-0.7c0-0.3 0-0.6 .1-0.8c.1-0.2 .3-0.4 .5-0.6Zm11.6 16.9c-0.3 .5-0.8 .8-1.4 .8v.2c-0.1 .2-0.1 .4-0.3 .5c.2 .2 .4 .3 .5 .5c.1 .2 .1 .4 .2 .6c0 .2 0 .4-0.1 .6c0 .2-0.1 .4-0.3 .6l.1 .1c0 0 .1 0 .1 0c.1 0 .1 0 .2 0c0 0 0 0 .1 0c0 .1 .1 .1 .1 .1c.2-0.1 .3-0.2 .5-0.3c.1-0.1 .3-0.1 .5-0.1c.2 0 .4 0 .5 .1c.2 0 .4 .1 .5 .2c.2-0.1 .3-0.2 .5-0.3c-0.3 0-0.6-0.1-0.9-0.3c-0.2-0.2-0.4-0.5-0.5-0.8c-0.1-0.3-0.1-0.6 0-0.9c.1-0.3 .2-0.5 .5-0.7c0-0.1-0.1-0.1-0.1-0.2c0 0 0-0.1 0-0.1c0-0.1 0-0.1 0-0.2c0 0 0-0.1 0-0.1h-0.1c0 0-0.1 0-0.1-0.1c-0.1 0-0.2 0-0.2 0c-0.1 0-0.1-0.1-0.2-0.1c0 0 0 0-0.1-0.1Zm9.2-9.8c-0.4 .3-0.9 .5-1.4 .4v.2c-0.1 .4-0.3 .8-0.7 1c.2 .1 .2 .2 .3 .4c.2-0.1 .4-0.2 .7-0.2c.2 0 .4 0 .6 .1c.2 .1 .4 .2 .6 .4c.1 .1 .2 .3 .3 .5c.1 0 .3 0 .4-0.1c-0.1-0.1-0.2-0.2-0.2-0.4c-0.1-0.2-0.1-0.3-0.1-0.5c0-0.1 0-0.3 0-0.5c.1-0.1 .2-0.3 .3-0.4c-0.4-0.2-0.7-0.5-0.8-0.9Zm-14.4-2.5c-0.1 .1-0.3 .2-0.4 .2c-0.1 0-0.3 0-0.4 0c-0.1 0-0.2 0-0.4 0c-0.1 0-0.2-0.1-0.3-0.1c-0.2 .2-0.4 .4-0.6 .6h.1c.2 0 .5 .1 .7 .3c.1 .1 .3 .3 .4 .5c.1 .2 .2 .5 .2 .7c0 .2-0.1 .5-0.2 .7c.2 .1 .4 .2 .6 .3c.3-0.5 .9-0.8 1.5-0.7c0-0.2 0-0.3 0-0.5c0-0.1 0-0.3 .1-0.4c0-0.1 .1-0.2 .2-0.4c.1-0.1 .2-0.2 .3-0.3h.1c-0.2 0-0.4 0-0.6 0c-0.2 0-0.3 0-0.5-0.1c-0.2 0-0.4-0.2-0.5-0.3c-0.1-0.1-0.2-0.3-0.3-0.4Zm-3.3 .9v.1l.2-0.1c0 0-0.1 0-0.1 0c0 0 0 0 0 0c0 0-0.1 0-0.1 0c0 0 0 0 0 0Zm-2.3-2.7l.2 .2v-0.2h-0.2Zm3.6-0.6h-0.1c0 .1 0 .2 0 .2v.1l.1-0.1v-0.2Zm-2-1.8l-0.1 .1c0 0 0 .1 .1 .1c0 0 0-0.1 0-0.1c0 0 0 0 0 0c0 0 0-0.1 0-0.1c0 0 0 0 0 0c0 0 0 0 0 0Z" fill="#ae5558"/><path d="M15.9 26.6c.2-0.5 .7-0.9 1.3-0.9c.6-0.1 1.1 .2 1.4 .7c.3 .4 .4 1.1 .1 1.6c-0.3 .5-0.8 .8-1.4 .7c-0.1 .3-0.3 .5-0.4 .6c-0.2 .2-0.4 .3-0.7 .3c-0.2 .1-0.4 .1-0.7 .1c-0.2-0.1-0.4-0.2-0.6-0.4c-0.2 .3-0.5 .5-0.9 .6c-0.3 .1-0.7 .1-1 0c-0.3-0.2-0.6-0.4-0.7-0.7c-0.2-0.3-0.3-0.7-0.2-1c.1-0.3 .2-0.5 .3-0.8c.2-0.2 .4-0.3 .7-0.4c.2-0.1 .5-0.1 .8-0.1c.2 .1 .5 .2 .7 .3c.3-0.4 .8-0.6 1.3-0.6Zm-8.2-0.2c-0.4-0.5-0.4-1.1-0.2-1.6c.2-0.5 .7-0.9 1.3-0.9c.5 0 1.1 .2 1.4 .7c.3 .4 .4 1 .1 1.5c.5-0.1 1.1 .1 1.5 .5c.3 .4 .4 1 .3 1.5c-0.2 .5-0.6 .9-1.2 1.1c-0.5 .1-1-0.1-1.4-0.5c-0.3 .1-0.7 .2-1 .1c-0.3-0.1-0.6-0.3-0.8-0.6c-0.2-0.2-0.3-0.6-0.3-0.9c0-0.3 .1-0.7 .3-0.9Zm2.8-9.3c.2-0.5 .5-0.9 1-1.1c.5-0.2 1-0.1 1.4 .2c.4 .3 .7 .7 .7 1.2c0 .5-0.2 1-0.6 1.3c.3 .4 .4 .9 .3 1.3c-0.1 .5-0.4 .9-0.8 1.1c-0.4 .2-0.9 .2-1.4 0c-0.4-0.2-0.7-0.6-0.8-1.1c-0.1 .1-0.2 .1-0.3 .1c-0.1 0-0.2 0-0.3-0.1c-0.1 0-0.2 0-0.3-0.1c-0.1 0-0.2 0-0.3-0.1c0 .1 0 .1 0 .2c-0.1 .7-0.7 1.2-1.3 1.2c-0.7 .1-1.4-0.3-1.6-0.9c-0.3-0.6-0.1-1.4 .4-1.8c.6-0.4 1.3-0.5 1.9-0.1v-0.2c0-0.2 .1-0.4 .3-0.6c.1-0.2 .3-0.3 .4-0.4c.2-0.1 .5-0.2 .7-0.2c.2 0 .4 0 .7 .1Zm6.6-1.5c.1-0.4 .3-0.7 .6-0.9c.2-0.2 .6-0.3 1-0.3c.3 0 .7 .1 .9 .3c.3 .3 .5 .6 .6 .9c.1-0.2 .2-0.4 .5-0.6c.2-0.2 .4-0.3 .7-0.3c.3 0 .5 0 .8 .1c.2 .1 .5 .3 .6 .5c.3-0.1 .6-0.1 .8-0.1c.3 0 .6 .2 .8 .3c.2 .2 .4 .4 .5 .7c.1 .3 .1 .5 0 .8c0 .3-0.2 .6-0.4 .8c-0.2 .2-0.4 .4-0.7 .4c-0.3 .1-0.6 .1-0.9 0c-0.3-0.1-0.5-0.3-0.7-0.5c-0.2 .1-0.5 .1-0.7 .1c-0.2 0-0.4-0.1-0.7-0.2c-0.2-0.1-0.3-0.3-0.5-0.5c-0.1-0.1-0.2-0.4-0.2-0.6c-0.1 .2-0.2 .4-0.4 .5c-0.1 .1-0.3 .3-0.4 .3c-0.2 .1-0.4 .2-0.6 .2c-0.2 0-0.4-0.1-0.6-0.1c-0.1 .6-0.6 1.1-1.3 1.2c-0.6 .1-1.2-0.2-1.6-0.8c-0.3-0.5-0.2-1.2 .2-1.7c.4-0.5 1.1-0.7 1.7-0.5Zm-15.1-5.1h-0.1c-0.7-0.1-1.2-0.7-1.2-1.4c-0.1-0.6 .3-1.3 .9-1.5c.7-0.3 1.4-0.1 1.8 .4c.5 .6 .5 1.4 .1 1.9c.7 .1 1.2 .7 1.3 1.3c.1 0 .2 0 .3 0c.2 0 .3 .1 .4 .1c.1 0 .2 .1 .3 .1c.1 .1 .2 .2 .3 .3c.5-0.3 1.1-0.2 1.6 .2c.4 .3 .6 .9 .5 1.5c-0.1 .5-0.5 1-1.1 1.2c-0.5 .1-1.1 0-1.5-0.5c-0.2 .2-0.5 .2-0.7 .2c-0.2 0-0.5-0.1-0.7-0.2c-0.2-0.1-0.4-0.3-0.5-0.5c-0.2-0.2-0.3-0.4-0.3-0.6c-0.1 0-0.3 0-0.4 0c-0.3-0.1-0.5-0.2-0.7-0.3c-0.2-0.2-0.4-0.4-0.5-0.7c-0.1-0.2-0.1-0.5-0.1-0.7c0-0.3 .1-0.6 .3-0.8Zm20.2 .8c-0.5 .1-1.1 0-1.5-0.4c-0.4-0.4-0.5-1-0.4-1.5c.2-0.5 .6-1 1.1-1.1c.6-0.1 1.1 0 1.5 .4c.6-0.1 1.1 0 1.5 .4c.4 .4 .6 1 .4 1.5c-0.1 .6-0.6 1-1.1 1.1c-0.5 .2-1.1 0-1.5-0.4Zm-16.5-4.7v-0.1c.1-0.5 .5-1 1.1-1.2c.6-0.1 1.2 0 1.6 .4c.4 .5 .5 1.1 .3 1.6c-0.2 .6-0.7 1-1.3 1v.1c-0.1 .6-0.5 1.1-1 1.2c-0.6 .2-1.2 0-1.6-0.4c-0.4-0.4-0.5-1-0.3-1.6c.1-0.5 .6-0.9 1.2-1Z" fill="#df647d"/><path d="M12.1 25.3c-0.6 .2-1.3-0.1-1.6-0.6c-0.4-0.5-0.4-1.2-0.1-1.7c.3-0.5 1-0.8 1.6-0.7c.6 .1 1.1 .6 1.2 1.2c.1 0 .2-0.1 .3-0.1c.1 0 .1 0 .2 0c.1 0 .2 0 .2 .1c.1 0 .2 0 .3 0c.4-0.3 1-0.4 1.5-0.1c.5 .2 .8 .6 .9 1.2c.1 .5-0.1 1.1-0.6 1.4c-0.4 .3-1 .4-1.5 .2c-0.2 .2-0.4 .3-0.7 .3c-0.2 0-0.5 0-0.7-0.1c-0.3-0.1-0.5-0.2-0.7-0.4c-0.1-0.2-0.2-0.4-0.3-0.7Zm.3-15.3c-0.5-0.3-0.8-1-0.7-1.6c.1-0.7 .6-1.2 1.2-1.3c.7-0.1 1.3 .2 1.7 .8c.3 .6 .2 1.3-0.2 1.8c.1 .1 .3 .2 .4 .3c.1 .2 .2 .3 .2 .5c.1 .2 .1 .3 .1 .5c0 .2 0 .4 0 .6c.2 .2 .4 .4 .5 .8c.3-0.3 .6-0.4 .9-0.4c.3-0.1 .6 0 .9 .2c.3 .1 .5 .4 .6 .7c.2 .3 .2 .6 .2 .9c-0.1 .3-0.2 .5-0.4 .7c-0.1 .2-0.3 .4-0.6 .5c-0.2 .1-0.5 .1-0.8 .1c-0.2-0.1-0.5-0.2-0.7-0.3c-0.1 .2-0.2 .4-0.4 .5c-0.2 .2-0.4 .3-0.6 .3c-0.2 .1-0.5 .1-0.7 0c-0.2 0-0.5-0.1-0.6-0.3c-0.3 .2-0.5 .2-0.8 .2c-0.2 .6-0.6 1.1-1.2 1.2c-0.6 .1-1.2-0.1-1.6-0.6c-0.4-0.4-0.4-1.1-0.1-1.6c.3-0.6 .8-0.9 1.4-0.8c.2-0.8 .8-1.3 1.5-1.3c0 0 0-0.1 .1-0.1c-0.2-0.1-0.4-0.3-0.5-0.5c-0.1-0.2-0.1-0.4-0.2-0.6c0-0.2 0-0.4 .1-0.6c.1-0.3 .2-0.4 .3-0.6Zm10.5 2.9c.5-0.3 1.1-0.3 1.5 0c.5 .3 .8 .8 .8 1.3c0 .5-0.2 1-0.7 1.3c-0.4 .3-1 .4-1.4 .2c-0.5 .2-1.1 .2-1.5-0.1c-0.5-0.2-0.8-0.7-0.8-1.2c0-0.6 .2-1.1 .7-1.4c.4-0.3 1-0.3 1.4-0.1Zm-16-0.4h-0.2c-0.6-0.1-1-0.5-1.2-1c-0.2-0.5-0.1-1.1 .3-1.5c.3-0.4 .9-0.6 1.4-0.5c.5 0 1 .4 1.2 .9c.6 0 1.1 .4 1.3 .9c.3 .5 .2 1.1-0.1 1.6c-0.3 .4-0.9 .7-1.4 .6c-0.6-0.1-1.1-0.4-1.3-1Zm13-6.3v-0.2c.1-0.3 .2-0.5 .4-0.8c.2-0.2 .5-0.3 .8-0.4c.2-0.1 .5-0.1 .8 0c.3 .1 .5 .3 .7 .5c.2-0.1 .3-0.2 .5-0.2c.2-0.1 .3-0.1 .5-0.1c.2 .1 .3 .1 .5 .2c.2 0 .3 .1 .4 .2c.5-0.2 1.2-0.2 1.6 .2c.5 .3 .7 .9 .7 1.5c-0.1 .5-0.5 1-1.1 1.2c-0.5 .2-1.1 .1-1.5-0.3c-0.2 0-0.3 .1-0.5 .1c-0.2 0-0.4 0-0.5 0c-0.2 0-0.4-0.1-0.5-0.2c-0.2-0.1-0.3-0.2-0.4-0.3c-0.2 .1-0.4 .2-0.6 .2v.2c-0.1 .7-0.7 1.2-1.3 1.3c-0.1 .3-0.2 .5-0.4 .7c.2 .6 .1 1.1-0.3 1.6c-0.3 .4-0.9 .6-1.4 .5c-0.6-0.1-1-0.5-1.2-1c-0.2-0.5-0.1-1.1 .3-1.5c-0.1-0.3-0.1-0.5-0.1-0.7c0-0.3 .1-0.5 .2-0.7c.1-0.2 .3-0.4 .5-0.5c.2-0.1 .4-0.2 .7-0.2v-0.1c.1-0.6 .6-1.1 1.2-1.2Zm-16.9-5c.2-0.3 .4-0.5 .8-0.6c.3-0.1 .6-0.1 .9 0c.4 .1 .6 .3 .8 .6c.2 .2 .3 .6 .3 .9c.2-0.1 .4-0.1 .7-0.1c.2 0 .4 0 .6 .1c.2 .1 .4 .3 .5 .5c.2 .1 .3 .3 .3 .5c.3-0.1 .6-0.2 .9-0.1c.3 0 .6 .1 .8 .3c.2 .1 .4 .4 .5 .6c.1 .3 .2 .6 .1 .9v.1c.6-0.5 1.4-0.4 2 .2c.5 .5 .6 1.3 .1 1.9c-0.4 .6-1.2 .9-1.9 .6c-0.6-0.3-1-1.1-0.8-1.8c-0.2 .1-0.5 .2-0.7 .2c-0.3 .1-0.5 0-0.8 0c-0.2-0.1-0.4-0.3-0.6-0.5c-0.1-0.1-0.2-0.4-0.3-0.6c-0.3 .2-0.7 .2-1 .2c-0.2-0.1-0.4-0.1-0.6-0.2c-0.1-0.1-0.3-0.2-0.4-0.4c-0.1-0.1-0.2-0.3-0.2-0.5c-0.1-0.1-0.1-0.3-0.1-0.5c-0.1 0-0.2 .1-0.3 .1c0 0-0.1 0-0.2 0c-0.1 0-0.2 0-0.3 0c-0.1 0-0.1 0-0.2 0l-0.1 .1c.2 .5 .1 1.1-0.2 1.5c-0.3 .5-0.9 .7-1.4 .6c-0.6 0-1.1-0.4-1.3-0.9c-0.2-0.6-0.1-1.1 .3-1.6c-0.2-0.2-0.2-0.5-0.1-0.8c0-0.3 .1-0.6 .3-0.8c.2-0.2 .4-0.4 .7-0.5c.3-0.1 .6-0.1 .9 0Z" fill="#e497b4"/><path d="M17.7 15.1c-0.1-0.8 .4-1.6 1.2-1.8c.8-0.1 1.6 .3 1.9 1.1c.2 .8-0.2 1.6-1 1.9c-0.8 .3-1.6-0.1-1.9-0.8c0 .2 0 .4-0.1 .5c0 .2-0.1 .4-0.2 .6c-0.1 .1-0.2 .3-0.4 .4c-0.1 .1-0.3 .2-0.5 .2c0 .4-0.1 .9-0.3 1.2c-0.3 .3-0.6 .5-1 .6c-0.4 0-0.8-0.1-1.2-0.3c-0.3-0.3-0.5-0.6-0.6-1c-0.5 .4-1.3 .4-1.9 0c-0.5-0.4-0.7-1.2-0.5-1.8c.3-0.7 .9-1.1 1.6-1c.7 .1 1.3 .6 1.4 1.3c.2-0.1 .4-0.2 .6-0.3c-0.1-0.4 0-0.7 .2-1c.2-0.3 .6-0.6 .9-0.7c.4-0.1 .8 0 1.1 .1c.3 .2 .6 .5 .7 .8Zm-11.1-6.6c.4 .1 .7 .3 1 .6c.2 .4 .3 .8 .2 1.2c-0.1 .4-0.3 .8-0.6 1c-0.4 .2-0.8 .3-1.2 .2c-0.4 0-0.8-0.3-1-0.6c-0.2-0.4-0.3-0.8-0.2-1.2c0-0.4 .3-0.7 .6-1c.3-0.2 .8-0.3 1.2-0.2Zm17.5-1c.3-0.6 1-1 1.6-0.9c.7 .1 1.2 .6 1.3 1.2c.2 .7-0.1 1.3-0.7 1.7c-0.5 .3-1.2 .3-1.8-0.1c0 .2-0.2 .3-0.3 .5c-0.2 .1-0.4 .2-0.6 .3c-0.2 0-0.4 0-0.6 0c-0.2 0-0.4-0.1-0.6-0.2c-0.3 .6-0.9 .9-1.5 .9c-0.6-0.1-1.2-0.5-1.4-1.1c-0.2-0.6 0-1.3 .5-1.7c.5-0.4 1.2-0.4 1.8-0.1c.1-0.2 .2-0.4 .4-0.5c.2-0.2 .4-0.3 .6-0.3c.3-0.1 .5-0.1 .7 0c.2 0 .5 .1 .6 .3Zm-13-1.2c.4 .1 .8 .3 1 .7c.3 .3 .4 .7 .3 1.1c-0.1 .4-0.3 .8-0.7 1c-0.3 .3-0.7 .4-1.1 .3c-0.4-0.1-0.8-0.4-1-0.7c-0.2-0.3-0.3-0.7-0.2-1.1c.1-0.4 .3-0.7 .6-1c.4-0.2 .7-0.3 1.1-0.3Zm-6.1-2.5c.2-0.6 .8-1 1.5-0.9c.6 0 1.2 .4 1.4 1c.2 .6 0 1.3-0.5 1.7c-0.5 .4-1.1 .5-1.7 .2c-0.2 .3-0.4 .6-0.8 .7c-0.3 .2-0.7 .2-1.1 .1c-0.3-0.1-0.6-0.4-0.8-0.7c-0.2-0.3-0.3-0.7-0.3-1c.1-0.3 .2-0.5 .3-0.7c.2-0.2 .4-0.3 .6-0.4c.2-0.1 .5-0.2 .7-0.2c.2 0 .5 .1 .7 .2Z" fill="#df6492"/></g><text font-size="18" font-family="ABCSans" font-weight="900" letter-spacing=".1em" word-spacing="0" text-anchor="middle" opacity="0" transform="translate(470.3,208.3) scale(.333,.333)" style="line-height: 16px;">TOCILIZUMAB</text><use width="16.7" height="17.1" xlink:href="#IL6" opacity="0" transform="translate(389.2,225.6) rotate(-2609) scale(.8,.8) translate(-8.3,-8.6)"/><use width="16.7" height="17.1" xlink:href="#IL6" opacity="0" transform="translate(382.4,183.1) rotate(-1889) scale(.8,.8) translate(-8.3,-8.6)"/><g transform="translate(773.3,324.6) rotate(162.2) scale(.8,.8)"><path d="M259.5 227.1c.2-0.4 .6-0.3 1.5-0.1c.9 .2 1.6 .7 1.6 1.1c.2 0 .3 0 .4 .1c.2 0 .3 0 .5 .1c.1 .1 .2 .1 .3 .2c.2 .1 .3 .2 .4 .3c.8 .6 1.7 1.2 1.3 1.6c-0.2 .3-0.8 .3-1.5-0.1c0 .3 .2 .6 .2 .9c-0.2 .9 .5 1.1 1 1.3c1 .7 1.7 2.1 1.1 3c-0.5 .7-2.2 .7-3.3 0c-0.5-0.1-0.6-1-1.1-1.3c-0.2-0.1-0.7 .4-1 .3c-0.2-0.1-0.4 0-0.7 .1c.7 .6 1 1.5 .6 1.9c-0.4 .5-1.2-0.4-2.1-1.1c-0.1-0.1-0.2-0.2-0.3-0.3c-0.1-0.1-0.2-0.2-0.3-0.4c-0.1-0.1-0.2-0.2-0.2-0.4c-0.1-0.1-0.1-0.3-0.2-0.4c-0.4-0.1-0.9-0.7-1.2-1.5c-0.4-0.9-0.7-1.1-0.3-1.3c0 0 0 0 0 0c0 0 0 0 .1 0c0 0 0 0 0 0c0 0 0 0 0 0c0-0.1 0-0.1-0.1-0.1c0-0.1 0-0.1 0-0.1c0-0.1-0.1-0.1-0.1-0.1c0-0.1 0-0.1-0.1-0.1c-1.4-1.9-2.8-2.7-2-3.8c.7-1.2 2.1-0.6 4.2-0.1c.4 .1 .8 .2 1.3 .3Z" fill="url(#Gradient-6)"/><path d="M262.3 230.4c.5 .2 .8 1.2 1.3 1.4c.4 .2 1 .3 1.4 .6c1.1 .7 1.7 2.2 1.3 3c-0.4 .9-2.3 .8-3.5 0c-0.4-0.3-0.6-0.9-1-1.2c-0.2-0.2-0.7-0.3-1-0.5c-0.8-0.5-0.8-1.2-0.9-1.3" fill="none" stroke="#aa3372" stroke-width=".3"/><path d="M260.9 234.5c-0.2-0.1-0.4 0-0.7 .1c.7 .6 1 1.5 .6 1.9c-0.4 .5-1.2-0.4-2-1.1c-0.2-0.1-0.3-0.2-0.4-0.3c-0.1-0.1-0.2-0.3-0.3-0.4c-0.1-0.1-0.1-0.3-0.2-0.4c-0.1-0.2-0.1-0.3-0.1-0.5c-0.4 0-0.9-0.6-1.3-1.4c-0.4-0.9-0.7-1.1-0.3-1.3c0 0 0 0 0 0c0 0 0 0 .1 0c0 0 0 0 0 0c0 0 0 0 0 0c0-0.1 0-0.1-0.1-0.1c0-0.1 0-0.1 0-0.1c0-0.1-0.1-0.1-0.1-0.1c0-0.1 0-0.1-0.1-0.1c-1.4-1.9-2.8-2.7-2-3.8c.7-1.2 2.1-0.6 4.2-0.1c.4 .1 .8 .2 1.3 .3c.2-0.4 .6-0.3 1.5-0.1c.9 .2 1.6 .7 1.6 1.2c.2 0 .3 0 .5 0c.1 .1 .2 .1 .4 .2c.1 0 .2 .1 .4 .2c.1 0 .2 .1 .3 .2c.8 .7 1.7 1.2 1.3 1.6c-0.2 .3-0.8 .3-1.5-0.1c0 .3 0 .7 .2 .9" fill="none" stroke="#aa3372" stroke-width=".3"/></g></g></g><script xlink:href="keyshapejs-1.1.0.min.js"/><script><![CDATA[if(KeyshapeJS.version.indexOf('1.')!=0)throw Error('Expected KeyshapeJS v1.*.*');window.ks=document.ks=KeyshapeJS;(function(ks){
ks.animate("#All",[{p:'mpath',t:[0,1500],v:['0%','100%'],e:[[1,0,0,.6,1],[0]],mp:"M68.6,1572.2L715.8,856.2"},{p:'scaleX',t:[0,1500],v:[3,.6],e:[[1,0,0,.6,1],[0]]},{p:'scaleY',t:[0,1500],v:[3,.6],e:[[1,0,0,.6,1],[0]]}],
"#Cytokines",[{p:'opacity',t:[0,1500],v:[1,0],e:[[0],[0]]}],
"#_a0",[{p:'opacity',t:[500,1000],v:[0,1],e:[[0],[0]]}],
"#_a1",[{p:'rotate',t:[1000,2000,3000,4000,5000],v:[-20,-15,-20,-15,-20],e:[[1,.4,0,.6,1],[1,.4,0,.6,1],[1,.4,0,.6,1],[1,.4,0,.6,1],[0]]}],
"#_a2",[{p:'mpath',t:[1000,2000,3000,4000,5000],v:['0%','25%','50%','75%','100%'],e:[[1,.4,0,.6,1],[1,.4,0,.6,1],[1,.4,0,.6,1],[1,.4,0,.6,1],[0]],mp:"M1019.7,440.3L954.4,493.9L1019.7,440.3L954.4,493.9L1019.7,440.3"}],
"#_a3",[{p:'mpath',t:[1000,2000],v:['0%','100%'],e:[[1,.4,0,.6,1],[0]],mp:"M643.3,1129.5L1139.5,1549.8"},{p:'opacity',t:[1000,2000],v:[1,0],e:[[0],[0]]}],
"#_a4",[{p:'mpath',t:[2000,3000],v:['0%','100%'],e:[[1,.4,0,.6,1],[0]],mp:"M544.3,165.1L587.2,-116.8"},{p:'opacity',t:[2000,3000],v:[1,0],e:[[0],[0]]}],
"#_a5",[{p:'mpath',t:[1500,2500],v:['0%','100%'],e:[[1,.4,0,.6,1],[0]],mp:"M170.4,798.7L-166.3,596"},{p:'opacity',t:[1500,2500],v:[1,0],e:[[0],[0]]}],
"#_a6",[{p:'rotate',t:[1000,2000,3000,4000,5000],v:[-10,0,-10,0,-10],e:[[1,.4,0,.6,1],[1,.4,0,.6,1],[1,.4,0,.6,1],[1,.4,0,.6,1],[0]]}],
"#_a7",[{p:'mpath',t:[1333,2208],v:['0%','100%'],e:[[1,.4,0,.6,1],[0]],mp:"M934.4,820.7L1574.4,716.7"},{p:'opacity',t:[1333,2208],v:[1,0],e:[[0],[0]]}],
"#_a8",[{p:'rotate',t:[1000,2000,3000,4000,5000],v:[-20,-40,-20,-40,-20],e:[[1,.4,0,.6,1],[1,.4,0,.6,1],[1,.4,0,.6,1],[1,.4,0,.6,1],[0]]}],
"#_a9",[{p:'mpath',t:[1750,2708],v:['0%','100%'],e:[[1,.4,0,.6,1],[0]],mp:"M752.1,1274.6L996.1,1684"},{p:'opacity',t:[1750,2708],v:[1,0],e:[[0],[0]]}],
"#_a10",[{p:'mpath',t:[1000,2000,3000,4000,5000],v:['0%','25%','50%','75%','100%'],e:[[1,.4,0,.6,1],[1,.4,0,.6,1],[1,.4,0,.6,1],[1,.4,0,.6,1],[0]],mp:"M544.3,1548.2L567.8,1579.1L544.3,1548.2L567.8,1579.1L544.3,1548.2"}],
"#_a11",[{p:'mpath',t:[500,1500],v:['0%','100%'],e:[[0],[0]],mp:"M401.5,445.5L153.7,635.7"},{p:'opacity',t:[500,1500],v:[1,0],e:[[0],[0]]}],
{autoremove:false,markers:{"LoopStart":3000}}).range(0,5000);
if(document.location.search.substr(1).split('&').indexOf('global=paused')>=0)ks.globalPause()})(KeyshapeJS);
]]></script></svg>