<svg xmlns="http://www.w3.org/2000/svg" xmlns:xlink="http://www.w3.org/1999/xlink" width="100%" height="100%" viewBox="0 0 500 800" style="background: rgba(224,255,255,0.00); white-space: pre;"><defs><symbol id="Nucleotide" preserveAspectRatio="none" width="12.6" height="10.4" viewBox="0 0 12.6 10.4" overflow="visible"><g transform="translate(6.3,5.2) translate(-6.3,-5.2)"><path d="M8.1 7.6c0 0 .1 0 .2 .1c0 .1 .1 .1 .1 .2c0 .1 0 .2 0 .2c0 .1 0 .2 0 .3c0 0 0 .1 0 .1c0 .1 0 .1 0 .2c0 0 0 .1 0 .2c-0.1 0-0.1 0-0.1 .1c.1 0 .2 .1 .3 .2c.1 .1 .1 .2 .1 .3c0 .2 0 .3-0.1 .4c-0.1 .1-0.2 .2-0.3 .2c0 0 0 .1-0.1 .1c0 .1 0 .1-0.1 .1c0 .1-0.1 .1-0.1 .1c-0.1 0-0.1 0-0.2 0c.2 .2 .2 .3 .2 .5c0 .2-0.1 .4-0.2 .5c-0.2 .1-0.4 .1-0.6 0c-0.1-0.1-0.2-0.2-0.3-0.4c-0.1 .1-0.2 .1-0.3 .1c-0.1 0-0.2 0-0.3-0.1c-0.1 0-0.1-0.1-0.2-0.2c0-0.1-0.1-0.2-0.1-0.3c0-0.1 0-0.1 .1-0.2c0 0-0.1 0-0.1 0c0 0 0 0 0 0c-0.1 0-0.1 0-0.1 0c0 0 0 0-0.1 0c-0.3 0-0.3-4.8-0.2-4.7l.1-0.1c.1 0 .2 .1 .3 .1c.1 .1 .2 .2 .2 .2c.1 .1 .1 .2 .1 .3c0 .2-0.1 .3-0.1 .3c0 .1 0 .1 0 .2c.1 .1 .1 .1 .1 .2c0 .1-0.1 .1-0.1 .2c0 0 0 .1-0.1 .1c.1 .1 .1 .2 .1 .3c0 .1 0 .2-0.1 .2c0 .1-0.1 .2-0.2 .2c0 .1-0.1 .1-0.2 .2c0 0 0 0 0 .1c0 0 0 .1 0 .1c0 .1 0 .1-0.1 .1c0 .1 0 .1 0 .1c0 .1 .1 .2 .1 .3v-0.1c0-0.3 .3-0.5 .6-0.5c.2-0.1 .5 .2 .5 .5c.1 .3-0.1 .5-0.4 .6c-0.3 0-0.6-0.1-0.7-0.4c0 .1 0 .1 0 .2c0 .1 0 .1 0 .2h.1c.1 0 .2 0 .3 .1c.1 0 .2 .1 .2 .1c.1 .1 .1 .2 .1 .3c0 .1 0 .2 0 .3c0 0 .1-0.1 .2-0.1c.1 0 .2 .1 .3 .1c0 0 .1 .1 .2 .2c0 0 0 .1 .1 .2c0 0 0 0 0 0c0-0.1 .1-0.1 .1-0.1c0 0 0 0 0 0c0 0 .1 0 .1 0c0 0-0.1-0.1-0.1-0.1c0 0-0.1-0.1-0.1-0.1c0-0.1 0-0.1 0-0.2c0 0 0-0.1 0-0.1c-0.2 0-0.3-0.1-0.4-0.2c-0.1-0.1-0.1-0.3-0.1-0.4c0-0.2 .1-0.3 .2-0.4c.1-0.1 .2-0.2 .4-0.2c0-0.1 0-0.2 0-0.2c0-0.1 0-0.1 0-0.1c0 0 0 0 0-0.1c0 0 0 0 0 0c0 0 0-0.1 0-0.1c-0.1 0-0.1 0-0.2-0.1c0 0-0.1-0.1-0.1-0.1c0-0.1-0.1-0.1-0.1-0.2c0-0.1 0-0.2 0-0.2c-0.1 0-0.2-0.1-0.2-0.2c-0.1 0-0.1-0.1-0.2-0.2c0-0.1 0-0.2 0-0.3c.1-0.1 .1-0.2 .2-0.3c-0.2-0.1-0.4-0.3-0.4-0.6c.1-0.2 .2-0.4 .5-0.5c.2 0 .5 .1 .6 .3c.1 .3 .1 .5-0.1 .7c.1 0 .1 .1 .2 .1c0 0 .1 .1 .1 .2c0 0 0 .1 .1 .2c0 0 0 .1 0 .1c.2 .1 .4 .3 .4 .6Zm.1-1.8c.1 0 .3 .1 .4 .2c.1 .1 .1 .2 .1 .4c0 .1 0 .3-0.1 .4c-0.1 .1-0.3 .2-0.4 .2c-0.2 0-0.3-0.1-0.4-0.2c-0.1-0.1-0.2-0.3-0.2-0.4c0-0.2 .1-0.3 .2-0.4c.1-0.1 .2-0.2 .4-0.2Zm-0.8-3.6c.1-0.1 .2-0.2 .3-0.2c0-0.1 .1-0.1 .2-0.1c.2 0 .2 0 .3 .1c.1 0 .2 .1 .2 .2c.1 0 .2-0.1 .4-0.1c.1 0 .2 .1 .3 .1c.1 .1 .2 .2 .2 .3c0 .1 0 .3 0 .4c.3 0 .5 .1 .6 .4c0-0.1 0-0.1 0-0.1c.1 0 .1 0 .1 0c.1 0 .1 0 .2 0c0 0 0 0 .1 0c0-0.1 .1-0.3 .2-0.4c.1 0 .2-0.1 .3-0.1c.2 0 .3 .1 .4 .2c.1 .1 .2 .2 .2 .3c.2 0 .3 .1 .4 .2c.1-0.1 .3-0.3 .4-0.3c.2 0 .4 0 .6 .2c.1 .1 .1 .4 .1 .5c-0.1 .2-0.2 .4-0.4 .4c0 .1-0.1 .3-0.2 .3c-0.1 .1-0.2 .2-0.3 .2c-0.1 0-0.3 0-0.4-0.1c-0.1 0-0.2-0.1-0.2-0.2l-0.2-0.1c0 .1-0.1 .2-0.2 .3c-0.1 0-0.2 0-0.3 0c-0.1 0-0.2 0-0.3-0.1c-0.1 0-0.2-0.1-0.2-0.2h-0.1c-0.2 0-0.3-0.1-0.4-0.3c-0.1 .1-0.1 .1-0.1 .2c-0.1 0-0.1 .1-0.1 .1c-0.1 0-0.1 .1-0.2 .1c0 0-0.1 0-0.1 0v.1c0 .1-0.1 .2-0.1 .3c-0.1 .1-0.2 .2-0.3 .2c-0.1 .1-0.3 .1-0.4 0c-0.1 0-0.2-0.1-0.3-0.2c0 .2-0.2 .4-0.4 .5c-0.2 .1-0.4 0-0.6-0.2c-0.1-0.2-0.1-0.4 0-0.6c.1-0.2 .3-0.4 .6-0.3v-0.1c0 0 0-0.1 0-0.2c-0.1 .1-0.3 .2-0.4 .1c-0.1 0-0.3 0-0.4-0.1c-0.1-0.1-0.1-0.2-0.1-0.4c0-0.1 0-0.2 .1-0.3c-0.1-0.1-0.1-0.1-0.1-0.1c0 0 0 0 0 0c0 0-0.1 0-0.1-0.1c0 0 0 0 0 0c0 0 0 .1-0.1 .1c0 0 0 .1 0 .1c-0.1 0-0.1 .1-0.1 .1c0 0-0.1 0-0.1 0c0 .1 0 .2 0 .3c0 .1 0 .2 0 .3c-0.1 0-0.1 .1-0.2 .1c-0.1 .1-0.2 .1-0.2 .1v.2c.2-0.1 .5 0 .6 .2c.2 .2 .2 .5 .1 .7c-0.2 .2-0.4 .3-0.7 .2c-0.2-0.1-0.4-0.3-0.4-0.6c0 .1-0.1 .1-0.2 .1c0 0-0.1 0-0.2-0.1c0 0-0.1 0-0.1-0.1c-0.1 0-0.1-0.1-0.2-0.1c0 0-0.1 .1-0.1 .1c-0.1 0-0.2 0-0.2 0c-0.1 0-0.1 0-0.2 0c-0.1 0-0.1-0.1-0.2-0.1c0 .1-0.1 .1-0.1 .1c-0.1 0-0.2 0-0.2 0c-0.1 0-0.2 0-0.2 0c-0.1 0-0.1 0-0.2-0.1c0 0-0.1 0-0.1 0c-0.1 0-0.1 0-0.2 0c0 0 0 0-0.1 0c0 0-0.1-0.1-0.1-0.1c-0.1 .1-0.3 .2-0.4 .2c-0.2 0-0.4-0.1-0.5-0.2c-0.1-0.2-0.2-0.4-0.1-0.6c0-0.1 .2-0.3 .4-0.3c.2-0.1 .4 0 .5 .1c.1-0.1 .2-0.2 .4-0.2c-0.1-0.1-0.1-0.2-0.1-0.3c0-0.1 .1-0.2 .2-0.3c0-0.1 .1-0.2 .3-0.2c.1 0 .2 0 .3 0c0-0.1 0-0.2 .1-0.3c.1-0.1 .2-0.1 .3-0.2c.1 0 .2 0 .4 0c.1 .1 .2 .2 .2 .3c.1-0.1 .1-0.1 .2-0.2c.1 0 .1 0 .2 0c.1 0 .1 0 .2 0c.1 0 .1 .1 .2 .1c0-0.1 .1-0.1 .2-0.1c.1 0 .1 0 .2 0c.1 0 .2 0 .2 0c.1 .1 .2 .1 .2 .2c0-0.1 .1-0.2 .1-0.2c.1-0.1 .2-0.1 .2-0.2c.1 0 .2 0 .3 0c.1 0 .2 0 .2 .1Zm-3 1.1c0 0 0 0 0 0c0 0 0 0 0 0c0 0 0 0 0 0c0 0 0 0 0 0c0 .2-0.1 .3-0.2 .4c0 0 0 0 0 0c0-0.1 .1-0.1 .1-0.1c0 0 0 0 0 0c0 0 .1 0 .1 0v-0.1c0 0 0-0.1 0-0.2Zm3.8-0.4c0 .1-0.1 .1-0.1 .1c0 0-0.1 0-0.1 0c-0.1 .1-0.1 .1-0.2 0c0 0-0.1 0-0.1 0c.1 .1 .2 .2 .2 .3c.1 0 .1-0.1 .2-0.1c.1 0 .2 0 .2 0c.1 0 .2 .1 .2 .1c.1 0 .2 .1 .2 .2v-0.1c0 0 0-0.1 .1-0.1c-0.1 0-0.2 0-0.2-0.1c-0.1 0-0.1 0-0.2 0c0 0 0-0.1-0.1-0.1c0-0.1 0-0.1-0.1-0.1Zm-5.6-1.1c.2 0 .3 .1 .4 .2c.1 .1 .2 .2 .2 .4c0 .2-0.1 .3-0.2 .4c-0.1 .1-0.2 .2-0.4 .2c-0.1 0-0.3-0.1-0.4-0.2c-0.1-0.1-0.1-0.2-0.1-0.4c0-0.2 0-0.3 .1-0.4c.1-0.1 .3-0.2 .4-0.2Zm9.2 .4c-0.2 .2-0.5 .2-0.7 .1c-0.3-0.2-0.3-0.5-0.2-0.8c.2-0.2 .5-0.3 .7-0.2c.3 .1 .4 .4 .3 .7c.1-0.1 .3-0.2 .5-0.2c.2 0 .4 .2 .5 .4c.1 .3 0 .5-0.2 .7c-0.2 .1-0.5 .1-0.7-0.1c-0.2-0.1-0.3-0.4-0.2-0.6Z" fill="#c88a00" transform="translate(-0.5,-1.1)"/><path d="M7.6 5.3c0-0.2 .1-0.4 .3-0.5c.2 0 .4 0 .6 .1c.1 .1 .2 .3 .2 .5c0 .2-0.1 .4-0.3 .5v.2c0 .1 .1 .2 .1 .3c0 .2-0.2 .4-0.3 .5c0 0 .1 .1 .1 .2c.1 0 .1 .1 .1 .2c0 0 0 .1 0 .2c0 .1 0 .1-0.1 .2c.2 .1 .3 .2 .3 .4c0 .2 0 .3-0.1 .5c-0.2 .1-0.3 .2-0.5 .2c-0.2 0-0.3-0.1-0.4-0.2c0 0-0.1 .1-0.1 .1c-0.1 .1-0.1 .1-0.2 .1c0 .1-0.1 .1-0.1 .1c-0.1 0-0.2 0-0.2 0c.1 0 .1 .1 .2 .2c.1 0 .1 .1 .1 .2c.1 .1 0 .2 0 .3c0 .1-0.1 .2-0.1 .3c0 0 0 .1 .1 .2c.1 0 .1 .1 .2 .2c0 .2 0 .3 0 .4c-0.1 .1-0.1 .2-0.2 .3c-0.1 .1-0.3 .1-0.4 .1c-0.3 0-0.5-0.2-0.5-0.5c-0.1 0-0.1 0-0.1 0c0 0 0-0.1-0.1-0.1c0 0 0 0 0-0.1c0 0 0 0 0 0c-0.1 0-0.2 0-0.3 0c-0.1 0-0.2-0.1-0.3-0.2c-0.1 0-0.1-0.1-0.1-0.2c-0.1-0.1-0.1-0.2-0.1-0.3c-0.1 0-0.2-0.1-0.2-0.2c-0.1-0.2-0.1-0.3-0.1-0.4c0-0.1 .1-0.3 .2-0.3c0-0.1 .2-0.2 .3-0.2v-0.1c0-0.1 .1-0.3 .2-0.4c-0.1-0.1-0.1-0.1-0.1-0.2c0-0.1 0-0.1 0-0.2c0-0.1 0-0.1 .1-0.2c0-0.1 .1-0.1 .1-0.2c0 0 0 0-0.1-0.1c0-0.1 0-0.1 0-0.2c0 0 0-0.1 0-0.1c0-0.1 0-0.2 0-0.2c0 0-0.1 0-0.1-0.1c-0.1 0-0.1 0-0.2-0.1c0 0-0.1-0.1-0.1-0.1c0-0.1 0-0.1-0.1-0.2c-0.1-0.1-0.2-0.2-0.2-0.3c0-0.2 0-0.3 0-0.4c.1-0.2 .2-0.3 .4-0.3c.1 0 .2 0 .4 0c0-0.1 .2-0.2 .3-0.2c.1-0.1 .2-0.1 .4 0c.1 0 .2 .1 .3 .2c0 .1 .1 .3 0 .4c.1 0 .1-0.1 .1-0.1c.1 0 .1 0 .1 0c.1 0 .1 0 .2-0.1c0 0 0 0 .1 0c0 0 0 0 0 0c0 0 .1 0 .1 0c0 0 0-0.1 0-0.1c0 0 .1 0 .1 0Zm-0.7 3.6c0 0 0 0 0 0Zm-4.3-6.4c.1-0.1 .1-0.2 .2-0.3c.1 0 .2-0.1 .4-0.1c.1 0 .2 .1 .3 .1c.1 .1 .2 .2 .2 .3c.1-0.2 .2-0.3 .4-0.3c.2-0.1 .4 0 .5 .1c.1 .2 .2 .3 .2 .5c-0.1 .2-0.2 .4-0.3 .4c.1 .1 .3 .2 .4 .4c.1 0 .2-0.1 .3-0.1c.3 0 .4 .1 .5 .3c.1 .2 .1 .5 0 .6c-0.2 .2-0.4 .3-0.6 .2c-0.2 0-0.4-0.2-0.4-0.4c-0.1 .1-0.1 .1-0.2 .1c0 0-0.1 .1-0.1 .1c-0.1 0-0.1 0-0.2 0c0 0-0.1-0.1-0.1-0.1c-0.1 0-0.1 .1-0.2 .1c0 0-0.1 0-0.1 0c0 0-0.1 0-0.1 0c-0.1 0-0.1 0-0.2 0c0 0-0.1 .1-0.2 .1c-0.1 .1-0.1 .1-0.2 .1c-0.1 0-0.2-0.1-0.3-0.1c-0.1-0.1-0.1-0.1-0.2-0.2c0 0 0 0-0.1 0c0 .1 0 .1-0.1 .1c0 0 0 0-0.1 0c0 0 0 0-0.1 0c.1 0 .1 .1 .1 .1c0 .2-0.1 .4-0.3 .5c-0.1 .1-0.3 .1-0.4 .1c-0.2-0.1-0.4-0.2-0.4-0.4c-0.1-0.1-0.1-0.3 0-0.4c-0.1-0.2-0.2-0.3-0.2-0.4c0-0.2 .1-0.3 .2-0.4c.1-0.1 .2-0.2 .3-0.2c.2 0 .3 0 .4 .1c.1-0.1 .2-0.1 .2-0.1c0-0.1 0-0.2 0-0.3c0-0.1 0-0.2 .1-0.2c0-0.1 .1-0.2 .2-0.2c.1-0.1 .2-0.1 .2-0.1Zm8.3-0.3c0-0.2 0-0.3 .1-0.4c.1-0.1 .2-0.2 .4-0.2c.1 0 .3 .1 .4 .1c.1 .1 .2 .3 .2 .4c.1 0 .2 .1 .2 .2c.1 .1 .2 .2 .2 .3c0 .1 0 .2-0.1 .3c-0.1 .1-0.1 .2-0.2 .2c0 .1 .1 .2 .1 .3v.1c.2 0 .3 .2 .4 .4c0 .2-0.1 .5-0.2 .6c-0.2 .1-0.4 .1-0.6 .1c-0.2-0.1-0.3-0.3-0.3-0.6c-0.1 0-0.1 0-0.1 0c0 0-0.1 0-0.1-0.1c0 0 0 0-0.1 0c0 0 0 0 0-0.1c-0.1 .1-0.1 .1-0.1 .1c-0.1 0-0.1 0-0.2 0c0 0-0.1 0-0.1 0c-0.1 0-0.1 0-0.1 0c-0.1 0-0.2 .1-0.3 .1c-0.1 0-0.1 0-0.2 0c-0.1 0-0.2-0.1-0.2-0.1c-0.1-0.1-0.2-0.2-0.2-0.2c0 0-0.1 .1-0.1 .1c0 .1-0.1 .1-0.2 .2c0 0-0.1 0-0.2 0c0 0-0.1 0-0.2 0c0 .1 0 .2-0.1 .2c-0.1 .1-0.2 .1-0.2 .2c-0.1 0-0.2 0-0.3 0c-0.1 0-0.2-0.1-0.3-0.1c0 0-0.1 0-0.1 0c-0.1 0-0.1 0-0.2 0c-0.1-0.1-0.1-0.1-0.2-0.1c0 0 0-0.1-0.1-0.1c0 .1-0.2 .3-0.3 .3c-0.2 .1-0.4 .1-0.5 0c-0.2-0.1-0.3-0.2-0.3-0.4c0-0.2 0-0.4 .2-0.5c-0.1 0-0.1-0.1-0.1-0.2c0 0 0-0.1 0-0.2c.1 0 .1-0.1 .1-0.1c.1-0.1 .1-0.1 .2-0.2c-0.1-0.1-0.1-0.3-0.1-0.4c.1-0.2 .2-0.3 .3-0.4c.1-0.1 .3-0.1 .5 0c.1 0 .2 .2 .3 .3c0 0 0 0 0 0c0 0 0 0 0 0c.1 0 .1 0 .1 0c0 0 0 0 0 0c0-0.1 .1-0.2 .2-0.3c.1-0.1 .2-0.1 .3-0.1c.1-0.1 .2 0 .3 0c.1 .1 .2 .1 .2 .2c.1 0 .2 .1 .3 .1c.1 .1 .2 .1 .2 .2c.1 .1 .1 .2 .1 .3c0 .1 0 .2-0.1 .2c.2 .1 .2 .2 .3 .3c0 0 0 0 0 0c0-0.1 0-0.1 .1-0.1c0 0 0 0 0 0c0-0.1 0-0.1 0-0.1c-0.1-0.1-0.1-0.2-0.2-0.3c0-0.1 0-0.2 0-0.3c.1-0.1 .1-0.2 .2-0.3c.1-0.1 .2-0.1 .4-0.1c.1 0 .3 .1 .4 .2c0 0 0 0 0 0c0 0 .1 0 .1 0c0 0 0 0 0 0c0 0 0 0 0 0Zm-6.9 1.1c0 0 0 0 0 0c0 0 .1 0 .1 0c0 0 0 0 0 0c0 0 0 0 0 0c-0.1 0-0.1 0-0.1-0.1c-0.1 0-0.1 0-0.1 0c-0.1-0.1-0.1-0.1-0.1-0.1c-0.1-0.1-0.1-0.1-0.1-0.1c0 0 0 0-0.1 0c0 .1 0 .1 0 .1c0 0-0.1 .1-0.1 .1c0 0 0 0-0.1 0l.1 .1c0 0 .1 0 .1 0c.1 0 .1-0.1 .2-0.1c0 0 0 0 .1 .1c0 0 .1 0 .1 0Zm1.4-1.4c.2 0 .3 .1 .4 .2c.1 .1 .2 .3 .2 .4c0 .2-0.1 .3-0.2 .4c-0.1 .1-0.2 .2-0.4 .2c-0.1 0-0.3-0.1-0.4-0.2c-0.1-0.1-0.2-0.2-0.2-0.4c0-0.1 .1-0.3 .2-0.4c.1-0.1 .3-0.2 .4-0.2Z" fill="#ffb000" transform="translate(-0.5,-1.1)"/><path d="M6.5 10.3c.2 0 .3 .1 .4 .2c.1 .1 .2 .2 .2 .4c0 .2-0.1 .3-0.2 .4c-0.1 .1-0.2 .2-0.4 .2c-0.1 0-0.3-0.1-0.4-0.2c-0.1-0.1-0.1-0.2-0.1-0.4c0-0.2 0-0.3 .1-0.4c.1-0.1 .3-0.2 .4-0.2Zm-3.7-7.5c0 0-0.1 0-0.1 0c0 0 0 0 0 .1c-0.1 0-0.1 0-0.1 0c0 0-0.1 0-0.1 0c.1 .1 .1 .2 .1 .3c0 .1 0 .2-0.1 .3c-0.1 .1-0.2 .2-0.3 .2c-0.1 .1-0.2 .1-0.4 0c-0.1 0-0.2-0.1-0.2-0.2c-0.2 .2-0.3 .3-0.5 .3c-0.2 0-0.4-0.1-0.5-0.3c-0.1-0.2-0.1-0.4 0-0.5c.1-0.2 .2-0.3 .4-0.4c0-0.1 0-0.2 0-0.3c.1-0.1 .2-0.2 .3-0.3c.1 0 .2-0.1 .3-0.1c.1 0 .2 .1 .3 .1c.1 0 .1-0.1 .2-0.1c0-0.1 .1-0.1 .1-0.1c.1 0 .2 0 .2 0c.1 0 .2 0 .2 0c0-0.1 .1-0.2 .2-0.3c0-0.1 .1-0.2 .3-0.2c.1-0.1 .2-0.1 .3 0c.1 0 .2 .1 .3 .2c0-0.1 .1-0.2 .2-0.2c.1-0.1 .1-0.1 .3-0.1c.1 0 .2 0 .3 0c0 0 .1 .1 .2 .2c0 0 .1-0.1 .2-0.1c0 0 .1 0 .2 0c0 .1 .1 .1 .2 .1c0 .1 .1 .1 .1 .1c0-0.1 .1-0.1 .2-0.2c.1-0.1 .2-0.1 .3-0.1c.1 0 .2 0 .3 0c.1 .1 .2 .1 .2 .2c.1-0.1 .1-0.1 .2-0.2c.1 0 .2-0.1 .3-0.1c.1 0 .2 .1 .3 .1c.1 .1 .2 .1 .2 .2c.1 0 .1 0 .1 0c.1 0 .1 0 .1 0c.1 0 .1 0 .1 0c.1 0 .1 0 .1 0c.1-0.1 .2-0.1 .2-0.2c.1 0 .2-0.1 .3-0.1c.1 0 .2 .1 .2 .1c.1 0 .2 .1 .2 .1c.1 0 .2-0.1 .3-0.1c.1-0.1 .2-0.1 .3-0.1c.1 0 .2 .1 .2 .1c.1 .1 .2 .1 .2 .2h.2c.1 0 .2 .1 .3 .1c0 0 0 0 .1-0.1c0 0 .1 0 .1 0c.1 0 .1 0 .2 0c0 0 .1 0 .1 0c.1-0.1 .1-0.2 .3-0.3c.1 0 .2 0 .3 0c.2 0 .3 .1 .3 .2c.1 .1 .2 .2 .2 .3c.1-0.1 .2-0.2 .3-0.2c.2-0.1 .3 0 .5 0c.1 .1 .2 .3 .2 .4c.1 .2 0 .3-0.1 .4c.1 .1 .1 .2 .1 .2c0 .3-0.2 .5-0.4 .6h.1c.3 0 .5 .2 .5 .5c0 .3-0.2 .6-0.5 .6c-0.3 0-0.5-0.2-0.6-0.4c-0.1-0.3 .1-0.6 .4-0.7c-0.1 0-0.2 0-0.3 0c-0.1-0.1-0.2-0.1-0.3-0.2c0-0.1-0.1-0.2-0.1-0.3c0-0.1 0-0.3 .1-0.4c0 0 0 0 0 0c0 0 0 0 0 0c0 0 0-0.1 0-0.1c0 0 0 0 0 0c-0.1 0-0.1 .1-0.2 .1c0 0-0.1 .1-0.1 .1c-0.1 0-0.1 0-0.2 0c0 0-0.1 0-0.1 0c-0.1 0-0.1 0-0.1 .1c0 0 0 0 0 0c-0.1 0-0.1 .1-0.1 .1c0 0 0 0 0 0c0 .1 0 .1 0 .1c0 .1-0.1 .1-0.1 .1c0 .1 0 .1 0 .1c0 .1 0 .1 0 .1c0 .1 .1 .2 .1 .3c0 .1-0.1 .2-0.1 .3c-0.1 .1-0.2 .2-0.3 .3c-0.1 0-0.2 0-0.3 0c-0.1 0-0.2 0-0.3-0.1c0 .2 0 .3-0.2 .5c-0.1 .1-0.3 .1-0.5 .1c-0.2-0.1-0.3-0.2-0.4-0.4c0-0.1 0-0.3 .1-0.5c-0.1-0.1-0.1-0.2-0.1-0.3c0-0.1 0-0.2 .1-0.3c.1-0.1 .2-0.2 .3-0.2c.1-0.1 .2-0.1 .3-0.1c0 0 0 0-0.1 0c0 0 0 0 0 0c0-0.1 0-0.1 0-0.1c0 0-0.1 0-0.1-0.1c0 .1-0.1 .1-0.1 .1c-0.1 0-0.1-0.1-0.2-0.1c0 0-0.1 0-0.1 0c-0.1-0.1-0.1-0.1-0.1-0.2c-0.1 .1-0.1 .1-0.2 .2c0 0 0 0-0.1 0c-0.1 .1-0.1 .1-0.2 .1c0 0-0.1 0-0.1 0c-0.1 0-0.2 .1-0.2 .2c-0.1 0-0.2 0-0.3 0c-0.1 0-0.2 0-0.3-0.1c-0.1 0-0.1-0.1-0.2-0.2c0 0 0 0 0 0c0 0 0 0 0 0c0 0 0 0 0 0c0 0 0 0 0 0c0 .1 .1 .1 .1 .2c.3 .1 .4 .3 .4 .5v.1c.2 0 .3 .1 .4 .2c.1 .1 .1 .2 .1 .3c0 .2 0 .3-0.1 .4c-0.1 .1-0.3 .2-0.4 .2c0 0 0 0 0 0c0 0 0 0 0 .1c0 0 0 0 0 0c0 0-0.1 0-0.1 0c.1 .1 .1 .1 .1 .2c0 .1 0 .2 0 .3c0 .1 0 .1-0.1 .2c-0.1 .1-0.1 .1-0.2 .1c.1 .1 .2 .2 .2 .4c0 .1 0 .2 0 .3c-0.1 .2-0.2 .2-0.3 .3c-0.1 .1-0.3 .1-0.4 0c0 .1 0 .2 0 .3c0 .2-0.2 .5-0.4 .5c0 .3-0.2 .5-0.4 .5c.1 .1 .1 .2 .1 .3c.1 0 .2-0.1 .3-0.1c.1 0 .2 0 .3 .1c.1 0 .1 .1 .2 .2c0 0 .1 .1 .1 .2c0 .1 0 .2-0.1 .3c.1 0 .2 0 .2 .1c.1 0 .1 .1 .2 .1c0 .1 0 .2 0 .2c.1 .1 .1 .2 0 .2c.1 0 .2 .1 .2 .1c.1 0 .2 .1 .2 .2c0 0 .1 .1 .1 .1c0 .1 0 .2 0 .3c.2 0 .3 .2 .4 .4c0 .3-0.1 .5-0.3 .6c-0.2 .1-0.4 .1-0.6 0c-0.2-0.2-0.3-0.4-0.3-0.6c0 0-0.1 0-0.1-0.1c-0.1 0-0.1-0.1-0.2-0.1c0-0.1 0-0.2 0-0.2c0-0.1 0-0.1 0-0.2c-0.1 0-0.2-0.1-0.3-0.1c0-0.1-0.1-0.1-0.1-0.2c0-0.1-0.1-0.1-0.1-0.2c0-0.1 0-0.2 .1-0.3c-0.1 0-0.1 0-0.2 0c0-0.1-0.1-0.1-0.1-0.1c-0.1-0.1-0.1-0.1-0.1-0.2c0 0 0-0.1-0.1-0.2v.1c.1 .2 0 .4-0.1 .6c-0.2 .2-0.4 .2-0.6 .1c-0.2 0-0.4-0.2-0.4-0.5c0-0.2 .1-0.4 .3-0.5c0-0.1 0-0.1 0-0.2c0-0.1 0-0.2 0-0.2c0-0.1 .1-0.2 .1-0.2c.1-0.1 .2-0.1 .2-0.2c0 0-0.1-0.1-0.1-0.2c0-0.1 0-0.2 .1-0.3c0-0.1 .1-0.2 .1-0.2c.1-0.1 .2-0.1 .3-0.2c0-0.2 .1-0.3 .3-0.4c-0.1-0.1-0.2-0.1-0.2-0.2c0 0-0.1-0.1-0.1-0.2c0-0.1 0-0.1 0-0.2c0-0.1 .1-0.2 .1-0.2c-0.1-0.1-0.1-0.2-0.2-0.3c0-0.1 0-0.2 0-0.3c0-0.1 .1-0.2 .2-0.3c.1-0.1 .2-0.1 .3-0.2c0 0-0.1-0.1-0.1-0.1c0-0.1 0-0.1 0-0.2c0-0.1 0-0.1 0-0.2c0 0 0-0.1 .1-0.1c-0.1 0-0.2-0.1-0.2-0.1c-0.1 0-0.2 0-0.2-0.1c-0.1 0-0.1-0.1-0.1-0.2c-0.1 0-0.1-0.1-0.1-0.2c0 0 0 0-0.1 0c0 0 0 0 0 0c-0.1 0-0.1 0-0.1 0c0 0 0-0.1-0.1-0.1c0 .2 0 .3-0.1 .4c0 .1-0.1 .2-0.3 .2c-0.1 0-0.2 0-0.3 0c-0.1 0-0.2-0.1-0.3-0.2c0 0 0 0-0.1 0c0 0 0 0 0 0c0 0 0 0-0.1 0c0 0 0 0 0 0v.1c0 .1-0.1 .3-0.2 .4c-0.1 .1-0.2 .1-0.4 .1c-0.1 0-0.3 0-0.4-0.1c-0.1-0.1-0.2-0.3-0.2-0.4v-0.1c0 0 0 0 0 0c0-0.1 0-0.1 0-0.1c-0.1 0-0.1 0-0.1 0c0-0.1 0-0.1 0-0.1Z" fill="#ffd243" transform="translate(-0.5,-1.1)"/></g></symbol></defs><g transform="translate(250.8,421.4) translate(-111.2,-113.1)"><g id="Replication-Complex" transform="translate(115.2,44.8) translate(0,0) rotate(12) scale(1.9,1.9) translate(-9.9,-15.3)"><path fill="#a33636" fill-rule="evenodd" stroke="#7d2614" stroke-linecap="round" stroke-linejoin="round" stroke-miterlimit="1.8" stroke-width=".3" d="M.8 1.6c0 .2-0.1 .3-0.2 .4c0 .1-0.2 .2-0.3 .2c-0.1 .1-0.3 .1-0.4 .1c-0.2 0-0.3-0.1-0.4-0.2c-0.6 .4-1.4 0-1.3-0.7c-0.9-0.4-0.6-1.7 .3-1.7c0 0 0 0-0.1 0c0-0.1 0-0.1-0.1-0.1c0 0 0-0.1 0-0.1c-0.1 0-0.1 0-0.1-0.1c-0.6-0.7 .7-1.7 1.3-1c.1 .1 .2 .2 .2 .3h.1c.3-0.9 1.7-0.5 1.4 .4c.8-0.1 1 1.3 .1 1.4c.4 .4 .1 1.1-0.5 1.1Z" transform="translate(16.8,23) scale(5,5)"/><path fill="#a33636" fill-rule="evenodd" stroke="#7d2614" stroke-linecap="round" stroke-linejoin="round" stroke-miterlimit="1.8" stroke-width=".3" d="M-0.6-2.3c.5-0.5 1.3-0.3 1.4 .4c0 0 .1 0 .1-0.1c0 0 0 0 .1-0.1c0 0 0 0 0 0c.1-0.1 .1-0.1 .1-0.1c.9-0.7 1.8 1.1 .8 1.5c0 .2-0.1 .4-0.3 .6c.1 .1 .2 .2 .2 .4c1.2 .3 .5 2.2-0.6 1.6c-0.2 .2-0.6 .3-0.9 .1c-0.4 .2-0.9 0-1.1-0.4c-0.2 1.2-2.1 .7-1.6-0.5c-0.6-0.4-0.3-1.5 .5-1.5c-0.2-0.3-0.1-0.7 .1-1c0-0.1 0-0.3 .1-0.4c0-0.2 .1-0.3 .2-0.4c.2-0.1 .3-0.1 .4-0.2c.2 0 .3 0 .5 .1Z" transform="translate(10.1,9.6) rotate(-234.2) scale(5,5)"/><g id="Nucleaotides" transform="translate(102.3,18.8) translate(0,0) translate(-244.6,-234.8)"><g id="Nucleotide-11" stroke="#ca6603" stroke-width=".1" fill-rule="evenodd" clip-rule="evenodd" stroke-linecap="round" stroke-miterlimit="1.8" opacity="0" transform="translate(418,243.5) translate(0,0) rotate(-132.3) scale(2,1.999) translate(-13,-1.1)"><use width="12.6" height="10.4" xlink:href="#Nucleotide" transform="translate(6.8,6.3) translate(-6.3,-5.2)"/></g><g id="Nucleotide-2" stroke="#ca6603" stroke-width=".1" fill-rule="evenodd" clip-rule="evenodd" stroke-linecap="round" stroke-miterlimit="1.8" opacity="0" transform="translate(376.6,65.7) translate(0,0) rotate(-222.2) scale(2,1.999) translate(-13,-1.1)"><use width="12.6" height="10.4" xlink:href="#Nucleotide" transform="translate(6.8,6.3) translate(-6.3,-5.2)"/></g><g id="Nucleotide-3" stroke="#ca6603" stroke-width=".1" fill-rule="evenodd" clip-rule="evenodd" stroke-linecap="round" stroke-miterlimit="1.8" opacity="0" transform="translate(415.5,309.3) translate(0,0) rotate(140.5) scale(2,1.999) translate(-13,-1.1)"><use width="12.6" height="10.4" xlink:href="#Nucleotide" transform="translate(6.8,6.3) translate(-6.3,-5.2)"/></g><g id="Nucleotide-4" stroke="#ca6603" stroke-width=".1" fill-rule="evenodd" clip-rule="evenodd" stroke-linecap="round" stroke-miterlimit="1.8" opacity="0" transform="translate(69.3,555.7) translate(0,0) rotate(-302.3) scale(2,1.999) translate(-13,-1.1)"><use width="12.6" height="10.4" xlink:href="#Nucleotide" transform="translate(6.8,6.3) translate(-6.3,-5.2)"/></g><g id="Nucleotide-5" stroke="#ca6603" stroke-width=".1" fill-rule="evenodd" clip-rule="evenodd" stroke-linecap="round" stroke-miterlimit="1.8" opacity="0" transform="translate(479,291.7) translate(0,0) rotate(-238.8) scale(2,1.999) translate(-13,-1.1)"><use width="12.6" height="10.4" xlink:href="#Nucleotide" transform="translate(6.8,6.3) translate(-6.3,-5.2)"/></g><g id="Nucleotide-6" stroke="#ca6603" stroke-width=".1" fill-rule="evenodd" clip-rule="evenodd" stroke-linecap="round" stroke-miterlimit="1.8" opacity="0" transform="translate(443.5,461.2) translate(0,0) rotate(180.3) scale(2,1.999) translate(-13,-1.1)"><use width="12.6" height="10.4" xlink:href="#Nucleotide" transform="translate(6.8,6.3) translate(-6.3,-5.2)"/></g><g id="Nucleotide-7" stroke="#ca6603" stroke-width=".1" fill-rule="evenodd" clip-rule="evenodd" stroke-linecap="round" stroke-miterlimit="1.8" opacity="0" transform="translate(237.8,462.9) translate(0,0) rotate(-444.2) scale(2,1.999) translate(-13,-1.1)"><use width="12.6" height="10.4" xlink:href="#Nucleotide" transform="translate(6.8,6.3) translate(-6.3,-5.2)"/></g><g id="Nucleotide-8" stroke="#ca6603" stroke-width=".1" fill-rule="evenodd" clip-rule="evenodd" stroke-linecap="round" stroke-miterlimit="1.8" opacity="0" transform="translate(14.4,34.8) translate(0,0) rotate(133.6) scale(2,1.999) translate(-13,-1.1)"><use width="12.6" height="10.4" xlink:href="#Nucleotide" transform="translate(6.8,6.3) translate(-6.3,-5.2)"/></g><g id="Remdesivir" stroke="#8c568c" stroke-width=".1" fill-rule="evenodd" clip-rule="evenodd" stroke-linecap="round" stroke-miterlimit="1.8" opacity="0" transform="translate(367.6,11.1) translate(0,0) rotate(270.5) scale(2,1.999) translate(-6.8,-4.2)"><path d="M2.4 1.2c0-0.2 .1-0.3 .2-0.4c.1-0.1 .3-0.2 .4-0.2c.2 0 .3 0 .4 .1c.2 .1 .3 .3 .3 .4c.1-0.1 .3-0.2 .5-0.2c.1 0 .3 .1 .4 .2c.2 .1 .2 .3 .2 .5c0 .2-0.1 .3-0.2 .4c0 .1 .1 .1 .1 .2c.1-0.2 .3-0.3 .5-0.3c.1 0 .2 0 .3 0c.1 0 .1 .1 .2 .1c.1 .1 .1 .1 .2 .2c0 .1 0 .2 0 .3c.1 0 .2 .1 .3 .1c.1-0.2 .2-0.3 .4-0.4c.1-0.1 .1-0.2 .2-0.3c.1-0.1 .3-0.2 .4-0.2c.2 0 .3 .1 .4 .1c.1 .1 .2 .2 .3 .4c.2 0 .5 .2 .5 .5v.1c0 0 .1 0 .1-0.1c.1 0 .1 0 .2 0c0 0 .1 0 .1 0c.1 .1 .1 .1 .2 .1c0-0.1 0-0.1 .1-0.1c0-0.1 .1-0.1 .2-0.1c0 0 .1-0.1 .1-0.1c.1 0 .2 0 .2 .1c.1-0.1 .2-0.1 .3-0.2c0 0 .1 0 .2 0c.1 0 .2 .1 .3 .1c.1 0 .1 .1 .2 .2c0-0.1 0-0.1 .1-0.1c0 0 .1 0 .1-0.1c.1 0 .1 0 .1 0c.1 0 .1 0 .2 0c.1-0.1 .2-0.2 .3-0.2c.1-0.1 .2-0.1 .3-0.1c.2 0 .3 .1 .4 .2c.1 .1 .1 .2 .2 .3c.1 0 .3 0 .4 .1c.2 .1 .3 .3 .3 .5c0 .1 0 .3-0.1 .4c-0.1 .2-0.3 .3-0.4 .3c0 .1-0.1 .3-0.1 .4c-0.1 .1-0.2 .2-0.3 .2c-0.1 .1-0.2 .1-0.4 .1c-0.1 0-0.2-0.1-0.3-0.1c0 0 0 0-0.1 0c0 0 0 0-0.1 0c0 .1 0 .1 0 .1c-0.1 0-0.1 0-0.1 0c.1 .1 .2 .2 .2 .3c.1 .1 .1 .2 .1 .4c0 .1-0.1 .2-0.2 .3c-0.1 .1-0.2 .2-0.4 .2c-0.1 .1-0.2 .3-0.3 .3c-0.1 .1-0.3 .1-0.4 .1c-0.2 0-0.3-0.1-0.4-0.2c-0.1-0.2-0.2-0.3-0.2-0.5c0 0-0.1 0-0.2-0.1c0 0-0.1-0.1-0.1-0.2c-0.1 0-0.1-0.1-0.1-0.2c0-0.1 0-0.1 0-0.2c0 0 0 0-0.1-0.1c0 0 0 0 0 0c-0.1-0.1-0.1-0.1-0.1-0.1c0 0 0-0.1 0-0.1c-0.3 0-0.4-0.1-0.6-0.3c0 .1 0 .1-0.1 .2c0 0-0.1 0-0.1 0c-0.1 .1-0.1 .1-0.2 .1c-0.1 0-0.1 0-0.2 0c0 .1 0 .2-0.1 .2c-0.1 .1-0.1 .2-0.2 .2c-0.1 0-0.2 .1-0.3 .1c-0.1 0-0.2-0.1-0.2-0.1c0 0 0 .1 0 .1c0 0 0 0 0 .1c0 0 0 0 0 0c0 .1 0 .1 .1 .1c0 .1 .1 .1 .2 .2c0 .1 .1 .1 .1 .2c0 .1 0 .2 0 .3c0 .1 0 .2-0.1 .2c.1 .1 .1 .2 .2 .3c0 .2-0.1 .3-0.1 .4c-0.1 .1-0.1 .2-0.2 .2c-0.1 .1-0.2 .1-0.3 .1c-0.1 0-0.2 0-0.2 0c-0.1 0-0.1 0-0.2 0c-0.1-0.1-0.1-0.1-0.2-0.2c0 0 0-0.1-0.1-0.1c0 0-0.1 0-0.2 0c-0.1 0-0.2 0-0.3 0c-0.1-0.1-0.1-0.1-0.2-0.2c0-0.1-0.1-0.2-0.1-0.2c-0.1-0.1-0.1-0.1-0.1-0.1c-0.1 0-0.1 0-0.2-0.1c0 0 0 0-0.1-0.1c0 0 0-0.1 0-0.1c-0.1 0-0.2-0.1-0.3-0.1c0-0.1-0.1-0.2-0.1-0.3c-0.1 0-0.1-0.1-0.1-0.2c0-0.1 0-0.2 .1-0.3c-0.1 0-0.1 0-0.1-0.1c-0.1 0-0.1-0.1-0.1-0.1c0-0.1 0-0.2-0.1-0.2c0-0.1 0-0.1 .1-0.2c-0.1 0-0.1-0.1-0.1-0.2c-0.1 0-0.1-0.1-0.1-0.2c0 0 0-0.1 .1-0.2c0-0.1 0-0.1 .1-0.2h-0.1c0 0 0 .1 0 .1c-0.1 .1-0.1 .1-0.1 .1c0 .1-0.1 .1-0.1 .1c-0.1 .1-0.1 .1-0.2 .1c.1 0 .1 0 .1 .1c0 0 0 0 0 0c0 .1 0 .1 0 .1c0 0 0 .1 0 .1c.1 0 .1 .1 .2 .2c.1 0 .1 .1 .1 .2c.1 .1 .1 .2 .1 .2c0 .1-0.1 .2-0.1 .3c.1 .1 .1 .1 .2 .2c0 .1 0 .2 0 .3c0 .1 0 .2-0.1 .3c0 .1-0.1 .1-0.2 .2v.1c0 .1 0 .2 0 .2c0 .1 0 .1-0.1 .2c0 .1 0 .1-0.1 .2c0 0-0.1 0-0.1 .1c-0.1 .1-0.1 .3-0.3 .4c-0.1 .1-0.2 .1-0.4 .1c-0.1 0-0.3 0-0.4-0.1c-0.1-0.1-0.2-0.3-0.2-0.4c-0.1-0.1-0.1-0.2-0.2-0.2c0-0.1-0.1-0.2-0.1-0.3c0-0.1 0-0.1 0-0.2c0-0.1 .1-0.2 .1-0.3c0 0-0.1-0.1-0.1-0.1c-0.1-0.1-0.1-0.2-0.1-0.3c0-0.1 0-0.1 0-0.2c.1-0.1 .1-0.2 .1-0.2c0-0.1 0-0.1-0.1-0.2c0 0 0-0.1-0.1-0.1c0-0.1 0-0.2 0-0.2c0-0.1 0-0.2 0-0.2c0-0.1-0.1-0.1-0.1-0.2c-0.1 0-0.1-0.1-0.2-0.1c0-0.1 0-0.2 0-0.3c0 0 0-0.1 0-0.2h-0.1c0 0-0.1 0-0.2 0c0 0-0.1 0-0.1-0.1c-0.1 0-0.2 0-0.2-0.1c0 0-0.1-0.1-0.1-0.2c-0.1 0-0.2-0.1-0.3-0.2c0-0.1 0-0.3 0-0.4c0-0.1 0-0.2 .1-0.3c.1-0.1 .2-0.2 .3-0.2c0-0.1 .1-0.2 .1-0.2c0-0.1 .1-0.1 .2-0.2c0 0 .1 0 .2 0c0-0.1 .1-0.1 .2-0.1c0-0.1 0-0.2 0-0.3c0 0 .1-0.1 .1-0.2c.1-0.1 .2-0.1 .3-0.2c0 0 .1 0 .2 0Z" fill="#3e63cd"/><path d="M4.3 5.6c-0.1-0.2-0.1-0.4 0-0.5c.1-0.2 .2-0.3 .4-0.4c.2 0 .3 0 .5 .1c.2 .1 .3 .2 .3 .4c.2 .1 .4 .3 .5 .5c.2 .1 .3 .2 .4 .4c.3-0.1 .6-0.1 .7 .1c.2 .2 .3 .4 .2 .7c-0.1 .2-0.3 .4-0.5 .4c-0.3 0-0.5-0.1-0.7-0.4c-0.1 .1-0.1 .1-0.2 .1c-0.1 0-0.2 0-0.3-0.1c-0.1 0-0.2-0.1-0.3-0.2c0-0.1-0.1-0.2-0.1-0.2c0-0.1-0.1-0.1-0.1-0.1c-0.1 0-0.1-0.1-0.2-0.1c0-0.1-0.1-0.1-0.1-0.2c0 0-0.1-0.1-0.1-0.1c0 0 0 0-0.1-0.1c0 0-0.1 0-0.1 0c0 0-0.1-0.1-0.1-0.1c0 0 0 0-0.1-0.1l.1 .1c0 .1 0 .2 0 .2c0 .1-0.1 .1-0.1 .2c0 0 0 .1-0.1 .1c0 .1-0.1 .1-0.1 .1v.1c0 .3-0.1 .6-0.4 .7c0 .1-0.1 .3-0.2 .4c-0.1 .1-0.3 .1-0.5 .1c-0.1 0-0.3-0.1-0.4-0.2c-0.1-0.1-0.2-0.2-0.2-0.4c0 0-0.1-0.1-0.2-0.2c0 0-0.1-0.1-0.1-0.2c0-0.1 0-0.2 0-0.3c.1-0.1 .1-0.2 .1-0.2c-0.1-0.2-0.1-0.4-0.1-0.5c0-0.2 .1-0.4 .2-0.5c.2-0.1 .4-0.1 .6-0.1c.2 .1 .3 .2 .4 .4c.1-0.1 .1-0.2 .2-0.2c.1 0 .2 0 .3 0c.1 0 .2 0 .3 .1c0 0 .1 .1 .2 .2Zm7.3-2.1c.1 0 .2 0 .3 0c.1 0 .2 .1 .3 .1c0 .1 .1 .1 .2 .2c0 .1 .1 .2 .1 .3c0 .1 0 .2-0.1 .3c-0.1 .2-0.2 .3-0.3 .3c-0.1 .1-0.3 .1-0.4 .1c-0.1-0.1-0.2-0.1-0.3-0.2c0 0 0 0-0.1 0c0 0 0 0 0 0c0 0 0 .1 0 .1c0 0 0 0 0 0c.1 .1 .2 .2 .2 .4c0 .1 0 .2 0 .3c-0.1 .1-0.1 .2-0.2 .3c-0.1 .1-0.2 .1-0.3 .1c-0.1 0-0.2 0-0.3 0c-0.1 .2-0.1 .3-0.3 .4c-0.1 .1-0.2 .1-0.4 .1c-0.2 0-0.3 0-0.4-0.2c-0.1-0.1-0.2-0.2-0.2-0.4c0 0-0.1 0-0.1-0.1c-0.1 0-0.1 0-0.1-0.1c0 0-0.1-0.1-0.1-0.1c0-0.1 0-0.1 0-0.2v-0.1c-0.1 0-0.1 0-0.1 0c-0.1-0.1-0.1-0.1-0.2-0.2c0 0 0-0.1 0-0.1c0 0-0.1-0.1-0.1-0.1v-0.1c0 0 0 0-0.1 0c0-0.1 0-0.1-0.1-0.1c0 0 0-0.1-0.1-0.1c0 0 0 0 0-0.1c-0.1 .1-0.1 .1-0.1 .1c-0.1 .1-0.1 .1-0.2 .1c0 0-0.1 0-0.1 0c-0.1 0-0.1 0-0.2 0c0 .1 0 .2-0.1 .2c0 .1-0.1 .2-0.1 .2c-0.1 .1-0.2 .1-0.2 .1c-0.1 .1-0.2 .1-0.3 .1c-0.2 0-0.4 0-0.5-0.1c-0.2-0.1-0.3-0.3-0.3-0.4c-0.1-0.2 0-0.4 .1-0.6c.2-0.1 .4-0.2 .5-0.2c.1 0 .1 0 .1 0c0 0 .1 0 .1 0c0 0 0 0 .1 0c0 0 0 0 0 0c.1-0.1 .1-0.3 .2-0.4c.1-0.1 .2-0.1 .4-0.1c.1-0.1 .2-0.1 .4 0c.1 .1 .2 .2 .2 .3c.1-0.1 .2-0.1 .2-0.2c.1 0 .2 0 .3 0c.1-0.1 .1 0 .2 0c.1 0 .2 .1 .2 .1c.1 0 .1 0 .2 0c.1 0 .1 0 .2 0c0 0 .1 0 .1 0c.1 0 .1 0 .2 .1c0-0.1 .1-0.1 .1-0.1c.1 0 .1 0 .2 0c0 0 .1 0 .1 0c.1 .1 .1 .1 .2 .1c0 0 .1 0 .2 0c0 0 .1 0 .2 0c0 0 .1 0 .1 .1c.1 0 .2 0 .2 .1c.1-0.1 .2-0.2 .3-0.3Zm-10.1 .5c-0.2-0.1-0.4-0.2-0.4-0.4c-0.1-0.3-0.1-0.5 .1-0.7c.1-0.1 .4-0.2 .6-0.2c.2 .1 .4 .2 .5 .5c.2 0 .4 .2 .5 .5c.1-0.1 .2-0.1 .3-0.1c0-0.1 0-0.3 .1-0.4c.1-0.1 .2-0.1 .3-0.2c.2 0 .3 0 .4 0c.1 .1 .3 .2 .3 .3c.3-0.1 .5-0.1 .7 .1c.2 .1 .3 .4 .2 .6c-0.1 .3-0.3 .5-0.5 .5c-0.3 0-0.5-0.1-0.6-0.3c-0.1 0-0.1 0-0.1 0c0 .1 0 .1 0 .1c0 0-0.1 0-0.1 0c0 0 0 0 0 0c0 .1-0.1 .2-0.1 .3c-0.1 .1-0.2 .2-0.3 .2c-0.1 0-0.2 .1-0.3 .1c-0.1-0.1-0.2-0.1-0.3-0.2c-0.1 .2-0.3 .2-0.5 .3c-0.1 0-0.2 0-0.2-0.1c-0.1 0-0.2-0.1-0.3-0.1c-0.1-0.1-0.1-0.2-0.1-0.3c-0.1-0.1-0.1-0.2-0.1-0.3c0 0 0 0 0 0c0-0.1 0-0.1 0-0.1c0 0 0 0 0-0.1c0 0-0.1 0-0.1 0Z" fill="#527bc1"/><path d="M5.9 2.7c-0.2 .3-0.5 .5-0.8 .4c-0.3-0.1-0.5-0.5-0.4-0.8c0-0.3 .4-0.5 .7-0.5c.3 .1 .5 .4 .5 .7c.1-0.1 .1-0.1 .2-0.2c0 0 .1-0.1 .1-0.1c.1 0 .2 0 .2-0.1c.1 0 .2 0 .2 .1c.1-0.2 .1-0.3 .2-0.4c.1-0.1 .3-0.2 .4-0.2c.2 0 .3 0 .4 .1c.1 .1 .2 .2 .3 .4c.2 0 .4 .1 .5 .3c.1 .2 .1 .5 0 .7c-0.2 .2-0.4 .3-0.7 .2c-0.2 0-0.4-0.2-0.5-0.4h-0.1c0 0 0 0 0 0c0 .1 0 .1 0 .1c0 0 0 .1 0 .1c0 0 0 0-0.1 0c.1 .1 .1 .2 .2 .4c0 .1 0 .2-0.1 .3c0 .1-0.1 .2-0.2 .3c-0.1 0-0.2 .1-0.3 .1c-0.1 0-0.2 0-0.4-0.1c.1 .1 .1 .2 .1 .2c0 .1 0 .2 0 .3c0 .1-0.1 .1-0.1 .2c-0.1 .1-0.1 .1-0.2 .2c.3 0 .4 .2 .5 .5c0 .2-0.1 .5-0.3 .6c-0.2 .1-0.4 .1-0.7 0c-0.2-0.1-0.3-0.4-0.3-0.6c-0.2 .1-0.4 .1-0.5 0c-0.2-0.1-0.3-0.3-0.4-0.5c0-0.2 .1-0.4 .2-0.5c.2-0.2 .4-0.2 .6-0.2c0-0.1 0-0.2 .1-0.3c0-0.1 .1-0.1 .2-0.2c.1 0 .2 0 .3 0c.1 0 .2 0 .3 0c-0.1 0-0.1-0.1-0.1-0.1c0-0.1 0-0.1 0-0.2c0-0.1 0-0.1 0-0.2c0 0 .1-0.1 .1-0.1c0-0.1 0-0.1-0.1-0.1c0-0.1 0-0.1 0-0.1c0-0.1 0-0.1 0-0.1c0-0.1 0-0.1 0-0.2Zm-3.5 2c.2 0 .4 0 .6 .1c.1 .1 .2 .3 .2 .5c0 .2 0 .4-0.1 .5c-0.2 .1-0.4 .2-0.5 .2c-0.2 0-0.4-0.1-0.5-0.2c-0.1-0.1-0.2-0.2-0.2-0.4c0-0.1 0-0.3 .1-0.4c.1-0.2 .3-0.2 .4-0.3Zm6.8-0.6c-0.1 .1-0.2 .1-0.3 .1c-0.1 0-0.2 0-0.3 0c-0.1-0.1-0.2-0.1-0.3-0.2c0-0.1-0.1-0.2-0.1-0.3c0-0.2 .1-0.4 .2-0.6c.1-0.1 .3-0.2 .5-0.1c.2 0 .4 .1 .5 .3c.1 .1 .1 .3 .1 .5c.1-0.1 .2-0.1 .3-0.1c.1 0 .2 0 .3 0c.1 .1 .2 .2 .3 .3c0 0 .1 .1 .1 .3c0 .2-0.1 .3-0.2 .5c-0.2 .1-0.3 .2-0.5 .2c-0.2-0.1-0.4-0.2-0.5-0.3c-0.1-0.2-0.1-0.4-0.1-0.6Zm-7.1-0.5c-0.3 0-0.6-0.1-0.7-0.3c-0.2-0.2-0.2-0.5 0-0.7c.1-0.2 .4-0.3 .7-0.3c.2 .1 .4 .3 .4 .6h.1c.3-0.1 .5 .1 .7 .3c.1 .2 .1 .5-0.1 .7c-0.2 .2-0.4 .3-0.7 .2c-0.2-0.1-0.4-0.3-0.4-0.5c0 0 0 0 0 0Zm8.4-0.8c-0.1 .3-0.4 .5-0.7 .5c-0.3 0-0.6-0.3-0.6-0.6c0-0.3 .2-0.6 .5-0.7c.3 0 .6 .1 .7 .4c.1-0.3 .4-0.5 .7-0.5c.3 0 .6 .3 .6 .6c0 .3-0.2 .6-0.5 .6c-0.3 .1-0.6 0-0.7-0.3Zm-8-1.7c0-0.2 .1-0.3 .2-0.4c.1 0 .3-0.1 .4-0.1c.2 0 .3 .1 .4 .2c.1 .1 .2 .2 .2 .3c.2-0.2 .5-0.3 .8-0.2c.3 .1 .4 .4 .4 .7c-0.1 .3-0.4 .5-0.7 .5c-0.3 0-0.5-0.2-0.6-0.5c0 .1-0.1 .1-0.1 .1c0 .1-0.1 .1-0.2 .1c0 .1-0.1 .1-0.1 .1c-0.1 0-0.1 0-0.2 0c-0.1 .2-0.3 .4-0.5 .4c-0.3 .1-0.5 0-0.6-0.2c-0.2-0.2-0.2-0.5 0-0.7c.1-0.2 .3-0.4 .6-0.3Z" fill="#66a4e6"/></g><text id="_a0" font-size="18" font-family="ABCSans" font-weight="900" letter-spacing=".1em" word-spacing="0" text-anchor="middle" opacity="0" transform="translate(348.6,226.3) rotate(-13.7) scale(.526,.526)" style="line-height: 16px;">REMDESIVIR</text><g id="Nucleotide-9" stroke="#ca6603" stroke-width=".1" fill-rule="evenodd" clip-rule="evenodd" stroke-linecap="round" stroke-miterlimit="1.8" opacity="0" transform="translate(401.9,-60.2) translate(0,0) rotate(-198.3) scale(2,1.999) translate(-6.8,-6.3)"><use width="12.6" height="10.4" xlink:href="#Nucleotide" transform="translate(6.8,6.3) translate(-6.3,-5.2)"/></g><g id="Nucleotide-10" stroke="#ca6603" stroke-width=".1" fill-rule="evenodd" clip-rule="evenodd" stroke-linecap="round" stroke-miterlimit="1.8" opacity="0" transform="translate(460,24.8) translate(0,0) rotate(-86.5) scale(2,1.999) translate(-6.8,-6.3)"><use width="12.6" height="10.4" xlink:href="#Nucleotide" transform="translate(6.8,6.3) translate(-6.3,-5.2)"/></g></g><path fill="#a33636" fill-rule="evenodd" stroke="#7d2614" stroke-linecap="round" stroke-linejoin="round" stroke-miterlimit="1.8" stroke-width=".3" d="M0-1.6c.2-1.1 2-0.5 1.6 .5c.8 0 1.1 1.1 .4 1.6c.6 .8-0.4 1.8-1.2 1.1c0 .1-0.1 .2-0.2 .3c0 0-0.1 .1-0.2 .1c-0.1 0-0.2 .1-0.3 .1c-0.1 0-0.2 0-0.3-0.1c-0.1 .2-0.2 .3-0.3 .3c-0.2 .1-0.3 .1-0.5 .1c-0.1 0-0.3-0.1-0.4-0.2c-0.1-0.1-0.2-0.2-0.3-0.4c-0.1 0-0.3-0.1-0.4-0.2c-0.1-0.1-0.1-0.3-0.2-0.4c0-0.2 0-0.3 .1-0.5c0-0.1 .1-0.3 .2-0.3c0-0.1 0-0.2 0-0.3c0 0 0-0.1 0-0.2c0-0.1 0-0.2 0-0.2c.1-0.1 .1-0.2 .2-0.2c-0.2-0.1-0.4-0.2-0.4-0.3c-0.1-0.1-0.1-0.1-0.1-0.1c0 0 0-0.1 0-0.1c0 0-0.1-0.1-0.1-0.1c0 0 0 0 0-0.1c-0.2-1 1.5-1.2 1.7-0.3c.2-0.1 .4-0.1 .6-0.1Z" transform="translate(7.4,25.8) scale(5,5)"/><path fill="#a33636" fill-rule="evenodd" stroke="#7d2614" stroke-linecap="round" stroke-linejoin="round" stroke-miterlimit="1.8" stroke-width=".3" d="M-2.1-1.8c.1-0.5 .8-1 1.3-0.7c.2 .1 .3 .2 .4 .4c.3 .1 .5-0.2 .8 0c.3 .2 .2 .3 .4 .5c.2 .2 .4 .2 .5 .4c.1 .2 0 .4 .1 .6c.1 .2 .5 .5 .3 .8c-0.1 .3-0.6 .3-0.6 .7c0 .2 .1 .2 .1 .3c.1 .4 0 .6-0.3 .9c-0.2 .2-0.5 .2-0.8 .2c-0.2 0-0.2-0.2-0.4-0.2c-0.3 0-0.4 .4-0.8 .3c-0.3-0.1-0.2-0.2-0.5-0.4c-0.2-0.1-0.4 0-0.7 0c-0.3-0.1-0.5-0.3-0.6-0.6c-0.1-0.2-0.1-0.3-0.1-0.5c-0.1-0.4-0.2-0.3-0.2-0.7c.1-0.3 .5-0.3 .5-0.6c0-0.3-0.1-0.3-0.1-0.5c-0.1-0.1 0-0.2 0-0.3c0-0.1 .1-0.2 .2-0.3c0-0.1 .1-0.2 .2-0.2c.1-0.1 .2-0.1 .3-0.1Z" transform="translate(7.5,9.2) rotate(-17.6) scale(5,5)"/></g><text id="_a1" font-size="18" font-family="ABCSans" font-weight="900" letter-spacing=".1em" word-spacing="0" text-anchor="middle" transform="translate(111.2,149.5)" style="line-height: 16px;">REPLICATION COMPLEX</text></g><script xlink:href="keyshapejs-1.1.0.min.js"/><script><![CDATA[if(KeyshapeJS.version.indexOf('1.')!=0)throw Error('Expected KeyshapeJS v1.*.*');window.ks=document.ks=KeyshapeJS;(function(ks){
ks.animate("#Replication-Complex",[{p:'mpath',t:[4000,11000],v:['0%','100%'],e:[[1,.4,0,.6,1],[0]],mp:"M115.2,44.8L37.2,44.8"}],
"#Nucleaotides",[{p:'mpath',t:[1833,11000],v:['0%','100%'],e:[[1,0,0,.6,1],[0]],mp:"M102.3,18.8L-51.7,55.3"},{p:'rotate',t:[1833,11000],v:[0,2],e:[[0],[0]]}],
"#Nucleotide-11",[{p:'mpath',t:[0,1000,4000,4500,5000,5500,6000,6500],v:['0%','97.1%','97.1%','98.5%','98.5%','99.6%','99.6%','100%'],e:[[1,0,0,.6,1],[0],[0],[0],[0],[0],[0],[0]],mp:"M418,243.5L178.8,225.6L178.8,225.6L178,222.3L178,222.3L177.4,219.7L177.4,219.7L177.2,218.7"},{p:'rotate',t:[0,1000,3000,3500],v:[-132.3,-12,-12,0],e:[[1,0,0,.6,1],[0],[0],[0]]},{p:'opacity',t:[0,500],v:[0,1],e:[[0],[0]]}],
"#Nucleotide-2",[{p:'mpath',t:[1000,2000,5000,5500,6000,6500],v:['0%','98.5%','98.5%','99.6%','99.6%','100%'],e:[[1,0,0,.6,1],[0],[0],[0],[0],[0]],mp:"M376.6,65.7L200.3,220.2L200.3,220.2L199.7,217.6L199.7,217.6L199.5,216.6"},{p:'rotate',t:[1000,2000,4000,4500],v:[-222.2,-12,-12,-2],e:[[1,0,0,.6,1],[0],[0],[0]]},{p:'opacity',t:[1000,1500],v:[0,1],e:[[0],[0]]}],
"#Nucleotide-3",[{p:'mpath',t:[2000,3000,6000,6500],v:['0%','99.3%','99.3%','100%'],e:[[1,0,0,.6,1],[0],[0],[0]],mp:"M415.5,309.3L222,214.8L222,214.8L221.7,213.2"},{p:'rotate',t:[2000,3000,5000,5500],v:[140.5,-12,-12,-4],e:[[1,0,0,.6,1],[0],[0],[0]]},{p:'opacity',t:[2000,2500],v:[0,1],e:[[0],[0]]}],
"#Nucleotide-4",[{p:'mpath',t:[3000,4000],v:['0%','100%'],e:[[1,0,0,.6,1],[0]],mp:"M69.3,555.7L244.8,209.1"},{p:'rotate',t:[3000,4000,6000,6500],v:[-302.3,-12,-12,-6],e:[[1,0,0,.6,1],[0],[0],[0]]},{p:'opacity',t:[3000,3500],v:[0,1],e:[[0],[0]]}],
"#Nucleotide-5",[{p:'mpath',t:[4000,5000],v:['0%','100%'],e:[[1,0,0,.6,1],[0]],mp:"M479,291.7L265.3,204"},{p:'rotate',t:[4000,5000],v:[-238.8,-12],e:[[1,0,0,.6,1],[0]]},{p:'opacity',t:[4000,4500],v:[0,1],e:[[0],[0]]}],
"#Nucleotide-6",[{p:'mpath',t:[5000,6000],v:['0%','100%'],e:[[1,0,0,.6,1],[0]],mp:"M443.5,461.2L286.8,198.9"},{p:'rotate',t:[5000,6000],v:[180.3,-12],e:[[1,0,0,.6,1],[0]]},{p:'opacity',t:[5000,5500],v:[0,1],e:[[0],[0]]}],
"#Nucleotide-7",[{p:'mpath',t:[6000,7000],v:['0%','100%'],e:[[1,0,0,.6,1],[0]],mp:"M237.8,462.9L308,193.9"},{p:'rotate',t:[6000,7000],v:[-444.2,-12],e:[[1,0,0,.6,1],[0]]},{p:'opacity',t:[6000,6500],v:[0,1],e:[[0],[0]]}],
"#Nucleotide-8",[{p:'mpath',t:[7000,8000],v:['0%','100%'],e:[[1,0,0,.6,1],[0]],mp:"M14.4,34.8L329,188.9"},{p:'rotate',t:[7000,8000],v:[133.6,-12],e:[[1,0,0,.6,1],[0]]},{p:'opacity',t:[7000,7500],v:[0,1],e:[[0],[0]]}],
"#Remdesivir",[{p:'mpath',t:[8000,9000],v:['0%','100%'],e:[[1,0,0,.6,1],[0]],mp:"M367.6,11.1L340.3,191.7"},{p:'rotate',t:[8000,9000],v:[270.5,-21],e:[[1,0,0,.6,1],[0]]},{p:'opacity',t:[8000,8500],v:[0,1],e:[[0],[0]]}],
"#_a0",[{p:'opacity',t:[9000,9750],v:[0,1],e:[[0],[0]]}],
"#Nucleotide-9",[{p:'mpath',t:[9000,10000,11000],v:['0%','52.8%','100%'],e:[[1,.4,0,1,1],[0],[0]],mp:"M401.9,-60.2L363.3,191L567.5,290.8"},{p:'rotate',t:[9000,10000,11000],v:[-198.3,-12,200],e:[[1,0,0,.6,1],[0],[0]]},{p:'opacity',t:[9000,9500,10500,11000],v:[0,1,1,0],e:[[0],[0],[0],[0]]}],
"#Nucleotide-10",[{p:'mpath',t:[11000,12000,13000],v:['0%','49.6%','100%'],e:[[1,.4,0,1,1],[0],[0]],mp:"M460,24.8L363.3,191L526.9,297.7"},{p:'rotate',t:[11000,12000,13000],v:[-86.5,-12,45.3],e:[[0],[0],[0]]},{p:'opacity',t:[11000,11500,12500,13000],v:[0,1,1,0],e:[[0],[0],[0],[0]]}],
"#_a1",[{p:'opacity',t:[0,500],v:[1,0],e:[[0],[0]]}],
{autoremove:false,markers:{"LoopStart":11000}}).range(0,13000);
if(document.location.search.substr(1).split('&').indexOf('global=paused')>=0)ks.globalPause()})(KeyshapeJS);
]]></script></svg>