<svg xmlns="http://www.w3.org/2000/svg" xmlns:xlink="http://www.w3.org/1999/xlink" width="100%" height="100%" viewBox="0 0 500 800" style="background: rgba(224,255,255,0.00); white-space: pre;"><defs><symbol id="eProtein" preserveAspectRatio="none" width="8.3" height="7.4" viewBox="0 0 8.3 7.4" overflow="visible"><path d="M-0.3 0c1.2 .2 2.8 1.8 2.3 3.6c-0.6 1.9-2.8 2.3-3.6 2.2c-0.8-0.1-3.2-1.2-2.2-3.3c1-2 2.3-2.7 3.5-2.5Z" stroke="#4598ff" fill="#2ce3ff" stroke-miterlimit="1.5" stroke-linecap="round" stroke-linejoin="round" stroke-width="1.3" transform="translate(5.2,.8)"/></symbol><symbol id="mProtein" preserveAspectRatio="none" width="8.3" height="7.4" viewBox="0 0 8.3 7.4" overflow="visible"><path d="M-0.3 0c1.2 .2 2.8 1.8 2.3 3.6c-0.6 1.9-2.8 2.3-3.6 2.2c-0.8-0.1-3.2-1.2-2.2-3.3c1-2 2.3-2.7 3.5-2.5Z" stroke="#ffbc20" fill="#f8ff3a" stroke-miterlimit="1.5" stroke-linecap="round" stroke-linejoin="round" stroke-width="1.3" transform="translate(5.2,.8)"/></symbol><symbol id="backSpike" preserveAspectRatio="none" width="27.4" height="24.4" viewBox="0 0 27.4 24.4" overflow="visible"><path d="M154 288.3c-0.4-0.3-2.9-0.5-3.2-0.5c-2.3 .2-4.2-2.9-4.1-6.7c0-3.9 1.9-7.1 4.2-7.3c.6 0 1.2 .2 1.7 .5c2.5-1.4 3.3-4.7 4.6-5.9c.1-0.2 .3-0.3 .6-0.5c.2-0.1 .4-0.3 .6-0.4c.2-0.1 .5-0.2 .7-0.3c.2-0.1 .5-0.1 .7-0.2c.8-0.2 2.9 1.1 3.4 1.8c.9 1.6 3.4 4.4 4.7 5.8c.1 0 .2-0.1 .4-0.1c2.2-0.5 4.6 1.7 5.2 5.1c.6 3.3-0.7 6.5-3 7c-0.5 .1-1.1 .1-1.6-0.1c-0.6 .4-1.3 .8-2.1 1.3c-0.7 .5-2.1 .9-3.6 1.2c.4 .1-6.4 2.2-6.7 1.4c-0.2-0.2-0.4-0.3-0.6-0.5c-0.2-0.2-0.4-0.4-0.6-0.6c-0.2-0.2-0.4-0.3-0.6-0.5c-0.3-0.2-0.5-0.3-0.7-0.5Z" fill="url(#Gradient-0)" stroke-width="1.3" stroke="#8a3463" transform="translate(-146.7,-266.8)"/></symbol><linearGradient id="Gradient-0" x1="0" y1="0" x2="1" y2="-0.1" gradientUnits="userSpaceOnUse" gradientTransform="matrix(-1.1 -28.4 44.5 -8 161.1 295.4)"><stop offset="0" stop-color="#ef4662"/><stop offset=".1" stop-color="#ef4662"/><stop offset=".2" stop-color="#ef4662"/><stop offset=".3" stop-color="#c13e63"/><stop offset=".5" stop-color="#993763"/><stop offset="1" stop-color="#8a3463"/></linearGradient><radialGradient id="Gradient-1" cx="-1.2" cy=".2" r="1" fx="-1.2" fy=".2" gradientUnits="userSpaceOnUse" gradientTransform="matrix(104.1 138.6 -132.6 105.5 135 109.6)"><stop offset="0" stop-color="#fff" stop-opacity=".5"/><stop offset=".1" stop-color="#fff" stop-opacity=".36"/><stop offset=".3" stop-color="#fff" stop-opacity="0"/><stop offset=".4" stop-color="#4e8098" stop-opacity="0"/><stop offset=".8" stop-color="#4e8098" stop-opacity=".7"/><stop offset="1" stop-color="#4e8098" stop-opacity=".3"/></radialGradient><linearGradient id="Gradient-2" x1="0" y1="0" x2="1" y2="-0.1" gradientUnits="userSpaceOnUse" gradientTransform="matrix(4.3 20.1 -34.2 10.3 132 12.7)"><stop offset="0" stop-color="#ef4662"/><stop offset=".1" stop-color="#ef4662"/><stop offset=".2" stop-color="#ef4662"/><stop offset=".3" stop-color="#c13e63"/><stop offset=".5" stop-color="#993763"/><stop offset="1" stop-color="#8a3463"/></linearGradient><linearGradient id="Gradient-3" x1="0" y1="0" x2="1" y2="-0.1" gradientUnits="userSpaceOnUse" gradientTransform="matrix(-9.7 18.2 -32.8 -14 218.3 18.8)"><stop offset="0" stop-color="#ef4662"/><stop offset=".1" stop-color="#ef4662"/><stop offset=".2" stop-color="#ef4662"/><stop offset=".3" stop-color="#c13e63"/><stop offset=".5" stop-color="#993763"/><stop offset="1" stop-color="#8a3463"/></linearGradient><linearGradient id="Gradient-4" x1="0" y1="0" x2="1" y2="-0.1" gradientUnits="userSpaceOnUse" gradientTransform="matrix(-16.8 11.8 -22.9 -27.3 276.8 71.8)"><stop offset="0" stop-color="#ef4662"/><stop offset=".1" stop-color="#ef4662"/><stop offset=".2" stop-color="#ef4662"/><stop offset=".3" stop-color="#c13e63"/><stop offset=".5" stop-color="#993763"/><stop offset="1" stop-color="#8a3463"/></linearGradient><linearGradient id="Gradient-5" x1="0" y1="0" x2="1" y2="-0.1" gradientUnits="userSpaceOnUse" gradientTransform="matrix(-19.1 -7.6 10.4 -34.1 283.7 218.5)"><stop offset="0" stop-color="#ef4662"/><stop offset=".1" stop-color="#ef4662"/><stop offset=".2" stop-color="#ef4662"/><stop offset=".3" stop-color="#c13e63"/><stop offset=".5" stop-color="#993763"/><stop offset="1" stop-color="#8a3463"/></linearGradient><linearGradient id="Gradient-6" x1="0" y1="0" x2="1" y2="-0.1" gradientUnits="userSpaceOnUse" gradientTransform="matrix(-11.6 -17 27.6 -22.6 231.4 280.7)"><stop offset="0" stop-color="#ef4662"/><stop offset=".1" stop-color="#ef4662"/><stop offset=".2" stop-color="#ef4662"/><stop offset=".3" stop-color="#c13e63"/><stop offset=".5" stop-color="#993763"/><stop offset="1" stop-color="#8a3463"/></linearGradient><linearGradient id="Gradient-7" x1="0" y1="0" x2="1" y2="-0.1" gradientUnits="userSpaceOnUse" gradientTransform="matrix(4.8 -20 35.3 5.4 123.5 294.7)"><stop offset="0" stop-color="#ef4662"/><stop offset=".1" stop-color="#ef4662"/><stop offset=".2" stop-color="#ef4662"/><stop offset=".3" stop-color="#c13e63"/><stop offset=".5" stop-color="#993763"/><stop offset="1" stop-color="#8a3463"/></linearGradient><linearGradient id="Gradient-8" x1="0" y1="0" x2="1" y2="-0.1" gradientUnits="userSpaceOnUse" gradientTransform="matrix(13.4 -15.6 28.9 20.9 52.3 250.3)"><stop offset="0" stop-color="#ef4662"/><stop offset=".1" stop-color="#ef4662"/><stop offset=".2" stop-color="#ef4662"/><stop offset=".3" stop-color="#c13e63"/><stop offset=".5" stop-color="#993763"/><stop offset="1" stop-color="#8a3463"/></linearGradient><linearGradient id="Gradient-9" x1="0" y1="0" x2="1" y2="-0.1" gradientUnits="userSpaceOnUse" gradientTransform="matrix(19.2 -7.4 15.6 32.1 19.4 205.9)"><stop offset="0" stop-color="#ef4662"/><stop offset=".1" stop-color="#ef4662"/><stop offset=".2" stop-color="#ef4662"/><stop offset=".3" stop-color="#c13e63"/><stop offset=".5" stop-color="#993763"/><stop offset="1" stop-color="#8a3463"/></linearGradient><linearGradient id="Gradient-10" x1="0" y1="0" x2="1" y2="-0.1" gradientUnits="userSpaceOnUse" gradientTransform="matrix(20.6 -0.8 4.4 35.4 10.7 156.8)"><stop offset="0" stop-color="#ef4662"/><stop offset=".1" stop-color="#ef4662"/><stop offset=".2" stop-color="#ef4662"/><stop offset=".3" stop-color="#c13e63"/><stop offset=".5" stop-color="#993763"/><stop offset="1" stop-color="#8a3463"/></linearGradient><linearGradient id="Gradient-11" x1="0" y1="0" x2="1" y2="-0.1" gradientUnits="userSpaceOnUse" gradientTransform="matrix(20.5 8.6 -9.2 35.8 22.8 88.9)"><stop offset="0" stop-color="#ef4662"/><stop offset=".1" stop-color="#ef4662"/><stop offset=".2" stop-color="#ef4662"/><stop offset=".3" stop-color="#c13e63"/><stop offset=".5" stop-color="#993763"/><stop offset="1" stop-color="#8a3463"/></linearGradient><linearGradient id="Gradient-12" x1="0" y1="0" x2="1" y2="-0.1" gradientUnits="userSpaceOnUse" gradientTransform="matrix(11.3 17.2 -28 22.1 91 26.6)"><stop offset="0" stop-color="#ef4662"/><stop offset=".1" stop-color="#ef4662"/><stop offset=".2" stop-color="#ef4662"/><stop offset=".3" stop-color="#c13e63"/><stop offset=".5" stop-color="#993763"/><stop offset="1" stop-color="#8a3463"/></linearGradient><linearGradient id="Gradient-13" x1="0" y1="0" x2="1" y2="-0.1" gradientUnits="userSpaceOnUse" gradientTransform="matrix(-6.8 -19.4 32.6 -14.5 196.8 285)"><stop offset="0" stop-color="#ef4662"/><stop offset=".1" stop-color="#ef4662"/><stop offset=".2" stop-color="#ef4662"/><stop offset=".3" stop-color="#c13e63"/><stop offset=".5" stop-color="#993763"/><stop offset="1" stop-color="#8a3463"/></linearGradient><linearGradient id="Gradient-14" x1="0" y1="0" x2="1" y2="-0.1" gradientUnits="userSpaceOnUse" gradientTransform="matrix(1.9 9.7 -16.9 5.1 108.7 57.9)"><stop offset="0" stop-color="#ef4662"/><stop offset=".1" stop-color="#ef4662"/><stop offset=".2" stop-color="#ef4662"/><stop offset=".2" stop-color="#ef4662"/><stop offset=".4" stop-color="#c73f62"/><stop offset=".6" stop-color="#9e3863"/><stop offset="1" stop-color="#8a3463"/></linearGradient><linearGradient id="Gradient-15" x1="0" y1="0" x2="1" y2="-0.1" gradientUnits="userSpaceOnUse" gradientTransform="matrix(6.1 -8.4 15.9 7.8 97.4 253.6)"><stop offset="0" stop-color="#ef4662"/><stop offset=".1" stop-color="#ef4662"/><stop offset=".2" stop-color="#ef4662"/><stop offset=".2" stop-color="#ef4662"/><stop offset=".4" stop-color="#c73f62"/><stop offset=".6" stop-color="#9e3863"/><stop offset="1" stop-color="#8a3463"/></linearGradient><linearGradient id="Gradient-16" x1="0" y1="0" x2="1" y2="-0.1" gradientUnits="userSpaceOnUse" gradientTransform="matrix(8.1 -4.1 8.7 14 68.4 210.5)"><stop offset="0" stop-color="#ef4662"/><stop offset=".1" stop-color="#ef4662"/><stop offset=".2" stop-color="#ef4662"/><stop offset=".2" stop-color="#ef4662"/><stop offset=".4" stop-color="#c73f62"/><stop offset=".6" stop-color="#9e3863"/><stop offset="1" stop-color="#8a3463"/></linearGradient><linearGradient id="Gradient-17" x1="0" y1="0" x2="1" y2="0" gradientUnits="userSpaceOnUse" gradientTransform="matrix(10.7 3.9 -6 20.3 47.5 130.2)"><stop offset="0" stop-color="#ef4662"/><stop offset=".1" stop-color="#ef4662"/><stop offset=".2" stop-color="#ef4662"/><stop offset=".2" stop-color="#ef4662"/><stop offset=".4" stop-color="#c73f62"/><stop offset=".6" stop-color="#9e3863"/><stop offset="1" stop-color="#8a3463"/></linearGradient><linearGradient id="Gradient-18" x1="0" y1="0" x2="1" y2="0" gradientUnits="userSpaceOnUse" gradientTransform="matrix(10.2 7.7 -14.3 20.1 75.5 96.4)"><stop offset="0" stop-color="#ef4662"/><stop offset=".1" stop-color="#ef4662"/><stop offset=".2" stop-color="#ef4662"/><stop offset=".2" stop-color="#ef4662"/><stop offset=".4" stop-color="#c73f62"/><stop offset=".6" stop-color="#9e3863"/><stop offset="1" stop-color="#8a3463"/></linearGradient><linearGradient id="Gradient-19" x1="0" y1="0" x2="1" y2=".1" gradientUnits="userSpaceOnUse" gradientTransform="matrix(1.1 12 -26.6 -1 169.5 59.6)"><stop offset="0" stop-color="#ef4662"/><stop offset=".2" stop-color="#ef4662"/><stop offset=".3" stop-color="#ef4662"/><stop offset=".4" stop-color="#ef4662"/><stop offset=".5" stop-color="#c73f62"/><stop offset=".6" stop-color="#9e3863"/><stop offset="1" stop-color="#8a3463"/></linearGradient><linearGradient id="Gradient-20" x1="0" y1="0" x2="1" y2="-0.1" gradientUnits="userSpaceOnUse" gradientTransform="matrix(-0.6 -10.5 18.2 -3.4 189.1 258.1)"><stop offset="0" stop-color="#ef4662"/><stop offset=".1" stop-color="#ef4662"/><stop offset=".2" stop-color="#ef4662"/><stop offset=".2" stop-color="#ef4662"/><stop offset=".4" stop-color="#c73f62"/><stop offset=".6" stop-color="#9e3863"/><stop offset="1" stop-color="#8a3463"/></linearGradient><linearGradient id="Gradient-21" x1="0" y1="0" x2="1" y2="0" gradientUnits="userSpaceOnUse" gradientTransform="matrix(3 -13.5 24.9 4.2 144.5 243.6)"><stop offset="0" stop-color="#ef4662"/><stop offset=".2" stop-color="#ef4662"/><stop offset=".3" stop-color="#ef4662"/><stop offset=".4" stop-color="#ef4662"/><stop offset=".5" stop-color="#c73f62"/><stop offset=".6" stop-color="#9e3863"/><stop offset="1" stop-color="#8a3463"/></linearGradient><linearGradient id="Gradient-22" x1="0" y1="0" x2="1" y2="-0.1" gradientUnits="userSpaceOnUse" gradientTransform="matrix(-4.5 -10.1 15.7 -10.4 237.8 241)"><stop offset="0" stop-color="#ef4662"/><stop offset=".1" stop-color="#ef4662"/><stop offset=".2" stop-color="#ef4662"/><stop offset=".2" stop-color="#ef4662"/><stop offset=".4" stop-color="#c73f62"/><stop offset=".6" stop-color="#9e3863"/><stop offset="1" stop-color="#8a3463"/></linearGradient><linearGradient id="Gradient-23" x1="0" y1="0" x2="1" y2="-0.1" gradientUnits="userSpaceOnUse" gradientTransform="matrix(-7.6 7.3 -14.4 -11.6 225.6 62.9)"><stop offset="0" stop-color="#ef4662"/><stop offset=".1" stop-color="#ef4662"/><stop offset=".2" stop-color="#ef4662"/><stop offset=".2" stop-color="#ef4662"/><stop offset=".4" stop-color="#c73f62"/><stop offset=".6" stop-color="#9e3863"/><stop offset="1" stop-color="#8a3463"/></linearGradient><linearGradient id="Gradient-24" x1="0" y1="0" x2="1" y2="-0.1" gradientUnits="userSpaceOnUse" gradientTransform="matrix(-10.2 -2.6 2.2 -18.4 270.7 140.1)"><stop offset="0" stop-color="#ef4662"/><stop offset=".1" stop-color="#ef4662"/><stop offset=".2" stop-color="#ef4662"/><stop offset=".2" stop-color="#ef4662"/><stop offset=".4" stop-color="#c73f62"/><stop offset=".6" stop-color="#9e3863"/><stop offset="1" stop-color="#8a3463"/></linearGradient><linearGradient id="Gradient-25" x1="0" y1="0" x2="1" y2="-0.1" gradientUnits="userSpaceOnUse" gradientTransform="matrix(-8.3 -6.5 9.5 -15.9 261.6 180.1)"><stop offset="0" stop-color="#ef4662"/><stop offset=".1" stop-color="#ef4662"/><stop offset=".2" stop-color="#ef4662"/><stop offset=".2" stop-color="#ef4662"/><stop offset=".4" stop-color="#c73f62"/><stop offset=".6" stop-color="#9e3863"/><stop offset="1" stop-color="#8a3463"/></linearGradient><linearGradient id="Gradient-26" x1="0" y1="0" x2="1" y2=".1" gradientUnits="userSpaceOnUse" gradientTransform="matrix(-11.5 .6 2.2 -25.3 230 110)"><stop offset="0" stop-color="#ef4662"/><stop offset=".2" stop-color="#ef4662"/><stop offset=".3" stop-color="#ef4662"/><stop offset=".4" stop-color="#ef4662"/><stop offset=".5" stop-color="#c73f62"/><stop offset=".6" stop-color="#9e3863"/><stop offset="1" stop-color="#8a3463"/></linearGradient><mask id="Mask-1"><ellipse fill="#fff" rx="129.1" ry="129.1" transform="translate(-23.7,-23.4) translate(153.7,153.1)"/></mask></defs><g transform="translate(217.3,353.4) translate(-185.3,-244.7)"><g id="Coronavirus" fill-rule="evenodd" clip-rule="evenodd" stroke-linecap="round" stroke-linejoin="round" stroke-miterlimit="1.5" transform="translate(218,271.3) rotate(-2) translate(-153.7,-153.4)"><g transform="translate(155.8,152.7) translate(-139.1,-138.5)"><use width="27.4" height="24.4" xlink:href="#backSpike" transform="translate(143.6,264.8) translate(-13.7,-12.2)"/><use xlink:href="#backSpike" width="27.4" height="24.4" transform="translate(240.9,214.6) rotate(-48.5) translate(-13.7,-12.2)"/><use xlink:href="#backSpike" width="27.4" height="24.4" transform="translate(262.9,161.2) rotate(-75.6) translate(-13.7,-12.2)"/><use xlink:href="#backSpike" width="27.4" height="24.4" transform="translate(262.5,104.3) rotate(-102.2) translate(-13.7,-12.2)"/><use xlink:href="#backSpike" width="27.4" height="24.4" transform="translate(224.2,49.8) rotate(-133.2) translate(-13.7,-12.2)"/><use xlink:href="#backSpike" width="27.4" height="24.4" transform="translate(160.5,14.4) rotate(-170.2) translate(-13.7,-12.2)"/><use xlink:href="#backSpike" width="27.4" height="24.4" transform="translate(38,53.1) rotate(-223.4) translate(-13.7,-12.2)"/><use xlink:href="#backSpike" width="27.4" height="24.4" transform="translate(12.9,135.4) rotate(-267.2) translate(-13.7,-12.2)"/><use xlink:href="#backSpike" width="27.4" height="24.4" transform="translate(35.1,209.9) rotate(-303.9) translate(-13.7,-12.2)"/><use xlink:href="#backSpike" width="27.4" height="24.4" transform="translate(71.3,249.5) rotate(-318.4) translate(-13.7,-12.2)"/></g><ellipse fill="#c7e6e6" rx="129.1" ry="129.1" transform="translate(0,0) translate(153.7,153.1)"/><image xlink:href="https://www.abc.net.au/res/sites/news-projects/interactive-virus-treatment/master/exports/corona_texture.jpg" width="260" height="260" preserveAspectRatio="none" mask="url(#Mask-1)" transform="translate(153.7,153.4) translate(-130,-130)"/><ellipse fill="url(#Gradient-1)" stroke="#6c96a2" stroke-width="1.3" rx="129.1" ry="129.1" transform="translate(153.7,153.4)"/><g transform="translate(161.8,163.7) translate(-123.6,-121.3)"><use xlink:href="#mProtein" width="8.3" height="7.4" transform="translate(181.1,7.4) translate(-4.2,-3.7)"/><use xlink:href="#mProtein" width="8.3" height="7.4" transform="translate(38.4,17.2) translate(-4.2,-3.7)"/><use xlink:href="#mProtein" width="8.3" height="7.4" transform="translate(30.6,23.4) translate(-4.2,-3.7)"/><use xlink:href="#mProtein" width="8.3" height="7.4" transform="translate(33.1,95.7) translate(-4.2,-3.7)"/><use xlink:href="#mProtein" width="8.3" height="7.4" transform="translate(26.4,100.4) translate(-4.2,-3.7)"/><use xlink:href="#mProtein" width="8.3" height="7.4" transform="translate(76,129.3) translate(-4.2,-3.7)"/><use xlink:href="#mProtein" width="8.3" height="7.4" transform="translate(67.8,131.1) translate(-4.2,-3.7)"/><use xlink:href="#mProtein" width="8.3" height="7.4" transform="translate(4.2,120.7) translate(-4.2,-3.7)"/><use xlink:href="#mProtein" width="8.3" height="7.4" transform="translate(6.8,129.3) translate(-4.2,-3.7)"/><use xlink:href="#mProtein" width="8.3" height="7.4" transform="translate(72.2,191.5) translate(-4.2,-3.7)"/><use xlink:href="#mProtein" width="8.3" height="7.4" transform="translate(81.6,195.2) translate(-4.2,-3.7)"/><use xlink:href="#mProtein" width="8.3" height="7.4" transform="translate(99.8,232.1) translate(-4.2,-3.7)"/><use xlink:href="#mProtein" width="8.3" height="7.4" transform="translate(106.3,238.9) translate(-4.2,-3.7)"/><use xlink:href="#mProtein" width="8.3" height="7.4" transform="translate(201.4,188.6) translate(-4.2,-3.7)"/><use xlink:href="#mProtein" width="8.3" height="7.4" transform="translate(207.7,178.6) translate(-4.2,-3.7)"/><use xlink:href="#mProtein" width="8.3" height="7.4" transform="translate(236.7,118.8) translate(-4.2,-3.7)"/><use xlink:href="#mProtein" width="8.3" height="7.4" transform="translate(243,113.7) translate(-4.2,-3.7)"/><g transform="translate(150.5,105.4) translate(-51.7,-105.4)"><use xlink:href="#mProtein" width="8.3" height="7.4" transform="translate(18.9,3.7) translate(-4.2,-3.7)"/><use xlink:href="#mProtein" width="8.3" height="7.4" transform="translate(29.5,6) translate(-4.2,-3.7)"/><use xlink:href="#mProtein" width="8.3" height="7.4" transform="translate(85.5,44.7) translate(-4.2,-3.7)"/><use xlink:href="#mProtein" width="8.3" height="7.4" transform="translate(77.9,48) translate(-4.2,-3.7)"/><use xlink:href="#mProtein" width="8.3" height="7.4" transform="translate(4.2,88.3) translate(-4.2,-3.7)"/><use xlink:href="#mProtein" width="8.3" height="7.4" transform="translate(12.9,83.8) translate(-4.2,-3.7)"/><use xlink:href="#mProtein" width="8.3" height="7.4" transform="translate(90.8,104.9) translate(-4.2,-3.7)"/><use xlink:href="#mProtein" width="8.3" height="7.4" transform="translate(99.3,109.1) translate(-4.2,-3.7)"/><use xlink:href="#mProtein" width="8.3" height="7.4" transform="translate(45.9,126.7) translate(-4.2,-3.7)"/><use xlink:href="#mProtein" width="8.3" height="7.4" transform="translate(39.1,119.4) translate(-4.2,-3.7)"/><use xlink:href="#mProtein" width="8.3" height="7.4" transform="translate(33,196.8) translate(-4.2,-3.7)"/><use xlink:href="#mProtein" width="8.3" height="7.4" transform="translate(30,207.1) translate(-4.2,-3.7)"/></g></g><g transform="translate(143.9,151.3) translate(-119.5,-124.9)"><use width="8.3" height="7.4" xlink:href="#eProtein" transform="translate(4.2,101.8) translate(-4.2,-3.7)"/><use width="8.3" height="7.4" xlink:href="#eProtein" transform="translate(77.7,102) translate(-4.2,-3.7)"/><use width="8.3" height="7.4" xlink:href="#eProtein" transform="translate(68.8,174.5) translate(-4.2,-3.7)"/><use width="8.3" height="7.4" xlink:href="#eProtein" transform="translate(45.3,225.2) translate(-4.2,-3.7)"/><use width="8.3" height="7.4" xlink:href="#eProtein" transform="translate(234.8,87.9) translate(-4.2,-3.7)"/><use width="8.3" height="7.4" xlink:href="#eProtein" transform="translate(95.5,3.7) translate(-4.2,-3.7)"/><g transform="translate(153.4,144.3) translate(-42.8,-105.6)"><use width="8.3" height="7.4" xlink:href="#eProtein" transform="translate(4.2,3.7) translate(-4.2,-3.7)"/><use width="8.3" height="7.4" xlink:href="#eProtein" transform="translate(67.2,44.7) translate(-4.2,-3.7)"/><use width="8.3" height="7.4" xlink:href="#eProtein" transform="translate(66.3,105.2) translate(-4.2,-3.7)"/><use width="8.3" height="7.4" xlink:href="#eProtein" transform="translate(15.8,149.8) translate(-4.2,-3.7)"/><use width="8.3" height="7.4" xlink:href="#eProtein" transform="translate(26.1,207.5) translate(-4.2,-3.7)"/><use width="8.3" height="7.4" xlink:href="#eProtein" transform="translate(81.4,176.5) translate(-4.2,-3.7)"/></g></g><g><g stroke="#8a3463" stroke-width="1.3"><path d="M139.7 13.1c.3-0.2 .7-0.4 1-0.4c2.2-0.6 4.6 1.7 5.4 5.1c.8 3.4-0.3 6.6-2.5 7.2c-0.6 .1-1.2 .1-1.8-0.1c-2 1.7-0.9 14.6-1.8 15.9c-0.2 .2-0.3 .4-0.5 .6c-0.2 .1-0.4 .3-0.6 .4c-0.1 .2-0.4 .3-0.6 .4c-0.2 .2-0.4 .3-0.6 .4c-0.7 .3-3.1-0.5-3.7-1c-1.3-1.2-5.6-13.1-7.1-14c-0.1 0-0.2 .1-0.3 .1c-2.1 .9-4.9-0.6-6.3-3.4c-1.3-2.9-0.7-5.9 1.4-6.8c.5-0.2 1-0.3 1.6-0.2c.5-0.5 1.1-1 1.7-1.5c.3-0.2 .5-0.4 .8-0.6c.2-0.2 .5-0.3 .8-0.5c.3-0.1 .5-0.3 .8-0.4c.3-0.1 .6-0.2 .9-0.3c-0.4-0.1-0.7-0.2-0.7-0.4c.1-0.7 1.6-1.7 3.1-2.3c1.7-0.8 3.4-0.5 3.9 .1c.1 .2-0.1 .3-0.5 .6c1.1-0.1 2 .3 3.3 .8c.5 .3 1.6 .2 2.3 .3Z" fill="url(#Gradient-2)"/><path d="M127.6 13.6c.1-0.7 1.6-1.7 3.1-2.3c1.7-0.8 3.4-0.5 3.9 .1m-2.7 1.2c.4-0.2 .8-0.3 1.1-0.4c1.7-0.5 2.8-0.1 4.4 .7c.8 .3 2.1 .1 2.2 .5m-3.9 2.2c-1.1 0-2.4-0.3-3.8-0.4m-0.5-0.6c-0.2 .2-1.3 1.5-1.5 1.6c-0.1 .2-0.3 .3-0.4 .4c-0.2 .2-0.3 .3-0.5 .4c-0.1 .1-0.3 .2-0.4 .3c-0.2 .1-0.4 .2-0.5 .3m.6-0.3c0 0 3.9-2.3 6.2-1.8" fill="none"/><path d="M128.6 23.9c.1 1.7-0.7 3.2-2 3.8c-2.1 .9-4.9-0.6-6.2-3.4c-1.4-2.9-0.8-5.9 1.3-6.8c.2-0.1 .3-0.1 .5-0.2c.2 0 .3 0 .5 0c.2-0.1 .3-0.1 .5 0c.2 0 .4 0 .5 0c0 0 .6-0.8 1.3-1.6c.9-0.8 3.1-1.7 4.9-2.2m8.7 1.1c.1-0.2 .2-0.5 .3-0.7c.2-0.2 .3-0.4 .5-0.5c.2-0.2 .4-0.3 .6-0.5c.2-0.1 .5-0.2 .7-0.2c2.2-0.6 4.6 1.7 5.4 5.1c.8 3.4-0.3 6.6-2.5 7.2c-1.3 .3-2.8-0.4-3.9-1.8" fill="none"/></g><g stroke="#8a3463" stroke-width="1.3"><path d="M224 24.1c.4 0 .7 .1 1 .2c2.1 1 2.5 4.3 .9 7.5c-1.6 3.1-4.5 4.8-6.5 3.8c-0.2 0-0.3-0.1-0.4-0.2c-0.2-0.1-0.3-0.2-0.4-0.3c-0.1-0.1-0.2-0.2-0.3-0.3c-0.1-0.1-0.2-0.2-0.2-0.4c-2.7 0-10.1 10.6-11.7 11.1c-0.9 .2-2.1 .1-2.9-0.2c-0.7-0.2-2.1-2.3-2.2-3.1c-0.2-1.7 4.2-13.6 3.6-15.3c0 0 0 0-0.1 0c0 0 0 0-0.1 0c0-0.1 0-0.1-0.1-0.1c0 0 0 0-0.1 0c-2.2-0.6-3.3-3.6-2.5-6.7c.8-3 3.2-4.9 5.4-4.3c.5 .2 .9 .5 1.3 .9c.7 0 1.5 0 2.3-0.1c.9 0 2.3 .3 3.7 .8c-0.3-0.3-0.4-0.6-0.3-0.7c.5-0.5 2.3-0.3 3.9 .1c1.8 .6 2.8 1.9 2.8 2.7c0 .1-0.2 .1-0.7 .1c.9 .6 1.4 1.5 2 2.8c.2 .4 1.1 1.1 1.6 1.7Z" fill="url(#Gradient-3)"/><path d="M214.5 16.7c.4-0.5 2.2-0.3 3.8 .1c1.8 .6 2.8 1.9 2.8 2.7m-2.8-0.9c.4 .1 .8 .3 1.1 .4c1.7 .7 2.2 1.7 3 3.4c.3 .7 1.5 1.4 1.4 1.8m-4.5-0.8c-0.8-0.8-1.6-1.8-2.6-2.8m0-0.7c-0.3 0-2 .2-2.2 .2c-0.8 .1-1.6 .1-2.3-0.1m.7 .2c0 0 4.4 .8 5.9 2.6" fill="none"/><path d="M208.6 25.2c-1.1 1.4-2.6 2-4.1 1.6c-2.1-0.6-3.3-3.6-2.5-6.7c.8-3 3.2-4.9 5.4-4.3c.6 .2 1.2 .6 1.6 1.2c0 0 1-0.3 2-0.4c1.3-0.1 3.5 .6 5.2 1.4m6 6.4c1-0.4 2-0.5 2.8-0.1c2.1 1 2.5 4.3 .9 7.5c-1.6 3.1-4.5 4.8-6.5 3.9c-1.3-0.6-1.9-2.1-1.9-3.9" fill="none"/></g><g stroke="#8a3463" stroke-width="1.3"><path d="M279.5 79.1c.3 .2 .6 .4 .8 .7c1.4 1.8 .2 4.9-2.6 7c-2.8 2.1-6.2 2.3-7.6 .5c-0.1-0.1-0.2-0.2-0.3-0.4c0-0.1-0.1-0.2-0.1-0.4c-0.1-0.1-0.1-0.3-0.2-0.4c0-0.2 0-0.3 0-0.5c-2.4-1.2-13.8 4.9-15.4 4.6c-0.3-0.1-0.5-0.1-0.7-0.2c-0.2-0.1-0.4-0.2-0.7-0.3c-0.2-0.2-0.4-0.3-0.6-0.4c-0.2-0.2-0.3-0.3-0.5-0.5c-0.6-0.5-0.8-3-0.5-3.8c.5-1.6 9.8-10.2 10.1-12c-0.1-0.1-0.2-0.2-0.3-0.3c-1.7-1.5-1.3-4.7 .7-7.1c2.1-2.3 5.1-2.9 6.8-1.4c.4 .4 .6 .9 .8 1.4c.6 .3 1.3 .7 2.1 1c.8 .3 1.9 1.3 2.9 2.3c-0.1-0.4-0.1-0.7 .1-0.7c.6-0.2 2.1 .7 3.3 1.8c1.4 1.3 1.7 3 1.4 3.7c-0.1 .1-0.3 0-0.7-0.3c.5 1 .5 2.1 .5 3.4c0 .6 .4 1.6 .7 2.3Z" fill="url(#Gradient-4)"/><path d="M274.3 68.1c.6-0.1 2.1 .8 3.3 1.9c1.4 1.3 1.7 3 1.4 3.7m-2.1-2c.3 .3 .5 .5 .8 .8c1.1 1.4 1.1 2.5 1.1 4.3c0 .8 .7 2 .4 2.3m-3.6-2.7c-0.4-1.1-0.6-2.4-1.1-3.7m.4-0.7l-2.2-0.7c-0.1-0.1-0.3-0.2-0.5-0.3c-0.2 0-0.3-0.1-0.5-0.2c-0.2-0.1-0.3-0.2-0.5-0.3c-0.2-0.1-0.3-0.2-0.5-0.4m.6 .5c0 0 3.6 2.7 4.1 5" fill="none"/><path d="M265.2 73.1c-1.6 .7-3.3 .7-4.3-0.4c-1.7-1.5-1.3-4.7 .7-7.1c2.1-2.3 5.1-2.9 6.8-1.4c.5 .5 .8 1.1 .9 1.8c0 0 1 .2 2 .6c1.1 .5 2.8 2.1 4 3.6m2.4 8.4c.2 0 .5 0 .7 .1c.3 0 .5 .1 .7 .2c.2 .1 .4 .2 .6 .4c.2 .1 .4 .3 .6 .5c1.4 1.8 .2 4.9-2.6 7c-2.8 2.1-6.2 2.3-7.6 .5c-0.9-1.1-0.8-2.7 .1-4.3" fill="none"/></g><g stroke="#8a3463" stroke-width="1.3"><path d="M279 224.7c.1 .4 0 .7-0.1 1.1c-0.8 2.1-4 2.9-7.3 1.7c-3.3-1.3-5.3-4-4.6-6.1c.1-0.2 .1-0.3 .2-0.5c.1-0.1 .2-0.2 .2-0.3c.1-0.2 .2-0.3 .4-0.4c.1-0.1 .2-0.2 .3-0.3c-0.3-2.7-11.6-8.9-12.2-10.4c-0.1-0.2-0.2-0.5-0.2-0.7c-0.1-0.2-0.1-0.5-0.1-0.7c0-0.3 0-0.5 0-0.7c0-0.3 0-0.5 .1-0.7c.1-0.8 2.1-2.4 2.9-2.5c1.7-0.5 13.9 2.6 15.6 1.9v-0.4c.4-2.3 3.3-3.7 6.4-3.3c3.1 .5 5.2 2.7 4.8 4.9c-0.1 .5-0.3 1-0.7 1.4c.1 .7 .2 1.5 .3 2.3c.2 .9 0 2.3-0.3 3.7c.2-0.3 .5-0.4 .7-0.3c.5 .4 .5 2.2 .2 3.8c-0.3 1.9-1.5 3.1-2.3 3.2c-0.1 0-0.2-0.3-0.2-0.7c-0.5 1-1.4 1.5-2.6 2.2c-0.4 .3-1 1.2-1.5 1.8Z" fill="url(#Gradient-5)"/><path d="M285.4 214.4c.5 .4 .5 2.2 .2 3.8c-0.3 1.9-1.5 3.1-2.3 3.2m.5-2.9c-0.1 .4-0.2 .8-0.2 1.1c-0.5 1.7-1.5 2.4-3 3.3c-0.7 .5-1.3 1.7-1.7 1.6m.3-4.5c.7-0.9 1.6-1.8 2.5-2.9m.7-0.1c0-0.3-0.4-1.9-0.5-2.2c0-0.2-0.1-0.4-0.1-0.6c0-0.2 0-0.3-0.1-0.5c0-0.2 0-0.4 0-0.6c0-0.2 .1-0.4 .1-0.6m-0.1 .7c0 0-0.3 4.5-2 6.2" fill="none"/><path d="M276.3 209.5c-1.5-0.9-2.4-2.4-2.1-3.8c.4-2.3 3.3-3.7 6.4-3.3c3.1 .5 5.2 2.7 4.8 4.9c0 .2-0.1 .3-0.1 .5c-0.1 .1-0.2 .3-0.2 .5c-0.1 .1-0.2 .3-0.3 .4c-0.1 .1-0.2 .3-0.4 .4c0 0 .4 .9 .6 1.9c.3 1.2-0.2 3.5-0.8 5.3m-5.7 6.6c.5 1 .7 2 .4 2.9c-0.8 2.1-4 2.9-7.3 1.7c-3.3-1.3-5.3-4-4.6-6.1c.5-1.4 1.9-2.2 3.7-2.3" fill="none"/></g><g stroke="#8a3463" stroke-width="1.3"><path d="M224.1 283.2c-0.2 .3-0.5 .6-0.8 .8c-1.8 1.4-4.9 .2-6.9-2.6c-2.1-2.9-2.3-6.3-0.4-7.7c.1 0 .2-0.1 .3-0.2c.2-0.1 .3-0.1 .4-0.2c.2 0 .3-0.1 .5-0.1c.1 0 .3 0 .4 0c1.3-2.4-4.7-13.9-4.4-15.5c.2-0.9 .9-1.9 1.5-2.5c.5-0.5 3-0.7 3.8-0.5c1.6 .6 10.1 10 11.9 10.3l.2-0.3c1.6-1.6 4.8-1.2 7.1 .9c2.3 2.1 2.9 5.1 1.4 6.7c-0.4 .4-0.9 .7-1.4 .8c-0.3 .6-0.7 1.3-1 2.1c-0.2 .3-0.4 .5-0.5 .8c-0.2 .2-0.4 .5-0.6 .7c-0.2 .3-0.4 .5-0.6 .7c-0.2 .2-0.5 .5-0.7 .7c.4-0.1 .7-0.1 .8 .1c.1 .6-0.8 2.1-2 3.3c-1.3 1.4-2.9 1.7-3.6 1.3c-0.2-0.1-0.1-0.3 .2-0.7c-1 .5-2 .5-3.4 .5c-0.5 0-1.5 .4-2.2 .6Z" fill="url(#Gradient-6)"/><path d="M235.1 278.2c.2 .6-0.8 2.1-2 3.3c-1.3 1.4-2.9 1.7-3.6 1.3m2-2.1l-0.8 .8c-1.4 1.2-2.6 1.1-4.4 1.1c-0.8 0-2 .7-2.3 .3m2.8-3.5c1.1-0.4 2.4-0.6 3.7-1.1m.7 .4c.1-0.3 .7-1.9 .8-2.1c.2-0.7 .6-1.4 1.1-2m-0.5 .5c0 0-2.7 3.6-5 4.1" fill="none"/><path d="M230.2 269.1c-0.7-1.7-0.6-3.3 .4-4.4c1.6-1.6 4.8-1.2 7.1 .8c2.3 2.1 2.9 5.2 1.4 6.8c-0.5 .5-1.1 .8-1.9 .9c0 0-0.1 1-0.6 2c-0.4 1.1-2.1 2.8-3.6 3.9m-8.4 2.3c0 .3-0.1 .5-0.1 .8c-0.1 .2-0.1 .5-0.3 .7c-0.1 .2-0.2 .4-0.3 .6c-0.2 .2-0.4 .4-0.6 .5c-1.8 1.4-4.9 .2-6.9-2.6c-2.1-2.9-2.3-6.3-0.4-7.7c1.1-0.8 2.7-0.7 4.3 .2" fill="none"/></g><g stroke="#8a3463" stroke-width="1.3"><path d="M116.6 290.9c0 .1-0.1 .1-0.2 .1c-0.1 0-0.2 0-0.3 0c-0.1 0-0.2 0-0.3 0c-0.1 0-0.2 0-0.2-0.1c-2.3-0.4-3.5-3.5-2.8-6.9c.8-3.4 3.2-5.9 5.4-5.4c.6 .1 1.1 .4 1.6 .8c2.6-0.7 7.1-12.8 8.5-13.6c.8-0.5 2-0.6 2.8-0.6c.8 0 2.6 1.8 2.9 2.5c.7 1.6-0.6 14.2 .4 15.7h.4c2.3 .1 4.1 2.7 4.1 5.8c0 3.1-1.8 5.6-4.1 5.5c-0.1 0-0.3 0-0.4 0c-0.1 0-0.3-0.1-0.4-0.1c-0.1-0.1-0.3-0.1-0.4-0.2c-0.1 0-0.2-0.1-0.3-0.1c-0.7 .1-1.5 .3-2.3 .6c-0.8 .3-2.2 .3-3.7 .2c.4 .2 .5 .4 .4 .6c-0.3 .6-2 .9-3.7 .8c-1.9-0.1-3.2-1.1-3.4-1.8c-0.1-0.2 .2-0.2 .6-0.3c-1-0.4-1.7-1.2-2.6-2.2c-0.3-0.4-1.3-0.9-2-1.3Z" fill="url(#Gradient-7)"/><path d="M127.7 295.7c-0.3 .6-2 .9-3.7 .8c-1.9-0.1-3.2-1.1-3.4-1.8m2.9 .1c-0.4-0.1-0.8-0.1-1.2-0.1c-1.7-0.3-2.5-1.1-3.7-2.5c-0.5-0.6-1.8-1.1-1.8-1.5m4.5-0.3c1 .6 2.1 1.4 3.3 2m.2 .8c.2-0.1 1.8-0.8 2.1-0.9c.7-0.2 1.4-0.4 2.2-0.4m-0.7 0c0 0-4.5 .3-6.4-1" fill="none"/><path d="M131.3 286c.7-1.6 2-2.7 3.5-2.6c2.3 .1 4.1 2.7 4.1 5.8c0 3.1-1.8 5.6-4.1 5.5c-0.2 0-0.3 0-0.5 0c-0.2-0.1-0.3-0.1-0.5-0.2c-0.2-0.1-0.3-0.1-0.5-0.2c-0.1-0.1-0.3-0.2-0.4-0.3c0 0-0.9 .5-1.9 .9c-1.1 .4-3.5 .3-5.3-0.1m-7.4-4.7c-0.8 .7-1.8 1-2.7 .8c-2.3-0.4-3.5-3.5-2.8-6.9c.8-3.4 3.2-5.9 5.4-5.4c1.4 .2 2.4 1.5 2.8 3.3" fill="none"/></g><g stroke="#8a3463" stroke-width="1.3"><path d="M47.9 243.9c-0.4-0.2-0.7-0.3-1-0.5c-1.8-1.4-1.4-4.8 .8-7.5c2.2-2.7 5.5-3.7 7.3-2.3c.5 .3 .8 .9 1 1.5c2.6 .5 12.2-8.2 13.8-8.3c.9 0 2 .4 2.8 .8c.6 .4 1.5 2.7 1.4 3.5c-0.2 1.8-7 12.4-6.9 14.2c.2 0 .3 .1 .4 .2c2 1.1 2.4 4.2 1 7c-1.4 2.8-4.2 4.1-6.2 3c-0.1 0-0.2-0.1-0.3-0.2c-0.1-0.1-0.2-0.2-0.3-0.3c-0.1-0.1-0.2-0.2-0.3-0.3c-0.1-0.1-0.2-0.2-0.2-0.3c-0.7-0.2-1.5-0.3-2.3-0.5c-0.9-0.1-2.2-0.7-3.4-1.5c.2 .4 .3 .7 .1 .8c-0.6 .3-2.3-0.2-3.7-1c-1.7-1-2.4-2.5-2.2-3.2c0-0.2 .3-0.1 .7 0c-0.8-0.8-1-1.8-1.3-3.1c-0.1-0.6-0.8-1.4-1.2-2Z" fill="url(#Gradient-8)"/><path d="M55.6 253.2c-0.6 .3-2.3-0.2-3.7-1c-1.7-1-2.4-2.5-2.2-3.2m2.5 1.4c-0.3-0.2-0.6-0.4-0.9-0.6c-1.5-1.1-1.8-2.2-2.2-3.9c-0.2-0.8-1.2-1.8-0.9-2.2m4.1 1.8c.6 1 1.2 2.1 2 3.3m-0.2 .8c.3 0 2 .1 2.2 .2c.8 0 1.5 .3 2.2 .6m-0.6-0.3c0 0-4.2-1.8-5.2-3.9" fill="none"/><path d="M63.2 246.2c1.3-1.1 3-1.5 4.3-0.7c2 1.1 2.4 4.2 1 7c-1.4 2.8-4.2 4.1-6.2 3c-0.1-0.1-0.3-0.2-0.4-0.3c-0.1-0.1-0.3-0.2-0.4-0.3c-0.1-0.2-0.2-0.3-0.3-0.4c-0.1-0.2-0.2-0.3-0.3-0.5c0 0-1 .1-2-0.1c-1.2-0.1-3.2-1.3-4.7-2.5m-4.4-7.5c-0.3 .1-0.5 .1-0.8 .1c-0.2 0-0.5 0-0.7-0.1c-0.3 0-0.5-0.1-0.7-0.2c-0.2-0.1-0.5-0.2-0.7-0.3c-1.8-1.4-1.4-4.8 .8-7.5c2.2-2.7 5.5-3.7 7.3-2.3c1.1 .8 1.4 2.4 .9 4.2" fill="none"/></g><g stroke="#8a3463" stroke-width="1.3"><path d="M18.5 198.2c0-0.1-0.1-0.1-0.1-0.2c-0.1-0.1-0.2-0.1-0.2-0.2c-0.1-0.1-0.1-0.2-0.2-0.2c0-0.1 0-0.2-0.1-0.3c-0.9-2.1 1-4.8 4.2-6.2c3.3-1.3 6.6-0.7 7.5 1.4c.3 .5 .3 1.1 .2 1.8c2.1 1.7 14.6-1.5 16.1-0.8c.8 .4 1.6 1.3 2 2c.4 .6 .1 3.1-0.4 3.8c-0.9 1.5-12 7.6-12.7 9.2c.1 .1 .2 .2 .3 .4c1.2 1.9 .1 4.9-2.5 6.7c-2.5 1.7-5.6 1.6-6.8-0.3c-0.3-0.4-0.5-1-0.5-1.5c-0.5-0.5-1.1-1-1.8-1.5c-0.3-0.2-0.5-0.4-0.7-0.6c-0.2-0.3-0.4-0.5-0.6-0.8c-0.2-0.2-0.3-0.5-0.5-0.7c-0.2-0.3-0.3-0.6-0.5-0.8c0 .4-0.1 .6-0.3 .7c-0.6 0-1.8-1.3-2.7-2.7c-1.1-1.6-1-3.2-0.5-3.8c.1-0.1 .3 0 .6 .4c-0.2-1.1 0-2.1 .3-3.5c.2-0.5 0-1.5-0.1-2.3Z" fill="url(#Gradient-9)"/><path d="M20.9 210.1c-0.6 0-1.8-1.3-2.7-2.7c-1.1-1.6-1-3.2-0.5-3.8m1.6 2.4c-0.2-0.3-0.4-0.7-0.6-1c-0.8-1.6-0.5-2.7-0.1-4.5c.2-0.7-0.2-2.1 .2-2.2m2.8 3.5c.2 1.1 .1 2.4 .2 3.8m-0.5 .6c.2 .2 1.7 1.1 1.9 1.2c.6 .4 1.2 1 1.6 1.6m-0.4-0.6c0 0-2.8-3.5-2.8-5.8" fill="none"/><path d="M30.9 207.5c1.8-0.4 3.4 .1 4.2 1.4c1.2 1.9 .1 4.9-2.5 6.7c-2.6 1.7-5.6 1.6-6.9-0.3c0-0.1-0.1-0.3-0.2-0.4c-0.1-0.2-0.1-0.4-0.2-0.5c0-0.2 0-0.4 0-0.6c-0.1-0.1-0.1-0.3-0.1-0.5c0 0-0.9-0.4-1.7-1c-1-0.7-2.2-2.7-3-4.4m-0.3-8.8c-0.3 0-0.5-0.1-0.7-0.2c-0.3-0.1-0.5-0.3-0.7-0.4c-0.2-0.2-0.3-0.4-0.5-0.5c-0.1-0.2-0.3-0.4-0.4-0.7c-0.9-2 1-4.8 4.2-6.2c3.2-1.3 6.6-0.7 7.5 1.4c.6 1.3 .1 2.8-1.1 4.1" fill="none"/></g><g stroke="#8a3463" stroke-width="1.3"><path d="M12.4 149.2c0-0.1 0-0.2-0.1-0.2c0-0.1 0-0.2-0.1-0.3c0-0.1 0-0.2 0-0.3c0-0.1-0.1-0.1-0.1-0.2c-0.2-2.3 2.5-4.3 6-4.5c3.5-0.3 6.5 1.4 6.7 3.7c0 .6-0.1 1.2-0.4 1.7c1.4 2.3 14.2 3.4 15.4 4.5c.2 .2 .3 .4 .5 .6c.1 .2 .2 .4 .3 .6c.1 .2 .2 .4 .3 .6c.1 .3 .2 .5 .2 .7c.2 .8-0.9 3-1.6 3.5c-1.3 1.1-13.8 3.3-15 4.6c.1 .2 .1 .3 .1 .4c.6 2.2-1.4 4.7-4.4 5.6c-3 .8-5.9-0.3-6.5-2.5c0-0.1 0-0.3 0-0.4c0-0.1-0.1-0.3 0-0.4c0-0.1 0-0.3 0-0.4c0-0.1 0-0.3 .1-0.4c-0.4-0.6-0.8-1.3-1.2-2c-0.5-0.7-1-2.1-1.2-3.5c-0.1 .4-0.3 .6-0.5 .6c-0.7-0.2-1.4-1.8-1.8-3.4c-0.5-1.8 .1-3.4 .8-3.8c.1-0.1 .3 .1 .5 .6c.1-1.2 .6-2 1.4-3.2c.3-0.4 .4-1.5 .6-2.2Z" fill="url(#Gradient-10)"/><path d="M10.9 161.2c-0.7-0.2-1.4-1.8-1.8-3.4c-0.5-1.8 .1-3.4 .8-3.8m.7 2.8c-0.1-0.4-0.1-0.8-0.2-1.1c-0.2-1.8 .4-2.7 1.4-4.3c.4-0.6 .5-2 .9-2.1m1.5 4.3c-0.2 1.1-0.7 2.3-1 3.6m-0.7 .4c.1 .3 1.2 1.6 1.4 1.8c.4 .6 .8 1.3 1 2m-0.2-0.6c0 0-1.6-4.3-0.8-6.5" fill="none"/><path d="M21.2 161.9c1.7 .3 3.1 1.3 3.4 2.7c.6 2.2-1.4 4.7-4.4 5.6c-3 .8-5.9-0.3-6.5-2.5c-0.1-0.7-0.1-1.4 .2-2c0 0-0.7-0.7-1.3-1.6c-0.7-1-1.2-3.3-1.4-5.1m2.5-8.4c-0.2-0.1-0.4-0.3-0.6-0.5c-0.2-0.2-0.3-0.3-0.5-0.6c-0.1-0.2-0.2-0.4-0.3-0.6c-0.1-0.3-0.1-0.5-0.2-0.7c-0.2-2.3 2.5-4.3 6-4.5c3.5-0.3 6.5 1.4 6.7 3.7c.1 1.4-0.9 2.7-2.4 3.5" fill="none"/></g><g stroke="#8a3463"><path d="M27.3 82.4c0-0.4 0-0.8 .1-1.1c.8-2.2 4.1-3 7.4-1.8c3.4 1.2 5.5 4 4.7 6.2c-0.2 .5-0.5 1-1.1 1.4c.4 2.7 13.8 10.4 14.4 11.9c.4 .9 .4 2.1 .2 2.9c-0.1 .8-2.1 2.4-2.8 2.6c-1.8 .5-16.1-4-17.8-3.2c0 .1 0 .2 0 .4c-0.4 2.2-3.3 3.7-6.4 3.3c-3.1-0.4-5.4-2.6-5-4.9c.1-0.5 .3-1 .7-1.5c-0.1-0.6-0.2-1.5-0.3-2.3c-0.2-0.9 0-2.3 .3-3.7c-0.3 .3-0.5 .4-0.7 .3c-0.5-0.4-0.6-2.2-0.3-3.9c.3-1.9 1.5-3.1 2.3-3.2c.2 0 .2 .2 .2 .7c.6-1 1.4-1.6 2.6-2.3c.4-0.3 1-1.3 1.5-1.8Z" fill="url(#Gradient-11)" stroke-width="1.4"/><path d="M21 92.9c-0.5-0.4-0.6-2.2-0.3-3.9c.3-1.9 1.5-3.1 2.3-3.2m-0.5 2.9c.1-0.4 .2-0.8 .3-1.1c.5-1.8 1.4-2.4 3-3.4c.7-0.5 1.3-1.7 1.7-1.6m-0.3 4.5c-0.7 1-1.6 1.9-2.5 3m-0.8 .1c.1 .3 .5 2 .6 2.3c.2 .7 .2 1.5 .2 2.3m.1-0.7c-0.1 0 .2-4.6 1.9-6.4" fill="none" stroke-width="1.3"/><path d="M30.3 97.8c1.5 .9 2.4 2.4 2.1 3.9c-0.4 2.2-3.3 3.7-6.4 3.3c-3.1-0.4-5.4-2.6-5-4.9c.1-0.7 .5-1.3 1-1.8c0 0-0.4-0.9-0.6-2c-0.3-1.2 .2-3.5 .8-5.4m5.7-6.7c-0.1-0.2-0.3-0.5-0.3-0.7c-0.1-0.2-0.2-0.5-0.2-0.7c-0.1-0.3-0.1-0.5-0.1-0.8c0-0.2 .1-0.5 .2-0.7c.7-2.2 4-3 7.3-1.8c3.4 1.2 5.5 4 4.7 6.2c-0.4 1.3-1.9 2.1-3.7 2.3" fill="none" stroke-width="1.3"/></g><g stroke="#8a3463" stroke-width="1.3"><path d="M98.4 24.1c.2-0.3 .5-0.5 .7-0.8c1.9-1.3 5 0 7 2.8c2 2.9 2.1 6.3 .3 7.7c-0.2 0-0.3 .1-0.4 .2c-0.2 .1-0.3 .1-0.4 .2c-0.2 0-0.3 0-0.5 .1c-0.1 0-0.3 0-0.4 0c-1.3 2.4 4.5 14 4.1 15.5c-0.2 .9-0.9 1.9-1.5 2.5c-0.5 .5-3 .7-3.8 .4c-1.6-0.6-9.9-10.1-11.7-10.5l-0.3 .3c-1.6 1.6-4.8 1.2-7-0.9c-2.3-2.2-2.9-5.2-1.3-6.8c.4-0.4 .9-0.6 1.4-0.8c.4-0.6 .8-1.3 1.1-2c.2-0.3 .3-0.6 .5-0.8c.2-0.3 .4-0.5 .6-0.8c.2-0.2 .4-0.4 .6-0.6c.2-0.3 .5-0.5 .7-0.7c-0.4 .1-0.7 .1-0.7-0.1c-0.2-0.6 .8-2.1 1.9-3.3c1.4-1.3 3-1.6 3.7-1.3c.1 .1 0 .4-0.2 .7c1-0.5 2-0.4 3.4-0.4c.5 0 1.5-0.4 2.2-0.6Z" fill="url(#Gradient-12)"/><path d="M87.3 29c-0.1-0.6 .9-2.1 2-3.3c1.4-1.3 3-1.6 3.7-1.2m-2.1 2l.9-0.8c1.4-1.1 2.5-1 4.4-1c.8 .1 2-0.6 2.2-0.3m-2.8 3.5c-1.1 .4-2.4 .6-3.7 1m-0.7-0.4c-0.1 .3-0.7 1.9-0.8 2.1c-0.3 .7-0.7 1.4-1.2 2m.5-0.5c0 0 2.8-3.6 5.1-4" fill="none"/><path d="M92 38.2c.7 1.6 .6 3.3-0.5 4.3c-1.6 1.6-4.8 1.2-7-0.9c-2.3-2.2-2.9-5.2-1.3-6.8c.2-0.1 .3-0.2 .4-0.3c.2-0.1 .3-0.2 .5-0.3c.1-0.1 .3-0.1 .5-0.2c.1 0 .3-0.1 .5-0.1c0 0 .2-1 .6-1.9c.5-1.2 2.2-2.8 3.7-3.9m8.5-2.2c.1-1.1 .5-2 1.2-2.6c1.9-1.3 5 0 7 2.8c2 2.9 2.1 6.3 .3 7.7c-1.2 .8-2.8 .6-4.3-0.3" fill="none"/></g><g><g stroke="#8a3463" stroke-width="1.3"><path d="M189 285.6c-0.3 .2-0.6 .4-0.9 .6c-2.1 .8-4.8-1.2-6-4.5c-1.3-3.2-0.5-6.6 1.6-7.4c.1-0.1 .2-0.1 .4-0.2c.1 0 .3 0 .4 0c.2 0 .3 0 .5 0c.1 0 .3 0 .4 .1c1.9-2-0.9-14.7-0.1-16.1c.1-0.2 .2-0.4 .4-0.6c.1-0.2 .3-0.4 .5-0.5c.2-0.2 .3-0.4 .5-0.5c.2-0.1 .4-0.3 .6-0.4c.7-0.4 3.2 .1 3.8 .5c1.4 1 7.2 12.3 8.8 13c.1 0 .2-0.1 .3-0.2c2-1.1 4.9 .1 6.6 2.7c1.7 2.6 1.5 5.7-0.5 6.9c-0.4 .2-1 .4-1.5 .4c-0.5 .5-1 1.1-1.5 1.7c-0.6 .7-1.8 1.5-3.1 2.2c.4 0 .7 .1 .7 .3c.1 .6-1.3 1.8-2.7 2.7c-1.6 1-3.3 .8-3.9 .3c-0.1-0.1 .1-0.3 .4-0.6c-1.1 .2-2-0.1-3.4-0.4c-0.5-0.2-1.6-0.1-2.3 0Z" fill="url(#Gradient-13)"/><path d="M200.9 283.6c.1 .6-1.3 1.8-2.7 2.7c-1.6 1-3.3 .8-3.9 .3m2.5-1.5c-0.3 .2-0.7 .4-1 .5c-1.6 .8-2.7 .5-4.5-0.1c-0.7-0.2-2.1 .2-2.2-0.2m3.6-2.7c1.1-0.1 2.4 0 3.8-0.1m.6 .6c.1-0.2 1.1-1.7 1.3-1.9c.4-0.6 1-1.1 1.6-1.6m-0.6 .4c0 0-3.6 2.8-6 2.6" fill="none"/><path d="M198.7 273.5c-0.3-1.7 .2-3.3 1.5-4.1c2-1.1 4.9 .1 6.6 2.7c1.7 2.6 1.5 5.7-0.5 6.9c-0.5 .3-1.2 .5-2 .4c0 0-0.4 .9-1 1.7c-0.8 1-2.8 2.2-4.6 2.9m-8.7 0c-0.1 .2-0.2 .4-0.3 .7c-0.1 .2-0.3 .4-0.4 .6c-0.2 .2-0.4 .3-0.6 .5c-0.2 .1-0.4 .3-0.6 .4c-2.1 .8-4.8-1.2-6-4.5c-1.3-3.2-0.5-6.6 1.6-7.4c1.3-0.5 2.8 0 4.1 1.3" fill="none"/></g></g><g><g><path d="M94.6 66.5c-1.4-2.5 26.3-17.4 27.6-14.4c2.3 5.6-2.9 7.9-4.6 9.3c-2.5 1.9 0 9-3.7 11.1c-4.6 2.6-9.4-7.6-11.1-6.3c-2.1 1.5-6.8 2.9-8.2 .3Z" fill="url(#Gradient-14)" stroke="#784573" stroke-width="1.3"/><path d="M106.5 49.8c2-0.9 4.1-0.5 4.7 1c.6 1.6-0.7 3.6-2.7 4.5c-2.1 1-4.2 .5-4.8-1c-0.5-1.5 .7-3.5 2.8-4.5Z" fill="#8a3463"/><path d="M109.3 44.6c1.5 0 2.9 1.2 4.9 2.8c1.2 .9 4 .8 4.4 1.8c.1 .2 .1 .5 0 .8c.3 .1 .7 .2 1 .3c.3 .1 .6 .3 1 .5c.3 .1 .5 .3 .8 .5c.3 .3 .6 .5 .8 .8c1.1 1.3-0.2 3.7-2.6 5.7c-1.4 1.2-3.5 .9-4.7-0.3c-0.7 .8-2 1.4-4.2 1.6c-0.7 0-1.6 .8-2.6 1.2c-2.3 .9-4.7 1.4-6.4 1.4c.1 2.2-1.5 4.4-4.1 5.6c-2.4 1-4.6-0.8-4.8-3.4c0-0.6 .1-1.1 .2-1.7c.1-0.5 .3-1 .6-1.5c.2-0.5 .6-0.9 .9-1.3c.4-0.4 .8-0.8 1.3-1.1c.1-1.1 1.7-3.1 2.9-6.1c.6-1.4 2.1-2.7 3.7-3.6c-0.7-0.3-1.1-0.7-1.2-1.2c-0.2-1.6 1.3-3.8 3.1-5.1c2-1.6 4.4-0.4 5.4 1.1c.2 .3 0 .7-0.4 1.2Zm-2.7 7.1c-0.4 .9-0.8 1.8-1.1 2.6c-0.1 .4-0.3 .7-0.4 1c.3-0.2 .6-0.5 .9-0.8c.8-0.8 2.1-1.5 3.4-1.9c-0.5-0.2-1.1-0.4-1.6-0.5c-0.4-0.1-0.8-0.2-1.2-0.4Z" fill="#ef4661"/><path d="M102.3 48.5c-0.6-0.2-1-0.6-1.1-1.2c-0.2-1.5 1.3-3.7 3.1-5c2-1.6 4.4-0.5 5.4 1.1c.2 .3 0 .7-0.5 1.3" fill="none" stroke="#8a3463" stroke-width="1.3"/><path d="M106.5 45.7c.5-0.3 1-0.5 1.3-0.7c2.1-1 3.8 .3 6.4 2.4c1.2 .9 4 .8 4.4 1.8c.1 .2 .1 .4 0 .7m-9.1 2.7c-0.2-0.1-0.3-0.1-0.4-0.2c-0.2 0-0.3 0-0.5-0.1c-0.1 0-0.2-0.1-0.4-0.1c-0.1-0.1-0.3-0.1-0.4-0.1c-0.5-0.1-0.9-0.3-1.3-0.4m.3-1.2c-0.2 .5-1.2 3.4-1.3 3.8c-0.1 .3-0.2 .6-0.3 .8m-9.4 3.1c.2-1.1 1.7-3 2.9-6c.8-1.9 3.4-3.7 5.6-4.6" fill="none" stroke="#8a3463" stroke-width="1.3"/><path d="M102.5 57.1c.3-0.2 .7-0.4 .9-0.6c.3-0.2 .6-0.4 .9-0.6c.3-0.2 .6-0.4 .9-0.7c.2-0.2 .5-0.4 .8-0.7c2-1.9 6.6-3.2 8.7-2.2m0 0c.2-0.2 .3-0.4 .4-0.6c.2-0.2 .3-0.4 .5-0.6c.1-0.2 .3-0.4 .5-0.6c.2-0.1 .4-0.3 .6-0.4c1.2-0.8 4.6 .5 5.5 2c.9 1.4-0.8 3.8-2.6 5.7c-1.5 1.7-4.2 .8-5.2-1.1m-12.8 4.6c.4 2.3-1.2 4.7-4 6c-2.4 1-4.6-0.8-4.8-3.4c0-0.7 .1-1.3 .3-2c.1-0.6 .4-1.2 .8-1.7c.3-0.6 .8-1 1.3-1.4c.5-0.4 1.1-0.7 1.7-0.9" fill="none" stroke="#8a3463" stroke-width="1.3"/></g><g><path d="M112.7 257.7c-0.8 2.7-30.5-6.1-29.3-9.1c2.4-5.5 7.6-3.5 9.8-3.2c3 .3 6.8-8.9 10.8-7.8c5 1.4 .7 14.4 2.8 14.7c2.5 .3 6.8 2.6 5.9 5.4Z" fill="url(#Gradient-15)" stroke="#784573" stroke-width="1.4"/><path d="M92.8 261.1c-2.1-0.8-3.3-2.6-2.6-4c.6-1.4 2.9-2 5-1.2c2.1 .7 3.3 2.5 2.6 3.9c-0.7 1.5-2.9 2-5 1.3Z" fill="#8a3463"/><path d="M87.1 262.8c-1-1.1-1.2-2.9-1.5-5.4c-0.1-1.4-2.2-3.3-1.8-4.3c.2-0.2 .3-0.4 .6-0.5c-0.2-0.3-0.3-0.6-0.5-0.9c-0.1-0.4-0.2-0.7-0.3-1c-0.1-0.4-0.1-0.7-0.2-1c0-0.4 0-0.7 0-1.1c.2-1.6 2.7-2.4 5.9-2.2c1.8 .2 2.9 1.9 2.9 3.5c1.1-0.1 2.4 .4 4.1 1.8c.5 .5 1.7 .6 2.6 .9c2.3 1 4.3 2.3 5.5 3.6c1.5-1.7 4.1-2.1 6.8-1.1c2.4 .9 2.6 3.7 .9 5.7c-0.4 .4-0.8 .7-1.3 1c-0.5 .3-0.9 .5-1.5 .7c-0.5 .1-1 .2-1.6 .2c-0.5 0-1.1 0-1.6-0.1c-0.8 .7-3.3 1-6.3 2.2c-1.4 .6-3.3 .5-5.1 0c.3 .6 .3 1.2-0.1 1.7c-0.9 1.2-3.5 1.7-5.7 1.4c-2.5-0.3-3.3-2.8-2.9-4.5c.1-0.4 .5-0.5 1.1-0.6Zm6.9-3.2c.2 0 .4-0.1 .6-0.2c.2-0.1 .5-0.1 .7-0.2c.2-0.1 .4-0.2 .6-0.3c.2-0.1 .4-0.2 .7-0.2c.3-0.2 .7-0.4 1-0.5c-0.4 0-0.8 0-1.2 0c-1.2-0.1-2.5-0.5-3.8-1.1c.2 .5 .5 1 .8 1.5c.2 .4 .4 .7 .6 1Z" fill="#ef4661"/><path d="M94.7 264.9c.3 .6 .3 1.1-0.1 1.6c-0.9 1.2-3.5 1.7-5.7 1.4c-2.5-0.3-3.3-2.8-2.9-4.5c.1-0.4 .5-0.5 1.2-0.6" fill="none" stroke="#8a3463" stroke-width="1.3"/><path d="M89.8 263.9c-0.5-0.1-1-0.2-1.4-0.4c-2.2-0.7-2.4-2.8-2.8-6.1c-0.1-1.4-2.2-3.3-1.8-4.3c.2-0.2 .3-0.3 .5-0.5m8.3 4.5c.2 .5 .5 1 .8 1.5c.2 .4 .4 .8 .6 1.2m-1 .5c.4-0.1 3.2-1.5 3.6-1.6c.2-0.2 .5-0.3 .8-0.4m8.6 4.3c-0.9 .7-3.3 1-6.2 2.2c-1.9 .8-4.9 .3-7.1-0.7" fill="none" stroke="#8a3463" stroke-width="1.3"/><path d="M100.5 258.8c-1.3-0.3-2.8-0.6-4.1-0.6c-2.8-0.1-6.9-2.4-7.6-4.6m-0.1 0c-0.9 .3-2 .4-2.9 .2c-1.4-0.2-2.8-3.6-2.4-5.2c.4-1.6 3.2-2.1 5.9-2.2c2.1-0.1 3.3 2.4 2.8 4.4m12 5.7c1.5-1.9 4.2-2.5 7.1-1.4c2.4 .9 2.6 3.7 .9 5.7c-0.5 .4-1 .8-1.5 1.2c-0.6 .3-1.2 .5-1.8 .6c-0.7 .1-1.3 .2-1.9 .1c-0.7-0.1-1.3-0.3-1.9-0.6" fill="none" stroke="#8a3463" stroke-width="1.3"/></g><g><path d="M79.9 221c-2 1.9-22.3-19.4-19.9-21.2c4.5-3.5 7.8 .6 9.5 1.8c2.4 1.8 7.6-2.8 10.4 0c3.5 3.5-4 10.9-2.4 12.1c1.9 1.5 4.3 5.4 2.4 7.3Z" fill="url(#Gradient-16)" stroke="#784573" stroke-width="1.2"/><path d="M61.9 214.5c-1.4-1.6-1.5-3.6-0.3-4.5c1.2-0.9 3.3-0.3 4.7 1.3c1.4 1.6 1.5 3.6 .3 4.5c-1.2 .9-3.3 .3-4.7-1.3Z" fill="#8a3463"/><path d="M56.5 213.2c-0.4-1.3 .3-2.9 1.2-5.1c.5-1.3-0.3-3.8 .5-4.4c.2-0.1 .5-0.2 .7-0.2c0-0.3 .1-0.7 .1-1c0-0.3 .1-0.6 .2-0.9c0-0.4 .2-0.7 .3-1c.1-0.3 .3-0.6 .4-0.8c1-1.3 3.4-0.8 5.9 .9c1.4 .9 1.6 2.9 .8 4.2c1 .5 1.8 1.5 2.5 3.5c.3 .6 1.2 1.2 1.7 2c.4 .4 .7 .8 .9 1.2c.3 .5 .6 .9 .8 1.4c.3 .4 .5 .9 .7 1.4c.2 .5 .4 .9 .5 1.4c2-0.6 4.3 .2 6.1 2.3c1.6 1.9 .4 4.3-1.9 5.2c-1.9 .7-4.3 .1-5.7-1.3c-1.1 .2-3.2-0.7-6.3-1.1c-1.4-0.2-2.9-1.2-4.2-2.4c0 .6-0.3 1.1-0.8 1.4c-1.3 .6-3.7-0.3-5.3-1.5c-2-1.5-1.5-3.9-0.4-5.2c.3-0.2 .7-0.2 1.3 .1Zm7 .7c.9 .1 1.8 .3 2.6 .4c.4 0 .7 0 1.1 .1c-0.3-0.2-0.7-0.5-1-0.6c-0.3-0.2-0.5-0.4-0.8-0.6c-0.2-0.2-0.4-0.4-0.6-0.6c-0.3-0.2-0.5-0.5-0.7-0.7c-0.2-0.3-0.4-0.5-0.5-0.8c0 .6-0.1 1.1-0.1 1.6c.1 .4 0 .8 0 1.2Z" fill="#ef4661"/><path d="M61.7 218.6c0 .6-0.3 1.1-0.8 1.3c-1.3 .6-3.7-0.3-5.3-1.5c-2-1.5-1.5-3.9-0.4-5.2c.3-0.2 .7-0.2 1.3 .1" fill="none" stroke="#8a3463" stroke-width="1.3"/><path d="M58.1 215.4c-0.4-0.3-0.7-0.6-1-0.9c-1.4-1.7-0.6-3.5 .6-6.4c.5-1.3-0.3-3.8 .5-4.4c.2-0.1 .4-0.2 .7-0.2m4.7 7.6c-0.1 .5-0.1 1.1-0.1 1.6c0 .5 0 .9 0 1.3m-1.1 0c.4 0 3.3 .2 3.7 .2c.3 .1 .6 .1 .9 .1m5.1 7.7c-1.1 .2-3.2-0.8-6.2-1.1c-1.9-0.2-4.2-2.1-5.5-3.9" fill="none" stroke="#8a3463" stroke-width="1.3"/><path d="M69.4 216.2c-0.3-0.2-0.5-0.4-0.8-0.7c-0.2-0.2-0.5-0.4-0.8-0.6c-0.2-0.2-0.5-0.4-0.8-0.6c-0.2-0.2-0.5-0.4-0.8-0.6c-2.3-1.3-4.6-5.2-4.2-7.3m0 0c-0.9-0.2-1.8-0.6-2.5-1.2c-1-0.9-0.7-4.3 .4-5.5c1.1-1.1 3.7-0.2 5.9 1c1.8 .9 1.7 3.5 .3 4.9m7.3 10.4c2-0.9 4.5-0.1 6.4 2.1c1.6 1.9 .4 4.3-1.9 5.2c-0.6 .2-1.2 .3-1.8 .3c-0.6 0-1.2-0.1-1.8-0.3c-0.5-0.2-1.1-0.5-1.6-0.9c-0.5-0.4-0.9-0.8-1.2-1.3" fill="none" stroke="#8a3463" stroke-width="1.3"/></g><g><path d="M45.5 146.8c-2.8-0.6 3.5-31 6.6-30c5.6 1.9 4.1 7.3 4 9.5c-0.1 3.1 6.2 4.2 5.4 8.3c-0.9 5.1-11 3.7-11.1 5.8c-0.2 2.5-2.1 7-4.9 6.4Z" fill="url(#Gradient-17)" stroke="#784573" stroke-width="1.3"/><path d="M40.4 127.2c.6-2.2 2.3-3.5 3.8-2.9c1.5 .5 2.2 2.7 1.6 4.9c-0.5 2.1-2.2 3.4-3.7 2.9c-1.5-0.6-2.2-2.8-1.7-4.9Z" fill="#8a3463"/><path d="M38.3 121.7c.9-1.1 2.7-1.5 5.2-2c1.4-0.2 3.1-2.4 4.1-2.1c.2 .1 .4 .3 .6 .5c.3-0.2 .6-0.4 .9-0.5c.3-0.2 .6-0.3 .9-0.4c.4-0.1 .7-0.2 1-0.3c.4-0.1 .7-0.1 1-0.1c1.8 0 2.7 2.5 2.7 5.7c0 1.8-1.5 3.1-3.2 3.2c.2 1.1-0.1 2.4-1.4 4.2c-0.5 .6-0.4 1.8-0.8 2.7c-0.1 .5-0.3 1-0.5 1.5c-0.2 .5-0.5 1-0.7 1.5c-0.3 .5-0.6 .9-0.9 1.4c-0.3 .5-0.6 .9-0.9 1.3c1.7 1.4 2.4 3.9 1.6 6.7c-0.7 2.5-3.5 2.9-5.6 1.4c-0.4-0.4-0.8-0.7-1.1-1.2c-0.3-0.4-0.6-0.9-0.8-1.4c-0.2-0.5-0.3-1-0.4-1.6c0-0.5 0-1.1 .1-1.6c-0.9-0.8-1.3-3.2-2.8-6.1c-0.7-1.3-0.7-3.3-0.4-5.1c-0.6 .3-1.2 .4-1.7 .1c-1.3-0.8-2-3.4-1.9-5.6c.1-2.5 2.5-3.6 4.3-3.3c.4 .1 .5 .4 .7 1.1Zm3.7 6.5c.3 .9 .7 1.8 1.2 2.5c.2 .4 .3 .7 .5 1c0-0.4 0-0.8-0.1-1.2c0-1.1 .2-2.5 .8-3.8c-0.5 .3-1 .6-1.4 .9c-0.4 .2-0.7 .5-1 .6Z" fill="#ef4661"/><path d="M36.8 129.4c-0.5 .3-1.1 .4-1.6 .1c-1.3-0.8-2-3.4-1.9-5.6c.1-2.5 2.5-3.6 4.3-3.3c.4 .1 .6 .5 .7 1.2" fill="none" stroke="#8a3463" stroke-width="1.3"/><path d="M37.4 124.4c0-0.5 .1-1 .2-1.4c.6-2.2 2.6-2.6 5.9-3.2c1.4-0.3 3.1-2.5 4.1-2.2c.2 .1 .4 .3 .6 .5m-3.8 8.6c-0.5 .3-1 .6-1.5 .9c-0.3 .3-0.7 .5-1 .7m-0.7-1c.2 .5 1.7 3.1 2 3.4c.1 .3 .3 .6 .4 .8m-3.6 9c-0.8-0.8-1.2-3.2-2.7-6c-1-1.9-0.7-4.9 .1-7.2" fill="none" stroke="#8a3463" stroke-width="1.3"/><path d="M43.4 134.7c.2-1.3 .4-2.8 .2-4.2c-0.2-2.8 1.8-7 3.9-7.9m.1-0.1c-0.1-0.2-0.2-0.4-0.3-0.7c-0.1-0.2-0.1-0.4-0.2-0.7c0-0.2 0-0.5-0.1-0.7c0-0.3 0-0.5 .1-0.8c.1-1.4 3.3-3.1 4.9-2.8c1.7 .2 2.4 3 2.7 5.7c.3 2.1-2 3.5-4.1 3.1m-4.6 12.5c1.9 1.3 2.7 4 1.9 6.9c-0.7 2.5-3.5 2.9-5.6 1.4c-0.5-0.4-0.9-0.9-1.3-1.4c-0.3-0.5-0.6-1.1-0.8-1.7c-0.1-0.7-0.2-1.3-0.2-1.9c0-0.7 .2-1.3 .4-1.9" fill="none" stroke="#8a3463" stroke-width="1.3"/></g><g><path d="M68.3 112.9c-2.6-1.6 13.5-30.3 16.2-28.3c5.2 3.7 1.9 8.7 1.1 10.8c-1.1 3.1 2.9 6 .8 9.9c-2.6 4.9-10.3 .6-11.1 2.7c-0.9 2.5-4.3 6.4-7 4.9Z" fill="url(#Gradient-18)" stroke="#784573" stroke-width="1.3"/><path d="M69.4 91.4c1.3-2 3.4-2.8 4.8-1.8c1.3 1 1.4 3.5 .1 5.5c-1.3 2-3.4 2.8-4.8 1.8c-1.3-1.1-1.3-3.5-0.1-5.5Z" fill="#8a3463"/><path d="M69 85.1c1.3-0.8 3.2-0.6 5.9-0.3c1.5 .2 4-1.5 4.9-0.8c.2 .1 .3 .4 .4 .7c.4-0.1 .7-0.2 1.1-0.3c.3-0.1 .7-0.1 1.1-0.1c.3 0 .7 0 1.1 0c.3 .1 .7 .1 1 .2c1.7 .6 1.9 3.5 1 6.6c-0.6 1.9-2.7 2.7-4.3 2.3c-0.2 1.2-1 2.4-2.9 3.8c-0.6 .5-0.9 1.7-1.5 2.5c-0.4 .5-0.7 .9-1.1 1.4c-0.4 .4-0.8 .8-1.2 1.2c-0.4 .5-0.8 .8-1.3 1.2c-0.4 .4-0.9 .7-1.4 1c1.4 2 1.2 4.8-0.5 7.3c-1.4 2.3-4.4 1.9-6-0.3c-0.4-0.5-0.6-1-0.8-1.6c-0.2-0.5-0.3-1.1-0.4-1.7c0-0.5 0-1.1 .1-1.7c.2-0.6 .3-1.1 .6-1.6c-0.6-1.1-0.3-3.7-0.9-7.1c-0.2-1.6 .3-3.6 1.2-5.3c-0.7 .1-1.3 0-1.7-0.4c-1-1.3-0.9-4.1-0.1-6.3c.9-2.5 3.7-2.9 5.4-2c.3 .2 .4 .6 .3 1.3Zm1.6 7.8c.2 1 .3 2.1 .5 3c.1 .4 .1 .8 .2 1.1c.1-0.4 .2-0.8 .3-1.2c.1-0.3 .2-0.7 .4-1c.1-0.3 .2-0.6 .4-0.9c.2-0.4 .4-0.7 .5-0.9c.2-0.3 .5-0.6 .7-0.9c-0.6 .2-1.2 .3-1.7 .5c-0.5 .1-0.9 .2-1.2 .3Z" fill="#ef4661"/><path d="M65 92.5c-0.6 .1-1.2 0-1.6-0.4c-1.1-1.3-0.9-4.1-0.1-6.3c.9-2.5 3.7-2.8 5.3-2c.4 .2 .5 .7 .4 1.4" fill="none" stroke="#8a3463" stroke-width="1.3"/><path d="M67.2 87.6c.2-0.5 .5-1 .7-1.4c1.3-2 3.5-1.8 7-1.4c1.5 .2 4-1.5 4.9-0.8c.1 .1 .3 .3 .4 .6m-6.6 7.5c-0.6 .1-1.2 .3-1.7 .5c-0.5 .2-1 .3-1.4 .4m-0.3-1.2c0 .5 .8 3.6 .9 4.1c0 .3 .1 .6 .1 .9m-6.5 8c-0.5-1.1-0.2-3.7-0.8-7c-0.4-2.2 .9-5.2 2.4-7.2" fill="none" stroke="#8a3463" stroke-width="1.3"/><path d="M70 100c.2-0.4 .3-0.7 .5-1c.2-0.4 .3-0.7 .4-1.1c.2-0.3 .3-0.7 .4-1c.1-0.4 .2-0.8 .3-1.1c.7-2.9 4.1-6.6 6.5-6.9m0 0c-0.1-1.1 .1-2.2 .5-3.1c.6-1.4 4.4-2.1 5.9-1.3c1.6 .8 1.4 3.9 .9 6.6c-0.4 2.3-3.2 3-5.2 1.9m-8.6 11.2c1.6 1.9 1.5 4.9-0.3 7.6c-1.4 2.3-4.4 1.9-6-0.3c-0.4-0.6-0.7-1.2-0.9-1.9c-0.2-0.6-0.3-1.3-0.3-2c0-0.7 .2-1.3 .4-2c.2-0.6 .6-1.2 1-1.8" fill="none" stroke="#8a3463" stroke-width="1.3"/></g><g><g><path d="M154 63.6c-0.6-3 32.3-6.2 32.3-2.8c-0.1 3.4-4.5 5.5-6.8 5.5c-0.1 0-0.3 0-0.4 0c-0.2 0-0.3-0.1-0.5-0.1c-0.1 0-0.3-0.1-0.4-0.2c-0.1 0-0.3-0.1-0.4-0.2c-2.4 1.3-3.3 4.1-4.5 5.1c-0.7 .6-1.8 1-2.7 1.2c-0.7 .1-2.9-1.1-3.3-1.7c-0.4-0.5-0.8-1-1.2-1.4c-0.3-0.5-0.7-0.9-1.1-1.3c-0.4-0.5-0.8-0.9-1.2-1.3c-0.4-0.4-0.8-0.9-1.2-1.3l-0.4 .1c-2.3 .4-7.5 1.4-8.2-1.6Z" fill="url(#Gradient-19)" stroke="#784573" stroke-width="1.2"/><path d="M172.2 51.9c2.3-0.2 4.2 1.2 4.2 3c0 1.9-1.9 3.6-4.2 3.8c-2.3 .2-4.2-1.2-4.2-3.1c0-1.9 1.9-3.5 4.2-3.7Z" fill="#8a3463"/><path d="M176.8 47.4c1.4 .6 2.4 2.5 3.7 5c.8 1.5 3.6 2.6 3.6 3.9c0 .2-0.1 .5-0.3 .8c.3 .3 .6 .5 .8 .8c.3 .3 .5 .6 .8 .9c.2 .3 .4 .7 .6 1c.2 .4 .3 .7 .5 1.1c.5 1.9-1.6 4-4.6 5.2c-1.8 .7-3.6-0.6-4.3-2.3c-1 .6-2.4 .7-4.6-0.1c-0.7-0.2-1.9 .2-2.9 .2c-2.6 0-5-0.4-6.6-1.2c-0.8 2.5-3 4.2-6 4.4c-2.6 .2-4-2.8-3.3-5.7c.7-2.4 2.7-4.4 4.8-4.8c.5-1.2 2.7-2.6 5-5.4c1-1.3 2.9-2.1 4.8-2.5c-0.5-0.5-0.8-1.1-0.7-1.8c.3-1.8 2.6-3.5 4.8-4.2c2.5-0.9 4.3 1.4 4.7 3.5c.1 .4-0.2 .8-0.8 1.2Zm-5.1 6.6c-0.7 .8-1.4 1.5-2 2.3c-0.2 .4-0.5 .7-0.8 1c.4-0.2 .8-0.4 1.2-0.5c.3-0.2 .6-0.3 1-0.4c.3-0.1 .6-0.2 1-0.2c.3-0.1 .6-0.1 1-0.1c.3-0.1 .7 0 1 0c-0.5-0.4-0.9-0.9-1.4-1.2c-0.4-0.3-0.7-0.6-1-0.9Z" fill="#ef4661"/><path d="M168.7 48.7c-0.5-0.5-0.7-1.1-0.6-1.8c.3-1.8 2.6-3.5 4.8-4.2c2.5-0.9 4.3 1.4 4.7 3.5c.1 .4-0.3 .8-0.9 1.2" fill="none" stroke="#8a3463" stroke-width="1.3"/><path d="M173.8 47.4c.5-0.1 1-0.2 1.5-0.2c2.3-0.3 3.5 1.9 5.2 5.2c.8 1.5 3.6 2.6 3.6 3.9c0 .2-0.1 .5-0.3 .7m-9.7-0.9c-0.4-0.4-0.9-0.9-1.4-1.3c-0.4-0.3-0.8-0.6-1.1-0.9m.7-1.1c-0.3 .4-2.3 3.1-2.6 3.5c-0.2 .3-0.4 .5-0.6 .8m-10-0.6c.5-1.2 2.7-2.6 4.9-5.3c1.5-1.8 4.5-2.7 7-2.7" fill="none" stroke="#8a3463" stroke-width="1.3"/><path d="M165.9 58.1c1.4-0.3 2.9-0.7 4.2-1.3c2.6-1.3 7.5-0.7 9.1 1.2m.1 .1c.1-0.2 .3-0.4 .5-0.6c.2-0.1 .4-0.3 .7-0.4c.2-0.2 .4-0.3 .7-0.4c.2-0.1 .5-0.2 .7-0.3c1.4-0.4 4.2 2.6 4.6 4.5c.3 1.9-2.2 3.8-4.6 5.2c-2 1.1-4.2-0.9-4.6-3.5m-13.7-0.3c-0.6 2.7-2.9 4.6-6.1 4.8c-2.6 .2-4-2.8-3.3-5.7c.8-2.9 3.5-5.1 6-4.8" fill="none" stroke="#8a3463" stroke-width="1.3"/></g><g><path d="M204.7 251.1c1.1 2.9-29.5 14.8-30.4 11.5c-1.7-6.1 4-7.9 6-9c2.8-1.7 .7-10.3 4.7-12c5.1-2.1 9.2 9.9 11.2 8.8c2.3-1.3 7.4-2.1 8.5 .7Z" fill="url(#Gradient-20)" stroke="#784573" stroke-width="1.4"/><path d="M190.3 266.9c-2.2 .8-4.4 0-4.8-1.6c-0.4-1.6 1.1-3.6 3.4-4.3c2.2-0.7 4.4 0 4.8 1.6c.4 1.7-1.1 3.6-3.4 4.3Z" fill="#8a3463"/><path d="M186.7 272c-1.5-0.2-2.9-1.6-4.8-3.5c-1-1.1-4-1.4-4.3-2.4c0-0.3 0-0.6 .1-0.9c-0.3-0.1-0.6-0.2-1-0.4c-0.3-0.2-0.6-0.4-0.9-0.6c-0.3-0.2-0.6-0.5-0.8-0.7c-0.3-0.3-0.5-0.6-0.7-0.9c-1-1.5 .7-3.8 3.4-5.6c1.6-1.1 3.7-0.4 4.8 .9c.8-0.7 2.2-1.2 4.6-1.1c.7 .1 1.8-0.6 2.8-0.9c2.5-0.7 5.1-0.8 6.9-0.6c.1-2.3 2-4.4 4.9-5.3c2.6-0.8 4.6 1.4 4.5 4.1c-0.1 .6-0.2 1.2-0.4 1.7c-0.2 .5-0.4 1-0.8 1.5c-0.3 .5-0.7 .9-1.1 1.3c-0.5 .3-1 .6-1.5 .9c-0.2 1.2-2.1 3-3.8 5.9c-0.7 1.4-2.4 2.6-4.2 3.4c.6 .3 1 .8 1.1 1.4c0 1.6-1.9 3.7-3.9 4.9c-2.3 1.3-4.6-0.2-5.4-1.9c-0.2-0.3 0-0.7 .5-1.2Zm3.7-7.1c.5-0.8 1.1-1.6 1.5-2.5c.2-0.3 .3-0.7 .6-1c-0.4 .2-0.8 .5-1.1 .7c-0.3 .2-0.6 .4-0.9 .6c-0.3 .2-0.6 .3-0.9 .4c-0.4 .2-0.7 .3-1 .4c-0.3 .1-0.7 .2-1 .2c.5 .3 1 .5 1.6 .8c.4 .1 .8 .3 1.2 .4Z" fill="#ef4661"/><path d="M194.5 268.8c.6 .3 .9 .8 1 1.4c0 1.6-1.9 3.7-3.9 4.9c-2.3 1.3-4.6-0.2-5.4-1.9c-0.2-0.3 .1-0.8 .6-1.3" fill="none" stroke="#8a3463" stroke-width="1.3"/><path d="M189.7 271.2c-0.5 .2-1 .4-1.4 .6c-2.3 .8-3.9-0.8-6.4-3.3c-1-1.1-4-1.4-4.3-2.4c0-0.3 0-0.5 .1-0.8m9.8-1.6c.6 .3 1.1 .5 1.7 .8c.5 .1 .9 .3 1.3 .5m-0.5 1.2c.3-0.5 1.7-3.3 1.9-3.8c.1-0.3 .3-0.5 .4-0.8m10.1-2c-0.3 1.2-2.1 3-3.8 5.9c-1 1.9-3.9 3.4-6.3 4" fill="none" stroke="#8a3463" stroke-width="1.3"/><path d="M195.3 259.9c-0.4 .2-0.7 .3-1 .5c-0.4 .2-0.7 .3-1 .5c-0.3 .2-0.7 .4-1 .6c-0.3 .2-0.6 .4-0.9 .6c-2.3 1.8-7.3 2.5-9.3 1.2m-0.1 0c-0.1 .2-0.3 .4-0.5 .6c-0.1 .2-0.3 .4-0.5 .6c-0.2 .2-0.4 .3-0.6 .5c-0.2 .1-0.4 .3-0.7 .4c-1.3 .7-4.7-1.2-5.4-2.8c-0.8-1.5 1.3-3.8 3.4-5.6c1.8-1.5 4.4-0.3 5.3 1.8m13.7-3.1c0-2.5 1.9-4.8 5-5.7c2.6-0.8 4.6 1.4 4.5 4.1c-0.1 .7-0.2 1.4-0.5 2c-0.2 .6-0.6 1.2-1 1.7c-0.5 .5-1 .9-1.6 1.3c-0.6 .3-1.2 .6-1.9 .7" fill="none" stroke="#8a3463" stroke-width="1.3"/></g><g><path d="M161.7 240.6c.3 3-32.4 6.1-32.3 2.7c0-6.3 5.9-6.4 8.2-7c3.1-0.9 3.1-7.7 7.5-8.2c5.5-0.6 6.5 10 8.6 9.5c2.6-0.6 7.7-0.1 8 3Z" fill="url(#Gradient-21)" stroke="#784573" stroke-width="1.4"/><path d="M143.6 251.9c-2.4 .1-4.2-1.2-4.2-2.9c.1-1.7 2.1-3.1 4.4-3.2c2.4-0.1 4.3 1.2 4.2 2.8c-0.1 1.7-2 3.1-4.4 3.2Z" fill="#8a3463"/><path d="M138.8 255.7c-1.5-0.6-2.4-2.3-3.7-4.6c-0.7-1.4-3.5-2.4-3.5-3.5c0-0.3 .1-0.5 .3-0.8c-0.3-0.2-0.5-0.4-0.8-0.7c-0.3-0.2-0.5-0.5-0.7-0.8c-0.2-0.3-0.4-0.6-0.6-0.9c-0.2-0.3-0.4-0.7-0.5-1c-0.5-1.7 1.7-3.5 4.9-4.5c1.8-0.6 3.6 .6 4.3 2.2c1-0.5 2.5-0.6 4.7 .1c.7 .3 1.9-0.1 3-0.1c2.6 .1 5.1 .6 6.7 1.3c.8-2.2 3.2-3.7 6.2-3.7c2.8-0.1 4.1 2.6 3.2 5.2c-0.2 .5-0.4 1-0.8 1.5c-0.3 .4-0.7 .8-1.1 1.2c-0.5 .4-1 .7-1.5 .9c-0.5 .2-1.1 .4-1.6 .5c-0.6 1.1-2.9 2.3-5.3 4.7c-1.1 1.1-3.1 1.8-5 2c.5 .5 .8 1.1 .7 1.7c-0.5 1.6-2.8 3.1-5.1 3.6c-2.6 .7-4.4-1.3-4.7-3.2c-0.1-0.4 .3-0.7 .9-1.1Zm5.4-5.7c.7-0.7 1.5-1.4 2.1-2c.3-0.3 .6-0.6 .8-0.9c-0.4 .2-0.8 .3-1.2 .4c-1.1 .5-2.6 .6-4.1 .5c.5 .4 .9 .8 1.4 1.2c.3 .2 .7 .5 1 .8Z" fill="#ef4661"/><path d="M147.1 254.8c.4 .5 .7 1 .6 1.6c-0.5 1.5-2.8 3.1-5.1 3.6c-2.6 .7-4.4-1.4-4.7-3.2c-0.1-0.4 .3-0.7 .9-1.1" fill="none" stroke="#8a3463" stroke-width="1.3"/><path d="M141.8 255.8c-0.5 .1-1.1 .2-1.5 .2c-2.4 .1-3.5-1.8-5.2-4.9c-0.7-1.4-3.5-2.4-3.5-3.5c0-0.2 .1-0.5 .3-0.7m9.9 1.1c.4 .4 .9 .8 1.4 1.2c.4 .3 .7 .6 1.1 .8m-0.8 1c.4-0.3 2.5-2.7 2.8-3c.2-0.3 .4-0.5 .7-0.7m10.2 .8c-0.6 1-2.9 2.2-5.2 4.6c-1.6 1.6-4.7 2.2-7.2 2.2" fill="none" stroke="#8a3463" stroke-width="1.3"/><path d="M150.3 246.5c-1.5 .2-3 .5-4.4 1c-2.7 1.1-7.7 .4-9.3-1.4m0 0c-0.2 .2-0.4 .3-0.6 .5c-0.2 .1-0.5 .3-0.7 .4c-0.2 .1-0.5 .2-0.7 .3c-0.3 .1-0.5 .2-0.8 .2c-1.5 .3-4.2-2.4-4.5-4.1c-0.2-1.7 2.3-3.4 4.9-4.5c2.1-1 4.2 .9 4.5 3.2m14.1 .7c.7-2.4 3.1-4 6.3-4.1c2.8-0.1 4.1 2.6 3.2 5.2c-0.2 .6-0.5 1.2-0.9 1.7c-0.5 .5-1 1-1.5 1.4c-0.6 .3-1.2 .6-1.9 .8c-0.6 .2-1.3 .2-2 .2" fill="none" stroke="#8a3463" stroke-width="1.3"/></g><g><path d="M249.7 229.2c2.1 2.2-21.9 24.6-24 21.9c-3.8-5 .8-8.7 2.2-10.6c2-2.6-4-11-0.8-14.1c3.9-3.8 13 7.1 14.4 5.3c1.7-2.1 6.1-4.7 8.2-2.5Z" fill="url(#Gradient-22)" stroke="#784573" stroke-width="1.4"/><path d="M242.2 247.6c-1.7 1.5-4 1.9-5.2 .8c-1.1-1.2-0.6-3.3 1.2-4.8c1.7-1.5 4-1.8 5.1-0.7c1.1 1.1 .6 3.2-1.1 4.7Z" fill="#8a3463"/><path d="M241.2 253c-1.5 .5-3.4 0-6-0.7c-1.5-0.4-4.3 .7-5.1 0c-0.1-0.2-0.2-0.4-0.2-0.7c-0.4 0-0.8 .1-1.2 .1c-0.3 0-0.7-0.1-1.1-0.1c-0.4-0.1-0.7-0.1-1.1-0.2c-0.3-0.1-0.7-0.2-1.1-0.4c-1.5-0.8-1.1-3.2 .6-5.8c1-1.5 3.2-1.9 4.8-1.3c.5-0.9 1.5-1.9 3.8-2.8c.7-0.2 1.3-1.2 2.1-1.8c2.1-1.6 4.3-2.8 6.1-3.4c-1-1.9-0.2-4.2 2.1-6.2c2-1.7 4.9-0.8 6 1.3c.3 .5 .4 1 .5 1.5c0 .5 0 1-0.1 1.6c0 .5-0.2 1-0.5 1.4c-0.2 .5-0.5 .9-0.9 1.3c.4 1-0.5 3.2-0.7 6.2c-0.1 1.4-1.1 3-2.4 4.3c.7 0 1.4 .2 1.6 .7c.8 1.2 .1 3.6-1.2 5.4c-1.5 2-4.4 1.8-5.9 .8c-0.3-0.2-0.3-0.6-0.1-1.2Zm.1-6.9c.2-0.9 .3-1.8 .3-2.6c0-0.4 0-0.7 0-1.1c-0.2 .4-0.4 .7-0.6 1c-0.2 .3-0.4 .6-0.6 .9c-0.2 .2-0.4 .5-0.6 .7c-0.3 .2-0.5 .5-0.8 .7c-0.2 .2-0.5 .4-0.8 .6c.6 0 1.2-0.1 1.8-0.1c.5-0.1 .9-0.1 1.3-0.1Z" fill="#ef4661"/><path d="M246.9 247.3c.7 0 1.3 .2 1.6 .7c.7 1.2 0 3.6-1.3 5.4c-1.5 2-4.4 1.8-5.9 .8c-0.3-0.2-0.3-0.6 0-1.2" fill="none" stroke="#8a3463" stroke-width="1.3"/><path d="M243.6 251.2c-0.3 .4-0.7 .7-1 1c-1.8 1.6-3.9 1-7.4 .1c-1.5-0.4-4.3 .7-5.1 0c0-0.1 0-0.1-0.1-0.2c0 0 0-0.1-0.1-0.1c0-0.1 0-0.1 0-0.2c0 0 0-0.1 0-0.1m8.3-5.4c.1 0 .3 0 .4 0c.2 0 .3-0.1 .5-0.1c.2 0 .3 0 .5 0c.1 0 .3 0 .4-0.1c.6 0 1 0 1.5-0.1m.1 1.1c0-0.4 0-3.2 0-3.6c0-0.3 0-0.6 0-0.9m8.3-5.8c.3 1.1-0.6 3.2-0.7 6.2c-0.1 1.9-2 4.3-4 5.8" fill="none" stroke="#8a3463" stroke-width="1.3"/><path d="M243.6 240.1c-0.3 .3-0.5 .5-0.7 .8c-0.3 .3-0.5 .5-0.7 .8c-0.2 .3-0.4 .6-0.6 .9c-0.2 .3-0.4 .5-0.6 .8c-1.3 2.4-5.6 5-8.1 4.9m0 0c0 .2-0.1 .4-0.1 .7c-0.1 .2-0.2 .4-0.3 .6c-0.1 .3-0.2 .5-0.3 .7c-0.1 .2-0.3 .4-0.4 .6c-1 1.1-4.9 1.1-6.3 .1c-1.4-0.9-0.6-3.5 .5-5.8c1-1.9 3.9-2 5.7-0.8m11.2-8.2c-1.1-1.9-0.4-4.4 2-6.5c2-1.7 4.9-0.8 6 1.3c1.2 2.2 .3 5.1-1.9 6.5" fill="none" stroke="#8a3463" stroke-width="1.3"/></g><g><path d="M210.1 55.6c1.5-2.7 30.4 12.9 28.5 15.7c-3.6 5.2-8.6 2-10.7 1.3c-3.2-1-8.3 6.2-12.2 4.2c-5-2.5 1.5-13.5-0.6-14.3c-2.5-0.9-6.4-4.2-5-6.9Z" fill="url(#Gradient-23)" stroke="#784573" stroke-width="1.4"/><path d="M231.5 56.3c2 1.2 2.8 3.3 1.8 4.7c-1 1.4-3.4 1.5-5.4 .2c-2-1.2-2.9-3.3-1.9-4.7c1-1.3 3.5-1.4 5.5-0.2Z" fill="#8a3463"/><path d="M237.6 55.7c.9 1.3 .7 3.3 .5 5.9c-0.1 1.6 1.6 4 1 4.9c-0.2 .2-0.4 .3-0.7 .4c.5 1.4 .6 3.3 .2 4.4c-0.5 1.7-3.3 1.9-6.5 1c-1.8-0.5-2.7-2.5-2.4-4.2c-1.1-0.2-2.4-0.9-3.8-2.8c-0.5-0.6-1.7-0.9-2.5-1.5c-0.5-0.3-1-0.7-1.4-1c-0.5-0.4-0.9-0.8-1.3-1.2c-0.4-0.4-0.8-0.8-1.2-1.3c-0.4-0.4-0.7-0.9-1-1.3c-1.9 1.3-4.7 1.3-7.3-0.4c-2.3-1.4-1.9-4.4 .2-6.1c.5-0.3 1-0.6 1.5-0.8c.6-0.2 1.1-0.3 1.7-0.4c.6 0 1.1 0 1.7 .1c.6 .1 1.1 .3 1.6 .5c1.1-0.6 3.7-0.3 7-1c1.6-0.3 3.6 .2 5.3 1.1c-0.1-0.7 0-1.3 .4-1.7c1.2-1.1 4-1 6.2-0.3c2.6 .9 2.9 3.6 2.1 5.4c-0.1 .3-0.6 .4-1.3 .3Zm-7.7 1.8c-0.9 .2-2 .3-2.8 .5c-0.4 .1-0.8 .2-1.2 .2c.4 .2 .8 .3 1.2 .4c1.2 .2 2.5 .9 3.7 1.9c-0.1-0.6-0.3-1.2-0.5-1.7c-0.1-0.5-0.3-0.9-0.4-1.2Z" fill="#ef4661"/><path d="M230.2 51.9c-0.1-0.6 0-1.2 .4-1.6c1.2-1.1 4-1 6.2-0.3c2.6 .9 2.9 3.6 2.1 5.4c-0.1 .3-0.6 .4-1.3 .3" fill="none" stroke="#8a3463" stroke-width="1.3"/><path d="M235.1 54c.5 .2 1 .5 1.4 .7c2.1 1.2 1.9 3.4 1.6 6.9c-0.1 1.6 1.6 4 1 4.9c-0.2 .2-0.4 .3-0.6 .4m-7.7-6.4c-0.1-0.6-0.3-1.2-0.5-1.8c-0.2-0.4-0.3-0.9-0.4-1.3m1.2-0.4c-0.5 .1-3.6 .9-4 1c-0.1 0-0.2 .1-0.3 .1c-0.1 0-0.1 0-0.2 0c-0.1 .1-0.2 .1-0.2 .1c-0.1 0-0.2 0-0.3 0m-8.1-6.3c1.1-0.6 3.7-0.3 6.9-1c2.2-0.4 5.2 .8 7.3 2.2" fill="none" stroke="#8a3463" stroke-width="1.3"/><path d="M222.9 57.1c.4 .1 .7 .3 1 .4c.4 .2 .7 .3 1.1 .4c.3 .2 .7 .3 1.1 .4c.3 .1 .7 .2 1 .3c2.9 .6 6.7 3.9 7 6.3m0 .1c.3-0.1 .5-0.1 .8-0.1c.2 0 .5 0 .8 0c.2 .1 .5 .1 .7 .2c.3 .1 .6 .1 .8 .2c1.4 .6 2.2 4.4 1.4 6c-0.7 1.5-3.7 1.5-6.5 1c-2.3-0.3-3-3.1-2-5.2m-11.3-8.4c-1.9 1.6-4.9 1.6-7.6 0c-2.3-1.5-1.9-4.5 .2-6.1c.6-0.5 1.2-0.8 1.8-1c.7-0.2 1.3-0.3 2-0.3c.7 0 1.4 .1 2 .4c.6 .2 1.2 .5 1.8 .9" fill="none" stroke="#8a3463" stroke-width="1.3"/></g><g><path d="M268.7 123.1c3-0.2 5.2 32.6 1.9 32.4c-6.4-0.2-6.3-6.1-6.9-8.3c-0.8-3.2-9.6-3.8-10-8.2c-0.5-5.4 12.3-5.8 11.8-7.9c-0.6-2.7 .1-7.8 3.2-8Z" fill="url(#Gradient-24)" stroke="#784573" stroke-width="1.4"/><path d="M279.5 141.6c0 2.3-1.3 4.2-3 4c-1.7-0.1-3.1-2.1-3.1-4.5c-0.1-2.3 1.3-4.2 3-4c1.6 .1 3 2.1 3.1 4.5Z" fill="#8a3463"/><path d="M283.2 146.5c-0.6 1.4-2.3 2.3-4.7 3.5c-1.4 .7-2.5 3.5-3.6 3.4c-0.3 0-0.5-0.2-0.8-0.3c-0.2 .2-0.4 .5-0.7 .8c-0.3 .2-0.6 .5-0.9 .7c-0.3 .2-0.6 .4-0.9 .6c-0.3 .1-0.6 .3-1 .4c-1.7 .4-3.5-1.8-4.4-5c-0.5-1.8 .7-3.6 2.3-4.3c-0.4-1-0.5-2.5 .3-4.7c.3-0.7-0.1-1.9 0-2.9c.2-2.7 .7-5.1 1.5-6.8c-2.2-0.8-3.6-3.2-3.6-6.3c0-2.7 2.7-4 5.3-3c.5 .2 1 .5 1.5 .8c.4 .4 .8 .8 1.2 1.2c.3 .5 .6 1 .8 1.5c.2 .6 .4 1.1 .5 1.7c1 .5 2.2 2.9 4.5 5.4c1.1 1.1 1.7 3.1 1.9 5c.5-0.5 1.1-0.8 1.7-0.6c1.6 .5 3 2.9 3.5 5.1c.6 2.6-1.5 4.4-3.4 4.7c-0.4 0-0.7-0.3-1-0.9Zm-5.6-5.6c-0.2-0.2-0.3-0.4-0.5-0.6c-0.1-0.1-0.3-0.3-0.5-0.5c-0.1-0.2-0.3-0.4-0.5-0.5c-0.1-0.2-0.3-0.4-0.5-0.6c-0.3-0.3-0.5-0.6-0.8-0.8c.1 .4 .3 .8 .4 1.2c.4 1.1 .5 2.6 .4 4.1c.4-0.4 .8-0.9 1.2-1.3c.3-0.4 .5-0.7 .8-1Z" fill="#ef4661"/><path d="M282.5 138.2c.5-0.5 1-0.7 1.6-0.6c1.6 .5 3 2.9 3.5 5.1c.6 2.6-1.5 4.4-3.4 4.7c-0.4 0-0.7-0.3-1-1" fill="none" stroke="#8a3463" stroke-width="1.3"/><path d="M283.4 143.4c0 .6 .1 1.1 .1 1.6c.1 2.4-1.9 3.4-5 5c-1.4 .7-2.5 3.5-3.6 3.4c-0.1 0-0.2 0-0.2 0c-0.1-0.1-0.1-0.1-0.2-0.1c0 0-0.1 0-0.2-0.1c0 0-0.1-0.1-0.1-0.1m1.4-9.9c.4-0.4 .8-0.8 1.2-1.3c.3-0.4 .6-0.8 .9-1.1m.9 .8c-0.3-0.4-2.6-2.6-3-2.9c0 0-0.1-0.1-0.1-0.1c-0.1-0.1-0.1-0.2-0.2-0.2c0-0.1-0.1-0.1-0.2-0.2c0 0-0.1-0.1-0.1-0.2m1.1-10.2c1 .7 2.2 2.9 4.4 5.3c1.6 1.6 2.1 4.8 2 7.3" fill="none" stroke="#8a3463" stroke-width="1.3"/><path d="M274.3 134.7c.2 1.5 .4 3 .9 4.4c1 2.8 .2 7.7-1.6 9.2m-0.1 .1c.2 .2 .4 .4 .5 .6c.1 .2 .3 .5 .4 .7c.1 .2 .2 .5 .3 .7c0 .3 .1 .5 .2 .8c.2 1.5-2.6 4.2-4.3 4.4c-1.7 .2-3.3-2.4-4.4-5c-0.9-2.1 1.1-4.2 3.4-4.5m1.1-14c-2.4-0.7-4-3.2-4-6.5c0-2.7 2.7-4 5.3-3c.6 .2 1.2 .6 1.7 1c.5 .4 1 1 1.3 1.5c.4 .6 .6 1.2 .8 1.9c.2 .7 .2 1.3 .1 2" fill="none" stroke="#8a3463" stroke-width="1.3"/></g><g><path d="M266.7 163.8c2.8 1.1-8.5 31.9-11.5 30.4c-5.7-2.8-3.3-8.2-2.8-10.4c.6-3.3-7.3-7.3-5.9-11.5c1.8-5.2 13.6-0.3 14-2.5c.6-2.7 3.3-7 6.2-6Z" fill="url(#Gradient-25)" stroke="#784573" stroke-width="1.4"/><path d="M269 185.1c-0.9 2.1-2.9 3.3-4.4 2.5c-1.5-0.8-1.9-3.2-1-5.4c1-2.2 2.9-3.3 4.4-2.5c1.5 .8 1.9 3.2 1 5.4Z" fill="#8a3463"/><path d="M270.4 191.1c-1.1 1-3.1 1.1-5.7 1.3c-1.6 .1-3.8 2.1-4.7 1.6c-0.2-0.1-0.4-0.3-0.6-0.6c-0.3 .2-0.6 .3-1 .4c-0.3 .2-0.7 .3-1 .3c-0.4 .1-0.7 .2-1.1 .2c-0.4 0-0.7 0-1.1 0c-1.8-0.3-2.4-3.1-2-6.4c.3-1.8 2.2-3 3.9-2.9c0-1.1 .5-2.5 2.2-4.2c.5-0.5 .7-1.8 1.2-2.7c.2-0.5 .5-1 .8-1.5c.3-0.5 .6-1 .9-1.5c.4-0.4 .8-0.9 1.1-1.3c.4-0.4 .8-0.9 1.2-1.3c-1.6-1.6-1.9-4.4-0.7-7.2c1.1-2.5 4.2-2.5 6.1-0.6c.4 .4 .7 .9 1 1.4c.3 .5 .5 1 .6 1.6c.2 .5 .2 1.1 .2 1.7c0 .5-0.1 1.1-0.3 1.7c.8 .9 .9 3.5 2 6.7c.5 1.5 .3 3.6-0.3 5.4c.6-0.2 1.3-0.2 1.8 .2c1.2 1 1.5 3.8 1.1 6.1c-0.5 2.6-3.2 3.4-5 2.8c-0.4-0.1-0.5-0.5-0.6-1.2Zm-2.8-7.4c-0.3-0.9-0.6-1.9-0.9-2.8c-0.1-0.1-0.1-0.2-0.1-0.2c-0.1-0.1-0.1-0.2-0.1-0.3c-0.1-0.1-0.1-0.2-0.1-0.3c-0.1-0.1-0.1-0.2-0.1-0.3c-0.1 .4-0.1 .9-0.2 1.3c0 .3-0.1 .7-0.1 1c-0.1 .4-0.2 .7-0.3 1c-0.1 .4-0.3 .7-0.4 1c-0.2 .3-0.3 .6-0.5 .9c.5-0.2 1.1-0.5 1.6-0.7c.4-0.2 .8-0.4 1.2-0.6Z" fill="#ef4661"/><path d="M273.2 183.2c.6-0.2 1.2-0.2 1.7 .2c1.2 1 1.5 3.8 1.1 6.1c-0.5 2.6-3.2 3.4-5 2.8c-0.4-0.1-0.5-0.5-0.6-1.3" fill="none" stroke="#8a3463" stroke-width="1.3"/><path d="M271.8 188.4c-0.1 .5-0.3 1-0.5 1.4c-0.9 2.3-3.1 2.4-6.6 2.6c-1.6 .1-3.8 2.1-4.7 1.6c-0.2-0.1-0.4-0.3-0.5-0.5m5.2-8.5c.2 0 .3-0.1 .5-0.1c.1-0.1 .3-0.2 .4-0.2c.1-0.1 .3-0.2 .4-0.2c.1-0.1 .3-0.2 .4-0.2c.5-0.3 .9-0.5 1.3-0.6m.5 1.1c-0.1-0.5-1.4-3.4-1.5-3.9c-0.1 0-0.1-0.1-0.1-0.2c0-0.1-0.1-0.1-0.1-0.2c0-0.1-0.1-0.2-0.1-0.2c0-0.1 0-0.2 0-0.3m5.1-8.9c.7 1 .8 3.6 1.9 6.7c.7 2.1 0 5.3-1.2 7.5" fill="none" stroke="#8a3463" stroke-width="1.3"/><path d="M267.1 176.7c-0.4 1.4-0.9 2.9-1 4.4c-0.2 2.9-2.9 7.1-5.2 7.8m-0.1 0c.1 .2 .1 .5 .2 .8c0 .2 0 .5 0 .7c0 .3 0 .6 0 .8c0 .3-0.1 .5-0.1 .8c-0.4 1.5-4 2.8-5.7 2.3c-1.7-0.5-2-3.6-2-6.4c.1-2.3 2.7-3.4 4.9-2.7m6.7-12.4c-1.8-1.6-2.3-4.5-1-7.5c1.1-2.5 4.2-2.5 6.1-0.6c.5 .5 .9 1 1.2 1.6c.3 .6 .5 1.3 .6 2c0 .6 0 1.3-0.1 2c-0.1 .7-0.4 1.3-0.7 1.9" fill="none" stroke="#8a3463" stroke-width="1.3"/></g><g><path d="M225.5 93.5c2.9-0.8 8 31.8 4.6 32c-3.4 .1-5.7-4.2-5.9-6.5c0-0.6 .1-1.2 .4-1.7c-1.4-2.4-4.2-3.1-5.4-4.2c-0.1-0.2-0.3-0.4-0.4-0.6c-0.1-0.2-0.3-0.4-0.4-0.7c-0.1-0.2-0.2-0.4-0.3-0.6c0-0.3-0.1-0.5-0.2-0.7c-0.1-0.8 1-3 1.6-3.5c.4-0.4 .9-0.8 1.3-1.2c.4-0.4 .8-0.8 1.3-1.2c.4-0.4 .8-0.8 1.2-1.3c.4-0.4 .8-0.8 1.2-1.3c-0.1 0-0.1 0-0.1-0.1c0 0 0 0 0 0c0-0.1 0-0.1 0-0.1c-0.1-0.1-0.1-0.1-0.1-0.1c-0.5-2.3-1.7-7.5 1.2-8.2Z" fill="url(#Gradient-26)" stroke="#784573" stroke-width="1.2"/><path d="M238.2 111c.3 2.2-0.9 4.2-2.8 4.3c-1.9 .1-3.7-1.7-4-4c-0.3-2.3 1-4.2 2.9-4.3c1.8-0.1 3.6 1.7 3.9 4Z" fill="#8a3463"/><path d="M243 115.2c-0.6 1.5-2.4 2.6-4.9 4.1c-1.4 .8-2.4 3.7-3.6 3.7c-0.3 0-0.6-0.1-0.9-0.2c-0.2 .3-0.5 .6-0.7 .9c-0.3 .3-0.6 .5-0.9 .8c-0.3 .2-0.6 .4-0.9 .6c-0.4 .2-0.7 .4-1.1 .6c-1.9 .6-4.1-1.3-5.4-4.3c-0.8-1.7 .3-3.6 2.1-4.4c-0.7-1-0.9-2.4-0.3-4.6c.2-0.8-0.3-1.9-0.3-2.9c-0.2-2.6 .1-5 .8-6.7c-2.5-0.6-4.3-2.7-4.7-5.7c-0.3-2.6 2.6-4.2 5.5-3.6c2.5 .5 4.5 2.4 5 4.6c1.3 .4 2.9 2.5 5.8 4.6c1.3 1 2.2 2.8 2.7 4.7c.5-0.6 1.1-0.9 1.7-0.8c1.8 .2 3.7 2.4 4.6 4.5c.9 2.4-1.2 4.4-3.3 4.9c-0.4 .1-0.8-0.2-1.2-0.7Zm-6.9-4.6c-0.8-0.7-1.6-1.4-2.4-1.9c-0.1-0.1-0.2-0.1-0.3-0.2c-0.1 0-0.2-0.1-0.3-0.2c0 0-0.1-0.1-0.2-0.1c-0.1-0.1-0.2-0.2-0.2-0.2c.1 .4 .3 .7 .5 1.1c.6 1 .9 2.5 .9 4c.4-0.5 .8-1 1.2-1.5c.3-0.4 .5-0.7 .8-1Z" fill="#ef4661"/><path d="M241.2 107.3c.5-0.5 1.1-0.8 1.7-0.7c1.8 .2 3.7 2.4 4.6 4.5c.9 2.4-1.2 4.4-3.3 4.9c-0.4 .1-0.8-0.2-1.3-0.8" fill="none" stroke="#8a3463" stroke-width="1.3"/><path d="M242.8 112.3c.1 .5 .2 1 .3 1.5c.4 2.3-1.7 3.5-5 5.5c-1.4 .8-2.4 3.7-3.6 3.7c-0.1 0-0.1 0-0.2 0c-0.1 0-0.1 0-0.2 0c-0.1-0.1-0.1-0.1-0.2-0.1c-0.1 0-0.1-0.1-0.2-0.1m.4-9.7c.4-0.5 .8-1 1.2-1.5c.3-0.4 .6-0.8 .9-1.1m1.1 .6c-0.4-0.3-3.2-2.1-3.7-2.4c0 0-0.1-0.1-0.2-0.1c0-0.1-0.1-0.1-0.2-0.2c0 0-0.1-0.1-0.2-0.1c0-0.1-0.1-0.1-0.2-0.2m0-10c1.3 .5 2.8 2.5 5.6 4.6c1.9 1.3 2.9 4.4 3.1 6.8" fill="none" stroke="#8a3463" stroke-width="1.3"/><path d="M231.7 105c.4 1.4 .8 2.8 1.5 4.1c1.5 2.5 1.1 7.5-0.7 9.2m-0.1 0c.2 .2 .4 .4 .6 .6c.2 .1 .3 .4 .5 .6c.2 .2 .3 .4 .4 .7c.1 .2 .2 .4 .3 .7c.5 1.4-2.3 4.3-4.2 4.8c-1.9 .4-3.9-1.9-5.4-4.3c-1.3-2 .7-4.3 3.1-4.8m-0.3-13.7c-2.8-0.4-4.8-2.6-5.2-5.8c-0.3-2.6 2.6-4.2 5.5-3.6c2.9 .6 5.3 3.2 5.2 5.8" fill="none" stroke="#8a3463" stroke-width="1.3"/></g></g></g><g><path d="M121.5 105.4c1.1-2.2 3.6-3 5.6-2c2 1.1 2.7 3.6 1.5 5.7c-1.1 2.2-3.6 3-5.6 2c-2-1.1-2.7-3.6-1.5-5.7Z" fill="#8a3463"/><path d="M116.2 106.6c-0.8 .2-1.7 .1-2.3-0.3c-1.7-1.3-2.2-4.3-1.8-6.6c.6-2.6 4-3 6.4-2.2c.5 .2 .7 .6 .8 1.4c1.5-0.9 4-0.8 7.5-0.5c2 .2 4.7-1.7 6-1c.2 .1 .5 .3 .6 .6c.4-0.2 .7-0.3 1.1-0.4c.4-0.1 .7-0.2 1.1-0.3c.4 0 .8-0.1 1.1-0.1c.4 0 .8 0 1.2 0c1.8 .4 2.4 3.1 1.7 6.3c-0.3 1.4-1.5 2.3-2.8 2.7c.6 1.4 .3 3.1-2.4 5c-0.7 .5-0.9 1.8-1.4 2.7c-1.6 2.4-3.7 4.4-5.5 5.4c.6 1.4 .3 3.3-0.8 5.2c-1.5 2.3-4.7 2.5-6.7 .8c-0.4-0.3-0.7-0.7-1-1.2c-0.2-0.5-0.4-1-0.5-1.5c-0.1-0.5-0.1-1.1 0-1.6c0-0.5 .2-1 .4-1.5c-1-1.1-1.2-3.8-2.9-7.3c-0.7-1.6-0.5-3.7 .2-5.6Zm7.2 .4c.4 1 .8 2.1 1.3 3c.2 .4 .4 .8 .5 1.2c.1-0.4 .2-0.9 .2-1.3c0-0.3 .1-0.7 .2-1c.1-0.4 .2-0.7 .3-1c.1-0.4 .3-0.7 .5-1c.1-0.3 .3-0.6 .5-0.9c-0.7 .2-1.4 .4-2 .6c-0.5 .1-1 .3-1.5 .4Z" fill="#ef4661"/><path d="M116.1 106.7c-0.8 .1-1.6 0-2.2-0.5c-1.7-1.2-2.2-4.2-1.8-6.5c.6-2.6 4-3 6.4-2.2c.5 .2 .7 .6 .8 1.4" fill="none" stroke="#8a3463" stroke-width="1.3"/><path d="M117.6 101.5c.2-0.5 .4-1 .6-1.4c1.1-2.2 4-2 8.6-1.7c2 .2 4.7-1.7 6-1c.2 .1 .4 .3 .6 .5m-6.5 8.2c-0.7 .1-1.4 .3-2 .5c-0.5 .1-1 .3-1.5 .4m-0.9-1.2c.2 .5 2.4 4.4 2.7 4.9m-6.3 8.8c-1-1.2-1.2-3.9-2.8-7.3c-1.1-2.3-0.3-5.4 1.1-7.6m19.7 1.8c.4 1.4 0 3-2.5 4.8c-0.7 .5-0.9 1.8-1.4 2.7c-1.6 2.4-3.6 4.3-5.4 5.3" fill="none" stroke="#8a3463" stroke-width="1.3"/><path d="M124.4 114.3c.5-1.4 .9-2.9 1-4.4c.1-2.9 3.3-6.7 6.3-7.2l-0.1-0.3c0-0.2-0.1-0.5-0.1-0.7c0-0.3 0-0.5 0-0.8c0-0.3 0-0.5 0-0.8c.1-0.2 .2-0.5 .2-0.7c.5-1.4 4.4-2.7 6.2-2.2c1.7 .6 1.9 3.5 1.7 6.3c-0.2 2.3-3.1 3.3-5.3 2.6m-8 11.5c1.9 1.5 2.1 4.1 .4 6.9c-1.5 2.3-4.7 2.5-6.7 .8c-1.9-1.6-2.1-4.7-0.4-6.8" fill="none" stroke="#8a3463" stroke-width="1.3"/></g><g><path d="M77.7 162.9c.3-2.4 2.4-4.1 4.6-3.8c2.2 .2 3.8 2.4 3.5 4.8c-0.3 2.3-2.3 4.1-4.5 3.8c-2.3-0.3-3.8-2.4-3.5-4.8Z" fill="#8a3463"/><path d="M73.3 166c-0.7 .5-1.5 .7-2.3 .4c-2-0.6-3.6-3.1-4-5.4c-0.4-2.7 2.6-4.3 5.2-4.4c.5 0 .8 .4 1.2 1c1.1-1.4 3.5-2.1 6.8-3.1c1.9-0.6 3.8-3.3 5.3-3.1c.3 0 .5 .2 .8 .3c.2-0.3 .5-0.5 .8-0.7c.3-0.3 .6-0.5 1-0.7c.3-0.2 .6-0.3 1-0.5c.3-0.1 .7-0.3 1-0.4c1.9-0.3 3.4 2 3.9 5.3c.2 1.3-0.6 2.6-1.7 3.5c1.1 1.1 1.4 2.8-0.4 5.6c-0.4 .6-0.1 1.9-0.4 2.9c-0.6 2.9-1.8 5.4-3.1 7c1 1.1 1.5 3 1.1 5.2c-0.5 2.7-3.5 4-5.9 3.1c-0.5-0.1-1-0.4-1.4-0.8c-0.4-0.3-0.8-0.7-1-1.1c-0.3-0.5-0.5-1-0.6-1.5c-0.1-0.5-0.2-1.1-0.1-1.6c-1.4-0.7-2.6-3.1-5.3-5.8c-1.3-1.2-1.9-3.2-1.9-5.2Zm6.8-2.3c.8 .8 1.5 1.7 2.4 2.4c.3 .3 .6 .6 .9 .9c-0.1-0.4-0.2-0.8-0.3-1.3c-0.4-1.1-0.4-2.7 0-4.1c-0.6 .4-1.2 .8-1.7 1.2c-0.5 .3-0.9 .6-1.3 .9Z" fill="#ef4661"/><path d="M73.3 166c-0.8 .5-1.5 .7-2.3 .4c-2-0.6-3.6-3.1-4-5.4c-0.4-2.7 2.6-4.3 5.2-4.4c.5 0 .8 .4 1.2 1" fill="none" stroke="#8a3463" stroke-width="1.3"/><path d="M72.8 160.7c0-0.6 0-1.1 0-1.6c.3-2.4 3-3.3 7.4-4.6c1.9-0.6 3.8-3.3 5.3-3.1c.2 0 .5 .1 .7 .3m-3.1 9.9c-0.6 .4-1.2 .8-1.7 1.2c-0.5 .3-0.9 .6-1.3 .9m-1.3-0.8c.4 .4 3.9 3.3 4.3 3.6m-2.7 10.5c-1.3-0.7-2.5-3.1-5.3-5.8c-1.8-1.7-2.1-5-1.6-7.5m19-5.3c.9 1.1 1.1 2.7-0.6 5.4c-0.4 .6-0.1 1.9-0.4 2.9c-0.6 2.8-1.7 5.4-3.1 6.9" fill="none" stroke="#8a3463" stroke-width="1.3"/><path d="M83.7 170.2c0-0.4 0-0.8 0-1.1c-0.1-0.4-0.1-0.8-0.2-1.2c0-0.3-0.1-0.7-0.2-1.1c0-0.3-0.1-0.7-0.2-1.1c-1-2.7 .7-7.5 3.2-9l-0.1-0.2c-0.2-0.2-0.3-0.4-0.4-0.6c-0.1-0.3-0.2-0.5-0.3-0.8c-0.1-0.2-0.2-0.5-0.2-0.7c-0.1-0.3-0.1-0.5-0.1-0.8c-0.1-1.5 3.1-4 4.9-4.2c1.9-0.1 3.1 2.6 3.9 5.3c.6 2.1-1.7 4.2-4 4.3m-3.4 13.6c2.3 .7 3.4 3.1 2.9 6.3c-0.5 2.7-3.5 4-5.9 3.1c-2.5-0.8-3.7-3.6-2.9-6.2" fill="none" stroke="#8a3463" stroke-width="1.3"/></g><g><path d="M124 190.8c2-1.3 4.7-0.7 6 1.3c.3 .5 .6 1 .7 1.6c.1 .6 .1 1.1 0 1.7c-0.1 .6-0.4 1.1-0.7 1.6c-0.3 .5-0.7 .9-1.2 1.2c-2 1.3-4.7 .7-6.1-1.3c-0.3-0.5-0.5-1.1-0.6-1.6c-0.1-0.6-0.1-1.2 0-1.7c.1-0.6 .3-1.1 .6-1.6c.4-0.5 .8-0.9 1.2-1.2Z" fill="#8a3463"/><path d="M118.5 189c-0.2 0-0.4-0.1-0.6-0.2c-0.2-0.1-0.3-0.3-0.5-0.4c-0.2-0.1-0.3-0.3-0.5-0.5c-0.1-0.1-0.2-0.3-0.3-0.5c-1-2.1-0.1-5.1 1.4-6.9c1.7-2.2 5.1-0.6 6.9 1.5c.3 .4 .3 .9 .1 1.7c1.7 0 4 1.5 7.1 3.7c1.7 1.3 5.1 1.1 6 2.4c.1 .3 .2 .6 .3 .9c1.6 .2 3.5 1 4.4 1.8c1.5 1.3 .8 4.1-1.3 6.6c-0.9 1.1-2.5 1.3-3.8 .9c-0.1 1.6-1.2 3-4.6 3.3c-0.8 .1-1.6 1.1-2.5 1.6c-2.6 1.4-5.4 2-7.5 1.9c-0.1 1.6-1.3 3.2-3.2 4.3c-2.4 1.3-5.5-0.3-6.5-2.9c-0.2-0.6-0.3-1.1-0.4-1.6c0-0.6 .1-1.2 .2-1.7c.2-0.5 .4-1 .7-1.5c.4-0.4 .8-0.8 1.2-1.1c-0.4-1.6 .6-4.2 .7-8.3c.1-1.9 1.2-3.7 2.7-5Zm6.5 4.3c0 .3-0.1 .6-0.1 .9c0 .3 0 .6-0.1 .9c0 .3 0 .5 0 .8c0 .3 0 .6 0 .9c0 .5 0 1-0.1 1.4c.3-0.3 .5-0.7 .8-1.1c.2-0.3 .4-0.6 .6-0.8c.2-0.3 .5-0.5 .8-0.8c.2-0.2 .5-0.4 .8-0.6c.3-0.2 .7-0.3 1-0.5c-0.7-0.2-1.4-0.4-2.2-0.6c-0.5-0.2-1-0.3-1.5-0.5Z" fill="#ef4661"/><path d="M118.5 189c-0.2-0.1-0.4-0.1-0.6-0.2c-0.2-0.2-0.4-0.3-0.5-0.4c-0.2-0.2-0.3-0.3-0.5-0.5c-0.1-0.1-0.2-0.3-0.3-0.5c-1-2.1-0.1-5.1 1.4-6.9c1.7-2.2 5.1-0.6 6.9 1.5c.3 .4 .3 .9 .1 1.7" fill="none" stroke="#8a3463" stroke-width="1.3"/><path d="M122.2 185.2c.4-0.4 .8-0.8 1.2-1c2-1.4 4.6 .4 8.7 3.2c1.7 1.3 5.1 1.1 6 2.4c.1 .3 .2 .5 .3 .8m-9.8 3.8c-0.6-0.2-1.4-0.4-2.1-0.6c-0.5-0.2-1-0.3-1.5-0.5m-0.3-1.6c0 .6 .2 5.4 .2 6m-9.8 4.5c-0.4-1.6 .6-4.2 .7-8.2c.1-2.7 2.3-5.1 4.6-6.3m17.2 12.6c-0.2 1.5-1.3 2.7-4.5 3c-0.8 .1-1.6 1.1-2.5 1.6c-2.5 1.3-5.3 2-7.4 1.9" fill="none" stroke="#8a3463" stroke-width="1.3"/><path d="M122.5 200.6c1.1-1 2.2-2.1 3-3.5c1.4-2.6 6.2-4.3 9.1-3.1l.1-0.2c0-0.3 .1-0.6 .2-0.8c.1-0.2 .2-0.5 .3-0.7c.1-0.2 .3-0.5 .4-0.7c.2-0.2 .4-0.4 .6-0.6c1.1-1 5.3 0 6.6 1.5c1.3 1.4 .1 4.2-1.3 6.6c-1.2 2-4.4 1.4-6.1-0.6m-12.7 6.1c1.1 2.4 0 4.9-2.8 6.5c-2.4 1.3-5.5-0.3-6.5-2.9c-0.2-0.7-0.4-1.3-0.4-2c0-0.6 .2-1.3 .4-1.9c.3-0.6 .7-1.1 1.2-1.6c.4-0.4 1-0.8 1.6-1" fill="none" stroke="#8a3463" stroke-width="1.3"/></g><g><g><path d="M156.5 149.6c2.5 .9 3.8 3.7 2.9 6.2c-0.2 .6-0.6 1.2-1 1.7c-0.4 .5-0.9 .9-1.5 1.1c-0.6 .3-1.2 .5-1.8 .5c-0.7 .1-1.3 0-1.9-0.2c-0.6-0.3-1.2-0.6-1.6-1c-0.5-0.5-0.9-1-1.1-1.6c-0.3-0.5-0.4-1.2-0.5-1.8c0-0.7 .1-1.3 .3-1.9c.2-0.6 .6-1.1 1-1.6c.4-0.5 .9-0.9 1.5-1.2c.6-0.3 1.2-0.4 1.8-0.5c.7 0 1.3 .1 1.9 .3Z" fill="#8a3463"/><path d="M154.4 143.6c-0.3-0.9-0.3-1.9 .2-2.8c1.2-2.2 4.4-3.5 7-3.4c3 .1 3.9 4.1 3.3 7.1c-0.2 .6-0.7 .9-1.5 1.2c1.2 1.6 1.3 4.6 1.5 8.8c.1 2.4 2.5 5.2 1.8 6.9c-0.1 .3-0.2 .6-0.5 .9c.2 .4 .4 .8 .6 1.2c.1 .4 .3 .8 .4 1.2c.1 .5 .2 .9 .3 1.4c0 .4 .1 .8 .1 1.3c-0.2 2.3-3.1 3.5-6.8 3.3c-1.5-0.1-2.7-1.3-3.3-2.8c-1.5 1-3.4 1-5.9-1.8c-0.6-0.7-2.1-0.6-3.1-1.1c-2.9-1.4-5.4-3.4-6.7-5.4c-1.5 1-3.7 1.1-5.9 .1c-2.8-1.2-3.4-5.1-1.8-7.7c1.4-2.3 4-3.2 6.4-2.5c1.1-1.4 4.1-2.3 7.7-4.9c1.7-1.2 4.1-1.4 6.2-1Zm.6 8.7c-1.1 .6-2.3 1.3-3.2 2.1c-0.5 .3-0.9 .6-1.3 .9c.5 0 .9 0 1.4-0.1c1.4-0.2 3 .2 4.5 1.1c-0.2-0.8-0.5-1.6-0.8-2.4c-0.3-0.6-0.5-1.1-0.6-1.6Z" fill="#ef4661"/><path d="M154.4 143.6c-0.1-0.3-0.1-0.5-0.2-0.7c0-0.3 0-0.5 0-0.7c0-0.3 .1-0.5 .1-0.7c.1-0.2 .2-0.5 .3-0.7c1.2-2.2 4.4-3.5 7-3.4c3 .1 3.9 4.1 3.3 7.1c-0.2 .6-0.7 .9-1.5 1.2" fill="none" stroke="#8a3463" stroke-width="1.3"/><path d="M160.3 144.3c.6 .1 1.2 .2 1.7 .4c2.6 .8 2.7 4.3 2.9 9.8c.1 2.4 2.5 5.2 1.8 6.9c-0.1 .3-0.2 .6-0.4 .8m-9.9-6c-0.2-0.8-0.5-1.6-0.8-2.3c-0.3-0.6-0.5-1.1-0.6-1.7m1.2-1.3c-0.5 .3-4.6 3.8-5.1 4.2m-10.6-5.6c1.2-1.4 4.1-2.3 7.7-4.9c2.4-1.7 6-1.4 8.6-0.2m.4 23.7c-1.4 .8-3.3 .6-5.6-2c-0.6-0.7-2.1-0.6-3.1-1.1c-2.9-1.4-5.3-3.4-6.6-5.3" fill="none" stroke="#8a3463" stroke-width="1.3"/><path d="M146.9 154.9c.4 .1 .8 .2 1.2 .2c.5 .1 .9 .1 1.3 .2c.4 0 .8 0 1.3 0c.4 0 .8-0.1 1.2-0.1c3.3-0.5 7.9 2.6 8.9 6l.2-0.1c.3-0.2 .6-0.3 .8-0.4c.3 0 .6-0.1 .9-0.1c.3-0.1 .6-0.1 .9-0.1c.3 0 .6 0 .8 .1c1.7 .2 3.5 4.6 3.2 6.8c-0.4 2.2-3.7 3-6.8 3.3c-2.5 .2-4.1-3-3.5-5.8m-13.8-7.1c-1.4 2.5-4.3 3.3-7.6 1.9c-2.8-1.2-3.4-5.1-1.8-7.7c.4-0.6 .9-1.2 1.5-1.6c.6-0.5 1.2-0.8 1.9-1c.7-0.1 1.5-0.2 2.2-0.1c.7 .2 1.4 .4 2 .8" fill="none" stroke="#8a3463" stroke-width="1.3"/></g><g><path d="M183.2 98.6c2.4 .4 4.1 2.5 3.8 4.8c-0.1 .5-0.2 1.1-0.5 1.5c-0.3 .5-0.7 .9-1.1 1.3c-0.5 .3-1 .6-1.6 .7c-0.5 .1-1.1 .2-1.6 .1c-0.6-0.1-1.1-0.2-1.6-0.5c-0.5-0.3-0.9-0.6-1.3-1.1c-0.3-0.4-0.6-0.9-0.8-1.4c-0.1-0.6-0.2-1.2-0.1-1.7c.1-0.6 .3-1.1 .5-1.6c.3-0.5 .7-0.9 1.2-1.2c.4-0.4 .9-0.6 1.5-0.8c.5-0.1 1.1-0.1 1.6 0Z" fill="#8a3463"/><path d="M180.2 94c-0.1-0.1-0.2-0.3-0.3-0.5c-0.1-0.2-0.1-0.4-0.2-0.6c0-0.2 0-0.4 0-0.6c0-0.2 0-0.4 .1-0.6c.6-2.1 3.1-3.8 5.5-4.2c2.6-0.4 4.2 2.7 4.3 5.4c0 .5-0.4 .9-1 1.3c1.3 1.1 2 3.6 3 7c.6 2 3.2 4 3 5.5c0 .3-0.1 .6-0.3 .8c.3 .3 .6 .6 .8 .9c.2 .3 .4 .6 .6 1c.2 .3 .4 .7 .5 1c.2 .4 .3 .8 .4 1.1c.3 2-2 3.5-5.3 4c-1.4 .2-2.7-0.6-3.5-1.7c-1.1 1.1-2.8 1.4-5.6-0.5c-0.7-0.4-1.9-0.1-2.9-0.4c-2.9-0.6-5.5-1.8-7-3.2c-1.1 1.1-3 1.5-5.2 1.1c-2.7-0.5-4-3.6-3.1-6.1c.2-0.5 .4-1 .8-1.4c.3-0.4 .7-0.8 1.2-1.1c.4-0.3 .9-0.5 1.5-0.6c.5-0.1 1-0.2 1.6-0.1c.7-1.4 3.1-2.7 5.8-5.6c1.3-1.3 3.3-1.9 5.3-1.9Zm2.2 7.1c-0.8 .8-1.7 1.6-2.4 2.4c-0.3 .4-0.6 .7-0.9 1c.4-0.1 .8-0.2 1.2-0.3c.4-0.1 .7-0.2 1.1-0.3c.3 0 .7 0 1 0c.4 0 .7 0 1.1 .1c.3 0 .7 .1 1 .2c-0.4-0.6-0.8-1.2-1.2-1.8c-0.4-0.4-0.6-0.9-0.9-1.3Z" fill="#ef4661"/><path d="M180.2 94c-0.2-0.2-0.3-0.4-0.3-0.5c-0.1-0.2-0.2-0.4-0.2-0.6c0-0.2 0-0.4 0-0.6c0-0.2 0-0.4 .1-0.6c.6-2.1 3.1-3.8 5.5-4.2c2.6-0.4 4.2 2.7 4.3 5.4c0 .5-0.4 .9-1 1.2" fill="none" stroke="#8a3463" stroke-width="1.3"/><path d="M185.5 93.5c.6 0 1.1 0 1.6 .1c2.4 .2 3.2 3.1 4.5 7.6c.6 2 3.2 4 3 5.5c0 .3-0.1 .5-0.2 .7m-9.9-3.2c-0.4-0.6-0.8-1.2-1.2-1.8c-0.4-0.4-0.7-0.8-0.9-1.3m.8-1.3c-0.4 .4-3.3 4-3.7 4.4m-10.4-2.8c.7-1.4 3.1-2.6 5.8-5.5c1.8-1.8 5-2.2 7.5-1.6m5.2 19.7c-1.1 .9-2.8 1.1-5.4-0.7c-0.7-0.4-1.9-0.1-2.9-0.4c-2.8-0.6-5.4-1.8-6.9-3.2" fill="none" stroke="#8a3463" stroke-width="1.3"/><path d="M175.9 104.8c1.4 0 3-0.1 4.4-0.6c2.8-1 7.5 .7 9 3.3l.2-0.1c.9-0.6 1.9-1 2.9-1c1.5-0.1 4.1 3.3 4.2 5.1c.1 1.9-2.6 3.2-5.3 4c-2.2 .7-4.2-1.7-4.3-4.2m-13.6-3.5c-0.7 2.4-3.1 3.6-6.3 3c-2.7-0.5-4-3.6-3.1-6.1c.2-0.6 .6-1.2 1-1.7c.4-0.4 1-0.8 1.5-1.1c.6-0.3 1.3-0.4 1.9-0.5c.6 0 1.3 .1 1.9 .3" fill="none" stroke="#8a3463" stroke-width="1.3"/></g><g><path d="M176.8 205.8c.1-2.2 2.3-3.9 4.8-3.8c2.6 .2 4.6 2 4.5 4.2c-0.1 2.2-2.3 3.9-4.8 3.8c-2.6-0.2-4.6-2-4.5-4.2Z" fill="#8a3463"/><path d="M172 208.8c-0.7 .5-1.6 .7-2.5 .6c-2.4-0.4-4.4-2.7-5.1-4.8c-0.7-2.4 2.6-4 5.5-4.2c.6-0.1 1 .2 1.5 .8c1.1-1.3 3.8-2.1 7.5-3.2c2.1-0.7 4-3.2 5.7-3.1c.3 0 .6 .1 .9 .2c.3-0.3 .6-0.5 1-0.8c.3-0.2 .6-0.4 1-0.6c.3-0.2 .7-0.4 1.1-0.5c.3-0.2 .7-0.3 1.1-0.4c2.1-0.4 4 1.7 4.9 4.6c.3 1.2-0.4 2.5-1.6 3.3c1.3 .9 1.8 2.5 0 5.1c-0.4 .7 0 1.8-0.1 2.7c-0.1 .6-0.2 1.2-0.4 1.8c-0.2 .6-0.4 1.1-0.6 1.7c-0.3 .6-0.6 1.1-0.9 1.6c-0.3 .5-0.7 1-1.1 1.5c1.3 1 2 2.6 1.7 4.7c-0.3 2.5-3.6 3.8-6.4 3.2c-2.4-0.6-4-2.4-4-4.5c-1.6-0.5-3.2-2.7-6.6-5c-0.3-0.3-0.7-0.6-1-0.9c-0.3-0.4-0.6-0.7-0.8-1.1c-0.2-0.4-0.4-0.9-0.5-1.3c-0.1-0.4-0.2-0.9-0.3-1.4Zm7.6-2.4c.9 .7 1.9 1.4 2.9 2c.4 .3 .8 .6 1.1 .8c-0.1-0.4-0.3-0.7-0.5-1.1c-0.1-0.3-0.2-0.6-0.3-0.9c-0.1-0.3-0.1-0.7-0.2-1c0-0.3 0-0.6 .1-1c0-0.3 0-0.6 .1-0.9c-0.6 .4-1.3 .8-1.9 1.2c-0.4 .3-0.8 .6-1.3 .9Z" fill="#ef4661"/><path d="M172 208.9c-0.8 .4-1.6 .6-2.5 .5c-2.4-0.4-4.4-2.7-5.1-4.8c-0.7-2.4 2.6-4 5.5-4.2c.6-0.1 1 .2 1.5 .8" fill="none" stroke="#8a3463" stroke-width="1.3"/><path d="M171 204c-0.1-0.5-0.1-1-0.1-1.4c0-2.2 3.1-3.2 8-4.6c2.1-0.7 4-3.2 5.7-3.1c.3 0 .6 .1 .8 .2m-2.6 9.2c-0.7 .4-1.3 .8-1.9 1.2c-0.4 .3-0.8 .6-1.3 .9m-1.5-0.7c.5 .4 4.7 2.8 5.2 3.1m-2.1 9.7c-1.6-0.6-3.2-2.7-6.6-5c-2.2-1.5-2.9-4.4-2.5-6.7m21.1-6c1.2 1 1.5 2.5-0.2 5c-0.4 .7 0 1.8-0.1 2.7c-0.4 2.6-1.5 5-2.9 6.5" fill="none" stroke="#8a3463" stroke-width="1.3"/><path d="M184.3 212.1c0-0.3-0.1-0.7-0.2-1c0-0.4-0.1-0.7-0.2-1c-0.1-0.4-0.2-0.7-0.4-1c-0.1-0.4-0.2-0.7-0.4-1c-1.3-2.5 .1-6.9 2.9-8.4l-0.2-0.2c-0.1-0.2-0.3-0.4-0.4-0.6c-0.2-0.2-0.3-0.4-0.4-0.6c-0.2-0.2-0.3-0.4-0.4-0.7c0-0.2-0.1-0.5-0.2-0.7c-0.2-1.4 3.3-3.9 5.3-4.1c2.1-0.2 3.7 2.2 4.9 4.6c.9 1.9-1.5 3.9-4.2 4.1m-2.6 12.7c2.7 .5 4.2 2.6 3.8 5.6c-0.3 2.4-3.6 3.8-6.4 3.2c-2.8-0.7-4.5-3.2-3.8-5.6" fill="none" stroke="#8a3463" stroke-width="1.3"/></g><g><path d="M226 200.9c2.2 .4 3.6 2.8 3.1 5.3c-0.4 2.5-2.5 4.2-4.7 3.9c-2.1-0.4-3.5-2.8-3.1-5.3c.5-2.5 2.6-4.2 4.7-3.9Z" fill="#8a3463"/><path d="M223.6 195.8c-0.1-0.2-0.1-0.4-0.2-0.6c-0.1-0.2-0.1-0.5-0.1-0.7c0-0.2 0-0.4 0-0.6c0-0.3 .1-0.5 .1-0.7c.8-2.3 3.2-4 5.4-4.4c2.5-0.4 3.7 3.1 3.5 6c0 .6-0.4 1-1 1.3c1.2 1.3 1.6 4 2.2 7.9c.4 2.2 2.7 4.4 2.4 6c-0.1 .4-0.2 .6-0.4 .9c.2 .4 .5 .7 .6 1.1c.2 .3 .4 .7 .5 1.1c.2 .3 .3 .7 .4 1.1c.1 .4 .2 .8 .2 1.2c.2 2.1-2.1 3.7-5.1 4.2c-1.3 .2-2.4-0.7-3.1-2c-1.1 1.2-2.7 1.5-5.1-0.6c-0.5-0.5-1.7-0.2-2.6-0.5c-0.6-0.2-1.2-0.4-1.8-0.6c-0.5-0.2-1-0.5-1.6-0.8c-0.5-0.4-1-0.7-1.4-1.1c-0.5-0.4-0.9-0.8-1.3-1.3c-1.2 1.2-2.9 1.7-4.9 1.1c-2.5-0.6-3.4-4-2.4-6.8c.9-2.3 2.9-3.6 4.9-3.3c.8-1.5 3.1-2.9 5.8-5.9c.4-0.4 .7-0.7 1.1-0.9c.4-0.3 .8-0.5 1.2-0.7c.4-0.1 .9-0.2 1.3-0.3c.5-0.1 1-0.1 1.4-0.1Zm1.5 7.9c-0.8 .8-1.7 1.6-2.4 2.5c-0.3 .4-0.6 .7-0.9 1c.4 0 .8-0.2 1.2-0.3c1.1-0.4 2.5-0.3 3.8 .2c-0.3-0.7-0.7-1.4-1-2c-0.3-0.5-0.5-1-0.7-1.4Z" fill="#ef4661"/><path d="M223.6 195.8c-0.1-0.2-0.2-0.4-0.2-0.7c-0.1-0.2-0.1-0.4-0.1-0.6c0-0.2 0-0.4 0-0.7c0-0.2 .1-0.4 .1-0.6c.8-2.3 3.2-4 5.4-4.4c2.5-0.4 3.7 3.1 3.5 6c0 .6-0.4 .9-1 1.3" fill="none" stroke="#8a3463" stroke-width="1.3"/><path d="M228.5 195.4c.6 0 1 0 1.5 .1c2.2 .3 2.7 3.5 3.5 8.5c.4 2.2 2.7 4.4 2.4 6c-0.1 .3-0.2 .6-0.3 .8m-8.8-3.8c-0.3-0.6-0.7-1.3-1-1.9c-0.3-0.5-0.5-1-0.7-1.4m.8-1.5c-0.4 .4-3.3 4.3-3.7 4.8m-9.3-3.4c.7-1.5 3.1-2.8 5.7-5.8c1.8-2 4.8-2.3 7.1-1.7m3.1 21.7c-1.1 1.1-2.6 1.2-4.9-0.8c-0.5-0.5-1.7-0.2-2.6-0.5c-0.6-0.1-1.2-0.3-1.7-0.6c-0.6-0.2-1.1-0.5-1.6-0.8c-0.6-0.3-1-0.7-1.5-1.1c-0.5-0.3-0.9-0.8-1.3-1.2" fill="none" stroke="#8a3463" stroke-width="1.3"/><path d="M218.8 207.5c1.3 0 2.8-0.1 4.1-0.6c2.7-1 6.8 1 8 3.9l.2-0.1c.2-0.2 .4-0.3 .6-0.4c.2-0.1 .5-0.2 .7-0.3c.2-0.1 .5-0.2 .7-0.2c.3-0.1 .5-0.1 .8-0.2c1.4 0 3.4 3.7 3.4 5.8c-0.1 2-2.7 3.4-5.2 4.2c-2.1 .7-3.7-2-3.6-4.7m-12.2-4.1c-0.8 2.5-3.2 3.8-6 3c-2.5-0.6-3.4-4-2.4-6.8c1-2.7 3.7-4.1 6-3" fill="none" stroke="#8a3463" stroke-width="1.3"/></g><g><path d="M218.5 157.3c-0.9 .8-2.2 1.1-3.4 1c-1.2-0.2-2.3-0.8-3.1-1.8c-0.8-0.9-1.1-2.2-1-3.4c.2-1.2 .8-2.3 1.8-3.1c.9-0.8 2.2-1.1 3.4-1c1.2 .2 2.3 .8 3.1 1.8c.8 1 1.1 2.2 1 3.4c-0.2 1.2-0.8 2.3-1.8 3.1Z" fill="#8a3463"/><path d="M224.4 158.6c.9 .2 1.7 .7 2.2 1.5c1.1 2.1 .5 5.3-0.9 7.4c-1.7 2.4-5.3 1.1-7.4-0.9c-0.4-0.4-0.4-1-0.3-1.8c-1.8 .2-4.3-1.2-7.8-3.1c-1.9-1.1-5.5-0.6-6.5-1.9c-0.2-0.3-0.3-0.6-0.4-0.9c-0.4 0-0.8-0.1-1.3-0.1c-0.4-0.1-0.8-0.2-1.2-0.3c-0.4-0.1-0.8-0.3-1.2-0.5c-0.4-0.1-0.7-0.3-1.1-0.5c-1.7-1.3-1.2-4.3 .8-7.1c.9-1.3 2.5-1.6 4-1.4c0-1.7 1-3.2 4.5-3.9c.9-0.1 1.6-1.3 2.5-1.9c2.6-1.7 5.5-2.7 7.8-2.8c0-1.7 1-3.5 3-4.8c2.4-1.7 5.8-0.2 7.1 2.4c.3 .5 .4 1.1 .5 1.6c.1 .6 .1 1.2-0.1 1.8c-0.1 .6-0.3 1.1-0.6 1.6c-0.3 .5-0.7 1-1.1 1.3c.6 1.6-0.3 4.5-0.1 8.8c.1 2-0.9 4-2.4 5.5Zm-7.2-3.9c0-0.3 0-0.6 0-0.9c0-0.3 0-0.6 0-0.9c0-0.3 0-0.6 0-0.9c0-0.3-0.1-0.6-0.1-0.9c0-0.6 0-1.1 0-1.5c-0.3 .4-0.5 .8-0.7 1.2c-0.2 .3-0.4 .7-0.6 1c-0.2 .3-0.5 .6-0.8 .8c-0.2 .3-0.5 .5-0.8 .7c-0.3 .3-0.7 .5-1 .6c.8 .2 1.6 .4 2.3 .5c.6 .1 1.2 .2 1.7 .3Z" fill="#ef4661"/><path d="M224.4 158.6c.9 .2 1.7 .7 2.2 1.5c1.1 2.1 .5 5.3-0.9 7.4c-1.7 2.4-5.3 1.1-7.4-0.9c-0.4-0.4-0.4-1-0.3-1.7" fill="none" stroke="#8a3463" stroke-width="1.3"/><path d="M220.8 163c-0.4 .5-0.8 .9-1.2 1.2c-2 1.6-4.9 0-9.4-2.5c-1.9-1.1-5.5-0.6-6.5-1.9c-0.2-0.3-0.3-0.5-0.4-0.8m9.9-5c.8 .1 1.6 .3 2.3 .4c.6 .1 1.2 .2 1.7 .3m.4 1.7c0-0.6-0.6-5.6-0.7-6.2m10-5.8c.5 1.6-0.3 4.4-0.1 8.7c.2 2.8-2 5.5-4.3 7m-19.2-11.4c.1-1.6 1.2-3 4.5-3.6c.9-0.1 1.6-1.3 2.5-1.9c2.6-1.7 5.5-2.7 7.7-2.8" fill="none" stroke="#8a3463" stroke-width="1.3"/><path d="M219.2 146.9c-0.3 .3-0.5 .6-0.8 .9c-0.3 .3-0.5 .6-0.7 .9c-0.3 .4-0.5 .7-0.7 1.1c-0.2 .3-0.4 .7-0.6 1c-1.3 2.9-6.2 5.2-9.4 4.2v.3c-0.1 .3-0.1 .5-0.2 .8c-0.1 .3-0.2 .5-0.3 .8c-0.1 .3-0.2 .5-0.4 .7c-0.1 .3-0.3 .5-0.5 .7c-1.1 1.2-5.6 .5-7.1-0.8c-1.5-1.4-0.5-4.5 .8-7.1c1.2-2.2 4.5-1.9 6.5-0.1m12.9-7.6c-1.3-2.4-0.4-5.2 2.4-7.1c2.4-1.7 5.8-0.2 7.1 2.4c.3 .6 .5 1.3 .5 2c.1 .7 0 1.4-0.2 2c-0.3 .7-0.6 1.3-1.1 1.8c-0.4 .5-1 1-1.6 1.3" fill="none" stroke="#8a3463" stroke-width="1.3"/></g></g></g></g><g transform="translate(281.5,280.5) translate(-140.9,-208.9)"><g id="Coronavirus-label" opacity="0" transform="translate(77.4,395) translate(-77.4,-22.8)"><text font-size="18" font-family="ABCSans" letter-spacing=".1em" word-spacing="0" text-anchor="middle" font-weight="900" transform="translate(77.4,17.5)" style="line-height: 22px;">SARS-COV-2</text><text font-size="18" font-family="ABCSans" letter-spacing=".1em" word-spacing="0" text-anchor="middle" font-weight="900" transform="translate(77.4,40.5)" style="line-height: 22px;">(CORONAVIRUS)</text></g></g></g><script xlink:href="keyshapejs-1.1.0.min.js"/><script><![CDATA[if(KeyshapeJS.version.indexOf('1.')!=0)throw Error('Expected KeyshapeJS v1.*.*');window.ks=document.ks=KeyshapeJS;(function(ks){
ks.animate("#Coronavirus",[{p:'rotate',t:[0,1000,2000,3000],v:[-2,0,-2,0],e:[[1,.4,0,.6,1],[1,.4,0,.6,1],[1,.4,0,.6,1],[0]]}],
"#Coronavirus-label",[{p:'opacity',t:[500,1000],v:[0,1],e:[[0],[0]]}],
{autoremove:false,markers:{"LoopStart":1000}}).range(0,3000);
if(document.location.search.substr(1).split('&').indexOf('global=paused')>=0)ks.globalPause()})(KeyshapeJS);
]]></script></svg>