<svg xmlns="http://www.w3.org/2000/svg" xmlns:xlink="http://www.w3.org/1999/xlink" width="100%" height="100%" viewBox="0 0 500 800" style="background: rgba(224,255,255,0.00); white-space: pre;"><defs><symbol id="bead" preserveAspectRatio="none" width="16.5" height="16.5" viewBox="0 0 16.5 16.5" overflow="visible"><ellipse rx="1.5" ry="1.5" clip-rule="evenodd" fill="#a33636" fill-rule="evenodd" stroke="#7d2614" stroke-linejoin="round" stroke-miterlimit="1.8" stroke-width=".3" transform="translate(-0.9,-1) scale(5,5) translate(1.8,1.8)"/></symbol><mask id="Mask-1"><rect width="504" height="344" fill="#fff" transform="translate(14,84.1) translate(-324,-265)"/></mask></defs><g transform="translate(922.4,299.6) translate(-825.1,-640.8)"><text id="_a0" font-size="18" font-family="ABCSans" font-weight="900" letter-spacing=".1em" word-spacing="0" text-anchor="middle" transform="translate(152.6,735.5)" style="line-height: 16px;">RIBOSOME</text><g id="Ribosome" clip-rule="evenodd" fill-rule="evenodd" stroke="#b04945" stroke-linecap="round" stroke-miterlimit="1.8" stroke-width=".3" stroke-linejoin="round" transform="translate(153.7,631.1) translate(0,0) rotate(20) scale(3,3) translate(-17.6,-20.1)"><g transform="translate(15.3,23.7) translate(-14.2,-8.9)"><path d="M4.9 15.9c0-0.3 .2-0.6 .5-0.8c.2-0.2 .5-0.3 .9-0.3c.3 0 .6 .1 .8 .4c.3 .2 .4 .5 .5 .8c.5 .2 .9 .6 .9 1.2c.2-0.1 .4-0.2 .6-0.2c.2 0 .4 .1 .6 .2c.2 .1 .4 .2 .5 .4c.1 .1 .2 .3 .3 .5c.1-0.2 .4-0.4 .7-0.5c.3 0 .6 0 .9 .1c.3 .1 .5 .4 .6 .6c.2 .3 .2 .6 .2 .9l7.7 3c.1-0.1 .2-0.3 .3-0.3c.1-0.1 .2-0.2 .3-0.3c.2 0 .3-0.1 .4-0.1c.2 0 .3 0 .5 0c.1-0.1 .3-0.3 .6-0.3c.2-0.1 .4-0.1 .7 0c.2 .1 .4 .2 .5 .4c.2 .1 .3 .3 .4 .6c.1-0.2 .3-0.2 .5-0.3c.1 0 .3 0 .5 0c.2 0 .3 0 .5 .1c.2 .1 .3 .2 .4 .4c.2-0.2 .5-0.2 .8-0.2c.2 0 .5 .1 .7 .2c.2 .2 .4 .4 .5 .6c.1 .3 .1 .5 .1 .8c.1 .1 .3 .3 .4 .5c.1 .2 .2 .5 .2 .7c-0.1 .2-0.1 .5-0.2 .7c-0.2 .2-0.3 .3-0.5 .5l1 2.2l-22.7 2c-0.1 .3-0.3 .6-0.6 .8c-0.3 .1-0.7 .2-1 .1c-0.4 0-0.7-0.3-0.9-0.5c-0.2-0.3-0.2-0.7-0.2-1c-0.2-0.1-0.3-0.1-0.5-0.2c-0.2-0.1-0.3-0.3-0.4-0.4c-0.1-0.2-0.2-0.4-0.2-0.5c0-0.2 0-0.4 0-0.6c-0.1-0.1-0.3-0.2-0.4-0.3c-0.1-0.1-0.2-0.2-0.3-0.3c-0.1-0.2-0.1-0.3-0.1-0.5c0-0.2 0-0.3 0-0.5c-0.1-0.1-0.2-0.2-0.3-0.3c-0.1-0.1-0.2-0.3-0.2-0.4c0-0.2-0.1-0.3 0-0.5c0-0.1 0-0.3 .1-0.4c-0.1-0.1-0.2-0.2-0.2-0.4c-0.1-0.1-0.1-0.2-0.2-0.4c0-0.1 0-0.2 .1-0.4c0-0.1 0-0.2 .1-0.4c-0.1-0.1-0.1-0.2-0.2-0.3c0-0.1-0.1-0.3-0.1-0.4c0-0.2 .1-0.3 .1-0.4c0-0.2 .1-0.3 .2-0.4c-0.1-0.2-0.1-0.4-0.1-0.6c0-0.2 0-0.4 .1-0.6c.1-0.1 .2-0.3 .4-0.4c.2-0.1 .4-0.2 .6-0.3c0-0.5 .4-1 .9-1.1c.1-0.6 .5-1.1 1.1-1.2c-0.1-0.1-0.1-0.3-0.2-0.5c0-0.1 .1-0.3 .1-0.5c.1-0.1 .2-0.3 .3-0.4c.1-0.1 .2-0.2 .4-0.3Z" fill="#974581" transform="translate(-1,-14.8)"/><path d="M4.9 29.8c-0.4-0.5-0.5-1.2-0.1-1.7c.3-0.5 1-0.7 1.6-0.5c.6 .2 .9 .8 .9 1.4c-0.1 .7-0.6 1.2-1.2 1.3c.2 .2 .4 .5 .4 .9c0 .5-0.3 1-0.8 1.2c-0.5 .2-1.1 .1-1.5-0.2c-0.4-0.3-0.6-0.9-0.4-1.4c.1-0.5 .5-0.9 1.1-1Zm22-4.3c.1-0.5 .5-0.8 1-0.9c.6-0.1 1.1 .1 1.4 .5c.3 .5 .3 1 .1 1.5c-0.3 .5-0.8 .7-1.3 .7c.1 .2 .1 .4 .1 .6c-0.1 .3-0.2 .5-0.3 .6c-0.1 .2-0.3 .4-0.5 .5c-0.2 .1-0.4 .1-0.6 .1c-0.7 0-1.3-0.5-1.4-1.2c-0.3 .1-0.8 .1-1.1 0c-0.4-0.2-0.7-0.5-0.8-0.9c-0.1-0.4 0-0.9 .2-1.2c.3-0.3 .7-0.5 1.1-0.5c.1-0.2 .3-0.3 .5-0.3c.2-0.1 .4-0.1 .6-0.1c.2 0 .4 .1 .5 .2c.2 .1 .3 .3 .5 .4Zm-19.4-6.8c-0.3-0.2-0.6-0.6-0.6-1c-0.1-0.4 .1-0.8 .4-1.1c.3-0.3 .7-0.4 1.1-0.4c.5 .1 .8 .3 1 .7c.3-0.2 .5-0.3 .8-0.3c.3 0 .6 .1 .8 .3c.2 .1 .4 .3 .5 .6c.1 .3 .1 .5 .1 .8c.4 .3 .6 .8 .6 1.3c0 .5-0.4 .9-0.8 1.1c-0.5 .2-1.1 .2-1.5-0.2c-0.3-0.3-0.5-0.8-0.4-1.3c0-0.1-0.1-0.1-0.1-0.1c-0.1-0.1-0.1-0.1-0.2-0.1c0-0.1 0-0.1-0.1-0.2c0 0 0-0.1-0.1-0.1c-0.2 .1-0.4 .2-0.6 .2c.3 .3 .6 .7 .6 1.2c.3 0 .6 .1 .8 .3c.2 .2 .4 .5 .4 .8c.1 .3 .1 .6-0.1 .8c-0.1 .3-0.3 .5-0.6 .7c.3 .2 .6 .5 .6 .9c.2-0.1 .4-0.1 .6-0.1c.2 .1 .4 .1 .5 .2c.2 .1 .3 .3 .5 .4c.1 .2 .1 .3 .2 .5c-0.1-0.3-0.2-0.6-0.1-0.9c0-0.3 .1-0.6 .4-0.8c.2-0.2 .5-0.4 .8-0.4c.3 0 .6 0 .8 .2c0-0.3 .1-0.5 .3-0.7c.1-0.2 .4-0.4 .6-0.4c.2-0.1 .5-0.2 .7-0.1c.3 0 .5 .1 .7 .3c.2-0.1 .4-0.2 .7-0.3c.2 0 .5 .1 .7 .2c.2 .1 .4 .3 .6 .5c.1 .2 .2 .5 .1 .7c0 .5-0.2 .8-0.5 1.1c.2 .3 .2 .6 0 1c-0.1 .3-0.3 .5-0.6 .7c-0.3 .2-0.6 .2-0.9 .1c-0.3 0-0.6-0.2-0.8-0.5c-0.1 .1-0.2 .1-0.3 .2c-0.1 0-0.2 0-0.2 .1c-0.1 0-0.2 0-0.3 0c-0.1 0-0.2 0-0.3 0c0 .2-0.1 .5-0.3 .8c-0.2 .2-0.4 .4-0.7 .5c-0.3 0-0.6 0-0.8-0.1c-0.3-0.1-0.6-0.3-0.7-0.5v.1c0 .4-0.2 .7-0.4 1c-0.3 .2-0.6 .4-1 .4c-0.4 0-0.7-0.2-1-0.4c-0.2-0.3-0.4-0.6-0.4-1c-0.1 .2-0.4 .4-0.6 .4c-0.3 .1-0.6 .1-0.8 0c-0.3-0.1-0.5-0.2-0.7-0.5c-0.2-0.2-0.3-0.4-0.3-0.7c-0.3 0-0.6-0.2-0.8-0.4c.1 .2 .1 .4 0 .6c0 .2-0.1 .4-0.2 .6c-0.1 .2-0.3 .3-0.5 .4c-0.2 .1-0.4 .2-0.6 .2h-0.1c.2 .4 .2 .9 0 1.3c-0.2 .4-0.6 .6-1.1 .7c-0.4 0-0.9-0.2-1.1-0.5c-0.3-0.4-0.4-0.9-0.3-1.3c-0.2-0.2-0.4-0.4-0.5-0.7c-0.1-0.3-0.1-0.5 0-0.8c.1-0.3 .3-0.5 .5-0.7c.3-0.2 .5-0.3 .8-0.3c.2 0 .4 .1 .6 .2c.1-0.2 .3-0.4 .4-0.5c.2-0.1 .4-0.1 .6-0.2c.2 0 .4 0 .6 .1c.2 .1 .4 .2 .5 .3c0-0.3 0-0.6 .1-0.8c0-0.3 .2-0.5 .5-0.7c.2-0.2 .5-0.3 .8-0.3c.3 0 .5 .1 .8 .3c.1-0.2 .3-0.4 .5-0.5c-0.1-0.1-0.2-0.2-0.2-0.2c-0.1-0.1-0.2-0.2-0.2-0.3c-0.1-0.1-0.1-0.2-0.1-0.3c-0.1-0.1-0.1-0.2-0.1-0.3c-0.1 0-0.3-0.1-0.4-0.1c-0.2 0-0.3 .1-0.5 .1c-0.2 0-0.4 0-0.5 0c-0.2-0.1-0.4-0.1-0.5-0.3c-0.2-0.1-0.3-0.2-0.4-0.3c0 0-0.1 0-0.1 0c0 0-0.1 0-0.1 0c-0.1 0-0.1 0-0.1 0c-0.1 0-0.1-0.1-0.2-0.1c-0.2 .4-0.5 .6-0.8 .7c-0.2 .5-0.5 .8-1 1c-0.5 .1-1-0.1-1.3-0.4c-0.3-0.3-0.5-0.8-0.4-1.3c.2-0.5 .5-0.8 1-1c0-0.1 .1-0.3 .2-0.4c.1-0.2 .2-0.3 .4-0.4c.1-0.1 .3-0.1 .5-0.2c.2 0 .3 0 .5 .1c.1-0.2 .1-0.3 .2-0.4c.1-0.1 .2-0.1 .4-0.2c.1-0.1 .2-0.1 .3-0.1c.2-0.1 .3-0.1 .4-0.1c.2 0 .4-0.1 .5-0.1c.2 0 .4 .1 .5 .2c.2 0 .3 .1 .5 .2c.1 .2 .2 .3 .3 .5h.1c.1-0.1 .3-0.1 .5-0.2Zm14 5v-0.1c0-0.5 .3-1 .8-1.2c.4-0.2 .9-0.2 1.4 .1c.4 .2 .6 .7 .6 1.2c-0.1 .5-0.4 1-0.9 1.2l.1 .1c0 .6-0.5 1.2-1.1 1.3c-0.1 .2-0.3 .3-0.5 .3c-0.2 .1-0.3 .1-0.5 .1c-0.2 0-0.4-0.1-0.6-0.2c-0.2-0.1-0.3-0.2-0.4-0.3c-0.4 .4-1 .5-1.6 .3c-0.5-0.3-0.8-0.8-0.8-1.4c.1-0.5 .4-1 1-1.2c.5-0.2 1.1 0 1.5 .5c.2-0.2 .4-0.4 .6-0.4c.2-0.1 .3-0.2 .4-0.3Z" fill="#b25f9e" transform="translate(-1,-14.8)"/><path d="M23.2 23.5c.1-0.5 .3-0.9 .7-1.1c.4-0.2 .9-0.1 1.3 .1c.4 .2 .7 .6 .7 1c.1 .4-0.1 .9-0.4 1.2c.7-0.2 1.4 .2 1.6 .8c.3 .7 0 1.4-0.6 1.7c-0.6 .3-1.4 .2-1.8-0.4c-0.4-0.6-0.3-1.3 .2-1.8c-0.1 0-0.2 0-0.3 0c-0.1 0-0.2 0-0.3 0c0 0-0.1 0-0.2 0c-0.1-0.1-0.2-0.1-0.3-0.2c0 .3-0.2 .6-0.4 .8c-0.2 .2-0.5 .4-0.8 .4c-0.3 0-0.6 0-0.9-0.2c-0.2-0.2-0.4-0.4-0.5-0.7c-0.4 .5-1 .8-1.6 .6c-0.6-0.2-1-0.8-0.9-1.5c0-0.6 .5-1.1 1.1-1.2c.7-0.1 1.3 .3 1.5 .9c.1-0.2 .2-0.3 .4-0.4c.1-0.1 .3-0.2 .5-0.2c.1-0.1 .3-0.1 .5 0c.2 0 .4 .1 .5 .2Zm-10.6-2c.1-0.5 .3-0.9 .7-1.1c.4-0.2 .8-0.2 1.2-0.1c.4 .2 .7 .6 .8 1c.1 .4 0 .9-0.3 1.2c.2 .3 .2 .7 .1 1.1c-0.2 .3-0.4 .6-0.8 .7c-0.3 .2-0.7 .2-1 0c-0.4-0.1-0.6-0.4-0.8-0.7c-0.1 .1-0.3 .2-0.5 .2c.1 .4 0 .8-0.3 1.1c-0.3 .3-0.7 .5-1.1 .5c-0.4 0-0.8-0.2-1-0.5c-0.3-0.3-0.4-0.8-0.3-1.1c-0.1 .2-0.2 .4-0.4 .5c-0.1 .2-0.3 .3-0.6 .4c-0.2 0-0.4 0-0.7 0c-0.2-0.1-0.4-0.2-0.6-0.4c-0.2 .2-0.4 .3-0.7 .3c.3 .3 .4 .8 .3 1.3c-0.1 .4-0.5 .8-1 .9c-0.4 .1-0.9 0-1.3-0.3c-0.3-0.3-0.5-0.8-0.4-1.3c-0.2 .5-0.7 .9-1.2 .9c-0.6 .1-1.1-0.3-1.3-0.8c-0.3-0.5-0.2-1.1 .2-1.5c.4-0.4 1-0.5 1.5-0.3c.1-0.2 .2-0.3 .3-0.5c.1-0.1 .3-0.2 .5-0.3c.1-0.1 .3-0.1 .5-0.1c.2 0 .4 0 .5 .1c.1-0.2 .3-0.4 .4-0.6c.2-0.1 .4-0.2 .6-0.2c.3-0.1 .5-0.1 .7 0c.2 .1 .4 .2 .6 .4c.2-0.2 .4-0.3 .7-0.3c.2-0.1 .5 0 .7 .1c.2 .1 .4 .3 .6 .5c.1 .2 .2 .5 .2 .7v.3c.1-0.4 .5-0.8 1-0.9c-0.1-0.3-0.1-0.6 .1-0.8c.1-0.3 .3-0.5 .5-0.6c.3-0.2 .6-0.2 .9-0.2c.3 0 .5 .2 .7 .4Zm-4.2-3.3c.4 0 .8 .1 1 .4c.3 .2 .4 .6 .4 .9c0 .4-0.1 .8-0.4 1c-0.2 .3-0.6 .4-1 .4c-0.3 0-0.7-0.1-0.9-0.4c-0.3-0.2-0.4-0.6-0.4-1c0-0.3 .1-0.7 .4-0.9c.2-0.3 .6-0.4 .9-0.4Zm-3.8 0c0-0.6 .4-1.2 1-1.3c.6-0.2 1.3 .1 1.6 .7c.3 .5 .2 1.2-0.3 1.6c-0.4 .4-1.1 .5-1.7 .2c0 .6-0.4 1.2-1 1.3c-0.6 .2-1.2-0.1-1.5-0.6c-0.3-0.6-0.2-1.3 .2-1.7c.5-0.4 1.2-0.5 1.7-0.2Z" fill="#b884b1" transform="translate(-1,-14.8)"/></g><g><path d="M17.2 2.8c.1-0.2 .3-0.4 .4-0.5c.2-0.1 .4-0.1 .6-0.2c.2 0 .4 0 .5 .1c.2 0 .4 .1 .6 .3c.1-0.1 .2-0.2 .4-0.2c.1-0.1 .3-0.1 .4 0c.2 0 .3 0 .5 .1c.1 .1 .3 .1 .4 .3c.1-0.1 .3-0.1 .5-0.1c.1 0 .3 0 .5 .1c.1 .1 .3 .2 .4 .3c.1 .1 .2 .3 .3 .4c.1 0 .2 0 .3 0c.1 0 .2 0 .3 0c.1 0 .2 0 .3 .1c0 0 .1 0 .2 .1c.3-0.2 .6-0.3 .9-0.4c.3 0 .6 .1 .9 .3c.2 .2 .4 .5 .5 .8c.1 .3 0 .6-0.1 .9c.2 0 .5 .1 .7 .2c.2 .2 .4 .4 .5 .6c.1 .2 .1 .5 .1 .7c0 .3-0.1 .5-0.3 .7v.2c0 .5-0.3 1-0.7 1.2c0 .1 0 .3 0 .5c0 .1-0.1 .3-0.2 .4c0 .1-0.1 .3-0.3 .4c-0.1 .1-0.2 .1-0.4 .2c-0.1 .2-0.3 .4-0.5 .5c-0.2 .2-0.4 .3-0.6 .3c-0.3 0-0.5-0.1-0.8-0.2c-0.2-0.1-0.4-0.3-0.5-0.5c-0.1 0-0.2 .1-0.3 .1c-0.1 0-0.2-0.1-0.3-0.1c-0.1 0-0.2-0.1-0.3-0.1c-0.1-0.1-0.2-0.1-0.3-0.2c-0.2 0-0.5-0.1-0.7-0.2c-0.1 .2-0.3 .3-0.5 .3c0 .2 0 .3 0 .5c0 .1 0 .3-0.1 .4c0 .2-0.1 .3-0.2 .4c-0.1 .1-0.2 .2-0.3 .3v.2c0 .3-0.2 .7-0.4 .9c-0.2 .2-0.5 .4-0.8 .4c-0.4 .1-0.7 0-1-0.2c-0.3-0.2-0.5-0.5-0.5-0.8h-0.1c-0.2 0-0.4 0-0.6-0.1c-0.1-0.1-0.3-0.2-0.4-0.4c-0.2-0.1-0.2-0.3-0.3-0.5c-0.1-0.2-0.1-0.4 0-0.6c-0.1 0-0.1 0-0.1-0.1c0 0-0.1 0-0.1 0c0-0.1 0-0.1 0-0.1c0-0.1-0.1-0.1-0.1-0.1h-0.1c-0.2 0-0.4-0.1-0.6-0.1c-0.2 .4-0.7 .7-1.2 .7c-0.1 .3-0.2 .5-0.3 .7c-0.2 .1-0.4 .3-0.6 .3c-0.2 .1-0.5 .1-0.7 .1c-0.2 0-0.4-0.1-0.6-0.3c-0.2 .2-0.5 .3-0.7 .3c-0.1 .1-0.2 .3-0.3 .4c-0.2 .1-0.3 .2-0.5 .2c-0.1 .1-0.3 .1-0.4 .1c-0.2 0-0.3 0-0.5-0.1v.1c0 .5-0.2 .8-0.5 1.1c-0.3 .3-0.7 .4-1.1 .3c-0.4-0.1-0.8-0.3-1-0.7c-0.2-0.3-0.2-0.7 0-1.1c-0.2-0.1-0.4-0.3-0.5-0.4c-0.1-0.2-0.2-0.4-0.2-0.6c0-0.2 0-0.3 0-0.5c.1-0.2 .2-0.4 .3-0.6c-0.1-0.1-0.2-0.3-0.3-0.5c0-0.2 0-0.4 .1-0.6c0-0.2 .1-0.4 .2-0.6c.2-0.1 .3-0.2 .5-0.3c-0.1-0.2-0.1-0.4-0.1-0.6c0-0.6 .4-1.2 .9-1.3c0-0.2-0.1-0.4-0.1-0.6c.1-0.2 .1-0.4 .2-0.6c.1-0.1 .2-0.3 .4-0.4c.1-0.1 .3-0.2 .5-0.3c.1-0.2 .2-0.3 .3-0.5c.2-0.1 .4-0.3 .6-0.3c.2-0.1 .4-0.1 .6-0.1c.2 .1 .4 .1 .6 .3c.1-0.3 .2-0.6 .4-0.8c.3-0.1 .5-0.3 .8-0.3c.3 0 .6 0 .8 .2c.3 .1 .5 .3 .6 .6c0-0.2 .2-0.5 .3-0.6c.2-0.2 .4-0.4 .6-0.4c.3-0.1 .5-0.1 .8 0c.2 0 .4 .1 .6 .3c.1 0 .1 0 .2 0c0 0 .1 0 .1 0c.1 0 .1 0 .2 0c0 0 .1 0 .1 0c.1 0 .2-0.1 .3-0.1c.1 0 .2-0.1 .3-0.1c.1 0 .2 0 .3 0c.1 0 .2 0 .3 0Z" fill="#974581"/><path d="M11.1 10.3c.1-0.6 .6-1.2 1.3-1.2c.6-0.1 1.2 .3 1.4 .9c.2 .6-0.1 1.3-0.6 1.6c-0.6 .4-1.3 .2-1.7-0.3c-0.1 .7-0.6 1.2-1.3 1.3c-0.6 0-1.2-0.4-1.4-1c-0.2-0.6 .1-1.3 .6-1.6c.6-0.3 1.3-0.2 1.7 .3Zm7-2.5c.1-0.3 .4-0.6 .7-0.7c.3-0.2 .7-0.2 1.1-0.1c.3 .1 .6 .4 .7 .7c.2 .3 .2 .7 .1 1c.2 .3 .2 .6 .1 .9c0 .3-0.2 .6-0.4 .8c-0.2 .2-0.5 .3-0.8 .4c-0.3 0-0.6-0.1-0.9-0.3l-0.3 .1c-0.3 0-0.5-0.1-0.7-0.2c-0.2 .5-0.8 .8-1.3 .8c-0.6 0-1.1-0.4-1.3-0.9c-0.1-0.6 0-1.2 .5-1.5c.4-0.4 1-0.4 1.5-0.2c.2-0.4 .6-0.7 1-0.8Zm2.4-3.3c-0.5 .3-1 .3-1.5 .1c-0.4-0.3-0.7-0.8-0.7-1.3c.1-0.5 .4-1 .9-1.2c.4-0.2 1-0.1 1.4 .2c.1-0.1 .3-0.1 .5-0.2c.1 0 .3 0 .5 0c.1 0 .3 .1 .5 .2c.1 .1 .2 .2 .3 .3c.2 0 .3 0 .4 0c.1 0 .2 0 .4 0c.1 0 .2 .1 .3 .1c.1 .1 .2 .1 .3 .2c.2-0.1 .5-0.1 .7-0.1c.3 0 .5 .1 .7 .3c.2 .1 .4 .4 .5 .6c0 .2 .1 .5 0 .7c.3 .2 .6 .5 .7 .8c.1 .3 .1 .7-0.1 1c-0.1 .3-0.4 .6-0.7 .7c-0.3 .1-0.7 .1-1 0c0 .4-0.2 .7-0.4 .9c.1 .5 0 1-0.3 1.3c-0.4 .4-0.9 .5-1.4 .4c-0.5-0.1-0.8-0.5-1-1c-0.1-0.5 .1-1 .4-1.3c0-0.3 0-0.5 0-0.8c.1-0.2 .2-0.5 .4-0.6c.2-0.2 .5-0.3 .7-0.4c.3 0 .5 0 .8 .1v-0.1c0 0-0.1 0-0.1 0c0-0.1 0-0.1-0.1-0.1c0 0 0 0-0.1 0c0-0.1 0-0.1 0-0.1c-0.2 .1-0.3 .1-0.5 .1c-0.1 0-0.3 0-0.5 0c-0.1-0.1-0.3-0.1-0.4-0.2c-0.1-0.1-0.2-0.2-0.3-0.4c-0.1 .1-0.2 .1-0.4 .1c-0.1 0-0.2 0-0.3 0c-0.1 0-0.2 0-0.3-0.1c-0.1 0-0.2-0.1-0.3-0.2Zm-7.6 .6c.1-0.2 .3-0.4 .5-0.6c.2-0.1 .5-0.2 .7-0.2c.3 0 .6 .1 .8 .3c.2 .1 .4 .3 .5 .6c.5-0.2 1.1-0.1 1.5 .3c.4 .4 .5 1 .3 1.5c-0.2 .5-0.7 .8-1.3 .8c-0.6 0-1.1-0.3-1.3-0.8c0 0-0.1 0-0.2 0c-0.1 .1-0.2 .1-0.2 .1c-0.1 0-0.2 0-0.3 0c0 0-0.1-0.1-0.2-0.1c-0.1 .2-0.3 .4-0.5 .6c0 .2-0.2 .5-0.3 .6c-0.2 .2-0.4 .4-0.7 .4c-0.2 .1-0.5 .1-0.7 0c-0.3 0-0.5-0.2-0.7-0.4c-0.1 .2-0.2 .3-0.3 .4c-0.2 .2-0.4 .2-0.6 .3c-0.1 0-0.3 0-0.5 0c-0.2 0-0.4-0.1-0.5-0.2c-0.4 .3-1 .4-1.5 .2c-0.5-0.2-0.8-0.6-0.8-1.2c-0.1-0.5 .2-1 .7-1.2c.4-0.3 1-0.3 1.4 0c.2-0.1 .3-0.2 .5-0.2c.2-0.1 .3-0.1 .5-0.1c.2 0 .4 0 .5 .1c.2 .1 .3 .2 .5 .3c.1-0.2 .2-0.3 .4-0.4c.1-0.2 .1-0.4 .2-0.6c.1-0.1 .3-0.3 .5-0.4c.1-0.1 .3-0.1 .5-0.1c.2-0.1 .4-0.1 .6 0Z" fill="#b25f9e"/><path d="M8.8 8.7c.2-0.4 .6-0.7 1.1-0.8c.5-0.1 1 .2 1.3 .6c.3 .4 .3 .9 .1 1.3c-0.2 .5-0.6 .8-1.1 .8c-0.2 .5-0.7 .8-1.1 .9c-0.5 0-1-0.2-1.3-0.6c-0.3-0.4-0.4-0.9-0.1-1.4c.2-0.4 .6-0.7 1.1-0.8Zm10.8-7.3c.2-0.1 .3-0.2 .5-0.3c.2 0 .4 0 .6 0c.1 .1 .3 .2 .5 .3c.1 .1 .3 .2 .3 .4c.2-0.1 .3-0.1 .4-0.1c.1 0 .3 0 .4 .1c.1 0 .2 .1 .3 .1c.1 .1 .2 .2 .3 .3c.2-0.1 .4-0.2 .6-0.2c.2 0 .4 0 .6 .1c.2 .1 .4 .2 .5 .4c.2 .2 .3 .4 .3 .6h.1c.2 0 .4 .1 .6 .1c.2 .1 .3 .2 .4 .4c.2 .1 .3 .3 .3 .4c.1 .2 .1 .4 .1 .6c.3 .1 .6 .3 .7 .6c.2 .3 .2 .7 .1 1c0 .3-0.2 .6-0.5 .8c-0.3 .2-0.6 .3-0.9 .2c0 .1 0 .2 0 .3c0 .6-0.4 1.2-1 1.3c0 .3-0.2 .6-0.4 .8c-0.2 .2-0.4 .4-0.7 .4c-0.3 .1-0.6 0-0.9-0.1c-0.3-0.2-0.5-0.4-0.6-0.7c-0.2 .3-0.4 .5-0.6 .6c-0.3 .1-0.6 .1-0.9 .1c-0.3-0.1-0.5-0.3-0.7-0.5c-0.2-0.2-0.3-0.4-0.3-0.7c-0.1 .1-0.2 .2-0.4 .3c-0.1 .1-0.2 .1-0.4 .2c-0.1 0-0.3 0-0.4 0c-0.2 0-0.3 0-0.5-0.1c-0.1 .6-0.6 1-1.1 1.1c-0.6 .1-1.2-0.2-1.4-0.7c-0.3-0.5-0.2-1.2 .2-1.6c.4-0.4 1-0.5 1.5-0.3c.1-0.6 .6-1 1.2-1.1c.1-0.2 .3-0.4 .6-0.5c.3-0.1 .6-0.1 .8-0.1c.3 .1 .6 .3 .8 .5c.1 .2 .2 .5 .3 .7h.1c.6 0 1 .3 1.3 .8c.1-0.3 .4-0.5 .8-0.6c0-0.2 0-0.3 .1-0.5c.1-0.1 .2-0.3 .4-0.4c.1-0.1 .3-0.2 .4-0.2c.2-0.1 .4-0.1 .5-0.1c0 0 0 0 0-0.1c0 0 0 0 0-0.1c0 0 0 0 0 0c0-0.1 0-0.1 0-0.1c-0.1-0.1-0.2-0.1-0.3-0.2c-0.1-0.1-0.2-0.2-0.2-0.3c-0.1 0-0.2-0.1-0.2-0.2c-0.1-0.2-0.1-0.3-0.1-0.4c-0.1 0-0.2 0-0.3 0c-0.1 0-0.2 0-0.3-0.1c-0.1 0-0.2-0.1-0.3-0.1c-0.1-0.1-0.2-0.2-0.3-0.2c-0.1 .1-0.3 .1-0.4 .1c-0.2 .1-0.4 .1-0.6 0c-0.1 0-0.3-0.1-0.4-0.2c-0.2-0.1-0.3-0.2-0.4-0.4c-0.1 0-0.2 .1-0.3 .1c-0.1 0-0.1 0-0.2-0.1c-0.1 0-0.2 0-0.3 0c-0.1-0.1-0.2-0.1-0.2-0.2c-0.1 .1-0.2 .2-0.4 .2c-0.1 0-0.2 .1-0.3 .1c-0.1 0-0.2 0-0.3 0c-0.2 0-0.3-0.1-0.4-0.1c-0.1 .1-0.3 .3-0.4 .4c-0.2 .1-0.4 .2-0.6 .2c-0.3 0-0.5-0.1-0.7-0.2c-0.2 0-0.3-0.2-0.5-0.3c0 .2-0.1 .4-0.3 .6c-0.2 .2-0.4 .3-0.6 .4c-0.2 0-0.5 0-0.7 0c-0.3-0.1-0.5-0.2-0.6-0.4c-0.1 .1-0.3 .1-0.4 .1c-0.1 .1-0.2 .1-0.3 .1c-0.2 0-0.3-0.1-0.4-0.1c-0.1 0-0.2-0.1-0.3-0.2c-0.2 .4-0.4 .7-0.8 .8c.4 .3 .6 .7 .6 1.2c0 .4-0.2 .8-0.5 1.1c-0.4 .3-0.9 .3-1.3 .2c-0.4-0.2-0.7-0.5-0.9-0.9c-0.2 .4-0.6 .6-1 .7c-0.4 .1-0.9-0.1-1.2-0.4c-0.3-0.4-0.4-0.8-0.3-1.3c.1-0.4 .4-0.8 .8-0.9c-0.2-0.3-0.3-0.7-0.2-1c0-0.4 .2-0.7 .5-0.9c.3-0.2 .6-0.3 1-0.3c.3 .1 .7 .2 .9 .5c.1-0.2 .2-0.3 .4-0.4c.1-0.1 .3-0.1 .4-0.2c.2 0 .4 0 .6 0c.1 .1 .3 .2 .4 .2c.1-0.2 .3-0.4 .4-0.5c.2-0.2 .4-0.3 .6-0.3c.2-0.1 .5-0.1 .7 0c.2 0 .4 .2 .6 .3c.1-0.1 .3-0.1 .4-0.1c.2 0 .3 0 .5 0c.1 0 .3 .1 .4 .2c.1 0 .3 .1 .4 .3c0-0.2 .1-0.4 .2-0.6c.2-0.1 .3-0.3 .5-0.3c.2-0.1 .4-0.2 .6-0.2c.2 0 .4 .1 .5 .1c.1-0.1 .3-0.2 .4-0.3c.2-0.1 .3-0.2 .5-0.2c.2-0.1 .4-0.1 .5 0c.2 0 .4 .1 .5 .2Z" fill="#b884b1"/></g><g><path d="M19.7 10.2v-0.1c0-0.3 0-0.5 .2-0.8c.1-0.2 .3-0.4 .6-0.5c.2-0.1 .5-0.1 .7-0.1c.3 .1 .5 .2 .7 .4c.2-0.1 .3-0.1 .4-0.2c.2 0 .3 0 .5 .1c.1 0 .2 0 .4 .1c.1 .1 .2 .2 .3 .3c.2-0.1 .4-0.2 .6-0.2c.4 0 .8 .3 1.1 .6h.1c.6 0 1 .3 1.2 .7c.2-0.1 .3-0.2 .5-0.2c.1-0.1 .3-0.1 .4-0.1c.2 0 .4 0 .5 .1c.2 0 .3 .1 .5 .2c.1 0 .2 0 .3-0.1c.1 0 .3 0 .4 0c.1 .1 .3 .1 .4 .2c.1 0 .2 .1 .3 .2c.3-0.1 .6-0.2 .8-0.1c.3 .1 .6 .2 .8 .5c.2 .2 .3 .5 .3 .8c0 .3-0.1 .6-0.3 .8c.1 .2 .2 .4 .2 .6c.2 0 .3 .1 .4 .2c.1 .1 .2 .3 .3 .4c.1 .1 .1 .3 .1 .4c0 .2 0 .4 0 .5c.5 .2 .9 .7 .9 1.3c.3 .1 .4 .3 .6 .5c.1 .2 .2 .4 .2 .6c0 .3 0 .5-0.1 .7c-0.1 .2-0.3 .4-0.5 .6c.1 .2 .2 .4 .2 .6c-0.1 .2-0.1 .4-0.2 .6c-0.1 .2-0.3 .3-0.4 .4c-0.2 .2-0.4 .2-0.6 .3c-0.2 .3-0.5 .6-0.8 .7v.1c0 .6-0.4 1.1-1 1.3c.1 .2 .1 .4 0 .7c0 .2-0.1 .4-0.3 .5c-0.1 .2-0.3 .3-0.5 .4c-0.2 .1-0.4 .1-0.6 .1c-0.1 .2-0.2 .5-0.4 .6c-0.2 .2-0.5 .3-0.7 .3c-0.3 .1-0.5 .1-0.7 0c-0.3-0.1-0.5-0.3-0.6-0.5c-0.3 0-0.6-0.1-0.8-0.2c-0.2 0-0.3 0-0.5-0.1c-0.1-0.1-0.3-0.2-0.4-0.3c-0.1-0.1-0.2-0.2-0.3-0.4c0-0.1-0.1-0.3-0.1-0.4c-0.1 0-0.2 .1-0.4 .1c-0.1 0-0.2 0-0.4 0c-0.1 0-0.2-0.1-0.3-0.1c-0.2-0.1-0.3-0.1-0.4-0.2c-0.1 0-0.3 0-0.4 0c-0.2 0-0.4 0-0.5-0.1c-0.2 0-0.3-0.1-0.4-0.2c-0.2-0.1-0.3-0.3-0.3-0.4c-0.3 .2-0.6 .3-0.9 .4c-0.1 .1-0.1 .3-0.3 .4c-0.1 .2-0.2 .3-0.3 .4c-0.2 0-0.4 .1-0.5 .1c-0.2 0-0.4 0-0.6 0c-0.1 .1-0.2 .2-0.4 .2c-0.1 .1-0.3 .1-0.4 .1c-0.2 0-0.3 0-0.5-0.1c-0.1 0-0.3-0.1-0.4-0.2c-0.2 .1-0.5 .2-0.7 .2c-0.3 0-0.6-0.1-0.8-0.2c-0.2-0.2-0.4-0.4-0.5-0.6c-0.1-0.2-0.2-0.5-0.1-0.8c-0.2-0.2-0.3-0.5-0.3-0.8c-0.3-0.1-0.5-0.2-0.7-0.4c-0.1 .1-0.3 .1-0.5 .1c-0.2 0-0.3 0-0.5-0.1c-0.1 0-0.3-0.1-0.4-0.2c-0.2-0.1-0.3-0.3-0.3-0.4c-0.2 0-0.4-0.1-0.5-0.1c-0.2-0.1-0.4-0.2-0.5-0.4c-0.1-0.1-0.2-0.3-0.2-0.4c-0.1-0.2-0.1-0.4-0.1-0.6l-0.1-0.1c-0.2 .1-0.3 .1-0.5 .1c-0.2 0-0.4-0.1-0.6-0.2c-0.2 0-0.3-0.2-0.4-0.3c-0.1-0.2-0.2-0.3-0.3-0.5c-0.3-0.1-0.5-0.2-0.7-0.4c-0.2 .1-0.5 .1-0.7 .1c-0.2 0-0.4-0.1-0.6-0.2c-0.2-0.1-0.3-0.3-0.5-0.5c-0.1-0.2-0.1-0.4-0.1-0.6c-0.5 0-0.9-0.2-1.1-0.6c-0.3-0.4-0.4-0.8-0.2-1.2c.1-0.4 .4-0.8 .9-0.9c.4-0.1 .8 0 1.2 .2c.1-0.2 .3-0.4 .5-0.5c-0.1-0.3-0.2-0.7-0.1-1c.1-0.4 .3-0.7 .6-0.9c.3-0.2 .7-0.2 1-0.1c.4 0 .7 .3 .9 .5c0-0.2 0-0.5 .2-0.7c.1-0.2 .3-0.4 .6-0.5c.2-0.1 .5-0.1 .8-0.1c.2 .1 .5 .2 .7 .4c0-0.2 .1-0.3 .3-0.4c.1-0.1 .2-0.2 .3-0.2c.2-0.1 .3-0.1 .5-0.1c.1 0 .3 0 .4 0c.1-0.2 .3-0.5 .5-0.7c.2-0.1 .5-0.2 .8-0.2c.3-0.1 .6 0 .8 .2c.3 .1 .4 .4 .5 .6c.6 .1 1.1 .5 1.2 1.1c0-0.2 .1-0.3 .2-0.5c.1-0.1 .2-0.3 .4-0.4c.1-0.1 .3-0.2 .4-0.2c.2 0 .4-0.1 .6 0Zm-1.6 1.6c0 .1 0 .2 0 .3h.1c0-0.1 0-0.1 0-0.1c0 0 0 0 0-0.1c0 0 0 0 0 0c-0.1 0-0.1-0.1-0.1-0.1Z" fill="#974581"/><path d="M21 10.9c-0.1-0.4-0.1-0.8 .1-1.1c.2-0.3 .5-0.5 .9-0.6c.3-0.1 .7 0 1 .2c.3 .1 .6 .4 .6 .8c.1-0.2 .2-0.4 .4-0.5c.2-0.2 .4-0.3 .6-0.3c.2-0.1 .4-0.1 .6 0c.2 0 .4 .1 .6 .2c.1 0 .2 0 .4 0c.1 0 .2 0 .3 0c.1 0 .3 .1 .4 .1c.1 .1 .2 .1 .3 .2c.1-0.1 .2-0.2 .3-0.2c.1-0.1 .3-0.1 .4-0.1c.2 0 .3 0 .4 0c.2 0 .3 0 .4 .1c.1 0 .3-0.1 .4-0.1c.2 0 .3 0 .4 .1c.2 0 .3 .1 .4 .1c.1 .1 .2 .2 .3 .3c.2 0 .4 0 .6 .1c.1 .1 .3 .2 .4 .4c.1 .1 .2 .3 .2 .5c.1 .1 .1 .3 .1 .5c.5 .2 .8 .7 .8 1.2c.3 .2 .5 .5 .6 .8c0 .4 0 .8-0.2 1.1c-0.2 .3-0.6 .5-0.9 .6c-0.4 0-0.7-0.1-1-0.3v.1c0 .7-0.5 1.3-1.1 1.4c.2 .2 .4 .5 .5 .8c0 .3 0 .6-0.2 .9c-0.1 .3-0.3 .5-0.6 .6c-0.3 .1-0.6 .2-0.9 .1c-0.3 .3-0.6 .4-1 .5c.2 .2 .4 .5 .4 .8c.1 0 .2 0 .3 .1c.2-0.5 .7-0.9 1.2-0.9c.5 0 1 .3 1.3 .8c.2 .4 .2 1-0.2 1.4c-0.3 .4-0.9 .6-1.4 .5c-0.1 .3-0.3 .5-0.6 .7c-0.2 .1-0.6 .2-0.9 .1c-0.3 0-0.6-0.2-0.8-0.4c-0.2-0.2-0.3-0.5-0.3-0.9c-0.1 0-0.2 0-0.4 0c.2 .2 .3 .4 .4 .7c0 .3 0 .5-0.2 .8c-0.1 .2-0.2 .4-0.5 .5c-0.2 .2-0.4 .3-0.7 .3c-0.2 0-0.4-0.1-0.6-0.2c-0.2 0-0.3-0.2-0.4-0.3c-0.2-0.1-0.3-0.3-0.3-0.5c-0.1-0.2-0.1-0.4-0.1-0.6c-0.1 0-0.1-0.1-0.2-0.2c-0.1-0.1-0.1-0.2-0.2-0.3c0-0.1 0-0.2 0-0.3c-0.1-0.1-0.1-0.2-0.1-0.3c-0.2 0-0.4-0.1-0.6-0.2c-0.2-0.2-0.3-0.3-0.4-0.5c-0.1-0.2-0.2-0.4-0.2-0.6c0-0.3 .1-0.5 .2-0.7c-0.2-0.1-0.4-0.3-0.5-0.5c-0.2-0.2-0.2-0.4-0.2-0.7c0-0.2 0-0.5 .2-0.7c.1-0.2 .3-0.4 .5-0.5h-0.1c-0.6 0-1-0.3-1.3-0.8c-0.2-0.4-0.1-1 .2-1.4c.3-0.4 .8-0.6 1.3-0.5c.5 .1 .9 .5 1.1 1c0-0.2 .1-0.4 .3-0.5c.1-0.2 .3-0.3 .4-0.4c.2-0.1 .4-0.1 .6-0.1c.2 0 .4 0 .6 .1c.1-0.2 .3-0.3 .5-0.4c.2-0.1 .5-0.1 .7-0.1c.3 0 .5 .1 .7 .3c.2 .1 .3 .3 .4 .5c.2 .1 .3 .2 .5 .3c0-0.2 .1-0.4 .3-0.5c.1-0.2 .3-0.3 .5-0.4c.2-0.1 .4-0.1 .6-0.1c.2 0 .4 .1 .6 .2c-0.1-0.1-0.2-0.2-0.2-0.3c-0.1-0.1-0.2-0.2-0.2-0.3c-0.1-0.1-0.1-0.2-0.1-0.3c0-0.2 0-0.3 0-0.4c-0.2-0.1-0.4-0.2-0.5-0.3c-0.2 0-0.4-0.1-0.5-0.2c-0.1 .1-0.3 .1-0.4 .1c-0.1 0-0.2 0-0.4 0c-0.1 0-0.2-0.1-0.3-0.1c-0.1-0.1-0.2-0.2-0.3-0.2c-0.1 .1-0.3 .2-0.4 .2c-0.2 .1-0.3 .1-0.5 .1c-0.2 0-0.3 0-0.5-0.1c-0.1 0-0.3-0.1-0.4-0.2c-0.2 .1-0.4 .1-0.6 .1c-0.2 0-0.4-0.1-0.5-0.2c-0.2-0.1-0.4-0.2-0.5-0.4c-0.1-0.1-0.2-0.3-0.2-0.5c-0.1 .3-0.4 .6-0.7 .7c.2 .5 0 1.1-0.4 1.4c-0.4 .4-1 .4-1.4 .2c-0.5-0.2-0.8-0.7-0.9-1.2c0-0.5 .3-1 .8-1.2Zm-5.5 7.6c.2-0.3 .5-0.5 .8-0.5c.3-0.1 .6-0.1 .9 0c.3 .2 .5 .4 .6 .7c.2 .3 .2 .6 .1 .9c.4-0.6 1.2-0.9 1.8-0.6c.7 .4 1 1.1 .7 1.8c-0.3 .6-1 1-1.7 .8c-0.7-0.2-1.1-0.9-0.9-1.6c-0.1 .1-0.2 .2-0.3 .3c0 .1-0.1 .2-0.3 .2c-0.1 .1-0.2 .1-0.3 .2c-0.1 0-0.3 0-0.4 0c-0.3 .4-0.8 .6-1.2 .5c-0.5-0.1-0.9-0.4-1.1-0.8c-0.2-0.4-0.2-0.9 .1-1.3c.3-0.4 .7-0.7 1.2-0.6Zm10.6-0.9c-0.1 .1-0.2 .2-0.3 .3c-0.1 .1-0.2 .1-0.4 .2c-0.1 0-0.2 0-0.4 0c-0.1 0-0.2 0-0.4 0c-0.1 .2-0.3 .3-0.5 .4v.1c.4 .3 .7 .7 .7 1.2v.1c.1 0 .2 .1 .4 .1c.1-0.6 .6-1 1.2-1.1c-0.1-0.1-0.2-0.2-0.2-0.3c-0.1-0.1-0.1-0.2-0.1-0.3c-0.1-0.1-0.1-0.3-0.1-0.4c0-0.1 .1-0.2 .1-0.3Zm-8.8-6.7c.3-0.4 .7-0.6 1.2-0.7c.4 0 .8 .3 1.1 .6c.3 .4 .3 .9 .1 1.3c-0.1 .5-0.5 .8-1 .9c.1 .1 .1 .3 .1 .5c0 .1 0 .3-0.1 .5c-0.1 .1-0.2 .3-0.3 .4c-0.1 .1-0.3 .2-0.4 .3c0 .1 .1 .3 .1 .5v.1c.3-0.7 1-1 1.7-0.7c.6 .2 1 .9 .8 1.6c-0.1 .7-0.8 1.1-1.5 1c-0.7-0.1-1.2-0.7-1.2-1.4c0 .1-0.2 .3-0.3 .4c-0.2 .2-0.3 .3-0.5 .3c-0.2 .1-0.4 .1-0.6 0c-0.2 0-0.4-0.1-0.6-0.2c.1 .5 0 1-0.4 1.4c-0.3 .3-0.9 .4-1.3 .2c-0.5-0.1-0.9-0.5-0.9-1c-0.1-0.5 0-1 .4-1.3c-0.1-0.1-0.2-0.3-0.2-0.4c-0.1 0-0.1 0-0.1 0c0 0 0 0-0.1 0c0 0 0 0 0 0c0 .1-0.1 .1-0.1 .1c-0.2 .3-0.6 .5-1 .6c-0.1 .2-0.3 .4-0.6 .5c-0.2 .1-0.5 .2-0.8 .1c-0.2 0-0.5-0.1-0.7-0.3c-0.2-0.2-0.3-0.4-0.4-0.7c-0.1 .2-0.2 .4-0.4 .5c-0.1 .1-0.3 .2-0.5 .3c-0.2 0-0.5 0-0.7 0c-0.2-0.1-0.3-0.2-0.5-0.3c-0.2 .1-0.5 .2-0.8 .2c-0.3 0-0.5-0.1-0.8-0.2c-0.2-0.2-0.4-0.4-0.5-0.7c-0.1-0.2-0.1-0.5 0-0.8c0-0.1 0-0.3 0-0.4c0-0.1 0-0.2 .1-0.4c0-0.1 .1-0.2 .2-0.3c0-0.1 .1-0.2 .2-0.3c0-0.5 .4-1 .9-1.2c0-0.3 .2-0.6 .4-0.8c.2-0.2 .5-0.4 .9-0.4c.3 0 .6 .1 .8 .3c.3 .1 .5 .4 .6 .7c0-0.1 .1-0.1 .2-0.2c.1 0 .3-0.1 .4-0.1c.1 0 .2-0.1 .3-0.1c.1 0 .2 .1 .4 .1c.1-0.2 .3-0.4 .5-0.5c.3-0.1 .5-0.2 .8-0.2c.3 .1 .5 .2 .7 .4c.2 .1 .3 .3 .4 .6c.1 0 .1 .1 .1 .2c.1-0.2 .2-0.4 .3-0.5c.1-0.1 .2-0.3 .4-0.3c.1-0.1 .3-0.2 .5-0.2c.2 0 .3 0 .5 0c.1-0.1 .3-0.3 .5-0.4c.2-0.1 .4-0.1 .6-0.1c.2-0.1 .4 0 .6 .1c.2 .1 .4 .2 .5 .4Zm9.1 6c-0.1 .1-0.1 .1-0.1 .1c0 0 0 .1 0 .1c0 0 0 0 0 0c0 .1 0 .1 0 .1c0-0.1 .1-0.1 .2-0.2c-0.1 0-0.1 0-0.1 0c0 0 0 0 0 0c0 0 0 0 0 0c0 0 0 0 0-0.1Zm2-0.8v.1h.1c0 0 0 0 0 0c0 0 0 0 0 0c0 0 0 0-0.1 0c0-0.1 0-0.1 0-0.1Zm-5-0.3v.1v-0.1Z" fill="#b25f9e"/><path d="M15.2 17.7c.1-0.3 .2-0.5 .4-0.7c.2-0.2 .4-0.3 .7-0.3c.3-0.1 .5-0.1 .8 0c.2 .2 .4 .3 .6 .5c.2 0 .4 0 .6 0c.2 0 .3 .1 .5 .2c.2 .1 .3 .3 .4 .4c.1 .2 .2 .4 .2 .6c.1 0 .2-0.1 .3-0.1c.4 0 .7 .2 .9 .4c.2-0.1 .3-0.1 .4-0.1c.2 0 .3 0 .4 0c.1 .1 .2 .1 .4 .2c.1 .1 .2 .1 .3 .2h.1c.3 0 .5 .1 .7 .2c.2-0.3 .5-0.5 .8-0.5c.2-0.3 .4-0.5 .6-0.6c.2-0.1 .5-0.2 .8-0.2c.3 .1 .5 .2 .7 .4c.3 .2 .4 .4 .5 .7c0-0.3 .1-0.5 .3-0.7c.2-0.2 .4-0.4 .7-0.4c.2-0.1 .5-0.1 .7 0c.3 .1 .5 .2 .7 .4c.1-0.1 .2-0.1 .4-0.1c.1 0 .2 0 .4 0c.1 .1 .2 .1 .4 .2c.1 .1 .2 .2 .3 .3v-0.2c0-0.6 .5-1.2 1.1-1.3c.7-0.1 1.3 .2 1.5 .9c.3 .6 0 1.3-0.5 1.6c-0.6 .3-1.3 .2-1.8-0.3v.2c0 .2-0.1 .5-0.2 .7c-0.2 .3-0.4 .5-0.7 .5c-0.2 .1-0.5 .2-0.8 .1c-0.2-0.1-0.5-0.2-0.7-0.4c-0.1 0-0.3 .1-0.5 .1c-0.2 0-0.4-0.1-0.6-0.2c-0.2-0.1-0.3-0.2-0.4-0.3c-0.2-0.2-0.2-0.4-0.3-0.5c0 .2-0.2 .5-0.3 .6c.5 .2 .9 .6 1 1.1c.1 .6-0.2 1.1-0.6 1.4c-0.5 .3-1 .3-1.5 0c-0.5-0.3-0.7-0.8-0.6-1.3c-0.1 0-0.2 0-0.3 0c-0.1 0-0.1 0-0.2 0c-0.1 0-0.2-0.1-0.2-0.1c-0.1 0-0.2 0-0.3-0.1c-0.1 .2-0.2 .3-0.4 .4c-0.2 .1-0.4 .2-0.6 .2c-0.2 0-0.4-0.1-0.6-0.1c-0.2-0.1-0.3-0.2-0.5-0.4l-0.1 .1c-0.4 0-0.7-0.2-0.9-0.4c-0.2 .1-0.3 .1-0.4 .1c-0.7 0-1.3-0.5-1.4-1.2c0 .3-0.2 .6-0.4 .8c-0.2 .2-0.5 .4-0.8 .4c-0.3 .1-0.6 0-0.8-0.1c-0.3-0.2-0.5-0.4-0.6-0.7h-0.1c-0.3 0-0.6-0.1-0.8-0.3c-0.3-0.2-0.5-0.5-0.5-0.8c-0.1-0.3 0-0.6 .1-0.9c.2-0.3 .4-0.5 .7-0.6Zm-2.4-4.8c.1-0.3 .3-0.5 .6-0.6c.2-0.1 .5-0.2 .8-0.2c.2 .1 .5 .2 .7 .4c.2 .2 .4 .4 .4 .7c.2-0.1 .5-0.2 .7-0.2c.2 .1 .5 .1 .7 .3c.2 .1 .3 .3 .4 .5c.1 .2 .2 .4 .2 .6c0 .4-0.1 .7-0.4 .9c-0.2 .3-0.5 .4-0.8 .5c-0.3 0-0.7-0.1-1-0.3c-0.2-0.1-0.4-0.4-0.5-0.8c-0.1 .1-0.3 .2-0.5 .2c-0.1 .1-0.2 .3-0.3 .4c-0.2 .2-0.4 .2-0.6 .3c-0.2 0-0.4 0-0.6 0c-0.2-0.1-0.4-0.2-0.5-0.3c-0.2 .1-0.3 .2-0.5 .3c-0.2 .1-0.4 .1-0.5 .1c-0.2 0-0.4 0-0.6-0.1c-0.2-0.1-0.3-0.2-0.4-0.3c-0.1 .1-0.3 .1-0.4 .2c-0.2 0-0.3 .1-0.5 .1c-0.1 0-0.3 0-0.4-0.1c-0.2 0-0.3-0.1-0.4-0.2c-0.2 .2-0.4 .3-0.7 .4c0 .5-0.3 1-0.7 1.2c-0.5 .2-1.1 .2-1.5-0.1c-0.4-0.3-0.6-0.9-0.5-1.4c.1-0.5 .5-0.9 1-1c0-0.3 0-0.6 .2-0.8c.1-0.2 .3-0.4 .5-0.5c.3-0.1 .5-0.2 .8-0.1c.3 0 .5 .1 .7 .3c.1-0.2 .3-0.3 .5-0.4c.1 0 .3-0.1 .5-0.1c.2 0 .4 .1 .6 .1c.1 .1 .3 .2 .4 .4c.1-0.1 .3-0.2 .4-0.3c.2 0 .3 0 .5 0c.1 0 .3 0 .4 0c.2 .1 .3 .2 .5 .3c.2-0.2 .5-0.4 .8-0.4Zm12.5-0.1c.2-0.2 .4-0.4 .6-0.5c.3-0.1 .6-0.1 .9 0c.2 .1 .5 .2 .7 .5c.1 .2 .2 .4 .3 .7c.5 .1 1 .4 1.1 .9c.2 .5 .1 1.1-0.3 1.4c-0.3 .4-0.9 .5-1.4 .4c-0.5-0.2-0.9-0.7-0.9-1.2c-0.1 0-0.2 0-0.3-0.1c-0.1 .2-0.3 .3-0.4 .4c-0.1 .1-0.3 .1-0.5 .2c-0.1 0-0.3 0-0.5 0c-0.1-0.1-0.3-0.1-0.4-0.2c-0.3 .5-0.8 .8-1.4 .7c-0.5 0-1-0.4-1.2-1c-0.1-0.5 .1-1.1 .5-1.4c.4-0.4 1.1-0.4 1.5-0.1c.1-0.2 .2-0.3 .3-0.4c.2-0.1 .3-0.2 .4-0.3c.2 0 .4-0.1 .5-0.1c.2 0 .3 .1 .5 .1Z" fill="#b884b1"/></g><g transform="translate(17.7,30.8) translate(-13.7,-8.2)"><path d="M17.9 25.7c0-0.4 .1-0.7 .3-0.9c.2-0.3 .5-0.4 .8-0.5c.3-0.1 .6 0 .9 .1c.3 .2 .5 .4 .6 .8c.2-0.1 .3-0.1 .4-0.1c.2 0 .3 .1 .4 .1c.2 .1 .3 .1 .4 .2c.1 .1 .2 .2 .3 .3c.1 0 .3 0 .5 0c.2 0 .4 .1 .5 .2c.2 .1 .3 .2 .4 .4c.1 .1 .2 .3 .3 .5c.3 0 .5 .1 .7 .2c.1 0 .2 0 .3-0.1c.1 0 .2 0 .3 0c.1 0 .2 0 .3 .1c.1 0 .2 0 .2 .1c.2-0.4 .5-0.7 .9-0.8v-0.2c0-0.3 .1-0.6 .3-0.9c.2-0.2 .5-0.4 .9-0.4c.3-0.1 .6 0 .9 .1c.3 .2 .5 .5 .6 .8c.2-0.1 .4-0.1 .5-0.1c.3 0 .6 .1 .9 .3c.2 .1 .4 .4 .5 .7c0 .3 0 .6-0.1 .8c-0.1 .3-0.2 .5-0.5 .7c.1 .1 .3 .3 .3 .4c.1 .2 .1 .4 .2 .5c0 .2-0.1 .4-0.1 .6c-0.1 .1-0.2 .3-0.3 .4c.1 .1 .1 .2 .1 .3c0 .1 0 .2 0 .3c0 .1-0.1 .2-0.1 .3c0 .1-0.1 .2-0.1 .3c.1 .2 .3 .4 .3 .7c.1 .2 .1 .5 0 .7c-0.1 .2-0.2 .5-0.4 .6c-0.2 .2-0.4 .3-0.7 .3c0 .2 0 .4-0.1 .6c.1 .2 .1 .4 .1 .6c0 .2-0.1 .5-0.2 .6c-0.1 .2-0.2 .4-0.4 .5c-0.2 .1-0.4 .2-0.6 .2c-0.1 .2-0.2 .3-0.3 .4c-0.2 .1-0.3 .2-0.5 .2c-0.1 .1-0.3 .1-0.5 .1c-0.2 0-0.3-0.1-0.5-0.2c-0.1 .1-0.3 .2-0.5 .2c-0.2 0-0.5 0-0.6-0.1c-0.2-0.1-0.4-0.2-0.5-0.3c-0.2-0.2-0.3-0.3-0.3-0.5c-0.2 .1-0.4 .1-0.5 .1c-0.2 .1-0.4 .1-0.6 0c-0.1 0-0.3-0.1-0.4-0.2c-0.2-0.1-0.3-0.2-0.4-0.3c-0.2 .1-0.4 .1-0.6 .2c0 .4-0.3 .9-0.8 1c0 .6-0.4 1-0.8 1.2c-0.1 .2-0.2 .4-0.3 .6c-0.1 .1-0.3 .3-0.5 .4c-0.2 .1-0.4 .1-0.6 .1c-0.2 0-0.4 0-0.6-0.1c-0.2 .1-0.3 .1-0.5 .2c-0.1 0-0.3 0-0.5 0c-0.1 0-0.3 0-0.4-0.1c-0.2-0.1-0.3-0.2-0.4-0.3c-0.5 0-0.9-0.2-1.1-0.6c-0.2 .2-0.3 .4-0.5 .5c-0.2 .1-0.5 .2-0.7 .2c-0.2 0-0.4-0.1-0.6-0.2c-0.2-0.1-0.4-0.2-0.5-0.4c-0.1 0-0.1 0-0.2 0c0 0-0.1 0-0.1 0c-0.1 0-0.1 0-0.2 0c0 0-0.1 0-0.1 0c-0.1 .1-0.2 .1-0.3 .2c-0.1 0-0.2 .1-0.3 .1c-0.1 0-0.2 0-0.4 0c-0.1 0-0.2 0-0.3 0c0 0-0.1 .1-0.2 .1c-0.1 .1-0.2 .1-0.3 .1c-0.1 .1-0.2 .1-0.3 .1c-0.1 0-0.2 0-0.3 0c-0.1 0-0.3 0-0.4 0c-0.1 0-0.3 0-0.4-0.1c-0.1 0-0.2-0.1-0.4-0.2c-0.1 0-0.2-0.1-0.2-0.2c-0.3 .2-0.7 .4-1.1 .4c-0.2 0-0.5 0-0.7-0.1c-0.2-0.2-0.3-0.3-0.5-0.5c-0.1-0.2-0.2-0.5-0.2-0.7c0-0.2 .1-0.5 .2-0.7c-0.3-0.2-0.5-0.6-0.5-1c0 0 0 0 0 0c-0.1-0.1-0.3-0.2-0.4-0.4c-0.1-0.1-0.1-0.2-0.2-0.4c0-0.2-0.1-0.3 0-0.5c0-0.1 0-0.3 .1-0.5c-0.1 0-0.2-0.1-0.2-0.2c-0.1-0.1-0.1-0.2-0.2-0.3c0-0.1 0-0.2 0-0.4c0-0.1 0-0.2 0-0.3c-0.3-0.1-0.6-0.3-0.8-0.6c-0.1-0.2-0.2-0.5-0.2-0.9c.1-0.3 .2-0.6 .4-0.8c.3-0.2 .6-0.4 .9-0.4c.1-0.4 .4-0.7 .7-0.9c-0.1-0.2-0.1-0.4-0.1-0.7c0-0.2 .1-0.4 .2-0.6c.1-0.2 .3-0.3 .5-0.4c.2-0.1 .4-0.2 .6-0.2c.1-0.1 .2-0.1 .3-0.2c.1 0 .1-0.1 .2-0.1c.1 0 .2 0 .3 0c.1 0 .3 0 .4 0c0-0.2 .2-0.4 .3-0.5c.1-0.2 .3-0.4 .5-0.6c.2-0.2 .4-0.3 .6-0.3c.3 0 .6 0 .8 .1c.2 .1 .4 .3 .6 .5c.1-0.2 .2-0.3 .4-0.5c.2-0.1 .4-0.2 .6-0.2c.2 0 .4 0 .6 .1c.2 0 .4 .1 .5 .3c.2-0.1 .3-0.2 .5-0.3c.2 0 .4-0.1 .6 0c.2 0 .3 0 .5 .1c.2 .1 .3 .3 .4 .4c.1-0.2 .3-0.3 .5-0.5c.2-0.1 .4-0.2 .6-0.2c.2 0 .4 0 .6 .1c.2 .1 .4 .2 .6 .4Z" fill="#974581" transform="translate(-4,-22.6)"/><path d="M16.1 32.2c.1-0.6 .5-1 1.1-1.1c.5-0.2 1 0 1.4 .5c.3 .4 .3 1 .1 1.5c-0.3 .4-0.8 .7-1.3 .7c0 0 .1 .1 .1 .2c0 .1 0 .2 .1 .2c0 .1 0 .2 0 .3c0 .1 0 .2 0 .3h.1c.2 0 .4 0 .6 .1c.2 .1 .3 .2 .4 .4c.2 .1 .3 .3 .3 .5c.1 .2 .1 .4 0 .6c.2 .2 .4 .4 .5 .7c0 .3 0 .6-0.1 .8c-0.1 .3-0.3 .5-0.5 .7c-0.2 .1-0.5 .2-0.8 .2c-0.2 0-0.4 0-0.6-0.1c-0.2-0.1-0.3-0.2-0.5-0.4c-0.1-0.1-0.2-0.3-0.2-0.5c-0.1-0.2-0.1-0.4 0-0.6c-0.1-0.1-0.2-0.2-0.3-0.3c0-0.1-0.1-0.2-0.1-0.3c0-0.1-0.1-0.2-0.1-0.3c0-0.2 0-0.3 0-0.4h-0.1c-0.2 0-0.4 0-0.5-0.1c-0.2-0.1-0.4-0.2-0.5-0.4c-0.1-0.1-0.2-0.3-0.3-0.5c0-0.2-0.1-0.4 0-0.6c-0.1 0-0.1 0-0.2 0c0 0 0 0-0.1-0.1c0 0-0.1 0-0.1 0c-0.1 0-0.1 0-0.1-0.1c-0.1 .1-0.2 .2-0.3 .2c-0.1 .1-0.2 .1-0.4 .1c-0.1 .1-0.2 .1-0.3 .1c-0.1 0-0.2-0.1-0.3-0.1c.1 .1 .1 .3 .2 .5c0 .2 0 .3-0.1 .5c0 .2-0.1 .3-0.2 .5c-0.1 .1-0.2 .2-0.3 .3c0 .2 .1 .4 0 .7c0 .2-0.1 .4-0.2 .5c-0.2 .2-0.3 .4-0.5 .5c-0.2 .1-0.4 .1-0.6 .1h-0.1c-0.2 .5-0.6 .9-1.1 1c-0.5 .1-1.1-0.1-1.4-0.5c-0.3-0.4-0.3-1-0.1-1.5c.3-0.4 .8-0.7 1.3-0.7c.1-0.3 .3-0.6 .6-0.8c0-0.1-0.1-0.2-0.1-0.3c0-0.1 0-0.2 0-0.3c0-0.1 .1-0.2 .1-0.3c0-0.1 .1-0.1 .1-0.2c0 0 0 0 0 0c0-0.1 0-0.1 0-0.1c0 0 0 0 0 0c0 0 0 0 0 0c-0.1 .1-0.2 .2-0.4 .2c-0.1 .1-0.2 .1-0.3 .1c-0.1 .1-0.3 .1-0.4 .1c-0.1-0.1-0.2-0.1-0.3-0.1c-0.1 .6-0.7 1.1-1.4 1.1c-0.3 .4-0.7 .6-1.2 .5c-0.5-0.1-0.9-0.3-1.1-0.8c-0.2-0.4-0.1-0.9 .1-1.3c.2-0.4 .7-0.6 1.1-0.6c.1-0.1 .2-0.2 .4-0.3c.1-0.1 .2-0.1 .3-0.2c.2 0 .3 0 .5 0c.1 0 .2 0 .4 .1c0-0.3 .1-0.5 .3-0.7c.1-0.2 .4-0.3 .6-0.4c.2-0.1 .5-0.1 .7-0.1c.3 .1 .5 .2 .7 .4c.1-0.1 .2-0.2 .4-0.3c.1 0 .3-0.1 .4-0.1c.2 0 .3 .1 .5 .1c.1 0 .3 .1 .4 .2c.1-0.1 .2-0.2 .4-0.3c.1-0.1 .2-0.1 .4-0.2c.2 0 .3 0 .5 0c.1 0 .3 .1 .4 .2c.2-0.2 .3-0.2 .5-0.3c.2 0 .4-0.1 .6 0c.2 0 .4 .1 .5 .2c.2 .1 .3 .2 .4 .4Zm6 1.4c.4 0 .7 .2 1 .4c.2 .3 .4 .6 .4 1c0 .3-0.2 .7-0.4 .9c-0.3 .3-0.6 .4-1 .4c-0.4 0-0.7-0.1-1-0.4c-0.2-0.2-0.4-0.6-0.4-0.9c0-0.4 .2-0.7 .4-1c.3-0.2 .6-0.4 1-0.4Zm-4.5-8.6v-0.2c0-0.4 .2-0.8 .5-1c.3-0.3 .7-0.4 1.1-0.4c.3 .1 .7 .3 .9 .6c.2 .4 .3 .8 .2 1.1c.1-0.1 .3-0.2 .5-0.3c.1-0.1 .3-0.1 .5-0.1c.2 0 .4 0 .5 .1c.2 .1 .4 .2 .5 .3c.2-0.1 .4-0.2 .6-0.2c.3 0 .5 .1 .7 .2c.2 .1 .3 .3 .5 .4c.1 .2 .2 .4 .2 .7c.1-0.2 .2-0.3 .3-0.4c.1-0.1 .2-0.2 .3-0.3c.2-0.1 .3-0.1 .5-0.1c.1 0 .3 0 .5 0c0-0.2 .2-0.4 .3-0.6c.2-0.1 .4-0.2 .6-0.3c.2 0 .5 0 .7 0c.2 .1 .4 .2 .6 .3c.2-0.1 .4-0.2 .7-0.2c.2 0 .4 0 .7 .1c.2 .1 .4 .3 .5 .5c.1 .2 .2 .4 .2 .6c.3 .1 .6 .2 .8 .4c.2 .1 .3 .4 .4 .6c.1 .3 .1 .6 0 .8c-0.1 .3-0.3 .5-0.5 .7c.1 .2 .2 .5 .1 .8c0 .3-0.2 .5-0.4 .7c-0.2 .2-0.4 .3-0.7 .4c-0.3 0-0.6 0-0.8-0.1c0 .4-0.1 .7-0.4 1c-0.2 .3-0.6 .4-1 .4c-0.3 0-0.7-0.1-0.9-0.4c-0.3-0.2-0.4-0.5-0.5-0.9c0 .3-0.1 .6-0.3 .8c.6 .1 1.1 .6 1.2 1.2c.1 .6-0.3 1.2-0.9 1.4c-0.6 .3-1.3 0-1.6-0.5c-0.4-0.5-0.3-1.2 .1-1.7c-0.1 0-0.3-0.1-0.4-0.1v.1c0 .6-0.4 1.2-1 1.4c-0.6 .1-1.2-0.1-1.5-0.6c-0.3-0.5-0.3-1.2 .1-1.7c.4-0.4 1.1-0.6 1.6-0.3v-0.2c0-0.3 .1-0.7 .4-0.9c.2-0.3 .6-0.4 1-0.5c.3 0 .7 .2 .9 .4c.3 .3 .5 .6 .5 1c0-0.2 .1-0.4 .2-0.6c.1-0.2 .3-0.4 .4-0.5c.2-0.1 .4-0.1 .7-0.1c.2-0.1 .4 0 .6 .1v-0.1c0-0.4 .2-0.8 .5-1.1c0-0.1-0.1-0.2-0.1-0.4c-0.3 0-0.6-0.1-0.8-0.3c0 0-0.1 .1-0.2 .1c-0.1 0-0.2 .1-0.3 .1c-0.1 0-0.2 0-0.3 0c-0.1 0-0.2 0-0.3 0c0 .2-0.1 .3-0.3 .5c-0.1 .1-0.3 .2-0.5 .3c-0.1 .1-0.3 .1-0.5 .1c-0.2 0-0.4-0.1-0.6-0.2c-0.1 .4-0.3 .7-0.6 .9c-0.3 .2-0.6 .3-1 .3c-0.3-0.1-0.7-0.3-0.9-0.6c-0.2-0.3-0.3-0.7-0.2-1c0 0 0-0.1-0.1-0.1c0 0 0 0 0 0c0 0-0.1-0.1-0.1-0.1c0 0 0 0 0 0c-0.2 .1-0.4 .1-0.6 .1c-0.2 0-0.3 0-0.5 0c-0.2-0.1-0.4-0.2-0.5-0.3c-0.1-0.1-0.2-0.3-0.3-0.4c-0.2 .1-0.3 .2-0.5 .3c-0.2 .1-0.4 .2-0.6 .2c-0.2 0-0.4 0-0.6-0.1c-0.1-0.1-0.3-0.2-0.4-0.4c-0.2 .2-0.4 .4-0.6 .5c-0.2 .2-0.4 .2-0.7 .2c-0.3 0-0.5-0.1-0.7-0.2c-0.2-0.2-0.4-0.4-0.5-0.6c0 .2-0.1 .4-0.2 .5c-0.2 .1-0.3 .3-0.5 .4c-0.2 0-0.3 .1-0.5 .1c-0.2 0-0.4 0-0.6-0.1c-0.1 .1-0.3 .3-0.5 .3c-0.1 .1-0.3 .2-0.5 .2c-0.2 0-0.4-0.1-0.6-0.1c-0.1-0.1-0.3-0.2-0.4-0.4c-0.1 .3-0.2 .5-0.4 .6c-0.2 .2-0.4 .3-0.7 .3c-0.2 .1-0.4 .1-0.7 0c-0.2-0.1-0.4-0.2-0.5-0.4c-0.2 .3-0.4 .5-0.7 .6c.1 .3 .1 .5 .1 .7c-0.1 .2-0.2 .4-0.3 .5c-0.1 .2-0.3 .4-0.5 .4c-0.2 .1-0.4 .2-0.6 .2c.1 .2 .1 .4 .1 .6c-0.1 .3-0.1 .5-0.3 .7c-0.1 .1-0.3 .3-0.5 .4c-0.2 .1-0.4 .2-0.6 .2c-0.4 0-0.7-0.2-1-0.5c-0.2-0.2-0.4-0.6-0.4-0.9c0-0.4 .2-0.7 .5-1c.2-0.2 .6-0.4 .9-0.4c0-0.1-0.1-0.3-0.1-0.5c0-0.1 .1-0.3 .1-0.5c.1-0.1 .2-0.3 .3-0.4c.1-0.1 .2-0.2 .4-0.3c-0.1-0.3-0.1-0.6 0-0.9c.2-0.3 .4-0.5 .6-0.7c.3-0.1 .6-0.2 .9-0.1c.3 0 .6 .1 .8 .4c-0.1-0.4-0.1-0.8 0-1.1c.2-0.4 .5-0.6 .8-0.7c.4-0.2 .8-0.1 1.1 .1c.4 .1 .6 .4 .7 .8c.1-0.1 .2-0.2 .3-0.2c.1-0.1 .3-0.1 .4-0.2c.1 0 .2 0 .4 0c.1 0 .2 .1 .4 .1c.1-0.2 .3-0.3 .5-0.4c.2-0.1 .5-0.1 .7 0c.2 0 .4 .1 .6 .2c.2 .2 .4 .4 .5 .6c0-0.3 .1-0.5 .3-0.6c.1-0.2 .3-0.3 .5-0.4c.3 0 .5-0.1 .7 0c.2 0 .4 .1 .6 .3Zm2.6 3.6c.3-0.1 .7 .1 .9 .4c.3 .2 .4 .6 .4 .9c.1 .4-0.1 .7-0.4 1c-0.2 .2-0.6 .4-0.9 .4c-0.4 0-0.7-0.2-1-0.4c-0.2-0.3-0.4-0.6-0.4-1c0-0.3 .2-0.7 .4-0.9c.3-0.3 .6-0.4 1-0.4Z" fill="#b25f9e" transform="translate(-4,-22.6)"/><path d="M19 25c-0.2-0.2-0.3-0.5-0.4-0.7c-0.1-0.3-0.1-0.6 0-0.8c.2-0.3 .3-0.5 .6-0.7c.2-0.1 .5-0.2 .7-0.2c.3 0 .6 .1 .8 .2c.3 .2 .4 .4 .5 .7c.1 .3 .1 .6 .1 .8c-0.1 .3-0.3 .6-0.5 .7c.1 .1 .1 .2 .2 .3c.2-0.2 .5-0.3 .8-0.3c.7 0 1.3 .5 1.4 1.2c.1-0.1 .2-0.2 .3-0.3c.2 0 .3-0.1 .5-0.1c.1 0 .3 0 .4 0c.2 .1 .3 .1 .4 .2v-0.2c0-0.6 .5-1.1 1.1-1.3c.6-0.1 1.2 .1 1.5 .7c.3 .5 .2 1.2-0.2 1.6c-0.5 .5-1.2 .5-1.7 .2v.2c0 .6-0.4 1.1-0.9 1.3c.2 .2 .3 .5 .4 .8c0 .3-0.1 .6-0.2 .9c-0.2 .2-0.4 .4-0.7 .5c-0.3 .1-0.6 .1-0.9 .1c0 .1-0.1 .3-0.2 .4c-0.1 .2-0.2 .3-0.4 .4c-0.1 .1-0.3 .1-0.5 .2c-0.2 0-0.3 0-0.5 0c0 .1-0.1 .3-0.1 .5c.4 .1 .7 .4 .8 .7c.1-0.7 .7-1.2 1.3-1.2c.7 0 1.3 .4 1.4 1.1c.2 .7-0.3 1.4-0.9 1.6c-0.7 .2-1.4-0.2-1.7-0.8c0 .4-0.2 .7-0.5 1c-0.4 .2-0.8 .3-1.2 .2c-0.4-0.1-0.7-0.4-0.9-0.7c-0.1-0.4-0.2-0.8 0-1.2c-0.2 0-0.3-0.1-0.4-0.2c-0.2-0.1-0.3-0.2-0.4-0.4c0-0.1-0.1-0.3-0.1-0.4c-0.1-0.2-0.1-0.4 0-0.5c-0.1 0-0.2 .1-0.3 .2c-0.1 0-0.3 0-0.4 0c-0.1 .1-0.2 .1-0.3 0c-0.1 0-0.2 0-0.4 0c.1 .1 .1 .2 .1 .3c0 .2 0 .3-0.1 .4c0 .1-0.1 .2-0.2 .4c0 .1-0.1 .1-0.2 .2c.7 0 1.2 .5 1.3 1.2c.1 .6-0.2 1.3-0.9 1.5c-0.6 .2-1.3 0-1.6-0.6c-0.3-0.6-0.2-1.3 .3-1.8c-0.3 0-0.6-0.1-0.9-0.3c-0.1 .1-0.2 .2-0.3 .2c-0.2 .1-0.3 .1-0.5 .1c-0.1 0-0.3 0-0.4-0.1c-0.1 0-0.3-0.1-0.4-0.2c-0.1 .1-0.2 .2-0.4 .2c-0.1 0-0.3 .1-0.4 .1c-0.1 0-0.3-0.1-0.4-0.1c-0.1-0.1-0.3-0.1-0.4-0.2c.2 .2 .3 .5 .3 .8c0 .4-0.1 .7-0.4 1c-0.2 .2-0.6 .4-1 .4c-0.3 0-0.7-0.1-0.9-0.4c-0.3-0.2-0.4-0.6-0.4-1c-0.2 .2-0.4 .3-0.6 .4c-0.2 .4-0.5 .7-1 .7c-0.4 .1-0.9-0.1-1.2-0.4c-0.3-0.3-0.4-0.8-0.3-1.3c.1-0.4 .4-0.8 .8-0.9c.1-0.2 .3-0.4 .4-0.5c.2-0.2 .4-0.3 .6-0.3c.2 0 .5 0 .7 0c.2 .1 .4 .2 .5 .3c0-0.2 .1-0.5 .3-0.7c.1-0.2 .4-0.3 .6-0.4c.2-0.1 .5-0.2 .8-0.1c.2 0 .5 .2 .6 .3c.2-0.1 .3-0.2 .4-0.2c.2-0.1 .4-0.2 .5-0.2c.2 0 .4 0 .5 .1c.2 0 .3 .1 .5 .2c.1-0.1 .2-0.2 .4-0.2c.1 0 .2-0.1 .4-0.1c.1 .1 .3 .1 .4 .1c.2 .1 .3 .2 .4 .3c.1-0.1 .2-0.2 .3-0.2c.1 0 .2-0.1 .3-0.1c.1 0 .3 0 .4 0c.1 0 .2 0 .3 .1c-0.1-0.4 0-0.8 .3-1.1c.2-0.4 .6-0.6 1-0.6c.4 0 .8 .2 1.1 .5c.2 .3 .4 .7 .3 1.1c.1 0 .2-0.1 .2-0.1c.1-0.1 .2-0.1 .3-0.1c.1-0.1 .2-0.1 .3-0.1c.1 0 .2 0 .3 .1c0-0.2 .1-0.4 .2-0.6c.1-0.2 .2-0.4 .4-0.5c.2-0.1 .3-0.2 .6-0.2c.2-0.1 .4 0 .6 0c.1-0.5 .4-0.8 .8-1c-0.1-0.2-0.3-0.4-0.3-0.7c-0.2 .1-0.3 .3-0.5 .3c-0.2 .1-0.4 .1-0.6 .1c-0.2 0-0.4-0.1-0.6-0.2c-0.2-0.1-0.3-0.3-0.4-0.5c-0.1 .1-0.3 .2-0.4 .2c-0.1 .1-0.3 .1-0.4 .1c-0.2 0-0.3 0-0.4 0c-0.2-0.1-0.3-0.1-0.4-0.2c-0.2 .2-0.4 .3-0.7 .4c-0.3 0-0.6 0-0.8-0.1c-0.3-0.1-0.5-0.3-0.6-0.5c-0.2-0.2-0.3-0.5-0.3-0.8v-0.2c0 .1-0.1 .1-0.1 .1c-0.1 0-0.2 0-0.2 0c-0.1 0-0.1 0-0.2 0c-0.1 0-0.1 0-0.2 0c0 .6-0.4 1.1-0.9 1.3c-0.6 .2-1.2 0-1.5-0.4c-0.4-0.5-0.4-1.1-0.1-1.6c.3-0.5 .9-0.8 1.5-0.6v-0.1c0-0.3 .2-0.7 .4-0.9c.3-0.3 .7-0.4 1-0.4c.4 .1 .7 .2 1 .5c.2 .3 .3 .6 .3 1c.1 0 .2-0.1 .3-0.1c.1 0 .2 0 .3 .1c.1 0 .2 0 .3 0c.1 .1 .2 .1 .3 .2l.1-0.1Zm-8.9 .8v-0.1c0-0.5 .3-1 .7-1.2c.5-0.2 1-0.2 1.4 0c.5 .3 .7 .8 .7 1.3c-0.1 .5-0.4 .9-0.9 1.1v.2c0 .3-0.1 .6-0.3 .9c.1 .2 .1 .5 0 .8c0 .2-0.2 .5-0.4 .7c-0.2 .1-0.5 .3-0.7 .3c-0.3 0-0.6 0-0.8-0.2c-0.1 .1-0.3 .2-0.4 .3c-0.1 .1-0.3 .1-0.4 .1c-0.2 .1-0.3 0-0.5 0c-0.1 0-0.3-0.1-0.4-0.1c-0.2 .2-0.5 .3-0.7 .4c.1 .2 .1 .4 .2 .6c0 .2 0 .5-0.1 .7c-0.1 .2-0.2 .3-0.4 .5c-0.1 .1-0.3 .2-0.5 .3c-0.2 .4-0.6 .7-1.1 .7c-0.4 .1-0.9-0.1-1.2-0.5c-0.3-0.3-0.4-0.8-0.2-1.2c.1-0.5 .5-0.8 .9-1c.2-0.3 .5-0.6 .9-0.7c-0.2-0.2-0.3-0.5-0.2-0.8c0-0.3 .1-0.6 .3-0.9c.2-0.2 .5-0.3 .8-0.4c.3 0 .7 0 .9 .2c.1-0.1 .2-0.2 .4-0.3c.1-0.1 .2-0.1 .4-0.2c.1 0 .3 0 .4 0c.2 0 .3 .1 .5 .1c-0.1-0.1-0.1-0.3-0.1-0.5c0-0.1 .1-0.3 .1-0.4c.1-0.2 .2-0.3 .3-0.4c.1-0.1 .3-0.2 .4-0.3Zm19-1.5c.4 0 .7 .1 1 .4c.2 .2 .4 .6 .4 .9c0 .4-0.2 .8-0.4 1c-0.3 .3-0.6 .4-1 .4c-0.4 0-0.7-0.1-1-0.4c-0.2-0.2-0.4-0.6-0.4-1c0-0.3 .2-0.7 .4-0.9c.3-0.3 .6-0.4 1-0.4Z" fill="#b884b1" transform="translate(-4,-22.6)"/></g></g><path id="RNA-coiled-2" d="M.9 3.3c0 0 1.4 0 1.3 0l.1-2l-0.1 2c-0.1 .1 1.4 .1 1.3 .1c-0.1 0 1.4 .1 1.3 .1l.1-2l-0.1 2c-0.1 0 1.4 .1 1.3 .1c0 0 1.4 .1 1.3 .2l.3-2.1l-0.3 2.1c-0.1 0 1.5 .1 1.4 .1c-0.1 .1 1.4 .1 1.3 .2l.3-2.1l-0.3 2.1c-0.1 .1 1.5 .1 1.4 .2c0 .1 1.4 .2 1.4 .2l.3-2.1l-0.3 2.1c-0.1 .1 1.5 .2 1.4 .3c0 0 1.5 .2 1.4 .2l.4-2.2l-0.4 2.2c0 .1 1.5 .2 1.5 .3c0 .1 1.5 .2 1.4 .3l.5-2.3l-0.5 2.3c0 .1 1.6 .2 1.6 .3c0 .1 1.5 .2 1.5 .3l.5-2.4l-0.5 2.4c0 .1 1.6 .2 1.6 .3c0 .1 1.5 .2 1.5 .3l.5-2.5l-0.5 2.5c0 .1 1.7 .2 1.7 .3c0 .1 1.5 .2 1.6 .3l.4-2.5l-0.4 2.5c0 .1 1.6 .2 1.7 .3c0 .1 1.6 .2 1.6 .3l.5-2.6l-0.5 2.6c0 .1 1.7 .2 1.8 .3c0 0 1.6 .2 1.7 .3l.4-2.8l-0.4 2.8c0 .1 1.7 .1 1.8 .2c0 .1 1.6 .2 1.7 .3l.4-2.8l-0.4 2.8c.1 0 1.8 .1 1.9 .2c0 0 1.6 .1 1.7 .2l.3-2.9l-0.3 2.9c.1 .1 1.8 .1 1.9 .2c.1 0 1.7 .1 1.8 .1l.3-2.9l-0.3 2.9c.1 .1 1.8 .1 1.9 .2c.1 0 1.8 .1 1.9 .1l.1-2.9l-0.1 2.9c.1 0 1.8 .1 1.9 .1c.1 0 1.7 0 1.9 .1v-3v3c.1 0 1.8 0 1.9 0c.1 0 1.7 0 1.9 0v-3v3c.1 0 1.8 0 1.9 0c.1 0 1.8 0 1.9 0l-0.1-3l.1 3c.1-0.1 1.8-0.1 1.9-0.1c.1 0 1.7-0.1 1.8-0.1l-0.1-2.9l.1 2.9c.1 0 1.9-0.1 2-0.1c0 0 1.7-0.1 1.8-0.2l-0.2-2.9l.2 2.9c.1 0 1.8-0.1 1.9-0.1c0-0.1 1.7-0.1 1.8-0.2l-0.3-2.9l.3 2.9c.1-0.1 1.8-0.1 1.9-0.2c0-0.1 1.6-0.2 1.7-0.2l-0.4-2.8l.4 2.8c.1-0.1 1.8-0.2 1.8-0.3c.1 0 1.7-0.1 1.8-0.2l-0.5-2.8l.5 2.8c0-0.1 1.7-0.2 1.7-0.3c.1-0.1 1.7-0.2 1.7-0.3l-0.5-2.6l.5 2.6c0-0.1 1.7-0.2 1.7-0.3c.1-0.1 1.6-0.2 1.7-0.3l-0.5-2.6l.5 2.6c0-0.1 1.6-0.2 1.6-0.3c0-0.1 1.6-0.2 1.6-0.3l-0.5-2.5l.5 2.5c0-0.1 1.6-0.2 1.6-0.3c0-0.1 1.6-0.2 1.5-0.3l-0.4-2.4l.4 2.4c0-0.1 1.6-0.2 1.6-0.3c0-0.1 1.5-0.2 1.5-0.3l-0.5-2.3l.5 2.3c-0.1-0.1 1.5-0.2 1.5-0.3c0 0 1.5-0.2 1.4-0.3l-0.4-2.2l.4 2.2c0 0 1.5-0.1 1.5-0.2c-0.1-0.1 1.4-0.2 1.4-0.3l-0.4-2.1l.4 2.1c-0.1 0 1.5-0.1 1.4-0.2c-0.1 0 1.4-0.1 1.3-0.2l-0.3-2.1l.3 2.1c-0.1-0.1 1.5-0.1 1.4-0.2c-0.1 0 1.4-0.1 1.3-0.1l-0.2-2.1l.2 2.1c-0.1-0.1 1.5-0.1 1.4-0.2c-0.1 0 1.3-0.1 1.2-0.1l-0.1-2l.1 2c-0.1 0 1.5-0.1 1.4-0.1c-0.1 0 1.3 0 1.2-0.1v-2v2c-0.1 0 1.5 0 1.4 0c-0.1 0 1.3 0 1.2 0v-2v2c-0.1 0 1.5 0 1.3 0" fill="none" stroke="#ffb000" stroke-width="1.5px" clip-rule="evenodd" stroke-linecap="round" stroke-linejoin="round" stroke-miterlimit="1.8" transform="translate(28.4,970.1) translate(0,0) scale(3.55,3.55) translate(-23.1,-22.8)"/><g id="Strands" opacity="0" mask="url(#Mask-1)" transform="translate(266.6,681.1) translate(0,0) translate(-71,-162.3)"><g id="Strand-1" transform="translate(21.4,238.2) translate(0,0) rotate(16) translate(-18.1,-85.8)"><use width="16.5" height="16.5" xlink:href="#bead" transform="translate(16.9,163.2) translate(-8.2,-8.2)"/><use width="16.5" height="16.5" xlink:href="#bead" transform="translate(14.2,147.9) translate(-8.2,-8.2)"/><use width="16.5" height="16.5" xlink:href="#bead" transform="translate(15.2,131.9) translate(-8.2,-8.2)"/><use width="16.5" height="16.5" xlink:href="#bead" transform="translate(19.6,116.2) translate(-8.2,-8.2)"/><use width="16.5" height="16.5" xlink:href="#bead" transform="translate(25.6,101.6) translate(-8.2,-8.2)"/><use width="16.5" height="16.5" xlink:href="#bead" transform="translate(27.9,85.2) translate(-8.2,-8.2)"/><use width="16.5" height="16.5" xlink:href="#bead" transform="translate(22.6,69.6) translate(-8.2,-8.2)"/><use width="16.5" height="16.5" xlink:href="#bead" transform="translate(15.2,55.2) translate(-8.2,-8.2)"/><use width="16.5" height="16.5" xlink:href="#bead" transform="translate(9.6,40.2) translate(-8.2,-8.2)"/><use width="16.5" height="16.5" xlink:href="#bead" transform="translate(8.2,23.6) translate(-8.2,-8.2)"/><use width="16.5" height="16.5" xlink:href="#bead" transform="translate(14.6,8.2) translate(-8.2,-8.2)"/></g><g id="Strand-2" transform="translate(23.9,186.2) translate(0,0) translate(-16.1,-37.8)"><use width="16.5" height="16.5" xlink:href="#bead" transform="translate(11.8,67.2) translate(-8.2,-8.2)"/><use width="16.5" height="16.5" xlink:href="#bead" transform="translate(8.2,52) translate(-8.2,-8.2)"/><use width="16.5" height="16.5" xlink:href="#bead" transform="translate(11.2,36.5) translate(-8.2,-8.2)"/><use width="16.5" height="16.5" xlink:href="#bead" transform="translate(19.2,23) translate(-8.2,-8.2)"/><use width="16.5" height="16.5" xlink:href="#bead" transform="translate(24,8.2) translate(-8.2,-8.2)"/></g></g><text id="_a1" font-size="18" font-family="ABCSans" font-weight="900" letter-spacing=".1em" word-spacing="0" text-anchor="middle" opacity="0" transform="translate(152.6,871.5)" style="line-height: 16px;">POLYPROTEIN CHAINS</text><g id="Ribosome-extras" opacity="0" transform="translate(154.3,710.5) translate(0,0) translate(-45.1,-45.5)"><g clip-rule="evenodd" fill-rule="evenodd" stroke="#b04945" stroke-linecap="round" stroke-miterlimit="1.8" stroke-width=".3" stroke-linejoin="round" transform="translate(-12,-26.1) scale(3,3)"><path d="M19.7 10.2v-0.1c0-0.3 0-0.5 .2-0.8c.1-0.2 .3-0.4 .6-0.5c.2-0.1 .5-0.1 .7-0.1c.3 .1 .5 .2 .7 .4c.2-0.1 .3-0.1 .4-0.2c.2 0 .3 0 .5 .1c.1 0 .2 0 .4 .1c.1 .1 .2 .2 .3 .3c.2-0.1 .4-0.2 .6-0.2c.4 0 .8 .3 1.1 .6h.1c.6 0 1 .3 1.2 .7c.2-0.1 .3-0.2 .5-0.2c.1-0.1 .3-0.1 .4-0.1c.2 0 .4 0 .5 .1c.2 0 .3 .1 .5 .2c.1 0 .2 0 .3-0.1c.1 0 .3 0 .4 0c.1 .1 .3 .1 .4 .2c.1 0 .2 .1 .3 .2c.3-0.1 .6-0.2 .8-0.1c.3 .1 .6 .2 .8 .5c.2 .2 .3 .5 .3 .8c0 .3-0.1 .6-0.3 .8c.1 .2 .2 .4 .2 .6c.2 0 .3 .1 .4 .2c.1 .1 .2 .3 .3 .4c.1 .1 .1 .3 .1 .4c0 .2 0 .4 0 .5c.5 .2 .9 .7 .9 1.3c.3 .1 .4 .3 .6 .5c.1 .2 .2 .4 .2 .6c0 .3 0 .5-0.1 .7c-0.1 .2-0.3 .4-0.5 .6c.1 .2 .2 .4 .2 .6c-0.1 .2-0.1 .4-0.2 .6c-0.1 .2-0.3 .3-0.4 .4c-0.2 .2-0.4 .2-0.6 .3c-0.2 .3-0.5 .6-0.8 .7v.1c0 .6-0.4 1.1-1 1.3c.1 .2 .1 .4 0 .7c0 .2-0.1 .4-0.3 .5c-0.1 .2-0.3 .3-0.5 .4c-0.2 .1-0.4 .1-0.6 .1c-0.1 .2-0.2 .5-0.4 .6c-0.2 .2-0.5 .3-0.7 .3c-0.3 .1-0.5 .1-0.7 0c-0.3-0.1-0.5-0.3-0.6-0.5c-0.3 0-0.6-0.1-0.8-0.2c-0.2 0-0.3 0-0.5-0.1c-0.1-0.1-0.3-0.2-0.4-0.3c-0.1-0.1-0.2-0.2-0.3-0.4c0-0.1-0.1-0.3-0.1-0.4c-0.1 0-0.2 .1-0.4 .1c-0.1 0-0.2 0-0.4 0c-0.1 0-0.2-0.1-0.3-0.1c-0.2-0.1-0.3-0.1-0.4-0.2c-0.1 0-0.3 0-0.4 0c-0.2 0-0.4 0-0.5-0.1c-0.2 0-0.3-0.1-0.4-0.2c-0.2-0.1-0.3-0.3-0.3-0.4c-0.3 .2-0.6 .3-0.9 .4c-0.1 .1-0.1 .3-0.3 .4c-0.1 .2-0.2 .3-0.3 .4c-0.2 0-0.4 .1-0.5 .1c-0.2 0-0.4 0-0.6 0c-0.1 .1-0.2 .2-0.4 .2c-0.1 .1-0.3 .1-0.4 .1c-0.2 0-0.3 0-0.5-0.1c-0.1 0-0.3-0.1-0.4-0.2c-0.2 .1-0.5 .2-0.7 .2c-0.3 0-0.6-0.1-0.8-0.2c-0.2-0.2-0.4-0.4-0.5-0.6c-0.1-0.2-0.2-0.5-0.1-0.8c-0.2-0.2-0.3-0.5-0.3-0.8c-0.3-0.1-0.5-0.2-0.7-0.4c-0.1 .1-0.3 .1-0.5 .1c-0.2 0-0.3 0-0.5-0.1c-0.1 0-0.3-0.1-0.4-0.2c-0.2-0.1-0.3-0.3-0.3-0.4c-0.2 0-0.4-0.1-0.5-0.1c-0.2-0.1-0.4-0.2-0.5-0.4c-0.1-0.1-0.2-0.3-0.2-0.4c-0.1-0.2-0.1-0.4-0.1-0.6l-0.1-0.1c-0.2 .1-0.3 .1-0.5 .1c-0.2 0-0.4-0.1-0.6-0.2c-0.2 0-0.3-0.2-0.4-0.3c-0.1-0.2-0.2-0.3-0.3-0.5c-0.3-0.1-0.5-0.2-0.7-0.4c-0.2 .1-0.5 .1-0.7 .1c-0.2 0-0.4-0.1-0.6-0.2c-0.2-0.1-0.3-0.3-0.5-0.5c-0.1-0.2-0.1-0.4-0.1-0.6c-0.5 0-0.9-0.2-1.1-0.6c-0.3-0.4-0.4-0.8-0.2-1.2c.1-0.4 .4-0.8 .9-0.9c.4-0.1 .8 0 1.2 .2c.1-0.2 .3-0.4 .5-0.5c-0.1-0.3-0.2-0.7-0.1-1c.1-0.4 .3-0.7 .6-0.9c.3-0.2 .7-0.2 1-0.1c.4 0 .7 .3 .9 .5c0-0.2 0-0.5 .2-0.7c.1-0.2 .3-0.4 .6-0.5c.2-0.1 .5-0.1 .8-0.1c.2 .1 .5 .2 .7 .4c0-0.2 .1-0.3 .3-0.4c.1-0.1 .2-0.2 .3-0.2c.2-0.1 .3-0.1 .5-0.1c.1 0 .3 0 .4 0c.1-0.2 .3-0.5 .5-0.7c.2-0.1 .5-0.2 .8-0.2c.3-0.1 .6 0 .8 .2c.3 .1 .4 .4 .5 .6c.6 .1 1.1 .5 1.2 1.1c0-0.2 .1-0.3 .2-0.5c.1-0.1 .2-0.3 .4-0.4c.1-0.1 .3-0.2 .4-0.2c.2 0 .4-0.1 .6 0Zm-1.6 1.6c0 .1 0 .2 0 .3h.1c0-0.1 0-0.1 0-0.1c0 0 0 0 0-0.1c0 0 0 0 0 0c-0.1 0-0.1-0.1-0.1-0.1Z" fill="#974581"/><path d="M21 10.9c-0.1-0.4-0.1-0.8 .1-1.1c.2-0.3 .5-0.5 .9-0.6c.3-0.1 .7 0 1 .2c.3 .1 .6 .4 .6 .8c.1-0.2 .2-0.4 .4-0.5c.2-0.2 .4-0.3 .6-0.3c.2-0.1 .4-0.1 .6 0c.2 0 .4 .1 .6 .2c.1 0 .2 0 .4 0c.1 0 .2 0 .3 0c.1 0 .3 .1 .4 .1c.1 .1 .2 .1 .3 .2c.1-0.1 .2-0.2 .3-0.2c.1-0.1 .3-0.1 .4-0.1c.2 0 .3 0 .4 0c.2 0 .3 0 .4 .1c.1 0 .3-0.1 .4-0.1c.2 0 .3 0 .4 .1c.2 0 .3 .1 .4 .1c.1 .1 .2 .2 .3 .3c.2 0 .4 0 .6 .1c.1 .1 .3 .2 .4 .4c.1 .1 .2 .3 .2 .5c.1 .1 .1 .3 .1 .5c.5 .2 .8 .7 .8 1.2c.3 .2 .5 .5 .6 .8c0 .4 0 .8-0.2 1.1c-0.2 .3-0.6 .5-0.9 .6c-0.4 0-0.7-0.1-1-0.3v.1c0 .7-0.5 1.3-1.1 1.4c.2 .2 .4 .5 .5 .8c0 .3 0 .6-0.2 .9c-0.1 .3-0.3 .5-0.6 .6c-0.3 .1-0.6 .2-0.9 .1c-0.3 .3-0.6 .4-1 .5c.2 .2 .4 .5 .4 .8c.1 0 .2 0 .3 .1c.2-0.5 .7-0.9 1.2-0.9c.5 0 1 .3 1.3 .8c.2 .4 .2 1-0.2 1.4c-0.3 .4-0.9 .6-1.4 .5c-0.1 .3-0.3 .5-0.6 .7c-0.2 .1-0.6 .2-0.9 .1c-0.3 0-0.6-0.2-0.8-0.4c-0.2-0.2-0.3-0.5-0.3-0.9c-0.1 0-0.2 0-0.4 0c.2 .2 .3 .4 .4 .7c0 .3 0 .5-0.2 .8c-0.1 .2-0.2 .4-0.5 .5c-0.2 .2-0.4 .3-0.7 .3c-0.2 0-0.4-0.1-0.6-0.2c-0.2 0-0.3-0.2-0.4-0.3c-0.2-0.1-0.3-0.3-0.3-0.5c-0.1-0.2-0.1-0.4-0.1-0.6c-0.1 0-0.1-0.1-0.2-0.2c-0.1-0.1-0.1-0.2-0.2-0.3c0-0.1 0-0.2 0-0.3c-0.1-0.1-0.1-0.2-0.1-0.3c-0.2 0-0.4-0.1-0.6-0.2c-0.2-0.2-0.3-0.3-0.4-0.5c-0.1-0.2-0.2-0.4-0.2-0.6c0-0.3 .1-0.5 .2-0.7c-0.2-0.1-0.4-0.3-0.5-0.5c-0.2-0.2-0.2-0.4-0.2-0.7c0-0.2 0-0.5 .2-0.7c.1-0.2 .3-0.4 .5-0.5h-0.1c-0.6 0-1-0.3-1.3-0.8c-0.2-0.4-0.1-1 .2-1.4c.3-0.4 .8-0.6 1.3-0.5c.5 .1 .9 .5 1.1 1c0-0.2 .1-0.4 .3-0.5c.1-0.2 .3-0.3 .4-0.4c.2-0.1 .4-0.1 .6-0.1c.2 0 .4 0 .6 .1c.1-0.2 .3-0.3 .5-0.4c.2-0.1 .5-0.1 .7-0.1c.3 0 .5 .1 .7 .3c.2 .1 .3 .3 .4 .5c.2 .1 .3 .2 .5 .3c0-0.2 .1-0.4 .3-0.5c.1-0.2 .3-0.3 .5-0.4c.2-0.1 .4-0.1 .6-0.1c.2 0 .4 .1 .6 .2c-0.1-0.1-0.2-0.2-0.2-0.3c-0.1-0.1-0.2-0.2-0.2-0.3c-0.1-0.1-0.1-0.2-0.1-0.3c0-0.2 0-0.3 0-0.4c-0.2-0.1-0.4-0.2-0.5-0.3c-0.2 0-0.4-0.1-0.5-0.2c-0.1 .1-0.3 .1-0.4 .1c-0.1 0-0.2 0-0.4 0c-0.1 0-0.2-0.1-0.3-0.1c-0.1-0.1-0.2-0.2-0.3-0.2c-0.1 .1-0.3 .2-0.4 .2c-0.2 .1-0.3 .1-0.5 .1c-0.2 0-0.3 0-0.5-0.1c-0.1 0-0.3-0.1-0.4-0.2c-0.2 .1-0.4 .1-0.6 .1c-0.2 0-0.4-0.1-0.5-0.2c-0.2-0.1-0.4-0.2-0.5-0.4c-0.1-0.1-0.2-0.3-0.2-0.5c-0.1 .3-0.4 .6-0.7 .7c.2 .5 0 1.1-0.4 1.4c-0.4 .4-1 .4-1.4 .2c-0.5-0.2-0.8-0.7-0.9-1.2c0-0.5 .3-1 .8-1.2Zm-5.5 7.6c.2-0.3 .5-0.5 .8-0.5c.3-0.1 .6-0.1 .9 0c.3 .2 .5 .4 .6 .7c.2 .3 .2 .6 .1 .9c.4-0.6 1.2-0.9 1.8-0.6c.7 .4 1 1.1 .7 1.8c-0.3 .6-1 1-1.7 .8c-0.7-0.2-1.1-0.9-0.9-1.6c-0.1 .1-0.2 .2-0.3 .3c0 .1-0.1 .2-0.3 .2c-0.1 .1-0.2 .1-0.3 .2c-0.1 0-0.3 0-0.4 0c-0.3 .4-0.8 .6-1.2 .5c-0.5-0.1-0.9-0.4-1.1-0.8c-0.2-0.4-0.2-0.9 .1-1.3c.3-0.4 .7-0.7 1.2-0.6Zm10.6-0.9c-0.1 .1-0.2 .2-0.3 .3c-0.1 .1-0.2 .1-0.4 .2c-0.1 0-0.2 0-0.4 0c-0.1 0-0.2 0-0.4 0c-0.1 .2-0.3 .3-0.5 .4v.1c.4 .3 .7 .7 .7 1.2v.1c.1 0 .2 .1 .4 .1c.1-0.6 .6-1 1.2-1.1c-0.1-0.1-0.2-0.2-0.2-0.3c-0.1-0.1-0.1-0.2-0.1-0.3c-0.1-0.1-0.1-0.3-0.1-0.4c0-0.1 .1-0.2 .1-0.3Zm-8.8-6.7c.3-0.4 .7-0.6 1.2-0.7c.4 0 .8 .3 1.1 .6c.3 .4 .3 .9 .1 1.3c-0.1 .5-0.5 .8-1 .9c.1 .1 .1 .3 .1 .5c0 .1 0 .3-0.1 .5c-0.1 .1-0.2 .3-0.3 .4c-0.1 .1-0.3 .2-0.4 .3c0 .1 .1 .3 .1 .5v.1c.3-0.7 1-1 1.7-0.7c.6 .2 1 .9 .8 1.6c-0.1 .7-0.8 1.1-1.5 1c-0.7-0.1-1.2-0.7-1.2-1.4c0 .1-0.2 .3-0.3 .4c-0.2 .2-0.3 .3-0.5 .3c-0.2 .1-0.4 .1-0.6 0c-0.2 0-0.4-0.1-0.6-0.2c.1 .5 0 1-0.4 1.4c-0.3 .3-0.9 .4-1.3 .2c-0.5-0.1-0.9-0.5-0.9-1c-0.1-0.5 0-1 .4-1.3c-0.1-0.1-0.2-0.3-0.2-0.4c-0.1 0-0.1 0-0.1 0c0 0 0 0-0.1 0c0 0 0 0 0 0c0 .1-0.1 .1-0.1 .1c-0.2 .3-0.6 .5-1 .6c-0.1 .2-0.3 .4-0.6 .5c-0.2 .1-0.5 .2-0.8 .1c-0.2 0-0.5-0.1-0.7-0.3c-0.2-0.2-0.3-0.4-0.4-0.7c-0.1 .2-0.2 .4-0.4 .5c-0.1 .1-0.3 .2-0.5 .3c-0.2 0-0.5 0-0.7 0c-0.2-0.1-0.3-0.2-0.5-0.3c-0.2 .1-0.5 .2-0.8 .2c-0.3 0-0.5-0.1-0.8-0.2c-0.2-0.2-0.4-0.4-0.5-0.7c-0.1-0.2-0.1-0.5 0-0.8c0-0.1 0-0.3 0-0.4c0-0.1 0-0.2 .1-0.4c0-0.1 .1-0.2 .2-0.3c0-0.1 .1-0.2 .2-0.3c0-0.5 .4-1 .9-1.2c0-0.3 .2-0.6 .4-0.8c.2-0.2 .5-0.4 .9-0.4c.3 0 .6 .1 .8 .3c.3 .1 .5 .4 .6 .7c0-0.1 .1-0.1 .2-0.2c.1 0 .3-0.1 .4-0.1c.1 0 .2-0.1 .3-0.1c.1 0 .2 .1 .4 .1c.1-0.2 .3-0.4 .5-0.5c.3-0.1 .5-0.2 .8-0.2c.3 .1 .5 .2 .7 .4c.2 .1 .3 .3 .4 .6c.1 0 .1 .1 .1 .2c.1-0.2 .2-0.4 .3-0.5c.1-0.1 .2-0.3 .4-0.3c.1-0.1 .3-0.2 .5-0.2c.2 0 .3 0 .5 0c.1-0.1 .3-0.3 .5-0.4c.2-0.1 .4-0.1 .6-0.1c.2-0.1 .4 0 .6 .1c.2 .1 .4 .2 .5 .4Zm9.1 6c-0.1 .1-0.1 .1-0.1 .1c0 0 0 .1 0 .1c0 0 0 0 0 0c0 .1 0 .1 0 .1c0-0.1 .1-0.1 .2-0.2c-0.1 0-0.1 0-0.1 0c0 0 0 0 0 0c0 0 0 0 0 0c0 0 0 0 0-0.1Zm2-0.8v.1h.1c0 0 0 0 0 0c0 0 0 0 0 0c0 0 0 0-0.1 0c0-0.1 0-0.1 0-0.1Zm-5-0.3v.1v-0.1Z" fill="#b25f9e"/><path d="M15.2 17.7c.1-0.3 .2-0.5 .4-0.7c.2-0.2 .4-0.3 .7-0.3c.3-0.1 .5-0.1 .8 0c.2 .2 .4 .3 .6 .5c.2 0 .4 0 .6 0c.2 0 .3 .1 .5 .2c.2 .1 .3 .3 .4 .4c.1 .2 .2 .4 .2 .6c.1 0 .2-0.1 .3-0.1c.4 0 .7 .2 .9 .4c.2-0.1 .3-0.1 .4-0.1c.2 0 .3 0 .4 0c.1 .1 .2 .1 .4 .2c.1 .1 .2 .1 .3 .2h.1c.3 0 .5 .1 .7 .2c.2-0.3 .5-0.5 .8-0.5c.2-0.3 .4-0.5 .6-0.6c.2-0.1 .5-0.2 .8-0.2c.3 .1 .5 .2 .7 .4c.3 .2 .4 .4 .5 .7c0-0.3 .1-0.5 .3-0.7c.2-0.2 .4-0.4 .7-0.4c.2-0.1 .5-0.1 .7 0c.3 .1 .5 .2 .7 .4c.1-0.1 .2-0.1 .4-0.1c.1 0 .2 0 .4 0c.1 .1 .2 .1 .4 .2c.1 .1 .2 .2 .3 .3v-0.2c0-0.6 .5-1.2 1.1-1.3c.7-0.1 1.3 .2 1.5 .9c.3 .6 0 1.3-0.5 1.6c-0.6 .3-1.3 .2-1.8-0.3v.2c0 .2-0.1 .5-0.2 .7c-0.2 .3-0.4 .5-0.7 .5c-0.2 .1-0.5 .2-0.8 .1c-0.2-0.1-0.5-0.2-0.7-0.4c-0.1 0-0.3 .1-0.5 .1c-0.2 0-0.4-0.1-0.6-0.2c-0.2-0.1-0.3-0.2-0.4-0.3c-0.2-0.2-0.2-0.4-0.3-0.5c0 .2-0.2 .5-0.3 .6c.5 .2 .9 .6 1 1.1c.1 .6-0.2 1.1-0.6 1.4c-0.5 .3-1 .3-1.5 0c-0.5-0.3-0.7-0.8-0.6-1.3c-0.1 0-0.2 0-0.3 0c-0.1 0-0.1 0-0.2 0c-0.1 0-0.2-0.1-0.2-0.1c-0.1 0-0.2 0-0.3-0.1c-0.1 .2-0.2 .3-0.4 .4c-0.2 .1-0.4 .2-0.6 .2c-0.2 0-0.4-0.1-0.6-0.1c-0.2-0.1-0.3-0.2-0.5-0.4l-0.1 .1c-0.4 0-0.7-0.2-0.9-0.4c-0.2 .1-0.3 .1-0.4 .1c-0.7 0-1.3-0.5-1.4-1.2c0 .3-0.2 .6-0.4 .8c-0.2 .2-0.5 .4-0.8 .4c-0.3 .1-0.6 0-0.8-0.1c-0.3-0.2-0.5-0.4-0.6-0.7h-0.1c-0.3 0-0.6-0.1-0.8-0.3c-0.3-0.2-0.5-0.5-0.5-0.8c-0.1-0.3 0-0.6 .1-0.9c.2-0.3 .4-0.5 .7-0.6Zm-2.4-4.8c.1-0.3 .3-0.5 .6-0.6c.2-0.1 .5-0.2 .8-0.2c.2 .1 .5 .2 .7 .4c.2 .2 .4 .4 .4 .7c.2-0.1 .5-0.2 .7-0.2c.2 .1 .5 .1 .7 .3c.2 .1 .3 .3 .4 .5c.1 .2 .2 .4 .2 .6c0 .4-0.1 .7-0.4 .9c-0.2 .3-0.5 .4-0.8 .5c-0.3 0-0.7-0.1-1-0.3c-0.2-0.1-0.4-0.4-0.5-0.8c-0.1 .1-0.3 .2-0.5 .2c-0.1 .1-0.2 .3-0.3 .4c-0.2 .2-0.4 .2-0.6 .3c-0.2 0-0.4 0-0.6 0c-0.2-0.1-0.4-0.2-0.5-0.3c-0.2 .1-0.3 .2-0.5 .3c-0.2 .1-0.4 .1-0.5 .1c-0.2 0-0.4 0-0.6-0.1c-0.2-0.1-0.3-0.2-0.4-0.3c-0.1 .1-0.3 .1-0.4 .2c-0.2 0-0.3 .1-0.5 .1c-0.1 0-0.3 0-0.4-0.1c-0.2 0-0.3-0.1-0.4-0.2c-0.2 .2-0.4 .3-0.7 .4c0 .5-0.3 1-0.7 1.2c-0.5 .2-1.1 .2-1.5-0.1c-0.4-0.3-0.6-0.9-0.5-1.4c.1-0.5 .5-0.9 1-1c0-0.3 0-0.6 .2-0.8c.1-0.2 .3-0.4 .5-0.5c.3-0.1 .5-0.2 .8-0.1c.3 0 .5 .1 .7 .3c.1-0.2 .3-0.3 .5-0.4c.1 0 .3-0.1 .5-0.1c.2 0 .4 .1 .6 .1c.1 .1 .3 .2 .4 .4c.1-0.1 .3-0.2 .4-0.3c.2 0 .3 0 .5 0c.1 0 .3 0 .4 0c.2 .1 .3 .2 .5 .3c.2-0.2 .5-0.4 .8-0.4Zm12.5-0.1c.2-0.2 .4-0.4 .6-0.5c.3-0.1 .6-0.1 .9 0c.2 .1 .5 .2 .7 .5c.1 .2 .2 .4 .3 .7c.5 .1 1 .4 1.1 .9c.2 .5 .1 1.1-0.3 1.4c-0.3 .4-0.9 .5-1.4 .4c-0.5-0.2-0.9-0.7-0.9-1.2c-0.1 0-0.2 0-0.3-0.1c-0.1 .2-0.3 .3-0.4 .4c-0.1 .1-0.3 .1-0.5 .2c-0.1 0-0.3 0-0.5 0c-0.1-0.1-0.3-0.1-0.4-0.2c-0.3 .5-0.8 .8-1.4 .7c-0.5 0-1-0.4-1.2-1c-0.1-0.5 .1-1.1 .5-1.4c.4-0.4 1.1-0.4 1.5-0.1c.1-0.2 .2-0.3 .3-0.4c.2-0.1 .3-0.2 .4-0.3c.2 0 .4-0.1 .5-0.1c.2 0 .3 .1 .5 .1Z" fill="#b884b1"/></g><g clip-rule="evenodd" fill-rule="evenodd" stroke="#b04945" stroke-linecap="round" stroke-miterlimit="1.8" stroke-width=".3" stroke-linejoin="round" transform="translate(41.2,66.3) scale(3,3) translate(-13.7,-8.2)"><path d="M17.9 25.7c0-0.4 .1-0.7 .3-0.9c.2-0.3 .5-0.4 .8-0.5c.3-0.1 .6 0 .9 .1c.3 .2 .5 .4 .6 .8c.2-0.1 .3-0.1 .4-0.1c.2 0 .3 .1 .4 .1c.2 .1 .3 .1 .4 .2c.1 .1 .2 .2 .3 .3c.1 0 .3 0 .5 0c.2 0 .4 .1 .5 .2c.2 .1 .3 .2 .4 .4c.1 .1 .2 .3 .3 .5c.3 0 .5 .1 .7 .2c.1 0 .2 0 .3-0.1c.1 0 .2 0 .3 0c.1 0 .2 0 .3 .1c.1 0 .2 0 .2 .1c.2-0.4 .5-0.7 .9-0.8v-0.2c0-0.3 .1-0.6 .3-0.9c.2-0.2 .5-0.4 .9-0.4c.3-0.1 .6 0 .9 .1c.3 .2 .5 .5 .6 .8c.2-0.1 .4-0.1 .5-0.1c.3 0 .6 .1 .9 .3c.2 .1 .4 .4 .5 .7c0 .3 0 .6-0.1 .8c-0.1 .3-0.2 .5-0.5 .7c.1 .1 .3 .3 .3 .4c.1 .2 .1 .4 .2 .5c0 .2-0.1 .4-0.1 .6c-0.1 .1-0.2 .3-0.3 .4c.1 .1 .1 .2 .1 .3c0 .1 0 .2 0 .3c0 .1-0.1 .2-0.1 .3c0 .1-0.1 .2-0.1 .3c.1 .2 .3 .4 .3 .7c.1 .2 .1 .5 0 .7c-0.1 .2-0.2 .5-0.4 .6c-0.2 .2-0.4 .3-0.7 .3c0 .2 0 .4-0.1 .6c.1 .2 .1 .4 .1 .6c0 .2-0.1 .5-0.2 .6c-0.1 .2-0.2 .4-0.4 .5c-0.2 .1-0.4 .2-0.6 .2c-0.1 .2-0.2 .3-0.3 .4c-0.2 .1-0.3 .2-0.5 .2c-0.1 .1-0.3 .1-0.5 .1c-0.2 0-0.3-0.1-0.5-0.2c-0.1 .1-0.3 .2-0.5 .2c-0.2 0-0.5 0-0.6-0.1c-0.2-0.1-0.4-0.2-0.5-0.3c-0.2-0.2-0.3-0.3-0.3-0.5c-0.2 .1-0.4 .1-0.5 .1c-0.2 .1-0.4 .1-0.6 0c-0.1 0-0.3-0.1-0.4-0.2c-0.2-0.1-0.3-0.2-0.4-0.3c-0.2 .1-0.4 .1-0.6 .2c0 .4-0.3 .9-0.8 1c0 .6-0.4 1-0.8 1.2c-0.1 .2-0.2 .4-0.3 .6c-0.1 .1-0.3 .3-0.5 .4c-0.2 .1-0.4 .1-0.6 .1c-0.2 0-0.4 0-0.6-0.1c-0.2 .1-0.3 .1-0.5 .2c-0.1 0-0.3 0-0.5 0c-0.1 0-0.3 0-0.4-0.1c-0.2-0.1-0.3-0.2-0.4-0.3c-0.5 0-0.9-0.2-1.1-0.6c-0.2 .2-0.3 .4-0.5 .5c-0.2 .1-0.5 .2-0.7 .2c-0.2 0-0.4-0.1-0.6-0.2c-0.2-0.1-0.4-0.2-0.5-0.4c-0.1 0-0.1 0-0.2 0c0 0-0.1 0-0.1 0c-0.1 0-0.1 0-0.2 0c0 0-0.1 0-0.1 0c-0.1 .1-0.2 .1-0.3 .2c-0.1 0-0.2 .1-0.3 .1c-0.1 0-0.2 0-0.4 0c-0.1 0-0.2 0-0.3 0c0 0-0.1 .1-0.2 .1c-0.1 .1-0.2 .1-0.3 .1c-0.1 .1-0.2 .1-0.3 .1c-0.1 0-0.2 0-0.3 0c-0.1 0-0.3 0-0.4 0c-0.1 0-0.3 0-0.4-0.1c-0.1 0-0.2-0.1-0.4-0.2c-0.1 0-0.2-0.1-0.2-0.2c-0.3 .2-0.7 .4-1.1 .4c-0.2 0-0.5 0-0.7-0.1c-0.2-0.2-0.3-0.3-0.5-0.5c-0.1-0.2-0.2-0.5-0.2-0.7c0-0.2 .1-0.5 .2-0.7c-0.3-0.2-0.5-0.6-0.5-1c0 0 0 0 0 0c-0.1-0.1-0.3-0.2-0.4-0.4c-0.1-0.1-0.1-0.2-0.2-0.4c0-0.2-0.1-0.3 0-0.5c0-0.1 0-0.3 .1-0.5c-0.1 0-0.2-0.1-0.2-0.2c-0.1-0.1-0.1-0.2-0.2-0.3c0-0.1 0-0.2 0-0.4c0-0.1 0-0.2 0-0.3c-0.3-0.1-0.6-0.3-0.8-0.6c-0.1-0.2-0.2-0.5-0.2-0.9c.1-0.3 .2-0.6 .4-0.8c.3-0.2 .6-0.4 .9-0.4c.1-0.4 .4-0.7 .7-0.9c-0.1-0.2-0.1-0.4-0.1-0.7c0-0.2 .1-0.4 .2-0.6c.1-0.2 .3-0.3 .5-0.4c.2-0.1 .4-0.2 .6-0.2c.1-0.1 .2-0.1 .3-0.2c.1 0 .1-0.1 .2-0.1c.1 0 .2 0 .3 0c.1 0 .3 0 .4 0c0-0.2 .2-0.4 .3-0.5c.1-0.2 .3-0.4 .5-0.6c.2-0.2 .4-0.3 .6-0.3c.3 0 .6 0 .8 .1c.2 .1 .4 .3 .6 .5c.1-0.2 .2-0.3 .4-0.5c.2-0.1 .4-0.2 .6-0.2c.2 0 .4 0 .6 .1c.2 0 .4 .1 .5 .3c.2-0.1 .3-0.2 .5-0.3c.2 0 .4-0.1 .6 0c.2 0 .3 0 .5 .1c.2 .1 .3 .3 .4 .4c.1-0.2 .3-0.3 .5-0.5c.2-0.1 .4-0.2 .6-0.2c.2 0 .4 0 .6 .1c.2 .1 .4 .2 .6 .4Z" fill="#974581" transform="translate(-4,-22.6)"/><path d="M16.1 32.2c.1-0.6 .5-1 1.1-1.1c.5-0.2 1 0 1.4 .5c.3 .4 .3 1 .1 1.5c-0.3 .4-0.8 .7-1.3 .7c0 0 .1 .1 .1 .2c0 .1 0 .2 .1 .2c0 .1 0 .2 0 .3c0 .1 0 .2 0 .3h.1c.2 0 .4 0 .6 .1c.2 .1 .3 .2 .4 .4c.2 .1 .3 .3 .3 .5c.1 .2 .1 .4 0 .6c.2 .2 .4 .4 .5 .7c0 .3 0 .6-0.1 .8c-0.1 .3-0.3 .5-0.5 .7c-0.2 .1-0.5 .2-0.8 .2c-0.2 0-0.4 0-0.6-0.1c-0.2-0.1-0.3-0.2-0.5-0.4c-0.1-0.1-0.2-0.3-0.2-0.5c-0.1-0.2-0.1-0.4 0-0.6c-0.1-0.1-0.2-0.2-0.3-0.3c0-0.1-0.1-0.2-0.1-0.3c0-0.1-0.1-0.2-0.1-0.3c0-0.2 0-0.3 0-0.4h-0.1c-0.2 0-0.4 0-0.5-0.1c-0.2-0.1-0.4-0.2-0.5-0.4c-0.1-0.1-0.2-0.3-0.3-0.5c0-0.2-0.1-0.4 0-0.6c-0.1 0-0.1 0-0.2 0c0 0 0 0-0.1-0.1c0 0-0.1 0-0.1 0c-0.1 0-0.1 0-0.1-0.1c-0.1 .1-0.2 .2-0.3 .2c-0.1 .1-0.2 .1-0.4 .1c-0.1 .1-0.2 .1-0.3 .1c-0.1 0-0.2-0.1-0.3-0.1c.1 .1 .1 .3 .2 .5c0 .2 0 .3-0.1 .5c0 .2-0.1 .3-0.2 .5c-0.1 .1-0.2 .2-0.3 .3c0 .2 .1 .4 0 .7c0 .2-0.1 .4-0.2 .5c-0.2 .2-0.3 .4-0.5 .5c-0.2 .1-0.4 .1-0.6 .1h-0.1c-0.2 .5-0.6 .9-1.1 1c-0.5 .1-1.1-0.1-1.4-0.5c-0.3-0.4-0.3-1-0.1-1.5c.3-0.4 .8-0.7 1.3-0.7c.1-0.3 .3-0.6 .6-0.8c0-0.1-0.1-0.2-0.1-0.3c0-0.1 0-0.2 0-0.3c0-0.1 .1-0.2 .1-0.3c0-0.1 .1-0.1 .1-0.2c0 0 0 0 0 0c0-0.1 0-0.1 0-0.1c0 0 0 0 0 0c0 0 0 0 0 0c-0.1 .1-0.2 .2-0.4 .2c-0.1 .1-0.2 .1-0.3 .1c-0.1 .1-0.3 .1-0.4 .1c-0.1-0.1-0.2-0.1-0.3-0.1c-0.1 .6-0.7 1.1-1.4 1.1c-0.3 .4-0.7 .6-1.2 .5c-0.5-0.1-0.9-0.3-1.1-0.8c-0.2-0.4-0.1-0.9 .1-1.3c.2-0.4 .7-0.6 1.1-0.6c.1-0.1 .2-0.2 .4-0.3c.1-0.1 .2-0.1 .3-0.2c.2 0 .3 0 .5 0c.1 0 .2 0 .4 .1c0-0.3 .1-0.5 .3-0.7c.1-0.2 .4-0.3 .6-0.4c.2-0.1 .5-0.1 .7-0.1c.3 .1 .5 .2 .7 .4c.1-0.1 .2-0.2 .4-0.3c.1 0 .3-0.1 .4-0.1c.2 0 .3 .1 .5 .1c.1 0 .3 .1 .4 .2c.1-0.1 .2-0.2 .4-0.3c.1-0.1 .2-0.1 .4-0.2c.2 0 .3 0 .5 0c.1 0 .3 .1 .4 .2c.2-0.2 .3-0.2 .5-0.3c.2 0 .4-0.1 .6 0c.2 0 .4 .1 .5 .2c.2 .1 .3 .2 .4 .4Zm6 1.4c.4 0 .7 .2 1 .4c.2 .3 .4 .6 .4 1c0 .3-0.2 .7-0.4 .9c-0.3 .3-0.6 .4-1 .4c-0.4 0-0.7-0.1-1-0.4c-0.2-0.2-0.4-0.6-0.4-0.9c0-0.4 .2-0.7 .4-1c.3-0.2 .6-0.4 1-0.4Zm-4.5-8.6v-0.2c0-0.4 .2-0.8 .5-1c.3-0.3 .7-0.4 1.1-0.4c.3 .1 .7 .3 .9 .6c.2 .4 .3 .8 .2 1.1c.1-0.1 .3-0.2 .5-0.3c.1-0.1 .3-0.1 .5-0.1c.2 0 .4 0 .5 .1c.2 .1 .4 .2 .5 .3c.2-0.1 .4-0.2 .6-0.2c.3 0 .5 .1 .7 .2c.2 .1 .3 .3 .5 .4c.1 .2 .2 .4 .2 .7c.1-0.2 .2-0.3 .3-0.4c.1-0.1 .2-0.2 .3-0.3c.2-0.1 .3-0.1 .5-0.1c.1 0 .3 0 .5 0c0-0.2 .2-0.4 .3-0.6c.2-0.1 .4-0.2 .6-0.3c.2 0 .5 0 .7 0c.2 .1 .4 .2 .6 .3c.2-0.1 .4-0.2 .7-0.2c.2 0 .4 0 .7 .1c.2 .1 .4 .3 .5 .5c.1 .2 .2 .4 .2 .6c.3 .1 .6 .2 .8 .4c.2 .1 .3 .4 .4 .6c.1 .3 .1 .6 0 .8c-0.1 .3-0.3 .5-0.5 .7c.1 .2 .2 .5 .1 .8c0 .3-0.2 .5-0.4 .7c-0.2 .2-0.4 .3-0.7 .4c-0.3 0-0.6 0-0.8-0.1c0 .4-0.1 .7-0.4 1c-0.2 .3-0.6 .4-1 .4c-0.3 0-0.7-0.1-0.9-0.4c-0.3-0.2-0.4-0.5-0.5-0.9c0 .3-0.1 .6-0.3 .8c.6 .1 1.1 .6 1.2 1.2c.1 .6-0.3 1.2-0.9 1.4c-0.6 .3-1.3 0-1.6-0.5c-0.4-0.5-0.3-1.2 .1-1.7c-0.1 0-0.3-0.1-0.4-0.1v.1c0 .6-0.4 1.2-1 1.4c-0.6 .1-1.2-0.1-1.5-0.6c-0.3-0.5-0.3-1.2 .1-1.7c.4-0.4 1.1-0.6 1.6-0.3v-0.2c0-0.3 .1-0.7 .4-0.9c.2-0.3 .6-0.4 1-0.5c.3 0 .7 .2 .9 .4c.3 .3 .5 .6 .5 1c0-0.2 .1-0.4 .2-0.6c.1-0.2 .3-0.4 .4-0.5c.2-0.1 .4-0.1 .7-0.1c.2-0.1 .4 0 .6 .1v-0.1c0-0.4 .2-0.8 .5-1.1c0-0.1-0.1-0.2-0.1-0.4c-0.3 0-0.6-0.1-0.8-0.3c0 0-0.1 .1-0.2 .1c-0.1 0-0.2 .1-0.3 .1c-0.1 0-0.2 0-0.3 0c-0.1 0-0.2 0-0.3 0c0 .2-0.1 .3-0.3 .5c-0.1 .1-0.3 .2-0.5 .3c-0.1 .1-0.3 .1-0.5 .1c-0.2 0-0.4-0.1-0.6-0.2c-0.1 .4-0.3 .7-0.6 .9c-0.3 .2-0.6 .3-1 .3c-0.3-0.1-0.7-0.3-0.9-0.6c-0.2-0.3-0.3-0.7-0.2-1c0 0 0-0.1-0.1-0.1c0 0 0 0 0 0c0 0-0.1-0.1-0.1-0.1c0 0 0 0 0 0c-0.2 .1-0.4 .1-0.6 .1c-0.2 0-0.3 0-0.5 0c-0.2-0.1-0.4-0.2-0.5-0.3c-0.1-0.1-0.2-0.3-0.3-0.4c-0.2 .1-0.3 .2-0.5 .3c-0.2 .1-0.4 .2-0.6 .2c-0.2 0-0.4 0-0.6-0.1c-0.1-0.1-0.3-0.2-0.4-0.4c-0.2 .2-0.4 .4-0.6 .5c-0.2 .2-0.4 .2-0.7 .2c-0.3 0-0.5-0.1-0.7-0.2c-0.2-0.2-0.4-0.4-0.5-0.6c0 .2-0.1 .4-0.2 .5c-0.2 .1-0.3 .3-0.5 .4c-0.2 0-0.3 .1-0.5 .1c-0.2 0-0.4 0-0.6-0.1c-0.1 .1-0.3 .3-0.5 .3c-0.1 .1-0.3 .2-0.5 .2c-0.2 0-0.4-0.1-0.6-0.1c-0.1-0.1-0.3-0.2-0.4-0.4c-0.1 .3-0.2 .5-0.4 .6c-0.2 .2-0.4 .3-0.7 .3c-0.2 .1-0.4 .1-0.7 0c-0.2-0.1-0.4-0.2-0.5-0.4c-0.2 .3-0.4 .5-0.7 .6c.1 .3 .1 .5 .1 .7c-0.1 .2-0.2 .4-0.3 .5c-0.1 .2-0.3 .4-0.5 .4c-0.2 .1-0.4 .2-0.6 .2c.1 .2 .1 .4 .1 .6c-0.1 .3-0.1 .5-0.3 .7c-0.1 .1-0.3 .3-0.5 .4c-0.2 .1-0.4 .2-0.6 .2c-0.4 0-0.7-0.2-1-0.5c-0.2-0.2-0.4-0.6-0.4-0.9c0-0.4 .2-0.7 .5-1c.2-0.2 .6-0.4 .9-0.4c0-0.1-0.1-0.3-0.1-0.5c0-0.1 .1-0.3 .1-0.5c.1-0.1 .2-0.3 .3-0.4c.1-0.1 .2-0.2 .4-0.3c-0.1-0.3-0.1-0.6 0-0.9c.2-0.3 .4-0.5 .6-0.7c.3-0.1 .6-0.2 .9-0.1c.3 0 .6 .1 .8 .4c-0.1-0.4-0.1-0.8 0-1.1c.2-0.4 .5-0.6 .8-0.7c.4-0.2 .8-0.1 1.1 .1c.4 .1 .6 .4 .7 .8c.1-0.1 .2-0.2 .3-0.2c.1-0.1 .3-0.1 .4-0.2c.1 0 .2 0 .4 0c.1 0 .2 .1 .4 .1c.1-0.2 .3-0.3 .5-0.4c.2-0.1 .5-0.1 .7 0c.2 0 .4 .1 .6 .2c.2 .2 .4 .4 .5 .6c0-0.3 .1-0.5 .3-0.6c.1-0.2 .3-0.3 .5-0.4c.3 0 .5-0.1 .7 0c.2 0 .4 .1 .6 .3Zm2.6 3.6c.3-0.1 .7 .1 .9 .4c.3 .2 .4 .6 .4 .9c.1 .4-0.1 .7-0.4 1c-0.2 .2-0.6 .4-0.9 .4c-0.4 0-0.7-0.2-1-0.4c-0.2-0.3-0.4-0.6-0.4-1c0-0.3 .2-0.7 .4-0.9c.3-0.3 .6-0.4 1-0.4Z" fill="#b25f9e" transform="translate(-4,-22.6)"/><path d="M19 25c-0.2-0.2-0.3-0.5-0.4-0.7c-0.1-0.3-0.1-0.6 0-0.8c.2-0.3 .3-0.5 .6-0.7c.2-0.1 .5-0.2 .7-0.2c.3 0 .6 .1 .8 .2c.3 .2 .4 .4 .5 .7c.1 .3 .1 .6 .1 .8c-0.1 .3-0.3 .6-0.5 .7c.1 .1 .1 .2 .2 .3c.2-0.2 .5-0.3 .8-0.3c.7 0 1.3 .5 1.4 1.2c.1-0.1 .2-0.2 .3-0.3c.2 0 .3-0.1 .5-0.1c.1 0 .3 0 .4 0c.2 .1 .3 .1 .4 .2v-0.2c0-0.6 .5-1.1 1.1-1.3c.6-0.1 1.2 .1 1.5 .7c.3 .5 .2 1.2-0.2 1.6c-0.5 .5-1.2 .5-1.7 .2v.2c0 .6-0.4 1.1-0.9 1.3c.2 .2 .3 .5 .4 .8c0 .3-0.1 .6-0.2 .9c-0.2 .2-0.4 .4-0.7 .5c-0.3 .1-0.6 .1-0.9 .1c0 .1-0.1 .3-0.2 .4c-0.1 .2-0.2 .3-0.4 .4c-0.1 .1-0.3 .1-0.5 .2c-0.2 0-0.3 0-0.5 0c0 .1-0.1 .3-0.1 .5c.4 .1 .7 .4 .8 .7c.1-0.7 .7-1.2 1.3-1.2c.7 0 1.3 .4 1.4 1.1c.2 .7-0.3 1.4-0.9 1.6c-0.7 .2-1.4-0.2-1.7-0.8c0 .4-0.2 .7-0.5 1c-0.4 .2-0.8 .3-1.2 .2c-0.4-0.1-0.7-0.4-0.9-0.7c-0.1-0.4-0.2-0.8 0-1.2c-0.2 0-0.3-0.1-0.4-0.2c-0.2-0.1-0.3-0.2-0.4-0.4c0-0.1-0.1-0.3-0.1-0.4c-0.1-0.2-0.1-0.4 0-0.5c-0.1 0-0.2 .1-0.3 .2c-0.1 0-0.3 0-0.4 0c-0.1 .1-0.2 .1-0.3 0c-0.1 0-0.2 0-0.4 0c.1 .1 .1 .2 .1 .3c0 .2 0 .3-0.1 .4c0 .1-0.1 .2-0.2 .4c0 .1-0.1 .1-0.2 .2c.7 0 1.2 .5 1.3 1.2c.1 .6-0.2 1.3-0.9 1.5c-0.6 .2-1.3 0-1.6-0.6c-0.3-0.6-0.2-1.3 .3-1.8c-0.3 0-0.6-0.1-0.9-0.3c-0.1 .1-0.2 .2-0.3 .2c-0.2 .1-0.3 .1-0.5 .1c-0.1 0-0.3 0-0.4-0.1c-0.1 0-0.3-0.1-0.4-0.2c-0.1 .1-0.2 .2-0.4 .2c-0.1 0-0.3 .1-0.4 .1c-0.1 0-0.3-0.1-0.4-0.1c-0.1-0.1-0.3-0.1-0.4-0.2c.2 .2 .3 .5 .3 .8c0 .4-0.1 .7-0.4 1c-0.2 .2-0.6 .4-1 .4c-0.3 0-0.7-0.1-0.9-0.4c-0.3-0.2-0.4-0.6-0.4-1c-0.2 .2-0.4 .3-0.6 .4c-0.2 .4-0.5 .7-1 .7c-0.4 .1-0.9-0.1-1.2-0.4c-0.3-0.3-0.4-0.8-0.3-1.3c.1-0.4 .4-0.8 .8-0.9c.1-0.2 .3-0.4 .4-0.5c.2-0.2 .4-0.3 .6-0.3c.2 0 .5 0 .7 0c.2 .1 .4 .2 .5 .3c0-0.2 .1-0.5 .3-0.7c.1-0.2 .4-0.3 .6-0.4c.2-0.1 .5-0.2 .8-0.1c.2 0 .5 .2 .6 .3c.2-0.1 .3-0.2 .4-0.2c.2-0.1 .4-0.2 .5-0.2c.2 0 .4 0 .5 .1c.2 0 .3 .1 .5 .2c.1-0.1 .2-0.2 .4-0.2c.1 0 .2-0.1 .4-0.1c.1 .1 .3 .1 .4 .1c.2 .1 .3 .2 .4 .3c.1-0.1 .2-0.2 .3-0.2c.1 0 .2-0.1 .3-0.1c.1 0 .3 0 .4 0c.1 0 .2 0 .3 .1c-0.1-0.4 0-0.8 .3-1.1c.2-0.4 .6-0.6 1-0.6c.4 0 .8 .2 1.1 .5c.2 .3 .4 .7 .3 1.1c.1 0 .2-0.1 .2-0.1c.1-0.1 .2-0.1 .3-0.1c.1-0.1 .2-0.1 .3-0.1c.1 0 .2 0 .3 .1c0-0.2 .1-0.4 .2-0.6c.1-0.2 .2-0.4 .4-0.5c.2-0.1 .3-0.2 .6-0.2c.2-0.1 .4 0 .6 0c.1-0.5 .4-0.8 .8-1c-0.1-0.2-0.3-0.4-0.3-0.7c-0.2 .1-0.3 .3-0.5 .3c-0.2 .1-0.4 .1-0.6 .1c-0.2 0-0.4-0.1-0.6-0.2c-0.2-0.1-0.3-0.3-0.4-0.5c-0.1 .1-0.3 .2-0.4 .2c-0.1 .1-0.3 .1-0.4 .1c-0.2 0-0.3 0-0.4 0c-0.2-0.1-0.3-0.1-0.4-0.2c-0.2 .2-0.4 .3-0.7 .4c-0.3 0-0.6 0-0.8-0.1c-0.3-0.1-0.5-0.3-0.6-0.5c-0.2-0.2-0.3-0.5-0.3-0.8v-0.2c0 .1-0.1 .1-0.1 .1c-0.1 0-0.2 0-0.2 0c-0.1 0-0.1 0-0.2 0c-0.1 0-0.1 0-0.2 0c0 .6-0.4 1.1-0.9 1.3c-0.6 .2-1.2 0-1.5-0.4c-0.4-0.5-0.4-1.1-0.1-1.6c.3-0.5 .9-0.8 1.5-0.6v-0.1c0-0.3 .2-0.7 .4-0.9c.3-0.3 .7-0.4 1-0.4c.4 .1 .7 .2 1 .5c.2 .3 .3 .6 .3 1c.1 0 .2-0.1 .3-0.1c.1 0 .2 0 .3 .1c.1 0 .2 0 .3 0c.1 .1 .2 .1 .3 .2l.1-0.1Zm-8.9 .8v-0.1c0-0.5 .3-1 .7-1.2c.5-0.2 1-0.2 1.4 0c.5 .3 .7 .8 .7 1.3c-0.1 .5-0.4 .9-0.9 1.1v.2c0 .3-0.1 .6-0.3 .9c.1 .2 .1 .5 0 .8c0 .2-0.2 .5-0.4 .7c-0.2 .1-0.5 .3-0.7 .3c-0.3 0-0.6 0-0.8-0.2c-0.1 .1-0.3 .2-0.4 .3c-0.1 .1-0.3 .1-0.4 .1c-0.2 .1-0.3 0-0.5 0c-0.1 0-0.3-0.1-0.4-0.1c-0.2 .2-0.5 .3-0.7 .4c.1 .2 .1 .4 .2 .6c0 .2 0 .5-0.1 .7c-0.1 .2-0.2 .3-0.4 .5c-0.1 .1-0.3 .2-0.5 .3c-0.2 .4-0.6 .7-1.1 .7c-0.4 .1-0.9-0.1-1.2-0.5c-0.3-0.3-0.4-0.8-0.2-1.2c.1-0.5 .5-0.8 .9-1c.2-0.3 .5-0.6 .9-0.7c-0.2-0.2-0.3-0.5-0.2-0.8c0-0.3 .1-0.6 .3-0.9c.2-0.2 .5-0.3 .8-0.4c.3 0 .7 0 .9 .2c.1-0.1 .2-0.2 .4-0.3c.1-0.1 .2-0.1 .4-0.2c.1 0 .3 0 .4 0c.2 0 .3 .1 .5 .1c-0.1-0.1-0.1-0.3-0.1-0.5c0-0.1 .1-0.3 .1-0.4c.1-0.2 .2-0.3 .3-0.4c.1-0.1 .3-0.2 .4-0.3Zm19-1.5c.4 0 .7 .1 1 .4c.2 .2 .4 .6 .4 .9c0 .4-0.2 .8-0.4 1c-0.3 .3-0.6 .4-1 .4c-0.4 0-0.7-0.1-1-0.4c-0.2-0.2-0.4-0.6-0.4-1c0-0.3 .2-0.7 .4-0.9c.3-0.3 .6-0.4 1-0.4Z" fill="#b884b1" transform="translate(-4,-22.6)"/></g></g></g><script xlink:href="keyshapejs-1.1.0.min.js"/><script><![CDATA[if(KeyshapeJS.version.indexOf('1.')!=0)throw Error('Expected KeyshapeJS v1.*.*');window.ks=document.ks=KeyshapeJS;(function(ks){
ks.animate("#_a0",[{p:'opacity',t:[0,500],v:[1,0],e:[[0],[0]]}],
"#Ribosome",[{p:'mpath',t:[333,1000,2125,5292,7000],v:['0%','21.2%','39.4%','59.3%','100%'],e:[[1,0,0,.6,1],[1,0,0,.6,1],[1,0,0,.6,1],[1,0,0,.6,1],[0]],mp:"M153.7,631.1L23.6,699.1L149.9,699.1L288.5,699.1L570.5,699.1"},{p:'rotate',t:[0,1750,5292,7000],v:[20,0,0,-150],e:[[1,0,0,.6,1],[0],[1,.4,0,1,1],[0]]},{p:'opacity',t:[5667,7000],v:[1,0],e:[[0],[0]]}],
"#RNA-coiled-2",[{p:'mpath',t:[0,1000,2500,5667,7208],v:['0%','31.4%','33.1%','75.4%','100%'],e:[[1,0,0,.6,1],[1,0,0,.6,1],[1,0,0,.4,.5],[1,.3,.5,.7,1],[0]],mp:"M28.4,970.1L268.8,789.2L276.8,774.2L-128.9,775.4L-364.4,776.2"},{p:'rotate',t:[2458,2958,4000,4958,6292],v:[0,-9,0,3,3],e:[[1,.4,0,.6,1],[1,.4,0,.6,1],[1,.4,0,.6,1],[0],[0]]},{p:'opacity',t:[5375,6292],v:[1,0],e:[[0],[0]]},{p:'d',t:[0,1000,2500,5708,6292],v:["path('M.9,3.3C.9,3.3,2.3,3.3,2.2,3.3L2.3,1.3L2.2,3.3C2.1,3.4,3.6,3.4,3.5,3.4C3.4,3.4,4.9,3.5,4.8,3.5L4.9,1.5L4.8,3.5C4.7,3.5,6.2,3.6,6.1,3.6C6.1,3.6,7.5,3.7,7.4,3.8L7.7,1.7L7.4,3.8C7.3,3.8,8.9,3.9,8.8,3.9C8.7,4,10.2,4,10.1,4.1L10.4,2L10.1,4.1C10,4.2,11.6,4.2,11.5,4.3C11.5,4.4,12.9,4.5,12.9,4.5L13.2,2.4L12.9,4.5C12.8,4.6,14.4,4.7,14.3,4.8C14.3,4.8,15.8,5,15.7,5L16.1,2.8L15.7,5C15.7,5.1,17.2,5.2,17.2,5.3C17.2,5.4,18.7,5.5,18.6,5.6L19.1,3.3L18.6,5.6C18.6,5.7,20.2,5.8,20.2,5.9C20.2,6,21.7,6.1,21.7,6.2L22.2,3.8L21.7,6.2C21.7,6.3,23.3,6.4,23.3,6.5C23.3,6.6,24.8,6.7,24.8,6.8L25.3,4.3L24.8,6.8C24.8,6.9,26.5,7,26.5,7.1C26.5,7.2,28,7.3,28.1,7.4L28.5,4.8L28.1,7.4C28.1,7.5,29.7,7.6,29.8,7.7C29.8,7.8,31.4,7.9,31.4,8L31.9,5.4L31.4,8C31.4,8.1,33.1,8.2,33.2,8.3C33.2,8.3,34.8,8.5,34.9,8.6L35.3,5.8L34.9,8.6C34.9,8.7,36.6,8.7,36.7,8.8C36.7,8.9,38.3,9,38.4,9.1L38.8,6.3L38.4,9.1C38.5,9.1,40.2,9.2,40.3,9.3C40.3,9.3,41.9,9.4,42,9.5L42.3,6.6L42,9.5C42.1,9.6,43.8,9.6,43.9,9.7C44,9.7,45.6,9.8,45.7,9.8L46,6.9L45.7,9.8C45.8,9.9,47.5,9.9,47.6,10C47.7,10,49.4,10.1,49.5,10.1L49.6,7.2L49.5,10.1C49.6,10.1,51.3,10.2,51.4,10.2C51.5,10.2,53.1,10.2,53.3,10.3L53.3,7.3L53.3,10.3C53.4,10.3,55.1,10.3,55.2,10.3C55.3,10.3,56.9,10.3,57.1,10.3L57.1,7.3L57.1,10.3C57.2,10.3,58.9,10.3,59,10.3C59.1,10.3,60.8,10.3,60.9,10.3L60.8,7.3L60.9,10.3C61,10.2,62.7,10.2,62.8,10.2C62.9,10.2,64.5,10.1,64.6,10.1L64.5,7.2L64.6,10.1C64.7,10.1,66.5,10,66.6,10C66.6,10,68.3,9.9,68.4,9.8L68.1,6.9L68.4,9.8C68.5,9.8,70.2,9.7,70.3,9.7C70.3,9.6,72,9.6,72.1,9.5L71.8,6.6L72.1,9.5C72.2,9.4,73.9,9.4,74,9.3C74,9.2,75.6,9.1,75.7,9.1L75.3,6.3L75.7,9.1C75.8,9,77.5,8.9,77.5,8.8C77.6,8.8,79.2,8.7,79.3,8.6L78.8,5.8L79.3,8.6C79.3,8.5,81,8.4,81,8.3C81.1,8.2,82.7,8.1,82.7,8L82.2,5.4L82.7,8C82.7,7.9,84.4,7.8,84.4,7.7C84.5,7.6,86,7.5,86.1,7.4L85.6,4.8L86.1,7.4C86.1,7.3,87.7,7.2,87.7,7.1C87.7,7,89.3,6.9,89.3,6.8L88.8,4.3L89.3,6.8C89.3,6.7,90.9,6.6,90.9,6.5C90.9,6.4,92.5,6.3,92.4,6.2L92,3.8L92.4,6.2C92.4,6.1,94,6,94,5.9C94,5.8,95.5,5.7,95.5,5.6L95,3.3L95.5,5.6C95.4,5.5,97,5.4,97,5.3C97,5.2,98.5,5.1,98.4,5L98,2.8L98.4,5C98.4,5,99.9,4.9,99.9,4.8C99.8,4.7,101.3,4.6,101.3,4.5L100.9,2.4L101.3,4.5C101.2,4.5,102.8,4.4,102.7,4.3C102.6,4.3,104.1,4.2,104,4.1L103.7,2L104,4.1C103.9,4,105.5,4,105.4,3.9C105.3,3.9,106.8,3.8,106.7,3.8L106.5,1.7L106.7,3.8C106.6,3.7,108.2,3.7,108.1,3.6C108,3.6,109.4,3.5,109.3,3.5L109.2,1.5L109.3,3.5C109.2,3.5,110.8,3.4,110.7,3.4C110.6,3.4,112,3.4,111.9,3.3L111.9,1.3L111.9,3.3C111.8,3.3,113.4,3.3,113.3,3.3C113.2,3.3,114.6,3.3,114.5,3.3L114.5,1.3L114.5,3.3C114.4,3.3,116,3.3,115.8,3.3')","path('M13.9,1.9C14.3,1.8,15.2,1.8,15.6,1.8L15.6,3.1L15.6,1.8C16,1.9,17.1,1.9,17.3,1.9C17.7,1.9,18.6,2,19,2.1L18.7,3.3L19,2.1C19.4,2.2,20.4,2.3,20.6,2.4C21,2.5,21.9,2.7,22.3,2.8L21.7,3.9L22.3,2.8C22.6,3,23.7,3.2,23.9,3.3C24.2,3.5,25.1,3.7,25.4,4L24.6,4.9L25.4,4C25.8,4.2,26.8,4.5,27,4.7C27.3,4.9,28.1,5.2,28.4,5.5L27.3,6.2L28.4,5.5C28.7,5.9,29.7,6.2,29.8,6.4C30.1,6.7,30.9,7.1,31.2,7.4L29.8,7.9L31.2,7.4C31.4,7.8,32.3,8.2,32.4,8.5C32.7,8.8,33.4,9.2,33.6,9.6L32.1,9.8L33.6,9.6C33.8,10.1,34.6,10.5,34.7,10.8C34.9,11.2,35.6,11.6,35.8,12.1L34.1,11.9L35.8,12.1C35.9,12.5,36.6,13,36.7,13.3C36.8,13.7,37.4,14.2,37.5,14.6L35.8,14.1L37.5,14.6C37.6,15.1,38.2,15.6,38.3,15.9C38.3,16.4,38.9,16.8,38.9,17.3L37.1,16.4L38.9,17.3C38.9,17.8,39.5,18.3,39.5,18.6C39.4,19,39.9,19.5,39.9,19.9L38.1,18.6L39.9,19.9C39.8,20.4,40.3,20.9,40.3,21.2C40.2,21.6,40.6,22,40.5,22.5L38.8,20.8L40.5,22.5C40.4,22.9,40.8,23.4,40.7,23.7C40.5,24.1,40.9,24.5,40.7,24.9L39.2,22.9L40.7,24.9C40.5,25.3,40.9,25.7,40.8,25.9C40.5,26.3,40.9,26.7,40.6,27L39.3,24.7L40.6,27C40.4,27.4,40.7,27.8,40.5,28C40.2,28.3,40.5,28.6,40.2,28.9L39.1,26.3L40.2,28.9C39.9,29.2,40.2,29.5,40,29.6C39.7,29.9,39.9,30.1,39.6,30.4L38.7,27.6L39.6,30.4C39.2,30.6,39.4,30.8,39.2,30.9C38.9,31.1,39.1,31.3,38.7,31.4L38.1,28.6L38.7,31.4C38.4,31.6,38.5,31.8,38.3,31.8C37.9,31.9,38.1,32,37.8,32.1L37.4,29.1L37.8,32.1C37.4,32.2,37.5,32.2,37.3,32.2C36.9,32.3,37.1,32.3,36.7,32.3L36.7,29.3L36.7,32.3C36.3,32.3,36.4,32.2,36.2,32.2C35.8,32.2,36,32.1,35.6,32L35.9,29.1L35.6,32C35.2,31.9,35.4,31.8,35.2,31.7C34.8,31.6,35,31.5,34.6,31.3L35.2,28.4L34.6,31.3C34.2,31.1,34.4,30.9,34.2,30.8C33.8,30.6,34.1,30.4,33.7,30.1L34.6,27.4L33.7,30.1C33.4,29.9,33.6,29.6,33.4,29.4C33.1,29.2,33.3,28.9,33,28.6L34.2,26.1L33,28.6C32.7,28.3,33,27.9,32.8,27.7C32.5,27.4,32.8,27,32.6,26.7L33.9,24.5L32.6,26.7C32.3,26.3,32.6,25.9,32.5,25.6C32.3,25.3,32.6,24.9,32.4,24.5L33.9,22.6L32.4,24.5C32.2,24.1,32.6,23.6,32.5,23.3C32.3,22.9,32.7,22.5,32.6,22.1L34.3,20.5L32.6,22.1C32.5,21.6,32.9,21.1,32.8,20.8C32.7,20.4,33.2,20,33.1,19.5L34.9,18.3L33.1,19.5C33.1,19,33.6,18.5,33.6,18.2C33.5,17.8,34.1,17.3,34.1,16.8L35.8,16L34.1,16.8C34.1,16.4,34.7,15.8,34.7,15.6C34.7,15.1,35.3,14.7,35.4,14.2L37.1,13.7L35.4,14.2C35.4,13.7,36.1,13.2,36.2,12.9C36.2,12.5,36.9,12.1,37,11.7L38.7,11.5L37,11.7C37.2,11.2,37.9,10.7,38,10.5C38.2,10.1,38.9,9.7,39.1,9.3L40.6,9.5L39.1,9.3C39.3,8.9,40.1,8.4,40.2,8.2C40.5,7.8,41.2,7.5,41.5,7.1L42.9,7.6L41.5,7.1C41.7,6.8,42.6,6.4,42.8,6.2C43,5.9,43.9,5.6,44.2,5.3L45.3,6L44.2,5.3C44.5,5,45.4,4.6,45.6,4.5C45.9,4.2,46.8,4,47.1,3.8L48,4.7L47.1,3.8C47.5,3.5,48.5,3.3,48.6,3.2C49,3,49.9,2.8,50.3,2.7L50.9,3.8L50.3,2.7C50.6,2.5,51.7,2.4,51.9,2.3C52.2,2.2,53.2,2.1,53.5,2L53.9,3.2L53.5,2C53.9,2,55,1.9,55.2,1.9')","path('M.9,3.3C.9,3.3,2.3,3.3,2.2,3.3L2.3,1.3L2.2,3.3C2.1,3.4,3.6,3.4,3.5,3.4C3.4,3.4,4.9,3.5,4.8,3.5L4.9,1.5L4.8,3.5C4.7,3.5,6.2,3.6,6.1,3.6C6.1,3.6,7.5,3.7,7.4,3.8L7.7,1.7L7.4,3.8C7.3,3.8,8.9,3.9,8.8,3.9C8.7,4,10.2,4,10.1,4.1L10.4,2L10.1,4.1C10,4.2,11.6,4.2,11.5,4.3C11.5,4.4,12.9,4.5,12.9,4.5L13.2,2.4L12.9,4.5C12.8,4.6,14.4,4.7,14.3,4.8C14.3,4.8,15.8,5,15.7,5L16.1,2.8L15.7,5C15.7,5.1,17.2,5.2,17.2,5.3C17.2,5.4,18.7,5.5,18.6,5.6L19.1,3.3L18.6,5.6C18.6,5.7,20.2,5.8,20.2,5.9C20.2,6,21.7,6.1,21.7,6.2L22.2,3.8L21.7,6.2C21.7,6.3,23.3,6.4,23.3,6.5C23.3,6.6,24.8,6.7,24.8,6.8L25.3,4.3L24.8,6.8C24.8,6.9,26.5,7,26.5,7.1C26.5,7.2,28,7.3,28.1,7.4L28.5,4.8L28.1,7.4C28.1,7.5,29.7,7.6,29.8,7.7C29.8,7.8,31.4,7.9,31.4,8L31.9,5.4L31.4,8C31.4,8.1,33.1,8.2,33.2,8.3C33.2,8.3,34.8,8.5,34.9,8.6L35.3,5.8L34.9,8.6C34.9,8.7,36.6,8.7,36.7,8.8C36.7,8.9,38.3,9,38.4,9.1L38.8,6.3L38.4,9.1C38.5,9.1,40.2,9.2,40.3,9.3C40.3,9.3,41.9,9.4,42,9.5L42.3,6.6L42,9.5C42.1,9.6,43.8,9.6,43.9,9.7C44,9.7,45.6,9.8,45.7,9.8L46,6.9L45.7,9.8C45.8,9.9,47.5,9.9,47.6,10C47.7,10,49.4,10.1,49.5,10.1L49.6,7.2L49.5,10.1C49.6,10.1,51.3,10.2,51.4,10.2C51.5,10.2,53.1,10.2,53.3,10.3L53.3,7.3L53.3,10.3C53.4,10.3,55.1,10.3,55.2,10.3C55.3,10.3,56.9,10.3,57.1,10.3L57.1,7.3L57.1,10.3C57.2,10.3,58.9,10.3,59,10.3C59.1,10.3,60.8,10.3,60.9,10.3L60.8,7.3L60.9,10.3C61,10.2,62.7,10.2,62.8,10.2C62.9,10.2,64.5,10.1,64.6,10.1L64.5,7.2L64.6,10.1C64.7,10.1,66.5,10,66.6,10C66.6,10,68.3,9.9,68.4,9.8L68.1,6.9L68.4,9.8C68.5,9.8,70.2,9.7,70.3,9.7C70.3,9.6,72,9.6,72.1,9.5L71.8,6.6L72.1,9.5C72.2,9.4,73.9,9.4,74,9.3C74,9.2,75.6,9.1,75.7,9.1L75.3,6.3L75.7,9.1C75.8,9,77.5,8.9,77.5,8.8C77.6,8.8,79.2,8.7,79.3,8.6L78.8,5.8L79.3,8.6C79.3,8.5,81,8.4,81,8.3C81.1,8.2,82.7,8.1,82.7,8L82.2,5.4L82.7,8C82.7,7.9,84.4,7.8,84.4,7.7C84.5,7.6,86,7.5,86.1,7.4L85.6,4.8L86.1,7.4C86.1,7.3,87.7,7.2,87.7,7.1C87.7,7,89.3,6.9,89.3,6.8L88.8,4.3L89.3,6.8C89.3,6.7,90.9,6.6,90.9,6.5C90.9,6.4,92.5,6.3,92.4,6.2L92,3.8L92.4,6.2C92.4,6.1,94,6,94,5.9C94,5.8,95.5,5.7,95.5,5.6L95,3.3L95.5,5.6C95.4,5.5,97,5.4,97,5.3C97,5.2,98.5,5.1,98.4,5L98,2.8L98.4,5C98.4,5,99.9,4.9,99.9,4.8C99.8,4.7,101.3,4.6,101.3,4.5L100.9,2.4L101.3,4.5C101.2,4.5,102.8,4.4,102.7,4.3C102.6,4.3,104.1,4.2,104,4.1L103.7,2L104,4.1C103.9,4,105.5,4,105.4,3.9C105.3,3.9,106.8,3.8,106.7,3.8L106.5,1.7L106.7,3.8C106.6,3.7,108.2,3.7,108.1,3.6C108,3.6,109.4,3.5,109.3,3.5L109.2,1.5L109.3,3.5C109.2,3.5,110.8,3.4,110.7,3.4C110.6,3.4,112,3.4,111.9,3.3L111.9,1.3L111.9,3.3C111.8,3.3,113.4,3.3,113.3,3.3C113.2,3.3,114.6,3.3,114.5,3.3L114.5,1.3L114.5,3.3C114.4,3.3,116,3.3,115.8,3.3')","path('M.9,3.3C.9,3.3,2.3,3.3,2.2,3.3L2.3,1.3L2.2,3.3C2.1,3.4,3.6,3.4,3.5,3.4C3.4,3.4,4.9,3.5,4.8,3.5L4.9,1.5L4.8,3.5C4.7,3.5,6.2,3.6,6.1,3.6C6.1,3.6,7.5,3.7,7.4,3.8L7.7,1.7L7.4,3.8C7.3,3.8,8.9,3.9,8.8,3.9C8.7,4,10.2,4,10.1,4.1L10.4,2L10.1,4.1C10,4.2,11.6,4.2,11.5,4.3C11.5,4.4,12.9,4.5,12.9,4.5L13.2,2.4L12.9,4.5C12.8,4.6,14.4,4.7,14.3,4.8C14.3,4.8,15.8,5,15.7,5L16.1,2.8L15.7,5C15.7,5.1,17.2,5.2,17.2,5.3C17.2,5.4,18.7,5.5,18.6,5.6L19.1,3.3L18.6,5.6C18.6,5.7,20.2,5.8,20.2,5.9C20.2,6,21.7,6.1,21.7,6.2L22.2,3.8L21.7,6.2C21.7,6.3,23.3,6.4,23.3,6.5C23.3,6.6,24.8,6.7,24.8,6.8L25.3,4.3L24.8,6.8C24.8,6.9,26.5,7,26.5,7.1C26.5,7.2,28,7.3,28.1,7.4L28.5,4.8L28.1,7.4C28.1,7.5,29.7,7.6,29.8,7.7C29.8,7.8,31.4,7.9,31.4,8L31.9,5.4L31.4,8C31.4,8.1,33.1,8.2,33.2,8.3C33.2,8.3,34.8,8.5,34.9,8.6L35.3,5.8L34.9,8.6C34.9,8.7,36.6,8.7,36.7,8.8C36.7,8.9,38.3,9,38.4,9.1L38.8,6.3L38.4,9.1C38.5,9.1,40.2,9.2,40.3,9.3C40.3,9.3,41.9,9.4,42,9.5L42.3,6.6L42,9.5C42.1,9.6,43.8,9.6,43.9,9.7C44,9.7,45.6,9.8,45.7,9.8L46,6.9L45.7,9.8C45.8,9.9,47.5,9.9,47.6,10C47.7,10,49.4,10.1,49.5,10.1L49.6,7.2L49.5,10.1C49.6,10.1,51.3,10.2,51.4,10.2C51.5,10.2,53.1,10.2,53.3,10.3L53.3,7.3L53.3,10.3C53.4,10.3,55.1,10.3,55.2,10.3C55.3,10.3,56.9,10.3,57.1,10.3L57.1,7.3L57.1,10.3C57.2,10.3,58.9,10.3,59,10.3C59.1,10.3,60.8,10.3,60.9,10.3L60.8,7.3L60.9,10.3C61,10.2,62.7,10.2,62.8,10.2C62.9,10.2,64.5,10.1,64.6,10.1L64.5,7.2L64.6,10.1C64.7,10.1,66.5,10,66.6,10C66.6,10,68.3,9.9,68.4,9.8L68.1,6.9L68.4,9.8C68.5,9.8,70.2,9.7,70.3,9.7C70.3,9.6,72,9.6,72.1,9.5L71.8,6.6L72.1,9.5C72.2,9.4,73.9,9.4,74,9.3C74,9.2,75.6,9.1,75.7,9.1L75.3,6.3L75.7,9.1C75.8,9,77.5,8.9,77.5,8.8C77.6,8.8,79.2,8.7,79.3,8.6L78.8,5.8L79.3,8.6C79.3,8.5,81,8.4,81,8.3C81.1,8.2,82.7,8.1,82.7,8L82.2,5.4L82.7,8C82.7,7.9,84.4,7.8,84.4,7.7C84.5,7.6,86,7.5,86.1,7.4L85.6,4.8L86.1,7.4C86.1,7.3,87.7,7.2,87.7,7.1C87.7,7,89.3,6.9,89.3,6.8L88.8,4.3L89.3,6.8C89.3,6.7,90.9,6.6,90.9,6.5C90.9,6.4,92.5,6.3,92.4,6.2L92,3.8L92.4,6.2C92.4,6.1,94,6,94,5.9C94,5.8,95.5,5.7,95.5,5.6L95,3.3L95.5,5.6C95.4,5.5,97,5.4,97,5.3C97,5.2,98.5,5.1,98.4,5L98,2.8L98.4,5C98.4,5,99.9,4.9,99.9,4.8C99.8,4.7,101.3,4.6,101.3,4.5L100.9,2.4L101.3,4.5C101.2,4.5,102.8,4.4,102.7,4.3C102.6,4.3,104.1,4.2,104,4.1L103.7,2L104,4.1C103.9,4,105.5,4,105.4,3.9C105.3,3.9,106.8,3.8,106.7,3.8L106.5,1.7L106.7,3.8C106.6,3.7,108.2,3.7,108.1,3.6C108,3.6,109.4,3.5,109.3,3.5L109.2,1.5L109.3,3.5C109.2,3.5,110.8,3.4,110.7,3.4C110.6,3.4,112,3.4,111.9,3.3L111.9,1.3L111.9,3.3C111.8,3.3,113.4,3.3,113.3,3.3C113.2,3.3,114.6,3.3,114.5,3.3L114.5,1.3L114.5,3.3C114.4,3.3,116,3.3,115.8,3.3')","path('M13.9,1.9C14.3,1.8,15.2,1.8,15.6,1.8L15.6,3.1L15.6,1.8C16,1.9,17.1,1.9,17.3,1.9C17.7,1.9,18.6,2,19,2.1L18.7,3.3L19,2.1C19.4,2.2,20.4,2.3,20.6,2.4C21,2.5,21.9,2.7,22.3,2.8L21.7,3.9L22.3,2.8C22.6,3,23.7,3.2,23.9,3.3C24.2,3.5,25.1,3.7,25.4,4L24.6,4.9L25.4,4C25.8,4.2,26.8,4.5,27,4.7C27.3,4.9,28.1,5.2,28.4,5.5L27.3,6.2L28.4,5.5C28.7,5.9,29.7,6.2,29.8,6.4C30.1,6.7,30.9,7.1,31.2,7.4L29.8,7.9L31.2,7.4C31.4,7.8,32.3,8.2,32.4,8.5C32.7,8.8,33.4,9.2,33.6,9.6L32.1,9.8L33.6,9.6C33.8,10.1,34.6,10.5,34.7,10.8C34.9,11.2,35.6,11.6,35.8,12.1L34.1,11.9L35.8,12.1C35.9,12.5,36.6,13,36.7,13.3C36.8,13.7,37.4,14.2,37.5,14.6L35.8,14.1L37.5,14.6C37.6,15.1,38.2,15.6,38.3,15.9C38.3,16.4,38.9,16.8,38.9,17.3L37.1,16.4L38.9,17.3C38.9,17.8,39.5,18.3,39.5,18.6C39.4,19,39.9,19.5,39.9,19.9L38.1,18.6L39.9,19.9C39.8,20.4,40.3,20.9,40.3,21.2C40.2,21.6,40.6,22,40.5,22.5L38.8,20.8L40.5,22.5C40.4,22.9,40.8,23.4,40.7,23.7C40.5,24.1,40.9,24.5,40.7,24.9L39.2,22.9L40.7,24.9C40.5,25.3,40.9,25.7,40.8,25.9C40.5,26.3,40.9,26.7,40.6,27L39.3,24.7L40.6,27C40.4,27.4,40.7,27.8,40.5,28C40.2,28.3,40.5,28.6,40.2,28.9L39.1,26.3L40.2,28.9C39.9,29.2,40.2,29.5,40,29.6C39.7,29.9,39.9,30.1,39.6,30.4L38.7,27.6L39.6,30.4C39.2,30.6,39.4,30.8,39.2,30.9C38.9,31.1,39.1,31.3,38.7,31.4L38.1,28.6L38.7,31.4C38.4,31.6,38.5,31.8,38.3,31.8C37.9,31.9,38.1,32,37.8,32.1L37.4,29.1L37.8,32.1C37.4,32.2,37.5,32.2,37.3,32.2C36.9,32.3,37.1,32.3,36.7,32.3L36.7,29.3L36.7,32.3C36.3,32.3,36.4,32.2,36.2,32.2C35.8,32.2,36,32.1,35.6,32L35.9,29.1L35.6,32C35.2,31.9,35.4,31.8,35.2,31.7C34.8,31.6,35,31.5,34.6,31.3L35.2,28.4L34.6,31.3C34.2,31.1,34.4,30.9,34.2,30.8C33.8,30.6,34.1,30.4,33.7,30.1L34.6,27.4L33.7,30.1C33.4,29.9,33.6,29.6,33.4,29.4C33.1,29.2,33.3,28.9,33,28.6L34.2,26.1L33,28.6C32.7,28.3,33,27.9,32.8,27.7C32.5,27.4,32.8,27,32.6,26.7L33.9,24.5L32.6,26.7C32.3,26.3,32.6,25.9,32.5,25.6C32.3,25.3,32.6,24.9,32.4,24.5L33.9,22.6L32.4,24.5C32.2,24.1,32.6,23.6,32.5,23.3C32.3,22.9,32.7,22.5,32.6,22.1L34.3,20.5L32.6,22.1C32.5,21.6,32.9,21.1,32.8,20.8C32.7,20.4,33.2,20,33.1,19.5L34.9,18.3L33.1,19.5C33.1,19,33.6,18.5,33.6,18.2C33.5,17.8,34.1,17.3,34.1,16.8L35.8,16L34.1,16.8C34.1,16.4,34.7,15.8,34.7,15.6C34.7,15.1,35.3,14.7,35.4,14.2L37.1,13.7L35.4,14.2C35.4,13.7,36.1,13.2,36.2,12.9C36.2,12.5,36.9,12.1,37,11.7L38.7,11.5L37,11.7C37.2,11.2,37.9,10.7,38,10.5C38.2,10.1,38.9,9.7,39.1,9.3L40.6,9.5L39.1,9.3C39.3,8.9,40.1,8.4,40.2,8.2C40.5,7.8,41.2,7.5,41.5,7.1L42.9,7.6L41.5,7.1C41.7,6.8,42.6,6.4,42.8,6.2C43,5.9,43.9,5.6,44.2,5.3L45.3,6L44.2,5.3C44.5,5,45.4,4.6,45.6,4.5C45.9,4.2,46.8,4,47.1,3.8L48,4.7L47.1,3.8C47.5,3.5,48.5,3.3,48.6,3.2C49,3,49.9,2.8,50.3,2.7L50.9,3.8L50.3,2.7C50.6,2.5,51.7,2.4,51.9,2.3C52.2,2.2,53.2,2.1,53.5,2L53.9,3.2L53.5,2C53.9,2,55,1.9,55.2,1.9')"],e:[[1,.4,0,.6,1],[1,.4,0,.6,1],[0],[0],[0]]}],
"#Strands",[{p:'mpath',t:[3000,6000,7500],v:['0%','28.2%','100%'],e:[[1,0,0,.6,1],[1,0,0,.6,1],[0]],mp:"M266.6,681.1L364.6,680.1L237.1,894.1"},{p:'opacity',t:[2958,3000],v:[0,1],e:[[0],[0]]}],
"#Strand-1",[{p:'mpath',t:[3000,4583,5375],v:['0%','60.4%','100%'],e:[[1,0,0,.6,1],[1,0,0,.6,1],[0]],mp:"M21.4,238.2L21.4,58.2L-43.1,-40.8"},{p:'rotate',t:[3000,4000,4750,5375,8000,9000,10000],v:[16,-3.1,0,20,0,5,0],e:[[0],[0],[0],[0],[1,.4,0,.6,1],[1,.4,0,.6,1],[0]]}],
"#Strand-2",[{p:'mpath',t:[4750,6000],v:['0%','100%'],e:[[1,0,0,.6,1],[0]],mp:"M23.9,186.2L23.9,60.2"},{p:'rotate',t:[4750,5292,8000,9000,10000],v:[0,-27,0,-5,0],e:[[0],[0],[1,.4,0,.6,1],[1,.4,0,.6,1],[0]]}],
"#_a1",[{p:'opacity',t:[7292,8000],v:[0,1],e:[[0],[0]]}],
"#Ribosome-extras",[{p:'mpath',t:[2125,5292],v:['0%','100%'],e:[[1,0,0,.6,1],[0]],mp:"M154.3,710.5L293,710.5"},{p:'opacity',t:[2125,2500,5250,5292],v:[0,1,1,0],e:[[0],[0],[0],[0]]}],
{autoremove:false,markers:{"LoopStart":8000}}).range(0,10000);
if(document.location.search.substr(1).split('&').indexOf('global=paused')>=0)ks.globalPause()})(KeyshapeJS);
]]></script></svg>