<svg xmlns="http://www.w3.org/2000/svg" xmlns:xlink="http://www.w3.org/1999/xlink" width="100%" height="100%" viewBox="0 0 500 800" style="background: rgba(224,255,255,0.00); white-space: pre;"><g transform="translate(922.4,299.6) translate(-825.1,-640.8)"><path id="RNA-coiled-2" d="M.9 3.3c0 0 1.4 0 1.3 0l.1-2l-0.1 2c-0.1 .1 1.4 .1 1.3 .1c-0.1 0 1.4 .1 1.3 .1l.1-2l-0.1 2c-0.1 0 1.4 .1 1.3 .1c0 0 1.4 .1 1.3 .2l.3-2.1l-0.3 2.1c-0.1 0 1.5 .1 1.4 .1c-0.1 .1 1.4 .1 1.3 .2l.3-2.1l-0.3 2.1c-0.1 .1 1.5 .1 1.4 .2c0 .1 1.4 .2 1.4 .2l.3-2.1l-0.3 2.1c-0.1 .1 1.5 .2 1.4 .3c0 0 1.5 .2 1.4 .2l.4-2.2l-0.4 2.2c0 .1 1.5 .2 1.5 .3c0 .1 1.5 .2 1.4 .3l.5-2.3l-0.5 2.3c0 .1 1.6 .2 1.6 .3c0 .1 1.5 .2 1.5 .3l.5-2.4l-0.5 2.4c0 .1 1.6 .2 1.6 .3c0 .1 1.5 .2 1.5 .3l.5-2.5l-0.5 2.5c0 .1 1.7 .2 1.7 .3c0 .1 1.5 .2 1.6 .3l.4-2.5l-0.4 2.5c0 .1 1.6 .2 1.7 .3c0 .1 1.6 .2 1.6 .3l.5-2.6l-0.5 2.6c0 .1 1.7 .2 1.8 .3c0 0 1.6 .2 1.7 .3l.4-2.8l-0.4 2.8c0 .1 1.7 .1 1.8 .2c0 .1 1.6 .2 1.7 .3l.4-2.8l-0.4 2.8c.1 0 1.8 .1 1.9 .2c0 0 1.6 .1 1.7 .2l.3-2.9l-0.3 2.9c.1 .1 1.8 .1 1.9 .2c.1 0 1.7 .1 1.8 .1l.3-2.9l-0.3 2.9c.1 .1 1.8 .1 1.9 .2c.1 0 1.8 .1 1.9 .1l.1-2.9l-0.1 2.9c.1 0 1.8 .1 1.9 .1c.1 0 1.7 0 1.9 .1v-3v3c.1 0 1.8 0 1.9 0c.1 0 1.7 0 1.9 0v-3v3c.1 0 1.8 0 1.9 0c.1 0 1.8 0 1.9 0l-0.1-3l.1 3c.1-0.1 1.8-0.1 1.9-0.1c.1 0 1.7-0.1 1.8-0.1l-0.1-2.9l.1 2.9c.1 0 1.9-0.1 2-0.1c0 0 1.7-0.1 1.8-0.2l-0.2-2.9l.2 2.9c.1 0 1.8-0.1 1.9-0.1c0-0.1 1.7-0.1 1.8-0.2l-0.3-2.9l.3 2.9c.1-0.1 1.8-0.1 1.9-0.2c0-0.1 1.6-0.2 1.7-0.2l-0.4-2.8l.4 2.8c.1-0.1 1.8-0.2 1.8-0.3c.1 0 1.7-0.1 1.8-0.2l-0.5-2.8l.5 2.8c0-0.1 1.7-0.2 1.7-0.3c.1-0.1 1.7-0.2 1.7-0.3l-0.5-2.6l.5 2.6c0-0.1 1.7-0.2 1.7-0.3c.1-0.1 1.6-0.2 1.7-0.3l-0.5-2.6l.5 2.6c0-0.1 1.6-0.2 1.6-0.3c0-0.1 1.6-0.2 1.6-0.3l-0.5-2.5l.5 2.5c0-0.1 1.6-0.2 1.6-0.3c0-0.1 1.6-0.2 1.5-0.3l-0.4-2.4l.4 2.4c0-0.1 1.6-0.2 1.6-0.3c0-0.1 1.5-0.2 1.5-0.3l-0.5-2.3l.5 2.3c-0.1-0.1 1.5-0.2 1.5-0.3c0 0 1.5-0.2 1.4-0.3l-0.4-2.2l.4 2.2c0 0 1.5-0.1 1.5-0.2c-0.1-0.1 1.4-0.2 1.4-0.3l-0.4-2.1l.4 2.1c-0.1 0 1.5-0.1 1.4-0.2c-0.1 0 1.4-0.1 1.3-0.2l-0.3-2.1l.3 2.1c-0.1-0.1 1.5-0.1 1.4-0.2c-0.1 0 1.4-0.1 1.3-0.1l-0.2-2.1l.2 2.1c-0.1-0.1 1.5-0.1 1.4-0.2c-0.1 0 1.3-0.1 1.2-0.1l-0.1-2l.1 2c-0.1 0 1.5-0.1 1.4-0.1c-0.1 0 1.3 0 1.2-0.1v-2v2c-0.1 0 1.5 0 1.4 0c-0.1 0 1.3 0 1.2 0v-2v2c-0.1 0 1.5 0 1.3 0" fill="none" stroke="#ffb000" stroke-width="1.5px" clip-rule="evenodd" stroke-linecap="round" stroke-linejoin="round" stroke-miterlimit="1.8" transform="translate(28.4,748.1) translate(0,0) scale(3.55,3.55) translate(-23.1,-22.8)"/><text id="_a0" font-size="18" font-family="ABCSans" font-weight="900" letter-spacing=".1em" word-spacing="0" text-anchor="middle" opacity="0" transform="translate(152.6,652.3)" style="line-height: 16px;">RIBOSOME</text><g id="Ribosome" clip-rule="evenodd" fill-rule="evenodd" stroke="#b04945" stroke-linecap="round" stroke-miterlimit="1.8" stroke-width=".3" stroke-linejoin="round" transform="translate(-25.4,239) translate(0,0) rotate(360) scale(3,3) translate(-17.6,-20.1)"><g transform="translate(15.3,23.7) translate(-14.2,-8.9)"><path d="M4.9 15.9c0-0.3 .2-0.6 .5-0.8c.2-0.2 .5-0.3 .9-0.3c.3 0 .6 .1 .8 .4c.3 .2 .4 .5 .5 .8c.5 .2 .9 .6 .9 1.2c.2-0.1 .4-0.2 .6-0.2c.2 0 .4 .1 .6 .2c.2 .1 .4 .2 .5 .4c.1 .1 .2 .3 .3 .5c.1-0.2 .4-0.4 .7-0.5c.3 0 .6 0 .9 .1c.3 .1 .5 .4 .6 .6c.2 .3 .2 .6 .2 .9l7.7 3c.1-0.1 .2-0.3 .3-0.3c.1-0.1 .2-0.2 .3-0.3c.2 0 .3-0.1 .4-0.1c.2 0 .3 0 .5 0c.1-0.1 .3-0.3 .6-0.3c.2-0.1 .4-0.1 .7 0c.2 .1 .4 .2 .5 .4c.2 .1 .3 .3 .4 .6c.1-0.2 .3-0.2 .5-0.3c.1 0 .3 0 .5 0c.2 0 .3 0 .5 .1c.2 .1 .3 .2 .4 .4c.2-0.2 .5-0.2 .8-0.2c.2 0 .5 .1 .7 .2c.2 .2 .4 .4 .5 .6c.1 .3 .1 .5 .1 .8c.1 .1 .3 .3 .4 .5c.1 .2 .2 .5 .2 .7c-0.1 .2-0.1 .5-0.2 .7c-0.2 .2-0.3 .3-0.5 .5l1 2.2l-22.7 2c-0.1 .3-0.3 .6-0.6 .8c-0.3 .1-0.7 .2-1 .1c-0.4 0-0.7-0.3-0.9-0.5c-0.2-0.3-0.2-0.7-0.2-1c-0.2-0.1-0.3-0.1-0.5-0.2c-0.2-0.1-0.3-0.3-0.4-0.4c-0.1-0.2-0.2-0.4-0.2-0.5c0-0.2 0-0.4 0-0.6c-0.1-0.1-0.3-0.2-0.4-0.3c-0.1-0.1-0.2-0.2-0.3-0.3c-0.1-0.2-0.1-0.3-0.1-0.5c0-0.2 0-0.3 0-0.5c-0.1-0.1-0.2-0.2-0.3-0.3c-0.1-0.1-0.2-0.3-0.2-0.4c0-0.2-0.1-0.3 0-0.5c0-0.1 0-0.3 .1-0.4c-0.1-0.1-0.2-0.2-0.2-0.4c-0.1-0.1-0.1-0.2-0.2-0.4c0-0.1 0-0.2 .1-0.4c0-0.1 0-0.2 .1-0.4c-0.1-0.1-0.1-0.2-0.2-0.3c0-0.1-0.1-0.3-0.1-0.4c0-0.2 .1-0.3 .1-0.4c0-0.2 .1-0.3 .2-0.4c-0.1-0.2-0.1-0.4-0.1-0.6c0-0.2 0-0.4 .1-0.6c.1-0.1 .2-0.3 .4-0.4c.2-0.1 .4-0.2 .6-0.3c0-0.5 .4-1 .9-1.1c.1-0.6 .5-1.1 1.1-1.2c-0.1-0.1-0.1-0.3-0.2-0.5c0-0.1 .1-0.3 .1-0.5c.1-0.1 .2-0.3 .3-0.4c.1-0.1 .2-0.2 .4-0.3Z" fill="#974581" transform="translate(-1,-14.8)"/><path d="M4.9 29.8c-0.4-0.5-0.5-1.2-0.1-1.7c.3-0.5 1-0.7 1.6-0.5c.6 .2 .9 .8 .9 1.4c-0.1 .7-0.6 1.2-1.2 1.3c.2 .2 .4 .5 .4 .9c0 .5-0.3 1-0.8 1.2c-0.5 .2-1.1 .1-1.5-0.2c-0.4-0.3-0.6-0.9-0.4-1.4c.1-0.5 .5-0.9 1.1-1Zm22-4.3c.1-0.5 .5-0.8 1-0.9c.6-0.1 1.1 .1 1.4 .5c.3 .5 .3 1 .1 1.5c-0.3 .5-0.8 .7-1.3 .7c.1 .2 .1 .4 .1 .6c-0.1 .3-0.2 .5-0.3 .6c-0.1 .2-0.3 .4-0.5 .5c-0.2 .1-0.4 .1-0.6 .1c-0.7 0-1.3-0.5-1.4-1.2c-0.3 .1-0.8 .1-1.1 0c-0.4-0.2-0.7-0.5-0.8-0.9c-0.1-0.4 0-0.9 .2-1.2c.3-0.3 .7-0.5 1.1-0.5c.1-0.2 .3-0.3 .5-0.3c.2-0.1 .4-0.1 .6-0.1c.2 0 .4 .1 .5 .2c.2 .1 .3 .3 .5 .4Zm-19.4-6.8c-0.3-0.2-0.6-0.6-0.6-1c-0.1-0.4 .1-0.8 .4-1.1c.3-0.3 .7-0.4 1.1-0.4c.5 .1 .8 .3 1 .7c.3-0.2 .5-0.3 .8-0.3c.3 0 .6 .1 .8 .3c.2 .1 .4 .3 .5 .6c.1 .3 .1 .5 .1 .8c.4 .3 .6 .8 .6 1.3c0 .5-0.4 .9-0.8 1.1c-0.5 .2-1.1 .2-1.5-0.2c-0.3-0.3-0.5-0.8-0.4-1.3c0-0.1-0.1-0.1-0.1-0.1c-0.1-0.1-0.1-0.1-0.2-0.1c0-0.1 0-0.1-0.1-0.2c0 0 0-0.1-0.1-0.1c-0.2 .1-0.4 .2-0.6 .2c.3 .3 .6 .7 .6 1.2c.3 0 .6 .1 .8 .3c.2 .2 .4 .5 .4 .8c.1 .3 .1 .6-0.1 .8c-0.1 .3-0.3 .5-0.6 .7c.3 .2 .6 .5 .6 .9c.2-0.1 .4-0.1 .6-0.1c.2 .1 .4 .1 .5 .2c.2 .1 .3 .3 .5 .4c.1 .2 .1 .3 .2 .5c-0.1-0.3-0.2-0.6-0.1-0.9c0-0.3 .1-0.6 .4-0.8c.2-0.2 .5-0.4 .8-0.4c.3 0 .6 0 .8 .2c0-0.3 .1-0.5 .3-0.7c.1-0.2 .4-0.4 .6-0.4c.2-0.1 .5-0.2 .7-0.1c.3 0 .5 .1 .7 .3c.2-0.1 .4-0.2 .7-0.3c.2 0 .5 .1 .7 .2c.2 .1 .4 .3 .6 .5c.1 .2 .2 .5 .1 .7c0 .5-0.2 .8-0.5 1.1c.2 .3 .2 .6 0 1c-0.1 .3-0.3 .5-0.6 .7c-0.3 .2-0.6 .2-0.9 .1c-0.3 0-0.6-0.2-0.8-0.5c-0.1 .1-0.2 .1-0.3 .2c-0.1 0-0.2 0-0.2 .1c-0.1 0-0.2 0-0.3 0c-0.1 0-0.2 0-0.3 0c0 .2-0.1 .5-0.3 .8c-0.2 .2-0.4 .4-0.7 .5c-0.3 0-0.6 0-0.8-0.1c-0.3-0.1-0.6-0.3-0.7-0.5v.1c0 .4-0.2 .7-0.4 1c-0.3 .2-0.6 .4-1 .4c-0.4 0-0.7-0.2-1-0.4c-0.2-0.3-0.4-0.6-0.4-1c-0.1 .2-0.4 .4-0.6 .4c-0.3 .1-0.6 .1-0.8 0c-0.3-0.1-0.5-0.2-0.7-0.5c-0.2-0.2-0.3-0.4-0.3-0.7c-0.3 0-0.6-0.2-0.8-0.4c.1 .2 .1 .4 0 .6c0 .2-0.1 .4-0.2 .6c-0.1 .2-0.3 .3-0.5 .4c-0.2 .1-0.4 .2-0.6 .2h-0.1c.2 .4 .2 .9 0 1.3c-0.2 .4-0.6 .6-1.1 .7c-0.4 0-0.9-0.2-1.1-0.5c-0.3-0.4-0.4-0.9-0.3-1.3c-0.2-0.2-0.4-0.4-0.5-0.7c-0.1-0.3-0.1-0.5 0-0.8c.1-0.3 .3-0.5 .5-0.7c.3-0.2 .5-0.3 .8-0.3c.2 0 .4 .1 .6 .2c.1-0.2 .3-0.4 .4-0.5c.2-0.1 .4-0.1 .6-0.2c.2 0 .4 0 .6 .1c.2 .1 .4 .2 .5 .3c0-0.3 0-0.6 .1-0.8c0-0.3 .2-0.5 .5-0.7c.2-0.2 .5-0.3 .8-0.3c.3 0 .5 .1 .8 .3c.1-0.2 .3-0.4 .5-0.5c-0.1-0.1-0.2-0.2-0.2-0.2c-0.1-0.1-0.2-0.2-0.2-0.3c-0.1-0.1-0.1-0.2-0.1-0.3c-0.1-0.1-0.1-0.2-0.1-0.3c-0.1 0-0.3-0.1-0.4-0.1c-0.2 0-0.3 .1-0.5 .1c-0.2 0-0.4 0-0.5 0c-0.2-0.1-0.4-0.1-0.5-0.3c-0.2-0.1-0.3-0.2-0.4-0.3c0 0-0.1 0-0.1 0c0 0-0.1 0-0.1 0c-0.1 0-0.1 0-0.1 0c-0.1 0-0.1-0.1-0.2-0.1c-0.2 .4-0.5 .6-0.8 .7c-0.2 .5-0.5 .8-1 1c-0.5 .1-1-0.1-1.3-0.4c-0.3-0.3-0.5-0.8-0.4-1.3c.2-0.5 .5-0.8 1-1c0-0.1 .1-0.3 .2-0.4c.1-0.2 .2-0.3 .4-0.4c.1-0.1 .3-0.1 .5-0.2c.2 0 .3 0 .5 .1c.1-0.2 .1-0.3 .2-0.4c.1-0.1 .2-0.1 .4-0.2c.1-0.1 .2-0.1 .3-0.1c.2-0.1 .3-0.1 .4-0.1c.2 0 .4-0.1 .5-0.1c.2 0 .4 .1 .5 .2c.2 0 .3 .1 .5 .2c.1 .2 .2 .3 .3 .5h.1c.1-0.1 .3-0.1 .5-0.2Zm14 5v-0.1c0-0.5 .3-1 .8-1.2c.4-0.2 .9-0.2 1.4 .1c.4 .2 .6 .7 .6 1.2c-0.1 .5-0.4 1-0.9 1.2l.1 .1c0 .6-0.5 1.2-1.1 1.3c-0.1 .2-0.3 .3-0.5 .3c-0.2 .1-0.3 .1-0.5 .1c-0.2 0-0.4-0.1-0.6-0.2c-0.2-0.1-0.3-0.2-0.4-0.3c-0.4 .4-1 .5-1.6 .3c-0.5-0.3-0.8-0.8-0.8-1.4c.1-0.5 .4-1 1-1.2c.5-0.2 1.1 0 1.5 .5c.2-0.2 .4-0.4 .6-0.4c.2-0.1 .3-0.2 .4-0.3Z" fill="#b25f9e" transform="translate(-1,-14.8)"/><path d="M23.2 23.5c.1-0.5 .3-0.9 .7-1.1c.4-0.2 .9-0.1 1.3 .1c.4 .2 .7 .6 .7 1c.1 .4-0.1 .9-0.4 1.2c.7-0.2 1.4 .2 1.6 .8c.3 .7 0 1.4-0.6 1.7c-0.6 .3-1.4 .2-1.8-0.4c-0.4-0.6-0.3-1.3 .2-1.8c-0.1 0-0.2 0-0.3 0c-0.1 0-0.2 0-0.3 0c0 0-0.1 0-0.2 0c-0.1-0.1-0.2-0.1-0.3-0.2c0 .3-0.2 .6-0.4 .8c-0.2 .2-0.5 .4-0.8 .4c-0.3 0-0.6 0-0.9-0.2c-0.2-0.2-0.4-0.4-0.5-0.7c-0.4 .5-1 .8-1.6 .6c-0.6-0.2-1-0.8-0.9-1.5c0-0.6 .5-1.1 1.1-1.2c.7-0.1 1.3 .3 1.5 .9c.1-0.2 .2-0.3 .4-0.4c.1-0.1 .3-0.2 .5-0.2c.1-0.1 .3-0.1 .5 0c.2 0 .4 .1 .5 .2Zm-10.6-2c.1-0.5 .3-0.9 .7-1.1c.4-0.2 .8-0.2 1.2-0.1c.4 .2 .7 .6 .8 1c.1 .4 0 .9-0.3 1.2c.2 .3 .2 .7 .1 1.1c-0.2 .3-0.4 .6-0.8 .7c-0.3 .2-0.7 .2-1 0c-0.4-0.1-0.6-0.4-0.8-0.7c-0.1 .1-0.3 .2-0.5 .2c.1 .4 0 .8-0.3 1.1c-0.3 .3-0.7 .5-1.1 .5c-0.4 0-0.8-0.2-1-0.5c-0.3-0.3-0.4-0.8-0.3-1.1c-0.1 .2-0.2 .4-0.4 .5c-0.1 .2-0.3 .3-0.6 .4c-0.2 0-0.4 0-0.7 0c-0.2-0.1-0.4-0.2-0.6-0.4c-0.2 .2-0.4 .3-0.7 .3c.3 .3 .4 .8 .3 1.3c-0.1 .4-0.5 .8-1 .9c-0.4 .1-0.9 0-1.3-0.3c-0.3-0.3-0.5-0.8-0.4-1.3c-0.2 .5-0.7 .9-1.2 .9c-0.6 .1-1.1-0.3-1.3-0.8c-0.3-0.5-0.2-1.1 .2-1.5c.4-0.4 1-0.5 1.5-0.3c.1-0.2 .2-0.3 .3-0.5c.1-0.1 .3-0.2 .5-0.3c.1-0.1 .3-0.1 .5-0.1c.2 0 .4 0 .5 .1c.1-0.2 .3-0.4 .4-0.6c.2-0.1 .4-0.2 .6-0.2c.3-0.1 .5-0.1 .7 0c.2 .1 .4 .2 .6 .4c.2-0.2 .4-0.3 .7-0.3c.2-0.1 .5 0 .7 .1c.2 .1 .4 .3 .6 .5c.1 .2 .2 .5 .2 .7v.3c.1-0.4 .5-0.8 1-0.9c-0.1-0.3-0.1-0.6 .1-0.8c.1-0.3 .3-0.5 .5-0.6c.3-0.2 .6-0.2 .9-0.2c.3 0 .5 .2 .7 .4Zm-4.2-3.3c.4 0 .8 .1 1 .4c.3 .2 .4 .6 .4 .9c0 .4-0.1 .8-0.4 1c-0.2 .3-0.6 .4-1 .4c-0.3 0-0.7-0.1-0.9-0.4c-0.3-0.2-0.4-0.6-0.4-1c0-0.3 .1-0.7 .4-0.9c.2-0.3 .6-0.4 .9-0.4Zm-3.8 0c0-0.6 .4-1.2 1-1.3c.6-0.2 1.3 .1 1.6 .7c.3 .5 .2 1.2-0.3 1.6c-0.4 .4-1.1 .5-1.7 .2c0 .6-0.4 1.2-1 1.3c-0.6 .2-1.2-0.1-1.5-0.6c-0.3-0.6-0.2-1.3 .2-1.7c.5-0.4 1.2-0.5 1.7-0.2Z" fill="#b884b1" transform="translate(-1,-14.8)"/></g><g><path d="M17.2 2.8c.1-0.2 .3-0.4 .4-0.5c.2-0.1 .4-0.1 .6-0.2c.2 0 .4 0 .5 .1c.2 0 .4 .1 .6 .3c.1-0.1 .2-0.2 .4-0.2c.1-0.1 .3-0.1 .4 0c.2 0 .3 0 .5 .1c.1 .1 .3 .1 .4 .3c.1-0.1 .3-0.1 .5-0.1c.1 0 .3 0 .5 .1c.1 .1 .3 .2 .4 .3c.1 .1 .2 .3 .3 .4c.1 0 .2 0 .3 0c.1 0 .2 0 .3 0c.1 0 .2 0 .3 .1c0 0 .1 0 .2 .1c.3-0.2 .6-0.3 .9-0.4c.3 0 .6 .1 .9 .3c.2 .2 .4 .5 .5 .8c.1 .3 0 .6-0.1 .9c.2 0 .5 .1 .7 .2c.2 .2 .4 .4 .5 .6c.1 .2 .1 .5 .1 .7c0 .3-0.1 .5-0.3 .7v.2c0 .5-0.3 1-0.7 1.2c0 .1 0 .3 0 .5c0 .1-0.1 .3-0.2 .4c0 .1-0.1 .3-0.3 .4c-0.1 .1-0.2 .1-0.4 .2c-0.1 .2-0.3 .4-0.5 .5c-0.2 .2-0.4 .3-0.6 .3c-0.3 0-0.5-0.1-0.8-0.2c-0.2-0.1-0.4-0.3-0.5-0.5c-0.1 0-0.2 .1-0.3 .1c-0.1 0-0.2-0.1-0.3-0.1c-0.1 0-0.2-0.1-0.3-0.1c-0.1-0.1-0.2-0.1-0.3-0.2c-0.2 0-0.5-0.1-0.7-0.2c-0.1 .2-0.3 .3-0.5 .3c0 .2 0 .3 0 .5c0 .1 0 .3-0.1 .4c0 .2-0.1 .3-0.2 .4c-0.1 .1-0.2 .2-0.3 .3v.2c0 .3-0.2 .7-0.4 .9c-0.2 .2-0.5 .4-0.8 .4c-0.4 .1-0.7 0-1-0.2c-0.3-0.2-0.5-0.5-0.5-0.8h-0.1c-0.2 0-0.4 0-0.6-0.1c-0.1-0.1-0.3-0.2-0.4-0.4c-0.2-0.1-0.2-0.3-0.3-0.5c-0.1-0.2-0.1-0.4 0-0.6c-0.1 0-0.1 0-0.1-0.1c0 0-0.1 0-0.1 0c0-0.1 0-0.1 0-0.1c0-0.1-0.1-0.1-0.1-0.1h-0.1c-0.2 0-0.4-0.1-0.6-0.1c-0.2 .4-0.7 .7-1.2 .7c-0.1 .3-0.2 .5-0.3 .7c-0.2 .1-0.4 .3-0.6 .3c-0.2 .1-0.5 .1-0.7 .1c-0.2 0-0.4-0.1-0.6-0.3c-0.2 .2-0.5 .3-0.7 .3c-0.1 .1-0.2 .3-0.3 .4c-0.2 .1-0.3 .2-0.5 .2c-0.1 .1-0.3 .1-0.4 .1c-0.2 0-0.3 0-0.5-0.1v.1c0 .5-0.2 .8-0.5 1.1c-0.3 .3-0.7 .4-1.1 .3c-0.4-0.1-0.8-0.3-1-0.7c-0.2-0.3-0.2-0.7 0-1.1c-0.2-0.1-0.4-0.3-0.5-0.4c-0.1-0.2-0.2-0.4-0.2-0.6c0-0.2 0-0.3 0-0.5c.1-0.2 .2-0.4 .3-0.6c-0.1-0.1-0.2-0.3-0.3-0.5c0-0.2 0-0.4 .1-0.6c0-0.2 .1-0.4 .2-0.6c.2-0.1 .3-0.2 .5-0.3c-0.1-0.2-0.1-0.4-0.1-0.6c0-0.6 .4-1.2 .9-1.3c0-0.2-0.1-0.4-0.1-0.6c.1-0.2 .1-0.4 .2-0.6c.1-0.1 .2-0.3 .4-0.4c.1-0.1 .3-0.2 .5-0.3c.1-0.2 .2-0.3 .3-0.5c.2-0.1 .4-0.3 .6-0.3c.2-0.1 .4-0.1 .6-0.1c.2 .1 .4 .1 .6 .3c.1-0.3 .2-0.6 .4-0.8c.3-0.1 .5-0.3 .8-0.3c.3 0 .6 0 .8 .2c.3 .1 .5 .3 .6 .6c0-0.2 .2-0.5 .3-0.6c.2-0.2 .4-0.4 .6-0.4c.3-0.1 .5-0.1 .8 0c.2 0 .4 .1 .6 .3c.1 0 .1 0 .2 0c0 0 .1 0 .1 0c.1 0 .1 0 .2 0c0 0 .1 0 .1 0c.1 0 .2-0.1 .3-0.1c.1 0 .2-0.1 .3-0.1c.1 0 .2 0 .3 0c.1 0 .2 0 .3 0Z" fill="#974581"/><path d="M11.1 10.3c.1-0.6 .6-1.2 1.3-1.2c.6-0.1 1.2 .3 1.4 .9c.2 .6-0.1 1.3-0.6 1.6c-0.6 .4-1.3 .2-1.7-0.3c-0.1 .7-0.6 1.2-1.3 1.3c-0.6 0-1.2-0.4-1.4-1c-0.2-0.6 .1-1.3 .6-1.6c.6-0.3 1.3-0.2 1.7 .3Zm7-2.5c.1-0.3 .4-0.6 .7-0.7c.3-0.2 .7-0.2 1.1-0.1c.3 .1 .6 .4 .7 .7c.2 .3 .2 .7 .1 1c.2 .3 .2 .6 .1 .9c0 .3-0.2 .6-0.4 .8c-0.2 .2-0.5 .3-0.8 .4c-0.3 0-0.6-0.1-0.9-0.3l-0.3 .1c-0.3 0-0.5-0.1-0.7-0.2c-0.2 .5-0.8 .8-1.3 .8c-0.6 0-1.1-0.4-1.3-0.9c-0.1-0.6 0-1.2 .5-1.5c.4-0.4 1-0.4 1.5-0.2c.2-0.4 .6-0.7 1-0.8Zm2.4-3.3c-0.5 .3-1 .3-1.5 .1c-0.4-0.3-0.7-0.8-0.7-1.3c.1-0.5 .4-1 .9-1.2c.4-0.2 1-0.1 1.4 .2c.1-0.1 .3-0.1 .5-0.2c.1 0 .3 0 .5 0c.1 0 .3 .1 .5 .2c.1 .1 .2 .2 .3 .3c.2 0 .3 0 .4 0c.1 0 .2 0 .4 0c.1 0 .2 .1 .3 .1c.1 .1 .2 .1 .3 .2c.2-0.1 .5-0.1 .7-0.1c.3 0 .5 .1 .7 .3c.2 .1 .4 .4 .5 .6c0 .2 .1 .5 0 .7c.3 .2 .6 .5 .7 .8c.1 .3 .1 .7-0.1 1c-0.1 .3-0.4 .6-0.7 .7c-0.3 .1-0.7 .1-1 0c0 .4-0.2 .7-0.4 .9c.1 .5 0 1-0.3 1.3c-0.4 .4-0.9 .5-1.4 .4c-0.5-0.1-0.8-0.5-1-1c-0.1-0.5 .1-1 .4-1.3c0-0.3 0-0.5 0-0.8c.1-0.2 .2-0.5 .4-0.6c.2-0.2 .5-0.3 .7-0.4c.3 0 .5 0 .8 .1v-0.1c0 0-0.1 0-0.1 0c0-0.1 0-0.1-0.1-0.1c0 0 0 0-0.1 0c0-0.1 0-0.1 0-0.1c-0.2 .1-0.3 .1-0.5 .1c-0.1 0-0.3 0-0.5 0c-0.1-0.1-0.3-0.1-0.4-0.2c-0.1-0.1-0.2-0.2-0.3-0.4c-0.1 .1-0.2 .1-0.4 .1c-0.1 0-0.2 0-0.3 0c-0.1 0-0.2 0-0.3-0.1c-0.1 0-0.2-0.1-0.3-0.2Zm-7.6 .6c.1-0.2 .3-0.4 .5-0.6c.2-0.1 .5-0.2 .7-0.2c.3 0 .6 .1 .8 .3c.2 .1 .4 .3 .5 .6c.5-0.2 1.1-0.1 1.5 .3c.4 .4 .5 1 .3 1.5c-0.2 .5-0.7 .8-1.3 .8c-0.6 0-1.1-0.3-1.3-0.8c0 0-0.1 0-0.2 0c-0.1 .1-0.2 .1-0.2 .1c-0.1 0-0.2 0-0.3 0c0 0-0.1-0.1-0.2-0.1c-0.1 .2-0.3 .4-0.5 .6c0 .2-0.2 .5-0.3 .6c-0.2 .2-0.4 .4-0.7 .4c-0.2 .1-0.5 .1-0.7 0c-0.3 0-0.5-0.2-0.7-0.4c-0.1 .2-0.2 .3-0.3 .4c-0.2 .2-0.4 .2-0.6 .3c-0.1 0-0.3 0-0.5 0c-0.2 0-0.4-0.1-0.5-0.2c-0.4 .3-1 .4-1.5 .2c-0.5-0.2-0.8-0.6-0.8-1.2c-0.1-0.5 .2-1 .7-1.2c.4-0.3 1-0.3 1.4 0c.2-0.1 .3-0.2 .5-0.2c.2-0.1 .3-0.1 .5-0.1c.2 0 .4 0 .5 .1c.2 .1 .3 .2 .5 .3c.1-0.2 .2-0.3 .4-0.4c.1-0.2 .1-0.4 .2-0.6c.1-0.1 .3-0.3 .5-0.4c.1-0.1 .3-0.1 .5-0.1c.2-0.1 .4-0.1 .6 0Z" fill="#b25f9e"/><path d="M8.8 8.7c.2-0.4 .6-0.7 1.1-0.8c.5-0.1 1 .2 1.3 .6c.3 .4 .3 .9 .1 1.3c-0.2 .5-0.6 .8-1.1 .8c-0.2 .5-0.7 .8-1.1 .9c-0.5 0-1-0.2-1.3-0.6c-0.3-0.4-0.4-0.9-0.1-1.4c.2-0.4 .6-0.7 1.1-0.8Zm10.8-7.3c.2-0.1 .3-0.2 .5-0.3c.2 0 .4 0 .6 0c.1 .1 .3 .2 .5 .3c.1 .1 .3 .2 .3 .4c.2-0.1 .3-0.1 .4-0.1c.1 0 .3 0 .4 .1c.1 0 .2 .1 .3 .1c.1 .1 .2 .2 .3 .3c.2-0.1 .4-0.2 .6-0.2c.2 0 .4 0 .6 .1c.2 .1 .4 .2 .5 .4c.2 .2 .3 .4 .3 .6h.1c.2 0 .4 .1 .6 .1c.2 .1 .3 .2 .4 .4c.2 .1 .3 .3 .3 .4c.1 .2 .1 .4 .1 .6c.3 .1 .6 .3 .7 .6c.2 .3 .2 .7 .1 1c0 .3-0.2 .6-0.5 .8c-0.3 .2-0.6 .3-0.9 .2c0 .1 0 .2 0 .3c0 .6-0.4 1.2-1 1.3c0 .3-0.2 .6-0.4 .8c-0.2 .2-0.4 .4-0.7 .4c-0.3 .1-0.6 0-0.9-0.1c-0.3-0.2-0.5-0.4-0.6-0.7c-0.2 .3-0.4 .5-0.6 .6c-0.3 .1-0.6 .1-0.9 .1c-0.3-0.1-0.5-0.3-0.7-0.5c-0.2-0.2-0.3-0.4-0.3-0.7c-0.1 .1-0.2 .2-0.4 .3c-0.1 .1-0.2 .1-0.4 .2c-0.1 0-0.3 0-0.4 0c-0.2 0-0.3 0-0.5-0.1c-0.1 .6-0.6 1-1.1 1.1c-0.6 .1-1.2-0.2-1.4-0.7c-0.3-0.5-0.2-1.2 .2-1.6c.4-0.4 1-0.5 1.5-0.3c.1-0.6 .6-1 1.2-1.1c.1-0.2 .3-0.4 .6-0.5c.3-0.1 .6-0.1 .8-0.1c.3 .1 .6 .3 .8 .5c.1 .2 .2 .5 .3 .7h.1c.6 0 1 .3 1.3 .8c.1-0.3 .4-0.5 .8-0.6c0-0.2 0-0.3 .1-0.5c.1-0.1 .2-0.3 .4-0.4c.1-0.1 .3-0.2 .4-0.2c.2-0.1 .4-0.1 .5-0.1c0 0 0 0 0-0.1c0 0 0 0 0-0.1c0 0 0 0 0 0c0-0.1 0-0.1 0-0.1c-0.1-0.1-0.2-0.1-0.3-0.2c-0.1-0.1-0.2-0.2-0.2-0.3c-0.1 0-0.2-0.1-0.2-0.2c-0.1-0.2-0.1-0.3-0.1-0.4c-0.1 0-0.2 0-0.3 0c-0.1 0-0.2 0-0.3-0.1c-0.1 0-0.2-0.1-0.3-0.1c-0.1-0.1-0.2-0.2-0.3-0.2c-0.1 .1-0.3 .1-0.4 .1c-0.2 .1-0.4 .1-0.6 0c-0.1 0-0.3-0.1-0.4-0.2c-0.2-0.1-0.3-0.2-0.4-0.4c-0.1 0-0.2 .1-0.3 .1c-0.1 0-0.1 0-0.2-0.1c-0.1 0-0.2 0-0.3 0c-0.1-0.1-0.2-0.1-0.2-0.2c-0.1 .1-0.2 .2-0.4 .2c-0.1 0-0.2 .1-0.3 .1c-0.1 0-0.2 0-0.3 0c-0.2 0-0.3-0.1-0.4-0.1c-0.1 .1-0.3 .3-0.4 .4c-0.2 .1-0.4 .2-0.6 .2c-0.3 0-0.5-0.1-0.7-0.2c-0.2 0-0.3-0.2-0.5-0.3c0 .2-0.1 .4-0.3 .6c-0.2 .2-0.4 .3-0.6 .4c-0.2 0-0.5 0-0.7 0c-0.3-0.1-0.5-0.2-0.6-0.4c-0.1 .1-0.3 .1-0.4 .1c-0.1 .1-0.2 .1-0.3 .1c-0.2 0-0.3-0.1-0.4-0.1c-0.1 0-0.2-0.1-0.3-0.2c-0.2 .4-0.4 .7-0.8 .8c.4 .3 .6 .7 .6 1.2c0 .4-0.2 .8-0.5 1.1c-0.4 .3-0.9 .3-1.3 .2c-0.4-0.2-0.7-0.5-0.9-0.9c-0.2 .4-0.6 .6-1 .7c-0.4 .1-0.9-0.1-1.2-0.4c-0.3-0.4-0.4-0.8-0.3-1.3c.1-0.4 .4-0.8 .8-0.9c-0.2-0.3-0.3-0.7-0.2-1c0-0.4 .2-0.7 .5-0.9c.3-0.2 .6-0.3 1-0.3c.3 .1 .7 .2 .9 .5c.1-0.2 .2-0.3 .4-0.4c.1-0.1 .3-0.1 .4-0.2c.2 0 .4 0 .6 0c.1 .1 .3 .2 .4 .2c.1-0.2 .3-0.4 .4-0.5c.2-0.2 .4-0.3 .6-0.3c.2-0.1 .5-0.1 .7 0c.2 0 .4 .2 .6 .3c.1-0.1 .3-0.1 .4-0.1c.2 0 .3 0 .5 0c.1 0 .3 .1 .4 .2c.1 0 .3 .1 .4 .3c0-0.2 .1-0.4 .2-0.6c.2-0.1 .3-0.3 .5-0.3c.2-0.1 .4-0.2 .6-0.2c.2 0 .4 .1 .5 .1c.1-0.1 .3-0.2 .4-0.3c.2-0.1 .3-0.2 .5-0.2c.2-0.1 .4-0.1 .5 0c.2 0 .4 .1 .5 .2Z" fill="#b884b1"/></g><g><path d="M19.7 10.2v-0.1c0-0.3 0-0.5 .2-0.8c.1-0.2 .3-0.4 .6-0.5c.2-0.1 .5-0.1 .7-0.1c.3 .1 .5 .2 .7 .4c.2-0.1 .3-0.1 .4-0.2c.2 0 .3 0 .5 .1c.1 0 .2 0 .4 .1c.1 .1 .2 .2 .3 .3c.2-0.1 .4-0.2 .6-0.2c.4 0 .8 .3 1.1 .6h.1c.6 0 1 .3 1.2 .7c.2-0.1 .3-0.2 .5-0.2c.1-0.1 .3-0.1 .4-0.1c.2 0 .4 0 .5 .1c.2 0 .3 .1 .5 .2c.1 0 .2 0 .3-0.1c.1 0 .3 0 .4 0c.1 .1 .3 .1 .4 .2c.1 0 .2 .1 .3 .2c.3-0.1 .6-0.2 .8-0.1c.3 .1 .6 .2 .8 .5c.2 .2 .3 .5 .3 .8c0 .3-0.1 .6-0.3 .8c.1 .2 .2 .4 .2 .6c.2 0 .3 .1 .4 .2c.1 .1 .2 .3 .3 .4c.1 .1 .1 .3 .1 .4c0 .2 0 .4 0 .5c.5 .2 .9 .7 .9 1.3c.3 .1 .4 .3 .6 .5c.1 .2 .2 .4 .2 .6c0 .3 0 .5-0.1 .7c-0.1 .2-0.3 .4-0.5 .6c.1 .2 .2 .4 .2 .6c-0.1 .2-0.1 .4-0.2 .6c-0.1 .2-0.3 .3-0.4 .4c-0.2 .2-0.4 .2-0.6 .3c-0.2 .3-0.5 .6-0.8 .7v.1c0 .6-0.4 1.1-1 1.3c.1 .2 .1 .4 0 .7c0 .2-0.1 .4-0.3 .5c-0.1 .2-0.3 .3-0.5 .4c-0.2 .1-0.4 .1-0.6 .1c-0.1 .2-0.2 .5-0.4 .6c-0.2 .2-0.5 .3-0.7 .3c-0.3 .1-0.5 .1-0.7 0c-0.3-0.1-0.5-0.3-0.6-0.5c-0.3 0-0.6-0.1-0.8-0.2c-0.2 0-0.3 0-0.5-0.1c-0.1-0.1-0.3-0.2-0.4-0.3c-0.1-0.1-0.2-0.2-0.3-0.4c0-0.1-0.1-0.3-0.1-0.4c-0.1 0-0.2 .1-0.4 .1c-0.1 0-0.2 0-0.4 0c-0.1 0-0.2-0.1-0.3-0.1c-0.2-0.1-0.3-0.1-0.4-0.2c-0.1 0-0.3 0-0.4 0c-0.2 0-0.4 0-0.5-0.1c-0.2 0-0.3-0.1-0.4-0.2c-0.2-0.1-0.3-0.3-0.3-0.4c-0.3 .2-0.6 .3-0.9 .4c-0.1 .1-0.1 .3-0.3 .4c-0.1 .2-0.2 .3-0.3 .4c-0.2 0-0.4 .1-0.5 .1c-0.2 0-0.4 0-0.6 0c-0.1 .1-0.2 .2-0.4 .2c-0.1 .1-0.3 .1-0.4 .1c-0.2 0-0.3 0-0.5-0.1c-0.1 0-0.3-0.1-0.4-0.2c-0.2 .1-0.5 .2-0.7 .2c-0.3 0-0.6-0.1-0.8-0.2c-0.2-0.2-0.4-0.4-0.5-0.6c-0.1-0.2-0.2-0.5-0.1-0.8c-0.2-0.2-0.3-0.5-0.3-0.8c-0.3-0.1-0.5-0.2-0.7-0.4c-0.1 .1-0.3 .1-0.5 .1c-0.2 0-0.3 0-0.5-0.1c-0.1 0-0.3-0.1-0.4-0.2c-0.2-0.1-0.3-0.3-0.3-0.4c-0.2 0-0.4-0.1-0.5-0.1c-0.2-0.1-0.4-0.2-0.5-0.4c-0.1-0.1-0.2-0.3-0.2-0.4c-0.1-0.2-0.1-0.4-0.1-0.6l-0.1-0.1c-0.2 .1-0.3 .1-0.5 .1c-0.2 0-0.4-0.1-0.6-0.2c-0.2 0-0.3-0.2-0.4-0.3c-0.1-0.2-0.2-0.3-0.3-0.5c-0.3-0.1-0.5-0.2-0.7-0.4c-0.2 .1-0.5 .1-0.7 .1c-0.2 0-0.4-0.1-0.6-0.2c-0.2-0.1-0.3-0.3-0.5-0.5c-0.1-0.2-0.1-0.4-0.1-0.6c-0.5 0-0.9-0.2-1.1-0.6c-0.3-0.4-0.4-0.8-0.2-1.2c.1-0.4 .4-0.8 .9-0.9c.4-0.1 .8 0 1.2 .2c.1-0.2 .3-0.4 .5-0.5c-0.1-0.3-0.2-0.7-0.1-1c.1-0.4 .3-0.7 .6-0.9c.3-0.2 .7-0.2 1-0.1c.4 0 .7 .3 .9 .5c0-0.2 0-0.5 .2-0.7c.1-0.2 .3-0.4 .6-0.5c.2-0.1 .5-0.1 .8-0.1c.2 .1 .5 .2 .7 .4c0-0.2 .1-0.3 .3-0.4c.1-0.1 .2-0.2 .3-0.2c.2-0.1 .3-0.1 .5-0.1c.1 0 .3 0 .4 0c.1-0.2 .3-0.5 .5-0.7c.2-0.1 .5-0.2 .8-0.2c.3-0.1 .6 0 .8 .2c.3 .1 .4 .4 .5 .6c.6 .1 1.1 .5 1.2 1.1c0-0.2 .1-0.3 .2-0.5c.1-0.1 .2-0.3 .4-0.4c.1-0.1 .3-0.2 .4-0.2c.2 0 .4-0.1 .6 0Zm-1.6 1.6c0 .1 0 .2 0 .3h.1c0-0.1 0-0.1 0-0.1c0 0 0 0 0-0.1c0 0 0 0 0 0c-0.1 0-0.1-0.1-0.1-0.1Z" fill="#974581"/><path d="M21 10.9c-0.1-0.4-0.1-0.8 .1-1.1c.2-0.3 .5-0.5 .9-0.6c.3-0.1 .7 0 1 .2c.3 .1 .6 .4 .6 .8c.1-0.2 .2-0.4 .4-0.5c.2-0.2 .4-0.3 .6-0.3c.2-0.1 .4-0.1 .6 0c.2 0 .4 .1 .6 .2c.1 0 .2 0 .4 0c.1 0 .2 0 .3 0c.1 0 .3 .1 .4 .1c.1 .1 .2 .1 .3 .2c.1-0.1 .2-0.2 .3-0.2c.1-0.1 .3-0.1 .4-0.1c.2 0 .3 0 .4 0c.2 0 .3 0 .4 .1c.1 0 .3-0.1 .4-0.1c.2 0 .3 0 .4 .1c.2 0 .3 .1 .4 .1c.1 .1 .2 .2 .3 .3c.2 0 .4 0 .6 .1c.1 .1 .3 .2 .4 .4c.1 .1 .2 .3 .2 .5c.1 .1 .1 .3 .1 .5c.5 .2 .8 .7 .8 1.2c.3 .2 .5 .5 .6 .8c0 .4 0 .8-0.2 1.1c-0.2 .3-0.6 .5-0.9 .6c-0.4 0-0.7-0.1-1-0.3v.1c0 .7-0.5 1.3-1.1 1.4c.2 .2 .4 .5 .5 .8c0 .3 0 .6-0.2 .9c-0.1 .3-0.3 .5-0.6 .6c-0.3 .1-0.6 .2-0.9 .1c-0.3 .3-0.6 .4-1 .5c.2 .2 .4 .5 .4 .8c.1 0 .2 0 .3 .1c.2-0.5 .7-0.9 1.2-0.9c.5 0 1 .3 1.3 .8c.2 .4 .2 1-0.2 1.4c-0.3 .4-0.9 .6-1.4 .5c-0.1 .3-0.3 .5-0.6 .7c-0.2 .1-0.6 .2-0.9 .1c-0.3 0-0.6-0.2-0.8-0.4c-0.2-0.2-0.3-0.5-0.3-0.9c-0.1 0-0.2 0-0.4 0c.2 .2 .3 .4 .4 .7c0 .3 0 .5-0.2 .8c-0.1 .2-0.2 .4-0.5 .5c-0.2 .2-0.4 .3-0.7 .3c-0.2 0-0.4-0.1-0.6-0.2c-0.2 0-0.3-0.2-0.4-0.3c-0.2-0.1-0.3-0.3-0.3-0.5c-0.1-0.2-0.1-0.4-0.1-0.6c-0.1 0-0.1-0.1-0.2-0.2c-0.1-0.1-0.1-0.2-0.2-0.3c0-0.1 0-0.2 0-0.3c-0.1-0.1-0.1-0.2-0.1-0.3c-0.2 0-0.4-0.1-0.6-0.2c-0.2-0.2-0.3-0.3-0.4-0.5c-0.1-0.2-0.2-0.4-0.2-0.6c0-0.3 .1-0.5 .2-0.7c-0.2-0.1-0.4-0.3-0.5-0.5c-0.2-0.2-0.2-0.4-0.2-0.7c0-0.2 0-0.5 .2-0.7c.1-0.2 .3-0.4 .5-0.5h-0.1c-0.6 0-1-0.3-1.3-0.8c-0.2-0.4-0.1-1 .2-1.4c.3-0.4 .8-0.6 1.3-0.5c.5 .1 .9 .5 1.1 1c0-0.2 .1-0.4 .3-0.5c.1-0.2 .3-0.3 .4-0.4c.2-0.1 .4-0.1 .6-0.1c.2 0 .4 0 .6 .1c.1-0.2 .3-0.3 .5-0.4c.2-0.1 .5-0.1 .7-0.1c.3 0 .5 .1 .7 .3c.2 .1 .3 .3 .4 .5c.2 .1 .3 .2 .5 .3c0-0.2 .1-0.4 .3-0.5c.1-0.2 .3-0.3 .5-0.4c.2-0.1 .4-0.1 .6-0.1c.2 0 .4 .1 .6 .2c-0.1-0.1-0.2-0.2-0.2-0.3c-0.1-0.1-0.2-0.2-0.2-0.3c-0.1-0.1-0.1-0.2-0.1-0.3c0-0.2 0-0.3 0-0.4c-0.2-0.1-0.4-0.2-0.5-0.3c-0.2 0-0.4-0.1-0.5-0.2c-0.1 .1-0.3 .1-0.4 .1c-0.1 0-0.2 0-0.4 0c-0.1 0-0.2-0.1-0.3-0.1c-0.1-0.1-0.2-0.2-0.3-0.2c-0.1 .1-0.3 .2-0.4 .2c-0.2 .1-0.3 .1-0.5 .1c-0.2 0-0.3 0-0.5-0.1c-0.1 0-0.3-0.1-0.4-0.2c-0.2 .1-0.4 .1-0.6 .1c-0.2 0-0.4-0.1-0.5-0.2c-0.2-0.1-0.4-0.2-0.5-0.4c-0.1-0.1-0.2-0.3-0.2-0.5c-0.1 .3-0.4 .6-0.7 .7c.2 .5 0 1.1-0.4 1.4c-0.4 .4-1 .4-1.4 .2c-0.5-0.2-0.8-0.7-0.9-1.2c0-0.5 .3-1 .8-1.2Zm-5.5 7.6c.2-0.3 .5-0.5 .8-0.5c.3-0.1 .6-0.1 .9 0c.3 .2 .5 .4 .6 .7c.2 .3 .2 .6 .1 .9c.4-0.6 1.2-0.9 1.8-0.6c.7 .4 1 1.1 .7 1.8c-0.3 .6-1 1-1.7 .8c-0.7-0.2-1.1-0.9-0.9-1.6c-0.1 .1-0.2 .2-0.3 .3c0 .1-0.1 .2-0.3 .2c-0.1 .1-0.2 .1-0.3 .2c-0.1 0-0.3 0-0.4 0c-0.3 .4-0.8 .6-1.2 .5c-0.5-0.1-0.9-0.4-1.1-0.8c-0.2-0.4-0.2-0.9 .1-1.3c.3-0.4 .7-0.7 1.2-0.6Zm10.6-0.9c-0.1 .1-0.2 .2-0.3 .3c-0.1 .1-0.2 .1-0.4 .2c-0.1 0-0.2 0-0.4 0c-0.1 0-0.2 0-0.4 0c-0.1 .2-0.3 .3-0.5 .4v.1c.4 .3 .7 .7 .7 1.2v.1c.1 0 .2 .1 .4 .1c.1-0.6 .6-1 1.2-1.1c-0.1-0.1-0.2-0.2-0.2-0.3c-0.1-0.1-0.1-0.2-0.1-0.3c-0.1-0.1-0.1-0.3-0.1-0.4c0-0.1 .1-0.2 .1-0.3Zm-8.8-6.7c.3-0.4 .7-0.6 1.2-0.7c.4 0 .8 .3 1.1 .6c.3 .4 .3 .9 .1 1.3c-0.1 .5-0.5 .8-1 .9c.1 .1 .1 .3 .1 .5c0 .1 0 .3-0.1 .5c-0.1 .1-0.2 .3-0.3 .4c-0.1 .1-0.3 .2-0.4 .3c0 .1 .1 .3 .1 .5v.1c.3-0.7 1-1 1.7-0.7c.6 .2 1 .9 .8 1.6c-0.1 .7-0.8 1.1-1.5 1c-0.7-0.1-1.2-0.7-1.2-1.4c0 .1-0.2 .3-0.3 .4c-0.2 .2-0.3 .3-0.5 .3c-0.2 .1-0.4 .1-0.6 0c-0.2 0-0.4-0.1-0.6-0.2c.1 .5 0 1-0.4 1.4c-0.3 .3-0.9 .4-1.3 .2c-0.5-0.1-0.9-0.5-0.9-1c-0.1-0.5 0-1 .4-1.3c-0.1-0.1-0.2-0.3-0.2-0.4c-0.1 0-0.1 0-0.1 0c0 0 0 0-0.1 0c0 0 0 0 0 0c0 .1-0.1 .1-0.1 .1c-0.2 .3-0.6 .5-1 .6c-0.1 .2-0.3 .4-0.6 .5c-0.2 .1-0.5 .2-0.8 .1c-0.2 0-0.5-0.1-0.7-0.3c-0.2-0.2-0.3-0.4-0.4-0.7c-0.1 .2-0.2 .4-0.4 .5c-0.1 .1-0.3 .2-0.5 .3c-0.2 0-0.5 0-0.7 0c-0.2-0.1-0.3-0.2-0.5-0.3c-0.2 .1-0.5 .2-0.8 .2c-0.3 0-0.5-0.1-0.8-0.2c-0.2-0.2-0.4-0.4-0.5-0.7c-0.1-0.2-0.1-0.5 0-0.8c0-0.1 0-0.3 0-0.4c0-0.1 0-0.2 .1-0.4c0-0.1 .1-0.2 .2-0.3c0-0.1 .1-0.2 .2-0.3c0-0.5 .4-1 .9-1.2c0-0.3 .2-0.6 .4-0.8c.2-0.2 .5-0.4 .9-0.4c.3 0 .6 .1 .8 .3c.3 .1 .5 .4 .6 .7c0-0.1 .1-0.1 .2-0.2c.1 0 .3-0.1 .4-0.1c.1 0 .2-0.1 .3-0.1c.1 0 .2 .1 .4 .1c.1-0.2 .3-0.4 .5-0.5c.3-0.1 .5-0.2 .8-0.2c.3 .1 .5 .2 .7 .4c.2 .1 .3 .3 .4 .6c.1 0 .1 .1 .1 .2c.1-0.2 .2-0.4 .3-0.5c.1-0.1 .2-0.3 .4-0.3c.1-0.1 .3-0.2 .5-0.2c.2 0 .3 0 .5 0c.1-0.1 .3-0.3 .5-0.4c.2-0.1 .4-0.1 .6-0.1c.2-0.1 .4 0 .6 .1c.2 .1 .4 .2 .5 .4Zm9.1 6c-0.1 .1-0.1 .1-0.1 .1c0 0 0 .1 0 .1c0 0 0 0 0 0c0 .1 0 .1 0 .1c0-0.1 .1-0.1 .2-0.2c-0.1 0-0.1 0-0.1 0c0 0 0 0 0 0c0 0 0 0 0 0c0 0 0 0 0-0.1Zm2-0.8v.1h.1c0 0 0 0 0 0c0 0 0 0 0 0c0 0 0 0-0.1 0c0-0.1 0-0.1 0-0.1Zm-5-0.3v.1v-0.1Z" fill="#b25f9e"/><path d="M15.2 17.7c.1-0.3 .2-0.5 .4-0.7c.2-0.2 .4-0.3 .7-0.3c.3-0.1 .5-0.1 .8 0c.2 .2 .4 .3 .6 .5c.2 0 .4 0 .6 0c.2 0 .3 .1 .5 .2c.2 .1 .3 .3 .4 .4c.1 .2 .2 .4 .2 .6c.1 0 .2-0.1 .3-0.1c.4 0 .7 .2 .9 .4c.2-0.1 .3-0.1 .4-0.1c.2 0 .3 0 .4 0c.1 .1 .2 .1 .4 .2c.1 .1 .2 .1 .3 .2h.1c.3 0 .5 .1 .7 .2c.2-0.3 .5-0.5 .8-0.5c.2-0.3 .4-0.5 .6-0.6c.2-0.1 .5-0.2 .8-0.2c.3 .1 .5 .2 .7 .4c.3 .2 .4 .4 .5 .7c0-0.3 .1-0.5 .3-0.7c.2-0.2 .4-0.4 .7-0.4c.2-0.1 .5-0.1 .7 0c.3 .1 .5 .2 .7 .4c.1-0.1 .2-0.1 .4-0.1c.1 0 .2 0 .4 0c.1 .1 .2 .1 .4 .2c.1 .1 .2 .2 .3 .3v-0.2c0-0.6 .5-1.2 1.1-1.3c.7-0.1 1.3 .2 1.5 .9c.3 .6 0 1.3-0.5 1.6c-0.6 .3-1.3 .2-1.8-0.3v.2c0 .2-0.1 .5-0.2 .7c-0.2 .3-0.4 .5-0.7 .5c-0.2 .1-0.5 .2-0.8 .1c-0.2-0.1-0.5-0.2-0.7-0.4c-0.1 0-0.3 .1-0.5 .1c-0.2 0-0.4-0.1-0.6-0.2c-0.2-0.1-0.3-0.2-0.4-0.3c-0.2-0.2-0.2-0.4-0.3-0.5c0 .2-0.2 .5-0.3 .6c.5 .2 .9 .6 1 1.1c.1 .6-0.2 1.1-0.6 1.4c-0.5 .3-1 .3-1.5 0c-0.5-0.3-0.7-0.8-0.6-1.3c-0.1 0-0.2 0-0.3 0c-0.1 0-0.1 0-0.2 0c-0.1 0-0.2-0.1-0.2-0.1c-0.1 0-0.2 0-0.3-0.1c-0.1 .2-0.2 .3-0.4 .4c-0.2 .1-0.4 .2-0.6 .2c-0.2 0-0.4-0.1-0.6-0.1c-0.2-0.1-0.3-0.2-0.5-0.4l-0.1 .1c-0.4 0-0.7-0.2-0.9-0.4c-0.2 .1-0.3 .1-0.4 .1c-0.7 0-1.3-0.5-1.4-1.2c0 .3-0.2 .6-0.4 .8c-0.2 .2-0.5 .4-0.8 .4c-0.3 .1-0.6 0-0.8-0.1c-0.3-0.2-0.5-0.4-0.6-0.7h-0.1c-0.3 0-0.6-0.1-0.8-0.3c-0.3-0.2-0.5-0.5-0.5-0.8c-0.1-0.3 0-0.6 .1-0.9c.2-0.3 .4-0.5 .7-0.6Zm-2.4-4.8c.1-0.3 .3-0.5 .6-0.6c.2-0.1 .5-0.2 .8-0.2c.2 .1 .5 .2 .7 .4c.2 .2 .4 .4 .4 .7c.2-0.1 .5-0.2 .7-0.2c.2 .1 .5 .1 .7 .3c.2 .1 .3 .3 .4 .5c.1 .2 .2 .4 .2 .6c0 .4-0.1 .7-0.4 .9c-0.2 .3-0.5 .4-0.8 .5c-0.3 0-0.7-0.1-1-0.3c-0.2-0.1-0.4-0.4-0.5-0.8c-0.1 .1-0.3 .2-0.5 .2c-0.1 .1-0.2 .3-0.3 .4c-0.2 .2-0.4 .2-0.6 .3c-0.2 0-0.4 0-0.6 0c-0.2-0.1-0.4-0.2-0.5-0.3c-0.2 .1-0.3 .2-0.5 .3c-0.2 .1-0.4 .1-0.5 .1c-0.2 0-0.4 0-0.6-0.1c-0.2-0.1-0.3-0.2-0.4-0.3c-0.1 .1-0.3 .1-0.4 .2c-0.2 0-0.3 .1-0.5 .1c-0.1 0-0.3 0-0.4-0.1c-0.2 0-0.3-0.1-0.4-0.2c-0.2 .2-0.4 .3-0.7 .4c0 .5-0.3 1-0.7 1.2c-0.5 .2-1.1 .2-1.5-0.1c-0.4-0.3-0.6-0.9-0.5-1.4c.1-0.5 .5-0.9 1-1c0-0.3 0-0.6 .2-0.8c.1-0.2 .3-0.4 .5-0.5c.3-0.1 .5-0.2 .8-0.1c.3 0 .5 .1 .7 .3c.1-0.2 .3-0.3 .5-0.4c.1 0 .3-0.1 .5-0.1c.2 0 .4 .1 .6 .1c.1 .1 .3 .2 .4 .4c.1-0.1 .3-0.2 .4-0.3c.2 0 .3 0 .5 0c.1 0 .3 0 .4 0c.2 .1 .3 .2 .5 .3c.2-0.2 .5-0.4 .8-0.4Zm12.5-0.1c.2-0.2 .4-0.4 .6-0.5c.3-0.1 .6-0.1 .9 0c.2 .1 .5 .2 .7 .5c.1 .2 .2 .4 .3 .7c.5 .1 1 .4 1.1 .9c.2 .5 .1 1.1-0.3 1.4c-0.3 .4-0.9 .5-1.4 .4c-0.5-0.2-0.9-0.7-0.9-1.2c-0.1 0-0.2 0-0.3-0.1c-0.1 .2-0.3 .3-0.4 .4c-0.1 .1-0.3 .1-0.5 .2c-0.1 0-0.3 0-0.5 0c-0.1-0.1-0.3-0.1-0.4-0.2c-0.3 .5-0.8 .8-1.4 .7c-0.5 0-1-0.4-1.2-1c-0.1-0.5 .1-1.1 .5-1.4c.4-0.4 1.1-0.4 1.5-0.1c.1-0.2 .2-0.3 .3-0.4c.2-0.1 .3-0.2 .4-0.3c.2 0 .4-0.1 .5-0.1c.2 0 .3 .1 .5 .1Z" fill="#b884b1"/></g><g transform="translate(17.7,30.8) translate(-13.7,-8.2)"><path d="M17.9 25.7c0-0.4 .1-0.7 .3-0.9c.2-0.3 .5-0.4 .8-0.5c.3-0.1 .6 0 .9 .1c.3 .2 .5 .4 .6 .8c.2-0.1 .3-0.1 .4-0.1c.2 0 .3 .1 .4 .1c.2 .1 .3 .1 .4 .2c.1 .1 .2 .2 .3 .3c.1 0 .3 0 .5 0c.2 0 .4 .1 .5 .2c.2 .1 .3 .2 .4 .4c.1 .1 .2 .3 .3 .5c.3 0 .5 .1 .7 .2c.1 0 .2 0 .3-0.1c.1 0 .2 0 .3 0c.1 0 .2 0 .3 .1c.1 0 .2 0 .2 .1c.2-0.4 .5-0.7 .9-0.8v-0.2c0-0.3 .1-0.6 .3-0.9c.2-0.2 .5-0.4 .9-0.4c.3-0.1 .6 0 .9 .1c.3 .2 .5 .5 .6 .8c.2-0.1 .4-0.1 .5-0.1c.3 0 .6 .1 .9 .3c.2 .1 .4 .4 .5 .7c0 .3 0 .6-0.1 .8c-0.1 .3-0.2 .5-0.5 .7c.1 .1 .3 .3 .3 .4c.1 .2 .1 .4 .2 .5c0 .2-0.1 .4-0.1 .6c-0.1 .1-0.2 .3-0.3 .4c.1 .1 .1 .2 .1 .3c0 .1 0 .2 0 .3c0 .1-0.1 .2-0.1 .3c0 .1-0.1 .2-0.1 .3c.1 .2 .3 .4 .3 .7c.1 .2 .1 .5 0 .7c-0.1 .2-0.2 .5-0.4 .6c-0.2 .2-0.4 .3-0.7 .3c0 .2 0 .4-0.1 .6c.1 .2 .1 .4 .1 .6c0 .2-0.1 .5-0.2 .6c-0.1 .2-0.2 .4-0.4 .5c-0.2 .1-0.4 .2-0.6 .2c-0.1 .2-0.2 .3-0.3 .4c-0.2 .1-0.3 .2-0.5 .2c-0.1 .1-0.3 .1-0.5 .1c-0.2 0-0.3-0.1-0.5-0.2c-0.1 .1-0.3 .2-0.5 .2c-0.2 0-0.5 0-0.6-0.1c-0.2-0.1-0.4-0.2-0.5-0.3c-0.2-0.2-0.3-0.3-0.3-0.5c-0.2 .1-0.4 .1-0.5 .1c-0.2 .1-0.4 .1-0.6 0c-0.1 0-0.3-0.1-0.4-0.2c-0.2-0.1-0.3-0.2-0.4-0.3c-0.2 .1-0.4 .1-0.6 .2c0 .4-0.3 .9-0.8 1c0 .6-0.4 1-0.8 1.2c-0.1 .2-0.2 .4-0.3 .6c-0.1 .1-0.3 .3-0.5 .4c-0.2 .1-0.4 .1-0.6 .1c-0.2 0-0.4 0-0.6-0.1c-0.2 .1-0.3 .1-0.5 .2c-0.1 0-0.3 0-0.5 0c-0.1 0-0.3 0-0.4-0.1c-0.2-0.1-0.3-0.2-0.4-0.3c-0.5 0-0.9-0.2-1.1-0.6c-0.2 .2-0.3 .4-0.5 .5c-0.2 .1-0.5 .2-0.7 .2c-0.2 0-0.4-0.1-0.6-0.2c-0.2-0.1-0.4-0.2-0.5-0.4c-0.1 0-0.1 0-0.2 0c0 0-0.1 0-0.1 0c-0.1 0-0.1 0-0.2 0c0 0-0.1 0-0.1 0c-0.1 .1-0.2 .1-0.3 .2c-0.1 0-0.2 .1-0.3 .1c-0.1 0-0.2 0-0.4 0c-0.1 0-0.2 0-0.3 0c0 0-0.1 .1-0.2 .1c-0.1 .1-0.2 .1-0.3 .1c-0.1 .1-0.2 .1-0.3 .1c-0.1 0-0.2 0-0.3 0c-0.1 0-0.3 0-0.4 0c-0.1 0-0.3 0-0.4-0.1c-0.1 0-0.2-0.1-0.4-0.2c-0.1 0-0.2-0.1-0.2-0.2c-0.3 .2-0.7 .4-1.1 .4c-0.2 0-0.5 0-0.7-0.1c-0.2-0.2-0.3-0.3-0.5-0.5c-0.1-0.2-0.2-0.5-0.2-0.7c0-0.2 .1-0.5 .2-0.7c-0.3-0.2-0.5-0.6-0.5-1c0 0 0 0 0 0c-0.1-0.1-0.3-0.2-0.4-0.4c-0.1-0.1-0.1-0.2-0.2-0.4c0-0.2-0.1-0.3 0-0.5c0-0.1 0-0.3 .1-0.5c-0.1 0-0.2-0.1-0.2-0.2c-0.1-0.1-0.1-0.2-0.2-0.3c0-0.1 0-0.2 0-0.4c0-0.1 0-0.2 0-0.3c-0.3-0.1-0.6-0.3-0.8-0.6c-0.1-0.2-0.2-0.5-0.2-0.9c.1-0.3 .2-0.6 .4-0.8c.3-0.2 .6-0.4 .9-0.4c.1-0.4 .4-0.7 .7-0.9c-0.1-0.2-0.1-0.4-0.1-0.7c0-0.2 .1-0.4 .2-0.6c.1-0.2 .3-0.3 .5-0.4c.2-0.1 .4-0.2 .6-0.2c.1-0.1 .2-0.1 .3-0.2c.1 0 .1-0.1 .2-0.1c.1 0 .2 0 .3 0c.1 0 .3 0 .4 0c0-0.2 .2-0.4 .3-0.5c.1-0.2 .3-0.4 .5-0.6c.2-0.2 .4-0.3 .6-0.3c.3 0 .6 0 .8 .1c.2 .1 .4 .3 .6 .5c.1-0.2 .2-0.3 .4-0.5c.2-0.1 .4-0.2 .6-0.2c.2 0 .4 0 .6 .1c.2 0 .4 .1 .5 .3c.2-0.1 .3-0.2 .5-0.3c.2 0 .4-0.1 .6 0c.2 0 .3 0 .5 .1c.2 .1 .3 .3 .4 .4c.1-0.2 .3-0.3 .5-0.5c.2-0.1 .4-0.2 .6-0.2c.2 0 .4 0 .6 .1c.2 .1 .4 .2 .6 .4Z" fill="#974581" transform="translate(-4,-22.6)"/><path d="M16.1 32.2c.1-0.6 .5-1 1.1-1.1c.5-0.2 1 0 1.4 .5c.3 .4 .3 1 .1 1.5c-0.3 .4-0.8 .7-1.3 .7c0 0 .1 .1 .1 .2c0 .1 0 .2 .1 .2c0 .1 0 .2 0 .3c0 .1 0 .2 0 .3h.1c.2 0 .4 0 .6 .1c.2 .1 .3 .2 .4 .4c.2 .1 .3 .3 .3 .5c.1 .2 .1 .4 0 .6c.2 .2 .4 .4 .5 .7c0 .3 0 .6-0.1 .8c-0.1 .3-0.3 .5-0.5 .7c-0.2 .1-0.5 .2-0.8 .2c-0.2 0-0.4 0-0.6-0.1c-0.2-0.1-0.3-0.2-0.5-0.4c-0.1-0.1-0.2-0.3-0.2-0.5c-0.1-0.2-0.1-0.4 0-0.6c-0.1-0.1-0.2-0.2-0.3-0.3c0-0.1-0.1-0.2-0.1-0.3c0-0.1-0.1-0.2-0.1-0.3c0-0.2 0-0.3 0-0.4h-0.1c-0.2 0-0.4 0-0.5-0.1c-0.2-0.1-0.4-0.2-0.5-0.4c-0.1-0.1-0.2-0.3-0.3-0.5c0-0.2-0.1-0.4 0-0.6c-0.1 0-0.1 0-0.2 0c0 0 0 0-0.1-0.1c0 0-0.1 0-0.1 0c-0.1 0-0.1 0-0.1-0.1c-0.1 .1-0.2 .2-0.3 .2c-0.1 .1-0.2 .1-0.4 .1c-0.1 .1-0.2 .1-0.3 .1c-0.1 0-0.2-0.1-0.3-0.1c.1 .1 .1 .3 .2 .5c0 .2 0 .3-0.1 .5c0 .2-0.1 .3-0.2 .5c-0.1 .1-0.2 .2-0.3 .3c0 .2 .1 .4 0 .7c0 .2-0.1 .4-0.2 .5c-0.2 .2-0.3 .4-0.5 .5c-0.2 .1-0.4 .1-0.6 .1h-0.1c-0.2 .5-0.6 .9-1.1 1c-0.5 .1-1.1-0.1-1.4-0.5c-0.3-0.4-0.3-1-0.1-1.5c.3-0.4 .8-0.7 1.3-0.7c.1-0.3 .3-0.6 .6-0.8c0-0.1-0.1-0.2-0.1-0.3c0-0.1 0-0.2 0-0.3c0-0.1 .1-0.2 .1-0.3c0-0.1 .1-0.1 .1-0.2c0 0 0 0 0 0c0-0.1 0-0.1 0-0.1c0 0 0 0 0 0c0 0 0 0 0 0c-0.1 .1-0.2 .2-0.4 .2c-0.1 .1-0.2 .1-0.3 .1c-0.1 .1-0.3 .1-0.4 .1c-0.1-0.1-0.2-0.1-0.3-0.1c-0.1 .6-0.7 1.1-1.4 1.1c-0.3 .4-0.7 .6-1.2 .5c-0.5-0.1-0.9-0.3-1.1-0.8c-0.2-0.4-0.1-0.9 .1-1.3c.2-0.4 .7-0.6 1.1-0.6c.1-0.1 .2-0.2 .4-0.3c.1-0.1 .2-0.1 .3-0.2c.2 0 .3 0 .5 0c.1 0 .2 0 .4 .1c0-0.3 .1-0.5 .3-0.7c.1-0.2 .4-0.3 .6-0.4c.2-0.1 .5-0.1 .7-0.1c.3 .1 .5 .2 .7 .4c.1-0.1 .2-0.2 .4-0.3c.1 0 .3-0.1 .4-0.1c.2 0 .3 .1 .5 .1c.1 0 .3 .1 .4 .2c.1-0.1 .2-0.2 .4-0.3c.1-0.1 .2-0.1 .4-0.2c.2 0 .3 0 .5 0c.1 0 .3 .1 .4 .2c.2-0.2 .3-0.2 .5-0.3c.2 0 .4-0.1 .6 0c.2 0 .4 .1 .5 .2c.2 .1 .3 .2 .4 .4Zm6 1.4c.4 0 .7 .2 1 .4c.2 .3 .4 .6 .4 1c0 .3-0.2 .7-0.4 .9c-0.3 .3-0.6 .4-1 .4c-0.4 0-0.7-0.1-1-0.4c-0.2-0.2-0.4-0.6-0.4-0.9c0-0.4 .2-0.7 .4-1c.3-0.2 .6-0.4 1-0.4Zm-4.5-8.6v-0.2c0-0.4 .2-0.8 .5-1c.3-0.3 .7-0.4 1.1-0.4c.3 .1 .7 .3 .9 .6c.2 .4 .3 .8 .2 1.1c.1-0.1 .3-0.2 .5-0.3c.1-0.1 .3-0.1 .5-0.1c.2 0 .4 0 .5 .1c.2 .1 .4 .2 .5 .3c.2-0.1 .4-0.2 .6-0.2c.3 0 .5 .1 .7 .2c.2 .1 .3 .3 .5 .4c.1 .2 .2 .4 .2 .7c.1-0.2 .2-0.3 .3-0.4c.1-0.1 .2-0.2 .3-0.3c.2-0.1 .3-0.1 .5-0.1c.1 0 .3 0 .5 0c0-0.2 .2-0.4 .3-0.6c.2-0.1 .4-0.2 .6-0.3c.2 0 .5 0 .7 0c.2 .1 .4 .2 .6 .3c.2-0.1 .4-0.2 .7-0.2c.2 0 .4 0 .7 .1c.2 .1 .4 .3 .5 .5c.1 .2 .2 .4 .2 .6c.3 .1 .6 .2 .8 .4c.2 .1 .3 .4 .4 .6c.1 .3 .1 .6 0 .8c-0.1 .3-0.3 .5-0.5 .7c.1 .2 .2 .5 .1 .8c0 .3-0.2 .5-0.4 .7c-0.2 .2-0.4 .3-0.7 .4c-0.3 0-0.6 0-0.8-0.1c0 .4-0.1 .7-0.4 1c-0.2 .3-0.6 .4-1 .4c-0.3 0-0.7-0.1-0.9-0.4c-0.3-0.2-0.4-0.5-0.5-0.9c0 .3-0.1 .6-0.3 .8c.6 .1 1.1 .6 1.2 1.2c.1 .6-0.3 1.2-0.9 1.4c-0.6 .3-1.3 0-1.6-0.5c-0.4-0.5-0.3-1.2 .1-1.7c-0.1 0-0.3-0.1-0.4-0.1v.1c0 .6-0.4 1.2-1 1.4c-0.6 .1-1.2-0.1-1.5-0.6c-0.3-0.5-0.3-1.2 .1-1.7c.4-0.4 1.1-0.6 1.6-0.3v-0.2c0-0.3 .1-0.7 .4-0.9c.2-0.3 .6-0.4 1-0.5c.3 0 .7 .2 .9 .4c.3 .3 .5 .6 .5 1c0-0.2 .1-0.4 .2-0.6c.1-0.2 .3-0.4 .4-0.5c.2-0.1 .4-0.1 .7-0.1c.2-0.1 .4 0 .6 .1v-0.1c0-0.4 .2-0.8 .5-1.1c0-0.1-0.1-0.2-0.1-0.4c-0.3 0-0.6-0.1-0.8-0.3c0 0-0.1 .1-0.2 .1c-0.1 0-0.2 .1-0.3 .1c-0.1 0-0.2 0-0.3 0c-0.1 0-0.2 0-0.3 0c0 .2-0.1 .3-0.3 .5c-0.1 .1-0.3 .2-0.5 .3c-0.1 .1-0.3 .1-0.5 .1c-0.2 0-0.4-0.1-0.6-0.2c-0.1 .4-0.3 .7-0.6 .9c-0.3 .2-0.6 .3-1 .3c-0.3-0.1-0.7-0.3-0.9-0.6c-0.2-0.3-0.3-0.7-0.2-1c0 0 0-0.1-0.1-0.1c0 0 0 0 0 0c0 0-0.1-0.1-0.1-0.1c0 0 0 0 0 0c-0.2 .1-0.4 .1-0.6 .1c-0.2 0-0.3 0-0.5 0c-0.2-0.1-0.4-0.2-0.5-0.3c-0.1-0.1-0.2-0.3-0.3-0.4c-0.2 .1-0.3 .2-0.5 .3c-0.2 .1-0.4 .2-0.6 .2c-0.2 0-0.4 0-0.6-0.1c-0.1-0.1-0.3-0.2-0.4-0.4c-0.2 .2-0.4 .4-0.6 .5c-0.2 .2-0.4 .2-0.7 .2c-0.3 0-0.5-0.1-0.7-0.2c-0.2-0.2-0.4-0.4-0.5-0.6c0 .2-0.1 .4-0.2 .5c-0.2 .1-0.3 .3-0.5 .4c-0.2 0-0.3 .1-0.5 .1c-0.2 0-0.4 0-0.6-0.1c-0.1 .1-0.3 .3-0.5 .3c-0.1 .1-0.3 .2-0.5 .2c-0.2 0-0.4-0.1-0.6-0.1c-0.1-0.1-0.3-0.2-0.4-0.4c-0.1 .3-0.2 .5-0.4 .6c-0.2 .2-0.4 .3-0.7 .3c-0.2 .1-0.4 .1-0.7 0c-0.2-0.1-0.4-0.2-0.5-0.4c-0.2 .3-0.4 .5-0.7 .6c.1 .3 .1 .5 .1 .7c-0.1 .2-0.2 .4-0.3 .5c-0.1 .2-0.3 .4-0.5 .4c-0.2 .1-0.4 .2-0.6 .2c.1 .2 .1 .4 .1 .6c-0.1 .3-0.1 .5-0.3 .7c-0.1 .1-0.3 .3-0.5 .4c-0.2 .1-0.4 .2-0.6 .2c-0.4 0-0.7-0.2-1-0.5c-0.2-0.2-0.4-0.6-0.4-0.9c0-0.4 .2-0.7 .5-1c.2-0.2 .6-0.4 .9-0.4c0-0.1-0.1-0.3-0.1-0.5c0-0.1 .1-0.3 .1-0.5c.1-0.1 .2-0.3 .3-0.4c.1-0.1 .2-0.2 .4-0.3c-0.1-0.3-0.1-0.6 0-0.9c.2-0.3 .4-0.5 .6-0.7c.3-0.1 .6-0.2 .9-0.1c.3 0 .6 .1 .8 .4c-0.1-0.4-0.1-0.8 0-1.1c.2-0.4 .5-0.6 .8-0.7c.4-0.2 .8-0.1 1.1 .1c.4 .1 .6 .4 .7 .8c.1-0.1 .2-0.2 .3-0.2c.1-0.1 .3-0.1 .4-0.2c.1 0 .2 0 .4 0c.1 0 .2 .1 .4 .1c.1-0.2 .3-0.3 .5-0.4c.2-0.1 .5-0.1 .7 0c.2 0 .4 .1 .6 .2c.2 .2 .4 .4 .5 .6c0-0.3 .1-0.5 .3-0.6c.1-0.2 .3-0.3 .5-0.4c.3 0 .5-0.1 .7 0c.2 0 .4 .1 .6 .3Zm2.6 3.6c.3-0.1 .7 .1 .9 .4c.3 .2 .4 .6 .4 .9c.1 .4-0.1 .7-0.4 1c-0.2 .2-0.6 .4-0.9 .4c-0.4 0-0.7-0.2-1-0.4c-0.2-0.3-0.4-0.6-0.4-1c0-0.3 .2-0.7 .4-0.9c.3-0.3 .6-0.4 1-0.4Z" fill="#b25f9e" transform="translate(-4,-22.6)"/><path d="M19 25c-0.2-0.2-0.3-0.5-0.4-0.7c-0.1-0.3-0.1-0.6 0-0.8c.2-0.3 .3-0.5 .6-0.7c.2-0.1 .5-0.2 .7-0.2c.3 0 .6 .1 .8 .2c.3 .2 .4 .4 .5 .7c.1 .3 .1 .6 .1 .8c-0.1 .3-0.3 .6-0.5 .7c.1 .1 .1 .2 .2 .3c.2-0.2 .5-0.3 .8-0.3c.7 0 1.3 .5 1.4 1.2c.1-0.1 .2-0.2 .3-0.3c.2 0 .3-0.1 .5-0.1c.1 0 .3 0 .4 0c.2 .1 .3 .1 .4 .2v-0.2c0-0.6 .5-1.1 1.1-1.3c.6-0.1 1.2 .1 1.5 .7c.3 .5 .2 1.2-0.2 1.6c-0.5 .5-1.2 .5-1.7 .2v.2c0 .6-0.4 1.1-0.9 1.3c.2 .2 .3 .5 .4 .8c0 .3-0.1 .6-0.2 .9c-0.2 .2-0.4 .4-0.7 .5c-0.3 .1-0.6 .1-0.9 .1c0 .1-0.1 .3-0.2 .4c-0.1 .2-0.2 .3-0.4 .4c-0.1 .1-0.3 .1-0.5 .2c-0.2 0-0.3 0-0.5 0c0 .1-0.1 .3-0.1 .5c.4 .1 .7 .4 .8 .7c.1-0.7 .7-1.2 1.3-1.2c.7 0 1.3 .4 1.4 1.1c.2 .7-0.3 1.4-0.9 1.6c-0.7 .2-1.4-0.2-1.7-0.8c0 .4-0.2 .7-0.5 1c-0.4 .2-0.8 .3-1.2 .2c-0.4-0.1-0.7-0.4-0.9-0.7c-0.1-0.4-0.2-0.8 0-1.2c-0.2 0-0.3-0.1-0.4-0.2c-0.2-0.1-0.3-0.2-0.4-0.4c0-0.1-0.1-0.3-0.1-0.4c-0.1-0.2-0.1-0.4 0-0.5c-0.1 0-0.2 .1-0.3 .2c-0.1 0-0.3 0-0.4 0c-0.1 .1-0.2 .1-0.3 0c-0.1 0-0.2 0-0.4 0c.1 .1 .1 .2 .1 .3c0 .2 0 .3-0.1 .4c0 .1-0.1 .2-0.2 .4c0 .1-0.1 .1-0.2 .2c.7 0 1.2 .5 1.3 1.2c.1 .6-0.2 1.3-0.9 1.5c-0.6 .2-1.3 0-1.6-0.6c-0.3-0.6-0.2-1.3 .3-1.8c-0.3 0-0.6-0.1-0.9-0.3c-0.1 .1-0.2 .2-0.3 .2c-0.2 .1-0.3 .1-0.5 .1c-0.1 0-0.3 0-0.4-0.1c-0.1 0-0.3-0.1-0.4-0.2c-0.1 .1-0.2 .2-0.4 .2c-0.1 0-0.3 .1-0.4 .1c-0.1 0-0.3-0.1-0.4-0.1c-0.1-0.1-0.3-0.1-0.4-0.2c.2 .2 .3 .5 .3 .8c0 .4-0.1 .7-0.4 1c-0.2 .2-0.6 .4-1 .4c-0.3 0-0.7-0.1-0.9-0.4c-0.3-0.2-0.4-0.6-0.4-1c-0.2 .2-0.4 .3-0.6 .4c-0.2 .4-0.5 .7-1 .7c-0.4 .1-0.9-0.1-1.2-0.4c-0.3-0.3-0.4-0.8-0.3-1.3c.1-0.4 .4-0.8 .8-0.9c.1-0.2 .3-0.4 .4-0.5c.2-0.2 .4-0.3 .6-0.3c.2 0 .5 0 .7 0c.2 .1 .4 .2 .5 .3c0-0.2 .1-0.5 .3-0.7c.1-0.2 .4-0.3 .6-0.4c.2-0.1 .5-0.2 .8-0.1c.2 0 .5 .2 .6 .3c.2-0.1 .3-0.2 .4-0.2c.2-0.1 .4-0.2 .5-0.2c.2 0 .4 0 .5 .1c.2 0 .3 .1 .5 .2c.1-0.1 .2-0.2 .4-0.2c.1 0 .2-0.1 .4-0.1c.1 .1 .3 .1 .4 .1c.2 .1 .3 .2 .4 .3c.1-0.1 .2-0.2 .3-0.2c.1 0 .2-0.1 .3-0.1c.1 0 .3 0 .4 0c.1 0 .2 0 .3 .1c-0.1-0.4 0-0.8 .3-1.1c.2-0.4 .6-0.6 1-0.6c.4 0 .8 .2 1.1 .5c.2 .3 .4 .7 .3 1.1c.1 0 .2-0.1 .2-0.1c.1-0.1 .2-0.1 .3-0.1c.1-0.1 .2-0.1 .3-0.1c.1 0 .2 0 .3 .1c0-0.2 .1-0.4 .2-0.6c.1-0.2 .2-0.4 .4-0.5c.2-0.1 .3-0.2 .6-0.2c.2-0.1 .4 0 .6 0c.1-0.5 .4-0.8 .8-1c-0.1-0.2-0.3-0.4-0.3-0.7c-0.2 .1-0.3 .3-0.5 .3c-0.2 .1-0.4 .1-0.6 .1c-0.2 0-0.4-0.1-0.6-0.2c-0.2-0.1-0.3-0.3-0.4-0.5c-0.1 .1-0.3 .2-0.4 .2c-0.1 .1-0.3 .1-0.4 .1c-0.2 0-0.3 0-0.4 0c-0.2-0.1-0.3-0.1-0.4-0.2c-0.2 .2-0.4 .3-0.7 .4c-0.3 0-0.6 0-0.8-0.1c-0.3-0.1-0.5-0.3-0.6-0.5c-0.2-0.2-0.3-0.5-0.3-0.8v-0.2c0 .1-0.1 .1-0.1 .1c-0.1 0-0.2 0-0.2 0c-0.1 0-0.1 0-0.2 0c-0.1 0-0.1 0-0.2 0c0 .6-0.4 1.1-0.9 1.3c-0.6 .2-1.2 0-1.5-0.4c-0.4-0.5-0.4-1.1-0.1-1.6c.3-0.5 .9-0.8 1.5-0.6v-0.1c0-0.3 .2-0.7 .4-0.9c.3-0.3 .7-0.4 1-0.4c.4 .1 .7 .2 1 .5c.2 .3 .3 .6 .3 1c.1 0 .2-0.1 .3-0.1c.1 0 .2 0 .3 .1c.1 0 .2 0 .3 0c.1 .1 .2 .1 .3 .2l.1-0.1Zm-8.9 .8v-0.1c0-0.5 .3-1 .7-1.2c.5-0.2 1-0.2 1.4 0c.5 .3 .7 .8 .7 1.3c-0.1 .5-0.4 .9-0.9 1.1v.2c0 .3-0.1 .6-0.3 .9c.1 .2 .1 .5 0 .8c0 .2-0.2 .5-0.4 .7c-0.2 .1-0.5 .3-0.7 .3c-0.3 0-0.6 0-0.8-0.2c-0.1 .1-0.3 .2-0.4 .3c-0.1 .1-0.3 .1-0.4 .1c-0.2 .1-0.3 0-0.5 0c-0.1 0-0.3-0.1-0.4-0.1c-0.2 .2-0.5 .3-0.7 .4c.1 .2 .1 .4 .2 .6c0 .2 0 .5-0.1 .7c-0.1 .2-0.2 .3-0.4 .5c-0.1 .1-0.3 .2-0.5 .3c-0.2 .4-0.6 .7-1.1 .7c-0.4 .1-0.9-0.1-1.2-0.5c-0.3-0.3-0.4-0.8-0.2-1.2c.1-0.5 .5-0.8 .9-1c.2-0.3 .5-0.6 .9-0.7c-0.2-0.2-0.3-0.5-0.2-0.8c0-0.3 .1-0.6 .3-0.9c.2-0.2 .5-0.3 .8-0.4c.3 0 .7 0 .9 .2c.1-0.1 .2-0.2 .4-0.3c.1-0.1 .2-0.1 .4-0.2c.1 0 .3 0 .4 0c.2 0 .3 .1 .5 .1c-0.1-0.1-0.1-0.3-0.1-0.5c0-0.1 .1-0.3 .1-0.4c.1-0.2 .2-0.3 .3-0.4c.1-0.1 .3-0.2 .4-0.3Zm19-1.5c.4 0 .7 .1 1 .4c.2 .2 .4 .6 .4 .9c0 .4-0.2 .8-0.4 1c-0.3 .3-0.6 .4-1 .4c-0.4 0-0.7-0.1-1-0.4c-0.2-0.2-0.4-0.6-0.4-1c0-0.3 .2-0.7 .4-0.9c.3-0.3 .6-0.4 1-0.4Z" fill="#b884b1" transform="translate(-4,-22.6)"/></g></g><text id="_a1" font-size="18" font-family="ABCSans" font-weight="900" letter-spacing=".1em" word-spacing="0" text-anchor="middle" transform="translate(152.6,760.1)" style="line-height: 16px;">RNA</text></g><script xlink:href="keyshapejs-1.1.0.min.js"/><script><![CDATA[if(KeyshapeJS.version.indexOf('1.')!=0)throw Error('Expected KeyshapeJS v1.*.*');window.ks=document.ks=KeyshapeJS;(function(ks){
ks.animate("#RNA-coiled-2",[{p:'mpath',t:[500,2000],v:['0%','100%'],e:[[0],[0]],mp:"M28.4,748.1L28.4,851.3"},{p:'d',t:[500,1500,2500,3500,4500],v:["path('M.9,3.3C.9,3.3,2.3,3.3,2.2,3.3L2.3,1.3L2.2,3.3C2.1,3.4,3.6,3.4,3.5,3.4C3.4,3.4,4.9,3.5,4.8,3.5L4.9,1.5L4.8,3.5C4.7,3.5,6.2,3.6,6.1,3.6C6.1,3.6,7.5,3.7,7.4,3.8L7.7,1.7L7.4,3.8C7.3,3.8,8.9,3.9,8.8,3.9C8.7,4,10.2,4,10.1,4.1L10.4,2L10.1,4.1C10,4.2,11.6,4.2,11.5,4.3C11.5,4.4,12.9,4.5,12.9,4.5L13.2,2.4L12.9,4.5C12.8,4.6,14.4,4.7,14.3,4.8C14.3,4.8,15.8,5,15.7,5L16.1,2.8L15.7,5C15.7,5.1,17.2,5.2,17.2,5.3C17.2,5.4,18.7,5.5,18.6,5.6L19.1,3.3L18.6,5.6C18.6,5.7,20.2,5.8,20.2,5.9C20.2,6,21.7,6.1,21.7,6.2L22.2,3.8L21.7,6.2C21.7,6.3,23.3,6.4,23.3,6.5C23.3,6.6,24.8,6.7,24.8,6.8L25.3,4.3L24.8,6.8C24.8,6.9,26.5,7,26.5,7.1C26.5,7.2,28,7.3,28.1,7.4L28.5,4.8L28.1,7.4C28.1,7.5,29.7,7.6,29.8,7.7C29.8,7.8,31.4,7.9,31.4,8L31.9,5.4L31.4,8C31.4,8.1,33.1,8.2,33.2,8.3C33.2,8.3,34.8,8.5,34.9,8.6L35.3,5.8L34.9,8.6C34.9,8.7,36.6,8.7,36.7,8.8C36.7,8.9,38.3,9,38.4,9.1L38.8,6.3L38.4,9.1C38.5,9.1,40.2,9.2,40.3,9.3C40.3,9.3,41.9,9.4,42,9.5L42.3,6.6L42,9.5C42.1,9.6,43.8,9.6,43.9,9.7C44,9.7,45.6,9.8,45.7,9.8L46,6.9L45.7,9.8C45.8,9.9,47.5,9.9,47.6,10C47.7,10,49.4,10.1,49.5,10.1L49.6,7.2L49.5,10.1C49.6,10.1,51.3,10.2,51.4,10.2C51.5,10.2,53.1,10.2,53.3,10.3L53.3,7.3L53.3,10.3C53.4,10.3,55.1,10.3,55.2,10.3C55.3,10.3,56.9,10.3,57.1,10.3L57.1,7.3L57.1,10.3C57.2,10.3,58.9,10.3,59,10.3C59.1,10.3,60.8,10.3,60.9,10.3L60.8,7.3L60.9,10.3C61,10.2,62.7,10.2,62.8,10.2C62.9,10.2,64.5,10.1,64.6,10.1L64.5,7.2L64.6,10.1C64.7,10.1,66.5,10,66.6,10C66.6,10,68.3,9.9,68.4,9.8L68.1,6.9L68.4,9.8C68.5,9.8,70.2,9.7,70.3,9.7C70.3,9.6,72,9.6,72.1,9.5L71.8,6.6L72.1,9.5C72.2,9.4,73.9,9.4,74,9.3C74,9.2,75.6,9.1,75.7,9.1L75.3,6.3L75.7,9.1C75.8,9,77.5,8.9,77.5,8.8C77.6,8.8,79.2,8.7,79.3,8.6L78.8,5.8L79.3,8.6C79.3,8.5,81,8.4,81,8.3C81.1,8.2,82.7,8.1,82.7,8L82.2,5.4L82.7,8C82.7,7.9,84.4,7.8,84.4,7.7C84.5,7.6,86,7.5,86.1,7.4L85.6,4.8L86.1,7.4C86.1,7.3,87.7,7.2,87.7,7.1C87.7,7,89.3,6.9,89.3,6.8L88.8,4.3L89.3,6.8C89.3,6.7,90.9,6.6,90.9,6.5C90.9,6.4,92.5,6.3,92.4,6.2L92,3.8L92.4,6.2C92.4,6.1,94,6,94,5.9C94,5.8,95.5,5.7,95.5,5.6L95,3.3L95.5,5.6C95.4,5.5,97,5.4,97,5.3C97,5.2,98.5,5.1,98.4,5L98,2.8L98.4,5C98.4,5,99.9,4.9,99.9,4.8C99.8,4.7,101.3,4.6,101.3,4.5L100.9,2.4L101.3,4.5C101.2,4.5,102.8,4.4,102.7,4.3C102.6,4.3,104.1,4.2,104,4.1L103.7,2L104,4.1C103.9,4,105.5,4,105.4,3.9C105.3,3.9,106.8,3.8,106.7,3.8L106.5,1.7L106.7,3.8C106.6,3.7,108.2,3.7,108.1,3.6C108,3.6,109.4,3.5,109.3,3.5L109.2,1.5L109.3,3.5C109.2,3.5,110.8,3.4,110.7,3.4C110.6,3.4,112,3.4,111.9,3.3L111.9,1.3L111.9,3.3C111.8,3.3,113.4,3.3,113.3,3.3C113.2,3.3,114.6,3.3,114.5,3.3L114.5,1.3L114.5,3.3C114.4,3.3,116,3.3,115.8,3.3')","path('M1.8,3.2C1.7,3.2,3.1,3.2,3,3.2L3.1,1.5L3,3.2C3,3.3,4.5,3.3,4.4,3.3C4.4,3.3,5.8,3.4,5.7,3.4L5.8,1.6L5.7,3.4C5.6,3.5,7.1,3.5,7.1,3.5C7,3.6,8.4,3.6,8.4,3.7L8.6,1.8L8.4,3.7C8.3,3.8,9.8,3.8,9.8,3.9C9.7,3.9,11.2,4,11.1,4.1L11.3,2.2L11.1,4.1C11,4.2,12.6,4.3,12.5,4.3C12.5,4.4,13.9,4.5,13.9,4.6L14.2,2.6L13.9,4.6C13.8,4.7,15.4,4.8,15.3,4.9C15.3,5,16.7,5.1,16.7,5.2L17,3.1L16.7,5.2C16.7,5.3,18.2,5.4,18.2,5.5C18.2,5.6,19.6,5.7,19.6,5.9L19.9,3.7L19.6,5.9C19.6,6,21.1,6.1,21.1,6.2C21.1,6.3,22.6,6.4,22.6,6.6L22.9,4.3L22.6,6.6C22.6,6.7,24.1,6.8,24.1,6.9C24.1,7,25.6,7.2,25.6,7.3L26,5L25.6,7.3C25.6,7.4,27.2,7.6,27.2,7.7C27.2,7.8,28.7,7.9,28.8,8.1L29.1,5.6L28.8,8.1C28.8,8.2,30.4,8.3,30.4,8.4C30.4,8.5,31.9,8.7,32,8.8L32.3,6.2L32,8.8C32,8.9,33.6,9,33.6,9.1C33.6,9.2,35.2,9.3,35.2,9.5L35.5,6.8L35.2,9.5C35.3,9.6,36.9,9.7,36.9,9.8C37,9.9,38.5,10,38.6,10.1L38.8,7.3L38.6,10.1C38.6,10.2,40.2,10.3,40.3,10.4C40.3,10.4,41.9,10.5,41.9,10.6L42.1,7.8L41.9,10.6C42,10.7,43.6,10.8,43.7,10.9C43.7,10.9,45.3,11,45.4,11.1L45.5,8.2L45.4,11.1C45.4,11.1,47.1,11.2,47.1,11.3C47.2,11.3,48.8,11.4,48.8,11.4L48.9,8.5L48.8,11.4C48.9,11.5,50.5,11.5,50.6,11.5C50.7,11.6,52.2,11.6,52.3,11.6L52.4,8.7L52.3,11.6C52.4,11.7,54,11.7,54.1,11.7C54.1,11.7,55.7,11.7,55.8,11.7L55.8,8.8L55.8,11.7C55.9,11.7,57.5,11.7,57.6,11.7C57.6,11.7,59.2,11.7,59.3,11.7L59.2,8.7L59.3,11.7C59.4,11.7,61,11.6,61.1,11.6C61.1,11.6,62.7,11.6,62.8,11.5L62.6,8.6L62.8,11.5C62.8,11.5,64.5,11.4,64.5,11.4C64.6,11.4,66.1,11.3,66.2,11.2L66,8.3L66.2,11.2C66.3,11.2,67.9,11.1,68,11C68,11,69.5,10.9,69.6,10.8L69.4,8L69.6,10.8C69.7,10.8,71.3,10.7,71.3,10.6C71.3,10.5,72.9,10.4,72.9,10.3L72.7,7.6L72.9,10.3C73,10.2,74.6,10.1,74.6,10C74.7,10,76.2,9.8,76.2,9.7L75.9,7L76.2,9.7C76.3,9.6,77.9,9.5,77.9,9.4C77.9,9.3,79.4,9.2,79.4,9.1L79.1,6.5L79.4,9.1C79.5,9,81.1,8.8,81.1,8.7C81.1,8.6,82.6,8.5,82.6,8.4L82.2,5.9L82.6,8.4C82.6,8.2,84.2,8.1,84.2,8C84.2,7.9,85.7,7.8,85.7,7.6L85.3,5.2L85.7,7.6C85.7,7.5,87.2,7.4,87.2,7.2C87.2,7.2,88.7,7,88.7,6.9L88.3,4.6L88.7,6.9C88.6,6.8,90.2,6.6,90.2,6.5C90.1,6.4,91.6,6.3,91.6,6.2L91.3,4L91.6,6.2C91.5,6,93.1,5.9,93,5.8C93,5.7,94.5,5.6,94.4,5.5L94.1,3.4L94.4,5.5C94.4,5.4,95.9,5.2,95.9,5.1C95.8,5.1,97.3,5,97.2,4.9L97,2.8L97.2,4.9C97.2,4.7,98.7,4.6,98.6,4.6C98.6,4.5,100,4.4,100,4.3L99.7,2.4L100,4.3C99.9,4.2,101.4,4.1,101.3,4.1C101.3,4,102.7,3.9,102.6,3.9L102.5,2L102.6,3.9C102.6,3.8,104.1,3.7,104,3.7C104,3.6,105.4,3.6,105.3,3.5L105.2,1.7L105.3,3.5C105.2,3.5,106.7,3.4,106.7,3.4C106.6,3.4,108,3.3,107.9,3.3L107.9,1.5L107.9,3.3C107.9,3.3,109.4,3.2,109.3,3.2C109.2,3.2,110.6,3.2,110.6,3.2L110.6,1.4L110.6,3.2C110.5,3.2,112,3.2,111.9,3.2')","path('M.9,3.3C.9,3.3,2.3,3.3,2.2,3.3L2.3,1.3L2.2,3.3C2.1,3.4,3.6,3.4,3.5,3.4C3.4,3.4,4.9,3.5,4.8,3.5L4.9,1.5L4.8,3.5C4.7,3.5,6.2,3.6,6.1,3.6C6.1,3.6,7.5,3.7,7.4,3.8L7.7,1.7L7.4,3.8C7.3,3.8,8.9,3.9,8.8,3.9C8.7,4,10.2,4,10.1,4.1L10.4,2L10.1,4.1C10,4.2,11.6,4.2,11.5,4.3C11.5,4.4,12.9,4.5,12.9,4.5L13.2,2.4L12.9,4.5C12.8,4.6,14.4,4.7,14.3,4.8C14.3,4.8,15.8,5,15.7,5L16.1,2.8L15.7,5C15.7,5.1,17.2,5.2,17.2,5.3C17.2,5.4,18.7,5.5,18.6,5.6L19.1,3.3L18.6,5.6C18.6,5.7,20.2,5.8,20.2,5.9C20.2,6,21.7,6.1,21.7,6.2L22.2,3.8L21.7,6.2C21.7,6.3,23.3,6.4,23.3,6.5C23.3,6.6,24.8,6.7,24.8,6.8L25.3,4.3L24.8,6.8C24.8,6.9,26.5,7,26.5,7.1C26.5,7.2,28,7.3,28.1,7.4L28.5,4.8L28.1,7.4C28.1,7.5,29.7,7.6,29.8,7.7C29.8,7.8,31.4,7.9,31.4,8L31.9,5.4L31.4,8C31.4,8.1,33.1,8.2,33.2,8.3C33.2,8.3,34.8,8.5,34.9,8.6L35.3,5.8L34.9,8.6C34.9,8.7,36.6,8.7,36.7,8.8C36.7,8.9,38.3,9,38.4,9.1L38.8,6.3L38.4,9.1C38.5,9.1,40.2,9.2,40.3,9.3C40.3,9.3,41.9,9.4,42,9.5L42.3,6.6L42,9.5C42.1,9.6,43.8,9.6,43.9,9.7C44,9.7,45.6,9.8,45.7,9.8L46,6.9L45.7,9.8C45.8,9.9,47.5,9.9,47.6,10C47.7,10,49.4,10.1,49.5,10.1L49.6,7.2L49.5,10.1C49.6,10.1,51.3,10.2,51.4,10.2C51.5,10.2,53.1,10.2,53.3,10.3L53.3,7.3L53.3,10.3C53.4,10.3,55.1,10.3,55.2,10.3C55.3,10.3,56.9,10.3,57.1,10.3L57.1,7.3L57.1,10.3C57.2,10.3,58.9,10.3,59,10.3C59.1,10.3,60.8,10.3,60.9,10.3L60.8,7.3L60.9,10.3C61,10.2,62.7,10.2,62.8,10.2C62.9,10.2,64.5,10.1,64.6,10.1L64.5,7.2L64.6,10.1C64.7,10.1,66.5,10,66.6,10C66.6,10,68.3,9.9,68.4,9.8L68.1,6.9L68.4,9.8C68.5,9.8,70.2,9.7,70.3,9.7C70.3,9.6,72,9.6,72.1,9.5L71.8,6.6L72.1,9.5C72.2,9.4,73.9,9.4,74,9.3C74,9.2,75.6,9.1,75.7,9.1L75.3,6.3L75.7,9.1C75.8,9,77.5,8.9,77.5,8.8C77.6,8.8,79.2,8.7,79.3,8.6L78.8,5.8L79.3,8.6C79.3,8.5,81,8.4,81,8.3C81.1,8.2,82.7,8.1,82.7,8L82.2,5.4L82.7,8C82.7,7.9,84.4,7.8,84.4,7.7C84.5,7.6,86,7.5,86.1,7.4L85.6,4.8L86.1,7.4C86.1,7.3,87.7,7.2,87.7,7.1C87.7,7,89.3,6.9,89.3,6.8L88.8,4.3L89.3,6.8C89.3,6.7,90.9,6.6,90.9,6.5C90.9,6.4,92.5,6.3,92.4,6.2L92,3.8L92.4,6.2C92.4,6.1,94,6,94,5.9C94,5.8,95.5,5.7,95.5,5.6L95,3.3L95.5,5.6C95.4,5.5,97,5.4,97,5.3C97,5.2,98.5,5.1,98.4,5L98,2.8L98.4,5C98.4,5,99.9,4.9,99.9,4.8C99.8,4.7,101.3,4.6,101.3,4.5L100.9,2.4L101.3,4.5C101.2,4.5,102.8,4.4,102.7,4.3C102.6,4.3,104.1,4.2,104,4.1L103.7,2L104,4.1C103.9,4,105.5,4,105.4,3.9C105.3,3.9,106.8,3.8,106.7,3.8L106.5,1.7L106.7,3.8C106.6,3.7,108.2,3.7,108.1,3.6C108,3.6,109.4,3.5,109.3,3.5L109.2,1.5L109.3,3.5C109.2,3.5,110.8,3.4,110.7,3.4C110.6,3.4,112,3.4,111.9,3.3L111.9,1.3L111.9,3.3C111.8,3.3,113.4,3.3,113.3,3.3C113.2,3.3,114.6,3.3,114.5,3.3L114.5,1.3L114.5,3.3C114.4,3.3,116,3.3,115.8,3.3')","path('M1.8,3.2C1.7,3.2,3.1,3.2,3,3.2L3.1,1.5L3,3.2C3,3.3,4.5,3.3,4.4,3.3C4.4,3.3,5.8,3.4,5.7,3.4L5.8,1.6L5.7,3.4C5.6,3.5,7.1,3.5,7.1,3.5C7,3.6,8.4,3.6,8.4,3.7L8.6,1.8L8.4,3.7C8.3,3.8,9.8,3.8,9.8,3.9C9.7,3.9,11.2,4,11.1,4.1L11.3,2.2L11.1,4.1C11,4.2,12.6,4.3,12.5,4.3C12.5,4.4,13.9,4.5,13.9,4.6L14.2,2.6L13.9,4.6C13.8,4.7,15.4,4.8,15.3,4.9C15.3,5,16.7,5.1,16.7,5.2L17,3.1L16.7,5.2C16.7,5.3,18.2,5.4,18.2,5.5C18.2,5.6,19.6,5.7,19.6,5.9L19.9,3.7L19.6,5.9C19.6,6,21.1,6.1,21.1,6.2C21.1,6.3,22.6,6.4,22.6,6.6L22.9,4.3L22.6,6.6C22.6,6.7,24.1,6.8,24.1,6.9C24.1,7,25.6,7.2,25.6,7.3L26,5L25.6,7.3C25.6,7.4,27.2,7.6,27.2,7.7C27.2,7.8,28.7,7.9,28.8,8.1L29.1,5.6L28.8,8.1C28.8,8.2,30.4,8.3,30.4,8.4C30.4,8.5,31.9,8.7,32,8.8L32.3,6.2L32,8.8C32,8.9,33.6,9,33.6,9.1C33.6,9.2,35.2,9.3,35.2,9.5L35.5,6.8L35.2,9.5C35.3,9.6,36.9,9.7,36.9,9.8C37,9.9,38.5,10,38.6,10.1L38.8,7.3L38.6,10.1C38.6,10.2,40.2,10.3,40.3,10.4C40.3,10.4,41.9,10.5,41.9,10.6L42.1,7.8L41.9,10.6C42,10.7,43.6,10.8,43.7,10.9C43.7,10.9,45.3,11,45.4,11.1L45.5,8.2L45.4,11.1C45.4,11.1,47.1,11.2,47.1,11.3C47.2,11.3,48.8,11.4,48.8,11.4L48.9,8.5L48.8,11.4C48.9,11.5,50.5,11.5,50.6,11.5C50.7,11.6,52.2,11.6,52.3,11.6L52.4,8.7L52.3,11.6C52.4,11.7,54,11.7,54.1,11.7C54.1,11.7,55.7,11.7,55.8,11.7L55.8,8.8L55.8,11.7C55.9,11.7,57.5,11.7,57.6,11.7C57.6,11.7,59.2,11.7,59.3,11.7L59.2,8.7L59.3,11.7C59.4,11.7,61,11.6,61.1,11.6C61.1,11.6,62.7,11.6,62.8,11.5L62.6,8.6L62.8,11.5C62.8,11.5,64.5,11.4,64.5,11.4C64.6,11.4,66.1,11.3,66.2,11.2L66,8.3L66.2,11.2C66.3,11.2,67.9,11.1,68,11C68,11,69.5,10.9,69.6,10.8L69.4,8L69.6,10.8C69.7,10.8,71.3,10.7,71.3,10.6C71.3,10.5,72.9,10.4,72.9,10.3L72.7,7.6L72.9,10.3C73,10.2,74.6,10.1,74.6,10C74.7,10,76.2,9.8,76.2,9.7L75.9,7L76.2,9.7C76.3,9.6,77.9,9.5,77.9,9.4C77.9,9.3,79.4,9.2,79.4,9.1L79.1,6.5L79.4,9.1C79.5,9,81.1,8.8,81.1,8.7C81.1,8.6,82.6,8.5,82.6,8.4L82.2,5.9L82.6,8.4C82.6,8.2,84.2,8.1,84.2,8C84.2,7.9,85.7,7.8,85.7,7.6L85.3,5.2L85.7,7.6C85.7,7.5,87.2,7.4,87.2,7.2C87.2,7.2,88.7,7,88.7,6.9L88.3,4.6L88.7,6.9C88.6,6.8,90.2,6.6,90.2,6.5C90.1,6.4,91.6,6.3,91.6,6.2L91.3,4L91.6,6.2C91.5,6,93.1,5.9,93,5.8C93,5.7,94.5,5.6,94.4,5.5L94.1,3.4L94.4,5.5C94.4,5.4,95.9,5.2,95.9,5.1C95.8,5.1,97.3,5,97.2,4.9L97,2.8L97.2,4.9C97.2,4.7,98.7,4.6,98.6,4.6C98.6,4.5,100,4.4,100,4.3L99.7,2.4L100,4.3C99.9,4.2,101.4,4.1,101.3,4.1C101.3,4,102.7,3.9,102.6,3.9L102.5,2L102.6,3.9C102.6,3.8,104.1,3.7,104,3.7C104,3.6,105.4,3.6,105.3,3.5L105.2,1.7L105.3,3.5C105.2,3.5,106.7,3.4,106.7,3.4C106.6,3.4,108,3.3,107.9,3.3L107.9,1.5L107.9,3.3C107.9,3.3,109.4,3.2,109.3,3.2C109.2,3.2,110.6,3.2,110.6,3.2L110.6,1.4L110.6,3.2C110.5,3.2,112,3.2,111.9,3.2')","path('M.9,3.3C.9,3.3,2.3,3.3,2.2,3.3L2.3,1.3L2.2,3.3C2.1,3.4,3.6,3.4,3.5,3.4C3.4,3.4,4.9,3.5,4.8,3.5L4.9,1.5L4.8,3.5C4.7,3.5,6.2,3.6,6.1,3.6C6.1,3.6,7.5,3.7,7.4,3.8L7.7,1.7L7.4,3.8C7.3,3.8,8.9,3.9,8.8,3.9C8.7,4,10.2,4,10.1,4.1L10.4,2L10.1,4.1C10,4.2,11.6,4.2,11.5,4.3C11.5,4.4,12.9,4.5,12.9,4.5L13.2,2.4L12.9,4.5C12.8,4.6,14.4,4.7,14.3,4.8C14.3,4.8,15.8,5,15.7,5L16.1,2.8L15.7,5C15.7,5.1,17.2,5.2,17.2,5.3C17.2,5.4,18.7,5.5,18.6,5.6L19.1,3.3L18.6,5.6C18.6,5.7,20.2,5.8,20.2,5.9C20.2,6,21.7,6.1,21.7,6.2L22.2,3.8L21.7,6.2C21.7,6.3,23.3,6.4,23.3,6.5C23.3,6.6,24.8,6.7,24.8,6.8L25.3,4.3L24.8,6.8C24.8,6.9,26.5,7,26.5,7.1C26.5,7.2,28,7.3,28.1,7.4L28.5,4.8L28.1,7.4C28.1,7.5,29.7,7.6,29.8,7.7C29.8,7.8,31.4,7.9,31.4,8L31.9,5.4L31.4,8C31.4,8.1,33.1,8.2,33.2,8.3C33.2,8.3,34.8,8.5,34.9,8.6L35.3,5.8L34.9,8.6C34.9,8.7,36.6,8.7,36.7,8.8C36.7,8.9,38.3,9,38.4,9.1L38.8,6.3L38.4,9.1C38.5,9.1,40.2,9.2,40.3,9.3C40.3,9.3,41.9,9.4,42,9.5L42.3,6.6L42,9.5C42.1,9.6,43.8,9.6,43.9,9.7C44,9.7,45.6,9.8,45.7,9.8L46,6.9L45.7,9.8C45.8,9.9,47.5,9.9,47.6,10C47.7,10,49.4,10.1,49.5,10.1L49.6,7.2L49.5,10.1C49.6,10.1,51.3,10.2,51.4,10.2C51.5,10.2,53.1,10.2,53.3,10.3L53.3,7.3L53.3,10.3C53.4,10.3,55.1,10.3,55.2,10.3C55.3,10.3,56.9,10.3,57.1,10.3L57.1,7.3L57.1,10.3C57.2,10.3,58.9,10.3,59,10.3C59.1,10.3,60.8,10.3,60.9,10.3L60.8,7.3L60.9,10.3C61,10.2,62.7,10.2,62.8,10.2C62.9,10.2,64.5,10.1,64.6,10.1L64.5,7.2L64.6,10.1C64.7,10.1,66.5,10,66.6,10C66.6,10,68.3,9.9,68.4,9.8L68.1,6.9L68.4,9.8C68.5,9.8,70.2,9.7,70.3,9.7C70.3,9.6,72,9.6,72.1,9.5L71.8,6.6L72.1,9.5C72.2,9.4,73.9,9.4,74,9.3C74,9.2,75.6,9.1,75.7,9.1L75.3,6.3L75.7,9.1C75.8,9,77.5,8.9,77.5,8.8C77.6,8.8,79.2,8.7,79.3,8.6L78.8,5.8L79.3,8.6C79.3,8.5,81,8.4,81,8.3C81.1,8.2,82.7,8.1,82.7,8L82.2,5.4L82.7,8C82.7,7.9,84.4,7.8,84.4,7.7C84.5,7.6,86,7.5,86.1,7.4L85.6,4.8L86.1,7.4C86.1,7.3,87.7,7.2,87.7,7.1C87.7,7,89.3,6.9,89.3,6.8L88.8,4.3L89.3,6.8C89.3,6.7,90.9,6.6,90.9,6.5C90.9,6.4,92.5,6.3,92.4,6.2L92,3.8L92.4,6.2C92.4,6.1,94,6,94,5.9C94,5.8,95.5,5.7,95.5,5.6L95,3.3L95.5,5.6C95.4,5.5,97,5.4,97,5.3C97,5.2,98.5,5.1,98.4,5L98,2.8L98.4,5C98.4,5,99.9,4.9,99.9,4.8C99.8,4.7,101.3,4.6,101.3,4.5L100.9,2.4L101.3,4.5C101.2,4.5,102.8,4.4,102.7,4.3C102.6,4.3,104.1,4.2,104,4.1L103.7,2L104,4.1C103.9,4,105.5,4,105.4,3.9C105.3,3.9,106.8,3.8,106.7,3.8L106.5,1.7L106.7,3.8C106.6,3.7,108.2,3.7,108.1,3.6C108,3.6,109.4,3.5,109.3,3.5L109.2,1.5L109.3,3.5C109.2,3.5,110.8,3.4,110.7,3.4C110.6,3.4,112,3.4,111.9,3.3L111.9,1.3L111.9,3.3C111.8,3.3,113.4,3.3,113.3,3.3C113.2,3.3,114.6,3.3,114.5,3.3L114.5,1.3L114.5,3.3C114.4,3.3,116,3.3,115.8,3.3')"],e:[[1,.4,0,.6,1],[1,.4,0,.6,1],[1,.4,0,.6,1],[1,.4,0,.6,1],[0]]}],
"#_a0",[{p:'opacity',t:[1792,2500],v:[0,1],e:[[0],[0]]}],
"#Ribosome",[{p:'mpath',t:[500,1792],v:['0%','100%'],e:[[0],[0]],mp:"M-25.4,239C-39,397.8,58.4,440.3,153.7,549.7"},{p:'rotate',t:[500,2500,4500],v:[360,20,-340],e:[[1,0,0,1,1],[0],[0]]}],
"#_a1",[{p:'opacity',t:[0,500],v:[1,0],e:[[0],[0]]}],
{autoremove:false,markers:{"LoopStart":2500}}).range(0,4500);
if(document.location.search.substr(1).split('&').indexOf('global=paused')>=0)ks.globalPause()})(KeyshapeJS);
]]></script></svg>