<svg xmlns="http://www.w3.org/2000/svg" xmlns:xlink="http://www.w3.org/1999/xlink" width="100%" height="100%" viewBox="0 0 500 800" style="background: rgba(224,255,255,0.00); white-space: pre;"><defs><symbol id="bead" preserveAspectRatio="none" width="16.5" height="16.5" viewBox="0 0 16.5 16.5" overflow="visible"><ellipse rx="1.5" ry="1.5" clip-rule="evenodd" fill="#a33636" fill-rule="evenodd" stroke="#7d2614" stroke-linejoin="round" stroke-miterlimit="1.8" stroke-width=".3" transform="translate(-0.9,-1) scale(5,5) translate(1.8,1.8)"/></symbol></defs><g transform="translate(922.4,299.6) translate(-825.1,-640.8)"><g transform="translate(-52.5,747.8) translate(-326.5,-222.7)"><g id="Strands" transform="translate(566.1,449.1) translate(-71,-162.3)"><g id="Strand-1" transform="translate(-43.1,-40.8) translate(-18.1,-85.8)"><use id="_a0" width="16.5" height="16.5" xlink:href="#bead" transform="translate(16.9,213.2) translate(0,0) translate(-8.2,-8.2)"/><use id="_a1" width="16.5" height="16.5" xlink:href="#bead" transform="translate(14.2,185.9) translate(0,0) translate(-8.2,-8.2)"/><use id="_a2" width="16.5" height="16.5" xlink:href="#bead" transform="translate(15.2,161.9) translate(0,0) translate(-8.2,-8.2)"/><use id="_a3" width="16.5" height="16.5" xlink:href="#bead" transform="translate(19.6,143.2) translate(0,0) translate(-8.2,-8.2)"/><use id="_a4" width="16.5" height="16.5" xlink:href="#bead" transform="translate(25.6,106.6) translate(0,0) translate(-8.2,-8.2)"/><use id="_a5" width="16.5" height="16.5" xlink:href="#bead" transform="translate(27.9,77.2) translate(0,0) translate(-8.2,-8.2)"/><use id="_a6" width="16.5" height="16.5" xlink:href="#bead" transform="translate(22.6,49.6) translate(0,0) translate(-8.2,-8.2)"/><use id="_a7" width="16.5" height="16.5" xlink:href="#bead" transform="translate(15.2,25.2) translate(0,0) translate(-8.2,-8.2)"/><use id="_a8" width="16.5" height="16.5" xlink:href="#bead" transform="translate(9.6,3.2) translate(0,0) translate(-8.2,-8.2)"/><use id="_a9" width="16.5" height="16.5" xlink:href="#bead" transform="translate(8.2,-26.4) translate(0,0) translate(-8.2,-8.2)"/><use id="_a10" width="16.5" height="16.5" xlink:href="#bead" transform="translate(14.6,-51.8) translate(0,0) translate(-8.2,-8.2)"/></g><g id="Strand-2" transform="translate(23.9,60.2) translate(-16.1,-37.8)"><use id="_a11" width="16.5" height="16.5" xlink:href="#bead" transform="translate(11.8,87.2) translate(0,0) translate(-8.2,-8.2)"/><use id="_a12" width="16.5" height="16.5" xlink:href="#bead" transform="translate(8.2,49) translate(0,0) translate(-8.2,-8.2)"/><use id="_a13" width="16.5" height="16.5" xlink:href="#bead" transform="translate(11.2,31.5) translate(0,0) translate(-8.2,-8.2)"/><use id="_a14" width="16.5" height="16.5" xlink:href="#bead" transform="translate(19.2,6) translate(0,0) translate(-8.2,-8.2)"/><use id="_a15" width="16.5" height="16.5" xlink:href="#bead" transform="translate(24,-21.8) translate(0,0) translate(-8.2,-8.2)"/></g></g><text id="_a16" font-size="18" font-family="ABCSans" font-weight="900" letter-spacing=".1em" word-spacing="0" text-anchor="middle" opacity="0" transform="translate(346.6,312.5) translate(0,0) translate(0,0)" style="line-height: 16px;">LOPINAVIR</text><text id="_a17" font-size="18" font-family="ABCSans" font-weight="900" letter-spacing=".1em" word-spacing="0" text-anchor="middle" transform="translate(602.9,18.5)" style="line-height: 16px;">PROTEASE</text><g id="Protease" fill-rule="evenodd" clip-rule="evenodd" stroke-linejoin="round" stroke-miterlimit="2" transform="translate(604.5,114.8) rotate(-27) scale(2.9,2.9) translate(-23.6,-19.3)"><path d="M23.6 13.2c.1-0.5 .6-0.9 1.1-1.1c0-0.4 .3-0.8 .6-1c-0.1-0.1-0.1-0.3-0.2-0.4c0-0.2 0-0.4 0-0.5c0-0.2 0-0.4 .1-0.5c0-0.2 .1-0.3 .2-0.5c-0.1-0.2-0.2-0.6-0.2-0.9c.1-0.3 .2-0.6 .4-0.8c.3-0.3 .5-0.4 .9-0.5c.3 0 .6 0 .9 .1c.1 0 .1 0 .2-0.1c.1 0 .2 0 .3 0c0 0 .1 0 .2 0c.1 0 .2 0 .2 0c.1-0.2 .2-0.3 .4-0.4c-0.1-0.3-0.2-0.5-0.1-0.7c0-0.3 .1-0.5 .2-0.7c.2-0.2 .3-0.3 .6-0.5c.2-0.1 .4-0.1 .6-0.1c.1-0.3 .3-0.6 .5-0.8c.3-0.2 .6-0.3 .9-0.3c.3-0.1 .6 0 .9 .2c.2 .1 .4 .4 .6 .7c0-0.2 .1-0.4 .2-0.5c.2-0.2 .3-0.3 .5-0.4c.1-0.1 .3-0.1 .5-0.2c.2 0 .4 0 .6 .1c.2-0.2 .4-0.3 .6-0.3c.1-0.4 .3-0.7 .5-0.9c.3-0.3 .7-0.4 1-0.4c.4 0 .7 .1 1 .3c.3 .3 .5 .6 .5 1c.5 .1 .9 .4 1 .9c.3-0.1 .6-0.1 .9-0.1c.3 .1 .6 .2 .8 .4c.2 .2 .3 .5 .4 .8c0 .3 0 .6-0.1 .9c.3 0 .5 .1 .7 .3c.3 .2 .4 .5 .5 .7c.1 .3 0 .6 0 .9c-0.1 .2-0.3 .5-0.5 .7c.2-0.1 .4-0.1 .7-0.1c.2 0 .4 0 .6 .2c.2 .1 .4 .2 .5 .4c.1 .2 .2 .4 .2 .6c.2 .1 .3 .2 .4 .3c.2 .1 .3 .2 .4 .3c.1 .1 .1 .3 .2 .4c0 .1 0 .3 0 .4c.1 .1 .2 .2 .3 .3c.1 .1 .1 .3 .2 .4c0 .1 0 .2 0 .4c0 .1 0 .2 0 .3c.2 .2 .3 .4 .5 .6c.1 .2 .1 .4 .1 .7c0 .2-0.1 .4-0.2 .6c-0.1 .2-0.3 .4-0.5 .6l.1 .1c.1 .8-0.5 1.5-1.3 1.7l.1 .2c0 .3 0 .7-0.2 .9c-0.1 .3-0.3 .5-0.6 .7c-0.3 .1-0.6 .2-1 .1c-0.3-0.1-0.6-0.2-0.8-0.4c0 .1-0.1 .2-0.3 .3c.1 .2 0 .4 0 .5c0 .2-0.1 .4-0.2 .5c-0.1 .2-0.2 .3-0.4 .4c-0.1 .1-0.3 .2-0.5 .2c.1 .3 .2 .6 .1 .9c0 .3-0.2 .5-0.4 .8c-0.2 .2-0.4 .3-0.7 .4c-0.3 .1-0.6 0-0.9-0.1c-0.1 .2-0.3 .3-0.5 .4c.1 .2 .1 .4 .1 .6c-0.1 .2-0.2 .4-0.3 .6c-0.1 .2-0.2 .3-0.4 .4c-0.2 .1-0.4 .2-0.6 .2h-0.1c0 .2-0.1 .3-0.2 .5c-0.1 .1-0.2 .2-0.3 .3c-0.1 .1-0.3 .2-0.4 .3c-0.2 0-0.4 0-0.5 0c.2 .3 .3 .6 .4 .9c0 .3-0.1 .6-0.2 .9c-0.2 .3-0.4 .5-0.7 .6c-0.3 .2-0.7 .2-1 .1c0 .1-0.1 .2-0.2 .3c-0.1 .1-0.2 .2-0.3 .3c-0.1 .1-0.2 .1-0.4 .2c-0.1 0-0.2 0-0.4 0c.1 .1 .1 .2 .1 .3c0 0 0 .1 0 .2c0 .1 0 .2 0 .2c0 .1 0 .2-0.1 .3c.3 .1 .5 .4 .6 .7c.2 .3 .2 .6 .1 .9c0 .3-0.2 .6-0.4 .8c-0.2 .2-0.5 .3-0.8 .4h-0.1c.1 .2 .1 .4 .1 .7c0 .2-0.1 .4-0.2 .6c-0.1 .2-0.3 .4-0.5 .5c-0.2 .2-0.5 .2-0.7 .2v.2c0 .3 0 .7-0.2 .9c-0.2 .3-0.4 .5-0.7 .7c-0.3 .1-0.7 .1-1 0c-0.3-0.1-0.6-0.2-0.8-0.5c-0.1 .2-0.2 .4-0.4 .6c-0.2 .1-0.5 .2-0.7 .2c-0.3 .1-0.5 0-0.7-0.1c-0.3 0-0.5-0.2-0.6-0.4c-0.2 .1-0.3 .2-0.5 .2c-0.1 .1-0.3 .1-0.4 .1c-0.2 0-0.3-0.1-0.5-0.1c-0.1-0.1-0.3-0.2-0.4-0.3c-0.1 .1-0.3 .2-0.4 .3c-0.2 0-0.3 .1-0.5 .1c-0.1 0-0.3 0-0.4-0.1c-0.2 0-0.3-0.1-0.5-0.2c-0.1 .2-0.3 .4-0.6 .4c-0.2 .1-0.4 .2-0.7 .1c-0.2 0-0.5-0.1-0.7-0.2c-0.2-0.2-0.3-0.4-0.4-0.6c-0.2 .3-0.5 .5-0.9 .6c-0.3 0-0.6 0-1-0.1c-0.3-0.2-0.5-0.4-0.7-0.8c-0.1-0.3-0.2-0.6-0.1-0.9l-0.1-0.1c-0.2 0-0.5-0.1-0.7-0.2c-0.1-0.1-0.3-0.3-0.4-0.5c-0.1-0.2-0.2-0.4-0.2-0.7c0-0.2 0-0.4 .1-0.7h-0.1c-0.3 0-0.6-0.1-0.8-0.3c-0.2-0.2-0.4-0.5-0.4-0.8c-0.1-0.3-0.1-0.6 .1-0.9c.1-0.3 .3-0.6 .6-0.7c-0.1-0.1-0.1-0.2-0.1-0.3c0 0 0-0.1 0-0.2c0-0.1 0-0.1 0-0.2c0-0.1 0-0.2 .1-0.3h-0.2c-0.1 0-0.2 0-0.3-0.1c-0.1 0-0.2-0.1-0.3-0.1c-0.1-0.1-0.2-0.2-0.3-0.3c-0.1-0.1-0.2-0.2-0.2-0.3c-0.3 .1-0.7 .1-1-0.1c-0.3-0.1-0.5-0.3-0.7-0.6c-0.1-0.3-0.2-0.6-0.2-0.9c.1-0.3 .2-0.6 .4-0.9c-0.1 0-0.1 0-0.2 0c-0.1 0-0.3 0-0.4-0.1c-0.1-0.1-0.3-0.1-0.4-0.2c-0.1-0.1-0.2-0.2-0.3-0.4c0-0.1-0.1-0.2-0.1-0.4h-0.1c-0.2 0-0.4-0.1-0.6-0.2c-0.2-0.1-0.3-0.2-0.4-0.4c-0.2-0.2-0.2-0.4-0.3-0.6c0-0.2 0-0.4 0-0.6c-0.1-0.1-0.3-0.2-0.4-0.4c-0.3 .1-0.6 .2-0.9 .1c-0.3-0.1-0.5-0.2-0.7-0.4c-0.2-0.3-0.4-0.5-0.4-0.8c-0.1-0.3 0-0.6 .1-0.9c-0.2 0-0.4-0.1-0.5-0.2c-0.2-0.1-0.3-0.2-0.4-0.4c-0.1-0.1-0.2-0.3-0.2-0.5c0-0.1-0.1-0.3 0-0.5c-0.2-0.1-0.3-0.2-0.3-0.3c-0.3 .2-0.6 .3-0.9 .4c-0.3 0-0.7 0-1-0.2c-0.2-0.2-0.5-0.4-0.6-0.7c-0.1-0.4-0.1-0.7 0-1c-0.2-0.1-0.4-0.1-0.6-0.2c-0.2-0.2-0.3-0.3-0.4-0.5c-0.1-0.1-0.2-0.3-0.3-0.5c0-0.2 0-0.4 .1-0.6c-0.2-0.2-0.4-0.4-0.5-0.6c-0.1-0.2-0.2-0.4-0.2-0.6c0-0.3 0-0.5 .1-0.7c.2-0.2 .3-0.4 .5-0.6c0-0.1 0-0.2 0-0.4c0-0.1 0-0.2 .1-0.3c0-0.1 0-0.3 .1-0.4c.1-0.1 .2-0.2 .3-0.3v-0.2c0-0.1 0-0.2 .1-0.3c0-0.2 .1-0.3 .2-0.4c.1-0.1 .2-0.2 .3-0.3c.1-0.1 .2-0.1 .4-0.2c0-0.2 .1-0.4 .2-0.6c.1-0.2 .3-0.3 .5-0.4c.2-0.2 .4-0.2 .6-0.2c.3-0.1 .5 0 .7 .1c-0.2-0.2-0.4-0.5-0.5-0.7c0-0.3-0.1-0.6 0-0.9c.1-0.2 .2-0.5 .5-0.7c.2-0.2 .4-0.3 .7-0.4c-0.1-0.2-0.1-0.5-0.1-0.8c.1-0.3 .2-0.6 .4-0.8c.2-0.2 .5-0.3 .8-0.4c.3 0 .6 0 .8 .1c.1-0.1 .1-0.2 .2-0.3c.1-0.1 .1-0.2 .2-0.3c.1-0.1 .2-0.2 .3-0.2c.1-0.1 .3-0.1 .4-0.2c0-0.3 .2-0.7 .5-0.9c.3-0.2 .6-0.4 1-0.4c.4 0 .7 .2 1 .4c.2 .3 .4 .6 .4 1c.3 0 .5 .1 .7 .3c.2-0.1 .4-0.1 .6-0.1c.2 .1 .4 .1 .5 .2c.2 .1 .3 .2 .5 .4c.1 .1 .2 .3 .2 .5c.2-0.3 .4-0.5 .6-0.7c.3-0.2 .6-0.3 .9-0.2c.3 0 .6 .1 .9 .3c.2 .2 .4 .5 .5 .8h.1c.3 0 .5 .1 .7 .2c.1 .1 .3 .3 .4 .5c.1 .2 .2 .4 .2 .6c0 .2 0 .4-0.1 .6c.2 .2 .3 .3 .3 .5c.1 0 .2 0 .3 0c.1 0 .2 0 .2 0c.1 0 .2 0 .3 0c0 .1 .1 .1 .2 .1c.3-0.1 .6-0.1 .9-0.1c.3 .1 .6 .2 .9 .5c.2 .2 .3 .5 .3 .8c.1 .3 0 .7-0.2 .9c.2 .2 .3 .3 .3 .5c.1 .1 .1 .3 .1 .5c0 .1 0 .3 0 .4c-0.1 .2-0.2 .4-0.3 .5c.4 .2 .6 .6 .7 1c.5 .2 .9 .6 1.1 1.1Z" fill="#e37e36"/><path d="M23.6 13.2c.1-0.5 .6-0.9 1.1-1.1c0-0.4 .3-0.8 .6-1c-0.1-0.1-0.1-0.3-0.2-0.4c0-0.2 0-0.4 0-0.5c0-0.2 0-0.4 .1-0.5c0-0.2 .1-0.3 .2-0.5c-0.1-0.2-0.2-0.6-0.2-0.9c.1-0.3 .2-0.6 .4-0.8c.3-0.3 .5-0.4 .9-0.5c.3 0 .6 0 .9 .1c.1 0 .1 0 .2-0.1c.1 0 .2 0 .3 0c0 0 .1 0 .2 0c.1 0 .2 0 .2 0c.1-0.2 .2-0.3 .4-0.4c-0.1-0.3-0.2-0.5-0.1-0.7c0-0.3 .1-0.5 .2-0.7c.2-0.2 .3-0.3 .6-0.5c.2-0.1 .4-0.1 .6-0.1c.1-0.3 .3-0.6 .5-0.8c.3-0.2 .6-0.3 .9-0.3c.3-0.1 .6 0 .9 .2c.2 .1 .4 .4 .6 .7c0-0.2 .1-0.4 .2-0.5c.2-0.2 .3-0.3 .5-0.4c.1-0.1 .3-0.1 .5-0.2c.2 0 .4 0 .6 .1c.2-0.2 .4-0.3 .6-0.3c.1-0.4 .3-0.7 .5-0.9c.3-0.3 .7-0.4 1-0.4c.4 0 .7 .1 1 .3c.3 .3 .5 .6 .5 1c.5 .1 .9 .4 1 .9c.3-0.1 .6-0.1 .9-0.1c.3 .1 .6 .2 .8 .4c.2 .2 .3 .5 .4 .8c0 .3 0 .6-0.1 .9c.3 0 .5 .1 .7 .3c.3 .2 .4 .5 .5 .7c.1 .3 0 .6 0 .9c-0.1 .2-0.3 .5-0.5 .7c.2-0.1 .4-0.1 .7-0.1c.2 0 .4 0 .6 .2c.2 .1 .4 .2 .5 .4c.1 .2 .2 .4 .2 .6c.2 .1 .3 .2 .4 .3c.2 .1 .3 .2 .4 .3c.1 .1 .1 .3 .2 .4c0 .1 0 .3 0 .4c.1 .1 .2 .2 .3 .3c.1 .1 .1 .3 .2 .4c0 .1 0 .2 0 .4c0 .1 0 .2 0 .3c.2 .2 .3 .4 .5 .6c.1 .2 .1 .4 .1 .7c0 .2-0.1 .4-0.2 .6c-0.1 .2-0.3 .4-0.5 .6l.1 .1c.1 .8-0.5 1.5-1.3 1.7l.1 .2c0 .3 0 .7-0.2 .9c-0.1 .3-0.3 .5-0.6 .7c-0.3 .1-0.6 .2-1 .1c-0.3-0.1-0.6-0.2-0.8-0.4c0 .1-0.1 .2-0.3 .3c.1 .2 0 .4 0 .5c0 .2-0.1 .4-0.2 .5c-0.1 .2-0.2 .3-0.4 .4c-0.1 .1-0.3 .2-0.5 .2c.1 .3 .2 .6 .1 .9c0 .3-0.2 .5-0.4 .8c-0.2 .2-0.4 .3-0.7 .4c-0.3 .1-0.6 0-0.9-0.1c-0.1 .2-0.3 .3-0.5 .4c.1 .2 .1 .4 .1 .6c-0.1 .2-0.2 .4-0.3 .6c-0.1 .2-0.2 .3-0.4 .4c-0.2 .1-0.4 .2-0.6 .2h-0.1c0 .2-0.1 .3-0.2 .5c-0.1 .1-0.2 .2-0.3 .3c-0.1 .1-0.3 .2-0.4 .3c-0.2 0-0.4 0-0.5 0c.2 .3 .3 .6 .4 .9c0 .3-0.1 .6-0.2 .9c-0.2 .3-0.4 .5-0.7 .6c-0.3 .2-0.7 .2-1 .1c0 .1-0.1 .2-0.2 .3c-0.1 .1-0.2 .2-0.3 .3c-0.1 .1-0.2 .1-0.4 .2c-0.1 0-0.2 0-0.4 0c.1 .1 .1 .2 .1 .3c0 0 0 .1 0 .2c0 .1 0 .2 0 .2c0 .1 0 .2-0.1 .3c.3 .1 .5 .4 .6 .7c.2 .3 .2 .6 .1 .9c0 .3-0.2 .6-0.4 .8c-0.2 .2-0.5 .3-0.8 .4h-0.1c.1 .2 .1 .4 .1 .7c0 .2-0.1 .4-0.2 .6c-0.1 .2-0.3 .4-0.5 .5c-0.2 .2-0.5 .2-0.7 .2v.2c0 .3 0 .7-0.2 .9c-0.2 .3-0.4 .5-0.7 .7c-0.3 .1-0.7 .1-1 0c-0.3-0.1-0.6-0.2-0.8-0.5c-0.1 .2-0.2 .4-0.4 .6c-0.2 .1-0.5 .2-0.7 .2c-0.3 .1-0.5 0-0.7-0.1c-0.3 0-0.5-0.2-0.6-0.4c-0.2 .1-0.3 .2-0.5 .2c-0.1 .1-0.3 .1-0.4 .1c-0.2 0-0.3-0.1-0.5-0.1c-0.1-0.1-0.3-0.2-0.4-0.3c-0.1 .1-0.3 .2-0.4 .3c-0.2 0-0.3 .1-0.5 .1c-0.1 0-0.3 0-0.4-0.1c-0.2 0-0.3-0.1-0.5-0.2c-0.1 .2-0.3 .4-0.6 .4c-0.2 .1-0.4 .2-0.7 .1c-0.2 0-0.5-0.1-0.7-0.2c-0.2-0.2-0.3-0.4-0.4-0.6c-0.2 .3-0.5 .5-0.9 .6c-0.3 0-0.6 0-1-0.1c-0.3-0.2-0.5-0.4-0.7-0.8c-0.1-0.3-0.2-0.6-0.1-0.9l-0.1-0.1c-0.2 0-0.5-0.1-0.7-0.2c-0.1-0.1-0.3-0.3-0.4-0.5c-0.1-0.2-0.2-0.4-0.2-0.7c0-0.2 0-0.4 .1-0.7h-0.1c-0.3 0-0.6-0.1-0.8-0.3c-0.2-0.2-0.4-0.5-0.4-0.8c-0.1-0.3-0.1-0.6 .1-0.9c.1-0.3 .3-0.6 .6-0.7c-0.1-0.1-0.1-0.2-0.1-0.3c0 0 0-0.1 0-0.2c0-0.1 0-0.1 0-0.2c0-0.1 0-0.2 .1-0.3h-0.2c-0.1 0-0.2 0-0.3-0.1c-0.1 0-0.2-0.1-0.3-0.1c-0.1-0.1-0.2-0.2-0.3-0.3c-0.1-0.1-0.2-0.2-0.2-0.3c-0.3 .1-0.7 .1-1-0.1c-0.3-0.1-0.5-0.3-0.7-0.6c-0.1-0.3-0.2-0.6-0.2-0.9c.1-0.3 .2-0.6 .4-0.9c-0.1 0-0.1 0-0.2 0c-0.1 0-0.3 0-0.4-0.1c-0.1-0.1-0.3-0.1-0.4-0.2c-0.1-0.1-0.2-0.2-0.3-0.4c0-0.1-0.1-0.2-0.1-0.4h-0.1c-0.2 0-0.4-0.1-0.6-0.2c-0.2-0.1-0.3-0.2-0.4-0.4c-0.2-0.2-0.2-0.4-0.3-0.6c0-0.2 0-0.4 0-0.6c-0.1-0.1-0.3-0.2-0.4-0.4c-0.3 .1-0.6 .2-0.9 .1c-0.3-0.1-0.5-0.2-0.7-0.4c-0.2-0.3-0.4-0.5-0.4-0.8c-0.1-0.3 0-0.6 .1-0.9c-0.2 0-0.4-0.1-0.5-0.2c-0.2-0.1-0.3-0.2-0.4-0.4c-0.1-0.1-0.2-0.3-0.2-0.5c0-0.1-0.1-0.3 0-0.5c-0.2-0.1-0.3-0.2-0.3-0.3c-0.3 .2-0.6 .3-0.9 .4c-0.3 0-0.7 0-1-0.2c-0.2-0.2-0.5-0.4-0.6-0.7c-0.1-0.4-0.1-0.7 0-1c-0.2-0.1-0.4-0.1-0.6-0.2c-0.2-0.2-0.3-0.3-0.4-0.5c-0.1-0.1-0.2-0.3-0.3-0.5c0-0.2 0-0.4 .1-0.6c-0.2-0.2-0.4-0.4-0.5-0.6c-0.1-0.2-0.2-0.4-0.2-0.6c0-0.3 0-0.5 .1-0.7c.2-0.2 .3-0.4 .5-0.6c0-0.1 0-0.2 0-0.4c0-0.1 0-0.2 .1-0.3c0-0.1 0-0.3 .1-0.4c.1-0.1 .2-0.2 .3-0.3v-0.2c0-0.1 0-0.2 .1-0.3c0-0.2 .1-0.3 .2-0.4c.1-0.1 .2-0.2 .3-0.3c.1-0.1 .2-0.1 .4-0.2c0-0.2 .1-0.4 .2-0.6c.1-0.2 .3-0.3 .5-0.4c.2-0.2 .4-0.2 .6-0.2c.3-0.1 .5 0 .7 .1c-0.2-0.2-0.4-0.5-0.5-0.7c0-0.3-0.1-0.6 0-0.9c.1-0.2 .2-0.5 .5-0.7c.2-0.2 .4-0.3 .7-0.4c-0.1-0.2-0.1-0.5-0.1-0.8c.1-0.3 .2-0.6 .4-0.8c.2-0.2 .5-0.3 .8-0.4c.3 0 .6 0 .8 .1c.1-0.1 .1-0.2 .2-0.3c.1-0.1 .1-0.2 .2-0.3c.1-0.1 .2-0.2 .3-0.2c.1-0.1 .3-0.1 .4-0.2c0-0.3 .2-0.7 .5-0.9c.3-0.2 .6-0.4 1-0.4c.4 0 .7 .2 1 .4c.2 .3 .4 .6 .4 1c.3 0 .5 .1 .7 .3c.2-0.1 .4-0.1 .6-0.1c.2 .1 .4 .1 .5 .2c.2 .1 .3 .2 .5 .4c.1 .1 .2 .3 .2 .5c.2-0.3 .4-0.5 .6-0.7c.3-0.2 .6-0.3 .9-0.2c.3 0 .6 .1 .9 .3c.2 .2 .4 .5 .5 .8h.1c.3 0 .5 .1 .7 .2c.1 .1 .3 .3 .4 .5c.1 .2 .2 .4 .2 .6c0 .2 0 .4-0.1 .6c.2 .2 .3 .3 .3 .5c.1 0 .2 0 .3 0c.1 0 .2 0 .2 0c.1 0 .2 0 .3 0c0 .1 .1 .1 .2 .1c.3-0.1 .6-0.1 .9-0.1c.3 .1 .6 .2 .9 .5c.2 .2 .3 .5 .3 .8c.1 .3 0 .7-0.2 .9c.2 .2 .3 .3 .3 .5c.1 .1 .1 .3 .1 .5c0 .1 0 .3 0 .4c-0.1 .2-0.2 .4-0.3 .5c.4 .2 .6 .6 .7 1c.5 .2 .9 .6 1.1 1.1Zm.3 .1c.1-0.4 .4-0.8 .9-0.9h.2v-0.2c0-0.4 .2-0.7 .5-0.8l.3-0.2l-0.2-0.3c-0.1-0.1-0.1-0.2-0.2-0.3c0-0.2 0-0.3 0-0.4c0-0.2 0-0.3 .1-0.4c0-0.2 .1-0.3 .2-0.4l.1-0.1l-0.1-0.2c-0.1-0.2-0.2-0.5-0.2-0.7c.1-0.3 .2-0.5 .4-0.7c.1-0.2 .4-0.4 .6-0.4c.3 0 .5 0 .8 .1l.1 .1l.1-0.1c.1 0 .2-0.1 .2-0.1c.1 0 .2 0 .2 0c.1 0 .1 0 .2 0c.1 0 .1 0 .2 0h.2l.1-0.2c.1-0.1 .2-0.2 .3-0.3l.1-0.2l-0.1-0.1c0-0.2 0-0.4 0-0.6c0-0.1 0-0.3 .1-0.5c.1-0.1 .3-0.2 .4-0.3c.2-0.1 .3-0.2 .5-0.2h.3l.1-0.3c.1-0.2 .2-0.4 .4-0.6c.2-0.1 .4-0.2 .7-0.2c.2-0.1 .5 0 .7 .1c.2 .2 .4 .4 .5 .6h.5c.1-0.2 .2-0.3 .3-0.4c.1-0.2 .2-0.2 .3-0.3c.2-0.1 .3-0.1 .5-0.2c.1 0 .3 0 .4 .1h.2l.1-0.1c.1-0.1 .3-0.2 .5-0.2l.2-0.1v-0.2c.1-0.3 .2-0.5 .4-0.7c.2-0.2 .5-0.3 .8-0.4c.3 0 .6 .1 .8 .3c.2 .2 .4 .5 .4 .8v.2h.2c.4 .1 .7 .4 .9 .8l.1 .3l.3-0.1c.1-0.1 .1-0.1 .2-0.1c.3 0 .5 0 .7 .1c.2 .1 .3 .2 .5 .4c.1 .1 .2 .3 .2 .5c0 .2 0 .4-0.1 .6l-0.1 .4h.3c.3 .1 .5 .2 .6 .3c.2 .2 .3 .4 .4 .6c.1 .2 0 .5 0 .7c-0.1 .2-0.2 .4-0.4 .5l.3 .5c.1 0 .2 0 .3 0c.2 0 .3 0 .5 0c.1 0 .3 .1 .4 .2c.1 .1 .2 .2 .3 .3c.1 .2 .1 .3 .1 .5l.1 .2h.1c.4 .2 .8 .5 .8 1v.3l.1 .1c.1 0 .2 .1 .2 .2c.1 .1 .1 .2 .2 .3c0 .1 0 .2 0 .3c0 .1 0 .2 0 .3v.2l.1 .1c.2 .1 .3 .2 .4 .4c.1 .2 .1 .4 .1 .6c0 .2-0.1 .3-0.1 .5c-0.1 .2-0.3 .3-0.4 .4l-0.2 .1l.1 .4c0 .1 0 .3-0.1 .4c0 .2-0.1 .3-0.2 .4c0 .1-0.2 .2-0.3 .3c-0.1 .1-0.3 .2-0.4 .2l-0.3 .1l.1 .3v.2c0 .2 0 .5-0.1 .7c-0.2 .2-0.3 .4-0.6 .5c-0.2 .1-0.5 .1-0.7 .1c-0.2-0.1-0.5-0.2-0.7-0.3l-0.2-0.3l-0.2 .3c-0.1 .1-0.2 .2-0.3 .3l-0.1 .1v.1c.1 .2 0 .3 0 .5c0 .1-0.1 .2-0.2 .4c0 .1-0.2 .2-0.3 .3c-0.1 0-0.2 .1-0.4 .1l-0.3 .1l.1 .3c.1 .1 .1 .2 .1 .4c0 .2 0 .4-0.1 .6c0 .2-0.2 .3-0.3 .5c-0.2 .1-0.4 .2-0.6 .2c-0.2 0-0.4 0-0.6 0l-0.2-0.1l-0.1 .1c-0.1 .1-0.2 .2-0.4 .3l-0.2 .1l.1 .4c0 .1 0 .3 0 .5c-0.1 .1-0.2 .2-0.2 .4c-0.1 .1-0.3 .2-0.4 .3c-0.1 .1-0.3 .1-0.4 .1l-0.3 .1l-0.1 .2c0 .1 0 .2-0.1 .3c-0.1 .1-0.2 .2-0.3 .3c-0.1 .1-0.2 .1-0.3 .2c-0.2 0-0.3 0-0.4 0l-0.2 .5c.1 .2 .2 .5 .3 .7c0 .3-0.1 .5-0.2 .8c-0.1 .2-0.3 .4-0.6 .5c-0.2 .1-0.5 .1-0.7 0h-0.2l-0.1 .2c-0.1 .1-0.2 .2-0.2 .2c-0.1 .1-0.2 .2-0.3 .3c-0.1 0-0.2 .1-0.3 .1c-0.1 0-0.2 0-0.3 0l-0.4 .1l.2 .3v.3c0 .1 0 .3 0 .5l-0.1 .2l.2 .1c.2 .2 .3 .4 .4 .6c.1 .2 .2 .5 .1 .7c0 .2-0.2 .5-0.3 .6c-0.2 .2-0.4 .3-0.7 .3l-0.5 .1l.2 .4c.1 .1 .1 .3 .1 .5c0 .2 0 .4-0.1 .6c-0.1 .1-0.3 .3-0.4 .4c-0.2 .1-0.3 .1-0.5 .2h-0.5l.1 .4c0 .3 0 .6-0.1 .8c-0.2 .2-0.4 .4-0.6 .5c-0.3 .1-0.5 .1-0.8 .1c-0.2-0.1-0.5-0.3-0.6-0.5l-0.3-0.4l-0.2 .5c-0.1 .1-0.2 .3-0.4 .4c-0.2 .1-0.4 .2-0.6 .2c-0.2 .1-0.4 0-0.5 0c-0.2-0.1-0.4-0.2-0.5-0.4l-0.2-0.2l-0.2 .2c-0.1 0-0.2 .1-0.4 .1c-0.1 .1-0.2 .1-0.3 .1c-0.1 0-0.3-0.1-0.4-0.1c-0.1-0.1-0.2-0.1-0.3-0.2l-0.2-0.2l-0.2 .2c-0.1 .1-0.2 .1-0.3 .2c-0.1 0-0.3 .1-0.4 .1c-0.1 0-0.2 0-0.3-0.1c-0.2 0-0.3-0.1-0.4-0.1l-0.2-0.2l-0.2 .2c-0.1 .2-0.3 .3-0.5 .4c-0.2 0-0.4 .1-0.5 0c-0.2 0-0.4-0.1-0.6-0.2c-0.1-0.1-0.3-0.3-0.4-0.4l-0.2-0.5l-0.3 .4c-0.1 .2-0.4 .4-0.6 .4c-0.3 .1-0.5 .1-0.8 0c-0.2-0.1-0.4-0.3-0.6-0.5c-0.1-0.2-0.1-0.5-0.1-0.8l.1-0.4l-0.5-0.1c-0.2 0-0.3 0-0.5-0.1c-0.1-0.2-0.3-0.3-0.4-0.5c0-0.1-0.1-0.3-0.1-0.5c0-0.2 0-0.3 .1-0.5l.2-0.4l-0.5-0.1c-0.3 0-0.5-0.1-0.7-0.3c-0.2-0.1-0.3-0.4-0.3-0.6c-0.1-0.2-0.1-0.5 0-0.7c.1-0.2 .3-0.4 .5-0.6l.2-0.1l-0.1-0.2c0-0.1 0-0.1 0-0.2c0-0.1 0-0.1 0-0.2c0 0 0-0.1 0-0.2c0 0 0-0.1 0-0.2l.2-0.3l-0.4-0.1h-0.1c-0.1 0-0.2 0-0.3 0c-0.1-0.1-0.2-0.1-0.3-0.2c0 0-0.1-0.1-0.2-0.2c0-0.1-0.1-0.1-0.1-0.2l-0.2-0.2h-0.2c-0.2 .1-0.4 .1-0.6 0c-0.2 0-0.3-0.1-0.5-0.2c-0.1-0.2-0.3-0.3-0.3-0.5c-0.1-0.2-0.1-0.4-0.1-0.6c.1-0.3 .2-0.5 .3-0.7l-0.2-0.5h-0.2c-0.1 0-0.2 0-0.3-0.1c-0.1 0-0.2-0.1-0.3-0.2c-0.1 0-0.1-0.1-0.2-0.2c-0.1-0.1-0.1-0.2-0.2-0.4v-0.2h-0.3c-0.1 0-0.3 0-0.4-0.1c-0.1-0.1-0.3-0.2-0.4-0.3c0-0.2-0.1-0.3-0.2-0.4c0-0.2 0-0.4 0-0.5l.1-0.4l-0.2-0.1c-0.1 0-0.1 0-0.1 0c-0.1-0.1-0.1-0.1-0.1-0.1c-0.1 0-0.1 0-0.1-0.1c-0.1 0-0.1 0-0.1-0.1l-0.2-0.1l-0.1 .1c-0.3 0-0.5 0-0.7 0c-0.2-0.1-0.5-0.2-0.6-0.4c-0.2-0.1-0.3-0.3-0.3-0.6c-0.1-0.2 0-0.4 .1-0.6l.1-0.4l-0.3-0.1c-0.2 0-0.3-0.1-0.4-0.1c-0.1-0.1-0.3-0.2-0.3-0.3c-0.1-0.2-0.2-0.3-0.2-0.4c0-0.2-0.1-0.3 0-0.5v-0.1l-0.2-0.1c0-0.1-0.1-0.2-0.2-0.3l-0.2-0.3l-0.3 .2c-0.1 .2-0.4 .4-0.6 .4c-0.3 0-0.6 0-0.8-0.2c-0.2-0.1-0.4-0.3-0.5-0.5c-0.1-0.3-0.1-0.6-0.1-0.8l.1-0.3l-0.3-0.1c-0.1 0-0.3-0.1-0.4-0.2c-0.2-0.1-0.3-0.2-0.4-0.3c0-0.1-0.1-0.2-0.1-0.4c-0.1-0.1-0.1-0.3-0.1-0.4l.1-0.4l-0.2-0.1c-0.1-0.1-0.3-0.2-0.4-0.4c-0.1-0.2-0.1-0.4-0.1-0.5c0-0.2 0-0.4 .1-0.6c.1-0.2 .2-0.3 .4-0.4l.1-0.1v-0.2c0-0.1 0-0.2 0-0.3c0-0.1 0-0.2 0-0.3c.1-0.1 .1-0.2 .2-0.3c0-0.1 .1-0.2 .2-0.2l.1-0.1v-0.3c0-0.5 .3-0.8 .8-1h.1v-0.2c.1-0.2 .1-0.4 .2-0.5c.1-0.2 .3-0.3 .4-0.4c.2-0.1 .4-0.1 .6-0.1c.1 0 .3 0 .5 .1l.3-0.6c-0.2-0.1-0.3-0.3-0.4-0.5c-0.1-0.2-0.1-0.5 0-0.7c.1-0.2 .2-0.4 .3-0.6c.2-0.1 .4-0.2 .6-0.3h.4l-0.1-0.4c-0.1-0.2-0.1-0.4-0.1-0.6c.1-0.3 .2-0.5 .3-0.6c.2-0.2 .4-0.3 .6-0.4c.3 0 .5 0 .7 .1l.3 .1l.1-0.3c.2-0.4 .5-0.7 .8-0.8h.2l.1-0.2c0-0.3 .2-0.6 .4-0.8c.2-0.2 .5-0.3 .8-0.3c.3 .1 .6 .2 .8 .4c.2 .2 .3 .4 .3 .7l.1 .2l.2 .1c.2 0 .4 .1 .5 .2l.1 .1h.2c.1-0.1 .3-0.1 .4-0.1c.2 .1 .3 .1 .5 .2c.1 .1 .2 .2 .3 .3c.1 .1 .2 .2 .2 .4h.6c.1-0.2 .3-0.4 .5-0.6c.2-0.1 .5-0.2 .7-0.2c.3 .1 .5 .2 .7 .3c.2 .2 .3 .4 .4 .6v.3h.4c.2 0 .3 .1 .5 .2c.1 .1 .3 .2 .4 .3c.1 .2 .1 .4 .1 .5c0 .2 0 .4 0 .6l-0.1 .1l.1 .2c.1 .1 .2 .2 .3 .3l.1 .2h.2c.1 0 .1 0 .2 0c0 0 .1 0 .2 0c0 0 .1 0 .2 0c0 0 .1 .1 .1 .1l.2 .1l.1-0.1c.3-0.1 .5-0.1 .8-0.1c.2 0 .5 .2 .6 .4c.2 .2 .3 .4 .3 .7c.1 .2 0 .5-0.1 .7l-0.1 .2l.1 .1c.1 .1 .2 .3 .2 .4c.1 .1 .1 .2 .1 .4c0 .1 0 .2 0 .4c-0.1 .1-0.1 .2-0.2 .3l-0.2 .3l.3 .2c.3 .1 .5 .4 .5 .8v.2h.2c.5 .1 .8 .5 .9 .9h.6Z" fill="#989809"/><path d="M21.3 16.1c0-0.3 0-0.5 .1-0.8c.2-0.2 .4-0.5 .6-0.6c.2-0.2 .5-0.2 .8-0.2c.3 0 .6 .1 .8 .2c.2-0.1 .5-0.2 .8-0.2c.3 0 .6 0 .8 .2c.2 .1 .4 .4 .6 .6c.1 .3 .1 .5 .1 .8c.1 .1 .1 .3 .1 .4c.1 .1 .2 .2 .3 .2c.1 .1 .1 .2 .2 .3c0 .1 .1 .3 .1 .4c0 .1 .1 .2 0 .3c.2 0 .3 0 .5 .1c-0.3-0.4-0.4-0.8-0.3-1.3c.1-0.4 .4-0.8 .8-1c.3-0.2 .8-0.2 1.2 0c.4 .1 .8 .5 .9 .9c.1-0.1 .2-0.2 .3-0.3c.1 0 .2-0.1 .3-0.1c.2 0 .3-0.1 .4-0.1c.1 0 .3 0 .4 .1c.2-0.3 .4-0.5 .7-0.6c.3-0.1 .6-0.1 .9 0c.3 0 .5 .2 .8 .4c.2 .2 .3 .5 .3 .8c.1 .3 0 .5-0.1 .7c0 .2-0.2 .5-0.4 .6c-0.1 .2-0.3 .3-0.6 .4c-0.2 0-0.5 0-0.7 0c0 0-0.1 0-0.1 .1c0 0-0.1 .1-0.1 .1c0 0-0.1 .1-0.1 .1c-0.1 .1-0.1 .1-0.2 .1c.1 .3 .1 .5 .1 .8c-0.1 .3-0.2 .5-0.4 .7c-0.2 .2-0.4 .4-0.6 .4c-0.3 .1-0.6 .1-0.8 .1c0 .1-0.1 .2-0.1 .3c.2-0.1 .5-0.1 .7-0.1c.3 0 .5 .1 .7 .2c.2 .1 .4 .3 .5 .5c.1 .2 .2 .4 .2 .7l.2-0.1c.5 0 .9 .1 1.2 .4c.1-0.1 .2-0.2 .4-0.2c.1 0 .3 0 .4 0c.2 0 .3 0 .5 .1c.1 .1 .3 .1 .4 .2c0-0.2 0-0.4 .1-0.6c0-0.1 .1-0.3 .3-0.5c.1-0.1 .3-0.2 .5-0.3c.1-0.1 .3-0.1 .6-0.1c.1-0.6 .5-1.1 1.1-1.2c.5-0.1 1.1 .1 1.5 .5c.3 .5 .4 1.1 .2 1.6c-0.3 .5-0.8 .9-1.4 .9c0 .2-0.1 .5-0.3 .7c-0.2 .1-0.4 .3-0.7 .4c-0.2 .1-0.5 .1-0.7 0c-0.3 0-0.5-0.2-0.7-0.3c0 .2 0 .3-0.1 .5c0 .2-0.1 .3-0.2 .5c-0.2 .1-0.3 .3-0.5 .3c-0.1 .1-0.3 .2-0.5 .2c0 .1 0 .1 0 .2c0 0 0 .1 0 .2c0 0-0.1 .1-0.1 .1c0 0 0 .1 0 .1c.6 .2 1 .8 1 1.4c0 .7-0.4 1.2-1 1.5c-0.5 .2-1.2 0-1.6-0.4c-0.5-0.5-0.5-1.2-0.2-1.8c-0.2 0-0.4-0.1-0.5-0.2c-0.2-0.2-0.3-0.3-0.4-0.5c-0.1-0.1-0.1-0.3-0.1-0.5c-0.1-0.2 0-0.4 0-0.6c-0.1 0-0.1-0.1-0.2-0.2c0 0-0.1-0.1-0.1-0.2c0-0.1-0.1-0.1-0.1-0.2c0-0.1 0-0.2-0.1-0.3v-0.1l-0.2 .1c-0.1 0-0.1 0-0.2 0c-0.1 0-0.1 0-0.2 0c-0.1-0.1-0.2-0.1-0.2-0.1c-0.1 0-0.2 0-0.2-0.1c0 .1 0 .1-0.1 .2h.2c.3 0 .6 .1 .8 .3c.2 .2 .4 .5 .4 .8c.1 .2 .1 .5 0 .8c-0.1 .3-0.2 .5-0.4 .7c.1 .2 .3 .4 .4 .6c.1 .2 .1 .4 .1 .7c0 .2-0.1 .5-0.2 .7c-0.1 .2-0.3 .3-0.5 .5v.1v.1c.4-0.4 1-0.6 1.6-0.4c.5 .2 .9 .6 1 1.2c.1 .6-0.2 1.2-0.7 1.5c-0.5 .3-1.1 .3-1.6 0c-0.1 .1-0.2 .3-0.3 .4c-0.1 .1-0.3 .2-0.4 .2c-0.2 .1-0.3 .1-0.5 .1c-0.2 0-0.4 0-0.5 0c0 0-0.1 0-0.1 0c0 0-0.1 0-0.1 .1c0 0-0.1 0-0.1 0c0 0-0.1 0-0.1 0c0 .2-0.1 .3-0.1 .4c0 .1 0 .1-0.1 .2c0 .1 0 .3-0.1 .4c-0.1 .1-0.1 .3-0.3 .4c-0.1 .1-0.2 .2-0.3 .3c-0.1 0-0.3 .1-0.4 .1c.1 .1 .3 .2 .4 .3c.1 .2 .2 .3 .3 .5c.1 .2 .1 .4 .1 .5c0 .2 0 .4-0.1 .6v.1c.1 .3 0 .7-0.3 1c-0.2 .3-0.6 .5-0.9 .5c-0.4 .1-0.8 0-1.1-0.2c-0.3-0.2-0.5-0.5-0.6-0.9c-0.1 .1-0.2 .2-0.3 .3c-0.1 .1-0.2 .1-0.4 .2c-0.1 0-0.2 0-0.4 .1c-0.1 0-0.3 0-0.4-0.1c-0.1 .1-0.3 .1-0.4 .1c-0.1-0.1-0.3-0.1-0.4-0.1c-0.1-0.1-0.3-0.1-0.4-0.2c-0.1-0.1-0.2-0.2-0.3-0.3c0 .4-0.2 .8-0.5 1c-0.4 .3-0.8 .4-1.2 .3c-0.4 0-0.8-0.3-1-0.6c-0.2-0.4-0.3-0.8-0.2-1.2c-0.1-0.2-0.1-0.4-0.1-0.6c0-0.1 0-0.3 .1-0.5c.1-0.2 .2-0.3 .3-0.5c.1-0.1 .3-0.2 .5-0.3c-0.2 0-0.4-0.1-0.5-0.2c-0.1 0-0.3-0.2-0.4-0.3c-0.1-0.1-0.2-0.3-0.2-0.4c-0.1-0.2-0.1-0.3-0.1-0.5c0 0-0.1 0-0.1-0.1c0 0 0 0 0-0.1c0 0-0.1 0-0.1-0.1c0 0 0 0 0 0c0-0.1-0.1-0.1-0.1-0.1c0 0-0.1 0-0.1 0c0-0.1-0.1-0.1-0.1-0.1c0 0 0 0-0.1 0c-0.1 0-0.3 0-0.5 0c-0.1 0-0.3 0-0.5-0.1c-0.1 0-0.3-0.1-0.4-0.2c-0.1-0.1-0.2-0.3-0.3-0.4c-0.3 .2-0.6 .3-1 .2c-0.5-0.1-0.9-0.3-1.2-0.8c-0.2-0.4-0.2-0.9 0-1.4c.3-0.4 .7-0.7 1.2-0.8c.5 0 .9 .1 1.3 .5c0 0 0 0 0-0.1c0 0 0 0 0 0c0 0 0-0.1 0-0.1c0 0 0 0 0 0c-0.2-0.2-0.4-0.3-0.5-0.5c-0.1-0.2-0.2-0.5-0.2-0.7c0-0.3 0-0.5 .1-0.7c.1-0.2 .3-0.4 .5-0.6c-0.3-0.2-0.4-0.4-0.5-0.7c-0.1-0.3-0.1-0.6 0-0.9c.1-0.3 .3-0.6 .5-0.7c.3-0.2 .6-0.3 .9-0.3c0 0 0-0.1 0-0.1c0 0 0 0 0 0c-0.1 0-0.1 0-0.1 0c0 0 0-0.1 0-0.1c-0.1 .1-0.1 .1-0.2 .1c-0.1 0-0.2 .1-0.3 .1c-0.1 0-0.2 0-0.2 0c-0.1 0-0.2-0.1-0.3-0.1v.1c-0.1 .4-0.2 .7-0.5 .9c.1 .2 .1 .4 .1 .6c-0.1 .2-0.1 .4-0.2 .5c-0.1 .2-0.2 .3-0.4 .5c-0.1 .1-0.3 .2-0.5 .2c.2 .3 .2 .5 .2 .8c0 .3-0.1 .6-0.2 .8c-0.2 .2-0.4 .4-0.7 .5c-0.2 .1-0.5 .2-0.8 .2c-0.3-0.1-0.6-0.3-0.9-0.5c-0.2-0.3-0.3-0.6-0.4-0.9c0-0.3 .1-0.7 .3-1c.2-0.2 .4-0.5 .8-0.6c-0.1 0-0.1-0.1-0.1-0.1c0 0 0-0.1-0.1-0.1c0-0.1 0-0.2 0-0.2c0-0.1 0-0.1 0-0.2c-0.2 0-0.4-0.1-0.5-0.1c-0.2-0.1-0.3-0.3-0.4-0.4c-0.2-0.2-0.2-0.3-0.3-0.5c0-0.2-0.1-0.3-0.1-0.5c-0.2 .1-0.4 .3-0.6 .3c-0.3 .1-0.6 0-0.8 0c-0.3-0.1-0.5-0.3-0.7-0.5c-0.1-0.1-0.3-0.4-0.3-0.6c-0.1 0-0.1 0-0.2 0c-0.5-0.1-1-0.5-1.2-1c-0.2-0.6-0.1-1.1 .3-1.6c.4-0.4 1-0.5 1.5-0.4c.5 .2 1 .6 1.1 1.2h.2c.7 .1 1.3 .8 1.3 1.6c.1-0.2 .2-0.2 .3-0.3c.2-0.1 .3-0.1 .5-0.1c.1 0 .3 0 .4 0c.2 0 .3 .1 .5 .2c0-0.1 .1-0.2 .3-0.2c.1-0.1 .2-0.1 .3-0.1c.1-0.1 .2-0.1 .3-0.1c.2 0 .3 0 .4 .1v-0.1c0-0.3 .1-0.5 .3-0.7c.1-0.2 .3-0.3 .5-0.4c.2-0.1 .4-0.2 .6-0.2c.3 0 .5 0 .7 .1c0-0.1 0-0.2 0-0.3c-0.3 0-0.6 0-0.8-0.1c-0.3 0-0.5-0.2-0.7-0.4c-0.2-0.2-0.3-0.4-0.4-0.7c0-0.3 0-0.5 .1-0.8c-0.1 0-0.1 0-0.1-0.1c-0.1 0-0.1-0.1-0.2-0.1c0 0 0-0.1-0.1-0.1c0-0.1 0-0.1-0.1-0.1c-0.5 .1-1.1-0.1-1.5-0.5c-0.3-0.4-0.4-1-0.2-1.5c.2-0.6 .6-0.9 1.2-1c.6 0 1.1 .2 1.4 .7c.1-0.1 .3-0.1 .4-0.1c.1 0 .2 .1 .4 .1c.1 0 .2 .1 .3 .1c.1 .1 .2 .2 .3 .3c.2-0.4 .5-0.8 .9-0.9c.4-0.2 .9-0.2 1.3 0c.4 .2 .6 .6 .7 1c.1 .5 0 .9-0.3 1.3c.2-0.1 .3-0.1 .5-0.1c0 0 0-0.1 0-0.2c0-0.4 .3-0.8 .6-1c0-0.1 0-0.2 .1-0.4Zm2.3 15.4c.1-0.1 .3-0.2 .4-0.3c0-0.2 0-0.4 0-0.6c0-0.2 .1-0.4 .2-0.6c.1-0.2 .3-0.4 .5-0.5c.1-0.1 .4-0.2 .6-0.2c0-0.2 0-0.3 .1-0.4c-0.2 0-0.4-0.1-0.5-0.1c-0.2-0.1-0.3-0.2-0.4-0.4c-0.1-0.1-0.2-0.2-0.3-0.4c-0.1-0.2-0.1-0.3-0.1-0.5c-0.2 0-0.3 .1-0.5 .1c-0.2-0.1-0.3-0.1-0.5-0.1c0 .2 0 .3-0.1 .5c-0.1 .2-0.2 .3-0.3 .4c-0.1 .2-0.2 .3-0.4 .4c-0.1 0-0.3 .1-0.5 .1c.1 .1 .1 .2 .1 .4c.3 0 .5 .1 .6 .2c.2 .1 .4 .3 .5 .5c.1 .2 .2 .4 .2 .6c0 .2 0 .4-0.1 .7c.2 0 .4 .1 .5 .3Zm0-10.6c-0.2 .1-0.4 .1-0.6 .2c-0.2 0-0.4 0-0.5-0.1c-0.2-0.1-0.4-0.2-0.5-0.3c-0.2-0.1-0.3-0.3-0.4-0.4c-0.1 0-0.1 .1-0.2 .2c-0.1 0-0.2 .1-0.3 .1c-0.1 0-0.2 .1-0.3 .1c0 0-0.1 0-0.2 0c.1 .2 .3 .3 .4 .6c.1 .2 .1 .4 .1 .6c0 .3-0.1 .5-0.2 .7c-0.1 .2-0.2 .4-0.4 .5v.1c0 .1 0 .3-0.1 .5c0 .1-0.1 .3-0.2 .5c-0.1 .1-0.2 .2-0.3 .3c-0.2 .1-0.3 .2-0.5 .3c.2 0 .3 .1 .5 .1c.2 .1 .3 .2 .4 .4c.1 .1 .2 .3 .3 .4c.1 .2 .1 .4 .1 .5c.1 0 .2-0.1 .3-0.1c.1-0.1 .2-0.1 .3-0.1c.1-0.1 .3-0.1 .4-0.1c.1 0 .2 0 .3 .1c0-0.2 .1-0.4 .1-0.5c.1-0.2 .2-0.3 .3-0.5c.1-0.1 .3-0.2 .4-0.3c.2-0.1 .4-0.1 .5-0.1c.1 0 .2 0 .3 0c.1 0 .2 0 .3 0c.7 .1 1.2 .7 1.3 1.4c.1-0.1 .2-0.1 .3-0.1c.1 0 .3 0 .4 .1c.1 0 .2 0 .3 .1c.1 0 .2 .1 .3 .2v-0.2c.1-0.7 .6-1.2 1.3-1.3c-0.2-0.1-0.3-0.2-0.5-0.3c-0.1-0.1-0.2-0.2-0.3-0.3c-0.1-0.2-0.2-0.4-0.2-0.5c-0.1-0.2-0.1-0.4-0.1-0.5v-0.1c-0.2-0.1-0.3-0.3-0.4-0.5c-0.1-0.2-0.2-0.4-0.2-0.7c0-0.2 0-0.4 .1-0.6c.1-0.3 .3-0.4 .4-0.6c-0.4 0-0.7-0.2-1-0.4c-0.1 .1-0.2 .3-0.4 .4c-0.1 .1-0.3 .2-0.5 .3c-0.2 .1-0.4 .1-0.6 .1c-0.1-0.1-0.3-0.1-0.5-0.2Zm17.4-7.7c-0.1 .1-0.3 .1-0.4 .1c-0.6 .1-1.1-0.2-1.5-0.7c-0.3-0.4-0.3-1.1 0-1.6c.3-0.5 .9-0.7 1.4-0.7c.6 .1 1.1 .5 1.3 1c.2-0.1 .4-0.1 .6-0.1c.2 0 .4 0 .6 .1c.2 .1 .3 .2 .5 .3c.1 .2 .2 .4 .3 .5c.3-0.2 .7-0.3 1-0.3c.4 0 .8 .1 1 .4c.3 .3 .5 .6 .5 1c0 .4-0.1 .8-0.4 1c.2 .3 .3 .5 .3 .8c.1 .2 0 .5-0.1 .8c-0.1 .2-0.3 .4-0.5 .6c-0.2 .1-0.5 .2-0.8 .2c0 .2 0 .3-0.1 .5c-0.1 .1-0.1 .3-0.3 .4c-0.1 .1-0.2 .2-0.3 .3c-0.2 0-0.3 .1-0.5 .1c0 .5-0.3 .9-0.8 1.2c-0.1 .5-0.4 .9-0.9 1.2c-0.5 .2-1 .1-1.4-0.2c-0.5-0.3-0.7-0.8-0.7-1.3c.1-0.6 .4-1 .9-1.3c0-0.1 0-0.3 .1-0.4c.1-0.1 .2-0.3 .3-0.4c.1-0.1 .2-0.2 .3-0.3c.2 0 .3-0.1 .5-0.1c0-0.2 0-0.4 .1-0.5c.1-0.1 .2-0.3 .3-0.4c.1-0.1 .2-0.2 .4-0.3c.1-0.1 .3-0.1 .5-0.1h.1c0-0.4 .1-0.6 .4-0.9c-0.1 0-0.1 0-0.1-0.1c0 0-0.1 0-0.1-0.1c0 0 0 0 0 0c0-0.1 0-0.1-0.1-0.2c-0.1 .2-0.4 .3-0.6 .4c-0.2 .1-0.5 .1-0.7 0c-0.3 0-0.5-0.1-0.7-0.3c-0.2-0.2-0.3-0.4-0.4-0.6Zm-34.8 0c.1 .1 .3 .1 .4 .1c.6 .1 1.2-0.2 1.5-0.7c.3-0.4 .3-1.1 0-1.6c-0.3-0.5-0.8-0.7-1.4-0.7c-0.6 .1-1.1 .5-1.3 1c-0.2-0.1-0.4-0.1-0.6-0.1c-0.2 0-0.4 0-0.6 .1c-0.1 .1-0.3 .2-0.5 .3c-0.1 .2-0.2 .4-0.3 .5c-0.3-0.2-0.6-0.3-1-0.3c-0.4 0-0.7 .1-1 .4c-0.3 .3-0.4 .6-0.5 1c0 .4 .1 .8 .4 1c-0.2 .3-0.3 .5-0.3 .8c0 .2 0 .5 .1 .8c.1 .2 .3 .4 .5 .6c.3 .1 .5 .2 .8 .2c0 .2 0 .3 .1 .5c.1 .1 .2 .3 .3 .4c.1 .1 .2 .2 .3 .3c.2 0 .3 .1 .5 .1c0 .5 .4 .9 .8 1.2c.1 .5 .4 .9 .9 1.2c.5 .2 1 .1 1.5-0.2c.4-0.3 .6-0.8 .6-1.3c-0.1-0.6-0.4-1-0.8-1.3c-0.1-0.1-0.1-0.3-0.2-0.4c0-0.1-0.1-0.3-0.2-0.4c-0.1-0.1-0.3-0.2-0.4-0.3c-0.1 0-0.3-0.1-0.5-0.1c0-0.2 0-0.4-0.1-0.5c-0.1-0.2-0.2-0.3-0.3-0.4c-0.1-0.1-0.2-0.2-0.4-0.3c-0.1-0.1-0.3-0.1-0.5-0.1h-0.1c0-0.1 0-0.2 0-0.3c0 0 0-0.1-0.1-0.2c0-0.1 0-0.1-0.1-0.2c0-0.1-0.1-0.1-0.1-0.2c.1-0.1 .1-0.2 .2-0.4c.2 .3 .5 .4 .8 .4c.7 .1 1.4-0.3 1.6-0.9Zm30.9 3.9c.2-0.6 .7-0.9 1.3-0.9c.6 0 1.1 .3 1.4 .8c.2 .6 .1 1.2-0.2 1.6c-0.4 .5-0.9 .7-1.5 .6c-0.1 .2-0.2 .3-0.4 .5c-0.2 .1-0.4 .2-0.6 .3c-0.2 0-0.4 0-0.6 0c-0.2-0.1-0.4-0.2-0.6-0.3c-0.5 .3-1.1 .3-1.6 0c-0.4-0.3-0.7-0.8-0.7-1.3c0-0.6 .4-1.1 .9-1.3c.5-0.3 1-0.2 1.5 .1c.1 0 .2-0.1 .2-0.1c.1 0 .2 0 .3-0.1c.1 0 .2 0 .3 0c.1 0 .2 0 .3 .1Zm-26.9 0c-0.3-0.6-0.8-0.9-1.4-0.9c-0.6 0-1.1 .3-1.3 .8c-0.3 .6-0.2 1.2 .1 1.6c.4 .5 .9 .7 1.5 .6c.1 .2 .2 .3 .4 .5c.2 .1 .4 .2 .6 .3c.2 0 .4 0 .6 0c.3-0.1 .5-0.2 .6-0.3c.5 .3 1.1 .3 1.6 0c.5-0.2 .7-0.8 .7-1.3c0-0.6-0.3-1.1-0.8-1.3c-0.5-0.3-1.1-0.2-1.6 .1c0 0-0.1-0.1-0.2-0.1c-0.1 0-0.2 0-0.3-0.1c-0.1 0-0.2 0-0.3 0c-0.1 0-0.1 0-0.2 .1Zm13.4 .8l-0.1 .1c0 .1 0 .1 0 .2h.1h.1c0 0 0-0.1 0-0.1c0 0 0 0 0 0c0 0 0 0 0-0.1c0 0 0 0 0 0c0 0 0 0 0 0c0 0 0 0-0.1 0c0 0 0 0 0-0.1c0 0 0 0 0 0Zm5.2-11.6c-0.2-0.2-0.4-0.4-0.4-0.7c-0.1-0.3-0.1-0.5 0-0.8c.1-0.3 .2-0.5 .5-0.7c.2-0.2 .4-0.3 .7-0.3c.4-0.1 .9 0 1.2 .3c.1 0 .3 0 .4 0c.2 0 .4 .1 .5 .2c.1 .1 .3 .2 .4 .3c.1 .1 .2 .3 .2 .4l.3 .2c0-0.1 .1-0.2 .2-0.2c.1-0.1 .2-0.1 .3-0.1c.1-0.1 .2-0.1 .3-0.1c.1 0 .2 0 .3 0c.2-0.2 .3-0.4 .6-0.5c.2-0.2 .4-0.2 .7-0.2c.2-0.1 .5 0 .7 .1c.2 .1 .4 .3 .6 .5c.5-0.2 1.1 0 1.5 .4c.4 .4 .5 1 .3 1.6c-0.1 .5-0.6 .9-1.2 .9c-0.6 .1-1.1-0.1-1.4-0.6c-0.1 0-0.1 0-0.2 0c0 0-0.1 0-0.1 0c-0.1 0-0.1 0-0.2 0c0 0-0.1 0-0.1 0c-0.1 .2-0.3 .4-0.5 .5c-0.1 .1-0.3 .2-0.5 .2c-0.2 .1-0.4 .1-0.7 0c-0.2 0-0.4-0.1-0.5-0.2c-0.1 .1-0.3 .2-0.4 .3c-0.2 0-0.3 .1-0.5 .1c-0.2 0-0.3 0-0.5-0.1c-0.2 0-0.3-0.1-0.4-0.2c0 .2-0.1 .5-0.1 .7c-0.1 .2-0.3 .4-0.4 .5c-0.2 .2-0.4 .3-0.6 .4c-0.2 0-0.4 0-0.6 0c.1 .2 .1 .5 .1 .7c0 .2 0 .5-0.1 .7c-0.1 .2-0.3 .4-0.5 .5c-0.2 .2-0.4 .2-0.6 .3c-0.3 0-0.6 0-0.9-0.1c-0.3 .4-0.7 .6-1.2 .6c-0.5 .1-1-0.2-1.3-0.6c-0.2-0.4-0.3-0.9-0.2-1.3c.2-0.5 .5-0.9 1-1c-0.1-0.2-0.1-0.4-0.1-0.7c.1-0.2 .1-0.4 .3-0.6c.1-0.2 .2-0.3 .4-0.5c.2-0.1 .4-0.2 .6-0.2c.5 0 .9 .1 1.2 .4c.1-0.5 .5-0.9 .9-1Zm-10.4 0c.2-0.2 .4-0.6 .4-1c0-0.3-0.1-0.7-0.4-1c-0.2-0.3-0.5-0.5-0.9-0.5c-0.4 0-0.8 .1-1.1 .3c-0.1 0-0.3 0-0.5 0c-0.1 0-0.3 .1-0.4 .2c-0.2 .1-0.3 .2-0.4 .3c-0.1 .1-0.2 .3-0.2 .4l-0.3 .2c-0.1-0.1-0.1-0.2-0.2-0.2c-0.1-0.1-0.2-0.1-0.3-0.1c-0.1-0.1-0.2-0.1-0.3-0.1c-0.1 0-0.3 0-0.4 0c-0.1-0.2-0.3-0.4-0.5-0.5c-0.2-0.2-0.5-0.2-0.7-0.2c-0.3-0.1-0.5 0-0.7 .1c-0.3 .1-0.5 .3-0.6 .5c-0.5-0.2-1.1 0-1.5 .4c-0.4 .4-0.6 1-0.4 1.6c.2 .5 .7 .9 1.3 .9c.5 .1 1.1-0.1 1.4-0.6c.1 0 .1 0 .2 0c0 0 .1 0 .1 0c.1 0 .1 0 .2 0c0 0 .1 0 .1 0c.1 .2 .3 .4 .4 .5c.2 .1 .4 .2 .6 .2c.2 .1 .4 .1 .6 0c.2 0 .4-0.1 .6-0.2c.1 .1 .3 .2 .4 .3c.2 0 .3 .1 .5 .1c.2 0 .3 0 .5-0.1c.1 0 .3-0.1 .4-0.2c0 .2 0 .5 .1 .7c.1 .2 .2 .4 .4 .5c.2 .2 .3 .3 .6 .4c.2 0 .4 0 .6 0c-0.1 .3-0.2 .6-0.1 .9c0 .3 .2 .6 .4 .8c.2 .3 .5 .4 .8 .5c.3 0 .6 0 .9-0.2c.1 .3 .4 .5 .7 .6c.2 .1 .6 .1 .9 .1c.2-0.1 .5-0.3 .7-0.5c.2-0.2 .4-0.5 .4-0.8c0-0.2 0-0.3 0-0.5c-0.1-0.2-0.1-0.3-0.2-0.5c-0.1-0.1-0.2-0.3-0.4-0.4c-0.1-0.1-0.3-0.2-0.4-0.2l.1-0.3c0-0.3-0.1-0.6-0.2-0.9c-0.1-0.3-0.4-0.5-0.6-0.6c-0.3-0.2-0.6-0.2-0.9-0.2c-0.3 0-0.6 .2-0.8 .4c0-0.1-0.1-0.3-0.1-0.4c-0.1-0.1-0.2-0.2-0.2-0.3c-0.1 0-0.2-0.1-0.3-0.2c-0.1-0.1-0.2-0.1-0.3-0.2Z" fill="#da6537"/><path d="M21.3 16.1c0-0.3 0-0.5 .1-0.8c.2-0.2 .4-0.5 .6-0.6c.2-0.2 .5-0.2 .8-0.2c.3 0 .6 .1 .8 .2c.2-0.1 .5-0.2 .8-0.2c.3 0 .6 0 .8 .2c.2 .1 .4 .4 .6 .6c.1 .3 .1 .5 .1 .8c.1 .1 .1 .3 .1 .4c.1 .1 .2 .2 .3 .2c.1 .1 .1 .2 .2 .3c0 .1 .1 .3 .1 .4c0 .1 .1 .2 0 .3c.2 0 .3 0 .5 .1c-0.3-0.4-0.4-0.8-0.3-1.3c.1-0.4 .4-0.8 .8-1c.3-0.2 .8-0.2 1.2 0c.4 .1 .8 .5 .9 .9c.1-0.1 .2-0.2 .3-0.3c.1 0 .2-0.1 .3-0.1c.2 0 .3-0.1 .4-0.1c.1 0 .3 0 .4 .1c.2-0.3 .4-0.5 .7-0.6c.3-0.1 .6-0.1 .9 0c.3 0 .5 .2 .8 .4c.2 .2 .3 .5 .3 .8c.1 .3 0 .5-0.1 .7c0 .2-0.2 .5-0.4 .6c-0.1 .2-0.3 .3-0.6 .4c-0.2 0-0.5 0-0.7 0c0 0-0.1 0-0.1 .1c0 0-0.1 .1-0.1 .1c0 0-0.1 .1-0.1 .1c-0.1 .1-0.1 .1-0.2 .1c.1 .3 .1 .5 .1 .8c-0.1 .3-0.2 .5-0.4 .7c-0.2 .2-0.4 .4-0.6 .4c-0.3 .1-0.6 .1-0.8 .1c0 .1-0.1 .2-0.1 .3c.2-0.1 .5-0.1 .7-0.1c.3 0 .5 .1 .7 .2c.2 .1 .4 .3 .5 .5c.1 .2 .2 .4 .2 .7l.2-0.1c.5 0 .9 .1 1.2 .4c.1-0.1 .2-0.2 .4-0.2c.1 0 .3 0 .4 0c.2 0 .3 0 .5 .1c.1 .1 .3 .1 .4 .2c0-0.2 0-0.4 .1-0.6c0-0.1 .1-0.3 .3-0.5c.1-0.1 .3-0.2 .5-0.3c.1-0.1 .3-0.1 .6-0.1c.1-0.6 .5-1.1 1.1-1.2c.5-0.1 1.1 .1 1.5 .5c.3 .5 .4 1.1 .2 1.6c-0.3 .5-0.8 .9-1.4 .9c0 .2-0.1 .5-0.3 .7c-0.2 .1-0.4 .3-0.7 .4c-0.2 .1-0.5 .1-0.7 0c-0.3 0-0.5-0.2-0.7-0.3c0 .2 0 .3-0.1 .5c0 .2-0.1 .3-0.2 .5c-0.2 .1-0.3 .3-0.5 .3c-0.1 .1-0.3 .2-0.5 .2c0 .1 0 .1 0 .2c0 0 0 .1 0 .2c0 0-0.1 .1-0.1 .1c0 0 0 .1 0 .1c.6 .2 1 .8 1 1.4c0 .7-0.4 1.2-1 1.5c-0.5 .2-1.2 0-1.6-0.4c-0.5-0.5-0.5-1.2-0.2-1.8c-0.2 0-0.4-0.1-0.5-0.2c-0.2-0.2-0.3-0.3-0.4-0.5c-0.1-0.1-0.1-0.3-0.1-0.5c-0.1-0.2 0-0.4 0-0.6c-0.1 0-0.1-0.1-0.2-0.2c0 0-0.1-0.1-0.1-0.2c0-0.1-0.1-0.1-0.1-0.2c0-0.1 0-0.2-0.1-0.3v-0.1l-0.2 .1c-0.1 0-0.1 0-0.2 0c-0.1 0-0.1 0-0.2 0c-0.1-0.1-0.2-0.1-0.2-0.1c-0.1 0-0.2 0-0.2-0.1c0 .1 0 .1-0.1 .2h.2c.3 0 .6 .1 .8 .3c.2 .2 .4 .5 .4 .8c.1 .2 .1 .5 0 .8c-0.1 .3-0.2 .5-0.4 .7c.1 .2 .3 .4 .4 .6c.1 .2 .1 .4 .1 .7c0 .2-0.1 .5-0.2 .7c-0.1 .2-0.3 .3-0.5 .5v.2c.4-0.4 1-0.6 1.6-0.4c.5 .2 .9 .6 1 1.2c.1 .6-0.2 1.2-0.7 1.5c-0.5 .3-1.1 .3-1.6 0c-0.1 .1-0.2 .3-0.3 .4c-0.1 .1-0.3 .2-0.4 .2c-0.2 .1-0.3 .1-0.5 .1c-0.2 0-0.4 0-0.5 0c0 0-0.1 0-0.1 0c0 0-0.1 0-0.1 .1c0 0-0.1 0-0.1 0c0 0-0.1 0-0.1 0c0 .2-0.1 .3-0.1 .4c0 .1 0 .1-0.1 .2c0 .1 0 .3-0.1 .4c-0.1 .1-0.1 .3-0.3 .4c-0.1 .1-0.2 .2-0.3 .3c-0.1 0-0.3 .1-0.4 .1c.1 .1 .3 .2 .4 .3c.1 .2 .2 .3 .3 .5c.1 .2 .1 .4 .1 .5c0 .2 0 .4-0.1 .6v.1c.1 .3 0 .7-0.3 1c-0.2 .3-0.6 .5-0.9 .5c-0.4 .1-0.8 0-1.1-0.2c-0.3-0.2-0.5-0.5-0.6-0.9c-0.1 .1-0.2 .2-0.3 .3c-0.1 .1-0.2 .1-0.4 .2c-0.1 0-0.2 0-0.4 .1c-0.1 0-0.3 0-0.4-0.1c-0.1 .1-0.3 .1-0.4 .1c-0.1-0.1-0.3-0.1-0.4-0.1c-0.1-0.1-0.3-0.1-0.4-0.2c-0.1-0.1-0.2-0.2-0.3-0.3c0 .4-0.2 .8-0.5 1c-0.4 .3-0.8 .4-1.2 .3c-0.4 0-0.8-0.3-1-0.6c-0.2-0.4-0.3-0.8-0.2-1.2c-0.1-0.2-0.1-0.4-0.1-0.6c0-0.1 0-0.3 .1-0.5c.1-0.2 .2-0.3 .3-0.5c.1-0.1 .3-0.2 .5-0.3c-0.2 0-0.4-0.1-0.5-0.2c-0.1 0-0.3-0.2-0.4-0.3c-0.1-0.1-0.2-0.3-0.2-0.4c-0.1-0.2-0.1-0.3-0.1-0.5c0 0-0.1 0-0.1-0.1c0 0 0 0 0-0.1c0 0-0.1 0-0.1-0.1c0 0 0 0 0 0c0-0.1-0.1-0.1-0.1-0.1c0 0-0.1 0-0.1 0c0-0.1-0.1-0.1-0.1-0.1c0 0 0 0-0.1 0c-0.1 0-0.3 0-0.5 0c-0.1 0-0.3 0-0.5-0.1c-0.1 0-0.3-0.1-0.4-0.2c-0.1-0.1-0.2-0.3-0.3-0.4c-0.3 .2-0.6 .3-1 .2c-0.5-0.1-0.9-0.3-1.2-0.8c-0.2-0.4-0.2-0.9 0-1.4c.3-0.4 .7-0.7 1.2-0.8c.5 0 .9 .1 1.3 .5v-0.2c-0.2-0.2-0.4-0.3-0.5-0.5c-0.1-0.2-0.2-0.5-0.2-0.7c0-0.3 0-0.5 .1-0.7c.1-0.2 .3-0.4 .5-0.6c-0.3-0.2-0.4-0.4-0.5-0.7c-0.1-0.3-0.1-0.6 0-0.9c.1-0.3 .3-0.6 .5-0.7c.3-0.2 .6-0.3 .9-0.3c0 0 0-0.1 0-0.1c0 0 0 0 0 0c-0.1 0-0.1 0-0.1 0c0 0 0-0.1 0-0.1c-0.1 .1-0.1 .1-0.2 .1c-0.1 0-0.2 .1-0.3 .1c-0.1 0-0.2 0-0.2 0c-0.1 0-0.2-0.1-0.3-0.1v.1c-0.1 .4-0.2 .7-0.5 .9c.1 .2 .1 .4 .1 .6c-0.1 .2-0.1 .4-0.2 .5c-0.1 .2-0.2 .3-0.4 .5c-0.1 .1-0.3 .2-0.5 .2c.2 .3 .2 .5 .2 .8c0 .3-0.1 .6-0.2 .8c-0.2 .2-0.4 .4-0.7 .5c-0.2 .1-0.5 .2-0.8 .2c-0.3-0.1-0.6-0.3-0.9-0.5c-0.2-0.3-0.3-0.6-0.4-0.9c0-0.3 .1-0.7 .3-1c.2-0.2 .4-0.5 .8-0.6c-0.1 0-0.1-0.1-0.1-0.1c0 0 0-0.1-0.1-0.1c0-0.1 0-0.2 0-0.2c0-0.1 0-0.1 0-0.2c-0.2 0-0.4-0.1-0.5-0.1c-0.2-0.1-0.3-0.3-0.4-0.4c-0.2-0.2-0.2-0.3-0.3-0.5c0-0.2-0.1-0.3-0.1-0.5c-0.2 .1-0.4 .3-0.6 .3c-0.3 .1-0.6 0-0.8 0c-0.3-0.1-0.5-0.3-0.7-0.5c-0.1-0.1-0.3-0.4-0.3-0.6c-0.1 0-0.1 0-0.2 0c-0.5-0.1-1-0.5-1.2-1c-0.2-0.6-0.1-1.1 .3-1.6c.4-0.4 1-0.5 1.5-0.4c.5 .2 1 .6 1.1 1.2h.2c.7 .1 1.3 .8 1.3 1.6c.1-0.2 .2-0.2 .3-0.3c.2-0.1 .3-0.1 .5-0.1c.1 0 .3 0 .4 0c.2 0 .3 .1 .5 .2c0-0.1 .1-0.2 .3-0.2c.1-0.1 .2-0.1 .3-0.1c.1-0.1 .2-0.1 .3-0.1c.2 0 .3 0 .4 .1v-0.1c0-0.3 .1-0.5 .3-0.7c.1-0.2 .3-0.3 .5-0.4c.2-0.1 .4-0.2 .6-0.2c.3 0 .5 0 .7 .1c0-0.1 0-0.2 0-0.3c-0.3 0-0.6 0-0.8-0.1c-0.3 0-0.5-0.2-0.7-0.4c-0.2-0.2-0.3-0.4-0.4-0.7c0-0.3 0-0.5 .1-0.8c-0.1 0-0.1 0-0.1-0.1c-0.1 0-0.1-0.1-0.2-0.1c0 0 0-0.1-0.1-0.1c0-0.1 0-0.1-0.1-0.1c-0.5 .1-1.1-0.1-1.5-0.5c-0.3-0.4-0.4-1-0.2-1.5c.2-0.6 .6-0.9 1.2-1c.6 0 1.1 .2 1.4 .7c.1-0.1 .3-0.1 .4-0.1c.1 0 .2 .1 .4 .1c.1 0 .2 .1 .3 .1c.1 .1 .2 .2 .3 .3c.2-0.4 .5-0.8 .9-0.9c.4-0.2 .9-0.2 1.3 0c.4 .2 .6 .6 .7 1c.1 .5 0 .9-0.3 1.3c.2-0.1 .3-0.1 .5-0.1c0 0 0-0.1 0-0.2c0-0.4 .3-0.8 .6-1c0-0.1 0-0.2 .1-0.4Zm.3 .1v-0.1c0-0.2 0-0.5 .1-0.7c.1-0.2 .3-0.3 .5-0.4c.1-0.2 .4-0.2 .6-0.2c.2 0 .4 0 .6 .2l.2 .1l.2-0.1c.1-0.1 .3-0.2 .5-0.2c.1 0 .3 0 .5 0c.2 .1 .3 .2 .5 .3c.1 .1 .2 .3 .2 .5c.1 .1 .1 .3 .1 .5v.1v.1c.1 .1 .1 .2 .1 .3l.1 .1h.1c0 .1 .1 .2 .2 .2c0 .1 .1 .2 .1 .3c.1 .1 .1 .1 .1 .2c0 .1 .1 .2 .1 .3v.3h.3c.1 0 .2 0 .3 .1l.3-0.5c-0.2-0.3-0.3-0.7-0.2-1c0-0.4 .3-0.7 .6-0.8c.3-0.2 .7-0.2 1-0.1c.3 .1 .6 .4 .7 .8l.1 .4l.4-0.3c.1-0.1 .1-0.1 .2-0.2c.1-0.1 .2-0.1 .3-0.1c.1 0 .2-0.1 .3-0.1c.1 0 .2 0 .3 .1h.2l.1-0.2c.3-0.3 .7-0.5 1.2-0.5c.4 .1 .8 .4 1 .8c.1 .4 .1 .9-0.2 1.2c-0.3 .3-0.8 .5-1.2 .4l-0.2-0.1l-0.2 .2c-0.1 .1-0.2 .3-0.3 .4l-0.2 .1v.2c.1 .2 .1 .4 .1 .6c-0.1 .3-0.2 .5-0.3 .6c-0.2 .2-0.3 .3-0.5 .4c-0.3 0-0.5 0-0.7 0l-0.4-0.1v.4c0 .1 0 .2 0 .2l.4 .4c.1-0.1 .2-0.1 .3-0.1c.2 0 .4 0 .5 0c.2 0 .3 .1 .4 .2c.2 .1 .3 .2 .3 .4c.1 .1 .2 .3 .2 .4v.5l.4-0.1l.1-0.1c.4 0 .7 .1 1 .3l.1 .1l.2-0.1c.1 0 .2-0.1 .3-0.1c.2 0 .3 0 .4 0c.1 0 .2 0 .4 .1c.1 0 .2 .1 .3 .2l.5-0.3c0-0.1 0-0.3 0-0.5c.1-0.1 .2-0.2 .3-0.4c.1-0.1 .2-0.2 .4-0.2c.1-0.1 .3-0.1 .4-0.1h.3v-0.3c.1-0.4 .5-0.8 .9-0.9c.5-0.1 .9 .1 1.2 .4c.3 .4 .4 .9 .2 1.3c-0.2 .4-0.6 .7-1.1 .7h-0.2l-0.1 .2c0 .2-0.1 .4-0.3 .5c-0.1 .2-0.3 .3-0.5 .4c-0.2 0-0.4 .1-0.6 0c-0.2 0-0.4-0.1-0.5-0.3l-0.5 .3c0 .1 0 .3-0.1 .4c0 .2-0.1 .3-0.2 .4c-0.1 .1-0.2 .2-0.3 .3c-0.1 .1-0.3 .1-0.4 .2h-0.3v.2c0 .1 0 .1 0 .1c0 .1 0 .1 0 .2c0 0 0 0-0.1 .1c0 0 0 .1 0 .1l-0.2 .3l.3 .1c.5 .2 .9 .6 .9 1.1c0 .5-0.3 1-0.8 1.2c-0.4 .2-1 0-1.3-0.3c-0.3-0.4-0.4-1-0.2-1.4l.2-0.3l-0.3-0.1c-0.2-0.1-0.3-0.2-0.4-0.3c-0.1-0.1-0.2-0.2-0.3-0.3c-0.1-0.2-0.1-0.3-0.2-0.5c0-0.1 0-0.3 .1-0.4v-0.2l-0.1-0.1c-0.1 0-0.1-0.1-0.1-0.2c-0.1 0-0.1-0.1-0.2-0.1c0-0.1 0-0.2 0-0.2c0-0.1-0.1-0.2-0.1-0.2v-0.5l-0.4 .1l-0.1 .1c-0.3 0-0.5 0-0.7-0.1l-0.3-0.2l-0.1 .4l-0.1 .1l-0.1 .4h.4h.2c.2 0 .4 .1 .6 .3c.2 .1 .3 .3 .3 .5c.1 .3 .1 .5 0 .7c0 .3-0.2 .5-0.3 .6l-0.3 .2l.3 .3c.1 .1 .2 .2 .3 .4c.1 .2 .1 .4 .1 .6c0 .2-0.1 .3-0.2 .5c-0.1 .2-0.2 .3-0.4 .4l-0.1 .1v.3v.1l.5 .2c.4-0.3 .8-0.5 1.3-0.3c.4 .1 .7 .5 .8 1c.1 .4-0.1 .9-0.5 1.1c-0.4 .3-0.9 .3-1.3 0l-0.3-0.1l-0.1 .2c-0.1 .2-0.2 .3-0.3 .3c-0.1 .1-0.2 .2-0.3 .2c-0.2 .1-0.3 .1-0.4 .1c-0.2 0-0.3 0-0.4 0l-0.2-0.1l-0.1 .1c-0.1 .1-0.2 .1-0.3 .2h-0.1l-0.1 .2c0 .1-0.1 .2-0.1 .2l-0.1 .1v.2c0 .5-0.4 .9-0.9 1l-0.1 .6c.2 .1 .3 .1 .4 .2c.1 .2 .2 .3 .2 .4c.1 .2 .1 .3 .1 .5c0 .1 0 .3-0.1 .4v.1v.1c.1 .3 0 .6-0.2 .8c-0.2 .3-0.5 .4-0.8 .5c-0.3 0-0.6 0-0.9-0.2c-0.2-0.2-0.4-0.5-0.4-0.8l-0.6-0.1c0 .1-0.1 .2-0.2 .2c-0.1 .1-0.2 .1-0.3 .2c-0.1 0-0.2 0-0.3 .1c-0.1 0-0.2 0-0.3-0.1h-0.1h-0.1c-0.1 .1-0.2 .1-0.3 .1c-0.1-0.1-0.2-0.1-0.3-0.1c-0.1-0.1-0.2-0.1-0.3-0.2c-0.1 0-0.2-0.1-0.2-0.2l-0.6 .1c0 .3-0.2 .6-0.5 .7c-0.2 .2-0.5 .3-0.8 .2c-0.3 0-0.6-0.2-0.8-0.4c-0.1-0.2-0.2-0.5-0.2-0.8v-0.1v-0.1c-0.1-0.1-0.1-0.3-0.1-0.4c0-0.2 0-0.3 .1-0.5c0-0.1 .1-0.2 .2-0.3c.1-0.2 .2-0.2 .4-0.3l-0.1-0.6c-0.1 0-0.2 0-0.3-0.1c-0.1-0.1-0.2-0.1-0.3-0.2c-0.1-0.1-0.2-0.2-0.2-0.3c-0.1-0.1-0.1-0.3-0.1-0.4v-0.2l-0.1-0.1c0-0.1-0.1-0.1-0.1-0.2l-0.1-0.2h-0.1c-0.1-0.1-0.2-0.1-0.3-0.2l-0.1-0.1l-0.2 .1c-0.1 0-0.2 0-0.4 0c-0.1 0-0.2 0-0.4-0.1c-0.1 0-0.2-0.1-0.3-0.2c-0.1 0-0.2-0.1-0.3-0.3l-0.1-0.2l-0.3 .1c-0.2 .2-0.4 .2-0.6 .2c-0.2 0-0.5-0.1-0.7-0.2c-0.1-0.1-0.3-0.3-0.4-0.5c-0.1-0.2-0.1-0.4-0.1-0.6c0-0.3 .1-0.5 .3-0.6c.1-0.2 .3-0.3 .5-0.4c.2-0.1 .5-0.1 .7 0c.2 0 .4 .1 .6 .3l.5-0.2v-0.2v-0.2l-0.1-0.1c-0.2-0.1-0.3-0.2-0.4-0.4c-0.1-0.2-0.2-0.3-0.2-0.5c0-0.2 0-0.4 .1-0.6c.1-0.2 .2-0.3 .3-0.4l.3-0.3l-0.3-0.2c-0.1-0.2-0.3-0.4-0.3-0.6c-0.1-0.2-0.1-0.5 0-0.7c.1-0.2 .2-0.4 .4-0.6c.2-0.1 .4-0.2 .7-0.2h.4l-0.1-0.4c-0.1 0-0.1-0.1-0.1-0.1c0 0 0 0 0 0c0 0 0 0 0 0c0 0 0 0 0 0l-0.1-0.4l-0.3 .2c-0.1 0-0.1 0-0.2 0c-0.1 0-0.1 .1-0.2 .1c-0.1 0-0.2 0-0.2 0c-0.1 0-0.2-0.1-0.2-0.1l-0.4-0.1v.5c0 0-0.1 .1-0.1 .2c0 0 0 .1-0.1 .2c0 0 0 .1-0.1 .1c0 .1 0 .2-0.1 .2l-0.1 .1v.2c.1 .1 .1 .3 .1 .4c-0.1 .2-0.1 .3-0.2 .5c-0.1 .1-0.2 .2-0.3 .3c-0.1 .1-0.2 .2-0.4 .2l-0.3 .1l.2 .4c.2 .4 .2 1-0.2 1.4c-0.3 .3-0.8 .5-1.3 .3c-0.5-0.2-0.8-0.7-0.8-1.2c0-0.5 .4-0.9 .9-1.1l.3-0.1l-0.2-0.3c-0.1-0.2-0.1-0.3-0.1-0.5v-0.2l-0.3-0.1c-0.1 0-0.3 0-0.4-0.1c-0.1-0.1-0.2-0.2-0.3-0.3c-0.1-0.1-0.2-0.2-0.2-0.4c-0.1-0.1-0.1-0.3-0.1-0.4l-0.5-0.3c-0.2 .3-0.6 .4-0.9 .3c-0.1 0-0.3 0-0.4-0.1c-0.1 0-0.2-0.1-0.3-0.2c-0.1-0.1-0.1-0.2-0.2-0.3c-0.1-0.1-0.1-0.2-0.1-0.3l-0.1-0.2h-0.2h-0.2c-0.4-0.1-0.8-0.4-0.9-0.8c-0.2-0.4-0.1-0.9 .2-1.2c.3-0.4 .8-0.5 1.2-0.4c.4 .1 .8 .5 .9 .9v.2h.3l.1 .1c.1 0 .3 0 .4 .1c.2 .1 .3 .2 .4 .3c.1 .1 .1 .2 .2 .4c0 .1 0 .3 0 .4l.5 .3c.1-0.1 .2-0.2 .3-0.2c.2-0.1 .3-0.1 .4-0.1c.1 0 .2 0 .4 0c.1 0 .2 .1 .3 .1l.2 .1l.1-0.1c.1-0.1 .2-0.1 .3-0.2c.1 0 .2 0 .2 0c.1-0.1 .2-0.1 .3-0.1c.1 0 .2 0 .3 .1l.4 .1v-0.5c0-0.2 .1-0.3 .2-0.5c.1-0.2 .2-0.3 .4-0.4c.2-0.1 .3-0.1 .5-0.1c.2 0 .4 0 .6 .1l.4-0.4c0 0 0 0 0 0c0-0.1 0-0.1 0-0.1c0 0 0 0 0-0.1c0 0 0 0 0 0v-0.4l-0.4 .1c-0.2 0-0.4 0-0.7 0c-0.2-0.1-0.3-0.2-0.5-0.4c-0.1-0.1-0.2-0.3-0.3-0.5c0-0.3 0-0.5 .1-0.7v-0.2l-0.2-0.1c-0.1-0.1-0.2-0.3-0.3-0.4l-0.2-0.2l-0.2 .1c-0.1 0-0.3 0-0.4 0c-0.4-0.1-0.8-0.3-0.9-0.7c-0.2-0.4-0.2-0.8 0-1.1c.2-0.4 .6-0.6 1-0.6c.4 0 .8 .2 1.1 .5l.1 .2h.2c.1 0 .2-0.1 .3-0.1c.1 0 .2 .1 .3 .1c.1 0 .2 0 .3 .1c.1 .1 .1 .1 .2 .2l.4 .3l.1-0.4c.1-0.4 .4-0.6 .7-0.8c.3-0.1 .7-0.1 1 .1c.3 .1 .6 .4 .6 .8c.1 .3 0 .7-0.2 1l.3 .5c.1-0.1 .2-0.1 .3-0.1h.3v-0.3c0 0 0-0.1 .1-0.1c0-0.4 .2-0.7 .4-0.9h.1l.1-0.1c0-0.1 0-0.2 .1-0.3v-0.1Zm2 15.8l.2-0.2c.1-0.1 .2-0.2 .4-0.3l.2-0.1l-0.1-0.2c0-0.2 0-0.4 0-0.6c0-0.1 0-0.3 .1-0.5c.1-0.1 .3-0.2 .4-0.3c.2-0.1 .3-0.2 .5-0.2l.2-0.1l.1-0.2l.1-0.3l.1-0.3l-0.4-0.1c-0.1 0-0.3-0.1-0.4-0.1c-0.1-0.1-0.2-0.2-0.3-0.3c-0.1-0.1-0.2-0.2-0.2-0.3c-0.1-0.1-0.1-0.3-0.1-0.4v-0.4l-0.4 .1c0 0-0.1 0-0.1 0c0 0-0.1 0-0.1 0c0 0-0.1 0-0.1 0c0 .1-0.1 .1-0.1 .1c-0.1 0-0.1 0-0.1-0.1c0 0-0.1 0-0.1 0c0 0-0.1 0-0.1 0c0 0-0.1 0-0.1 0l-0.4-0.1v.4c0 .1 0 .3-0.1 .4c0 .1-0.1 .2-0.2 .3c-0.1 .1-0.2 .2-0.3 .3c-0.1 0-0.3 .1-0.4 .1l-0.4 .1l.2 .3c0 .1 0 .2 0 .3l.1 .2l.2 .1c.2 0 .3 .1 .5 .2c.1 .1 .3 .2 .3 .3c.1 .2 .2 .4 .2 .5c0 .2 0 .4 0 .6l-0.1 .2l.2 .1c.2 .1 .3 .2 .4 .3l.2 .2Zm0-0.5c.1-0.1 .3-0.2 .4-0.3c0-0.2 0-0.4 0-0.6c0-0.2 .1-0.4 .2-0.6c.1-0.2 .3-0.4 .5-0.5c.1-0.1 .4-0.2 .6-0.2c0-0.2 0-0.3 .1-0.4c-0.2 0-0.4-0.1-0.5-0.1c-0.2-0.1-0.3-0.2-0.4-0.4c-0.1-0.1-0.2-0.2-0.3-0.4c-0.1-0.2-0.1-0.3-0.1-0.5c-0.2 0-0.3 .1-0.5 .1c-0.2-0.1-0.3-0.1-0.5-0.1c0 .2 0 .3-0.1 .5c-0.1 .2-0.2 .3-0.3 .4c-0.1 .2-0.2 .3-0.4 .4c-0.1 0-0.3 .1-0.5 .1c.1 .1 .1 .2 .1 .4c.3 0 .5 .1 .6 .2c.2 .1 .4 .3 .5 .5c.1 .2 .2 .4 .2 .6c0 .2 0 .4-0.1 .7c.2 0 .4 .1 .5 .3Zm0-10.9h-0.1c-0.2 .1-0.3 .1-0.5 .2c-0.1 0-0.3 0-0.4-0.1c-0.2 0-0.3-0.1-0.4-0.2c-0.2-0.1-0.3-0.2-0.3-0.4l-0.2-0.3l-0.3 .3c-0.1 0-0.1 .1-0.2 .1c0 .1-0.1 .1-0.2 .1c-0.1 0-0.1 .1-0.2 .1c-0.1 0-0.2 0-0.3 0l-0.1 .5c.1 .2 .2 .3 .3 .5c.1 .2 .1 .3 .1 .5c0 .2 0 .4-0.1 .6c-0.1 .1-0.3 .3-0.4 .4l-0.2 .1l.1 .2c0 .1 0 .3-0.1 .4c0 .1 0 .3-0.1 .4c-0.1 .1-0.2 .2-0.3 .3c-0.1 .1-0.2 .1-0.4 .2l.1 .6c.1 0 .2 0 .4 .1c.1 .1 .2 .2 .3 .3c.1 .1 .2 .2 .2 .3c.1 .2 .1 .3 .1 .4l.5 .3c.1-0.1 .1-0.1 .2-0.2c.1 0 .2 0 .3 0c.1-0.1 .2-0.1 .3-0.1c.1 0 .2 .1 .2 .1l.4 .1v-0.4c0-0.1 .1-0.3 .1-0.4c.1-0.1 .1-0.3 .2-0.4c.1-0.1 .2-0.1 .4-0.2c.1-0.1 .2-0.1 .4-0.1h.4c.2 0 .3 0 .4 .1c.2 .1 .3 .1 .4 .2c.1 .1 .1 .3 .2 .4c0 .1 .1 .3 .1 .4v.4l.4-0.1c0 0 .1-0.1 .2-0.1c.1 0 .2 0 .3 .1c.1 0 .2 0 .3 0c.1 .1 .1 .1 .2 .2l.5-0.3v-0.1c.1-0.5 .5-1 1-1l.1-0.6c-0.2-0.1-0.3-0.1-0.4-0.2c-0.1-0.1-0.2-0.2-0.3-0.3c-0.1-0.1-0.1-0.3-0.1-0.4c-0.1-0.1-0.1-0.3-0.1-0.4l.1-0.2l-0.2-0.1c-0.1-0.1-0.3-0.3-0.4-0.4c-0.1-0.2-0.1-0.4-0.1-0.6c0-0.2 0-0.3 .1-0.5c.1-0.2 .2-0.3 .3-0.5l-0.2-0.5c0 0-0.1 0-0.2 0c-0.1 0-0.1-0.1-0.2-0.1c-0.1 0-0.2-0.1-0.2-0.1c-0.1 0-0.1-0.1-0.2-0.2l-0.3-0.2l-0.2 .3c-0.1 .2-0.1 .3-0.3 .4c-0.1 .1-0.2 .2-0.4 .2c-0.1 .1-0.3 .1-0.4 .1c-0.2-0.1-0.3-0.1-0.5-0.2h-0.1Zm0 .3c-0.2 .1-0.4 .1-0.6 .2c-0.2 0-0.4 0-0.5-0.1c-0.2-0.1-0.4-0.2-0.5-0.3c-0.2-0.1-0.3-0.3-0.4-0.4c-0.1 0-0.1 .1-0.2 .2c-0.1 0-0.2 .1-0.3 .1c-0.1 0-0.2 .1-0.3 .1c0 0-0.1 0-0.2 0c.1 .2 .3 .3 .4 .6c.1 .2 .1 .4 .1 .6c0 .3-0.1 .5-0.2 .7c-0.1 .2-0.2 .4-0.4 .5c0 .2 0 .4-0.1 .6c0 .1-0.1 .3-0.2 .5c-0.1 .1-0.2 .2-0.3 .3c-0.2 .1-0.3 .2-0.5 .3c.2 0 .3 .1 .5 .1c.2 .1 .3 .2 .4 .4c.1 .1 .2 .3 .3 .4c.1 .2 .1 .4 .1 .5c.1 0 .2-0.1 .3-0.1c.1-0.1 .2-0.1 .3-0.1c.1-0.1 .3-0.1 .4-0.1c.1 0 .2 0 .3 .1c0-0.2 .1-0.4 .1-0.5c.1-0.2 .2-0.3 .3-0.5c.1-0.1 .3-0.2 .4-0.3c.2-0.1 .4-0.1 .5-0.1c.1-0.1 .2-0.1 .3-0.1c.1 .1 .2 .1 .3 .1c.7 .1 1.2 .7 1.3 1.4c.1-0.1 .2-0.1 .3-0.1c.1 0 .3 0 .4 .1c.1 0 .2 0 .3 .1c.1 0 .2 .1 .3 .1v-0.1c.1-0.7 .6-1.2 1.3-1.3c-0.2-0.1-0.3-0.2-0.5-0.3c-0.1-0.1-0.2-0.2-0.3-0.3c-0.1-0.2-0.2-0.4-0.2-0.5c-0.1-0.2-0.1-0.4-0.1-0.5v-0.1c-0.2-0.1-0.3-0.3-0.4-0.5c-0.1-0.2-0.2-0.4-0.2-0.7c0-0.2 0-0.4 .1-0.6c.1-0.3 .3-0.4 .4-0.6c-0.4 0-0.7-0.2-1-0.4c-0.1 .1-0.2 .3-0.4 .4c-0.1 .1-0.3 .2-0.5 .3c-0.2 .1-0.4 .1-0.6 .1c-0.1-0.1-0.3-0.1-0.5-0.2Zm17.4-7.7c-0.1 0-0.3 .1-0.4 .1c-0.6 .1-1.1-0.2-1.5-0.7c-0.3-0.4-0.3-1.1 0-1.6c.3-0.5 .9-0.7 1.4-0.7c.6 .1 1.1 .5 1.3 1c.2-0.1 .4-0.1 .6-0.1c.2 0 .4 0 .6 .1c.2 .1 .3 .2 .5 .3c.1 .2 .2 .4 .3 .5c.3-0.2 .7-0.3 1-0.3c.4 0 .8 .1 1 .4c.3 .3 .5 .6 .5 1c0 .4-0.1 .8-0.4 1c.2 .3 .3 .5 .3 .8c.1 .2 0 .5-0.1 .8c-0.1 .2-0.3 .4-0.5 .6c-0.2 .1-0.5 .2-0.8 .2c0 .2 0 .3-0.1 .5c-0.1 .1-0.1 .3-0.3 .4c-0.1 .1-0.2 .2-0.3 .3c-0.2 0-0.3 .1-0.5 .1c0 .5-0.3 .9-0.8 1.2c-0.1 .5-0.4 .9-0.9 1.2c-0.5 .2-1 .1-1.4-0.2c-0.5-0.3-0.7-0.8-0.7-1.3c.1-0.6 .4-1 .9-1.3c0-0.1 0-0.3 .1-0.4c.1-0.1 .2-0.3 .3-0.4c.1-0.1 .2-0.2 .3-0.3c.2 0 .3-0.1 .5-0.1c0-0.2 0-0.4 .1-0.5c.1-0.1 .2-0.3 .3-0.4c.1-0.1 .2-0.2 .4-0.3c.1-0.1 .3-0.1 .5-0.1l.1-0.1c0-0.3 .1-0.6 .4-0.8c-0.1 0-0.1 0-0.1-0.1c0 0-0.1 0-0.1-0.1c0 0 0 0 0 0c0-0.1 0-0.1-0.1-0.2c-0.1 .2-0.4 .3-0.6 .4c-0.2 .1-0.5 .1-0.7 0c-0.3 0-0.5-0.1-0.7-0.3c-0.2-0.2-0.3-0.4-0.4-0.6Zm-34.8 0c.1 0 .3 .1 .4 .1c.6 .1 1.2-0.2 1.5-0.7c.3-0.4 .3-1.1 0-1.6c-0.3-0.5-0.8-0.7-1.4-0.7c-0.6 .1-1.1 .5-1.3 1c-0.2-0.1-0.4-0.1-0.6-0.1c-0.2 0-0.4 0-0.6 .1c-0.1 .1-0.3 .2-0.5 .3c-0.1 .2-0.2 .4-0.3 .5c-0.3-0.2-0.6-0.3-1-0.3c-0.4 0-0.7 .1-1 .4c-0.3 .3-0.4 .6-0.5 1c0 .4 .1 .8 .4 1c-0.2 .3-0.3 .5-0.3 .8c0 .2 0 .5 .1 .8c.1 .2 .3 .4 .5 .6c.3 .1 .5 .2 .8 .2c0 .2 0 .3 .1 .5c.1 .1 .2 .3 .3 .4c.1 .1 .2 .2 .3 .3c.2 0 .3 .1 .5 .1c0 .5 .4 .9 .8 1.2c.1 .5 .4 .9 .9 1.2c.5 .2 1 .1 1.5-0.2c.4-0.3 .6-0.8 .6-1.3c-0.1-0.6-0.4-1-0.8-1.3c-0.1-0.1-0.1-0.3-0.2-0.4c0-0.1-0.1-0.3-0.2-0.4c-0.1-0.1-0.3-0.2-0.4-0.3c-0.1 0-0.3-0.1-0.5-0.1c0-0.2 0-0.4-0.1-0.5c-0.1-0.2-0.2-0.3-0.3-0.4c-0.1-0.1-0.2-0.2-0.4-0.3c-0.1-0.1-0.3-0.1-0.5-0.1l-0.1-0.1c0 0 0-0.1 0-0.2c0 0 0-0.1-0.1-0.2c0-0.1 0-0.1-0.1-0.2c0-0.1-0.1-0.1-0.1-0.2c.1-0.1 .1-0.2 .2-0.4c.2 .3 .5 .4 .8 .4c.7 .1 1.4-0.3 1.6-0.9Zm35-0.4l-0.3 .1c-0.5 .2-1 .1-1.3-0.2c-0.4-0.4-0.5-0.9-0.3-1.3c.2-0.5 .6-0.8 1.1-0.8c.5 0 .9 .3 1.1 .8l.1 .3l.3-0.1c.2-0.1 .3-0.1 .5-0.1c.2 0 .3 0 .5 .1c.1 0 .3 .1 .4 .2c.1 .2 .2 .3 .2 .4l.2 .5l.3-0.3c.2-0.2 .4-0.3 .7-0.4c.2 0 .5 0 .7 .2c.2 .1 .4 .3 .5 .5c.1 .2 .1 .4 .1 .7c0 .2-0.1 .4-0.3 .6l-0.2 .2l.2 .2c.1 .2 .2 .4 .2 .6c0 .2 0 .4-0.1 .6c0 .2-0.2 .4-0.3 .5c-0.2 .1-0.4 .2-0.6 .2l-0.3 .1l-0.1 .2c0 .5-0.4 .9-0.9 1l-0.2 .1l-0.1 .2c0 .4-0.3 .7-0.6 .9l-0.2 .1v.1c0 .3-0.2 .6-0.4 .8c-0.2 .1-0.5 .2-0.8 .2c-0.3 0-0.5-0.1-0.7-0.2c-0.3-0.2-0.4-0.5-0.5-0.8c0-0.5 .2-1 .7-1.2l.1-0.1l.1-0.1c0-0.5 .4-0.9 .9-1l.2-0.1l.1-0.2c0-0.1 0-0.3 .1-0.4c0-0.1 .1-0.2 .2-0.3c.1-0.1 .2-0.2 .3-0.2c.1-0.1 .3-0.1 .4-0.1l.3-0.1l.1-0.2c0-0.3 .1-0.5 .3-0.7l.1-0.1l-0.1-0.2c0-0.1 0-0.1-0.1-0.1c0 0 0-0.1 0-0.1c0 0 0 0 0-0.1c-0.1 0-0.1 0-0.1-0.1l-0.1-0.4l-0.4 .3c-0.1 .2-0.3 .3-0.5 .3c-0.2 .1-0.4 .1-0.6 0c-0.2 0-0.3-0.1-0.5-0.2c-0.1-0.2-0.3-0.3-0.3-0.5l-0.1-0.3Zm-35.2 0l-0.1 .3c0 .2-0.2 .3-0.3 .5c-0.2 .1-0.3 .2-0.5 .2c-0.2 .1-0.4 .1-0.6 0c-0.2 0-0.4-0.1-0.5-0.3l-0.3-0.3l-0.2 .4c0 .1-0.1 .2-0.2 .3l-0.1 .2l.1 .2c.2 .2 .3 .4 .4 .7v.2l.3 .1c.6 0 1 .5 1 1l.1 .2l.2 .1c.5 .1 .9 .5 1 1v.1l.1 .1c.4 .2 .7 .6 .7 1c0 .4-0.2 .8-0.5 1.1c-0.4 .2-0.8 .2-1.2 .1c-0.4-0.2-0.6-0.6-0.7-1v-0.1l-0.2-0.1c0 0-0.1-0.1-0.2-0.2c-0.1 0-0.1-0.1-0.2-0.2c-0.1-0.1-0.1-0.1-0.1-0.2c-0.1-0.1-0.1-0.2-0.1-0.3v-0.2l-0.3-0.1c-0.1 0-0.2 0-0.3-0.1c-0.1-0.1-0.2-0.1-0.3-0.2c-0.1-0.1-0.2-0.2-0.2-0.3c-0.1-0.2-0.1-0.3-0.1-0.4l-0.1-0.2l-0.3-0.1c-0.2 0-0.4-0.1-0.6-0.2c-0.1-0.1-0.3-0.3-0.3-0.5c-0.1-0.2-0.1-0.4-0.1-0.6c0-0.2 .1-0.4 .2-0.6l.2-0.2l-0.2-0.2c-0.2-0.2-0.3-0.5-0.3-0.8c.1-0.3 .2-0.6 .4-0.8c.2-0.2 .5-0.3 .8-0.3c.3 0 .6 .1 .8 .2l.3 .4l.2-0.5c.1-0.1 .1-0.2 .3-0.4c.1-0.1 .2-0.2 .4-0.2c.1-0.1 .3-0.1 .4-0.1c.2 0 .4 0 .5 .1l.3 .1l.1-0.3c.2-0.5 .6-0.8 1.1-0.8c.5 0 .9 .3 1.1 .7c.2 .5 .1 1-0.2 1.4c-0.4 .3-0.9 .4-1.4 .2l-0.3-0.1Zm31 4.2c.3-0.5 .8-0.8 1.4-0.8c.6 0 1.1 .3 1.3 .8c.3 .6 .2 1.2-0.1 1.6c-0.4 .5-0.9 .7-1.5 .6c-0.1 .2-0.2 .3-0.4 .5c-0.2 .1-0.4 .2-0.6 .3c-0.2 0-0.4 0-0.6 0c-0.2-0.1-0.4-0.2-0.6-0.3c-0.5 .3-1.1 .3-1.6 0c-0.4-0.3-0.7-0.8-0.7-1.3c0-0.6 .4-1.1 .9-1.3c.5-0.3 1-0.2 1.5 .1c.1 0 .2-0.1 .2-0.1c.1 0 .2 0 .3-0.1c.1 0 .2 0 .3 0c.1 0 .2 0 .3 0Zm-26.9 0c-0.2-0.5-0.7-0.8-1.3-0.8c-0.6 0-1.1 .3-1.3 .9c-0.3 .5-0.2 1.1 .1 1.5c.4 .5 .9 .7 1.5 .6c.1 .2 .2 .3 .4 .5c.2 .1 .4 .2 .6 .3c.2 0 .4 0 .6 0c.3-0.1 .5-0.2 .6-0.3c.5 .3 1.1 .3 1.6 0c.5-0.2 .7-0.8 .7-1.3c0-0.6-0.3-1.1-0.8-1.3c-0.5-0.3-1.1-0.2-1.6 .1c0 0-0.1-0.1-0.2-0.1c-0.1 0-0.2 0-0.3-0.1c-0.1 0-0.2 0-0.3 0c-0.1 0-0.1 0-0.2 .1Zm27.1 .4l.1-0.2c.2-0.4 .6-0.7 1.1-0.7c.5 0 .9 .3 1.1 .7c.2 .4 .1 .9-0.1 1.2c-0.3 .4-0.8 .6-1.2 .5l-0.3-0.1l-0.1 .2c0 .2-0.1 .3-0.3 .4c-0.1 .2-0.3 .2-0.4 .3c-0.2 0-0.4 0-0.6 0c-0.1 0-0.3-0.1-0.4-0.2l-0.2-0.1l-0.2 .1c-0.1 .1-0.3 .1-0.4 .1c-0.4 .1-0.8-0.1-1.1-0.4c-0.2-0.3-0.3-0.7-0.2-1.1c0-0.3 .3-0.7 .7-0.8c.4-0.1 .8-0.1 1.1 .2l.2 .1l.1-0.1c.1 0 .2-0.1 .2-0.1c.1 0 .2-0.1 .3-0.1c0 0 .1 0 .2 0c.1 0 .1 0 .2 0l.2 .1Zm-27.2 0l.2-0.1c.1 0 .2 0 .2 0c.1 0 .2 0 .3 0c0 0 .1 .1 .2 .1c0 0 .1 .1 .2 .1l.1 .1l.2-0.1c.2-0.2 .4-0.3 .7-0.3c.2 0 .4 .1 .6 .2c.2 .1 .4 .3 .5 .5c.1 .2 .1 .5 .1 .7c0 .2-0.1 .4-0.2 .5c-0.1 .2-0.3 .3-0.5 .4c-0.1 .1-0.3 .2-0.5 .1c-0.2 0-0.4 0-0.6-0.1l-0.2-0.1l-0.1 .1c-0.2 .1-0.3 .2-0.5 .2c-0.2 0-0.4 0-0.5 0c-0.2-0.1-0.4-0.1-0.5-0.2c-0.1-0.2-0.2-0.3-0.3-0.4l-0.1-0.2h-0.2c-0.2 0-0.4 0-0.6 0c-0.2-0.1-0.4-0.2-0.5-0.3c-0.1-0.1-0.2-0.3-0.3-0.5c-0.1-0.2-0.1-0.4-0.1-0.6c.1-0.2 .2-0.4 .4-0.6c.1-0.2 .4-0.3 .6-0.4c.3 0 .5 0 .8 .2c.2 .1 .4 .3 .5 .5l.1 .2Zm13.6 .1l-0.2 .2l-0.2 .1v.3l-0.1 .2l.4 .2l.1 .1l.2-0.2l.3-0.1l-0.1-0.2v-0.3l-0.2-0.1l-0.2-0.2Zm0 .4l-0.1 .1c0 0 0 .1 0 .2h.1h.1c0 0 0-0.1 0-0.1c0 0 0 0 0 0c0 0 0 0 0-0.1c0 0 0 0 0 0c0 0 0 0 0 0c0 0 0 0-0.1 0c0 0 0 0 0-0.1c0 0 0 0 0 0Zm5.2-11.6c-0.2-0.2-0.4-0.4-0.4-0.7c-0.1-0.3-0.1-0.5 0-0.8c.1-0.3 .2-0.5 .5-0.7c.2-0.2 .4-0.3 .7-0.3c.4-0.1 .9 0 1.2 .3c.1 0 .3 0 .4 0c.2 0 .4 .1 .5 .2c.1 .1 .3 .2 .4 .3c.1 .1 .2 .3 .2 .4l.3 .2c0-0.1 .1-0.2 .2-0.2c.1-0.1 .2-0.1 .3-0.1c.1-0.1 .2-0.1 .3-0.1c.1 0 .2 0 .3 0c.2-0.2 .3-0.4 .6-0.5c.2-0.2 .4-0.2 .7-0.2c.2-0.1 .5 0 .7 .1c.2 .1 .4 .3 .6 .5c.5-0.2 1.1 0 1.5 .4c.4 .4 .5 1 .3 1.6c-0.1 .5-0.6 .9-1.2 .9c-0.6 .1-1.1-0.1-1.4-0.6c-0.1 0-0.1 0-0.2 0c0 0-0.1 0-0.1 0c-0.1 0-0.1 0-0.2 0c0 0-0.1 0-0.1 0c-0.1 .2-0.3 .4-0.5 .5c-0.1 .1-0.3 .2-0.5 .2c-0.2 .1-0.4 .1-0.7 0c-0.2 0-0.4-0.1-0.5-0.2c-0.1 .1-0.3 .2-0.4 .3c-0.2 0-0.3 .1-0.5 .1c-0.2 0-0.3 0-0.5-0.1c-0.2 0-0.3-0.1-0.4-0.2c0 .2-0.1 .5-0.1 .7c-0.1 .2-0.3 .4-0.4 .5c-0.2 .2-0.4 .3-0.6 .4c-0.2 0-0.4 0-0.6 0c.1 .2 .1 .5 .1 .7c0 .2 0 .5-0.1 .7c-0.1 .2-0.3 .4-0.5 .5c-0.2 .2-0.4 .2-0.6 .3c-0.3 0-0.6 0-0.9-0.2c-0.3 .5-0.7 .7-1.2 .7c-0.5 .1-1-0.2-1.3-0.6c-0.2-0.4-0.3-0.9-0.2-1.3c.2-0.5 .5-0.9 1-1c-0.1-0.2-0.1-0.4-0.1-0.7c.1-0.2 .1-0.4 .3-0.6c.1-0.2 .2-0.3 .4-0.5c.2-0.1 .4-0.2 .6-0.2c.5 0 .9 .1 1.2 .4c.1-0.5 .5-0.9 .9-1.1Zm-10.4 0c.2-0.2 .4-0.6 .4-1c0-0.3-0.1-0.7-0.4-1c-0.2-0.3-0.5-0.5-0.9-0.5c-0.4 0-0.8 .1-1.1 .3c-0.1 0-0.3 0-0.5 0c-0.1 0-0.3 .1-0.4 .2c-0.2 .1-0.3 .2-0.4 .3c-0.1 .1-0.2 .3-0.2 .4l-0.3 .2c-0.1-0.1-0.1-0.2-0.2-0.2c-0.1-0.1-0.2-0.1-0.3-0.1c-0.1-0.1-0.2-0.1-0.3-0.1c-0.1 0-0.3 0-0.4 0c-0.1-0.2-0.3-0.4-0.5-0.5c-0.2-0.2-0.5-0.2-0.7-0.2c-0.3-0.1-0.5 0-0.7 .1c-0.3 .1-0.5 .3-0.6 .5c-0.5-0.2-1.1 0-1.5 .4c-0.4 .4-0.6 1-0.4 1.6c.2 .5 .7 .9 1.3 .9c.5 .1 1.1-0.1 1.4-0.6c.1 0 .1 0 .2 0c0 0 .1 0 .1 0c.1 0 .1 0 .2 0c0 0 .1 0 .1 0c.1 .2 .3 .4 .4 .5c.2 .1 .4 .2 .6 .2c.2 .1 .4 .1 .6 0c.2 0 .4-0.1 .6-0.2c.1 .1 .3 .2 .4 .3c.2 0 .3 .1 .5 .1c.2 0 .3 0 .5-0.1c.1 0 .3-0.1 .4-0.2c0 .2 0 .5 .1 .7c.1 .2 .2 .4 .4 .5c.2 .2 .3 .3 .6 .4c.2 0 .4 0 .6 0c-0.1 .3-0.2 .6-0.1 .9c0 .3 .2 .6 .4 .8c.2 .3 .5 .4 .8 .5c.3 0 .6 0 .9-0.2c.1 .3 .4 .5 .7 .6c.2 .1 .6 .1 .9 .1c.2-0.1 .5-0.3 .7-0.5c.2-0.2 .4-0.5 .4-0.8c0-0.2 0-0.3 0-0.5c-0.1-0.2-0.1-0.3-0.2-0.5c-0.1-0.1-0.2-0.3-0.4-0.4c-0.1-0.1-0.3-0.2-0.4-0.2l.1-0.3c0-0.3-0.1-0.6-0.2-0.9c-0.1-0.3-0.4-0.5-0.6-0.6c-0.3-0.2-0.6-0.2-0.9-0.2c-0.3 0-0.6 .2-0.8 .4c0-0.1-0.1-0.3-0.1-0.4c-0.1-0.1-0.2-0.2-0.2-0.3c-0.1 0-0.2-0.1-0.3-0.2c-0.1-0.1-0.2-0.1-0.3-0.2Zm11 .1l-0.4-0.3c-0.2-0.2-0.3-0.5-0.3-0.8c0-0.3 .1-0.6 .3-0.8c.2-0.2 .4-0.4 .7-0.4c.3 0 .6 0 .9 .2l.1 .1h.1c.1 0 .2 0 .4 0c.1 0 .2 .1 .3 .2c.1 0 .2 .1 .3 .2c.1 .1 .2 .2 .2 .3l.1 .1l.1 .1c0 0 .1 .1 .2 .1l.2 .2l.2-0.2c0-0.1 .1-0.1 .2-0.2c0 0 .1 0 .2-0.1c.1 0 .2 0 .2 0c.1 0 .2 0 .3 0h.2l.1-0.2c.1-0.1 .2-0.3 .4-0.4c.2-0.1 .4-0.1 .6-0.1c.2-0.1 .4 0 .6 .1c.2 .1 .3 .2 .4 .4l.2 .2l.2-0.1h.2c.4-0.1 .8 .1 1.1 .4c.3 .4 .3 .8 .1 1.2c-0.2 .4-0.5 .7-1 .7c-0.4 .1-0.8-0.1-1.1-0.5l-0.1-0.2l-0.2 .1c-0.1 0-0.1 0-0.1 0c-0.1 0-0.1 0-0.2 0c0 0 0 0-0.1 0c0 0-0.1 0-0.1 0h-0.2l-0.1 .2c-0.1 .1-0.2 .2-0.3 .3c-0.2 .1-0.3 .2-0.5 .2c-0.2 .1-0.3 .1-0.5 0c-0.2 0-0.3-0.1-0.4-0.2l-0.2-0.1l-0.2 .2c-0.1 .1-0.2 .1-0.4 .2c-0.1 0-0.2 .1-0.3 .1c-0.2 0-0.3 0-0.4-0.1c-0.1 0-0.3 0-0.4-0.1l-0.5 .2c.1 .2 0 .4 0 .6c-0.1 .1-0.2 .3-0.3 .4c-0.1 .1-0.3 .2-0.5 .3c-0.1 0-0.3 0-0.5 0l-0.3 .5c.1 .2 .2 .4 .1 .7c0 .2-0.1 .5-0.3 .6c-0.2 .2-0.4 .3-0.6 .4c-0.3 0-0.5 0-0.8-0.1l-0.2-0.1l-0.1 .2c-0.3 .3-0.6 .5-1 .5c-0.4 0-0.8-0.1-1-0.4c-0.2-0.4-0.3-0.8-0.2-1.1c.1-0.4 .4-0.7 .8-0.8l.3-0.1l-0.1-0.3c-0.1-0.3-0.1-0.5 0-0.8c.1-0.2 .2-0.4 .5-0.6c.2-0.1 .4-0.2 .7-0.2c.3 0 .5 .1 .7 .3l.4 .3l.1-0.5c.1-0.3 .4-0.6 .7-0.8l.5-0.2Zm-11.6 0l.5 .2c.3 .2 .6 .5 .7 .8l.1 .5l.4-0.3c.2-0.2 .4-0.3 .7-0.3c.2 0 .5 .1 .7 .2c.2 .2 .4 .4 .5 .6c.1 .3 .1 .5 0 .8l-0.1 .3l.3 .1c.3 .1 .5 .3 .7 .5c.1 .3 .1 .6 .1 .9c-0.1 .3-0.3 .5-0.5 .7c-0.3 .2-0.6 .2-0.8 .2c-0.1 0-0.2 0-0.3-0.1c-0.1 0-0.2 0-0.2-0.1c-0.1 0-0.2-0.1-0.2-0.1c-0.1-0.1-0.1-0.1-0.2-0.2l-0.1-0.2l-0.3 .1c-0.2 .1-0.4 .1-0.6 .1c-0.2 0-0.4-0.1-0.6-0.2c-0.2-0.2-0.3-0.3-0.4-0.5c-0.1-0.2-0.1-0.4-0.1-0.7c.1-0.1 .1-0.2 .2-0.3l-0.3-0.5h-0.3c-0.2 0-0.3 0-0.5-0.1c-0.1-0.1-0.2-0.2-0.3-0.3c-0.1-0.1-0.2-0.3-0.2-0.4c-0.1-0.1-0.1-0.3-0.1-0.5l-0.4-0.2c-0.1 .1-0.3 .1-0.4 .1c-0.1 .1-0.3 .1-0.4 .1c-0.1 0-0.2-0.1-0.4-0.1c-0.1-0.1-0.2-0.1-0.3-0.2l-0.2-0.2l-0.2 .1c-0.1 .1-0.3 .2-0.4 .3c-0.2 0-0.4 0-0.5 0c-0.2-0.1-0.4-0.2-0.5-0.3c-0.1 0-0.2-0.2-0.3-0.3l-0.1-0.2h-0.2c-0.1 0-0.1 0-0.1 0c-0.1 0-0.1 0-0.2 0c0 0-0.1 0-0.1 0c0 0-0.1 0-0.1 0l-0.2-0.1l-0.1 .2c-0.2 .2-0.4 .4-0.7 .5c-0.2 .1-0.5 0-0.8 0c-0.2-0.1-0.4-0.3-0.6-0.5c-0.1-0.3-0.2-0.5-0.1-0.8c0-0.2 .1-0.4 .1-0.5c.1-0.1 .3-0.3 .4-0.4c.2-0.1 .3-0.1 .5-0.1c.2-0.1 .4-0.1 .5 0l.2 .1l.2-0.2c.1-0.2 .2-0.3 .4-0.4c.2-0.1 .4-0.2 .6-0.1c.2 0 .4 0 .6 .1c.1 .1 .3 .3 .4 .4l.1 .2h.2c.1 0 .2 0 .2 0c.1 0 .2 0 .3 0c.1 .1 .2 .1 .2 .1c.1 .1 .2 .1 .2 .2l.2 .2l.2-0.2c.1 0 .1-0.1 .2-0.1l.1-0.1l.1-0.1c.2-0.5 .7-0.8 1.2-0.7h.1l.1-0.1c.3-0.2 .6-0.3 .9-0.2c.2 0 .5 .1 .6 .2c.2 .2 .3 .4 .4 .6c.1 .2 .1 .4 0 .6c0 .3-0.2 .5-0.3 .6l-0.4 .3Z" fill="#989809"/><path d="M21.9 23.4c0-0.2 .1-0.4 .2-0.6c.1-0.1 .2-0.2 .4-0.4c.1-0.1 .3-0.1 .5-0.2c.2 0 .3 0 .5 0h.2c.8-0.1 1.5 .4 1.6 1.2c.3-0.2 .6-0.3 .9-0.3c.4 0 .7 .2 .9 .4c.2 .2 .4 .4 .5 .8c.1 .3 .1 .6-0.1 .9c.3-0.1 .6-0.2 .9-0.1c.3 0 .6 .2 .8 .4c.2 .2 .4 .5 .4 .8c.1 .3 0 .6-0.1 .9c.6-0.4 1.5-0.4 2 .2c.5 .5 .6 1.4 .1 2c-0.5 .5-1.4 .7-2 .3c-0.6-0.5-0.9-1.3-0.5-2c-0.3 .2-0.6 .3-0.9 .3c-0.4 0-0.7-0.1-0.9-0.3c-0.3-0.2-0.5-0.4-0.6-0.8c-0.1-0.3 0-0.6 .1-0.9c-0.3 .1-0.6 .1-0.9 .1c-0.1 0-0.3-0.1-0.4-0.1c-0.1-0.1-0.3-0.2-0.4-0.3c-0.1-0.1-0.2-0.2-0.3-0.3c0-0.2-0.1-0.3-0.1-0.5c-0.1 .1-0.2 .1-0.3 .2c-0.1 0-0.2 0-0.2 0c-0.1 .1-0.2 .1-0.3 .1c-0.1 0-0.2 0-0.3-0.1c-0.1 .1-0.2 .1-0.3 .1c-0.1 0-0.2 0-0.3-0.1c-0.1 0-0.1 0-0.2 0c-0.1-0.1-0.2-0.1-0.3-0.2c0 .2-0.1 .5-0.3 .6c-0.1 .2-0.3 .4-0.5 .5c-0.2 .1-0.4 .1-0.6 .1c-0.3 0-0.5 0-0.7-0.1c.1 .2 .2 .5 .1 .7c0 .3-0.1 .5-0.3 .8c-0.1 .2-0.4 .3-0.6 .4c-0.2 .1-0.5 .2-0.8 .1c-0.2 0-0.5-0.1-0.7-0.3c.4 .7 .1 1.5-0.5 2c-0.6 .4-1.5 .2-2-0.3c-0.5-0.6-0.4-1.5 .1-2c.5-0.6 1.4-0.6 2-0.2c-0.1-0.3-0.2-0.6-0.1-0.9c0-0.3 .2-0.6 .4-0.8c.2-0.2 .5-0.4 .8-0.4c.3-0.1 .6 0 .9 .1c-0.2-0.3-0.2-0.6-0.1-0.9c.1-0.4 .3-0.6 .5-0.8c.2-0.2 .5-0.4 .9-0.4c.3 0 .6 .1 .9 .3Zm-3.1-1.5c0 .4-0.1 .8-0.3 1.1c-0.2 .4-0.6 .6-1 .6c-0.4 .1-0.8 0-1.2-0.3c-0.3-0.2-0.5-0.6-0.5-1c0-0.4 .1-0.8 .3-1.1c.3-0.3 .6-0.5 1-0.5c.4-0.1 .8 0 1.1 .2c.3 .3 .5 .6 .6 1Zm9.6 0c0 .4 .1 .8 .3 1.1c.2 .4 .6 .6 1 .6c.4 .1 .8 0 1.2-0.3c.3-0.2 .5-0.6 .5-1c0-0.4-0.1-0.8-0.3-1.1c-0.3-0.3-0.6-0.5-1-0.5c-0.4-0.1-0.8 0-1.1 .2c-0.3 .3-0.5 .6-0.6 1Zm-9.1-4.8c.1-0.3 .3-0.6 .6-0.8c.3-0.3 .6-0.4 1-0.4c.3 0 .7 .2 .9 .4c.3 .2 .5 .6 .5 .9c0 .2 0 .4 0 .6c-0.1 .2-0.2 .4-0.3 .6c-0.2 .1-0.3 .3-0.5 .4c-0.2 .1-0.4 .1-0.6 .1c-0.1 .3-0.2 .5-0.4 .7c-0.1 .2-0.3 .4-0.6 .4c-0.2 .1-0.5 .1-0.8 .1c-0.2 0-0.5-0.2-0.6-0.3c-0.4 .5-1 .8-1.6 .6c-0.6-0.1-1.1-0.6-1.2-1.2c-0.1-0.6 .2-1.3 .8-1.6c.5-0.3 1.2-0.2 1.7 .2c0-0.1 .1-0.2 .2-0.3c.1 0 .2-0.1 .3-0.2c.1 0 .2-0.1 .3-0.1c.1 0 .2-0.1 .3-0.1Zm8.6 0c-0.2-0.5-0.6-1-1.1-1.1c-0.6-0.2-1.2 0-1.6 .4c-0.3 .5-0.4 1.1-0.2 1.6c.2 .5 .7 .9 1.3 .9c.1 .3 .2 .5 .4 .7c.1 .2 .3 .3 .6 .4c.2 .1 .5 .1 .8 .1c.2 0 .4-0.2 .7-0.3c.3 .5 .9 .8 1.5 .6c.6-0.1 1.1-0.6 1.2-1.2c.1-0.6-0.2-1.3-0.8-1.6c-0.5-0.3-1.2-0.2-1.7 .2c0-0.1-0.1-0.2-0.2-0.3c-0.1 0-0.2-0.1-0.3-0.2c-0.1 0-0.2-0.1-0.3-0.1c-0.1 0-0.2-0.1-0.3-0.1Zm-4.3-1.4c-0.2 .1-0.4 .2-0.6 .2c-0.2 0-0.4 0-0.6 0c-0.2-0.1-0.4-0.2-0.5-0.3c-0.2-0.2-0.3-0.4-0.4-0.5c-0.1 0-0.3 .1-0.4 .1c-0.2 0-0.3 .1-0.5 0c-0.1 0-0.3 0-0.4-0.1c-0.2 0-0.3-0.1-0.4-0.2c-0.2 0-0.3 0-0.5 0c-0.1 0-0.3-0.1-0.4-0.2c-0.1 0-0.3-0.1-0.4-0.2c-0.1-0.1-0.2-0.3-0.2-0.4c-0.2 .2-0.3 .3-0.5 .4c.3 .3 .5 .7 .4 1.2c0 .5-0.3 .9-0.7 1.1c-0.4 .3-0.9 .3-1.3 .1c-0.4-0.1-0.8-0.5-0.9-0.9c-0.1 .4-0.5 .8-0.9 .9c.1 .2 .1 .5 0 .7c-0.1 .2-0.2 .4-0.4 .6c-0.1 .2-0.3 .3-0.5 .4c-0.3 .1-0.5 .1-0.7 .1c-0.1 0-0.2 0-0.2-0.1c-0.1 0-0.1 0-0.2 0c0 0-0.1-0.1-0.2-0.1c0 0-0.1-0.1-0.1-0.1c-0.5 .3-1.1 .4-1.6 .1c-0.5-0.2-0.8-0.7-0.8-1.3c0-0.5 .3-1.1 .8-1.3c.5-0.3 1.1-0.2 1.6 .1c.1-0.1 .2-0.1 .3-0.2c-0.1-0.4 0-0.7 .2-1.1c.2-0.3 .6-0.5 .9-0.6c.4-0.1 .8 0 1.1 .2c.3 .1 .6 .4 .7 .8c.1-0.4 .3-0.7 .6-0.9c-0.1 0-0.2 0-0.3-0.1c-0.1-0.1-0.2-0.2-0.3-0.3c-0.1 0-0.2-0.1-0.2-0.3c-0.1-0.1-0.1-0.2-0.2-0.3c-0.2 .2-0.4 .3-0.7 .4c-0.3 .1-0.6 0-0.8 0c-0.3-0.1-0.5-0.3-0.7-0.5c-0.2-0.2-0.3-0.5-0.3-0.8c-0.4 .3-0.8 .5-1.3 .4c-0.4 0-0.8-0.3-1.1-0.7c-0.2-0.4-0.2-0.9-0.1-1.3c.2-0.5 .6-0.8 1-0.9c.1 0 .1-0.1 .1-0.1c0 0 0-0.1 0-0.1c0 0 0 0 0-0.1c0 0 0 0 0-0.1c-0.2 .1-0.3 .1-0.5 0c-0.2 0-0.4-0.1-0.5-0.2c-0.2-0.1-0.3-0.2-0.4-0.3c-0.1-0.1-0.2-0.3-0.3-0.5c-0.2 .2-0.4 .2-0.7 .2c.1 .1 .1 .2 .1 .3c0 .1 0 .2 0 .3c0 .1-0.1 .2-0.1 .3c0 .1-0.1 .1-0.1 .2c.3 .3 .4 .6 .4 1c0 .4-0.1 .7-0.3 1c-0.3 .3-0.6 .5-1 .6c-0.3 0-0.7-0.1-1-0.3c-0.1 .1-0.2 .2-0.3 .3c-0.2 .1-0.3 .1-0.5 .2c-0.1 0-0.3 0-0.4 0c-0.2 0-0.3 0-0.5-0.1c-0.2 .2-0.4 .2-0.7 .2c-0.3 .3-0.8 .4-1.3 .2c-0.5-0.1-0.8-0.5-1-0.9c-0.1-0.5 0-1 .2-1.4c.3-0.3 .8-0.6 1.2-0.6c.1-0.1 .2-0.1 .4-0.2c.1 0 .2 0 .3-0.1c.1 0 .3 0 .4 0c.1 .1 .2 .1 .3 .1c.1 0 .2-0.1 .3-0.1c.1 0 .2 0 .3-0.1c.1 0 .2 0 .2 0c.1 0 .2 0 .3 .1c-0.1-0.3-0.1-0.5-0.1-0.8c0-0.2 .1-0.4 .2-0.5c.1-0.2 .2-0.3 .3-0.4c.1-0.1 .3-0.2 .4-0.3c.2-0.1 .4-0.1 .5-0.1c0-0.2 0-0.4 0-0.6c.1-0.2 .1-0.3 .2-0.5c.1-0.2 .2-0.3 .4-0.4c.1-0.1 .3-0.2 .5-0.3c-0.3-0.1-0.6-0.4-0.7-0.7c-0.1-0.3-0.1-0.7 0-1c.1-0.3 .3-0.6 .5-0.8c.3-0.2 .7-0.3 1-0.3c-0.2-0.4-0.2-0.8 0-1.2c.2-0.4 .6-0.7 1-0.8c.5-0.1 .9 0 1.3 .2c.3 .3 .6 .7 .6 1.1c.3 .2 .6 .5 .8 .8c.2-0.2 .4-0.3 .6-0.3c.3 0 .5 0 .8 .1c.2 .1 .4 .2 .6 .4c.1 .2 .3 .4 .3 .6c.3 0 .5 0 .7 .1c.2 0 .4 .2 .6 .3c.2 .2 .3 .4 .4 .6c.1 .2 .1 .5 0 .7c0 .3-0.2 .6-0.4 .9c-0.3 .2-0.6 .3-0.9 .4c-0.4 0-0.7-0.1-1-0.3c-0.3-0.2-0.5-0.5-0.6-0.8c-0.1 0-0.3 0-0.5 0c-0.1-0.1-0.3-0.1-0.4-0.2c-0.2-0.1-0.3-0.1-0.4-0.3c-0.1-0.1-0.2-0.2-0.3-0.4c-0.1 .1-0.3 .2-0.4 .3c-0.2 0-0.4 0-0.5 0c-0.2 0-0.4 0-0.5-0.1c-0.2 0-0.3-0.1-0.5-0.2c0 .1 0 .2-0.1 .3c0 .1-0.1 .2-0.2 .3c-0.1 .1-0.2 .2-0.3 .3c-0.1 0-0.2 .1-0.4 .1c.4 .2 .6 .5 .7 .9c.3-0.2 .6-0.3 .9-0.2c.3 0 .6 .1 .8 .3c.2 .2 .4 .4 .5 .7c.1 .3 .1 .6 0 .9c.3-0.1 .6 0 .9 .1c.2 .1 .5 .3 .6 .5c.2 .3 .3 .6 .3 .8c0 .3-0.1 .6-0.3 .9c.2-0.1 .4 0 .5 0c.2 0 .4 .1 .5 .2c.2 .1 .3 .2 .4 .4c.1 .1 .2 .3 .2 .5c.1-0.2 .3-0.3 .4-0.3c.2-0.1 .4-0.2 .5-0.2c.2 0 .4 0 .6 .1c.1 0 .3 .1 .4 .2h.2c.5 .1 .9 .4 1.1 .8c.1-0.2 .3-0.3 .5-0.4c.1 0 .3-0.1 .5-0.1c.2 0 .4 0 .6 .1c.2 0 .3 .1 .5 .3c.1-0.1 .3 0 .4 0c.2 0 .3 .1 .5 .1c.1 .1 .3 .2 .4 .3c.1 .1 .2 .3 .2 .4c.1-0.1 .3-0.1 .4-0.1c.1-0.1 .2-0.1 .4-0.1c.1 0 .2 0 .3 .1c.2 0 .3 .1 .4 .1c.1 0 .2-0.1 .4-0.1c.1-0.1 .2-0.1 .3-0.1c.2 0 .3 0 .4 .1c.1 0 .3 0 .4 .1c0-0.1 .1-0.3 .2-0.4c.1-0.1 .3-0.2 .4-0.3c.2 0 .3-0.1 .5-0.1c.1 0 .3-0.1 .4 0c.2-0.2 .3-0.3 .5-0.3c.2-0.1 .4-0.1 .6-0.1c.2 0 .4 .1 .5 .1c.2 .1 .4 .2 .5 .4c.1-0.1 .1-0.2 .2-0.3c.1-0.1 .2-0.2 .3-0.3c.1-0.1 .3-0.1 .4-0.2c.1 0 .2 0 .4 0c.1-0.1 .3-0.2 .4-0.2c.2-0.1 .4-0.1 .6-0.1c.1 0 .3 .1 .5 .1c.1 .1 .3 .2 .4 .4c0-0.2 .1-0.4 .2-0.5c.1-0.2 .2-0.3 .4-0.4c.1-0.1 .3-0.2 .5-0.2c.1-0.1 .3-0.1 .5 0c-0.2-0.3-0.3-0.6-0.3-0.9c0-0.3 .1-0.5 .3-0.8c.1-0.2 .4-0.4 .6-0.5c.3-0.2 .6-0.2 .9-0.1c-0.1-0.3-0.1-0.6 0-0.9c.1-0.3 .3-0.6 .5-0.7c.3-0.2 .5-0.3 .8-0.4c.3 0 .6 .1 .9 .3c.1-0.4 .3-0.7 .7-0.9c-0.2 0-0.3-0.1-0.4-0.1c-0.1-0.1-0.2-0.2-0.3-0.3c-0.1-0.1-0.2-0.2-0.2-0.3c-0.1-0.1-0.1-0.2-0.1-0.3c-0.2 .1-0.3 .2-0.5 .2c-0.1 .1-0.3 .1-0.5 .1c-0.1 0-0.3 0-0.5 0c-0.1-0.1-0.3-0.2-0.4-0.3c-0.1 .2-0.2 .3-0.3 .4c-0.1 .2-0.2 .2-0.4 .3c-0.1 .1-0.3 .1-0.4 .2c-0.2 0-0.4 0-0.5 0c-0.2 .5-0.7 1-1.2 1.1c-0.6 .1-1.2-0.2-1.5-0.7c-0.4-0.5-0.4-1.1 0-1.6c.3-0.5 .9-0.8 1.5-0.7c0-0.2 .2-0.4 .3-0.6c.2-0.2 .4-0.3 .6-0.4c.3-0.1 .5-0.1 .7-0.1c.3 .1 .5 .1 .7 .3c.2-0.3 .5-0.6 .8-0.8c0-0.4 .3-0.8 .6-1c.4-0.3 .8-0.4 1.2-0.3c.5 .1 .8 .4 1 .8c.2 .4 .3 .8 .1 1.2c.3 0 .7 .1 .9 .3c.3 .2 .5 .5 .6 .8c.1 .3 .1 .7 0 1c-0.1 .3-0.4 .6-0.7 .7c.2 .1 .4 .2 .5 .3c.2 .1 .3 .2 .4 .4c.1 .2 .1 .3 .2 .5c0 .2 0 .4 0 .6c.2 0 .4 .1 .6 .2c.3 .1 .4 .3 .6 .5c.1 .2 .2 .4 .2 .7c0 .2 0 .4-0.1 .7l.1-0.1c.4 0 .7 .1 1 .2c.1 0 .2 0 .3-0.1c.1 0 .3 0 .4 .1c.1 0 .2 0 .3 0c.1 .1 .3 .1 .4 .2c.4 0 .9 .2 1.2 .6c.2 .4 .3 .9 .2 1.4c-0.2 .4-0.5 .8-1 .9c-0.5 .2-1 .1-1.3-0.2c-0.3 0-0.5 0-0.8-0.2c-0.1 .1-0.2 .1-0.4 .1c-0.2 0-0.3 0-0.4 0c-0.2-0.1-0.3-0.1-0.5-0.2c-0.1-0.1-0.2-0.2-0.3-0.3c-0.3 .2-0.7 .3-1.1 .3c-0.3-0.1-0.7-0.3-0.9-0.6c-0.2-0.3-0.4-0.6-0.3-1c0-0.4 .1-0.7 .4-1c-0.1-0.1-0.1-0.1-0.1-0.2c-0.1-0.1-0.1-0.2-0.1-0.3c0-0.1 0-0.2 0-0.3c0-0.1 0-0.2 0-0.3c-0.2 0-0.5 0-0.7-0.2c0 .2-0.1 .4-0.2 .5c-0.1 .1-0.3 .2-0.4 .3c-0.2 .1-0.3 .2-0.5 .2c-0.2 .1-0.3 .1-0.5 0c0 .1 0 .1 0 .1c0 .1 0 .1 0 .1c0 0 0 .1 0 .1c0 0 0 .1 0 .1c.5 .1 .9 .4 1.1 .9c.1 .4 .1 .9-0.1 1.3c-0.3 .4-0.7 .7-1.1 .7c-0.5 .1-0.9-0.1-1.3-0.4c0 .3-0.1 .6-0.3 .8c-0.2 .2-0.4 .4-0.7 .5c-0.2 0-0.5 .1-0.8 0c-0.3-0.1-0.5-0.2-0.7-0.4c-0.2 .5-0.6 .9-1.1 1c.3 .2 .6 .5 .7 .9c.1-0.4 .4-0.7 .7-0.8c.3-0.2 .7-0.3 1.1-0.2c.3 .1 .7 .3 .9 .6c.2 .4 .3 .7 .2 1.1c.1 .1 .2 .1 .3 .2c.5-0.3 1.1-0.4 1.6-0.1c.5 .2 .8 .8 .8 1.3c0 .6-0.3 1.1-0.8 1.3c-0.5 .3-1.1 .2-1.6-0.1c-0.2 .2-0.5 .3-0.8 .3c-0.3 0-0.6-0.1-0.9-0.3c-0.2-0.1-0.4-0.3-0.5-0.6c-0.2-0.3-0.2-0.6-0.1-0.9c-0.1 0-0.2-0.1-0.3-0.2c-0.1 0-0.2-0.1-0.3-0.2c0-0.1-0.1-0.1-0.2-0.2c0-0.1-0.1-0.2-0.1-0.3c-0.1 .4-0.5 .8-0.9 .9c-0.4 .2-0.9 .2-1.3-0.1c-0.4-0.2-0.7-0.6-0.7-1.1c-0.1-0.5 .1-0.9 .4-1.2c-0.2-0.1-0.3-0.2-0.5-0.4c0 .1-0.1 .3-0.2 .4c-0.1 .1-0.3 .2-0.4 .2c-0.1 .1-0.3 .2-0.4 .2c-0.2 0-0.3 0-0.5 0c-0.1 .1-0.2 .2-0.4 .2c-0.1 .1-0.3 .1-0.4 .1c-0.2 .1-0.3 .1-0.5 0c-0.1 0-0.3-0.1-0.4-0.1c-0.1 .1-0.2 .3-0.4 .4c-0.1 .2-0.3 .3-0.5 .3c-0.2 .1-0.4 .1-0.6 .1c-0.2 0-0.4-0.1-0.6-0.2Zm17.1 .2c0 .4-0.1 .8-0.3 1.1c-0.2 .3-0.6 .6-1 .6c-0.4 .1-0.8-0.1-1.2-0.3c-0.3-0.3-0.5-0.6-0.5-1c0-0.4 .1-0.8 .3-1.1c.3-0.3 .6-0.5 1-0.6c.4 0 .8 .1 1.1 .3c.3 .2 .5 .6 .6 1Zm-34.2 0c0 .4 .1 .8 .3 1.1c.2 .3 .6 .6 1 .6c.4 .1 .8-0.1 1.2-0.3c.3-0.3 .5-0.6 .5-1c0-0.4-0.1-0.8-0.3-1.1c-0.3-0.3-0.6-0.5-1-0.6c-0.4 0-0.8 .1-1.1 .3c-0.3 .2-0.5 .6-0.6 1Z" fill="#efb26c"/><path d="M21.9 23.4c0-0.2 .1-0.4 .2-0.6c.1-0.1 .2-0.2 .4-0.4c.1-0.1 .3-0.1 .5-0.2c.2 0 .3 0 .5 0h.2c.8-0.1 1.5 .4 1.6 1.2c.3-0.2 .6-0.3 .9-0.3c.4 0 .7 .2 .9 .4c.2 .2 .4 .4 .5 .8c.1 .3 .1 .6-0.1 .9c.3-0.1 .6-0.2 .9-0.1c.3 0 .6 .2 .8 .4c.2 .2 .4 .5 .4 .8c.1 .3 0 .6-0.1 .9c.6-0.4 1.5-0.4 2 .2c.5 .5 .6 1.4 .1 2c-0.5 .5-1.4 .7-2 .3c-0.6-0.5-0.9-1.3-0.5-2c-0.3 .2-0.6 .3-0.9 .3c-0.4 0-0.7-0.1-0.9-0.3c-0.3-0.2-0.5-0.4-0.6-0.8c-0.1-0.3 0-0.6 .1-0.9c-0.3 .1-0.6 .1-0.9 .1c-0.1 0-0.3-0.1-0.4-0.1c-0.1-0.1-0.3-0.2-0.4-0.3c-0.1-0.1-0.2-0.2-0.3-0.3c0-0.2-0.1-0.3-0.1-0.5c-0.1 .1-0.2 .1-0.3 .2c-0.1 0-0.2 0-0.2 0c-0.1 .1-0.2 .1-0.3 .1c-0.1 0-0.2 0-0.3-0.1c-0.1 .1-0.2 .1-0.3 .1c-0.1 0-0.2 0-0.3-0.1c-0.1 0-0.1 0-0.2 0c-0.1-0.1-0.2-0.1-0.3-0.2c0 .2-0.1 .5-0.3 .6c-0.1 .2-0.3 .4-0.5 .5c-0.2 .1-0.4 .1-0.6 .1c-0.3 0-0.5 0-0.7-0.1c.1 .2 .2 .5 .1 .7c0 .3-0.1 .5-0.3 .8c-0.1 .2-0.4 .3-0.6 .4c-0.2 .1-0.5 .2-0.8 .1c-0.2 0-0.5-0.1-0.7-0.3c.4 .7 .1 1.5-0.5 2c-0.6 .4-1.5 .2-2-0.3c-0.5-0.6-0.4-1.5 .1-2c.5-0.6 1.4-0.6 2-0.2c-0.1-0.3-0.2-0.6-0.1-0.9c0-0.3 .2-0.6 .4-0.8c.2-0.2 .5-0.4 .8-0.4c.3-0.1 .6 0 .9 .1c-0.2-0.3-0.2-0.6-0.1-0.9c.1-0.4 .3-0.6 .5-0.8c.2-0.2 .5-0.4 .9-0.4c.3 0 .6 .1 .9 .3Zm.2 .5l.1-0.5c0-0.1 .1-0.3 .1-0.4c.1-0.1 .2-0.2 .4-0.3c.1-0.1 .2-0.2 .4-0.2c.1 0 .3 0 .4 0h.1h.1c.1 0 .3 0 .4 0c.2 0 .3 .1 .4 .2c.2 .1 .3 .2 .4 .3c0 .1 .1 .3 .1 .4l.1 .5l.4-0.3c.2-0.1 .5-0.2 .7-0.2c.3 0 .5 .1 .7 .3c.2 .2 .3 .4 .4 .6c.1 .3 0 .5 0 .8l.4 .4c.1-0.1 .2-0.1 .3-0.1c.2-0.1 .4 0 .6 .1c.2 0 .4 .2 .5 .4c.2 .1 .2 .3 .2 .6c.1 .2 0 .4-0.1 .6l.5 .4c.1-0.2 .3-0.3 .6-0.3c.5-0.1 1 .2 1.2 .7c.2 .6 .1 1.1-0.4 1.5c-0.4 .3-1 .3-1.5-0.1c-0.4-0.3-0.5-0.9-0.2-1.4l-0.5-0.4c-0.2 .1-0.5 .2-0.7 .2c-0.3 0-0.6-0.1-0.8-0.2c-0.2-0.2-0.3-0.4-0.4-0.6c-0.1-0.3 0-0.6 .1-0.8l-0.4-0.4c-0.2 .1-0.5 .1-0.7 .1c-0.1 0-0.3-0.1-0.4-0.1c-0.1-0.1-0.2-0.1-0.3-0.2c-0.1-0.1-0.1-0.2-0.2-0.3c-0.1-0.1-0.1-0.2-0.1-0.3l-0.1-0.5l-0.4 .3c-0.1 0-0.1 0-0.2 .1c-0.1 0-0.1 0-0.2 0c-0.1 .1-0.2 .1-0.2 .1c-0.1 0-0.2 0-0.2-0.1h-0.2c0 .1-0.1 .1-0.2 .1c0 0-0.1 0-0.2-0.1c-0.1 0-0.1 0-0.2 0c-0.1-0.1-0.1-0.1-0.2-0.1l-0.4-0.3l-0.1 .5c0 .1-0.1 .3-0.2 .4c-0.1 .2-0.2 .3-0.4 .4c-0.2 .1-0.3 .1-0.5 .1c-0.2 0-0.4 0-0.6-0.1l-0.4 .4c.1 .2 .1 .4 .1 .6c0 .2-0.1 .4-0.2 .6c-0.1 .1-0.3 .3-0.5 .4c-0.2 0-0.4 .1-0.6 0c-0.2 0-0.4-0.1-0.6-0.2l-0.4 .4c.1 .2 .1 .4 .1 .6c0 .2-0.1 .4-0.2 .6c-0.2 .2-0.3 .3-0.5 .4c-0.2 .1-0.5 .1-0.7 .1c-0.3-0.1-0.7-0.3-0.9-0.6c-0.1-0.3-0.2-0.7 0-1.1c.1-0.3 .4-0.6 .8-0.7c.3-0.1 .7 0 1 .3l.5-0.4c-0.1-0.2-0.2-0.5-0.1-0.7c0-0.2 .1-0.4 .2-0.5c.1-0.2 .2-0.3 .4-0.4c.1-0.1 .3-0.1 .5-0.1c.2-0.1 .4 0 .5 .1l.4-0.4c0-0.3-0.1-0.5 0-0.8c.1-0.2 .2-0.4 .4-0.6c.2-0.2 .4-0.3 .7-0.3c.2 0 .5 .1 .7 .2l.4 .3Zm-3.3-2c0 .4-0.1 .8-0.3 1.1c-0.2 .4-0.6 .6-1 .6c-0.4 .1-0.8 0-1.2-0.3c-0.3-0.2-0.5-0.6-0.5-1c0-0.4 .1-0.8 .3-1.1c.3-0.3 .6-0.5 1-0.5c.4-0.1 .8 0 1.1 .2c.3 .3 .5 .6 .6 1Zm9.6 0c0 .4 .1 .8 .3 1.1c.2 .4 .6 .6 1 .6c.4 .1 .8 0 1.2-0.3c.3-0.2 .5-0.6 .5-1c0-0.4-0.1-0.8-0.3-1.1c-0.3-0.3-0.6-0.5-1-0.5c-0.4-0.1-0.8 0-1.1 .2c-0.3 .3-0.5 .6-0.6 1Zm-9.9 0c0 .3 0 .7-0.2 1c-0.2 .2-0.5 .4-0.9 .5c-0.3 0-0.6-0.1-0.9-0.3c-0.2-0.2-0.4-0.5-0.4-0.9c0-0.3 .1-0.6 .3-0.8c.2-0.2 .4-0.4 .7-0.4c.3 0 .6 0 .9 .2c.2 .2 .4 .4 .5 .7Zm10.2 0c.1-0.3 .2-0.6 .5-0.8c.2-0.2 .6-0.3 .9-0.2c.3 0 .6 .2 .8 .4c.2 .3 .3 .6 .2 .9c0 .3-0.2 .6-0.4 .8c-0.3 .2-0.6 .3-0.9 .3c-0.4-0.1-0.6-0.2-0.8-0.5c-0.2-0.2-0.3-0.6-0.3-0.9Zm-9.4-4.8c.1-0.3 .3-0.6 .6-0.8c.3-0.3 .6-0.4 1-0.4c.3 0 .7 .2 .9 .4c.3 .2 .5 .6 .5 .9c0 .2 0 .4 0 .6c-0.1 .2-0.2 .4-0.3 .6c-0.2 .1-0.3 .3-0.5 .4c-0.2 .1-0.4 .1-0.6 .1c-0.1 .3-0.2 .5-0.4 .7c-0.1 .2-0.3 .4-0.6 .4c-0.2 .1-0.5 .1-0.8 .1c-0.2 0-0.5-0.2-0.6-0.3c-0.4 .5-1 .8-1.6 .6c-0.6-0.1-1.1-0.6-1.2-1.2c-0.1-0.6 .2-1.3 .8-1.6c.5-0.3 1.2-0.2 1.7 .2c0-0.1 .1-0.2 .2-0.3c.1 0 .2-0.1 .3-0.2c.1 0 .2-0.1 .3-0.1c.1 0 .2-0.1 .3-0.1Zm8.6 0c-0.2-0.5-0.6-1-1.1-1.1c-0.6-0.2-1.2 0-1.6 .4c-0.3 .5-0.4 1.1-0.2 1.6c.2 .5 .7 .9 1.3 .9c.1 .3 .2 .5 .4 .7c.1 .2 .3 .3 .6 .4c.2 .1 .5 .1 .8 .1c.2 0 .4-0.2 .7-0.3c.3 .5 .9 .8 1.5 .6c.6-0.1 1.1-0.6 1.2-1.2c.1-0.6-0.2-1.3-0.8-1.6c-0.5-0.3-1.2-0.2-1.7 .2c0-0.1-0.1-0.2-0.2-0.3c-0.1 0-0.2-0.1-0.3-0.2c-0.1 0-0.2-0.1-0.3-0.1c-0.1 0-0.2-0.1-0.3-0.1Zm-8.3 .3v-0.2c.1-0.5 .4-0.8 .9-0.9c.4-0.2 .9 0 1.2 .3c.3 .3 .4 .8 .2 1.2c-0.1 .4-0.5 .7-0.9 .8h-0.4v.3c-0.1 .2-0.2 .4-0.3 .5c-0.1 .2-0.3 .3-0.5 .4c-0.2 0-0.4 .1-0.6 0c-0.2 0-0.4-0.1-0.6-0.2l-0.2-0.3l-0.2 .3c-0.1 .2-0.3 .4-0.6 .5c-0.2 0-0.4 .1-0.7 0c-0.2 0-0.4-0.2-0.6-0.4c-0.1-0.1-0.2-0.4-0.3-0.6c0-0.2 0-0.5 .1-0.7c.1-0.2 .3-0.4 .5-0.5c.2-0.1 .5-0.2 .7-0.1c.3 0 .5 .1 .7 .2l.2 .2l.2-0.2c.2-0.3 .5-0.5 .9-0.6h.3Zm8 0l.4 .1c.3 0 .6 .2 .8 .5l.2 .2l.2-0.2c.3-0.2 .6-0.3 1-0.2c.4 0 .7 .3 .9 .6c.2 .4 .1 .8-0.1 1.2c-0.2 .3-0.6 .5-1 .5c-0.4 .1-0.8-0.1-1-0.5l-0.2-0.2l-0.2 .2c-0.2 .1-0.4 .2-0.6 .2c-0.2 .1-0.4 0-0.6 0c-0.2-0.1-0.4-0.2-0.5-0.4c-0.2-0.1-0.3-0.3-0.3-0.5v-0.3h-0.4c-0.4 0-0.8-0.4-1-0.8c-0.1-0.4 0-0.9 .3-1.2c.3-0.3 .8-0.5 1.2-0.3c.5 .1 .8 .5 .9 .9v.2Zm-4-1.7c-0.2 .1-0.4 .2-0.6 .2c-0.2 0-0.4 0-0.6 0c-0.2-0.1-0.4-0.2-0.5-0.3c-0.2-0.2-0.3-0.4-0.4-0.5c-0.1 0-0.3 .1-0.4 .1c-0.2 0-0.3 .1-0.5 0c-0.1 0-0.3 0-0.4-0.1c-0.2 0-0.3-0.1-0.4-0.2c-0.2 0-0.3 0-0.5 0c-0.1 0-0.3-0.1-0.4-0.2c-0.1 0-0.3-0.1-0.4-0.2c-0.1-0.1-0.2-0.3-0.2-0.4c-0.2 .2-0.3 .3-0.5 .4c.3 .3 .5 .7 .4 1.2c0 .5-0.3 .9-0.7 1.1c-0.4 .3-0.9 .3-1.3 .1c-0.4-0.1-0.8-0.5-0.9-1c-0.1 .5-0.5 .8-0.9 1c.1 .2 .1 .5 0 .7c-0.1 .2-0.2 .4-0.4 .6c-0.1 .2-0.3 .3-0.5 .4c-0.3 .1-0.5 .1-0.7 .1c-0.1 0-0.2 0-0.2-0.1c-0.1 0-0.1 0-0.2 0c0 0-0.1-0.1-0.2-0.1c0 0-0.1-0.1-0.1-0.1c-0.5 .3-1.1 .4-1.6 .1c-0.5-0.2-0.8-0.7-0.8-1.3c0-0.5 .3-1.1 .8-1.3c.5-0.3 1.1-0.2 1.6 .1c.1-0.1 .2-0.1 .3-0.2c-0.1-0.4 0-0.7 .2-1.1c.2-0.3 .6-0.5 .9-0.6c.4-0.1 .8 0 1.1 .2c.3 .1 .6 .4 .7 .8c.1-0.4 .3-0.7 .6-0.9c-0.1 0-0.2 0-0.3-0.1c-0.1-0.1-0.2-0.2-0.3-0.3c-0.1 0-0.2-0.1-0.2-0.3c-0.1-0.1-0.1-0.2-0.2-0.3c-0.2 .2-0.4 .3-0.7 .4c-0.3 .1-0.6 0-0.8 0c-0.3-0.1-0.5-0.3-0.7-0.5c-0.2-0.2-0.3-0.5-0.3-0.8c-0.4 .3-0.8 .5-1.3 .4c-0.4 0-0.8-0.3-1.1-0.7c-0.2-0.4-0.2-0.9-0.1-1.3c.2-0.5 .6-0.8 1-0.9c.1 0 .1-0.1 .1-0.1c0 0 0-0.1 0-0.1c0 0 0 0 0-0.1c0 0 0 0 0-0.1c-0.2 .1-0.3 .1-0.5 0c-0.2 0-0.4-0.1-0.5-0.2c-0.2-0.1-0.3-0.2-0.4-0.3c-0.1-0.1-0.2-0.3-0.3-0.5c-0.2 .2-0.4 .2-0.7 .2c.1 .1 .1 .2 .1 .3c0 .1 0 .2 0 .3c0 .1-0.1 .2-0.1 .3c0 .1-0.1 .1-0.1 .2c.3 .3 .4 .6 .4 1c0 .4-0.1 .7-0.3 1c-0.3 .3-0.6 .5-1 .6c-0.3 0-0.7-0.1-1-0.3c-0.1 .1-0.2 .2-0.3 .3c-0.2 .1-0.3 .1-0.5 .2c-0.1 0-0.3 0-0.4 0c-0.2 0-0.3 0-0.5-0.1c-0.2 .2-0.4 .2-0.7 .2c-0.3 .3-0.8 .4-1.3 .2c-0.5-0.1-0.8-0.5-1-0.9c-0.1-0.5 0-1 .2-1.4c.3-0.3 .8-0.6 1.2-0.6c.1-0.1 .2-0.1 .4-0.2c.1 0 .2 0 .3-0.1c.1 0 .3 0 .4 0c.1 .1 .2 .1 .3 .1c.1 0 .2-0.1 .3-0.1c.1 0 .2 0 .3-0.1c.1 0 .2 0 .2 0c.1 0 .2 0 .3 .1c-0.1-0.3-0.1-0.5-0.1-0.8c0-0.2 .1-0.4 .2-0.5c.1-0.2 .2-0.3 .3-0.4c.1-0.1 .3-0.2 .4-0.3c.2-0.1 .4-0.1 .5-0.1c0-0.2 0-0.4 0-0.6c.1-0.2 .1-0.3 .2-0.5c.1-0.2 .2-0.3 .4-0.4c.1-0.1 .3-0.2 .5-0.3c-0.3-0.1-0.6-0.4-0.7-0.7c-0.1-0.3-0.1-0.7 0-1c.1-0.3 .3-0.6 .5-0.8c.3-0.2 .7-0.3 1-0.3c-0.2-0.4-0.2-0.8 0-1.2c.2-0.4 .6-0.7 1-0.8c.5-0.1 .9 0 1.3 .2c.3 .3 .6 .7 .6 1.1c.3 .2 .6 .5 .8 .8c.2-0.2 .4-0.3 .6-0.3c.3 0 .5 0 .8 .1c.2 .1 .4 .2 .6 .4c.1 .2 .3 .4 .3 .6c.3 0 .5 0 .7 .1c.2 0 .4 .2 .6 .3c.2 .2 .3 .4 .4 .6c.1 .2 .1 .5 0 .7c0 .3-0.2 .6-0.4 .9c-0.3 .2-0.6 .3-0.9 .4c-0.4 0-0.7-0.1-1-0.3c-0.3-0.2-0.5-0.5-0.6-0.8c-0.1 0-0.3 0-0.5 0c-0.1-0.1-0.3-0.1-0.4-0.2c-0.2-0.1-0.3-0.1-0.4-0.3c-0.1-0.1-0.2-0.2-0.3-0.4c-0.1 .1-0.3 .2-0.4 .3c-0.2 0-0.4 0-0.5 0c-0.2 0-0.4 0-0.5-0.1c-0.2 0-0.3-0.1-0.5-0.2c0 .1 0 .2-0.1 .3c0 .1-0.1 .2-0.2 .3c-0.1 .1-0.2 .2-0.3 .3c-0.1 0-0.2 .1-0.4 .1c.4 .2 .6 .5 .7 .9c.3-0.2 .6-0.3 .9-0.2c.3 0 .6 .1 .8 .3c.2 .2 .4 .4 .5 .7c.1 .3 .1 .6 0 .9c.3-0.1 .6 0 .9 .1c.2 .1 .5 .3 .6 .5c.2 .3 .3 .6 .3 .8c0 .3-0.1 .6-0.3 .9c.2-0.1 .4 0 .5 0c.2 0 .4 .1 .5 .2c.2 .1 .3 .2 .4 .4c.1 .1 .2 .3 .2 .5c.1-0.2 .3-0.3 .4-0.3c.2-0.1 .4-0.2 .5-0.2c.2 0 .4 0 .6 .1c.1 0 .3 .1 .4 .2h.2c.5 .1 .9 .4 1.1 .8c.1-0.2 .3-0.3 .5-0.4c.1 0 .3-0.1 .5-0.1c.2 0 .4 0 .6 .1c.2 0 .3 .1 .5 .3c.1-0.1 .3 0 .4 0c.2 0 .3 .1 .5 .1c.1 .1 .3 .2 .4 .3c.1 .1 .2 .3 .2 .4c.1-0.1 .3-0.1 .4-0.1c.1-0.1 .2-0.1 .4-0.1c.1 0 .2 0 .3 .1c.2 0 .3 .1 .4 .1c.1 0 .2-0.1 .4-0.1c.1-0.1 .2-0.1 .3-0.1c.2 0 .3 0 .4 .1c.1 0 .3 0 .4 .1c0-0.1 .1-0.3 .2-0.4c.1-0.1 .3-0.2 .4-0.3c.2 0 .3-0.1 .5-0.1c.1 0 .3-0.1 .4 0c.2-0.2 .3-0.3 .5-0.3c.2-0.1 .4-0.1 .6-0.1c.2 0 .4 .1 .5 .1c.2 .1 .4 .2 .5 .4c.1-0.1 .1-0.2 .2-0.3c.1-0.1 .2-0.2 .3-0.3c.1-0.1 .3-0.1 .4-0.2c.1 0 .2 0 .4 0c.1-0.1 .3-0.2 .4-0.2c.2-0.1 .4-0.1 .6-0.1c.1 0 .3 .1 .5 .1c.1 .1 .3 .2 .4 .4c0-0.2 .1-0.4 .2-0.5c.1-0.2 .2-0.3 .4-0.4c.1-0.1 .3-0.2 .5-0.2c.1-0.1 .3-0.1 .5 0c-0.2-0.3-0.3-0.6-0.3-0.9c0-0.3 .1-0.5 .3-0.8c.1-0.2 .4-0.4 .6-0.5c.3-0.2 .6-0.2 .9-0.1c-0.1-0.3-0.1-0.6 0-0.9c.1-0.3 .3-0.6 .5-0.7c.3-0.2 .5-0.3 .8-0.4c.3 0 .6 .1 .9 .3c.1-0.4 .3-0.7 .7-0.9c-0.2 0-0.3-0.1-0.4-0.1c-0.1-0.1-0.2-0.2-0.3-0.3c-0.1-0.1-0.2-0.2-0.2-0.3c-0.1-0.1-0.1-0.2-0.1-0.3c-0.2 .1-0.3 .2-0.5 .2c-0.1 .1-0.3 .1-0.5 .1c-0.1 0-0.3 0-0.5 0c-0.1-0.1-0.3-0.2-0.4-0.3c-0.1 .2-0.2 .3-0.3 .4c-0.1 .2-0.2 .2-0.4 .3c-0.1 .1-0.3 .1-0.4 .2c-0.2 0-0.4 0-0.5 0c-0.2 .5-0.7 1-1.2 1.1c-0.6 .1-1.2-0.2-1.5-0.7c-0.4-0.5-0.4-1.1 0-1.6c.3-0.5 .9-0.8 1.5-0.7c0-0.2 .2-0.4 .3-0.6c.2-0.2 .4-0.3 .6-0.4c.3-0.1 .5-0.1 .7-0.1c.3 .1 .5 .1 .7 .3c.2-0.3 .5-0.6 .8-0.8c0-0.4 .3-0.8 .6-1c.4-0.3 .8-0.4 1.2-0.3c.5 .1 .8 .4 1 .8c.2 .4 .3 .8 .1 1.2c.3 0 .7 .1 .9 .3c.3 .2 .5 .5 .6 .8c.1 .3 .1 .7 0 1c-0.1 .3-0.4 .6-0.7 .7c.2 .1 .4 .2 .5 .3c.2 .1 .3 .2 .4 .4c.1 .2 .1 .3 .2 .5c0 .2 0 .4 0 .6c.2 0 .4 .1 .6 .2c.3 .1 .4 .3 .6 .5c.1 .2 .2 .4 .2 .7c0 .2 0 .4-0.1 .7l.1-0.1c.4 0 .7 .1 1 .2c.1 0 .2 0 .3-0.1c.1 0 .3 0 .4 .1c.1 0 .2 0 .3 0c.1 .1 .3 .1 .4 .2c.4 0 .9 .2 1.2 .6c.2 .4 .3 .9 .2 1.4c-0.2 .4-0.5 .8-1 .9c-0.5 .2-1 .1-1.3-0.2c-0.3 0-0.5 0-0.8-0.2c-0.1 .1-0.2 .1-0.4 .1c-0.2 0-0.3 0-0.4 0c-0.2-0.1-0.3-0.1-0.5-0.2c-0.1-0.1-0.2-0.2-0.3-0.3c-0.3 .2-0.7 .3-1.1 .3c-0.3-0.1-0.7-0.3-0.9-0.6c-0.2-0.3-0.4-0.6-0.3-1c0-0.4 .1-0.7 .4-1c-0.1-0.1-0.1-0.1-0.1-0.2c-0.1-0.1-0.1-0.2-0.1-0.3c0-0.1 0-0.2 0-0.3c0-0.1 0-0.2 0-0.3c-0.2 0-0.5 0-0.7-0.2c0 .2-0.1 .4-0.2 .5c-0.1 .1-0.3 .2-0.4 .3c-0.2 .1-0.3 .2-0.5 .2c-0.2 .1-0.3 .1-0.5 0c0 .1 0 .1 0 .1c0 .1 0 .1 0 .1c0 0 0 .1 0 .1c0 0 0 .1 0 .1c.5 .1 .9 .4 1.1 .9c.1 .4 .1 .9-0.1 1.3c-0.3 .4-0.7 .7-1.1 .7c-0.5 .1-0.9-0.1-1.3-0.4c0 .3-0.1 .6-0.3 .8c-0.2 .2-0.4 .4-0.7 .5c-0.2 0-0.5 .1-0.8 0c-0.3-0.1-0.5-0.2-0.7-0.4c-0.2 .5-0.6 .9-1.1 1c.3 .2 .6 .5 .7 .9c.1-0.4 .4-0.7 .7-0.8c.3-0.2 .7-0.3 1.1-0.2c.3 .1 .7 .3 .9 .6c.2 .4 .3 .7 .2 1.1c.1 .1 .2 .1 .3 .2c.5-0.3 1.1-0.4 1.6-0.1c.5 .2 .8 .8 .8 1.3c0 .6-0.3 1.1-0.8 1.3c-0.5 .3-1.1 .2-1.6-0.1c-0.2 .2-0.5 .3-0.8 .3c-0.3 0-0.6-0.1-0.9-0.3c-0.2-0.1-0.4-0.3-0.5-0.6c-0.2-0.3-0.2-0.6-0.1-0.9c-0.1 0-0.2-0.1-0.3-0.2c-0.1 0-0.2-0.1-0.3-0.2c0-0.1-0.1-0.1-0.2-0.2c0-0.1-0.1-0.2-0.1-0.3c-0.1 .4-0.5 .8-0.9 .9c-0.4 .2-0.9 .2-1.3-0.1c-0.4-0.2-0.7-0.6-0.7-1.1c-0.1-0.5 .1-0.9 .4-1.2c-0.2-0.1-0.3-0.2-0.5-0.4c0 .1-0.1 .3-0.2 .4c-0.1 .1-0.3 .2-0.4 .2c-0.1 .1-0.3 .2-0.4 .2c-0.2 0-0.3 0-0.5 0c-0.1 .1-0.2 .2-0.4 .2c-0.1 .1-0.3 .1-0.4 .1c-0.2 .1-0.3 .1-0.5 0c-0.1 0-0.3-0.1-0.4-0.1c-0.1 .1-0.2 .3-0.4 .4c-0.1 .2-0.3 .3-0.5 .3c-0.2 .1-0.4 .1-0.6 .1c-0.2 0-0.4-0.1-0.6-0.2Zm0-0.3l-0.1 .1c-0.2 0-0.4 .1-0.5 .1c-0.2 0-0.3 0-0.5 0c-0.2-0.1-0.3-0.2-0.4-0.3c-0.2-0.1-0.3-0.2-0.3-0.4l-0.2-0.3l-0.2 .2c-0.2 .1-0.3 .1-0.4 .1c-0.1 0-0.2 .1-0.4 0c-0.1 0-0.2 0-0.3-0.1c-0.1 0-0.2-0.1-0.3-0.1l-0.1-0.1h-0.1c-0.2 0-0.3 0-0.4 0c-0.1 0-0.2-0.1-0.4-0.1c-0.1-0.1-0.2-0.2-0.3-0.3c0 0-0.1-0.1-0.2-0.2l-0.2-0.4l-0.3 .3c-0.1 .1-0.2 .2-0.3 .3l-0.4 .2l.3 .3c.2 .1 .3 .4 .3 .6c.1 .3 0 .5-0.1 .7c-0.1 .3-0.3 .5-0.5 .6c-0.2 .1-0.5 .1-0.7 .1c-0.1 0-0.3 0-0.4-0.1c-0.1 0-0.2-0.1-0.2-0.2c-0.1-0.1-0.2-0.1-0.3-0.2c0-0.1-0.1-0.2-0.1-0.3h-0.6c-0.1 .3-0.4 .6-0.7 .7l-0.2 .1v.3c.1 .2 0 .4 0 .7c-0.1 .2-0.3 .4-0.5 .5c-0.2 .1-0.4 .2-0.7 .2c-0.2 0-0.4-0.1-0.6-0.2l-0.2-0.2l-0.2 .2c-0.2 .1-0.4 .2-0.6 .2c-0.3 0-0.5 0-0.7-0.2c-0.2-0.1-0.4-0.3-0.5-0.5c-0.1-0.2-0.1-0.4-0.1-0.6c0-0.3 .1-0.5 .2-0.6c.2-0.2 .3-0.3 .5-0.4c.2-0.1 .4-0.1 .6-0.1c.2 0 .4 .1 .6 .2l.2 .2l.1-0.2c.1 0 .2-0.1 .3-0.1l.2-0.1v-0.3c-0.1-0.3 0-0.6 .2-0.8c.1-0.3 .4-0.4 .7-0.5c.3-0.1 .6 0 .8 .1c.3 .2 .5 .4 .6 .7h.6c.1-0.3 .3-0.6 .5-0.7l-0.1-0.5c-0.1-0.1-0.2-0.1-0.2-0.2c-0.1 0-0.2-0.1-0.3-0.2c0 0-0.1-0.1-0.2-0.2c0-0.1-0.1-0.2-0.1-0.3l-0.1-0.5l-0.4 .4c-0.1 .1-0.3 .3-0.6 .3c-0.2 .1-0.4 0-0.6 0c-0.2-0.1-0.4-0.2-0.6-0.4c-0.1-0.2-0.2-0.4-0.2-0.6l-0.5-0.2c-0.3 .3-0.7 .4-1 .3c-0.4 0-0.7-0.2-0.9-0.6c-0.2-0.3-0.2-0.7-0.1-1c.2-0.4 .5-0.6 .8-0.7l.2-0.1l.1-0.3c0-0.1 0-0.1 0-0.2l.1-0.4h-0.4c-0.2 .1-0.3 .1-0.5 0c-0.1 0-0.2 0-0.3-0.1c-0.2-0.1-0.3-0.2-0.4-0.3c0-0.1-0.1-0.2-0.2-0.4l-0.1-0.3l-0.3 .2c-0.2 .1-0.4 .1-0.6 .1l-0.3 .1l.1 .3c0 .1 0 .2 0 .2c0 .1 0 .2 0 .3c0 0 0 .1-0.1 .2c0 0 0 .1-0.1 .2l-0.1 .2l.2 .1c.2 .2 .3 .5 .3 .8c0 .3-0.1 .6-0.2 .8c-0.2 .3-0.5 .4-0.8 .5c-0.3 0-0.6-0.1-0.8-0.2l-0.3-0.2l-0.1 .2c-0.1 .1-0.2 .2-0.3 .3c-0.1 0-0.2 .1-0.3 .1c-0.1 0-0.3 0-0.4 0c-0.1 0-0.2 0-0.3 0l-0.2-0.1l-0.1 .1c-0.2 .1-0.4 .1-0.6 .1h-0.1v.1c-0.4 .2-0.8 .3-1.1 .1c-0.4-0.1-0.7-0.4-0.8-0.7c-0.1-0.4 0-0.8 .2-1.1c.2-0.3 .6-0.5 1-0.5h.1c.1-0.1 .2-0.1 .3-0.2c.1 0 .2 0 .3-0.1c0 0 .1 0 .2 0c.1 .1 .2 .1 .3 .1l.2 .1l.1-0.1c0 0 .1-0.1 .2-0.1c.1 0 .1 0 .2-0.1c.1 0 .2 0 .2 0c.1 0 .2 0 .2 .1l.4-0.4c-0.1-0.2-0.1-0.4-0.1-0.6c0-0.2 .1-0.4 .2-0.6c.1-0.1 .2-0.3 .4-0.4c.2 0 .4-0.1 .6-0.1h.3l-0.1-0.4c0-0.1 0-0.3 0-0.4c0-0.2 .1-0.3 .2-0.4c0-0.2 .1-0.3 .3-0.4c.1-0.1 .2-0.2 .3-0.2l.1-0.5c-0.2-0.2-0.4-0.4-0.5-0.6c-0.1-0.3-0.1-0.6 0-0.8c0-0.3 .2-0.5 .4-0.7c.2-0.1 .5-0.2 .8-0.2l.5 .1l-0.2-0.5c-0.1-0.2-0.1-0.4-0.1-0.6c0-0.3 .2-0.6 .4-0.7c.2-0.2 .5-0.3 .8-0.3c.3 0 .6 .1 .8 .3c.2 .2 .4 .5 .4 .8v.2h.2c.3 .1 .5 .4 .6 .6l.2 .4l.3-0.3c.1-0.1 .3-0.2 .5-0.2c.2 0 .4 0 .6 .1c.2 0 .3 .1 .5 .3c.1 .1 .2 .3 .2 .5l.1 .3l.3-0.1c.1 0 .2 0 .3 0c.5 .1 .8 .4 1 .8c.1 .4 .1 .9-0.2 1.2c-0.3 .3-0.8 .5-1.2 .4c-0.5-0.1-0.8-0.5-0.9-0.9l-0.1-0.3l-0.2 .1c-0.2 0-0.3 0-0.4 0c-0.2 0-0.3-0.1-0.4-0.1c-0.1-0.1-0.2-0.2-0.3-0.3c-0.1-0.1-0.2-0.2-0.2-0.3l-0.2-0.3l-0.3 .2c-0.1 .1-0.2 .1-0.3 .2c-0.2 0-0.3 0-0.4 0c-0.2 0-0.3 0-0.4-0.1c-0.2 0-0.3-0.1-0.4-0.2l-0.3-0.3l-0.2 .5c-0.1 .4-0.4 .7-0.8 .8v.6c.2 .1 .4 .4 .5 .7l.1 .3l.4-0.2c.2-0.1 .4-0.1 .6-0.1c.3 0 .5 .1 .7 .2c.2 .2 .3 .4 .4 .6c.1 .2 .1 .4 0 .7l-0.1 .4l.4-0.1c.3 0 .5 0 .7 .1c.2 .1 .4 .3 .5 .5c.2 .2 .2 .4 .2 .6c0 .3 0 .5-0.2 .7l.3 .5h.3c.5 0 .9 .4 1 .8l.1 .5l.4-0.3c.1-0.1 .2-0.2 .4-0.3c.1 0 .2-0.1 .4-0.1c.1 0 .2 0 .4 .1c.1 0 .2 0 .4 .1v.1h.2c.4 0 .7 .3 .9 .6l.2 .4l.3-0.3c.1-0.1 .2-0.2 .4-0.3c.1-0.1 .3-0.1 .4-0.1c.2 0 .3 0 .5 .1c.1 0 .2 .1 .4 .2l.1 .1h.1c.1 0 .3 0 .4 0c.1 0 .2 0 .3 .1c.1 .1 .2 .1 .3 .2c.1 .1 .2 .2 .2 .4l.2 .2l.3-0.1c.1-0.1 .2-0.1 .3-0.1c.1-0.1 .2-0.1 .3-0.1c.1 0 .2 0 .3 .1c.1 0 .2 0 .2 .1l.2 .1l.1-0.1c.1-0.1 .2-0.1 .3-0.1c.1-0.1 .2-0.1 .3-0.1c.1 0 .2 0 .3 .1c.1 0 .2 0 .3 .1l.3 .1l.1-0.3c.1-0.1 .2-0.2 .2-0.3c.1-0.1 .2-0.1 .3-0.2c.2-0.1 .3-0.1 .4-0.1c.1 0 .3 0 .4 0h.1l.1-0.1c.1-0.1 .3-0.2 .4-0.2c.2-0.1 .3-0.1 .5-0.1c.1 0 .3 0 .4 .1c.1 .1 .3 .2 .4 .3l.3 .3l.2-0.4c.1-0.3 .5-0.6 .9-0.6h.1l.1-0.1c.1-0.1 .3-0.1 .4-0.1c.1-0.1 .3-0.1 .4-0.1c.2 0 .3 .1 .4 .1c.1 .1 .3 .2 .4 .3l.3 .3l.2-0.5c0-0.1 .1-0.2 .1-0.4c.1-0.1 .2-0.2 .3-0.3c.2 0 .3-0.1 .4-0.1c.2-0.1 .3-0.1 .5 0l.2-0.5c-0.1-0.2-0.2-0.4-0.2-0.7c0-0.2 .1-0.4 .2-0.6c.2-0.2 .3-0.4 .6-0.5c.2-0.1 .4-0.1 .6 0h.5l-0.1-0.4l-0.1-0.2c0-0.2 0-0.4 .1-0.6c.1-0.2 .3-0.4 .4-0.5c.2-0.2 .4-0.2 .7-0.2c.2 0 .4 0 .6 .1l.3 .2l.1-0.3c.1-0.3 .3-0.5 .6-0.7l-0.1-0.5c-0.1-0.1-0.2-0.1-0.2-0.2c-0.1 0-0.2-0.1-0.3-0.2c0 0-0.1-0.1-0.2-0.2c0-0.1 0-0.2-0.1-0.3l-0.1-0.5l-0.4 .3c-0.1 .1-0.2 .2-0.3 .2c-0.1 .1-0.3 .1-0.4 .1c-0.1 0-0.3 0-0.4 0c-0.1-0.1-0.3-0.1-0.4-0.2l-0.3-0.2l-0.1 .3c-0.1 .1-0.1 .2-0.2 .3c-0.1 .1-0.2 .2-0.3 .3c-0.2 0-0.3 .1-0.4 .1c-0.1 0-0.3 0-0.4 0l-0.3-0.1v.3c-0.1 .5-0.5 .8-1 .9c-0.5 .1-0.9-0.2-1.2-0.6c-0.2-0.3-0.2-0.9 0-1.3c.3-0.4 .7-0.6 1.2-0.5l.3 .1v-0.3c.1-0.2 .2-0.4 .3-0.5c.2-0.2 .3-0.3 .5-0.3c.2-0.1 .4-0.1 .6-0.1c.2 0 .4 .1 .5 .2l.3 .3l.2-0.4c.1-0.2 .3-0.5 .6-0.6h.2v-0.2c0-0.4 .2-0.7 .5-0.9c.3-0.2 .6-0.3 1-0.2c.3 0 .6 .3 .8 .6c.1 .3 .2 .7 0 1l-0.2 .5l.5-0.1c.3 0 .5 .1 .8 .2c.2 .2 .4 .4 .4 .7c.1 .2 .1 .5 0 .8c-0.1 .2-0.3 .4-0.5 .6v.5c.2 0 .3 .1 .4 .2c.1 .1 .2 .2 .3 .3c.1 .2 .1 .3 .2 .5c0 .1 0 .3-0.1 .4v.4h.3c.2 0 .4 .1 .6 .1c.1 .1 .3 .3 .4 .4c.1 .2 .2 .4 .2 .6c0 .2 0 .4-0.1 .6l.3 .4l.1-0.1c.3 0 .6 .1 .8 .2l.1 .1l.2-0.1c.1 0 .1 0 .2-0.1c.1 0 .2 0 .3 0c.1 .1 .2 .1 .3 .1c.1 .1 .2 .1 .3 .2h.1c.4 0 .8 .2 1 .5c.2 .3 .3 .7 .2 1.1c-0.1 .3-0.4 .6-0.8 .8c-0.4 .1-0.8 0-1.1-0.2l-0.1-0.1h-0.1c-0.1 0-0.4 0-0.5-0.1l-0.1-0.1l-0.2 .1c-0.1 0-0.2 0-0.3 0c-0.1 0-0.3 0-0.4 0c-0.1 0-0.2-0.1-0.3-0.1c-0.1-0.1-0.2-0.2-0.3-0.3l-0.2-0.2l-0.2 .2c-0.1 .1-0.3 .1-0.5 .2c-0.2 0-0.5 0-0.7-0.2c-0.2-0.1-0.4-0.3-0.5-0.5c-0.1-0.2-0.2-0.5-0.1-0.7c0-0.3 .1-0.5 .3-0.7l.2-0.1l-0.2-0.2c0-0.1 0-0.2-0.1-0.2c0-0.1 0-0.2 0-0.2c0-0.1 0-0.2 0-0.3c0 0 0-0.1 0-0.2l.1-0.4h-0.4c-0.2 0-0.3 0-0.5-0.1l-0.3-0.2l-0.1 .3c-0.1 .2-0.2 .3-0.2 .4c-0.1 .1-0.2 .2-0.4 .3c-0.1 .1-0.2 .1-0.3 .1c-0.2 .1-0.3 .1-0.5 0h-0.4l.1 .4v.2v.3l.3 .1c.3 .1 .6 .3 .8 .7c.1 .3 .1 .7-0.1 1c-0.2 .4-0.5 .6-0.9 .6c-0.3 .1-0.7 0-1-0.3l-0.5 .2c0 .2-0.1 .4-0.2 .6c-0.2 .2-0.4 .3-0.6 .4c-0.2 0-0.4 .1-0.6 0c-0.3 0-0.5-0.2-0.6-0.3l-0.4-0.4l-0.1 .5c-0.1 .4-0.4 .7-0.8 .8l-0.1 .6c.2 .1 .4 .4 .5 .7h.6c.1-0.3 .3-0.5 .5-0.7c.3-0.1 .6-0.2 .9-0.1c.3 .1 .5 .2 .7 .5c.2 .2 .2 .5 .2 .8v.3l.2 .1c.1 0 .2 .1 .3 .1l.1 .1l.2-0.1c.2-0.1 .4-0.2 .6-0.2c.2 0 .4 0 .6 .1c.2 .1 .3 .2 .4 .4c.2 .2 .3 .3 .3 .5c0 .3 0 .5-0.1 .7c-0.1 .2-0.3 .4-0.5 .5c-0.2 .2-0.4 .2-0.7 .2c-0.2 0-0.4-0.1-0.6-0.2l-0.2-0.2l-0.2 .2c-0.2 .1-0.4 .2-0.6 .2c-0.3 0-0.5-0.1-0.7-0.2c-0.2-0.1-0.4-0.3-0.5-0.5c0-0.3-0.1-0.5 0-0.7v-0.3l-0.2-0.1c-0.1 0-0.2-0.1-0.3-0.1c0-0.1-0.1-0.1-0.2-0.2c0 0-0.1-0.1-0.1-0.2c-0.1-0.1-0.1-0.2-0.1-0.2h-0.6c-0.1 .3-0.4 .6-0.7 .7c-0.4 .2-0.7 .2-1.1 0c-0.3-0.2-0.5-0.6-0.5-0.9c-0.1-0.4 .1-0.8 .3-1l.3-0.3l-0.4-0.2c0 0 0-0.1-0.1-0.1c0 0 0 0-0.1 0c0-0.1 0-0.1-0.1-0.1c0 0 0-0.1 0-0.1l-0.3-0.3l-0.2 .4c-0.1 .1-0.2 .2-0.2 .2c-0.1 .1-0.2 .2-0.3 .3c-0.2 0-0.3 .1-0.4 .1c-0.1 0-0.2 0-0.3 0h-0.2l-0.1 .1c-0.1 0-0.2 .1-0.3 .2c-0.1 0-0.2 0-0.4 0c-0.1 .1-0.2 .1-0.3 0c-0.1 0-0.3 0-0.4-0.1l-0.2-0.2l-0.2 .3c0 .2-0.1 .3-0.3 .4c-0.1 .1-0.2 .2-0.4 .3c-0.2 0-0.3 0-0.5 0c-0.1 0-0.3-0.1-0.4-0.1l-0.2-0.1Zm17.1 .5c0 .4-0.1 .8-0.3 1.1c-0.2 .3-0.6 .6-1 .6c-0.4 .1-0.8-0.1-1.2-0.3c-0.3-0.3-0.5-0.6-0.5-1.1c0-0.3 .1-0.7 .3-1c.3-0.3 .6-0.5 1-0.6c.4 0 .8 .1 1.1 .3c.3 .2 .5 .6 .6 1Zm-34.2 0c0 .4 .1 .8 .3 1.1c.2 .3 .6 .6 1 .6c.4 .1 .8-0.1 1.2-0.3c.3-0.3 .5-0.6 .5-1.1c0-0.3-0.1-0.7-0.3-1c-0.3-0.3-0.6-0.5-1-0.6c-0.4 0-0.8 .1-1.1 .3c-0.3 .2-0.5 .6-0.6 1Zm33.9 0c0 .3 0 .7-0.2 .9c-0.2 .3-0.5 .5-0.9 .5c-0.3 .1-0.6 0-0.9-0.2c-0.2-0.2-0.4-0.6-0.4-0.9c0-0.3 .1-0.6 .3-0.8c.2-0.3 .4-0.4 .7-0.4c.3-0.1 .6 0 .9 .2c.2 .1 .4 .4 .5 .7Zm-33.6 0c.1-0.3 .2-0.6 .5-0.8c.2-0.2 .6-0.3 .9-0.2c.3 0 .6 .2 .8 .4c.2 .3 .3 .6 .2 .9c0 .3-0.2 .6-0.5 .8c-0.2 .2-0.5 .3-0.8 .2c-0.4 0-0.6-0.2-0.8-0.4c-0.2-0.3-0.3-0.6-0.3-0.9Z" fill="#989809"/><path d="M23.6 24c.1 0 .1 0 .2 .1c.4 0 .8 .2 1 .6c.1 0 .2 0 .3 0c.1 0 .2 0 .2 .1c.1 0 .2 0 .3 .1c0 0 .1 .1 .2 .1c.3-0.3 .7-0.4 1.1-0.4c.5 0 .9 .2 1.1 .6c.3 .3 .4 .8 .3 1.2c-0.1 .4-0.3 .8-0.7 1c.2 0 .3 .1 .4 .2c.1 .1 .3 .2 .4 .3c0 .1 .1 .3 .2 .4c0 .1 .1 .3 .1 .4c.6 0 1.1 .4 1.4 .9c.2 .6 .1 1.2-0.3 1.7c-0.4 .4-1 .6-1.6 .3c-0.6-0.2-1-0.7-1-1.3c-0.3 0-0.7-0.1-0.9-0.3c-0.3-0.2-0.5-0.4-0.6-0.8c-0.1-0.3-0.1-0.6 .1-0.9c.1-0.3 .3-0.6 .6-0.8c0 0 0 0 0 0c0 0 0 0-0.1 0c0 0 0 0 0 0c0 0 0 0 0 0c-0.2 .2-0.4 .4-0.6 .5c-0.3 .1-0.5 .1-0.8 .1c-0.2 0-0.5-0.1-0.7-0.3c-0.2-0.1-0.4-0.4-0.5-0.6c0 0 0 0 0 0c0 0 0 0-0.1-0.1c0 0 0 0 0 0c0 0 0 0 0 0l-0.1 .1c-0.1 .2-0.3 .5-0.5 .6c-0.2 .2-0.4 .3-0.7 .3c-0.3 0-0.5 0-0.8-0.1c-0.2-0.1-0.4-0.3-0.6-0.5h-0.1c.3 .2 .5 .5 .6 .8c.2 .3 .2 .6 .1 .9c-0.1 .4-0.3 .6-0.6 .8c-0.2 .2-0.6 .3-0.9 .3v.1c-0.1 .6-0.5 1.1-1.1 1.3c-0.5 .1-1.1 0-1.5-0.5c-0.4-0.4-0.5-1.1-0.3-1.6c.3-0.5 .8-0.9 1.4-0.9v-0.1c.1-0.6 .5-1.1 1.1-1.2c-0.4-0.2-0.6-0.6-0.7-1c-0.1-0.4 0-0.9 .3-1.2c.2-0.4 .6-0.6 1.1-0.6c.4 0 .8 .1 1.1 .4c.1 0 .2-0.1 .2-0.1c.1-0.1 .2-0.1 .3-0.1c0-0.1 .1-0.1 .2-0.1c.1 0 .2 0 .3 0c0-0.1 .1-0.2 .2-0.3c.1-0.1 .2-0.2 .3-0.2c.1-0.1 .2-0.1 .3-0.1c.2-0.1 .3-0.1 .4-0.1Zm12.7-5.9c.1-0.7 .7-1.1 1.4-1.1c.7-0.1 1.3 .4 1.5 1c.2 .6-0.1 1.3-0.6 1.7c-0.6 .4-1.3 .3-1.8-0.1c-0.2 .7-0.8 1.1-1.4 1.1c-0.7 .1-1.3-0.4-1.5-1c-0.2-0.6 0-1.3 .6-1.7c.5-0.4 1.3-0.3 1.8 .1Zm-25.4 0c-0.1-0.7-0.7-1.1-1.4-1.1c-0.7-0.1-1.3 .4-1.5 1c-0.2 .6 .1 1.3 .6 1.7c.6 .4 1.3 .3 1.8-0.1c.2 .7 .8 1.1 1.4 1.1c.7 .1 1.3-0.4 1.5-1c.2-0.6 0-1.3-0.6-1.7c-0.5-0.4-1.3-0.3-1.8 .1Zm22.7-0.9c.1 .4 0 .8-0.2 1.2c-0.3 .3-0.6 .5-1 .6c-0.4 0-0.9-0.1-1.2-0.3c-0.3-0.3-0.5-0.7-0.5-1.1c-0.1-0.4 .1-0.7 .3-1c.2-0.3 .6-0.5 1-0.6c.3 0 .7 0 1 .3c.4 .2 .6 .5 .6 .9Zm-20 0c-0.1 .4 0 .8 .2 1.2c.3 .3 .6 .5 1 .6c.4 0 .9-0.1 1.2-0.3c.3-0.3 .5-0.7 .5-1.1c.1-0.4-0.1-0.7-0.3-1c-0.2-0.3-0.6-0.5-1-0.6c-0.3 0-0.7 0-1 .3c-0.4 .2-0.6 .5-0.6 .9Zm13.7 .5c-0.4 .4-1.1 .6-1.7 .3c-0.5-0.2-0.9-0.7-0.9-1.4c0-0.6 .4-1.1 1-1.4c.5-0.2 1.2 0 1.6 .4c.4-0.4 1.1-0.6 1.7-0.3c.5 .2 .9 .7 .9 1.4c0 .6-0.4 1.1-1 1.4c-0.5 .2-1.2 0-1.6-0.4Zm-7.4 0c.4 .4 1.1 .6 1.7 .3c.5-0.2 .9-0.7 .9-1.4c0-0.6-0.4-1.1-1-1.4c-0.5-0.2-1.2 0-1.6 .4c-0.4-0.4-1.1-0.6-1.7-0.3c-0.5 .2-0.9 .7-0.9 1.4c0 .6 .4 1.1 1 1.4c.5 .2 1.2 0 1.6-0.4Z" fill="#d2712c"/><path d="M23.6 24c.1 0 .1 0 .2 .1c.4 0 .8 .2 1 .6c.1 0 .2 0 .3 0c.1 0 .2 0 .2 .1c.1 0 .2 0 .3 .1c0 0 .1 .1 .2 .1c.3-0.3 .7-0.4 1.1-0.4c.5 0 .9 .2 1.1 .6c.3 .3 .4 .8 .3 1.2c-0.1 .4-0.3 .8-0.7 1c.2 0 .3 .1 .4 .2c.1 .1 .3 .2 .4 .3c0 .1 .1 .3 .2 .4c0 .1 .1 .3 .1 .4c.6 0 1.1 .4 1.4 .9c.2 .6 .1 1.2-0.3 1.7c-0.4 .4-1 .6-1.6 .3c-0.6-0.2-1-0.7-1-1.3c-0.3 0-0.7-0.1-0.9-0.3c-0.3-0.2-0.5-0.4-0.6-0.8c-0.1-0.3-0.1-0.6 .1-0.9c.1-0.3 .3-0.6 .6-0.8c0 0 0 0 0 0c0 0 0 0-0.1 0c0 0 0 0 0 0c0 0 0 0 0 0c-0.2 .2-0.4 .4-0.6 .5c-0.3 .1-0.5 .1-0.8 .1c-0.2 0-0.5-0.1-0.7-0.3c-0.2-0.1-0.4-0.4-0.5-0.6c0 0 0 0 0 0c0 0 0 0-0.1-0.1c0 0 0 0 0 0c0 0 0 0 0 0l-0.1 .1c-0.1 .2-0.3 .5-0.5 .6c-0.2 .2-0.4 .3-0.7 .3c-0.3 0-0.5 0-0.8-0.1c-0.2-0.1-0.4-0.3-0.6-0.5h-0.1c.3 .2 .5 .5 .6 .8c.2 .3 .2 .6 .1 .9c-0.1 .4-0.3 .6-0.6 .8c-0.2 .2-0.6 .3-0.9 .3v.1c-0.1 .6-0.5 1.1-1.1 1.3c-0.5 .1-1.1 0-1.5-0.5c-0.4-0.4-0.5-1.1-0.3-1.6c.3-0.5 .8-0.9 1.4-0.9v-0.1c.1-0.6 .5-1.1 1.1-1.2c-0.4-0.2-0.6-0.6-0.7-1c-0.1-0.4 0-0.9 .3-1.2c.2-0.4 .6-0.6 1.1-0.6c.4 0 .8 .1 1.1 .4c.1 0 .2-0.1 .2-0.1c.1-0.1 .2-0.1 .3-0.1c0-0.1 .1-0.1 .2-0.1c.1 0 .2 0 .3 0c0-0.1 .1-0.2 .2-0.3c.1-0.1 .2-0.2 .3-0.2c.1-0.1 .2-0.1 .3-0.1c.2-0.1 .3-0.1 .4-0.1Zm0 .3h.2c.3 .1 .6 .3 .8 .5l.1 .1l.2 .1c.3 0 .5 .1 .7 .3l.2 .2l.2-0.2c.2-0.3 .6-0.4 .9-0.4c.4 0 .7 .2 .9 .4c.2 .3 .3 .7 .2 1c0 .4-0.2 .7-0.5 .8v.6c.5 .1 .8 .5 .9 1v.3h.3c.5 0 .9 .3 1.1 .7c.2 .5 .1 1-0.2 1.3c-0.3 .4-0.8 .5-1.2 .4c-0.5-0.1-0.8-0.5-0.9-1v-0.4h-0.3c-0.3 0-0.5-0.1-0.7-0.2c-0.2-0.2-0.4-0.4-0.5-0.7c0-0.2 0-0.5 .1-0.7c.1-0.3 .2-0.5 .5-0.6l-0.1-0.6l-0.3-0.1l-0.1 .2c-0.2 .2-0.3 .3-0.5 .4c-0.2 .1-0.4 .1-0.7 .1c-0.2 0-0.4-0.1-0.5-0.2c-0.2-0.2-0.3-0.3-0.4-0.5l-0.1-0.1l-0.1-0.1l-0.2-0.3l-0.2 .3l-0.2 .1v.1c-0.1 .2-0.2 .3-0.4 .5c-0.1 .1-0.3 .2-0.5 .2c-0.3 0-0.5 0-0.7-0.1c-0.2-0.1-0.3-0.2-0.4-0.4l-0.2-0.2l-0.3 .1l-0.1 .6c.3 .1 .4 .3 .5 .6c.1 .2 .2 .5 .1 .8c-0.1 .2-0.3 .4-0.5 .6c-0.2 .1-0.4 .2-0.7 .2h-0.3v.4c-0.1 .5-0.4 .9-0.9 1c-0.4 .1-0.9 0-1.2-0.4c-0.3-0.3-0.4-0.8-0.2-1.3c.2-0.4 .6-0.7 1.1-0.7h.3v-0.3c.1-0.5 .4-0.9 .9-1v-0.6c-0.3-0.1-0.5-0.4-0.5-0.8c-0.1-0.3 0-0.7 .2-0.9c.2-0.3 .5-0.5 .9-0.5c.3 0 .7 .1 .9 .4l.2 .2l.2-0.2c.2-0.2 .4-0.3 .7-0.3l.2-0.1l.1-0.1c.2-0.2 .5-0.4 .8-0.5h.2Zm12.7-6.2c.1-0.7 .7-1.1 1.4-1.1c.7-0.1 1.3 .4 1.5 1c.2 .6-0.1 1.3-0.6 1.7c-0.6 .4-1.3 .3-1.8-0.1c-0.2 .7-0.8 1.1-1.4 1.1c-0.7 .1-1.3-0.4-1.5-1c-0.2-0.6 0-1.3 .6-1.7c.5-0.4 1.3-0.3 1.8 .1Zm-25.4 0c-0.1-0.7-0.7-1.1-1.4-1.1c-0.7-0.1-1.3 .4-1.5 1c-0.2 .6 .1 1.3 .6 1.7c.6 .4 1.3 .3 1.8-0.1c.2 .7 .8 1.1 1.4 1.1c.7 .1 1.3-0.4 1.5-1c.2-0.6 0-1.3-0.6-1.7c-0.5-0.4-1.3-0.3-1.8 .1Zm25.5 .5l.2-0.4c.1-0.5 .6-0.9 1.1-0.9c.5-0.1 1 .3 1.2 .8c.1 .5 0 1-0.5 1.3c-0.4 .3-1 .3-1.4 0l-0.4-0.3l-0.1 .4c-0.1 .6-0.6 .9-1.1 1c-0.6 0-1-0.4-1.2-0.9c-0.2-0.5 0-1 .4-1.3c.5-0.3 1.1-0.3 1.5 0l.3 .3Zm-25.6 0l.3-0.3c.4-0.3 1-0.3 1.5 0c.4 .3 .6 .8 .4 1.3c-0.2 .5-0.6 .9-1.2 .9c-0.5-0.1-1-0.4-1.1-1l-0.1-0.4l-0.4 .3c-0.4 .3-1 .3-1.4 0c-0.5-0.3-0.6-0.8-0.5-1.3c.2-0.5 .7-0.9 1.2-0.8c.5 0 1 .4 1.1 .9l.1 .4Zm22.8-1.4c.1 .4 0 .9-0.2 1.2c-0.3 .3-0.6 .5-1 .6c-0.5 .1-0.9-0.1-1.2-0.3c-0.3-0.3-0.5-0.7-0.5-1.1c-0.1-0.4 .1-0.8 .3-1c.2-0.3 .6-0.5 1-0.6c.4 0 .7 .1 1 .3c.4 .2 .6 .5 .6 .9Zm-20 0c-0.1 .4 0 .9 .2 1.2c.3 .3 .6 .5 1 .6c.5 .1 .9-0.1 1.2-0.3c.3-0.3 .5-0.7 .5-1.1c.1-0.4-0.1-0.8-0.3-1c-0.2-0.3-0.6-0.5-1-0.6c-0.4 0-0.7 .1-1 .3c-0.4 .2-0.6 .5-0.6 .9Zm19.7 .1c.1 .3 0 .6-0.1 .9c-0.2 .3-0.5 .5-0.9 .5c-0.3 .1-0.6 0-0.9-0.3c-0.3-0.2-0.4-0.5-0.4-0.8c0-0.3 .1-0.6 .2-0.8c.2-0.3 .5-0.4 .8-0.5c.3 0 .6 .1 .9 .2c.2 .2 .4 .5 .4 .8Zm-19.4 0c0-0.4 .1-0.7 .4-0.9c.2-0.2 .6-0.3 .9-0.3c.4 .1 .7 .3 .8 .5c.2 .3 .3 .7 .2 1c0 .3-0.2 .5-0.5 .7c-0.2 .2-0.5 .2-0.8 .2c-0.3 0-0.6-0.2-0.8-0.4c-0.2-0.2-0.3-0.5-0.2-0.8Zm13.4 .4c-0.4 .4-1.1 .6-1.7 .3c-0.5-0.2-0.9-0.7-0.9-1.4c0-0.6 .4-1.1 1-1.4c.5-0.2 1.2 0 1.6 .4c.4-0.4 1.1-0.6 1.7-0.3c.5 .2 .9 .7 .9 1.4c0 .6-0.4 1.1-1 1.4c-0.5 .2-1.2 0-1.6-0.4Zm-7.4 0c.4 .4 1.1 .6 1.7 .3c.5-0.2 .9-0.7 .9-1.4c0-0.6-0.4-1.1-1-1.4c-0.5-0.2-1.2 0-1.6 .4c-0.4-0.4-1.1-0.6-1.7-0.3c-0.5 .2-0.9 .7-0.9 1.4c0 .6 .4 1.1 1 1.4c.5 .2 1.2 0 1.6-0.4Zm7.4-0.5l-0.2 .3c-0.4 .3-0.9 .4-1.3 .3c-0.5-0.2-0.8-0.7-0.8-1.2c0-0.5 .3-0.9 .8-1.1c.4-0.2 1 0 1.3 .3l.2 .3l.2-0.3c.4-0.3 .9-0.4 1.3-0.3c.5 .2 .8 .7 .8 1.1c0 .5-0.3 1-0.8 1.2c-0.4 .1-0.9 0-1.3-0.3l-0.2-0.3Zm-7.4 0l-0.2 .3c-0.4 .3-0.9 .4-1.3 .3c-0.5-0.2-0.8-0.7-0.8-1.2c0-0.4 .3-0.9 .8-1.1c.4-0.1 .9 0 1.3 .3l.2 .3l.2-0.3c.3-0.3 .9-0.4 1.3-0.3c.5 .2 .8 .7 .8 1.1c0 .5-0.3 1-0.8 1.2c-0.4 .1-1 0-1.3-0.3l-0.2-0.3Z" fill="#989809"/></g><g id="Lopinivir" stroke="#396d96" stroke-width=".3" fill-rule="evenodd" clip-rule="evenodd" stroke-linecap="round" stroke-miterlimit="1.8" opacity="0" transform="translate(29.1,430.1) translate(0,0) rotate(-120) scale(2.9,2.9) translate(-6.1,-9.1)"><path d="M5.9 1.2c.1 0 .2-0.1 .3-0.1c.2 0 .3 0 .4 0c.1 0 .3 0 .4 0c.1 0 .2 .1 .3 .2c.2-0.2 .5-0.2 .8-0.2c.2-0.1 .5 0 .7 .1c.2 .2 .4 .4 .5 .6c.2 .2 .2 .4 .2 .7c0 .3 0 .5-0.1 .7c.3 .3 .6 .8 .6 1.3c.2 .1 .4 .2 .6 .3c.2 .2 .3 .4 .4 .6c.1 .2 .1 .4 .1 .6c0 .2-0.1 .4-0.2 .6c.2 .1 .4 .3 .6 .4c.1 .2 .2 .4 .3 .7c0 .2 0 .4 0 .6c-0.1 .3-0.2 .5-0.3 .7c0 .1 .1 .3 .1 .5c0 .2 0 .4-0.1 .6c-0.1 .2-0.2 .3-0.3 .5c-0.2 .1-0.3 .2-0.5 .3v.1c0 .4-0.2 .9-0.5 1.1c.2 .3 .4 .6 .4 1c0 .3-0.1 .5-0.2 .7c-0.1 .2-0.2 .4-0.4 .5c-0.2 .1-0.4 .2-0.6 .3c-0.2 0-0.4 0-0.7 0c0 .1-0.1 .2-0.2 .3c0 .2 0 .5 0 .7c-0.1 .2-0.1 .4-0.3 .6c-0.1 .1-0.3 .3-0.5 .4c-0.2 .1-0.4 .1-0.6 .1c-0.1 .2-0.3 .4-0.5 .5c-0.2 .1-0.5 .2-0.7 .2c-0.3 0-0.5 0-0.7-0.1c-0.2-0.2-0.4-0.3-0.6-0.5c-0.1-0.1-0.3-0.1-0.4-0.2c-0.2-0.1-0.3-0.2-0.4-0.3c-0.1-0.2-0.2-0.3-0.3-0.5c0-0.1-0.1-0.3-0.1-0.5c-0.2-0.1-0.4-0.2-0.5-0.4c-0.1-0.1-0.3-0.3-0.3-0.5c-0.1-0.2-0.1-0.4-0.1-0.6c0-0.3 .1-0.5 .2-0.6c-0.2-0.2-0.3-0.3-0.4-0.5c-0.1-0.2-0.1-0.4-0.1-0.6c0-0.2 0-0.4 .1-0.6c.1-0.2 .2-0.4 .3-0.5v-0.1c-0.3 .2-0.7 .2-1.1 .1c-0.3-0.1-0.6-0.3-0.8-0.6c-0.2-0.3-0.3-0.7-0.2-1c0-0.4 .2-0.7 .5-0.9c0-0.2 .1-0.5 .2-0.7c.1-0.2 .3-0.3 .5-0.4c.2-0.2 .4-0.2 .6-0.3c.3 0 .5 0 .7 .1c.2-0.1 .4-0.2 .6-0.2c.2 0 .4 0 .6 0c.2 .1 .4 .2 .6 .3c.1 .1 .3 .3 .3 .5c.2-0.2 .4-0.3 .7-0.3c-0.1-0.2-0.1-0.4-0.1-0.5c0-0.2 0-0.4 0-0.5c.1-0.2 .2-0.3 .3-0.4c.1-0.2 .2-0.3 .3-0.4c-0.3-0.1-0.6-0.3-0.8-0.5c-0.1-0.1-0.2-0.2-0.3-0.3c-0.1 0-0.2-0.1-0.3-0.3c0-0.1-0.1-0.2-0.1-0.3c-0.1-0.2-0.1-0.3-0.1-0.4c-0.3-0.2-0.5-0.5-0.6-0.8c-0.1-0.4 0-0.7 .1-1c.2-0.3 .4-0.6 .7-0.7c.3-0.2 .7-0.2 1-0.1Zm0 12.8l-0.2 .1c.1 0 .2 .1 .2 .2h.1c0-0.1 0-0.1 0-0.1c0 0-0.1 0-0.1 0c0-0.1 0-0.1 0-0.1c0 0 0 0 0-0.1Z" fill="#9b5dac"/><path d="M2.1 11.1c-0.6 .1-1.2-0.2-1.5-0.7c-0.3-0.6-0.2-1.3 .2-1.7c.4-0.5 1.1-0.7 1.7-0.4c.5 .2 .9 .8 .8 1.4h.3c.5 0 1.1 .4 1.3 .8c.2-0.2 .5-0.4 .9-0.5c.3-0.1 .7 0 1 .2c.3 .2 .6 .5 .7 .8c.1 .3 .1 .7-0.1 1c.1 0 .2 0 .3 0c.1 0 .3 0 .4 0c.1 0 .2 0 .3 .1c.1 0 .2 0 .3 .1c.4-0.3 1-0.4 1.5-0.2c.5 .2 .9 .7 .9 1.3c0 .5-0.3 1.1-0.7 1.3c-0.5 .3-1.1 .3-1.6 0c-0.1 .1-0.3 .2-0.5 .2c-0.1 .1-0.3 .1-0.5 .1c-0.2 0-0.3 0-0.5-0.1c-0.2-0.1-0.3-0.2-0.4-0.3c-0.2 .2-0.5 .4-0.8 .4l.1 .3c0 .4-0.2 .8-0.5 1.1c-0.3 .3-0.7 .5-1.1 .5c-0.4-0.1-0.8-0.3-1.1-0.6c-0.2-0.3-0.3-0.7-0.3-1.1c-0.2-0.1-0.4-0.2-0.5-0.3c-0.2-0.1-0.3-0.3-0.4-0.5c-0.1-0.2-0.2-0.4-0.2-0.6c0-0.2 0-0.4 .1-0.6c-0.1-0.1-0.2-0.3-0.3-0.5c-0.1-0.1-0.1-0.3-0.1-0.5c0-0.1 0-0.3 .1-0.5c0-0.1 .1-0.3 .2-0.4v-0.1Zm3.8-5.6c-0.6 0-1.1-0.4-1.3-1.1c-0.2-0.6 .1-1.2 .6-1.6c.5-0.3 1.2-0.3 1.7 0c.5 .4 .7 1.1 .5 1.7c.4 0 .7 .1 .9 .4c.3 .2 .4 .5 .5 .8c0 .3 0 .6-0.2 .9c-0.1 .3-0.3 .5-0.6 .7v.2c0 .5-0.3 1-0.8 1.3c-0.4 .3-1 .3-1.5 0c-0.4-0.3-0.7-0.8-0.7-1.4c.1-0.5 .4-1 .9-1.2c0-0.1 0-0.1 0-0.2c0 0 0-0.1 0-0.2c0 0 0-0.1 0-0.1c0-0.1 0-0.1 0-0.2Z" fill="#b677c7"/><path d="M6.4 11.9c.1-0.6 .5-1 1-1.2c.5-0.1 1.1 0 1.5 .4c.4 .4 .5 1 .4 1.5c-0.2 .5-0.6 .9-1.2 1c0 .4-0.3 .7-0.6 .9c.1 .2 .2 .4 .2 .7c0 .5-0.3 1-0.7 1.2c-0.5 .3-1 .3-1.5 .1c-0.4-0.2-0.7-0.7-0.8-1.2c0-0.6 .3-1 .7-1.3c-0.1-0.2-0.2-0.5-0.2-0.7c0-0.2 .1-0.4 .2-0.6c.1-0.2 .2-0.4 .4-0.6c.2-0.1 .4-0.2 .6-0.2Zm-3.6-5.1c.4-0.3 1-0.4 1.5-0.3c.5 .2 .8 .6 .9 1.1c.2 .5 0 1-0.4 1.4c-0.3 .3-0.9 .5-1.4 .3c-0.2 .2-0.5 .3-0.7 .4c-0.3 0-0.6 0-0.9-0.1c-0.2-0.2-0.4-0.3-0.6-0.6c-0.1-0.2-0.2-0.5-0.2-0.8c0-0.2 .1-0.4 .2-0.6c.1-0.2 .2-0.4 .4-0.5c.2-0.2 .4-0.3 .6-0.3c.2-0.1 .4-0.1 .6 0Zm4.4-5.7c.4-0.2 .8-0.3 1.2-0.2c.5 .1 .8 .4 1 .8c.2 .3 .2 .8 .1 1.2c-0.2 .4-0.5 .7-0.9 .8c.1 .2 .2 .3 .3 .5c.1 .2 .2 .3 .2 .5c0 .2-0.1 .4-0.1 .6c-0.1 .2-0.2 .3-0.3 .5c.4 .1 .8 .5 .9 1c.5-0.4 1.2-0.3 1.7 .1c.5 .4 .7 1.1 .5 1.7c-0.3 .6-0.9 .9-1.5 .9c-0.6 0-1.2-0.5-1.3-1.1c-0.3 .1-0.5 .2-0.8 .2c-0.3 0-0.5 0-0.8-0.2c-0.2-0.1-0.4-0.3-0.5-0.5c-0.1-0.2-0.2-0.5-0.2-0.8c0-0.3 .1-0.7 .3-0.9c-0.2-0.1-0.4-0.2-0.5-0.4c-0.2-0.2-0.3-0.4-0.3-0.6c-0.1-0.2-0.1-0.5-0.1-0.7c.1-0.2 .2-0.4 .3-0.6c-0.4 .3-1 .4-1.4 .2c-0.5-0.1-0.9-0.5-1-1c-0.1-0.4 0-1 .3-1.3c.3-0.4 .8-0.6 1.3-0.5c.1-0.1 .3-0.2 .4-0.2c.1-0.1 .3-0.1 .4-0.1c.2-0.1 .3 0 .4 0c.2 0 .3 .1 .4 .1Z" fill="#cf9edd"/></g></g></g><script xlink:href="keyshapejs-1.1.0.min.js"/><script><![CDATA[if(KeyshapeJS.version.indexOf('1.')!=0)throw Error('Expected KeyshapeJS v1.*.*');window.ks=document.ks=KeyshapeJS;(function(ks){
ks.animate("#Strands",[{p:'opacity',t:[3000,3500,3542,4000],v:[1,0,0,1],e:[[0],[1,0,0,1,1],[0],[0]]}],
"#Strand-1",[{p:'rotate',t:[0,1000,2000,3000,4000,5000,6000],v:[0,5,0,5,0,5,0],e:[[1,.4,0,.6,1],[1,.4,0,.6,1],[1,.4,0,.6,1],[1,.4,0,.6,1],[1,.4,0,.6,1],[1,.4,0,.6,1],[0]]}],
"#_a0",[{p:'mpath',t:[0,1000,2000,3000,3500,3542],v:['0%','6.1%','12.2%','18.4%','18.4%','100%'],e:[[1,.4,0,.6,1],[1,.4,0,.6,1],[1,.4,0,.6,1],[0],[0],[0]],mp:"M16.9,213.2L19.9,211.2L16.9,213.2L19.9,211.2L19.9,211.2L16.9,163.2"}],
"#_a1",[{p:'mpath',t:[0,1000,2000,3000,3500,3542],v:['0%','8.9%','17.7%','26.6%','26.6%','100%'],e:[[1,.4,0,.6,1],[1,.4,0,.6,1],[1,.4,0,.6,1],[0],[0],[0]],mp:"M14.2,185.9L17.8,183.4L14.2,185.9L17.8,183.4L17.8,183.4L14.2,147.9"}],
"#_a2",[{p:'mpath',t:[0,1000,2000,3000,3500,3542],v:['0%','8.6%','17.3%','25.9%','25.9%','100%'],e:[[1,.4,0,.6,1],[1,.4,0,.6,1],[1,.4,0,.6,1],[0],[0],[0]],mp:"M15.2,161.9L11.8,162.9L15.2,161.9L11.8,162.9L11.8,162.9L15.2,131.9"}],
"#_a3",[{p:'mpath',t:[0,1000,2000,3000,3500,3542],v:['0%','10.1%','20.2%','30.3%','30.3%','100%'],e:[[1,.4,0,.6,1],[1,.4,0,.6,1],[1,.4,0,.6,1],[0],[0],[0]],mp:"M19.6,143.2L23.1,145.8L19.6,143.2L23.1,145.8L23.1,145.8L19.6,116.2"}],
"#_a4",[{p:'mpath',t:[0,1000,2000,3000,3500,3542],v:['0%','22.4%','44.8%','67.3%','67.3%','100%'],e:[[1,.4,0,.6,1],[1,.4,0,.6,1],[1,.4,0,.6,1],[0],[0],[0]],mp:"M25.6,106.6L29.1,105.6L25.6,106.6L29.1,105.6L29.1,105.6L25.6,101.6"}],
"#_a5",[{p:'mpath',t:[0,1000,2000,3000,3500,3542],v:['0%','18.7%','37.4%','56.2%','56.2%','100%'],e:[[1,.4,0,.6,1],[1,.4,0,.6,1],[1,.4,0,.6,1],[0],[0],[0]],mp:"M27.9,77.2L24.4,77.8L27.9,77.2L24.4,77.8L24.4,77.8L27.9,85.2"}],
"#_a6",[{p:'mpath',t:[0,1000,2000,3000,3500,3542],v:['0%','9.3%','18.6%','27.9%','27.9%','100%'],e:[[1,.4,0,.6,1],[1,.4,0,.6,1],[1,.4,0,.6,1],[0],[0],[0]],mp:"M22.6,49.6L24.1,47.1L22.6,49.6L24.1,47.1L24.1,47.1L22.6,69.6"}],
"#_a7",[{p:'mpath',t:[0,1000,2000,3000,3500,3542],v:['0%','10%','20%','30%','30%','100%'],e:[[1,.4,0,.6,1],[1,.4,0,.6,1],[1,.4,0,.6,1],[0],[0],[0]],mp:"M15.2,25.2L11.8,27.2L15.2,25.2L11.8,27.2L11.8,27.2L15.2,55.2"}],
"#_a8",[{p:'mpath',t:[0,1000,2000,3000,3500,3542],v:['0%','6.5%','13%','19.5%','19.5%','100%'],e:[[1,.4,0,.6,1],[1,.4,0,.6,1],[1,.4,0,.6,1],[0],[0],[0]],mp:"M9.6,3.2L12.6,3.2L9.6,3.2L12.6,3.2L12.6,3.2L9.6,40.2"}],
"#_a9",[{p:'mpath',t:[0,1000,2000,3000,3500,3542],v:['0%','6.1%','12.2%','18.4%','18.4%','100%'],e:[[1,.4,0,.6,1],[1,.4,0,.6,1],[1,.4,0,.6,1],[0],[0],[0]],mp:"M8.2,-26.4L5.2,-24.4L8.2,-26.4L5.2,-24.4L5.2,-24.4L8.2,23.6"}],
"#_a10",[{p:'mpath',t:[0,1000,2000,3000,3500,3542],v:['0%','4.4%','8.7%','13.1%','13.1%','100%'],e:[[1,.4,0,.6,1],[1,.4,0,.6,1],[1,.4,0,.6,1],[0],[0],[0]],mp:"M14.6,-51.8L11.6,-52.2L14.6,-51.8L11.6,-52.2L11.6,-52.2L14.6,8.2"}],
"#Strand-2",[{p:'rotate',t:[0,1000,2000,3000,4000,5000,6000],v:[0,-5,0,-5,0,-5,0],e:[[1,.4,0,.6,1],[1,.4,0,.6,1],[1,.4,0,.6,1],[1,.4,0,.6,1],[1,.4,0,.6,1],[1,.4,0,.6,1],[0]]}],
"#_a11",[{p:'mpath',t:[0,1000,2000,3000,3500,3542],v:['0%','10.5%','21.1%','31.6%','31.6%','100%'],e:[[1,.4,0,.6,1],[1,.4,0,.6,1],[1,.4,0,.6,1],[0],[0],[0]],mp:"M11.8,87.2L8.8,86.8L11.8,87.2L8.8,86.8L8.8,86.8L11.8,67.2"}],
"#_a12",[{p:'mpath',t:[0,1000,2000,3000,3500,3542],v:['0%','27.3%','54.5%','81.8%','81.8%','100%'],e:[[1,.4,0,.6,1],[1,.4,0,.6,1],[1,.4,0,.6,1],[0],[0],[0]],mp:"M8.2,49L11.8,53.5L8.2,49L11.8,53.5L11.8,53.5L8.2,52"}],
"#_a13",[{p:'mpath',t:[0,1000,2000,3000,3500,3542],v:['0%','20.4%','40.7%','61.1%','61.1%','100%'],e:[[1,.4,0,.6,1],[1,.4,0,.6,1],[1,.4,0,.6,1],[0],[0],[0]],mp:"M11.2,31.5L14.8,30.5L11.2,31.5L14.8,30.5L14.8,30.5L11.2,36.5"}],
"#_a14",[{p:'mpath',t:[0,1000,2000,3000,3500,3542],v:['0%','11.7%','23.3%','35%','35%','100%'],e:[[1,.4,0,.6,1],[1,.4,0,.6,1],[1,.4,0,.6,1],[0],[0],[0]],mp:"M19.2,6L17.2,3L19.2,6L17.2,3L17.2,3L19.2,23"}],
"#_a15",[{p:'mpath',t:[0,1000,2000,3000,3500,3542],v:['0%','11.1%','22.2%','33.3%','33.3%','100%'],e:[[1,.4,0,.6,1],[1,.4,0,.6,1],[1,.4,0,.6,1],[0],[0],[0]],mp:"M24,-21.8L19,-23.8L24,-21.8L19,-23.8L19,-23.8L24,8.2"}],
"#_a16",[{p:'mpath',t:[2000,3000,4000],v:['0%','0%','100%'],e:[[0],[0],[0]],mp:"M346.6,312.5L346.6,312.5C443.1,298.9,523.9,266.1,574.6,197"},{p:'opacity',t:[1250,2000],v:[0,1],e:[[0],[0]]}],
"#_a17",[{p:'opacity',t:[0,500],v:[1,0],e:[[0],[0]]}],
"#Protease",[{p:'rotate',t:[0,4000],v:[-27,1053],e:[[1,0,0,.6,1],[0]]}],
"#Lopinivir",[{p:'mpath',t:[0,1500,3000,4000],v:['0%','58.4%','58.4%','100%'],e:[[1,0,0,.6,1],[0],[0],[0]],mp:"M29.1,430.1C118.3,321.7,225.1,264.7,345.6,247.1L345.6,247.1C460.1,231.1,537.6,193.1,578.1,133.1"},{p:'rotate',t:[0,1500,3000,4000],v:[-120,0,0,-48],e:[[0],[0],[0],[0]]},{p:'opacity',t:[0,1000],v:[0,1],e:[[0],[0]]}],
{autoremove:false,markers:{"LoopStart":4000}}).range(0,6000);
if(document.location.search.substr(1).split('&').indexOf('global=paused')>=0)ks.globalPause()})(KeyshapeJS);
]]></script></svg>