<svg xmlns="http://www.w3.org/2000/svg" xmlns:xlink="http://www.w3.org/1999/xlink" width="100%" height="100%" viewBox="0 0 500 800" style="background: rgba(224,255,255,0.00); white-space: pre;"><defs><symbol id="aBackSpike" preserveAspectRatio="none" width="40.8" height="79.6" viewBox="0 0 40.8 79.6" overflow="visible"><path d="M141.1 367.5c.9 .7 1.6 2.8-0.3 3.4c-2.3 .8-2.3-0.3-3.9-1.5c-3.5 .5-3.5-0.6-5.6-2.8c-0.7-0.2-4.1 .7-3.9 .3c-2.1-1.8-2-3.2-0.1-3.9c1.2-1.1 2.7-2.1 3.2-3.3c.5-1.1 .3-3.3 .8-4.5c.7-1.6-0.3-3.2 .5-4.7c1-1.7 2.3-2.5 3-4.3c.3-0.8-0.6-1.8-0.2-2.6c.4-0.7 1.6-0.8 2.1-1.5c1.4-2.3 0-3.2 .6-5.5c.4-1.4 1.5-2.5 1.9-3.8c.5-1.8 .2-3.9 .8-5.7c.2-0.7 1.4-0.9 1.7-1.6c1.2-2.3-0.5-2.7 .5-5.1c.3-0.7 1.3-1 1.5-1.7c.7-1.6-0.1-3.5 .2-5.2c.3-1.2 1.6-2.1 1.6-3.3c0-1.1-0.9-2.7-1-3.9c-0.1-1.5 1.7-0.3 1.8-1.6c.2-2.1-1.6-7.4 .7-9.5c2.7-2.5 18.4 1.5 18.1 6.8c-0.1 .9-1.7 1.5-1.9 2.3c-0.3 1.1-1 1.9-1.5 3c-1 2.2-1.8 1.1-3.1 2.9l-0.6 2.8c-0.7 .9-1.1 1.4-1.8 2.4c-0.7 .8-0.3 2.2-0.7 3.2c-0.7 1.6-2.4 4.9-3 6.6c-1.4 3.6-0.7 4.3-2.4 7.8c-0.4 .7-0.4 4.6-0.6 5.3c-0.3 .9-3.1 3.5-3.4 4.4c-0.5 1.5 .3 3.1-0.2 4.6c-0.3 .8-1.5 .9-1.8 1.6c-1.2 2.3 .1 3.6-1.5 5.7c-0.5 .7-1.7 .5-2 1.2c-0.2 .3 1 3.8 1 4c-0.4 4-2.1 4-0.5 7.7Z" fill="url(#Gradient-0)" stroke-width="1.3" stroke="#0088a7" transform="translate(-125.2,-292.4)"/></symbol><linearGradient id="Gradient-0" x1="0" y1="0" x2="1" y2="0" gradientUnits="userSpaceOnUse" gradientTransform="matrix(22.9 -66.1 121.6 43 133.4 366.7)"><stop offset="0" stop-color="#64e9e9"/><stop offset="0" stop-color="#56d6e1"/><stop offset="0" stop-color="#4bc6da"/><stop offset=".1" stop-color="#47c0d8"/><stop offset=".2" stop-color="#38b2c6"/><stop offset=".4" stop-color="#2ca7b7"/><stop offset="1" stop-color="#27a3b1"/></linearGradient><linearGradient id="Gradient-1" x1="0" y1="0" x2="1" y2="0" gradientUnits="userSpaceOnUse" gradientTransform="matrix(41 102.9 -102.9 41 105 197.1)"><stop offset="0" stop-color="#2c708d"/><stop offset="1" stop-color="#273a45"/></linearGradient><linearGradient id="Gradient-2" x1="0" y1="0" x2="1" y2="0" gradientUnits="userSpaceOnUse" gradientTransform="matrix(10 52.8 -102.1 19.4 262 220.2)"><stop offset="0" stop-color="#1a6686"/><stop offset="1" stop-color="#273a45"/></linearGradient><linearGradient id="Gradient-3" x1="0" y1="0" x2="1" y2="0" gradientUnits="userSpaceOnUse" gradientTransform="matrix(-26.9 81 -81 -26.9 186 216)"><stop offset="0" stop-color="#0f5e80"/><stop offset="1" stop-color="#273a45"/></linearGradient><linearGradient id="Gradient-4" x1="0" y1="0" x2="1" y2="0" gradientUnits="userSpaceOnUse" gradientTransform="matrix(0 -49.2 49.2 0 249.8 285)"><stop offset="0" stop-color="#273a45"/><stop offset="1" stop-color="#0f5e80"/></linearGradient><linearGradient id="Gradient-5" x1="0" y1="0" x2="1" y2="0" gradientUnits="userSpaceOnUse" gradientTransform="matrix(71 73 -73 71 175 143)"><stop offset="0" stop-color="#437c99"/><stop offset="1" stop-color="#115e7c"/></linearGradient><linearGradient id="Gradient-6" x1="0" y1="0" x2="1" y2="0" gradientUnits="userSpaceOnUse" gradientTransform="matrix(25.1 74 -112 38 255 125)"><stop offset="0" stop-color="#6992ac"/><stop offset="1" stop-color="#0f5e80"/></linearGradient><linearGradient id="Gradient-7" x1="0" y1="0" x2="1" y2="0" gradientUnits="userSpaceOnUse" gradientTransform="matrix(35.4 57 -57 35.4 227.6 72)"><stop offset="0" stop-color="#bed0db"/><stop offset="1" stop-color="#6992ac"/></linearGradient><linearGradient id="Gradient-8" x1="0" y1="0" x2="1" y2="0" gradientUnits="userSpaceOnUse" gradientTransform="matrix(0 16.7 -16.7 0 201 87)"><stop offset="0" stop-color="#bed0db"/><stop offset="1" stop-color="#dae4eb"/></linearGradient><linearGradient id="Gradient-9" x1="0" y1="0" x2="1" y2="0" gradientUnits="userSpaceOnUse" gradientTransform="matrix(21.5 63.6 -63.6 21.5 152.3 97.7)"><stop offset="0" stop-color="#bed0db"/><stop offset="1" stop-color="#6992ac"/></linearGradient><radialGradient id="Gradient-10" cx="0" cy="0" r="1" fx="0" fy="0" gradientUnits="userSpaceOnUse" gradientTransform="matrix(81.3 145.9 -180.8 65.6 131.4 137.5)"><stop offset="0" stop-color="#003b5f"/><stop offset=".6" stop-color="#1b5172"/><stop offset="1" stop-color="#83a6bb"/></radialGradient><linearGradient id="Gradient-11" x1="0" y1="0" x2="1" y2="-1.4" gradientUnits="userSpaceOnUse" gradientTransform="matrix(7.3 68.8 -21.6 23.3 279.8 171.4)"><stop offset="0" stop-color="#6992ac"/><stop offset="1" stop-color="#bed0db"/></linearGradient><linearGradient id="Gradient-12" x1="0" y1="0" x2="1" y2="0" gradientUnits="userSpaceOnUse" gradientTransform="matrix(-10.3 -18 18 -10.3 300.8 170)"><stop offset="0" stop-color="#437c99"/><stop offset="1" stop-color="#115e7c"/></linearGradient><linearGradient id="Gradient-13" x1="0" y1="0" x2="1" y2="0" gradientUnits="userSpaceOnUse" gradientTransform="matrix(-63.3 -69.9 69.9 -63.3 289.6 150.5)"><stop offset="0" stop-color="#0f5e80"/><stop offset="1" stop-color="#273a45"/></linearGradient><linearGradient id="Gradient-14" x1="0" y1="0" x2="1" y2="-0.4" gradientUnits="userSpaceOnUse" gradientTransform="matrix(13.1 15.6 -6.7 30.3 178.5 119.5)"><stop offset="0" stop-color="#437c99"/><stop offset="1" stop-color="#115e7c"/></linearGradient><linearGradient id="Gradient-15" x1="0" y1="0" x2="1" y2="0" gradientUnits="userSpaceOnUse" gradientTransform="matrix(-30.6 23.8 -14.8 -18.9 225.4 80.7)"><stop offset="0" stop-color="#273a45"/><stop offset="1" stop-color="#0f5e80"/></linearGradient><linearGradient id="Gradient-16" x1="0" y1="0" x2="1" y2="0" gradientUnits="userSpaceOnUse" gradientTransform="matrix(15 0 0 51.8 182.4 118.5)"><stop offset="0" stop-color="#ff42df"/><stop offset="1" stop-color="#f285e0"/></linearGradient><linearGradient id="Gradient-17" x1="0" y1="0" x2="1" y2="0" gradientUnits="userSpaceOnUse" gradientTransform="matrix(14.1 5.1 -17.7 48.7 206.5 120.1)"><stop offset="0" stop-color="#ff42df"/><stop offset="1" stop-color="#f285e0"/></linearGradient><linearGradient id="Gradient-18" x1="0" y1="0" x2="1" y2="0" gradientUnits="userSpaceOnUse" gradientTransform="matrix(11.5 9.7 -33.3 39.7 228.7 129.8)"><stop offset="0" stop-color="#ff42df"/><stop offset="1" stop-color="#f285e0"/></linearGradient><linearGradient id="Gradient-19" x1="0" y1="0" x2="1" y2="0" gradientUnits="userSpaceOnUse" gradientTransform="matrix(-11.5 9.7 -33.3 -39.7 240.4 235.8)"><stop offset="0" stop-color="#ff42df"/><stop offset="1" stop-color="#f285e0"/></linearGradient><linearGradient id="Gradient-20" x1="0" y1="0" x2="1" y2="0" gradientUnits="userSpaceOnUse" gradientTransform="matrix(-14.1 5.1 -17.7 -48.7 220.9 250.1)"><stop offset="0" stop-color="#ff42df"/><stop offset="1" stop-color="#f285e0"/></linearGradient><linearGradient id="Gradient-21" x1="0" y1="0" x2="1" y2="0" gradientUnits="userSpaceOnUse" gradientTransform="matrix(14.1 -5.1 17.7 48.7 159.2 125.3)"><stop offset="0" stop-color="#ff42df"/><stop offset="1" stop-color="#f285e0"/></linearGradient><linearGradient id="Gradient-22" x1="0" y1="0" x2="1" y2="0" gradientUnits="userSpaceOnUse" gradientTransform="matrix(7.5 13 -44.9 25.9 246.2 146.5)"><stop offset="0" stop-color="#ff42df"/><stop offset="1" stop-color="#f285e0"/></linearGradient><linearGradient id="Gradient-23" x1="0" y1="0" x2="1" y2="0" gradientUnits="userSpaceOnUse" gradientTransform="matrix(2.6 14.8 -51 9 256.9 168.2)"><stop offset="0" stop-color="#ff42df"/><stop offset="1" stop-color="#f285e0"/></linearGradient><linearGradient id="Gradient-24" x1="0" y1="0" x2="1" y2="0" gradientUnits="userSpaceOnUse" gradientTransform="matrix(-2.6 14.8 -51 -9 259.5 192.2)"><stop offset="0" stop-color="#ff42df"/><stop offset="1" stop-color="#f285e0"/></linearGradient><linearGradient id="Gradient-25" x1="0" y1="0" x2="1" y2="0" gradientUnits="userSpaceOnUse" gradientTransform="matrix(-7.5 13 -44.9 -25.9 253.8 215.7)"><stop offset="0" stop-color="#ff42df"/><stop offset="1" stop-color="#f285e0"/></linearGradient><radialGradient id="Gradient-26" cx="0" cy="0" r="1" fx="0" fy="0" gradientUnits="userSpaceOnUse" gradientTransform="matrix(26.6 49.1 -66.4 22.7 197.2 100.5)"><stop offset="0" stop-color="#303030" stop-opacity=".5"/><stop offset=".5" stop-color="#24353c" stop-opacity=".38"/><stop offset="1" stop-color="#00435f" stop-opacity="0"/></radialGradient><linearGradient id="Gradient-27" x1="0" y1="0" x2="1" y2="0" gradientUnits="userSpaceOnUse" gradientTransform="matrix(72.3 -6.5 11.2 133.2 57.2 199.1)"><stop offset="0" stop-color="#64e9e9"/><stop offset="0" stop-color="#64e9e9"/><stop offset="0" stop-color="#64e9e9"/><stop offset="0" stop-color="#64e9e9"/><stop offset=".1" stop-color="#47dcd8"/><stop offset=".2" stop-color="#38c1c6"/><stop offset=".4" stop-color="#2cabb7"/><stop offset="1" stop-color="#27a3b1"/></linearGradient><linearGradient id="Gradient-28" x1="0" y1="0" x2="1" y2="0" gradientUnits="userSpaceOnUse" gradientTransform="matrix(-26.8 75.6 -140.2 -46.2 243.5 40)"><stop offset="0" stop-color="#64e9e9"/><stop offset="0" stop-color="#64e9e9"/><stop offset="0" stop-color="#64e9e9"/><stop offset="0" stop-color="#64e9e9"/><stop offset=".1" stop-color="#47dcd8"/><stop offset=".2" stop-color="#38c1c6"/><stop offset=".4" stop-color="#2cabb7"/><stop offset="1" stop-color="#27a3b1"/></linearGradient><linearGradient id="Gradient-29" x1="0" y1="0" x2="1" y2="0" gradientUnits="userSpaceOnUse" gradientTransform="matrix(-48.8 -53.7 99.5 -89.3 294.5 280.4)"><stop offset="0" stop-color="#64e9e9"/><stop offset="0" stop-color="#64e9e9"/><stop offset="0" stop-color="#64e9e9"/><stop offset="0" stop-color="#64e9e9"/><stop offset=".1" stop-color="#47dcd8"/><stop offset=".2" stop-color="#38c1c6"/><stop offset=".4" stop-color="#2cabb7"/><stop offset="1" stop-color="#27a3b1"/></linearGradient><mask id="Mask-1"><path d="M224.3 84.1l-29.8 22.9l-20.8 46.5l9.7 58.8l38 43l43.5 15.6l32.9-100.6l-10.4-18.2l-63.1-68Z" fill="#fff" fill-rule="evenodd" clip-rule="evenodd"/></mask><mask id="Mask-2"><path d="M224.3 84.1l-29.8 22.9l-20.8 46.5l9.7 58.8l38 43l43.5 15.6l32.9-100.6l-10.4-18.2l-63.1-68Z" fill="#fff"/></mask></defs><g transform="translate(239.9,357.2) translate(-207.9,-248.5)"><g fill-rule="evenodd" clip-rule="evenodd" stroke-linecap="round" stroke-linejoin="round" stroke-miterlimit="1.5" transform="translate(218,263.6) translate(-194,-186.1)"><g stroke="#357491"><path d="M152.5 305l-30.4-112.1l-52.5 20.9l82.9 91.2Z" fill="url(#Gradient-1)"/><path d="M310.4 161.6l-37.5 117.3l-23-43l60.6-74.3Z" fill="url(#Gradient-2)"/><path d="M152.5 305l-30.4-112.1l127.8 43l-97.4 69.1Z" fill="url(#Gradient-3)"/><path d="M152.5 305l120.4-26.1l-23-43l-97.4 69.1Z" fill="url(#Gradient-4)"/><path d="M223.1 103.7l26.8 132.2l-127.9-43l101.1-89.2Z" fill="url(#Gradient-5)"/><path d="M310.4 161.6l-87.3-57.9l26.8 132.2l60.6-74.3Z" fill="url(#Gradient-6)"/><path d="M310.4 161.6l-87.3-57.9l4.5-33.3l82.9 91.2Z" fill="url(#Gradient-7)"/><path d="M107.2 96.5l115.9 7.2l4.5-33.3l-120.4 26.1Z" fill="url(#Gradient-8)"/><path d="M107.2 96.5l115.9 7.2l-101 89.2l-14.9-96.4Z" fill="url(#Gradient-9)"/><path d="M107.2 96.5l-37.6 117.3l52.5-20.9l-14.9-96.4Z" fill="#7ba0b6"/></g><image xlink:href="https://www.abc.net.au/res/sites/news-projects/interactive-scrollout/master/exports/adeno_texture.png" width="241" height="235" preserveAspectRatio="none" transform="translate(190.1,187.9) translate(-120.5,-117.5)"/><g id="Internals-2" opacity="0"><g transform="translate(237.9,175.2) translate(-65.9,-98.9)"><path d="M226.7 76.9l-32.8 25l-21.9 47.2l10.4 63.7l38.6 43.6l49.3 17.7l33.5-104.3l-10-19.3l-67.1-73.6Z" fill="url(#Gradient-10)" stroke="#105c7d" stroke-width="2.4" transform="translate(-172,-76.3)"/><path d="M303.8 169.8l-6 .5l-33.4 101.7l5.9 2.1l33.4-104.3Z" fill="url(#Gradient-11)" stroke="#105c7d" transform="translate(-172,-76.3)"/><path d="M293.8 150.5l-6 1.9l10 17.9l5.9-0.5l-9.9-19.3Z" fill="url(#Gradient-12)" stroke="#357491" transform="translate(-172,-76.3)"/><path d="M226.8 76.3l-2.4 7.5l63.4 68.6l6-1.9l-67-74.2Z" fill="url(#Gradient-13)" stroke="#357491" transform="translate(-172,-76.3)"/><path d="M193.9 101.9l.6 5.1l-21.5 47l-1-4.8l21.9-47.3Z" fill="url(#Gradient-14)" stroke="#357491" transform="translate(-172,-76.3)"/><path d="M224.3 84.1l-29.8 22.9l-0.6-5.1l32.8-25.3l-2.4 7.5Z" fill="url(#Gradient-15)" stroke="#357491" transform="translate(-172,-76.3)"/></g><g><g fill="none" stroke="#0c455e" mask="url(#Mask-1)"><path d="M227.6 70.4l30.4 112.1l-127.8-42.9l97.4-69.2Z"/><path d="M157 271.7l-26.8-132.1l127.8 42.9l-101 89.2Zm70.6-201.3l30.4 112.1l52.4-20.9l-82.8-91.2Zm45.3 208.5l-115.9-7.2l-4.5 33.3l120.4-26.1Z"/><path d="M272.9 278.9l-115.9-7.2l101-89.2l14.9 96.4Zm0 0l37.6-117.3l-52.5 20.9l14.9 96.4Z"/></g></g><g mask="url(#Mask-2)"><path d="M182.4 144.4c0-28.6 3.4-51.8 7.5-51.8c4.2 0 7.6 23.2 7.6 51.8" stroke="url(#Gradient-16)" fill="none" stroke-width="5.8"/><path d="M197.7 144.4c9.8-26.9 20.9-47.5 24.8-46.1c3.9 1.4-0.9 24.4-10.7 51.3" stroke="url(#Gradient-17)" fill="none" stroke-width="5.8"/><path d="M212 149.6c18.4-21.9 35.9-37.5 39.1-34.8c3.2 2.7-9.2 22.6-27.5 44.5" stroke="url(#Gradient-18)" fill="none" stroke-width="5.8"/><path d="M223.7 216c18.4 21.9 30.7 41.8 27.6 44.5c-3.2 2.7-20.7-13-39.1-34.9" stroke="url(#Gradient-19)" fill="none" stroke-width="5.8"/><path d="M212 225.8c9.8 26.8 14.6 49.8 10.7 51.2c-3.9 1.5-15-19.2-24.8-46.1" stroke="url(#Gradient-20)" fill="none" stroke-width="5.8"/><path d="M168.1 149.6c-9.8-26.8-14.6-49.8-10.7-51.2c3.9-1.4 15 19.2 24.8 46.1" stroke="url(#Gradient-21)" fill="none" stroke-width="5.8"/><g id="oldStrandA" transform="translate(248,214.6) translate(-35.8,-46.2)"><path d="M223.7 159.5c24.8-14.3 46.6-23 48.7-19.4c2 3.6-16.4 18.1-41.1 32.4" stroke="url(#Gradient-22)" fill="none" stroke-width="5.8" transform="translate(-212.2,-168.4)"/><path d="M231.4 172.7c28.1-5 51.6-5.7 52.3-1.6c.7 4.1-21.6 11.4-49.7 16.4" stroke="url(#Gradient-23)" fill="none" stroke-width="5.8" transform="translate(-212.2,-168.4)"/><path d="M234 187.7c28.2 5 50.4 12.3 49.7 16.4c-0.7 4.1-24.1 3.4-52.3-1.6" stroke="url(#Gradient-24)" fill="none" stroke-width="5.8" transform="translate(-212.2,-168.4)"/><path d="M231.4 202.7c24.7 14.3 43.1 28.9 41.1 32.5c-2.1 3.6-23.9-5.1-48.7-19.4" stroke="url(#Gradient-25)" fill="none" stroke-width="5.8" transform="translate(-212.2,-168.4)"/></g></g><path d="M224.3 84.1l-29.8 22.9l-21.7 46.9l9.6 58.9l38.6 43.6l43.4 15.6l33.4-101.7l-10.4-18.2l-63.1-68Z" fill="url(#Gradient-26)"/></g><g stroke="#0088a7"><g stroke-width="1.8"><path d="M62 205c-0.2 1-1.6 4-3.5 3c-0.6 .4-0.5-1.2-0.9-1.8c-0.9 1.3-3 2.3-4.3 .8c-1.6-1.9-1.4-3-0.9-4.9c-3.4-2.9-2.1-8 .7-9.3c.2-0.8 1.2-4.7 2.7-4c.4-0.4 .9-0.5 1.3-0.4c1.6-2.2 4.2-0.4 5 1.5c1.1 1 1.6 2.2 2.9 2.3c1.2 0 3.2-1.1 4.5-1.1c1.7 0 2.8-2.5 4.6-2.4c1.9 .2 3.1 2.2 5 2.1c.8 0 1.5-2.2 2.4-2.2c.8 0 1.4 1.1 2.2 1.3c2.6 .4 2.6-0.3 4.6-0.6c1.2-0.2 2.3 .2 3.5 0c1.6-0.2 3.1-1.2 4.7-1.4c.6-0.1 1.1 .7 1.7 .7c2.2 .1 2-1.3 4.1-1.5c.7 0 1.2 .7 1.9 .6c1.4-0.1 2.7-1.3 4.1-1.7c1-0.3 2.1 .4 3 0c.9-0.4 1.8-0.7 2.7-1.2c1.1-0.7 .7 1.2 1.7 .8c1.8-0.6 3.4-3.6 5.7-2.7c.8 .4 3.4 1.7 4.2 3.3c.3 .6 .5 1.2 .8 1.9c.2 .6 .3 1.3 .4 2c.1 .6 .2 1.3 .2 2c-0.1 .7-0.1 1.3-0.2 2c-0.5 2.4-2.4 5-4.2 5.4c-0.7 .2-0.9 .8-1.6 .9c-1 .2-1.8 0-2.8 0c-2 0-1.3-3-3-3.4l-2.5 2.6c-1-0.2-1.5-0.3-2.4-0.5c-0.9-0.2-1.9 .5-2.8 .6c-1.5 .1-4.5 0-6 .1c-3.2 .3-3.6 1-6.8 1c-0.6 0-3.7 1.4-4.3 1.4c-0.8 .1-3.7-1.1-4.5-1c-1.3 .2-2.1 2.1-3.6 2.2c-0.8 .1-1.4-1-2.2-1c-2.6-0.3-3.2 1.5-5.8 .9c-0.8-0.2-1.1-1.4-1.9-1.5c-0.3 0-2.9 .5-3.1 .6c-3.9 1.2-4.5-0.3-7.3 2.5Zm-6.3-7.1c0 .1 0 .3 0 .4c0 .1 0 .3 0 .4c0 .2 0 .3 0 .5c0 .1 0 .2 .1 .4c0 0 0 .1 0 .2c0 .1 .2 0 .2-0.1c.1-0.1 .1-0.2 .1-0.3c-0.1-0.5-0.3-1-0.4-1.5Z" fill="url(#Gradient-27)" stroke-width="1.3"/><path d="M53.4 191.9c-0.1 .4 0 2.5 .3 3m-1.6 8.2c0 0 .2-1.5 1-2.5m7.3-0.9c.5 .1 1 .5 1.3 1c.5 .9 .7 2.2 .5 3.6c-0.4 2.4-1.8 4.1-3.2 3.9c-0.8-0.2-1.4-0.9-1.7-2m-0.6-16.9c.4-1 1-1.7 1.9-1.9c1.7-0.3 3.4 1.3 3.9 3.6c.4 2.3-0.5 4.5-2.2 4.8" fill="none" stroke-width="1.3"/></g><use xlink:href="#aBackSpike" width="40.8" height="79.6" transform="translate(145.6,332.3) translate(-20.4,-39.8)"/><use xlink:href="#aBackSpike" width="40.8" height="79.6" transform="translate(297.9,299.2) rotate(-65.4) translate(-20.4,-39.8)"/><use xlink:href="#aBackSpike" width="40.8" height="79.6" transform="translate(343.5,155.1) rotate(-119.3) scale(1.08,1.08) translate(-20.4,-39.8)"/><use xlink:href="#aBackSpike" width="40.8" height="79.6" transform="translate(235.5,40) rotate(176) translate(-20.4,-39.8)"/><use xlink:href="#aBackSpike" width="40.8" height="79.6" transform="translate(84.8,76.4) rotate(118.4) translate(-20.4,-39.8)"/><use xlink:href="#aBackSpike" width="40.8" height="79.6" transform="translate(41,221.9) rotate(58.2) translate(-20.4,-39.8)"/></g><g id="Spikes-to-fade" stroke="#0088a7"><g transform="translate(233.3,72.2) translate(-21,-40.4)"><path d="M236.7 40.9c-0.9-0.7-3-3.1-1.4-4.4c-0.1-0.7 1.2 0 2-0.2c-0.9-1.3-0.9-3.6 1-4.2c2.3-0.7 3.3-0.1 4.8 1.1c4.1-1.9 8.2 1.4 8.3 4.5c.6 .4 3.8 3 2.6 4.1c.1 .5 .1 1-0.3 1.3c1.4 2.4-1.2 4-3.3 4c-1.4 .6-2.7 .6-3.3 1.7c-0.5 1.1-0.3 3.3-0.8 4.5c-0.7 1.6 .3 3.2-0.6 4.7c-0.9 1.7-2.3 2.5-3 4.2c-0.3 .8 .5 1.8 .2 2.6c-0.4 .8-1.6 .8-2.1 1.6c-1.4 2.2-0.1 3.2-0.8 5.5c-0.4 1.3-1.4 2.4-1.8 3.7c-0.6 1.9-0.3 3.9-0.9 5.7c-0.3 .8-1.4 .9-1.7 1.6c-1.2 2.3 .4 2.7-0.5 5c-0.3 .8-1.3 1.1-1.6 1.8c-0.7 1.6 0 3.5-0.3 5.2c-0.2 1.2-1.6 2-1.6 3.2c0 1.2 .8 2.8 .9 3.9c.2 1.6-1.7 .3-1.8 1.6c-0.2 2.1 2.4 6.1 .2 8.1c-2.8 2.6-19-0.5-18.6-5.8c.1-0.8 1.3-1.2 1.6-2c.3-1.2 1-1.9 1.5-3c1-2.2 1.8-1.1 3.1-2.8l.7-2.9c.7-0.9 1-1.4 1.7-2.3c.7-0.9 .4-2.2 .8-3.3c.7-1.6 2.4-4.9 3.1-6.5c1.4-3.6 .8-4.3 2.5-7.8c.3-0.7 .4-4.6 .6-5.3c.4-0.9 3.2-3.5 3.5-4.4c.5-1.4-0.3-3.1 .2-4.5c.3-0.8 1.5-0.9 1.9-1.7c1.2-2.2-0.1-3.5 1.5-5.7c.5-0.6 1.7-0.4 2-1.1c.2-0.3-1-3.8-1-4c.5-4 2.1-4 .6-7.7Zm9-2.9c-0.2-0.1-0.3-0.1-0.4-0.2c-0.2 0-0.3-0.1-0.4-0.2c-0.1 0-0.3-0.1-0.4-0.1c-0.1-0.1-0.3-0.1-0.4-0.2c0 0 0 0-0.1 0c0 0 0 0 0 0c0 0 0 0-0.1 0c0 0 0 0 0 0c-0.1 0-0.1 .2 0 .2c0 .1 .1 .2 .2 .3c.5 0 1.1 .1 1.6 .2Z" fill="url(#Gradient-28)" stroke-width="1.3" transform="translate(-212.3,-31.8)"/><path d="M252.1 38.3c-0.2-0.1-0.4-0.2-0.7-0.4c-0.2-0.1-0.4-0.2-0.7-0.2c-0.2-0.1-0.5-0.2-0.7-0.2c-0.3-0.1-0.5-0.1-0.8-0.2m-6.9-4.7c0 0 1.3 .8 1.9 1.9m-2.1 7c-0.3 .5-0.8 .7-1.5 .8c-1 .1-2.2-0.2-3.4-1c-2-1.3-3-3.3-2.3-4.4c.5-0.7 1.4-1 2.5-0.8m15.8 6.2c.7 .8 1 1.7 .8 2.6c-0.3 1.6-2.5 2.6-4.8 2c-2.3-0.5-3.9-2.2-3.5-3.9" fill="none" stroke-width="1.3" transform="translate(-212.3,-31.8)"/></g><g stroke-width="1.8"><path d="M296.3 273.1c1.1-0.5 4.2-1.2 4.6 .9c.6 .2-0.7 1.1-0.9 1.8c1.6-0.1 3.6 1 3.2 2.9c-0.5 2.4-1.5 3-3.3 3.7c-0.3 4.5-5.2 6.5-7.9 5.1c-0.7 .3-4.5 1.9-4.9 .2c-0.5 0-0.9-0.3-1-0.8c-2.8 .1-2.9-3-1.9-4.8c.2-1.6 .9-2.7 .1-3.7c-0.7-1-2.7-1.9-3.5-2.9c-1.1-1.5-2.9-1.3-3.9-2.8c-0.9-1.7-1-3.3-2.2-4.7c-0.5-0.7-1.8-0.4-2.3-1.1c-0.5-0.7 .1-1.8-0.4-2.6c-1.2-2.3-1.7-1.9-3.2-3.3c-0.8-0.8-1.2-2-2.1-2.8c-1.1-1.1-2.8-1.7-4-2.9c-0.4-0.5 0-1.3-0.4-1.8c-1.3-1.8-2.3-0.8-3.7-2.4c-0.4-0.5-0.2-1.3-0.6-1.8c-1-1.1-2.7-1.3-3.9-2.2c-0.8-0.7-0.9-1.9-1.8-2.4c-0.9-0.5-2.5-0.6-3.4-0.9c-1.2-0.5 .5-1.4-0.4-1.9c-1.6-1-4.9-0.5-5.6-2.9c-0.2-0.8-0.7-3.7 .1-5.3c.3-0.6 .6-1.2 1-1.8c.4-0.5 .9-1.1 1.3-1.5c.5-0.5 1-1 1.6-1.4c.5-0.4 1.1-0.7 1.7-1c2.2-1.1 5.4-1.2 6.9 0c.5 .5-0.6 1.3-0.1 1.8c.8 .7 1 1.5 1.7 2.2c1.2 1.6 .1 1.8 .8 3.4l1.9 1.6c.4 .9 .7 1.3 1 2.2c.4 .8 1.6 1.1 2.2 1.8c.9 1.1 2.7 3.6 3.7 4.7c2.2 2.5 2.9 2.3 4.9 4.9c.4 .5 3.3 2.1 3.8 2.5c.5 .6 1.3 3.7 1.9 4.2c.9 .9 2.8 .4 3.8 1.6c.6 .6 .1 1.7 .6 2.4c1.3 2.1 3.1 1.6 4.2 4.1c.3 .7-0.4 1.7 0 2.3c.2 .3 3.8 1 4 1.1c3.3 2.3 2.4 3.7 6.4 4.2Zm-1.8 9.2c.1-0.1 .2-0.1 .3-0.2c.1-0.1 .3-0.2 .4-0.3c.1-0.1 .2-0.2 .3-0.2c.1-0.1 .2-0.2 .3-0.3c.1-0.1 .1-0.1 .1-0.2c.1-0.1-0.1-0.1-0.1-0.1c-0.1 0-0.3 .1-0.3 .1c-0.3 .4-0.7 .8-1 1.2Z" fill="url(#Gradient-29)" stroke-width="1.3"/><path d="M291.1 287.8c.4-0.1 2-1.4 2.2-2m7.6-3.7c0 0-1.4 .7-2.7 .7m-5.1-5.3c-0.2-0.5-0.2-1 .1-1.6c.1-0.3 .3-0.6 .5-0.8c.1-0.3 .3-0.5 .6-0.7c.2-0.2 .4-0.4 .7-0.6c.2-0.2 .5-0.3 .7-0.5c2.1-1.1 4.4-1 5 .2c.4 .7 .1 1.6-0.5 2.5m-13.2 10.8c-1 .3-1.9 .1-2.6-0.5c-1.3-1.1-1-3.4 .5-5.2c1.6-1.8 3.9-2.3 5.2-1.2" fill="none" stroke-width="1.3"/></g></g></g><g id="newStrandA" opacity="0" transform="translate(277.7,265.1) translate(0,0) translate(-41.5,-19.2)"><path d="M223.7 159.5c24.8-14.3 46.6-23 48.7-19.4c2 3.6-16.4 18.1-41.1 32.4" stroke="url(#Gradient-22)" fill="none" stroke-width="5.8" stroke-linecap="round" transform="translate(-212.2,-168.4)"/><path d="M231.4 172.7c28.1-5 51.6-5.7 52.3-1.6c.7 4.1-21.6 11.4-49.7 16.4" stroke="url(#Gradient-23)" fill="none" stroke-width="5.8" stroke-linecap="round" transform="translate(-212.2,-168.4)"/><path d="M234 187.7c28.2 5 50.4 12.3 49.7 16.4c-0.7 4.1-24.1 3.4-52.3-1.6" stroke="url(#Gradient-24)" fill="none" stroke-width="5.8" stroke-linecap="round" transform="translate(-212.2,-168.4)"/><path d="M231.4 202.7c24.7 14.3 43.1 28.9 41.1 32.5c-2.1 3.6-23.9-5.1-48.7-19.4" stroke="url(#Gradient-25)" fill="none" stroke-width="5.8" stroke-linecap="round" transform="translate(-212.2,-168.4)"/></g><g transform="translate(281.5,262.5) translate(-140.9,-208.9)"><g transform="translate(77.4,395) translate(-77.4,-22.8)"><text font-size="18" font-family="ABCSans" letter-spacing=".1em" word-spacing="0" text-anchor="middle" font-weight="900" transform="translate(77.4,66.2)" style="line-height: 22px;">HARMLESS VIRUS</text></g></g></g><script xlink:href="keyshapejs-1.1.0.min.js"/><script><![CDATA[if(KeyshapeJS.version.indexOf('1.')!=0)throw Error('Expected KeyshapeJS v1.*.*');window.ks=document.ks=KeyshapeJS;(function(ks){
ks.animate("#Internals-2",[{p:'opacity',t:[0,1000],v:[0,1],e:[[1,0,0,.6,1],[0]]}],
"#oldStrandA",[{p:'opacity',t:[1042,1083],v:[1,0],e:[[0],[0]]}],
"#Spikes-to-fade",[{p:'opacity',t:[0,1000],v:[1,0],e:[[1,0,0,.6,1],[0]]}],
"#newStrandA",[{p:'mpath',t:[2000,3000,4500,5500],v:['0%','48.4%','48.4%','100%'],e:[[1,0,0,.6,1],[1,0,0,.6,1],[1,0,0,.6,1],[0]],mp:"M277.7,265.1L403.4,314.1L403.4,314.1L535,372"},{p:'rotate',t:[2000,3000,4500,5500],v:[0,30,30,60],e:[[1,0,0,.6,1],[1,0,0,.6,1],[1,0,0,.6,1],[0]]},{p:'opacity',t:[1000,1042,4500,5500],v:[0,1,1,0],e:[[0],[0],[0],[0]]}],
{autoremove:false}).range(0,5500);
if(document.location.search.substr(1).split('&').indexOf('global=paused')>=0)ks.globalPause()})(KeyshapeJS);
]]></script></svg>