<svg xmlns="http://www.w3.org/2000/svg" xmlns:xlink="http://www.w3.org/1999/xlink" width="100%" height="100%" viewBox="0 0 500 800" style="background: rgba(224,255,255,0.00); white-space: pre;"><defs><symbol id="aBackSpike" preserveAspectRatio="none" width="40.8" height="79.6" viewBox="0 0 40.8 79.6" overflow="visible"><path d="M141.1 367.5c.9 .7 1.6 2.8-0.3 3.4c-2.3 .8-2.3-0.3-3.9-1.5c-3.5 .5-3.5-0.6-5.6-2.8c-0.7-0.2-4.1 .7-3.9 .3c-2.1-1.8-2-3.2-0.1-3.9c1.2-1.1 2.7-2.1 3.2-3.3c.5-1.1 .3-3.3 .8-4.5c.7-1.6-0.3-3.2 .5-4.7c1-1.7 2.3-2.5 3-4.3c.3-0.8-0.6-1.8-0.2-2.6c.4-0.7 1.6-0.8 2.1-1.5c1.4-2.3 0-3.2 .6-5.5c.4-1.4 1.5-2.5 1.9-3.8c.5-1.8 .2-3.9 .8-5.7c.2-0.7 1.4-0.9 1.7-1.6c1.2-2.3-0.5-2.7 .5-5.1c.3-0.7 1.3-1 1.5-1.7c.7-1.6-0.1-3.5 .2-5.2c.3-1.2 1.6-2.1 1.6-3.3c0-1.1-0.9-2.7-1-3.9c-0.1-1.5 1.7-0.3 1.8-1.6c.2-2.1-1.6-7.4 .7-9.5c2.7-2.5 18.4 1.5 18.1 6.8c-0.1 .9-1.7 1.5-1.9 2.3c-0.3 1.1-1 1.9-1.5 3c-1 2.2-1.8 1.1-3.1 2.9l-0.6 2.8c-0.7 .9-1.1 1.4-1.8 2.4c-0.7 .8-0.3 2.2-0.7 3.2c-0.7 1.6-2.4 4.9-3 6.6c-1.4 3.6-0.7 4.3-2.4 7.8c-0.4 .7-0.4 4.6-0.6 5.3c-0.3 .9-3.1 3.5-3.4 4.4c-0.5 1.5 .3 3.1-0.2 4.6c-0.3 .8-1.5 .9-1.8 1.6c-1.2 2.3 .1 3.6-1.5 5.7c-0.5 .7-1.7 .5-2 1.2c-0.2 .3 1 3.8 1 4c-0.4 4-2.1 4-0.5 7.7Z" fill="url(#Gradient-0)" stroke-width="1.3" stroke="#0088a7" transform="translate(-125.2,-292.4)"/></symbol><linearGradient id="Gradient-0" x1="0" y1="0" x2="1" y2="0" gradientUnits="userSpaceOnUse" gradientTransform="matrix(22.9 -66.1 121.6 43 133.4 366.7)"><stop offset="0" stop-color="#64e9e9"/><stop offset="0" stop-color="#56d6e1"/><stop offset="0" stop-color="#4bc6da"/><stop offset=".1" stop-color="#47c0d8"/><stop offset=".2" stop-color="#38b2c6"/><stop offset=".4" stop-color="#2ca7b7"/><stop offset="1" stop-color="#27a3b1"/></linearGradient><linearGradient id="Gradient-1" x1="0" y1="0" x2="1" y2="0" gradientUnits="userSpaceOnUse" gradientTransform="matrix(41 102.9 -102.9 41 105 197.1)"><stop offset="0" stop-color="#2c708d"/><stop offset="1" stop-color="#273a45"/></linearGradient><linearGradient id="Gradient-2" x1="0" y1="0" x2="1" y2="0" gradientUnits="userSpaceOnUse" gradientTransform="matrix(10 52.8 -102.1 19.4 262 220.2)"><stop offset="0" stop-color="#1a6686"/><stop offset="1" stop-color="#273a45"/></linearGradient><linearGradient id="Gradient-3" x1="0" y1="0" x2="1" y2="0" gradientUnits="userSpaceOnUse" gradientTransform="matrix(-26.9 81 -81 -26.9 186 216)"><stop offset="0" stop-color="#0f5e80"/><stop offset="1" stop-color="#273a45"/></linearGradient><linearGradient id="Gradient-4" x1="0" y1="0" x2="1" y2="0" gradientUnits="userSpaceOnUse" gradientTransform="matrix(0 -49.2 49.2 0 249.8 285)"><stop offset="0" stop-color="#273a45"/><stop offset="1" stop-color="#0f5e80"/></linearGradient><linearGradient id="Gradient-5" x1="0" y1="0" x2="1" y2="0" gradientUnits="userSpaceOnUse" gradientTransform="matrix(71 73 -73 71 175 143)"><stop offset="0" stop-color="#437c99"/><stop offset="1" stop-color="#115e7c"/></linearGradient><linearGradient id="Gradient-6" x1="0" y1="0" x2="1" y2="0" gradientUnits="userSpaceOnUse" gradientTransform="matrix(25.1 74 -112 38 255 125)"><stop offset="0" stop-color="#6992ac"/><stop offset="1" stop-color="#0f5e80"/></linearGradient><linearGradient id="Gradient-7" x1="0" y1="0" x2="1" y2="0" gradientUnits="userSpaceOnUse" gradientTransform="matrix(35.4 57 -57 35.4 227.6 72)"><stop offset="0" stop-color="#bed0db"/><stop offset="1" stop-color="#6992ac"/></linearGradient><linearGradient id="Gradient-8" x1="0" y1="0" x2="1" y2="0" gradientUnits="userSpaceOnUse" gradientTransform="matrix(0 16.7 -16.7 0 201 87)"><stop offset="0" stop-color="#bed0db"/><stop offset="1" stop-color="#dae4eb"/></linearGradient><linearGradient id="Gradient-9" x1="0" y1="0" x2="1" y2="0" gradientUnits="userSpaceOnUse" gradientTransform="matrix(21.5 63.6 -63.6 21.5 152.3 97.7)"><stop offset="0" stop-color="#bed0db"/><stop offset="1" stop-color="#6992ac"/></linearGradient><linearGradient id="Gradient-10" x1="0" y1="0" x2="1" y2="0" gradientUnits="userSpaceOnUse" gradientTransform="matrix(72.3 -6.5 11.2 133.2 57.2 199.1)"><stop offset="0" stop-color="#64e9e9"/><stop offset="0" stop-color="#64e9e9"/><stop offset="0" stop-color="#64e9e9"/><stop offset="0" stop-color="#64e9e9"/><stop offset=".1" stop-color="#47dcd8"/><stop offset=".2" stop-color="#38c1c6"/><stop offset=".4" stop-color="#2cabb7"/><stop offset="1" stop-color="#27a3b1"/></linearGradient><linearGradient id="Gradient-11" x1="0" y1="0" x2="1" y2="0" gradientUnits="userSpaceOnUse" gradientTransform="matrix(-26.8 75.6 -140.2 -46.2 243.5 40)"><stop offset="0" stop-color="#64e9e9"/><stop offset="0" stop-color="#64e9e9"/><stop offset="0" stop-color="#64e9e9"/><stop offset="0" stop-color="#64e9e9"/><stop offset=".1" stop-color="#47dcd8"/><stop offset=".2" stop-color="#38c1c6"/><stop offset=".4" stop-color="#2cabb7"/><stop offset="1" stop-color="#27a3b1"/></linearGradient><linearGradient id="Gradient-12" x1="0" y1="0" x2="1" y2="0" gradientUnits="userSpaceOnUse" gradientTransform="matrix(-48.8 -53.7 99.5 -89.3 294.5 280.4)"><stop offset="0" stop-color="#64e9e9"/><stop offset="0" stop-color="#64e9e9"/><stop offset="0" stop-color="#64e9e9"/><stop offset="0" stop-color="#64e9e9"/><stop offset=".1" stop-color="#47dcd8"/><stop offset=".2" stop-color="#38c1c6"/><stop offset=".4" stop-color="#2cabb7"/><stop offset="1" stop-color="#27a3b1"/></linearGradient></defs><g transform="translate(239.3,357.2) translate(-207.3,-248.5)"><g id="Adenovirus" fill-rule="evenodd" clip-rule="evenodd" stroke-linecap="round" stroke-linejoin="round" stroke-miterlimit="1.5" transform="translate(218,263.6) rotate(-2) translate(-194,-186.1)"><g stroke="#357491"><path d="M152.5 305l-30.4-112.1l-52.5 20.9l82.9 91.2Z" fill="url(#Gradient-1)"/><path d="M310.4 161.6l-37.5 117.3l-23-43l60.6-74.3Z" fill="url(#Gradient-2)"/><path d="M152.5 305l-30.4-112.1l127.8 43l-97.4 69.1Z" fill="url(#Gradient-3)"/><path d="M152.5 305l120.4-26.1l-23-43l-97.4 69.1Z" fill="url(#Gradient-4)"/><path d="M223.1 103.7l26.8 132.2l-127.9-43l101.1-89.2Z" fill="url(#Gradient-5)"/><path d="M310.4 161.6l-87.3-57.9l26.8 132.2l60.6-74.3Z" fill="url(#Gradient-6)"/><path d="M310.4 161.6l-87.3-57.9l4.5-33.3l82.9 91.2Z" fill="url(#Gradient-7)"/><path d="M107.2 96.5l115.9 7.2l4.5-33.3l-120.4 26.1Z" fill="url(#Gradient-8)"/><path d="M107.2 96.5l115.9 7.2l-101 89.2l-14.9-96.4Z" fill="url(#Gradient-9)"/><path d="M107.2 96.5l-37.6 117.3l52.5-20.9l-14.9-96.4Z" fill="#7ba0b6"/></g><image xlink:href="https://www.abc.net.au/res/sites/news-projects/interactive-scrollout/master/exports/adeno_texture.png" width="241" height="235" preserveAspectRatio="none" transform="translate(190.1,187.9) translate(-120.5,-117.5)"/><g stroke="#0088a7"><g stroke-width="1.8"><path d="M62 205c-0.2 1-1.6 4-3.5 3c-0.6 .4-0.5-1.2-0.9-1.8c-0.9 1.3-3 2.3-4.3 .8c-1.6-1.9-1.4-3-0.9-4.9c-3.4-2.9-2.1-8 .7-9.3c.2-0.8 1.2-4.7 2.7-4c.4-0.4 .9-0.5 1.3-0.4c1.6-2.2 4.2-0.4 5 1.5c1.1 1 1.6 2.2 2.9 2.3c1.2 0 3.2-1.1 4.5-1.1c1.7 0 2.8-2.5 4.6-2.4c1.9 .2 3.1 2.2 5 2.1c.8 0 1.5-2.2 2.4-2.2c.8 0 1.4 1.1 2.2 1.3c2.6 .4 2.6-0.3 4.6-0.6c1.2-0.2 2.3 .2 3.5 0c1.6-0.2 3.1-1.2 4.7-1.4c.6-0.1 1.1 .7 1.7 .7c2.2 .1 2-1.3 4.1-1.5c.7 0 1.2 .7 1.9 .6c1.4-0.1 2.7-1.3 4.1-1.7c1-0.3 2.1 .4 3 0c.9-0.4 1.8-0.7 2.7-1.2c1.1-0.7 .7 1.2 1.7 .8c1.8-0.6 3.4-3.6 5.7-2.7c.8 .4 3.4 1.7 4.2 3.3c.3 .6 .5 1.2 .8 1.9c.2 .6 .3 1.3 .4 2c.1 .6 .2 1.3 .2 2c-0.1 .7-0.1 1.3-0.2 2c-0.5 2.4-2.4 5-4.2 5.4c-0.7 .2-0.9 .8-1.6 .9c-1 .2-1.8 0-2.8 0c-2 0-1.3-3-3-3.4l-2.5 2.6c-1-0.2-1.5-0.3-2.4-0.5c-0.9-0.2-1.9 .5-2.8 .6c-1.5 .1-4.5 0-6 .1c-3.2 .3-3.6 1-6.8 1c-0.6 0-3.7 1.4-4.3 1.4c-0.8 .1-3.7-1.1-4.5-1c-1.3 .2-2.1 2.1-3.6 2.2c-0.8 .1-1.4-1-2.2-1c-2.6-0.3-3.2 1.5-5.8 .9c-0.8-0.2-1.1-1.4-1.9-1.5c-0.3 0-2.9 .5-3.1 .6c-3.9 1.2-4.5-0.3-7.3 2.5Zm-6.3-7.1c0 .1 0 .3 0 .4c0 .1 0 .3 0 .4c0 .2 0 .3 0 .5c0 .1 0 .2 .1 .4c0 0 0 .1 0 .2c0 .1 .2 0 .2-0.1c.1-0.1 .1-0.2 .1-0.3c-0.1-0.5-0.3-1-0.4-1.5Z" fill="url(#Gradient-10)" stroke-width="1.3"/><path d="M53.4 191.9c-0.1 .4 0 2.5 .3 3m-1.6 8.2c0 0 .2-1.5 1-2.5m7.3-0.9c.5 .1 1 .5 1.3 1c.5 .9 .7 2.2 .5 3.6c-0.4 2.4-1.8 4.1-3.2 3.9c-0.8-0.2-1.4-0.9-1.7-2m-0.6-16.9c.4-1 1-1.7 1.9-1.9c1.7-0.3 3.4 1.3 3.9 3.6c.4 2.3-0.5 4.5-2.2 4.8" fill="none" stroke-width="1.3"/></g><use xlink:href="#aBackSpike" width="40.8" height="79.6" transform="translate(145.6,332.3) translate(-20.4,-39.8)"/><use xlink:href="#aBackSpike" width="40.8" height="79.6" transform="translate(297.9,299.2) rotate(-65.4) translate(-20.4,-39.8)"/><use xlink:href="#aBackSpike" width="40.8" height="79.6" transform="translate(343.5,155.1) rotate(-119.3) scale(1.08,1.08) translate(-20.4,-39.8)"/><use xlink:href="#aBackSpike" width="40.8" height="79.6" transform="translate(235.5,40) rotate(-184) translate(-20.4,-39.8)"/><use xlink:href="#aBackSpike" width="40.8" height="79.6" transform="translate(84.8,76.4) rotate(118.4) translate(-20.4,-39.8)"/><use xlink:href="#aBackSpike" width="40.8" height="79.6" transform="translate(41,221.9) rotate(58.2) translate(-20.4,-39.8)"/></g><g stroke="#0088a7"><g transform="translate(233.3,72.2) translate(-21,-40.4)"><path d="M236.7 40.9c-0.9-0.7-3-3.1-1.4-4.4c-0.1-0.7 1.2 0 2-0.2c-0.9-1.3-0.9-3.6 1-4.2c2.3-0.7 3.3-0.1 4.8 1.1c4.1-1.9 8.2 1.4 8.3 4.5c.6 .4 3.8 3 2.6 4.1c.1 .5 .1 1-0.3 1.3c1.4 2.4-1.2 4-3.3 4c-1.4 .6-2.7 .6-3.3 1.7c-0.5 1.1-0.3 3.3-0.8 4.5c-0.7 1.6 .3 3.2-0.6 4.7c-0.9 1.7-2.3 2.5-3 4.2c-0.3 .8 .5 1.8 .2 2.6c-0.4 .8-1.6 .8-2.1 1.6c-1.4 2.2-0.1 3.2-0.8 5.5c-0.4 1.3-1.4 2.4-1.8 3.7c-0.6 1.9-0.3 3.9-0.9 5.7c-0.3 .8-1.4 .9-1.7 1.6c-1.2 2.3 .4 2.7-0.5 5c-0.3 .8-1.3 1.1-1.6 1.8c-0.7 1.6 0 3.5-0.3 5.2c-0.2 1.2-1.6 2-1.6 3.2c0 1.2 .8 2.8 .9 3.9c.2 1.6-1.7 .3-1.8 1.6c-0.2 2.1 2.4 6.1 .2 8.1c-2.8 2.6-19-0.5-18.6-5.8c.1-0.8 1.3-1.2 1.6-2c.3-1.2 1-1.9 1.5-3c1-2.2 1.8-1.1 3.1-2.8l.7-2.9c.7-0.9 1-1.4 1.7-2.3c.7-0.9 .4-2.2 .8-3.3c.7-1.6 2.4-4.9 3.1-6.5c1.4-3.6 .8-4.3 2.5-7.8c.3-0.7 .4-4.6 .6-5.3c.4-0.9 3.2-3.5 3.5-4.4c.5-1.4-0.3-3.1 .2-4.5c.3-0.8 1.5-0.9 1.9-1.7c1.2-2.2-0.1-3.5 1.5-5.7c.5-0.6 1.7-0.4 2-1.1c.2-0.3-1-3.8-1-4c.5-4 2.1-4 .6-7.7Zm9-2.9c-0.2-0.1-0.3-0.1-0.4-0.2c-0.2 0-0.3-0.1-0.4-0.2c-0.1 0-0.3-0.1-0.4-0.1c-0.1-0.1-0.3-0.1-0.4-0.2c0 0 0 0-0.1 0c0 0 0 0 0 0c0 0 0 0-0.1 0c0 0 0 0 0 0c-0.1 0-0.1 .2 0 .2c0 .1 .1 .2 .2 .3c.5 0 1.1 .1 1.6 .2Z" fill="url(#Gradient-11)" stroke-width="1.3" transform="translate(-212.3,-31.8)"/><path d="M252.1 38.3c-0.2-0.1-0.4-0.2-0.7-0.4c-0.2-0.1-0.4-0.2-0.7-0.2c-0.2-0.1-0.5-0.2-0.7-0.2c-0.3-0.1-0.5-0.1-0.8-0.2m-6.9-4.7c0 0 1.3 .8 1.9 1.9m-2.1 7c-0.3 .5-0.8 .7-1.5 .8c-1 .1-2.2-0.2-3.4-1c-2-1.3-3-3.3-2.3-4.4c.5-0.7 1.4-1 2.5-0.8m15.8 6.2c.7 .8 1 1.7 .8 2.6c-0.3 1.6-2.5 2.6-4.8 2c-2.3-0.5-3.9-2.2-3.5-3.9" fill="none" stroke-width="1.3" transform="translate(-212.3,-31.8)"/></g><g stroke-width="1.8"><path d="M296.3 273.1c1.1-0.5 4.2-1.2 4.6 .9c.6 .2-0.7 1.1-0.9 1.8c1.6-0.1 3.6 1 3.2 2.9c-0.5 2.4-1.5 3-3.3 3.7c-0.3 4.5-5.2 6.5-7.9 5.1c-0.7 .3-4.5 1.9-4.9 .2c-0.5 0-0.9-0.3-1-0.8c-2.8 .1-2.9-3-1.9-4.8c.2-1.6 .9-2.7 .1-3.7c-0.7-1-2.7-1.9-3.5-2.9c-1.1-1.5-2.9-1.3-3.9-2.8c-0.9-1.7-1-3.3-2.2-4.7c-0.5-0.7-1.8-0.4-2.3-1.1c-0.5-0.7 .1-1.8-0.4-2.6c-1.2-2.3-1.7-1.9-3.2-3.3c-0.8-0.8-1.2-2-2.1-2.8c-1.1-1.1-2.8-1.7-4-2.9c-0.4-0.5 0-1.3-0.4-1.8c-1.3-1.8-2.3-0.8-3.7-2.4c-0.4-0.5-0.2-1.3-0.6-1.8c-1-1.1-2.7-1.3-3.9-2.2c-0.8-0.7-0.9-1.9-1.8-2.4c-0.9-0.5-2.5-0.6-3.4-0.9c-1.2-0.5 .5-1.4-0.4-1.9c-1.6-1-4.9-0.5-5.6-2.9c-0.2-0.8-0.7-3.7 .1-5.3c.3-0.6 .6-1.2 1-1.8c.4-0.5 .9-1.1 1.3-1.5c.5-0.5 1-1 1.6-1.4c.5-0.4 1.1-0.7 1.7-1c2.2-1.1 5.4-1.2 6.9 0c.5 .5-0.6 1.3-0.1 1.8c.8 .7 1 1.5 1.7 2.2c1.2 1.6 .1 1.8 .8 3.4l1.9 1.6c.4 .9 .7 1.3 1 2.2c.4 .8 1.6 1.1 2.2 1.8c.9 1.1 2.7 3.6 3.7 4.7c2.2 2.5 2.9 2.3 4.9 4.9c.4 .5 3.3 2.1 3.8 2.5c.5 .6 1.3 3.7 1.9 4.2c.9 .9 2.8 .4 3.8 1.6c.6 .6 .1 1.7 .6 2.4c1.3 2.1 3.1 1.6 4.2 4.1c.3 .7-0.4 1.7 0 2.3c.2 .3 3.8 1 4 1.1c3.3 2.3 2.4 3.7 6.4 4.2Zm-1.8 9.2c.1-0.1 .2-0.1 .3-0.2c.1-0.1 .3-0.2 .4-0.3c.1-0.1 .2-0.2 .3-0.2c.1-0.1 .2-0.2 .3-0.3c.1-0.1 .1-0.1 .1-0.2c.1-0.1-0.1-0.1-0.1-0.1c-0.1 0-0.3 .1-0.3 .1c-0.3 .4-0.7 .8-1 1.2Z" fill="url(#Gradient-12)" stroke-width="1.3"/><path d="M291.1 287.8c.4-0.1 2-1.4 2.2-2m7.6-3.7c0 0-1.4 .7-2.7 .7m-5.1-5.3c-0.2-0.5-0.2-1 .1-1.6c.1-0.3 .3-0.6 .5-0.8c.1-0.3 .3-0.5 .6-0.7c.2-0.2 .4-0.4 .7-0.6c.2-0.2 .5-0.3 .7-0.5c2.1-1.1 4.4-1 5 .2c.4 .7 .1 1.6-0.5 2.5m-13.2 10.8c-1 .3-1.9 .1-2.6-0.5c-1.3-1.1-1-3.4 .5-5.2c1.6-1.8 3.9-2.3 5.2-1.2" fill="none" stroke-width="1.3"/></g></g></g><g transform="translate(281.5,262.5) translate(-140.9,-208.9)"><g id="Adenovirus-label" opacity="0" transform="translate(77.4,395) translate(-77.4,-22.8)"><text font-size="18" font-family="ABCSans" letter-spacing=".1em" word-spacing="0" text-anchor="middle" font-weight="900" transform="translate(77.4,66.2)" style="line-height: 22px;">HARMLESS VIRUS</text></g></g></g><script xlink:href="keyshapejs-1.1.0.min.js"/><script><![CDATA[if(KeyshapeJS.version.indexOf('1.')!=0)throw Error('Expected KeyshapeJS v1.*.*');window.ks=document.ks=KeyshapeJS;(function(ks){
ks.animate("#Adenovirus",[{p:'rotate',t:[0,1000,2000,3000],v:[-2,0,-2,0],e:[[1,.4,0,.6,1],[1,.4,0,.6,1],[1,.4,0,.6,1],[0]]}],
"#Adenovirus-label",[{p:'opacity',t:[500,1000],v:[0,1],e:[[0],[0]]}],
{autoremove:false,markers:{"LoopStart":1000}}).range(0,3000);
if(document.location.search.substr(1).split('&').indexOf('global=paused')>=0)ks.globalPause()})(KeyshapeJS);
]]></script></svg>