<svg xmlns="http://www.w3.org/2000/svg" xmlns:xlink="http://www.w3.org/1999/xlink" width="100%" height="100%" viewBox="0 0 500 800" style="background: rgba(224,255,255,0.00); white-space: pre;"><defs><symbol id="tReceptor" preserveAspectRatio="none" width="13.7" height="11.5" viewBox="0 0 13.7 11.5" overflow="visible"><g transform="translate(-253.2,-225.7)"><path d="M265.1 230.7c1.7 1.1 1.8 2.5 1.2 2.4c-0.4-0.1-0.8 .4-2.6-0.8c-1.8-1.2-3-2.4-2.6-2.8c.3-0.3 2.2 0 4 1.2Z" fill="url(#Gradient-0)"/><path d="M262.5 233.9c1.8 1.5 .9 1.6 1.5 2.6c.3 .5-1.3 .8-3-0.7c-1.8-1.5-2.6-3.4-2.2-3.8c.3-0.4 2 .4 3.7 2Z" fill="url(#Gradient-1)"/><path d="M265.1 230.7c1.7 1.1 1.8 2.5 1.2 2.4c-0.4-0.1-0.8 .4-2.6-0.8c-1.8-1.2-3-2.4-2.6-2.8c.3-0.3 2.2 0 4 1.2Z" fill="none" stroke="#aa3372" stroke-width=".3"/><path d="M262.5 233.9c1.8 1.5 .9 1.6 1.5 2.6c.3 .5-1.3 .8-3-0.7c-1.8-1.5-2.6-3.4-2.2-3.8c.3-0.4 2 .4 3.7 2Z" fill="none" stroke="#aa3372" stroke-width=".3"/><path d="M259.5 227.1c.2-0.4 .6-0.3 1.5-0.1c.9 .2 1.6 .7 1.6 1.1c.2 0 .3 0 .4 .1c.2 0 .3 0 .5 .1c.1 .1 .2 .1 .3 .2c.2 .1 .3 .2 .4 .3c.8 .6 1.7 1.2 1.3 1.6c-0.2 .3-0.8 .3-1.5-0.1c0 .3 .2 .6 .2 .9c-0.2 .9 .5 1.1 1 1.3c1 .7 1.7 2.1 1.1 3c-0.5 .7-2.2 .7-3.3 0c-0.5-0.1-0.6-1-1.1-1.3c-0.2-0.1-0.7 .4-1 .3c-0.2-0.1-0.4 0-0.7 .1c.7 .6 1 1.5 .6 1.9c-0.4 .5-1.2-0.4-2.1-1.1c-0.1-0.1-0.2-0.2-0.3-0.3c-0.1-0.1-0.2-0.2-0.3-0.4c-0.1-0.1-0.2-0.2-0.2-0.4c-0.1-0.1-0.1-0.3-0.2-0.4c-0.4-0.1-0.9-0.7-1.2-1.5c-0.4-0.9-0.7-1.1-0.3-1.3c0 0 0 0 0 0c0 0 0 0 .1 0c0 0 0 0 0 0c0 0 0 0 0 0c0-0.1 0-0.1-0.1-0.1c0-0.1 0-0.1 0-0.1c0-0.1-0.1-0.1-0.1-0.1c0-0.1 0-0.1-0.1-0.1c-1.4-1.9-2.8-2.7-2-3.8c.7-1.2 2.1-0.6 4.2-0.1c.4 .1 .8 .2 1.3 .3Z" fill="url(#Gradient-2)"/><path d="M262.3 230.4c.5 .2 .8 1.2 1.3 1.4c.4 .2 1 .3 1.4 .6c1.1 .7 1.7 2.2 1.3 3c-0.4 .9-2.3 .8-3.5 0c-0.4-0.3-0.6-0.9-1-1.2c-0.2-0.2-0.7-0.3-1-0.5c-0.8-0.5-0.8-1.2-0.9-1.3" fill="none" stroke="#aa3372" stroke-width=".3"/><path d="M260.9 234.5c-0.2-0.1-0.4 0-0.7 .1c.7 .6 1 1.5 .6 1.9c-0.4 .5-1.2-0.4-2-1.1c-0.2-0.1-0.3-0.2-0.4-0.3c-0.1-0.1-0.2-0.3-0.3-0.4c-0.1-0.1-0.1-0.3-0.2-0.4c-0.1-0.2-0.1-0.3-0.1-0.5c-0.4 0-0.9-0.6-1.3-1.4c-0.4-0.9-0.7-1.1-0.3-1.3c0 0 0 0 0 0c0 0 0 0 .1 0c0 0 0 0 0 0c0 0 0 0 0 0c0-0.1 0-0.1-0.1-0.1c0-0.1 0-0.1 0-0.1c0-0.1-0.1-0.1-0.1-0.1c0-0.1 0-0.1-0.1-0.1c-1.4-1.9-2.8-2.7-2-3.8c.7-1.2 2.1-0.6 4.2-0.1c.4 .1 .8 .2 1.3 .3c.2-0.4 .6-0.3 1.5-0.1c.9 .2 1.6 .7 1.6 1.2c.2 0 .3 0 .5 0c.1 .1 .2 .1 .4 .2c.1 0 .2 .1 .4 .2c.1 0 .2 .1 .3 .2c.8 .7 1.7 1.2 1.3 1.6c-0.2 .3-0.8 .3-1.5-0.1c0 .3 0 .7 .2 .9" fill="none" stroke="#aa3372" stroke-width=".3"/></g></symbol><linearGradient id="Gradient-0" x1="0" y1="0" x2="1" y2=".1" gradientUnits="userSpaceOnUse" gradientTransform="matrix(.7 1.5 -3.1 .5 264.2 231.2)"><stop offset="0" stop-color="#fdb15f"/><stop offset=".2" stop-color="#f58b63"/><stop offset=".4" stop-color="#ed6666"/><stop offset="1" stop-color="#e95567"/></linearGradient><linearGradient id="Gradient-1" x1="0" y1="0" x2="1" y2=".1" gradientUnits="userSpaceOnUse" gradientTransform="matrix(.6 1.9 -3.1 .4 261.6 234.5)"><stop offset="0" stop-color="#fdb15f"/><stop offset=".2" stop-color="#f58b63"/><stop offset=".4" stop-color="#ed6666"/><stop offset="1" stop-color="#e95567"/></linearGradient><linearGradient id="Gradient-2" x1="0" y1="0" x2="1" y2="0" gradientUnits="userSpaceOnUse" gradientTransform="matrix(9.6 8.6 -4.2 4.7 256 225.6)"><stop offset="0" stop-color="#e95567"/><stop offset=".7" stop-color="#ffbc5a"/><stop offset=".9" stop-color="#fcad5c"/><stop offset="1" stop-color="#f38561"/><stop offset="1" stop-color="#e95567"/></linearGradient><radialGradient id="Gradient-3" cx="0" cy="0" r="1" fx="0" fy="0" gradientUnits="userSpaceOnUse" gradientTransform="matrix(86.8 0 0 86.9 170.7 176.2)"><stop offset="0" stop-color="#a4009e"/><stop offset=".7" stop-color="#a4009e" stop-opacity=".86"/><stop offset=".8" stop-color="#a4009e" stop-opacity=".47"/><stop offset="1" stop-color="#a4009e" stop-opacity="0"/></radialGradient><linearGradient id="Gradient-4" x1="0" y1="0" x2="1" y2="-0.2" gradientUnits="userSpaceOnUse" gradientTransform="matrix(-148.2 -249.1 191.9 -154 230.3 265.2)"><stop offset="0" stop-color="#55b0b8" stop-opacity="0"/><stop offset=".5" stop-color="#55b0b8" stop-opacity=".18"/><stop offset="1" stop-color="#55b0b8" stop-opacity=".8"/></linearGradient><radialGradient id="Gradient-5" cx="0" cy="0" r="1" fx="0" fy="0" gradientUnits="userSpaceOnUse" gradientTransform="matrix(72 123.8 -123.8 72 143.6 148.6)"><stop offset="0" stop-color="#3d839b" stop-opacity="0"/><stop offset=".5" stop-color="#3d839b" stop-opacity="0"/><stop offset=".9" stop-color="#3d839b" stop-opacity="0"/><stop offset="1" stop-color="#3d839b"/></radialGradient><radialGradient id="Gradient-6" cx="0" cy="0" r="1" fx="0" fy="0" gradientUnits="userSpaceOnUse" gradientTransform="matrix(84.9 179 -166.2 91.4 124 99)"><stop offset="0" stop-color="#fff" stop-opacity=".4"/><stop offset=".1" stop-color="#fff" stop-opacity=".29"/><stop offset=".3" stop-color="#fff" stop-opacity="0"/><stop offset=".5" stop-color="#3d839b" stop-opacity="0"/><stop offset=".8" stop-color="#3d839b" stop-opacity=".6"/><stop offset="1" stop-color="#3d839b" stop-opacity=".3"/></radialGradient><radialGradient id="Gradient-7" cx="0" cy="0" r="1" fx="0" fy="0" gradientUnits="userSpaceOnUse" gradientTransform="matrix(-81.5 -0.7 .6 -80.1 151.4 159.4)"><stop offset="0" stop-color="#3e3eff"/><stop offset=".7" stop-color="#3e3eff" stop-opacity=".86"/><stop offset=".8" stop-color="#3e3eff" stop-opacity=".47"/><stop offset="1" stop-color="#3e3eff" stop-opacity="0"/></radialGradient><radialGradient id="Gradient-8" cx="0" cy="0" r="1" fx="0" fy="0" gradientUnits="userSpaceOnUse" gradientTransform="matrix(59.7 127.4 -127.4 59.7 148.6 132)"><stop offset="0" stop-color="#c67272" stop-opacity="0"/><stop offset=".5" stop-color="#c67272" stop-opacity="0"/><stop offset=".9" stop-color="#c67272" stop-opacity="0"/><stop offset="1" stop-color="#c67272"/></radialGradient><radialGradient id="Gradient-9" cx="0" cy="0" r="1" fx="0" fy="0" gradientUnits="userSpaceOnUse" gradientTransform="matrix(86.4 156.3 -156.3 86.4 126.4 89.3)"><stop offset="0" stop-color="#fff" stop-opacity=".4"/><stop offset=".1" stop-color="#fff" stop-opacity=".29"/><stop offset=".3" stop-color="#fff" stop-opacity="0"/><stop offset=".5" stop-color="#da6a41" stop-opacity="0"/><stop offset=".8" stop-color="#da6a41"/><stop offset="1" stop-color="#da6a41" stop-opacity=".3"/></radialGradient><mask id="Mask-1"><path d="M69.7 264.4c-26.9-19.4-65.3-52.2-63-107.5c1.7-41.5 19.4-77.6 45-106.6c19-21.4 37-37.7 66.3-43.5c17.1-3.4 33.8-2.6 49.8 2.9c41.9 14.4 81.1 44.4 102.8 84.4c20.8 38.2 9.1 99-16.6 133.1c-10.7 14.1-25.1 26.1-38.5 37.2c-15.9 13-29.3 21.2-50.5 24.6c-30.3 4.8-71.4-7.6-95.3-24.6Z" fill="#fff" transform="translate(73.6,-47.9) rotate(30) scale(.8,.801)"/></mask><mask id="Mask-2"><path d="M13.3 78.4c22.6-34.7 66.6-101.9 172-61c77.5 30.1 120.1 90.6 99.2 142.4c-21 51.8-45.5 88.2-117.9 97.1c-72.3 8.8-84.5-6.5-116.9-31.2c-32.4-24.6-59-112.6-36.4-147.3Z" fill="#fff" transform="translate(-4.8,-4)"/></mask></defs><g transform="translate(398.3,-124.3) translate(-366.3,-658.4)"><g id="Antibodies" opacity="0" transform="translate(233.1,1054.1) translate(-11.5,-9.5)"><g id="_a0" transform="translate(-4,142.7) translate(0,0) rotate(-69) translate(-12.1,-10)"><g fill-rule="evenodd" clip-rule="evenodd" stroke-linejoin="round" stroke-miterlimit="2" transform="translate(12.2,10.4) scale(.5,.5) translate(-12.2,-9.5)"><path d="M6.8 3.8c0-1.4 1.7-2.9 3-2c.9 .7 1 1.6 1.7 2.4c1 1.1 1.3 .7 1.8-0.4c1.1-2.9 1.4-2.6 2.4-2.4c.3 0 2.4 .2 3.4 .9c.9 .7 4.6 1.4 4.6 2.9c.1 3.4-1.5 4.5-2.9 4.3c-0.6-0.1-1.2-0.5-1.8-0.5c-0.3-0.1-1.4 .5-1.7 .4c-0.6-0.2-0.9-0.9-1.4-1c-0.5-0.1-0.8 .4-1.2 .5c-0.2 0-1.6-0.6-1.8-0.6c-0.5 .2-0.1 1.3-0.2 1.5c-0.1 .2-0.8 .8-0.7 1.1c.1 .4 1 .4 1.2 .7c.3 .4 .3 .9 .6 1.3c.7 1 1.4 .6 1.9 1.8c.6 1.7-2.1 1.8-2.8 2.2c-0.7 .5-0.7 2.1-1.9 2c-0.8-0.1-1.7-0.4-2.2-1.3c-0.5-1.2 .2-1.4-0.7-2.4c-0.6-0.7-1.6-2.1-0.8-3.6c.6-1.3-0.1-0.8 .9-1.7c.6-0.6 .2-0.9 .7-1.6c.3-0.4 1.1-0.6 1.2-1.2c0-0.5-0.8-0.7-1.1-0.6c-0.6 .4-0.8 1.3-1.7 1.3c-0.6 .1-1.1-0.3-1.7-0.3c-1.4 0-3.4 1.1-4.7-0.2c-0.4-0.5-0.2-3.1 0-3.5c.7-1.3 1.4-0.4 2.6-1.2c.1-0.1 .2-0.1 .3-0.2c.1 0 .2-0.1 .4-0.1c.1 0 .2-0.1 .3-0.1c.1 0 .2 0 .4-0.1c1.1-0.1 .8 1.7 1.9 1.7Z" fill="#2d50ff"/><path d="M17.7 1.1c.9-0.6 3.5-2.1 3.7-0.2c.4-0.1 .9-0.1 1.3 .1c1.5 .8 .6 2.6 .7 2.8c.1 .3-3.3 1.6-3.6-0.6c-1.9 1.2-2.2 3.5-5.4 3.4c-0.2 0-0.5 .2-0.8 .2c-2.1-0.1-1.7-2.9 .4-3.3c-0.1-0.7 .5-1.2 1.3-1.5c.9-0.3 2-0.5 2.4-0.9Zm-13.1-0.2c1.5-0.8 6-0.5 5.8 1.3c-0.2 1.8-2.7 3.4-3.6 1.6c-0.5 .5-1.5 .1-2.1 0c-0.9 2.2-4.7 .6-3.9-1.6c.1-0.2 .3-0.4 .5-0.6c.2-0.2 .4-0.4 .6-0.5c.3-0.1 2.4-0.2 2.8-0.2Z" fill="#5a92ff"/></g></g><g id="_a1" transform="translate(-4,142.7) translate(0,0) rotate(-346) translate(-12.1,-10)"><g fill-rule="evenodd" clip-rule="evenodd" stroke-linejoin="round" stroke-miterlimit="2" transform="translate(12.2,10.4) scale(.5,.5) translate(-12.2,-9.5)"><path d="M6.8 3.8c0-1.4 1.7-2.9 3-2c.9 .7 1 1.6 1.7 2.4c1 1.1 1.3 .7 1.8-0.4c1.1-2.9 1.4-2.6 2.4-2.4c.3 0 2.4 .2 3.4 .9c.9 .7 4.6 1.4 4.6 2.9c.1 3.4-1.5 4.5-2.9 4.3c-0.6-0.1-1.2-0.5-1.8-0.5c-0.3-0.1-1.4 .5-1.7 .4c-0.6-0.2-0.9-0.9-1.4-1c-0.5-0.1-0.8 .4-1.2 .5c-0.2 0-1.6-0.6-1.8-0.6c-0.5 .2-0.1 1.3-0.2 1.5c-0.1 .2-0.8 .8-0.7 1.1c.1 .4 1 .4 1.2 .7c.3 .4 .3 .9 .6 1.3c.7 1 1.4 .6 1.9 1.8c.6 1.7-2.1 1.8-2.8 2.2c-0.7 .5-0.7 2.1-1.9 2c-0.8-0.1-1.7-0.4-2.2-1.3c-0.5-1.2 .2-1.4-0.7-2.4c-0.6-0.7-1.6-2.1-0.8-3.6c.6-1.3-0.1-0.8 .9-1.7c.6-0.6 .2-0.9 .7-1.6c.3-0.4 1.1-0.6 1.2-1.2c0-0.5-0.8-0.7-1.1-0.6c-0.6 .4-0.8 1.3-1.7 1.3c-0.6 .1-1.1-0.3-1.7-0.3c-1.4 0-3.4 1.1-4.7-0.2c-0.4-0.5-0.2-3.1 0-3.5c.7-1.3 1.4-0.4 2.6-1.2c.1-0.1 .2-0.1 .3-0.2c.1 0 .2-0.1 .4-0.1c.1 0 .2-0.1 .3-0.1c.1 0 .2 0 .4-0.1c1.1-0.1 .8 1.7 1.9 1.7Z" fill="#2d50ff"/><path d="M17.7 1.1c.9-0.6 3.5-2.1 3.7-0.2c.4-0.1 .9-0.1 1.3 .1c1.5 .8 .6 2.6 .7 2.8c.1 .3-3.3 1.6-3.6-0.6c-1.9 1.2-2.2 3.5-5.4 3.4c-0.2 0-0.5 .2-0.8 .2c-2.1-0.1-1.7-2.9 .4-3.3c-0.1-0.7 .5-1.2 1.3-1.5c.9-0.3 2-0.5 2.4-0.9Zm-13.1-0.2c1.5-0.8 6-0.5 5.8 1.3c-0.2 1.8-2.7 3.4-3.6 1.6c-0.5 .5-1.5 .1-2.1 0c-0.9 2.2-4.7 .6-3.9-1.6c.1-0.2 .3-0.4 .5-0.6c.2-0.2 .4-0.4 .6-0.5c.3-0.1 2.4-0.2 2.8-0.2Z" fill="#5a92ff"/></g></g><g id="_a2" transform="translate(-4,142.7) translate(0,0) rotate(-407) translate(-12.1,-10)"><g fill-rule="evenodd" clip-rule="evenodd" stroke-linejoin="round" stroke-miterlimit="2" transform="translate(12.2,10.4) scale(.5,.5) translate(-12.2,-9.5)"><path d="M6.8 3.8c0-1.4 1.7-2.9 3-2c.9 .7 1 1.6 1.7 2.4c1 1.1 1.3 .7 1.8-0.4c1.1-2.9 1.4-2.6 2.4-2.4c.3 0 2.4 .2 3.4 .9c.9 .7 4.6 1.4 4.6 2.9c.1 3.4-1.5 4.5-2.9 4.3c-0.6-0.1-1.2-0.5-1.8-0.5c-0.3-0.1-1.4 .5-1.7 .4c-0.6-0.2-0.9-0.9-1.4-1c-0.5-0.1-0.8 .4-1.2 .5c-0.2 0-1.6-0.6-1.8-0.6c-0.5 .2-0.1 1.3-0.2 1.5c-0.1 .2-0.8 .8-0.7 1.1c.1 .4 1 .4 1.2 .7c.3 .4 .3 .9 .6 1.3c.7 1 1.4 .6 1.9 1.8c.6 1.7-2.1 1.8-2.8 2.2c-0.7 .5-0.7 2.1-1.9 2c-0.8-0.1-1.7-0.4-2.2-1.3c-0.5-1.2 .2-1.4-0.7-2.4c-0.6-0.7-1.6-2.1-0.8-3.6c.6-1.3-0.1-0.8 .9-1.7c.6-0.6 .2-0.9 .7-1.6c.3-0.4 1.1-0.6 1.2-1.2c0-0.5-0.8-0.7-1.1-0.6c-0.6 .4-0.8 1.3-1.7 1.3c-0.6 .1-1.1-0.3-1.7-0.3c-1.4 0-3.4 1.1-4.7-0.2c-0.4-0.5-0.2-3.1 0-3.5c.7-1.3 1.4-0.4 2.6-1.2c.1-0.1 .2-0.1 .3-0.2c.1 0 .2-0.1 .4-0.1c.1 0 .2-0.1 .3-0.1c.1 0 .2 0 .4-0.1c1.1-0.1 .8 1.7 1.9 1.7Z" fill="#2d50ff"/><path d="M17.7 1.1c.9-0.6 3.5-2.1 3.7-0.2c.4-0.1 .9-0.1 1.3 .1c1.5 .8 .6 2.6 .7 2.8c.1 .3-3.3 1.6-3.6-0.6c-1.9 1.2-2.2 3.5-5.4 3.4c-0.2 0-0.5 .2-0.8 .2c-2.1-0.1-1.7-2.9 .4-3.3c-0.1-0.7 .5-1.2 1.3-1.5c.9-0.3 2-0.5 2.4-0.9Zm-13.1-0.2c1.5-0.8 6-0.5 5.8 1.3c-0.2 1.8-2.7 3.4-3.6 1.6c-0.5 .5-1.5 .1-2.1 0c-0.9 2.2-4.7 .6-3.9-1.6c.1-0.2 .3-0.4 .5-0.6c.2-0.2 .4-0.4 .6-0.5c.3-0.1 2.4-0.2 2.8-0.2Z" fill="#5a92ff"/></g></g><g id="_a3" transform="translate(-4,142.7) translate(0,0) rotate(-288) translate(-12.1,-10)"><g fill-rule="evenodd" clip-rule="evenodd" stroke-linejoin="round" stroke-miterlimit="2" transform="translate(12.2,10.4) scale(.5,.5) translate(-12.2,-9.5)"><path d="M6.8 3.8c0-1.4 1.7-2.9 3-2c.9 .7 1 1.6 1.7 2.4c1 1.1 1.3 .7 1.8-0.4c1.1-2.9 1.4-2.6 2.4-2.4c.3 0 2.4 .2 3.4 .9c.9 .7 4.6 1.4 4.6 2.9c.1 3.4-1.5 4.5-2.9 4.3c-0.6-0.1-1.2-0.5-1.8-0.5c-0.3-0.1-1.4 .5-1.7 .4c-0.6-0.2-0.9-0.9-1.4-1c-0.5-0.1-0.8 .4-1.2 .5c-0.2 0-1.6-0.6-1.8-0.6c-0.5 .2-0.1 1.3-0.2 1.5c-0.1 .2-0.8 .8-0.7 1.1c.1 .4 1 .4 1.2 .7c.3 .4 .3 .9 .6 1.3c.7 1 1.4 .6 1.9 1.8c.6 1.7-2.1 1.8-2.8 2.2c-0.7 .5-0.7 2.1-1.9 2c-0.8-0.1-1.7-0.4-2.2-1.3c-0.5-1.2 .2-1.4-0.7-2.4c-0.6-0.7-1.6-2.1-0.8-3.6c.6-1.3-0.1-0.8 .9-1.7c.6-0.6 .2-0.9 .7-1.6c.3-0.4 1.1-0.6 1.2-1.2c0-0.5-0.8-0.7-1.1-0.6c-0.6 .4-0.8 1.3-1.7 1.3c-0.6 .1-1.1-0.3-1.7-0.3c-1.4 0-3.4 1.1-4.7-0.2c-0.4-0.5-0.2-3.1 0-3.5c.7-1.3 1.4-0.4 2.6-1.2c.1-0.1 .2-0.1 .3-0.2c.1 0 .2-0.1 .4-0.1c.1 0 .2-0.1 .3-0.1c.1 0 .2 0 .4-0.1c1.1-0.1 .8 1.7 1.9 1.7Z" fill="#2d50ff"/><path d="M17.7 1.1c.9-0.6 3.5-2.1 3.7-0.2c.4-0.1 .9-0.1 1.3 .1c1.5 .8 .6 2.6 .7 2.8c.1 .3-3.3 1.6-3.6-0.6c-1.9 1.2-2.2 3.5-5.4 3.4c-0.2 0-0.5 .2-0.8 .2c-2.1-0.1-1.7-2.9 .4-3.3c-0.1-0.7 .5-1.2 1.3-1.5c.9-0.3 2-0.5 2.4-0.9Zm-13.1-0.2c1.5-0.8 6-0.5 5.8 1.3c-0.2 1.8-2.7 3.4-3.6 1.6c-0.5 .5-1.5 .1-2.1 0c-0.9 2.2-4.7 .6-3.9-1.6c.1-0.2 .3-0.4 .5-0.6c.2-0.2 .4-0.4 .6-0.5c.3-0.1 2.4-0.2 2.8-0.2Z" fill="#5a92ff"/></g></g><g id="_a4" transform="translate(-4,142.7) translate(0,0) rotate(-368) translate(-12.1,-10)"><g fill-rule="evenodd" clip-rule="evenodd" stroke-linejoin="round" stroke-miterlimit="2" transform="translate(12.2,10.4) scale(.5,.5) translate(-12.2,-9.5)"><path d="M6.8 3.8c0-1.4 1.7-2.9 3-2c.9 .7 1 1.6 1.7 2.4c1 1.1 1.3 .7 1.8-0.4c1.1-2.9 1.4-2.6 2.4-2.4c.3 0 2.4 .2 3.4 .9c.9 .7 4.6 1.4 4.6 2.9c.1 3.4-1.5 4.5-2.9 4.3c-0.6-0.1-1.2-0.5-1.8-0.5c-0.3-0.1-1.4 .5-1.7 .4c-0.6-0.2-0.9-0.9-1.4-1c-0.5-0.1-0.8 .4-1.2 .5c-0.2 0-1.6-0.6-1.8-0.6c-0.5 .2-0.1 1.3-0.2 1.5c-0.1 .2-0.8 .8-0.7 1.1c.1 .4 1 .4 1.2 .7c.3 .4 .3 .9 .6 1.3c.7 1 1.4 .6 1.9 1.8c.6 1.7-2.1 1.8-2.8 2.2c-0.7 .5-0.7 2.1-1.9 2c-0.8-0.1-1.7-0.4-2.2-1.3c-0.5-1.2 .2-1.4-0.7-2.4c-0.6-0.7-1.6-2.1-0.8-3.6c.6-1.3-0.1-0.8 .9-1.7c.6-0.6 .2-0.9 .7-1.6c.3-0.4 1.1-0.6 1.2-1.2c0-0.5-0.8-0.7-1.1-0.6c-0.6 .4-0.8 1.3-1.7 1.3c-0.6 .1-1.1-0.3-1.7-0.3c-1.4 0-3.4 1.1-4.7-0.2c-0.4-0.5-0.2-3.1 0-3.5c.7-1.3 1.4-0.4 2.6-1.2c.1-0.1 .2-0.1 .3-0.2c.1 0 .2-0.1 .4-0.1c.1 0 .2-0.1 .3-0.1c.1 0 .2 0 .4-0.1c1.1-0.1 .8 1.7 1.9 1.7Z" fill="#2d50ff"/><path d="M17.7 1.1c.9-0.6 3.5-2.1 3.7-0.2c.4-0.1 .9-0.1 1.3 .1c1.5 .8 .6 2.6 .7 2.8c.1 .3-3.3 1.6-3.6-0.6c-1.9 1.2-2.2 3.5-5.4 3.4c-0.2 0-0.5 .2-0.8 .2c-2.1-0.1-1.7-2.9 .4-3.3c-0.1-0.7 .5-1.2 1.3-1.5c.9-0.3 2-0.5 2.4-0.9Zm-13.1-0.2c1.5-0.8 6-0.5 5.8 1.3c-0.2 1.8-2.7 3.4-3.6 1.6c-0.5 .5-1.5 .1-2.1 0c-0.9 2.2-4.7 .6-3.9-1.6c.1-0.2 .3-0.4 .5-0.6c.2-0.2 .4-0.4 .6-0.5c.3-0.1 2.4-0.2 2.8-0.2Z" fill="#5a92ff"/></g></g><g id="_a5" transform="translate(-4,142.7) translate(0,0) rotate(-201) translate(-12.1,-10)"><g fill-rule="evenodd" clip-rule="evenodd" stroke-linejoin="round" stroke-miterlimit="2" transform="translate(12.2,10.4) scale(.5,.5) translate(-12.2,-9.5)"><path d="M6.8 3.8c0-1.4 1.7-2.9 3-2c.9 .7 1 1.6 1.7 2.4c1 1.1 1.3 .7 1.8-0.4c1.1-2.9 1.4-2.6 2.4-2.4c.3 0 2.4 .2 3.4 .9c.9 .7 4.6 1.4 4.6 2.9c.1 3.4-1.5 4.5-2.9 4.3c-0.6-0.1-1.2-0.5-1.8-0.5c-0.3-0.1-1.4 .5-1.7 .4c-0.6-0.2-0.9-0.9-1.4-1c-0.5-0.1-0.8 .4-1.2 .5c-0.2 0-1.6-0.6-1.8-0.6c-0.5 .2-0.1 1.3-0.2 1.5c-0.1 .2-0.8 .8-0.7 1.1c.1 .4 1 .4 1.2 .7c.3 .4 .3 .9 .6 1.3c.7 1 1.4 .6 1.9 1.8c.6 1.7-2.1 1.8-2.8 2.2c-0.7 .5-0.7 2.1-1.9 2c-0.8-0.1-1.7-0.4-2.2-1.3c-0.5-1.2 .2-1.4-0.7-2.4c-0.6-0.7-1.6-2.1-0.8-3.6c.6-1.3-0.1-0.8 .9-1.7c.6-0.6 .2-0.9 .7-1.6c.3-0.4 1.1-0.6 1.2-1.2c0-0.5-0.8-0.7-1.1-0.6c-0.6 .4-0.8 1.3-1.7 1.3c-0.6 .1-1.1-0.3-1.7-0.3c-1.4 0-3.4 1.1-4.7-0.2c-0.4-0.5-0.2-3.1 0-3.5c.7-1.3 1.4-0.4 2.6-1.2c.1-0.1 .2-0.1 .3-0.2c.1 0 .2-0.1 .4-0.1c.1 0 .2-0.1 .3-0.1c.1 0 .2 0 .4-0.1c1.1-0.1 .8 1.7 1.9 1.7Z" fill="#2d50ff"/><path d="M17.7 1.1c.9-0.6 3.5-2.1 3.7-0.2c.4-0.1 .9-0.1 1.3 .1c1.5 .8 .6 2.6 .7 2.8c.1 .3-3.3 1.6-3.6-0.6c-1.9 1.2-2.2 3.5-5.4 3.4c-0.2 0-0.5 .2-0.8 .2c-2.1-0.1-1.7-2.9 .4-3.3c-0.1-0.7 .5-1.2 1.3-1.5c.9-0.3 2-0.5 2.4-0.9Zm-13.1-0.2c1.5-0.8 6-0.5 5.8 1.3c-0.2 1.8-2.7 3.4-3.6 1.6c-0.5 .5-1.5 .1-2.1 0c-0.9 2.2-4.7 .6-3.9-1.6c.1-0.2 .3-0.4 .5-0.6c.2-0.2 .4-0.4 .6-0.5c.3-0.1 2.4-0.2 2.8-0.2Z" fill="#5a92ff"/></g></g><g id="_a6" transform="translate(-4,142.7) translate(0,0) rotate(-492) translate(-12.1,-10)"><g fill-rule="evenodd" clip-rule="evenodd" stroke-linejoin="round" stroke-miterlimit="2" transform="translate(12.2,10.4) scale(.5,.5) translate(-12.2,-9.5)"><path d="M6.8 3.8c0-1.4 1.7-2.9 3-2c.9 .7 1 1.6 1.7 2.4c1 1.1 1.3 .7 1.8-0.4c1.1-2.9 1.4-2.6 2.4-2.4c.3 0 2.4 .2 3.4 .9c.9 .7 4.6 1.4 4.6 2.9c.1 3.4-1.5 4.5-2.9 4.3c-0.6-0.1-1.2-0.5-1.8-0.5c-0.3-0.1-1.4 .5-1.7 .4c-0.6-0.2-0.9-0.9-1.4-1c-0.5-0.1-0.8 .4-1.2 .5c-0.2 0-1.6-0.6-1.8-0.6c-0.5 .2-0.1 1.3-0.2 1.5c-0.1 .2-0.8 .8-0.7 1.1c.1 .4 1 .4 1.2 .7c.3 .4 .3 .9 .6 1.3c.7 1 1.4 .6 1.9 1.8c.6 1.7-2.1 1.8-2.8 2.2c-0.7 .5-0.7 2.1-1.9 2c-0.8-0.1-1.7-0.4-2.2-1.3c-0.5-1.2 .2-1.4-0.7-2.4c-0.6-0.7-1.6-2.1-0.8-3.6c.6-1.3-0.1-0.8 .9-1.7c.6-0.6 .2-0.9 .7-1.6c.3-0.4 1.1-0.6 1.2-1.2c0-0.5-0.8-0.7-1.1-0.6c-0.6 .4-0.8 1.3-1.7 1.3c-0.6 .1-1.1-0.3-1.7-0.3c-1.4 0-3.4 1.1-4.7-0.2c-0.4-0.5-0.2-3.1 0-3.5c.7-1.3 1.4-0.4 2.6-1.2c.1-0.1 .2-0.1 .3-0.2c.1 0 .2-0.1 .4-0.1c.1 0 .2-0.1 .3-0.1c.1 0 .2 0 .4-0.1c1.1-0.1 .8 1.7 1.9 1.7Z" fill="#2d50ff"/><path d="M17.7 1.1c.9-0.6 3.5-2.1 3.7-0.2c.4-0.1 .9-0.1 1.3 .1c1.5 .8 .6 2.6 .7 2.8c.1 .3-3.3 1.6-3.6-0.6c-1.9 1.2-2.2 3.5-5.4 3.4c-0.2 0-0.5 .2-0.8 .2c-2.1-0.1-1.7-2.9 .4-3.3c-0.1-0.7 .5-1.2 1.3-1.5c.9-0.3 2-0.5 2.4-0.9Zm-13.1-0.2c1.5-0.8 6-0.5 5.8 1.3c-0.2 1.8-2.7 3.4-3.6 1.6c-0.5 .5-1.5 .1-2.1 0c-0.9 2.2-4.7 .6-3.9-1.6c.1-0.2 .3-0.4 .5-0.6c.2-0.2 .4-0.4 .6-0.5c.3-0.1 2.4-0.2 2.8-0.2Z" fill="#5a92ff"/></g></g><g id="_a7" transform="translate(-4,142.7) translate(0,0) rotate(-397) translate(-12.1,-10)"><g fill-rule="evenodd" clip-rule="evenodd" stroke-linejoin="round" stroke-miterlimit="2" transform="translate(12.2,10.4) scale(.5,.5) translate(-12.2,-9.5)"><path d="M6.8 3.8c0-1.4 1.7-2.9 3-2c.9 .7 1 1.6 1.7 2.4c1 1.1 1.3 .7 1.8-0.4c1.1-2.9 1.4-2.6 2.4-2.4c.3 0 2.4 .2 3.4 .9c.9 .7 4.6 1.4 4.6 2.9c.1 3.4-1.5 4.5-2.9 4.3c-0.6-0.1-1.2-0.5-1.8-0.5c-0.3-0.1-1.4 .5-1.7 .4c-0.6-0.2-0.9-0.9-1.4-1c-0.5-0.1-0.8 .4-1.2 .5c-0.2 0-1.6-0.6-1.8-0.6c-0.5 .2-0.1 1.3-0.2 1.5c-0.1 .2-0.8 .8-0.7 1.1c.1 .4 1 .4 1.2 .7c.3 .4 .3 .9 .6 1.3c.7 1 1.4 .6 1.9 1.8c.6 1.7-2.1 1.8-2.8 2.2c-0.7 .5-0.7 2.1-1.9 2c-0.8-0.1-1.7-0.4-2.2-1.3c-0.5-1.2 .2-1.4-0.7-2.4c-0.6-0.7-1.6-2.1-0.8-3.6c.6-1.3-0.1-0.8 .9-1.7c.6-0.6 .2-0.9 .7-1.6c.3-0.4 1.1-0.6 1.2-1.2c0-0.5-0.8-0.7-1.1-0.6c-0.6 .4-0.8 1.3-1.7 1.3c-0.6 .1-1.1-0.3-1.7-0.3c-1.4 0-3.4 1.1-4.7-0.2c-0.4-0.5-0.2-3.1 0-3.5c.7-1.3 1.4-0.4 2.6-1.2c.1-0.1 .2-0.1 .3-0.2c.1 0 .2-0.1 .4-0.1c.1 0 .2-0.1 .3-0.1c.1 0 .2 0 .4-0.1c1.1-0.1 .8 1.7 1.9 1.7Z" fill="#2d50ff"/><path d="M17.7 1.1c.9-0.6 3.5-2.1 3.7-0.2c.4-0.1 .9-0.1 1.3 .1c1.5 .8 .6 2.6 .7 2.8c.1 .3-3.3 1.6-3.6-0.6c-1.9 1.2-2.2 3.5-5.4 3.4c-0.2 0-0.5 .2-0.8 .2c-2.1-0.1-1.7-2.9 .4-3.3c-0.1-0.7 .5-1.2 1.3-1.5c.9-0.3 2-0.5 2.4-0.9Zm-13.1-0.2c1.5-0.8 6-0.5 5.8 1.3c-0.2 1.8-2.7 3.4-3.6 1.6c-0.5 .5-1.5 .1-2.1 0c-0.9 2.2-4.7 .6-3.9-1.6c.1-0.2 .3-0.4 .5-0.6c.2-0.2 .4-0.4 .6-0.5c.3-0.1 2.4-0.2 2.8-0.2Z" fill="#5a92ff"/></g></g><g id="_a8" transform="translate(-4,142.7) translate(0,0) rotate(-315) translate(-12.1,-10)"><g fill-rule="evenodd" clip-rule="evenodd" stroke-linejoin="round" stroke-miterlimit="2" transform="translate(12.2,10.4) scale(.5,.5) translate(-12.2,-9.5)"><path d="M6.8 3.8c0-1.4 1.7-2.9 3-2c.9 .7 1 1.6 1.7 2.4c1 1.1 1.3 .7 1.8-0.4c1.1-2.9 1.4-2.6 2.4-2.4c.3 0 2.4 .2 3.4 .9c.9 .7 4.6 1.4 4.6 2.9c.1 3.4-1.5 4.5-2.9 4.3c-0.6-0.1-1.2-0.5-1.8-0.5c-0.3-0.1-1.4 .5-1.7 .4c-0.6-0.2-0.9-0.9-1.4-1c-0.5-0.1-0.8 .4-1.2 .5c-0.2 0-1.6-0.6-1.8-0.6c-0.5 .2-0.1 1.3-0.2 1.5c-0.1 .2-0.8 .8-0.7 1.1c.1 .4 1 .4 1.2 .7c.3 .4 .3 .9 .6 1.3c.7 1 1.4 .6 1.9 1.8c.6 1.7-2.1 1.8-2.8 2.2c-0.7 .5-0.7 2.1-1.9 2c-0.8-0.1-1.7-0.4-2.2-1.3c-0.5-1.2 .2-1.4-0.7-2.4c-0.6-0.7-1.6-2.1-0.8-3.6c.6-1.3-0.1-0.8 .9-1.7c.6-0.6 .2-0.9 .7-1.6c.3-0.4 1.1-0.6 1.2-1.2c0-0.5-0.8-0.7-1.1-0.6c-0.6 .4-0.8 1.3-1.7 1.3c-0.6 .1-1.1-0.3-1.7-0.3c-1.4 0-3.4 1.1-4.7-0.2c-0.4-0.5-0.2-3.1 0-3.5c.7-1.3 1.4-0.4 2.6-1.2c.1-0.1 .2-0.1 .3-0.2c.1 0 .2-0.1 .4-0.1c.1 0 .2-0.1 .3-0.1c.1 0 .2 0 .4-0.1c1.1-0.1 .8 1.7 1.9 1.7Z" fill="#2d50ff"/><path d="M17.7 1.1c.9-0.6 3.5-2.1 3.7-0.2c.4-0.1 .9-0.1 1.3 .1c1.5 .8 .6 2.6 .7 2.8c.1 .3-3.3 1.6-3.6-0.6c-1.9 1.2-2.2 3.5-5.4 3.4c-0.2 0-0.5 .2-0.8 .2c-2.1-0.1-1.7-2.9 .4-3.3c-0.1-0.7 .5-1.2 1.3-1.5c.9-0.3 2-0.5 2.4-0.9Zm-13.1-0.2c1.5-0.8 6-0.5 5.8 1.3c-0.2 1.8-2.7 3.4-3.6 1.6c-0.5 .5-1.5 .1-2.1 0c-0.9 2.2-4.7 .6-3.9-1.6c.1-0.2 .3-0.4 .5-0.6c.2-0.2 .4-0.4 .6-0.5c.3-0.1 2.4-0.2 2.8-0.2Z" fill="#5a92ff"/></g></g><g id="_a9" transform="translate(-4,142.7) translate(0,0) rotate(-498) translate(-12.1,-10)"><g fill-rule="evenodd" clip-rule="evenodd" stroke-linejoin="round" stroke-miterlimit="2" transform="translate(12.2,10.4) scale(.5,.5) translate(-12.2,-9.5)"><path d="M6.8 3.8c0-1.4 1.7-2.9 3-2c.9 .7 1 1.6 1.7 2.4c1 1.1 1.3 .7 1.8-0.4c1.1-2.9 1.4-2.6 2.4-2.4c.3 0 2.4 .2 3.4 .9c.9 .7 4.6 1.4 4.6 2.9c.1 3.4-1.5 4.5-2.9 4.3c-0.6-0.1-1.2-0.5-1.8-0.5c-0.3-0.1-1.4 .5-1.7 .4c-0.6-0.2-0.9-0.9-1.4-1c-0.5-0.1-0.8 .4-1.2 .5c-0.2 0-1.6-0.6-1.8-0.6c-0.5 .2-0.1 1.3-0.2 1.5c-0.1 .2-0.8 .8-0.7 1.1c.1 .4 1 .4 1.2 .7c.3 .4 .3 .9 .6 1.3c.7 1 1.4 .6 1.9 1.8c.6 1.7-2.1 1.8-2.8 2.2c-0.7 .5-0.7 2.1-1.9 2c-0.8-0.1-1.7-0.4-2.2-1.3c-0.5-1.2 .2-1.4-0.7-2.4c-0.6-0.7-1.6-2.1-0.8-3.6c.6-1.3-0.1-0.8 .9-1.7c.6-0.6 .2-0.9 .7-1.6c.3-0.4 1.1-0.6 1.2-1.2c0-0.5-0.8-0.7-1.1-0.6c-0.6 .4-0.8 1.3-1.7 1.3c-0.6 .1-1.1-0.3-1.7-0.3c-1.4 0-3.4 1.1-4.7-0.2c-0.4-0.5-0.2-3.1 0-3.5c.7-1.3 1.4-0.4 2.6-1.2c.1-0.1 .2-0.1 .3-0.2c.1 0 .2-0.1 .4-0.1c.1 0 .2-0.1 .3-0.1c.1 0 .2 0 .4-0.1c1.1-0.1 .8 1.7 1.9 1.7Z" fill="#2d50ff"/><path d="M17.7 1.1c.9-0.6 3.5-2.1 3.7-0.2c.4-0.1 .9-0.1 1.3 .1c1.5 .8 .6 2.6 .7 2.8c.1 .3-3.3 1.6-3.6-0.6c-1.9 1.2-2.2 3.5-5.4 3.4c-0.2 0-0.5 .2-0.8 .2c-2.1-0.1-1.7-2.9 .4-3.3c-0.1-0.7 .5-1.2 1.3-1.5c.9-0.3 2-0.5 2.4-0.9Zm-13.1-0.2c1.5-0.8 6-0.5 5.8 1.3c-0.2 1.8-2.7 3.4-3.6 1.6c-0.5 .5-1.5 .1-2.1 0c-0.9 2.2-4.7 .6-3.9-1.6c.1-0.2 .3-0.4 .5-0.6c.2-0.2 .4-0.4 .6-0.5c.3-0.1 2.4-0.2 2.8-0.2Z" fill="#5a92ff"/></g></g><g id="_a10" transform="translate(-4,142.7) translate(0,0) rotate(-335) translate(-12.1,-10)"><g fill-rule="evenodd" clip-rule="evenodd" stroke-linejoin="round" stroke-miterlimit="2" transform="translate(12.2,10.4) scale(.5,.5) translate(-12.2,-9.5)"><path d="M6.8 3.8c0-1.4 1.7-2.9 3-2c.9 .7 1 1.6 1.7 2.4c1 1.1 1.3 .7 1.8-0.4c1.1-2.9 1.4-2.6 2.4-2.4c.3 0 2.4 .2 3.4 .9c.9 .7 4.6 1.4 4.6 2.9c.1 3.4-1.5 4.5-2.9 4.3c-0.6-0.1-1.2-0.5-1.8-0.5c-0.3-0.1-1.4 .5-1.7 .4c-0.6-0.2-0.9-0.9-1.4-1c-0.5-0.1-0.8 .4-1.2 .5c-0.2 0-1.6-0.6-1.8-0.6c-0.5 .2-0.1 1.3-0.2 1.5c-0.1 .2-0.8 .8-0.7 1.1c.1 .4 1 .4 1.2 .7c.3 .4 .3 .9 .6 1.3c.7 1 1.4 .6 1.9 1.8c.6 1.7-2.1 1.8-2.8 2.2c-0.7 .5-0.7 2.1-1.9 2c-0.8-0.1-1.7-0.4-2.2-1.3c-0.5-1.2 .2-1.4-0.7-2.4c-0.6-0.7-1.6-2.1-0.8-3.6c.6-1.3-0.1-0.8 .9-1.7c.6-0.6 .2-0.9 .7-1.6c.3-0.4 1.1-0.6 1.2-1.2c0-0.5-0.8-0.7-1.1-0.6c-0.6 .4-0.8 1.3-1.7 1.3c-0.6 .1-1.1-0.3-1.7-0.3c-1.4 0-3.4 1.1-4.7-0.2c-0.4-0.5-0.2-3.1 0-3.5c.7-1.3 1.4-0.4 2.6-1.2c.1-0.1 .2-0.1 .3-0.2c.1 0 .2-0.1 .4-0.1c.1 0 .2-0.1 .3-0.1c.1 0 .2 0 .4-0.1c1.1-0.1 .8 1.7 1.9 1.7Z" fill="#2d50ff"/><path d="M17.7 1.1c.9-0.6 3.5-2.1 3.7-0.2c.4-0.1 .9-0.1 1.3 .1c1.5 .8 .6 2.6 .7 2.8c.1 .3-3.3 1.6-3.6-0.6c-1.9 1.2-2.2 3.5-5.4 3.4c-0.2 0-0.5 .2-0.8 .2c-2.1-0.1-1.7-2.9 .4-3.3c-0.1-0.7 .5-1.2 1.3-1.5c.9-0.3 2-0.5 2.4-0.9Zm-13.1-0.2c1.5-0.8 6-0.5 5.8 1.3c-0.2 1.8-2.7 3.4-3.6 1.6c-0.5 .5-1.5 .1-2.1 0c-0.9 2.2-4.7 .6-3.9-1.6c.1-0.2 .3-0.4 .5-0.6c.2-0.2 .4-0.4 .6-0.5c.3-0.1 2.4-0.2 2.8-0.2Z" fill="#5a92ff"/></g></g><g id="_a11" transform="translate(-4,142.7) translate(0,0) rotate(-419) translate(-12.1,-10)"><g fill-rule="evenodd" clip-rule="evenodd" stroke-linejoin="round" stroke-miterlimit="2" transform="translate(12.2,10.4) scale(.5,.5) translate(-12.2,-9.5)"><path d="M6.8 3.8c0-1.4 1.7-2.9 3-2c.9 .7 1 1.6 1.7 2.4c1 1.1 1.3 .7 1.8-0.4c1.1-2.9 1.4-2.6 2.4-2.4c.3 0 2.4 .2 3.4 .9c.9 .7 4.6 1.4 4.6 2.9c.1 3.4-1.5 4.5-2.9 4.3c-0.6-0.1-1.2-0.5-1.8-0.5c-0.3-0.1-1.4 .5-1.7 .4c-0.6-0.2-0.9-0.9-1.4-1c-0.5-0.1-0.8 .4-1.2 .5c-0.2 0-1.6-0.6-1.8-0.6c-0.5 .2-0.1 1.3-0.2 1.5c-0.1 .2-0.8 .8-0.7 1.1c.1 .4 1 .4 1.2 .7c.3 .4 .3 .9 .6 1.3c.7 1 1.4 .6 1.9 1.8c.6 1.7-2.1 1.8-2.8 2.2c-0.7 .5-0.7 2.1-1.9 2c-0.8-0.1-1.7-0.4-2.2-1.3c-0.5-1.2 .2-1.4-0.7-2.4c-0.6-0.7-1.6-2.1-0.8-3.6c.6-1.3-0.1-0.8 .9-1.7c.6-0.6 .2-0.9 .7-1.6c.3-0.4 1.1-0.6 1.2-1.2c0-0.5-0.8-0.7-1.1-0.6c-0.6 .4-0.8 1.3-1.7 1.3c-0.6 .1-1.1-0.3-1.7-0.3c-1.4 0-3.4 1.1-4.7-0.2c-0.4-0.5-0.2-3.1 0-3.5c.7-1.3 1.4-0.4 2.6-1.2c.1-0.1 .2-0.1 .3-0.2c.1 0 .2-0.1 .4-0.1c.1 0 .2-0.1 .3-0.1c.1 0 .2 0 .4-0.1c1.1-0.1 .8 1.7 1.9 1.7Z" fill="#2d50ff"/><path d="M17.7 1.1c.9-0.6 3.5-2.1 3.7-0.2c.4-0.1 .9-0.1 1.3 .1c1.5 .8 .6 2.6 .7 2.8c.1 .3-3.3 1.6-3.6-0.6c-1.9 1.2-2.2 3.5-5.4 3.4c-0.2 0-0.5 .2-0.8 .2c-2.1-0.1-1.7-2.9 .4-3.3c-0.1-0.7 .5-1.2 1.3-1.5c.9-0.3 2-0.5 2.4-0.9Zm-13.1-0.2c1.5-0.8 6-0.5 5.8 1.3c-0.2 1.8-2.7 3.4-3.6 1.6c-0.5 .5-1.5 .1-2.1 0c-0.9 2.2-4.7 .6-3.9-1.6c.1-0.2 .3-0.4 .5-0.6c.2-0.2 .4-0.4 .6-0.5c.3-0.1 2.4-0.2 2.8-0.2Z" fill="#5a92ff"/></g></g><g id="_a12" transform="translate(-4,142.7) translate(0,0) rotate(-130) translate(-12.1,-10)"><g fill-rule="evenodd" clip-rule="evenodd" stroke-linejoin="round" stroke-miterlimit="2" transform="translate(12.2,10.4) scale(.5,.5) translate(-12.2,-9.5)"><path d="M6.8 3.8c0-1.4 1.7-2.9 3-2c.9 .7 1 1.6 1.7 2.4c1 1.1 1.3 .7 1.8-0.4c1.1-2.9 1.4-2.6 2.4-2.4c.3 0 2.4 .2 3.4 .9c.9 .7 4.6 1.4 4.6 2.9c.1 3.4-1.5 4.5-2.9 4.3c-0.6-0.1-1.2-0.5-1.8-0.5c-0.3-0.1-1.4 .5-1.7 .4c-0.6-0.2-0.9-0.9-1.4-1c-0.5-0.1-0.8 .4-1.2 .5c-0.2 0-1.6-0.6-1.8-0.6c-0.5 .2-0.1 1.3-0.2 1.5c-0.1 .2-0.8 .8-0.7 1.1c.1 .4 1 .4 1.2 .7c.3 .4 .3 .9 .6 1.3c.7 1 1.4 .6 1.9 1.8c.6 1.7-2.1 1.8-2.8 2.2c-0.7 .5-0.7 2.1-1.9 2c-0.8-0.1-1.7-0.4-2.2-1.3c-0.5-1.2 .2-1.4-0.7-2.4c-0.6-0.7-1.6-2.1-0.8-3.6c.6-1.3-0.1-0.8 .9-1.7c.6-0.6 .2-0.9 .7-1.6c.3-0.4 1.1-0.6 1.2-1.2c0-0.5-0.8-0.7-1.1-0.6c-0.6 .4-0.8 1.3-1.7 1.3c-0.6 .1-1.1-0.3-1.7-0.3c-1.4 0-3.4 1.1-4.7-0.2c-0.4-0.5-0.2-3.1 0-3.5c.7-1.3 1.4-0.4 2.6-1.2c.1-0.1 .2-0.1 .3-0.2c.1 0 .2-0.1 .4-0.1c.1 0 .2-0.1 .3-0.1c.1 0 .2 0 .4-0.1c1.1-0.1 .8 1.7 1.9 1.7Z" fill="#2d50ff"/><path d="M17.7 1.1c.9-0.6 3.5-2.1 3.7-0.2c.4-0.1 .9-0.1 1.3 .1c1.5 .8 .6 2.6 .7 2.8c.1 .3-3.3 1.6-3.6-0.6c-1.9 1.2-2.2 3.5-5.4 3.4c-0.2 0-0.5 .2-0.8 .2c-2.1-0.1-1.7-2.9 .4-3.3c-0.1-0.7 .5-1.2 1.3-1.5c.9-0.3 2-0.5 2.4-0.9Zm-13.1-0.2c1.5-0.8 6-0.5 5.8 1.3c-0.2 1.8-2.7 3.4-3.6 1.6c-0.5 .5-1.5 .1-2.1 0c-0.9 2.2-4.7 .6-3.9-1.6c.1-0.2 .3-0.4 .5-0.6c.2-0.2 .4-0.4 .6-0.5c.3-0.1 2.4-0.2 2.8-0.2Z" fill="#5a92ff"/></g></g><g id="_a13" transform="translate(-4,142.7) translate(0,0) rotate(-276) translate(-12.1,-10)"><g fill-rule="evenodd" clip-rule="evenodd" stroke-linejoin="round" stroke-miterlimit="2" transform="translate(12.2,10.4) scale(.5,.5) translate(-12.2,-9.5)"><path d="M6.8 3.8c0-1.4 1.7-2.9 3-2c.9 .7 1 1.6 1.7 2.4c1 1.1 1.3 .7 1.8-0.4c1.1-2.9 1.4-2.6 2.4-2.4c.3 0 2.4 .2 3.4 .9c.9 .7 4.6 1.4 4.6 2.9c.1 3.4-1.5 4.5-2.9 4.3c-0.6-0.1-1.2-0.5-1.8-0.5c-0.3-0.1-1.4 .5-1.7 .4c-0.6-0.2-0.9-0.9-1.4-1c-0.5-0.1-0.8 .4-1.2 .5c-0.2 0-1.6-0.6-1.8-0.6c-0.5 .2-0.1 1.3-0.2 1.5c-0.1 .2-0.8 .8-0.7 1.1c.1 .4 1 .4 1.2 .7c.3 .4 .3 .9 .6 1.3c.7 1 1.4 .6 1.9 1.8c.6 1.7-2.1 1.8-2.8 2.2c-0.7 .5-0.7 2.1-1.9 2c-0.8-0.1-1.7-0.4-2.2-1.3c-0.5-1.2 .2-1.4-0.7-2.4c-0.6-0.7-1.6-2.1-0.8-3.6c.6-1.3-0.1-0.8 .9-1.7c.6-0.6 .2-0.9 .7-1.6c.3-0.4 1.1-0.6 1.2-1.2c0-0.5-0.8-0.7-1.1-0.6c-0.6 .4-0.8 1.3-1.7 1.3c-0.6 .1-1.1-0.3-1.7-0.3c-1.4 0-3.4 1.1-4.7-0.2c-0.4-0.5-0.2-3.1 0-3.5c.7-1.3 1.4-0.4 2.6-1.2c.1-0.1 .2-0.1 .3-0.2c.1 0 .2-0.1 .4-0.1c.1 0 .2-0.1 .3-0.1c.1 0 .2 0 .4-0.1c1.1-0.1 .8 1.7 1.9 1.7Z" fill="#2d50ff"/><path d="M17.7 1.1c.9-0.6 3.5-2.1 3.7-0.2c.4-0.1 .9-0.1 1.3 .1c1.5 .8 .6 2.6 .7 2.8c.1 .3-3.3 1.6-3.6-0.6c-1.9 1.2-2.2 3.5-5.4 3.4c-0.2 0-0.5 .2-0.8 .2c-2.1-0.1-1.7-2.9 .4-3.3c-0.1-0.7 .5-1.2 1.3-1.5c.9-0.3 2-0.5 2.4-0.9Zm-13.1-0.2c1.5-0.8 6-0.5 5.8 1.3c-0.2 1.8-2.7 3.4-3.6 1.6c-0.5 .5-1.5 .1-2.1 0c-0.9 2.2-4.7 .6-3.9-1.6c.1-0.2 .3-0.4 .5-0.6c.2-0.2 .4-0.4 .6-0.5c.3-0.1 2.4-0.2 2.8-0.2Z" fill="#5a92ff"/></g></g><g id="_a14" transform="translate(-4,142.7) translate(0,0) rotate(-411) translate(-12.1,-10)"><g fill-rule="evenodd" clip-rule="evenodd" stroke-linejoin="round" stroke-miterlimit="2" transform="translate(12.2,10.4) scale(.5,.5) translate(-12.2,-9.5)"><path d="M6.8 3.8c0-1.4 1.7-2.9 3-2c.9 .7 1 1.6 1.7 2.4c1 1.1 1.3 .7 1.8-0.4c1.1-2.9 1.4-2.6 2.4-2.4c.3 0 2.4 .2 3.4 .9c.9 .7 4.6 1.4 4.6 2.9c.1 3.4-1.5 4.5-2.9 4.3c-0.6-0.1-1.2-0.5-1.8-0.5c-0.3-0.1-1.4 .5-1.7 .4c-0.6-0.2-0.9-0.9-1.4-1c-0.5-0.1-0.8 .4-1.2 .5c-0.2 0-1.6-0.6-1.8-0.6c-0.5 .2-0.1 1.3-0.2 1.5c-0.1 .2-0.8 .8-0.7 1.1c.1 .4 1 .4 1.2 .7c.3 .4 .3 .9 .6 1.3c.7 1 1.4 .6 1.9 1.8c.6 1.7-2.1 1.8-2.8 2.2c-0.7 .5-0.7 2.1-1.9 2c-0.8-0.1-1.7-0.4-2.2-1.3c-0.5-1.2 .2-1.4-0.7-2.4c-0.6-0.7-1.6-2.1-0.8-3.6c.6-1.3-0.1-0.8 .9-1.7c.6-0.6 .2-0.9 .7-1.6c.3-0.4 1.1-0.6 1.2-1.2c0-0.5-0.8-0.7-1.1-0.6c-0.6 .4-0.8 1.3-1.7 1.3c-0.6 .1-1.1-0.3-1.7-0.3c-1.4 0-3.4 1.1-4.7-0.2c-0.4-0.5-0.2-3.1 0-3.5c.7-1.3 1.4-0.4 2.6-1.2c.1-0.1 .2-0.1 .3-0.2c.1 0 .2-0.1 .4-0.1c.1 0 .2-0.1 .3-0.1c.1 0 .2 0 .4-0.1c1.1-0.1 .8 1.7 1.9 1.7Z" fill="#2d50ff"/><path d="M17.7 1.1c.9-0.6 3.5-2.1 3.7-0.2c.4-0.1 .9-0.1 1.3 .1c1.5 .8 .6 2.6 .7 2.8c.1 .3-3.3 1.6-3.6-0.6c-1.9 1.2-2.2 3.5-5.4 3.4c-0.2 0-0.5 .2-0.8 .2c-2.1-0.1-1.7-2.9 .4-3.3c-0.1-0.7 .5-1.2 1.3-1.5c.9-0.3 2-0.5 2.4-0.9Zm-13.1-0.2c1.5-0.8 6-0.5 5.8 1.3c-0.2 1.8-2.7 3.4-3.6 1.6c-0.5 .5-1.5 .1-2.1 0c-0.9 2.2-4.7 .6-3.9-1.6c.1-0.2 .3-0.4 .5-0.6c.2-0.2 .4-0.4 .6-0.5c.3-0.1 2.4-0.2 2.8-0.2Z" fill="#5a92ff"/></g></g><g id="_a15" transform="translate(-4,142.7) translate(0,0) rotate(-304) translate(-12.1,-10)"><g fill-rule="evenodd" clip-rule="evenodd" stroke-linejoin="round" stroke-miterlimit="2" transform="translate(12.2,10.4) scale(.5,.5) translate(-12.2,-9.5)"><path d="M6.8 3.8c0-1.4 1.7-2.9 3-2c.9 .7 1 1.6 1.7 2.4c1 1.1 1.3 .7 1.8-0.4c1.1-2.9 1.4-2.6 2.4-2.4c.3 0 2.4 .2 3.4 .9c.9 .7 4.6 1.4 4.6 2.9c.1 3.4-1.5 4.5-2.9 4.3c-0.6-0.1-1.2-0.5-1.8-0.5c-0.3-0.1-1.4 .5-1.7 .4c-0.6-0.2-0.9-0.9-1.4-1c-0.5-0.1-0.8 .4-1.2 .5c-0.2 0-1.6-0.6-1.8-0.6c-0.5 .2-0.1 1.3-0.2 1.5c-0.1 .2-0.8 .8-0.7 1.1c.1 .4 1 .4 1.2 .7c.3 .4 .3 .9 .6 1.3c.7 1 1.4 .6 1.9 1.8c.6 1.7-2.1 1.8-2.8 2.2c-0.7 .5-0.7 2.1-1.9 2c-0.8-0.1-1.7-0.4-2.2-1.3c-0.5-1.2 .2-1.4-0.7-2.4c-0.6-0.7-1.6-2.1-0.8-3.6c.6-1.3-0.1-0.8 .9-1.7c.6-0.6 .2-0.9 .7-1.6c.3-0.4 1.1-0.6 1.2-1.2c0-0.5-0.8-0.7-1.1-0.6c-0.6 .4-0.8 1.3-1.7 1.3c-0.6 .1-1.1-0.3-1.7-0.3c-1.4 0-3.4 1.1-4.7-0.2c-0.4-0.5-0.2-3.1 0-3.5c.7-1.3 1.4-0.4 2.6-1.2c.1-0.1 .2-0.1 .3-0.2c.1 0 .2-0.1 .4-0.1c.1 0 .2-0.1 .3-0.1c.1 0 .2 0 .4-0.1c1.1-0.1 .8 1.7 1.9 1.7Z" fill="#2d50ff"/><path d="M17.7 1.1c.9-0.6 3.5-2.1 3.7-0.2c.4-0.1 .9-0.1 1.3 .1c1.5 .8 .6 2.6 .7 2.8c.1 .3-3.3 1.6-3.6-0.6c-1.9 1.2-2.2 3.5-5.4 3.4c-0.2 0-0.5 .2-0.8 .2c-2.1-0.1-1.7-2.9 .4-3.3c-0.1-0.7 .5-1.2 1.3-1.5c.9-0.3 2-0.5 2.4-0.9Zm-13.1-0.2c1.5-0.8 6-0.5 5.8 1.3c-0.2 1.8-2.7 3.4-3.6 1.6c-0.5 .5-1.5 .1-2.1 0c-0.9 2.2-4.7 .6-3.9-1.6c.1-0.2 .3-0.4 .5-0.6c.2-0.2 .4-0.4 .6-0.5c.3-0.1 2.4-0.2 2.8-0.2Z" fill="#5a92ff"/></g></g><g id="_a16" transform="translate(-4,142.7) translate(0,0) rotate(-260) translate(-12.1,-10)"><g fill-rule="evenodd" clip-rule="evenodd" stroke-linejoin="round" stroke-miterlimit="2" transform="translate(12.2,10.4) scale(.5,.5) translate(-12.2,-9.5)"><path d="M6.8 3.8c0-1.4 1.7-2.9 3-2c.9 .7 1 1.6 1.7 2.4c1 1.1 1.3 .7 1.8-0.4c1.1-2.9 1.4-2.6 2.4-2.4c.3 0 2.4 .2 3.4 .9c.9 .7 4.6 1.4 4.6 2.9c.1 3.4-1.5 4.5-2.9 4.3c-0.6-0.1-1.2-0.5-1.8-0.5c-0.3-0.1-1.4 .5-1.7 .4c-0.6-0.2-0.9-0.9-1.4-1c-0.5-0.1-0.8 .4-1.2 .5c-0.2 0-1.6-0.6-1.8-0.6c-0.5 .2-0.1 1.3-0.2 1.5c-0.1 .2-0.8 .8-0.7 1.1c.1 .4 1 .4 1.2 .7c.3 .4 .3 .9 .6 1.3c.7 1 1.4 .6 1.9 1.8c.6 1.7-2.1 1.8-2.8 2.2c-0.7 .5-0.7 2.1-1.9 2c-0.8-0.1-1.7-0.4-2.2-1.3c-0.5-1.2 .2-1.4-0.7-2.4c-0.6-0.7-1.6-2.1-0.8-3.6c.6-1.3-0.1-0.8 .9-1.7c.6-0.6 .2-0.9 .7-1.6c.3-0.4 1.1-0.6 1.2-1.2c0-0.5-0.8-0.7-1.1-0.6c-0.6 .4-0.8 1.3-1.7 1.3c-0.6 .1-1.1-0.3-1.7-0.3c-1.4 0-3.4 1.1-4.7-0.2c-0.4-0.5-0.2-3.1 0-3.5c.7-1.3 1.4-0.4 2.6-1.2c.1-0.1 .2-0.1 .3-0.2c.1 0 .2-0.1 .4-0.1c.1 0 .2-0.1 .3-0.1c.1 0 .2 0 .4-0.1c1.1-0.1 .8 1.7 1.9 1.7Z" fill="#2d50ff"/><path d="M17.7 1.1c.9-0.6 3.5-2.1 3.7-0.2c.4-0.1 .9-0.1 1.3 .1c1.5 .8 .6 2.6 .7 2.8c.1 .3-3.3 1.6-3.6-0.6c-1.9 1.2-2.2 3.5-5.4 3.4c-0.2 0-0.5 .2-0.8 .2c-2.1-0.1-1.7-2.9 .4-3.3c-0.1-0.7 .5-1.2 1.3-1.5c.9-0.3 2-0.5 2.4-0.9Zm-13.1-0.2c1.5-0.8 6-0.5 5.8 1.3c-0.2 1.8-2.7 3.4-3.6 1.6c-0.5 .5-1.5 .1-2.1 0c-0.9 2.2-4.7 .6-3.9-1.6c.1-0.2 .3-0.4 .5-0.6c.2-0.2 .4-0.4 .6-0.5c.3-0.1 2.4-0.2 2.8-0.2Z" fill="#5a92ff"/></g></g><g id="_a17" transform="translate(-4,142.7) translate(0,0) rotate(-360) translate(-12.1,-10)"><g fill-rule="evenodd" clip-rule="evenodd" stroke-linejoin="round" stroke-miterlimit="2" transform="translate(12.2,10.4) scale(.5,.5) translate(-12.2,-9.5)"><path d="M6.8 3.8c0-1.4 1.7-2.9 3-2c.9 .7 1 1.6 1.7 2.4c1 1.1 1.3 .7 1.8-0.4c1.1-2.9 1.4-2.6 2.4-2.4c.3 0 2.4 .2 3.4 .9c.9 .7 4.6 1.4 4.6 2.9c.1 3.4-1.5 4.5-2.9 4.3c-0.6-0.1-1.2-0.5-1.8-0.5c-0.3-0.1-1.4 .5-1.7 .4c-0.6-0.2-0.9-0.9-1.4-1c-0.5-0.1-0.8 .4-1.2 .5c-0.2 0-1.6-0.6-1.8-0.6c-0.5 .2-0.1 1.3-0.2 1.5c-0.1 .2-0.8 .8-0.7 1.1c.1 .4 1 .4 1.2 .7c.3 .4 .3 .9 .6 1.3c.7 1 1.4 .6 1.9 1.8c.6 1.7-2.1 1.8-2.8 2.2c-0.7 .5-0.7 2.1-1.9 2c-0.8-0.1-1.7-0.4-2.2-1.3c-0.5-1.2 .2-1.4-0.7-2.4c-0.6-0.7-1.6-2.1-0.8-3.6c.6-1.3-0.1-0.8 .9-1.7c.6-0.6 .2-0.9 .7-1.6c.3-0.4 1.1-0.6 1.2-1.2c0-0.5-0.8-0.7-1.1-0.6c-0.6 .4-0.8 1.3-1.7 1.3c-0.6 .1-1.1-0.3-1.7-0.3c-1.4 0-3.4 1.1-4.7-0.2c-0.4-0.5-0.2-3.1 0-3.5c.7-1.3 1.4-0.4 2.6-1.2c.1-0.1 .2-0.1 .3-0.2c.1 0 .2-0.1 .4-0.1c.1 0 .2-0.1 .3-0.1c.1 0 .2 0 .4-0.1c1.1-0.1 .8 1.7 1.9 1.7Z" fill="#2d50ff"/><path d="M17.7 1.1c.9-0.6 3.5-2.1 3.7-0.2c.4-0.1 .9-0.1 1.3 .1c1.5 .8 .6 2.6 .7 2.8c.1 .3-3.3 1.6-3.6-0.6c-1.9 1.2-2.2 3.5-5.4 3.4c-0.2 0-0.5 .2-0.8 .2c-2.1-0.1-1.7-2.9 .4-3.3c-0.1-0.7 .5-1.2 1.3-1.5c.9-0.3 2-0.5 2.4-0.9Zm-13.1-0.2c1.5-0.8 6-0.5 5.8 1.3c-0.2 1.8-2.7 3.4-3.6 1.6c-0.5 .5-1.5 .1-2.1 0c-0.9 2.2-4.7 .6-3.9-1.6c.1-0.2 .3-0.4 .5-0.6c.2-0.2 .4-0.4 .6-0.5c.3-0.1 2.4-0.2 2.8-0.2Z" fill="#5a92ff"/></g></g></g><g id="All" transform="translate(127.7,1150.4) translate(0,0) translate(-155.5,-152.2)"><g id="T-Cell" fill-rule="evenodd" clip-rule="evenodd" stroke-linecap="round" stroke-linejoin="round" stroke-miterlimit="1.5" transform="translate(227.4,228.9) rotate(-30) scale(.8,.801) translate(-148.4,-183.1)"><path d="M68.2 266.7c-27.5-19.7-66.6-53.1-64.3-109.6c1.7-42.4 19.8-79.1 46-108.8c19.3-21.8 37.7-38.4 67.6-44.4c17.4-3.5 34.4-2.6 50.8 3c42.7 14.7 82.7 45.3 104.9 86.1c21.2 39 9.2 101.1-17 135.8c-10.9 14.4-25.6 26.7-39.2 37.9c-16.2 13.4-29.9 21.7-51.6 25.2c-30.9 4.9-72.8-7.8-97.2-25.2Z" fill="rgba(255,255,255,0.50)" stroke="#3c839b" stroke-width="1.8"/><path d="M102.5 124.5c31.5-40 82.3-46.4 122.9-16.8c31.9 23.2 44.1 82.3 17.6 114.5c-28.6 34.7-94.1 54.7-132.9 30c-40.6-25.9-26.6-103.4-7.6-127.6Z" fill="url(#Gradient-3)" transform="translate(-5.2,1.3)"/><g transform="translate(148.4,152) translate(-149.1,-152.6)"><g opacity=".8" transform="translate(.7,.6)"><path d="M69.7 264.4c-26.9-19.4-65.3-52.2-63-107.5c1.7-41.5 19.4-77.6 45-106.6c19-21.4 37-37.7 66.3-43.5c17.1-3.4 33.8-2.6 49.8 2.9c41.9 14.4 81.1 44.4 102.8 84.4c20.8 38.2 9.1 99-16.6 133.1c-10.7 14.1-25.1 26.1-38.5 37.2c-15.9 13-29.3 21.2-50.5 24.6c-30.3 4.8-71.4-7.6-95.3-24.6Z" fill="#87d088"/><image xlink:href="exports/t_texture.jpg" width="223.5" height="221.7" preserveAspectRatio="none" mask="url(#Mask-1)" transform="translate(163.9,144.9) rotate(-30) skewX(0) scale(1.25,1.249) translate(-129.2,-118.2)"/><path d="M69.7 264.4c-26.9-19.4-65.3-52.2-63-107.5c1.7-41.5 19.4-77.6 45-106.6c19-21.4 37-37.7 66.3-43.5c17.1-3.4 33.8-2.6 49.8 2.9c41.9 14.4 81.1 44.4 102.8 84.4c20.8 38.2 9.1 99-16.6 133.1c-10.7 14.1-25.1 26.1-38.5 37.2c-15.9 13-29.3 21.2-50.5 24.6c-30.3 4.8-71.4-7.6-95.3-24.6Zm1.1-1.5c-26.6-19.1-64.6-51.3-62.3-106c1.7-41 19.2-76.7 44.6-105.4c18.7-21.1 36.4-37.2 65.3-43c16.8-3.3 33.1-2.5 48.8 2.9c41.5 14.2 80.3 44 101.8 83.6c20.5 37.6 8.9 97.6-16.5 131.1c-10.5 14-24.9 25.9-38.1 36.9c-15.6 12.8-28.8 20.9-49.7 24.2c-29.9 4.8-70.4-7.5-93.9-24.3Z" fill="#3d839b" fill-opacity=".8"/><path d="M69.7 264.4c-26.9-19.4-65.3-52.2-63-107.5c1.7-41.5 19.4-77.6 45-106.6c19-21.4 37-37.7 66.3-43.5c17.1-3.4 33.8-2.6 49.8 2.9c41.9 14.4 81.1 44.4 102.8 84.4c20.8 38.2 9.1 99-16.6 133.1c-10.7 14.1-25.1 26.1-38.5 37.2c-15.9 13-29.3 21.2-50.5 24.6c-30.3 4.8-71.4-7.6-95.3-24.6Z" fill="url(#Gradient-4)"/><path d="M69.7 264.4c-26.9-19.4-65.3-52.2-63-107.5c1.7-41.5 19.4-77.6 45-106.6c19-21.4 37-37.7 66.3-43.5c17.1-3.4 33.8-2.6 49.8 2.9c41.9 14.4 81.1 44.4 102.8 84.4c20.8 38.2 9.1 99-16.6 133.1c-10.7 14.1-25.1 26.1-38.5 37.2c-15.9 13-29.3 21.2-50.5 24.6c-30.3 4.8-71.4-7.6-95.3-24.6Z" fill="url(#Gradient-5)"/><path d="M69.7 264.4c-26.9-19.4-65.3-52.2-63-107.5c1.7-41.5 19.4-77.6 45-106.6c19-21.4 37-37.7 66.3-43.5c17.1-3.4 33.8-2.6 49.8 2.9c41.9 14.4 81.1 44.4 102.8 84.4c20.8 38.2 9.1 99-16.6 133.1c-10.7 14.1-25.1 26.1-38.5 37.2c-15.9 13-29.3 21.2-50.5 24.6c-30.3 4.8-71.4-7.6-95.3-24.6Z" fill="url(#Gradient-6)"/></g><g transform="translate(149.1,152.6) translate(-149.1,-152.6)"><use width="13.7" height="11.5" xlink:href="#tReceptor" transform="translate(260.7,232.1) translate(-6.8,-5.8)"/><use width="13.7" height="11.5" xlink:href="#tReceptor" transform="translate(280.8,199.8) rotate(-28.3) translate(-6.8,-5.8)"/><use width="13.7" height="11.5" xlink:href="#tReceptor" transform="translate(289.2,134) rotate(-40.1) translate(-6.8,-5.8)"/><use width="13.7" height="11.5" xlink:href="#tReceptor" transform="translate(196.8,13.9) rotate(-92.6) translate(-6.8,-5.8)"/><use width="13.7" height="11.5" xlink:href="#tReceptor" transform="translate(90.1,7.7) rotate(-160.4) translate(-6.8,-5.8)"/><use width="13.7" height="11.5" xlink:href="#tReceptor" transform="translate(35.9,57.3) rotate(-175.8) translate(-6.8,-5.8)"/><use width="13.7" height="11.5" xlink:href="#tReceptor" transform="translate(22.4,76.4) rotate(-185.2) translate(-6.8,-5.8)"/><use width="13.7" height="11.5" xlink:href="#tReceptor" transform="translate(8.2,112.7) rotate(-195.8) translate(-6.8,-5.8)"/><use width="13.7" height="11.5" xlink:href="#tReceptor" transform="translate(21.6,227) rotate(-247.7) translate(-6.8,-5.8)"/><use width="13.7" height="11.5" xlink:href="#tReceptor" transform="translate(44.6,253.7) rotate(-267.9) translate(-6.8,-5.8)"/><use width="13.7" height="11.5" xlink:href="#tReceptor" transform="translate(133.6,296.4) rotate(-296.9) translate(-6.8,-5.8)"/></g></g></g><g id="B-Cell" fill-rule="evenodd" clip-rule="evenodd" stroke-linecap="round" stroke-miterlimit="1.8" opacity="0" transform="translate(715.2,763.2) rotate(50) scale(.8,.8) translate(-147.4,-132)"><path d="M10.6 77.3c23-35.4 67.9-104 175.5-62.2c79.1 30.7 122.6 92.4 101.2 145.3c-21.4 52.8-46.5 90-120.3 99c-73.8 9.1-86.2-6.6-119.2-31.8c-33.1-25.1-60.3-114.8-37.2-150.3Z" fill="rgba(255,255,255,0.50)" stroke="#c67272"/><path id="nucleus-3" d="M227.8 193.8c-13.1 21.7-38.6 63.8-98.7 37.5c-44.2-19.3-68.3-57.6-56-90.1c12.2-32.4 26.4-55.2 67.9-60.4c41.4-5.2 48.2 4.5 66.7 20.2c18.4 15.6 33.2 71.1 20.1 92.8Z" fill="url(#Gradient-7)" transform="translate(0,0) translate(0,0) translate(0,0)"/><g opacity=".8"><path d="M13.3 78.4c22.6-34.7 66.6-101.9 172-61c77.5 30.1 120.1 90.6 99.2 142.4c-21 51.8-45.5 88.2-117.9 97.1c-72.3 8.8-84.5-6.5-116.9-31.2c-32.4-24.6-59-112.6-36.4-147.3Z" fill="#eaa647" stroke="#e18967"/><image xlink:href="exports/bCell_texture.jpg" width="285" height="256" preserveAspectRatio="none" mask="url(#Mask-2)" transform="translate(147.3,132) translate(-142.5,-128)"/><path d="M13.3 78.4c22.6-34.7 66.6-101.9 172-61c77.5 30.1 120.1 90.6 99.2 142.4c-21 51.8-45.5 88.2-117.9 97.1c-72.3 8.8-84.5-6.5-116.9-31.2c-32.4-24.6-59-112.6-36.4-147.3Z" fill="url(#Gradient-8)"/><path d="M13.3 78.4c22.6-34.7 66.6-101.9 172-61c77.5 30.1 120.1 90.6 99.2 142.4c-21 51.8-45.5 88.2-117.9 97.1c-72.3 8.8-84.5-6.5-116.9-31.2c-32.4-24.6-59-112.6-36.4-147.3Z" fill="url(#Gradient-9)"/></g></g></g><text id="_a18" font-size="18" font-family="ABCSans" letter-spacing=".1em" word-spacing="0" text-anchor="middle" font-weight="900" opacity="0" transform="translate(216.6,1340.5) scale(.8,.8)" style="line-height: 16px;">B CELL</text><text id="_a19" font-size="18" font-family="ABCSans" letter-spacing=".1em" word-spacing="0" text-anchor="middle" font-weight="900" opacity="0" transform="translate(216.8,1014.1)" style="line-height: 16px;">ANTIBODIES</text></g><script xlink:href="keyshapejs-1.1.0.min.js"/><script><![CDATA[if(KeyshapeJS.version.indexOf('1.')!=0)throw Error('Expected KeyshapeJS v1.*.*');window.ks=document.ks=KeyshapeJS;(function(ks){
ks.animate("#Antibodies",[{p:'opacity',t:[3000,3042],v:[0,1],e:[[0],[0]]}],
"#_a0",[{p:'mpath',t:[3000,5000],v:['0%','100%'],e:[[1,.2,.6,.4,1],[0]],mp:"M-4,142.7L-71.8,24.9"},{p:'rotate',t:[5000,7000],v:[-69,291],e:[[0],[0]]}],
"#_a1",[{p:'mpath',t:[3000,5000],v:['0%','100%'],e:[[1,.2,.6,.4,1],[0]],mp:"M-4,142.7L-115,-4.9"},{p:'rotate',t:[3000,5000,7000],v:[-346,14,374],e:[[0],[0],[0]]}],
"#_a2",[{p:'mpath',t:[3000,4833],v:['0%','100%'],e:[[1,.2,.6,.4,1],[0]],mp:"M-4,142.7L-127.1,54.3"},{p:'rotate',t:[3000,5000,7000],v:[-407,-47,313],e:[[0],[0],[0]]}],
"#_a3",[{p:'mpath',t:[3000,4833],v:['0%','100%'],e:[[1,.2,.6,.4,1],[0]],mp:"M-4,142.7L-153.6,109.9"},{p:'rotate',t:[3000,5000,7000],v:[-288,72,432],e:[[0],[0],[0]]}],
"#_a4",[{p:'mpath',t:[3000,4625],v:['0%','100%'],e:[[1,.2,.6,.4,1],[0]],mp:"M-4,142.7L-127.1,152.7"},{p:'rotate',t:[3000,5000,7000],v:[-368,-8,352],e:[[0],[0],[0]]}],
"#_a5",[{p:'mpath',t:[3000,4958],v:['0%','100%'],e:[[1,.2,.6,.4,1],[0]],mp:"M-4,142.7L-166.8,196.1"},{p:'rotate',t:[3000,5000,7000],v:[-201,159,519],e:[[0],[0],[0]]}],
"#_a6",[{p:'mpath',t:[3000,5000],v:['0%','100%'],e:[[1,.2,.6,.4,1],[0]],mp:"M-4,142.7L-106,214.7"},{p:'rotate',t:[3000,5000,7000],v:[-492,-132,228],e:[[0],[0],[0]]}],
"#_a7",[{p:'mpath',t:[3000,4667],v:['0%','100%'],e:[[1,.2,.6,.4,1],[0]],mp:"M-4,142.7L-60.7,267.1"},{p:'rotate',t:[3000,5000,7000],v:[-397,-37,323],e:[[0],[0],[0]]}],
"#_a8",[{p:'mpath',t:[3000,5000],v:['0%','100%'],e:[[1,.2,.6,.4,1],[0]],mp:"M-4,142.7L-14.5,310.6"},{p:'rotate',t:[3000,5000,7000],v:[-315,45,405],e:[[0],[0],[0]]}],
"#_a9",[{p:'mpath',t:[3000,4958],v:['0%','100%'],e:[[1,.2,.6,.4,1],[0]],mp:"M-4,142.7L31.6,257.1"},{p:'rotate',t:[3000,5000,7000],v:[-498,-138,222],e:[[0],[0],[0]]}],
"#_a10",[{p:'mpath',t:[3000,4708],v:['0%','100%'],e:[[1,.2,.6,.4,1],[0]],mp:"M-4,142.7L89.8,257.1"},{p:'rotate',t:[3000,5000,7000],v:[-335,25,385],e:[[0],[0],[0]]}],
"#_a11",[{p:'mpath',t:[3000,4917],v:['0%','100%'],e:[[1,.2,.6,.4,1],[0]],mp:"M-4,142.7L127.6,199.2"},{p:'rotate',t:[3000,5000,7000],v:[-419,-59,301],e:[[0],[0],[0]]}],
"#_a12",[{p:'mpath',t:[3000,4833],v:['0%','100%'],e:[[1,.2,.6,.4,1],[0]],mp:"M-4,142.7L151.2,75.9"},{p:'rotate',t:[3000,5000,7000],v:[-130,230,590],e:[[0],[0],[0]]}],
"#_a13",[{p:'mpath',t:[3000,4500],v:['0%','100%'],e:[[1,.2,.6,.4,1],[0]],mp:"M-4,142.7L151.3,143.1"},{p:'rotate',t:[3000,5000,7000],v:[-276,84,444],e:[[0],[0],[0]]}],
"#_a14",[{p:'mpath',t:[3000,4583],v:['0%','100%'],e:[[1,.2,.6,.4,1],[0]],mp:"M-4,142.7L85.9,0"},{p:'rotate',t:[3000,5000,7000],v:[-411,-51,309],e:[[0],[0],[0]]}],
"#_a15",[{p:'mpath',t:[3000,4708],v:['0%','100%'],e:[[1,.2,.6,.4,1],[0]],mp:"M-4,142.7L16.2,13.6"},{p:'rotate',t:[3000,5000,7000],v:[-304,56,416],e:[[0],[0],[0]]}],
"#_a16",[{p:'mpath',t:[3000,5000],v:['0%','100%'],e:[[1,.2,.6,.4,1],[0]],mp:"M-4,142.7L99.1,47.7"},{p:'rotate',t:[3000,5000,7000],v:[-260,100,460],e:[[0],[1,0,0,1,1],[0]]}],
"#_a17",[{p:'mpath',t:[3000,4917],v:['0%','100%'],e:[[1,.2,.6,.4,1],[0]],mp:"M-4,142.7L151.9,230.3"},{p:'rotate',t:[3000,5000,7000],v:[-360,0,360],e:[[0],[0],[0]]}],
"#All",[{p:'mpath',t:[0,1500],v:['0%','100%'],e:[[1,0,0,.6,1],[0]],mp:"M127.7,1150.4L-343.1,576.4"}],
"#T-Cell",[{p:'rotate',t:[0,1500],v:[-30,20],e:[[0],[0]]},{p:'opacity',t:[1167,1500],v:[1,0],e:[[0],[0]]}],
"#B-Cell",[{p:'rotate',t:[0,1458],v:[50,0],e:[[0],[0]]},{p:'opacity',t:[0,333],v:[0,1],e:[[0],[0]]}],
"#nucleus-3",[{p:'mpath',t:[1000,2000,3000,4000,5000,6000,7000],v:['0%','16.7%','33.3%','50%','66.7%','83.3%','100%'],e:[[1,.4,0,.6,1],[1,.4,0,.6,1],[1,.4,0,.6,1],[1,.4,0,.6,1],[1,.4,0,.6,1],[1,.4,0,.6,1],[0]],mp:"M0,0L-4,-13.9L0,0L-4,-13.9L0,0L-4,-13.9L0,0"}],
"#_a18",[{p:'opacity',t:[1500,2167,3250,4000],v:[0,1,1,0],e:[[0],[0],[0],[0]]}],
"#_a19",[{p:'opacity',t:[4333,5000],v:[0,1],e:[[0],[0]]}],
{autoremove:false,markers:{"LoopStart":5000}}).range(0,7000);
if(document.location.search.substr(1).split('&').indexOf('global=paused')>=0)ks.globalPause()})(KeyshapeJS);
]]></script></svg>