<svg xmlns="http://www.w3.org/2000/svg" xmlns:xlink="http://www.w3.org/1999/xlink" width="100%" height="100%" viewBox="0 0 500 800" style="background: rgba(224,255,255,0.00); white-space: pre;"><defs><symbol id="bead" preserveAspectRatio="none" width="16.5" height="16.5" viewBox="0 0 16.5 16.5" overflow="visible"><ellipse rx="1.5" ry="1.5" clip-rule="evenodd" fill="#a33636" fill-rule="evenodd" stroke="#7d2614" stroke-linejoin="round" stroke-miterlimit="1.8" stroke-width=".3" transform="translate(-0.9,-1) scale(5,5) translate(1.8,1.8)"/></symbol></defs><g transform="translate(250.8,451.4) translate(-111.2,-113.1)"><g id="Strands" transform="translate(144.8,194.6) translate(-71,-162.3)"><g transform="translate(-43.1,-11.3) translate(-18.1,-85.8)"><use width="16.5" height="16.5" xlink:href="#bead" transform="translate(16.9,163.2) translate(-8.2,-8.2)"/><use width="16.5" height="16.5" xlink:href="#bead" transform="translate(14.2,147.9) translate(-8.2,-8.2)"/><use width="16.5" height="16.5" xlink:href="#bead" transform="translate(15.2,131.9) translate(-8.2,-8.2)"/><use width="16.5" height="16.5" xlink:href="#bead" transform="translate(19.6,116.2) translate(-8.2,-8.2)"/><use width="16.5" height="16.5" xlink:href="#bead" transform="translate(25.6,101.6) translate(-8.2,-8.2)"/><use width="16.5" height="16.5" xlink:href="#bead" transform="translate(27.9,85.2) translate(-8.2,-8.2)"/><use id="_a0" width="16.5" height="16.5" xlink:href="#bead" transform="translate(22.6,69.6) translate(-8.2,-8.2)"/><use id="_a1" width="16.5" height="16.5" xlink:href="#bead" transform="translate(15.2,55.2) translate(-8.2,-8.2)"/><use id="_a2" width="16.5" height="16.5" xlink:href="#bead" transform="translate(9.6,40.2) translate(-8.2,-8.2)"/><use width="16.5" height="16.5" xlink:href="#bead" transform="translate(8.2,23.6) translate(-8.2,-8.2)"/><use width="16.5" height="16.5" xlink:href="#bead" transform="translate(14.6,8.2) translate(-8.2,-8.2)"/></g><g transform="translate(23.9,60.2) translate(-16.1,-37.8)"><use id="_a3" width="16.5" height="16.5" xlink:href="#bead" transform="translate(11.8,67.2) translate(-8.2,-8.2)"/><use width="16.5" height="16.5" xlink:href="#bead" transform="translate(8.2,52) translate(-8.2,-8.2)"/><use width="16.5" height="16.5" xlink:href="#bead" transform="translate(11.2,36.5) translate(-8.2,-8.2)"/><use width="16.5" height="16.5" xlink:href="#bead" transform="translate(19.2,23) translate(-8.2,-8.2)"/><use width="16.5" height="16.5" xlink:href="#bead" transform="translate(24,8.2) translate(-8.2,-8.2)"/></g></g><text id="_a4" font-size="18" font-family="ABCSans" font-weight="900" letter-spacing=".1em" word-spacing="0" text-anchor="middle" opacity="0" transform="translate(111.2,99.5)" style="line-height: 16px;">REPLICATION COMPLEX</text><g id="Replication-Complex" transform="translate(115.2,-79.2) translate(0,0) translate(-9.9,-15.3)"><path id="replicate-2" fill="#a33636" fill-rule="evenodd" opacity="0" stroke="#7d2614" stroke-linecap="round" stroke-linejoin="round" stroke-miterlimit="1.8" stroke-width=".3" d="M1.8 6.7c0 .2-0.1 .4-0.2 .6c-0.1 .2-0.2 .4-0.3 .5c-0.1 .1-0.3 .2-0.5 .3c-0.1 0-0.2 0-0.3 .1c0 0-0.1 0-0.2 0c-0.2 0-0.4 0-0.6-0.1c-0.1-0.1-0.3-0.2-0.4-0.3c-0.2-0.1-0.3-0.3-0.4-0.5c-0.1-0.2-0.1-0.4-0.1-0.6c0-0.2 0-0.4 .1-0.5c0-0.2 .1-0.4 .3-0.5c.1-0.2 .3-0.3 .5-0.4c.2-0.1 .4-0.1 .6-0.1c.2 0 .4 0 .6 .1c.2 .1 .3 .2 .5 .4c.1 .1 .2 .2 .3 .4c0 .2 .1 .4 .1 .6Z" transform="translate(-71.4,65.9) translate(0,0) scale(5,5) translate(0,0)"/><path id="replicate-3" fill="#a33636" fill-rule="evenodd" opacity="0" stroke="#7d2614" stroke-linecap="round" stroke-linejoin="round" stroke-miterlimit="1.8" stroke-width=".3" d="M6.5-4.3c0 .2 0 .4-0.1 .6c0 .1-0.1 .2-0.1 .3c-0.1 0-0.1 .1-0.2 .1c-0.1 .2-0.3 .3-0.5 .4c-0.2 .1-0.4 .1-0.6 .1c-0.2 0-0.4 0-0.6-0.1c-0.1-0.1-0.3-0.1-0.4-0.3c-0.1-0.1-0.2-0.2-0.3-0.4c-0.1-0.2-0.2-0.4-0.2-0.7c0-0.2 0-0.4 .1-0.5c.1-0.2 .2-0.3 .3-0.5c.1-0.1 .2-0.2 .3-0.3c.1 0 .3-0.1 .4-0.1c.1-0.1 .3-0.1 .4-0.1c.2 0 .3 .1 .5 .1c.1 0 .2 .1 .3 .2c.1 0 .2 .1 .3 .2c.1 .1 .2 .3 .3 .4c.1 .2 .1 .4 .1 .6Z" transform="translate(-80.2,52.2) translate(0,0) rotate(-234.2) scale(5,5) translate(0,0)"/><path id="replicate-1" fill="#a33636" fill-rule="evenodd" opacity="0" stroke="#7d2614" stroke-linecap="round" stroke-linejoin="round" stroke-miterlimit="1.8" stroke-width=".3" d="M2 6.7c0 .2 0 .4-0.1 .6c0 .1-0.1 .1-0.1 .2c-0.1 .1-0.2 .2-0.2 .3c-0.1 0-0.2 .1-0.3 .1c0 .1-0.1 .1-0.2 .2c-0.1 0-0.2 0-0.3 0c-0.1 .1-0.2 .1-0.3 .1c-0.1 0-0.2 0-0.3-0.1c-0.1 0-0.2 0-0.3-0.1c-0.1 0-0.2-0.1-0.3-0.2c-0.1 0-0.2-0.1-0.2-0.2c-0.1-0.1-0.2-0.2-0.2-0.4c-0.1 0-0.1-0.1-0.1-0.2c0-0.1-0.1-0.2-0.1-0.3c0-0.1 .1-0.3 .1-0.4c0 0 0-0.1 0-0.1c.1-0.1 .1-0.2 .2-0.3c0-0.1 .1-0.2 .1-0.2c.2-0.2 .3-0.3 .5-0.4c.1 0 .2-0.1 .3-0.1c.1 0 .2 0 .3 0c.2 0 .4 0 .5 .1c.1 0 .2 0 .3 .1c.1 0 .2 .1 .3 .2c.2 .2 .3 .3 .3 .5c.1 .1 .1 .1 .1 .2c0 .1 0 .3 0 .4Z" transform="translate(-14.6,183.2) translate(0,0) scale(5,5) translate(0,0)"/><path id="replicate-4" fill="#a33636" fill-rule="evenodd" opacity="0" stroke="#7d2614" stroke-linecap="round" stroke-linejoin="round" stroke-miterlimit="1.8" stroke-width=".3" d="M-1.2 4.9c.1 0 .2 0 .3 0c.1 .1 .2 .1 .2 .1c.1 0 .2 .1 .3 .1c.1 .1 .2 .2 .3 .3c.1 .1 .2 .2 .3 .4c0 .1 0 .2 .1 .3c0 .1 0 .2 0 .3c0 .1 0 .3 0 .4c-0.1 .1-0.1 .1-0.1 .2c-0.1 .2-0.2 .4-0.3 .5c-0.2 .1-0.3 .2-0.5 .3c-0.1 .1-0.2 .1-0.3 .1c-0.1 0-0.2 0-0.3 0c-0.2 0-0.4 0-0.5-0.1c-0.2 0-0.3-0.1-0.5-0.2c-0.1-0.1-0.2-0.2-0.2-0.4c-0.1-0.1-0.2-0.2-0.2-0.3c-0.1-0.2-0.1-0.3-0.1-0.5c0-0.1 0-0.2 0-0.3c.1-0.1 .1-0.2 .1-0.2c.1-0.1 .1-0.2 .2-0.3c0-0.1 .1-0.2 .1-0.2c.1-0.1 .1-0.1 .2-0.2c.1 0 .2-0.1 .3-0.1c.2-0.1 .4-0.2 .6-0.2Z" transform="translate(-87.1,37.6) translate(0,0) rotate(-17.6) scale(5,5) translate(0,0)"/></g></g><script xlink:href="keyshapejs-1.1.0.min.js"/><script><![CDATA[if(KeyshapeJS.version.indexOf('1.')!=0)throw Error('Expected KeyshapeJS v1.*.*');window.ks=document.ks=KeyshapeJS;(function(ks){
ks.animate("#Strands",[{p:'opacity',t:[0,1000],v:[1,0],e:[[0],[0]]}],
"#_a0",[{p:'opacity',t:[0,42],v:[1,0],e:[[0],[0]]}],
"#_a1",[{p:'opacity',t:[0,42],v:[1,0],e:[[0],[0]]}],
"#_a2",[{p:'opacity',t:[0,42],v:[1,0],e:[[0],[0]]}],
"#_a3",[{p:'opacity',t:[0,42],v:[1,0],e:[[0],[0]]}],
"#_a4",[{p:'opacity',t:[1500,2500],v:[0,1],e:[[0],[0]]}],
"#Replication-Complex",[{p:'mpath',t:[0,1500,2500,3500,4500],v:['0%','73.5%','82.4%','91.2%','100%'],e:[[0],[1,.4,0,.6,1],[1,.4,0,.6,1],[1,.4,0,.6,1],[0]],mp:"M115.2,-79.2L115.2,20.8L115.2,32.8L115.2,20.8L115.2,32.8"},{p:'rotate',t:[0,1500],v:[0,12],e:[[0],[0]]},{p:'scaleX',t:[0,1500],v:[1,1.9],e:[[0],[0]]},{p:'scaleY',t:[0,1500],v:[1,1.9],e:[[0],[0]]}],
"#replicate-2",[{p:'mpath',t:[0,1500],v:['0%','100%'],e:[[1,0,0,.6,1],[0]],mp:"M-71.4,65.9L14.8,13.7"},{p:'opacity',t:[0,42],v:[0,1],e:[[0],[0]]},{p:'d',t:[0,1500],v:["path('M1.8,6.7C1.8,6.9,1.7,7.1,1.6,7.3C1.5,7.5,1.4,7.7,1.3,7.8C1.2,7.9,1,8,.8,8.1C.7,8.1,.6,8.1,.5,8.2C.5,8.2,.4,8.2,.3,8.2C.1,8.2,-0.1,8.2,-0.3,8.1C-0.4,8,-0.6,7.9,-0.7,7.8C-0.9,7.7,-1,7.5,-1.1,7.3C-1.2,7.1,-1.2,6.9,-1.2,6.7C-1.2,6.5,-1.2,6.3,-1.1,6.2C-1.1,6,-1,5.8,-0.8,5.7C-0.7,5.5,-0.5,5.4,-0.3,5.3C-0.1,5.2,.1,5.2,.3,5.2C.5,5.2,.7,5.2,.9,5.3C1.1,5.4,1.2,5.5,1.4,5.7C1.5,5.8,1.6,5.9,1.7,6.1C1.7,6.3,1.8,6.5,1.8,6.7Z')","path('M.8,1.6C.8,1.8,.7,1.9,.6,2C.6,2.1,.4,2.2,.3,2.2C.2,2.3,0,2.3,-0.1,2.3C-0.3,2.3,-0.4,2.2,-0.5,2.1C-1.1,2.5,-1.9,2.1,-1.8,1.4C-2.7,1,-2.4,-0.3,-1.5,-0.3C-1.5,-0.3,-1.5,-0.3,-1.6,-0.3C-1.6,-0.4,-1.6,-0.4,-1.7,-0.4C-1.7,-0.4,-1.7,-0.5,-1.7,-0.5C-1.8,-0.5,-1.8,-0.5,-1.8,-0.6C-2.4,-1.3,-1.1,-2.3,-0.5,-1.6C-0.4,-1.5,-0.3,-1.4,-0.3,-1.3C-0.3,-1.3,-0.2,-1.3,-0.2,-1.3C.1,-2.2,1.5,-1.8,1.2,-0.9C2,-1,2.2,.4,1.3,.5C1.7,.9,1.4,1.6,.8,1.6C.8,1.6,.8,1.6,.8,1.6Z')"],e:[[0],[0]]}],
"#replicate-3",[{p:'mpath',t:[0,1500],v:['0%','100%'],e:[[1,0,0,.6,1],[0]],mp:"M-80.2,52.2L8.1,.3"},{p:'opacity',t:[0,42],v:[0,1],e:[[0],[0]]},{p:'d',t:[0,1500],v:["path('M6.5,-4.3C6.5,-4.1,6.5,-3.9,6.4,-3.7C6.4,-3.6,6.3,-3.5,6.3,-3.4C6.2,-3.4,6.2,-3.3,6.1,-3.3C6,-3.1,5.8,-3,5.6,-2.9C5.4,-2.8,5.2,-2.8,5,-2.8C4.8,-2.8,4.6,-2.8,4.4,-2.9C4.3,-3,4.1,-3,4,-3.2C3.9,-3.3,3.8,-3.4,3.7,-3.6C3.6,-3.8,3.5,-4,3.5,-4.3C3.5,-4.5,3.5,-4.7,3.6,-4.8C3.7,-5,3.8,-5.1,3.9,-5.3C4,-5.4,4.1,-5.5,4.2,-5.6C4.3,-5.6,4.5,-5.7,4.6,-5.7C4.7,-5.8,4.9,-5.8,5,-5.8C5.2,-5.8,5.3,-5.7,5.5,-5.7C5.6,-5.7,5.7,-5.6,5.8,-5.5C5.9,-5.5,6,-5.4,6.1,-5.3C6.2,-5.2,6.3,-5,6.4,-4.9C6.5,-4.7,6.5,-4.5,6.5,-4.3Z')","path('M-0.6,-2.3C-0.1,-2.8,.7,-2.6,.8,-1.9C.8,-1.9,.9,-1.9,.9,-2C.9,-2,.9,-2,1,-2.1C1,-2.1,1,-2.1,1,-2.1C1.1,-2.2,1.1,-2.2,1.1,-2.2C2,-2.9,2.9,-1.1,1.9,-0.7C1.9,-0.5,1.8,-0.3,1.6,-0.1C1.7,0,1.8,.1,1.8,.3C3,.6,2.3,2.5,1.2,1.9C1,2.1,.6,2.2,.3,2C-0.1,2.2,-0.6,2,-0.8,1.6C-1,2.8,-2.9,2.3,-2.4,1.1C-3,.7,-2.7,-0.4,-1.9,-0.4C-2.1,-0.7,-2,-1.1,-1.8,-1.4C-1.8,-1.5,-1.8,-1.7,-1.7,-1.8C-1.7,-2,-1.6,-2.1,-1.5,-2.2C-1.3,-2.3,-1.2,-2.3,-1.1,-2.4C-0.9,-2.4,-0.8,-2.4,-0.6,-2.3C-0.6,-2.3,-0.6,-2.3,-0.6,-2.3Z')"],e:[[0],[0]]}],
"#replicate-1",[{p:'mpath',t:[0,1500],v:['0%','100%'],e:[[1,0,0,.6,1],[0]],mp:"M-14.6,183.2L5.4,16.6"},{p:'opacity',t:[0,42],v:[0,1],e:[[0],[0]]},{p:'d',t:[0,1500],v:["path('M2,6.7C2,6.9,2,7.1,1.9,7.3C1.9,7.4,1.8,7.4,1.8,7.5C1.7,7.6,1.6,7.7,1.6,7.8C1.5,7.8,1.4,7.9,1.3,7.9C1.3,8,1.2,8,1.1,8.1C1,8.1,.9,8.1,.8,8.1C.7,8.2,.6,8.2,.5,8.2C.4,8.2,.3,8.2,.2,8.1C.1,8.1,0,8.1,-0.1,8C-0.2,8,-0.3,7.9,-0.4,7.8C-0.5,7.8,-0.6,7.7,-0.6,7.6C-0.7,7.5,-0.8,7.4,-0.8,7.2C-0.9,7.2,-0.9,7.1,-0.9,7C-0.9,6.9,-1,6.8,-1,6.7C-1,6.6,-0.9,6.4,-0.9,6.3C-0.9,6.3,-0.9,6.2,-0.9,6.2C-0.8,6.1,-0.8,6,-0.7,5.9C-0.7,5.8,-0.6,5.7,-0.6,5.7C-0.4,5.5,-0.3,5.4,-0.1,5.3C0,5.3,.1,5.2,.2,5.2C.3,5.2,.4,5.2,.5,5.2C.7,5.2,.9,5.2,1,5.3C1.1,5.3,1.2,5.3,1.3,5.4C1.4,5.4,1.5,5.5,1.6,5.6C1.8,5.8,1.9,5.9,1.9,6.1C2,6.2,2,6.2,2,6.3C2,6.4,2,6.6,2,6.7Z')","path('M0,-1.6C.2,-2.7,2,-2.1,1.6,-1.1C2.4,-1.1,2.7,0,2,.5C2.6,1.3,1.6,2.3,.8,1.6C.8,1.7,.7,1.8,.6,1.9C.6,1.9,.5,2,.4,2C.3,2,.2,2.1,.1,2.1C0,2.1,-0.1,2.1,-0.2,2C-0.3,2.2,-0.4,2.3,-0.5,2.3C-0.7,2.4,-0.8,2.4,-1,2.4C-1.1,2.4,-1.3,2.3,-1.4,2.2C-1.5,2.1,-1.6,2,-1.7,1.8C-1.8,1.8,-2,1.7,-2.1,1.6C-2.2,1.5,-2.2,1.3,-2.3,1.2C-2.3,1,-2.3,.9,-2.2,.7C-2.2,.6,-2.1,.4,-2,.4C-2,.3,-2,.2,-2,.1C-2,.1,-2,0,-2,-0.1C-2,-0.2,-2,-0.3,-2,-0.3C-1.9,-0.4,-1.9,-0.5,-1.8,-0.5C-2,-0.6,-2.2,-0.7,-2.2,-0.8C-2.3,-0.9,-2.3,-0.9,-2.3,-0.9C-2.3,-0.9,-2.3,-1,-2.3,-1C-2.3,-1,-2.4,-1.1,-2.4,-1.1C-2.4,-1.1,-2.4,-1.1,-2.4,-1.2C-2.6,-2.2,-0.9,-2.4,-0.7,-1.5C-0.5,-1.6,-0.3,-1.6,-0.1,-1.6C-0.1,-1.6,0,-1.6,0,-1.6Z')"],e:[[0],[0]]}],
"#replicate-4",[{p:'mpath',t:[0,1500],v:['0%','100%'],e:[[1,0,0,.6,1],[0]],mp:"M-87.1,37.6L5.5,0"},{p:'opacity',t:[0,42],v:[0,1],e:[[0],[0]]},{p:'d',t:[0,1500],v:["path('M-1.2,4.9C-1.1,4.9,-1,4.9,-0.9,4.9C-0.8,5,-0.7,5,-0.7,5C-0.6,5,-0.5,5.1,-0.4,5.1C-0.3,5.2,-0.2,5.3,-0.1,5.4C0,5.5,.1,5.6,.2,5.8C.2,5.9,.2,6,.3,6.1C.3,6.2,.3,6.3,.3,6.4C.3,6.5,.3,6.7,.3,6.8C.2,6.9,.2,6.9,.2,7C.1,7.2,0,7.4,-0.1,7.5C-0.3,7.6,-0.4,7.7,-0.6,7.8C-0.7,7.9,-0.8,7.9,-0.9,7.9C-1,7.9,-1.1,7.9,-1.2,7.9C-1.4,7.9,-1.6,7.9,-1.7,7.8C-1.9,7.8,-2,7.7,-2.2,7.6C-2.3,7.5,-2.4,7.4,-2.4,7.2C-2.5,7.1,-2.6,7,-2.6,6.9C-2.7,6.7,-2.7,6.6,-2.7,6.4C-2.7,6.3,-2.7,6.2,-2.7,6.1C-2.6,6,-2.6,5.9,-2.6,5.9C-2.5,5.8,-2.5,5.7,-2.4,5.6C-2.4,5.5,-2.3,5.4,-2.3,5.4C-2.2,5.3,-2.2,5.3,-2.1,5.2C-2,5.2,-1.9,5.1,-1.8,5.1C-1.6,5,-1.4,4.9,-1.2,4.9Z')","path('M-2.1,-1.8C-2,-2.3,-1.3,-2.8,-0.8,-2.5C-0.6,-2.4,-0.5,-2.3,-0.4,-2.1C-0.1,-2,.1,-2.3,.4,-2.1C.7,-1.9,.6,-1.8,.8,-1.6C1,-1.4,1.2,-1.4,1.3,-1.2C1.4,-1,1.3,-0.8,1.4,-0.6C1.5,-0.4,1.9,-0.1,1.7,.2C1.6,.5,1.1,.5,1.1,.9C1.1,1.1,1.2,1.1,1.2,1.2C1.3,1.6,1.2,1.8,.9,2.1C.7,2.3,.4,2.3,.1,2.3C-0.1,2.3,-0.1,2.1,-0.3,2.1C-0.6,2.1,-0.7,2.5,-1.1,2.4C-1.4,2.3,-1.3,2.2,-1.6,2C-1.8,1.9,-2,2,-2.3,2C-2.6,1.9,-2.8,1.7,-2.9,1.4C-3,1.2,-3,1.1,-3,.9C-3.1,.5,-3.2,.6,-3.2,.2C-3.1,-0.1,-2.7,-0.1,-2.7,-0.4C-2.7,-0.7,-2.8,-0.7,-2.8,-0.9C-2.9,-1,-2.8,-1.1,-2.8,-1.2C-2.8,-1.3,-2.7,-1.4,-2.6,-1.5C-2.6,-1.6,-2.5,-1.7,-2.4,-1.7C-2.3,-1.8,-2.2,-1.8,-2.1,-1.8C-2.1,-1.8,-2.1,-1.8,-2.1,-1.8Z')"],e:[[0],[0]]}],
{autoremove:false,markers:{"LoopStart":2500}}).range(0,4500);
if(document.location.search.substr(1).split('&').indexOf('global=paused')>=0)ks.globalPause()})(KeyshapeJS);
]]></script></svg>