<svg xmlns="http://www.w3.org/2000/svg" xmlns:xlink="http://www.w3.org/1999/xlink" width="100%" height="100%" viewBox="0 0 500 800" style="background: rgba(224,255,255,0.00);"><defs><symbol id="bead" preserveAspectRatio="none" width="16.5" height="16.5" viewBox="0 0 16.5 16.5" overflow="visible"><ellipse rx="1.5" ry="1.5" clip-rule="evenodd" fill="#a33636" fill-rule="evenodd" stroke="#7d2614" stroke-linejoin="round" stroke-miterlimit="1.8" stroke-width=".3" transform="translate(-0.9,-1) scale(5,5) translate(1.8,1.8)"/></symbol></defs><g transform="translate(922.4,299.6) translate(-825.1,-640.8)"><g transform="translate(150.7,707.8) translate(-128.2,-202.8)"><g transform="translate(164.7,369.1) translate(-71,-162.3)"><g id="Strand-1" transform="translate(-43.1,-11.3) translate(-18.1,-85.8)"><use width="16.5" height="16.5" xlink:href="#bead" transform="translate(16.9,163.2) translate(-8.2,-8.2)"/><use width="16.5" height="16.5" xlink:href="#bead" transform="translate(14.2,147.9) translate(-8.2,-8.2)"/><use width="16.5" height="16.5" xlink:href="#bead" transform="translate(15.2,131.9) translate(-8.2,-8.2)"/><use width="16.5" height="16.5" xlink:href="#bead" transform="translate(19.6,116.2) translate(-8.2,-8.2)"/><use width="16.5" height="16.5" xlink:href="#bead" transform="translate(25.6,101.6) translate(-8.2,-8.2)"/><use width="16.5" height="16.5" xlink:href="#bead" transform="translate(27.9,85.2) translate(-8.2,-8.2)"/><use width="16.5" height="16.5" xlink:href="#bead" transform="translate(22.6,69.6) translate(-8.2,-8.2)"/><use width="16.5" height="16.5" xlink:href="#bead" transform="translate(15.2,55.2) translate(-8.2,-8.2)"/><use width="16.5" height="16.5" xlink:href="#bead" transform="translate(9.6,40.2) translate(-8.2,-8.2)"/><use width="16.5" height="16.5" xlink:href="#bead" transform="translate(8.2,23.6) translate(-8.2,-8.2)"/><use width="16.5" height="16.5" xlink:href="#bead" transform="translate(14.6,8.2) translate(-8.2,-8.2)"/></g><g id="Strand-2" transform="translate(23.9,60.2) translate(-16.1,-37.8)"><use width="16.5" height="16.5" xlink:href="#bead" transform="translate(11.8,67.2) translate(-8.2,-8.2)"/><use width="16.5" height="16.5" xlink:href="#bead" transform="translate(8.2,52) translate(-8.2,-8.2)"/><use width="16.5" height="16.5" xlink:href="#bead" transform="translate(11.2,36.5) translate(-8.2,-8.2)"/><use width="16.5" height="16.5" xlink:href="#bead" transform="translate(19.2,23) translate(-8.2,-8.2)"/><use width="16.5" height="16.5" xlink:href="#bead" transform="translate(24,8.2) translate(-8.2,-8.2)"/></g></g></g></g><script xlink:href="keyshapejs-1.1.0.min.js"/><script><![CDATA[if(KeyshapeJS.version.indexOf('1.')!=0)throw Error('Expected KeyshapeJS v1.*.*');window.ks=document.ks=KeyshapeJS;(function(ks){
ks.animate("#Strand-1",[{p:'rotate',t:[0,1000,2000],v:[0,5,0],e:[[1,.4,0,.6,1],[1,.4,0,.6,1],[0]]}],
"#Strand-2",[{p:'rotate',t:[0,1000,2000],v:[0,-5,0],e:[[1,.4,0,.6,1],[1,.4,0,.6,1],[0]]}],
{autoremove:false,markers:{"LoopStart":0}}).range(0,2000);
if(document.location.search.substr(1).split('&').indexOf('global=paused')>=0)ks.globalPause()})(KeyshapeJS);
]]></script></svg>