<svg xmlns="http://www.w3.org/2000/svg" xmlns:xlink="http://www.w3.org/1999/xlink" width="100%" height="100%" viewBox="0 0 500 800" style="background: rgba(224,255,255,0.00); white-space: pre;"><defs><symbol id="tReceptor" preserveAspectRatio="none" width="13.7" height="11.5" viewBox="0 0 13.7 11.5" overflow="visible"><g transform="translate(-253.2,-225.7)"><path d="M265.1 230.7c1.7 1.1 1.8 2.5 1.2 2.4c-0.4-0.1-0.8 .4-2.6-0.8c-1.8-1.2-3-2.4-2.6-2.8c.3-0.3 2.2 0 4 1.2Z" fill="url(#Gradient-0)"/><path d="M262.5 233.9c1.8 1.5 .9 1.6 1.5 2.6c.3 .5-1.3 .8-3-0.7c-1.8-1.5-2.6-3.4-2.2-3.8c.3-0.4 2 .4 3.7 2Z" fill="url(#Gradient-1)"/><path d="M265.1 230.7c1.7 1.1 1.8 2.5 1.2 2.4c-0.4-0.1-0.8 .4-2.6-0.8c-1.8-1.2-3-2.4-2.6-2.8c.3-0.3 2.2 0 4 1.2Z" fill="none" stroke="#aa3372" stroke-width=".3"/><path d="M262.5 233.9c1.8 1.5 .9 1.6 1.5 2.6c.3 .5-1.3 .8-3-0.7c-1.8-1.5-2.6-3.4-2.2-3.8c.3-0.4 2 .4 3.7 2Z" fill="none" stroke="#aa3372" stroke-width=".3"/><path d="M259.5 227.1c.2-0.4 .6-0.3 1.5-0.1c.9 .2 1.6 .7 1.6 1.1c.2 0 .3 0 .4 .1c.2 0 .3 0 .5 .1c.1 .1 .2 .1 .3 .2c.2 .1 .3 .2 .4 .3c.8 .6 1.7 1.2 1.3 1.6c-0.2 .3-0.8 .3-1.5-0.1c0 .3 .2 .6 .2 .9c-0.2 .9 .5 1.1 1 1.3c1 .7 1.7 2.1 1.1 3c-0.5 .7-2.2 .7-3.3 0c-0.5-0.1-0.6-1-1.1-1.3c-0.2-0.1-0.7 .4-1 .3c-0.2-0.1-0.4 0-0.7 .1c.7 .6 1 1.5 .6 1.9c-0.4 .5-1.2-0.4-2.1-1.1c-0.1-0.1-0.2-0.2-0.3-0.3c-0.1-0.1-0.2-0.2-0.3-0.4c-0.1-0.1-0.2-0.2-0.2-0.4c-0.1-0.1-0.1-0.3-0.2-0.4c-0.4-0.1-0.9-0.7-1.2-1.5c-0.4-0.9-0.7-1.1-0.3-1.3c0 0 0 0 0 0c0 0 0 0 .1 0c0 0 0 0 0 0c0 0 0 0 0 0c0-0.1 0-0.1-0.1-0.1c0-0.1 0-0.1 0-0.1c0-0.1-0.1-0.1-0.1-0.1c0-0.1 0-0.1-0.1-0.1c-1.4-1.9-2.8-2.7-2-3.8c.7-1.2 2.1-0.6 4.2-0.1c.4 .1 .8 .2 1.3 .3Z" fill="url(#Gradient-2)"/><path d="M262.3 230.4c.5 .2 .8 1.2 1.3 1.4c.4 .2 1 .3 1.4 .6c1.1 .7 1.7 2.2 1.3 3c-0.4 .9-2.3 .8-3.5 0c-0.4-0.3-0.6-0.9-1-1.2c-0.2-0.2-0.7-0.3-1-0.5c-0.8-0.5-0.8-1.2-0.9-1.3" fill="none" stroke="#aa3372" stroke-width=".3"/><path d="M260.9 234.5c-0.2-0.1-0.4 0-0.7 .1c.7 .6 1 1.5 .6 1.9c-0.4 .5-1.2-0.4-2-1.1c-0.2-0.1-0.3-0.2-0.4-0.3c-0.1-0.1-0.2-0.3-0.3-0.4c-0.1-0.1-0.1-0.3-0.2-0.4c-0.1-0.2-0.1-0.3-0.1-0.5c-0.4 0-0.9-0.6-1.3-1.4c-0.4-0.9-0.7-1.1-0.3-1.3c0 0 0 0 0 0c0 0 0 0 .1 0c0 0 0 0 0 0c0 0 0 0 0 0c0-0.1 0-0.1-0.1-0.1c0-0.1 0-0.1 0-0.1c0-0.1-0.1-0.1-0.1-0.1c0-0.1 0-0.1-0.1-0.1c-1.4-1.9-2.8-2.7-2-3.8c.7-1.2 2.1-0.6 4.2-0.1c.4 .1 .8 .2 1.3 .3c.2-0.4 .6-0.3 1.5-0.1c.9 .2 1.6 .7 1.6 1.2c.2 0 .3 0 .5 0c.1 .1 .2 .1 .4 .2c.1 0 .2 .1 .4 .2c.1 0 .2 .1 .3 .2c.8 .7 1.7 1.2 1.3 1.6c-0.2 .3-0.8 .3-1.5-0.1c0 .3 0 .7 .2 .9" fill="none" stroke="#aa3372" stroke-width=".3"/></g></symbol><linearGradient id="Gradient-0" x1="0" y1="0" x2="1" y2=".1" gradientUnits="userSpaceOnUse" gradientTransform="matrix(.7 1.5 -3.1 .5 264.2 231.2)"><stop offset="0" stop-color="#fdb15f"/><stop offset=".2" stop-color="#f58b63"/><stop offset=".4" stop-color="#ed6666"/><stop offset="1" stop-color="#e95567"/></linearGradient><linearGradient id="Gradient-1" x1="0" y1="0" x2="1" y2=".1" gradientUnits="userSpaceOnUse" gradientTransform="matrix(.6 1.9 -3.1 .4 261.6 234.5)"><stop offset="0" stop-color="#fdb15f"/><stop offset=".2" stop-color="#f58b63"/><stop offset=".4" stop-color="#ed6666"/><stop offset="1" stop-color="#e95567"/></linearGradient><linearGradient id="Gradient-2" x1="0" y1="0" x2="1" y2="0" gradientUnits="userSpaceOnUse" gradientTransform="matrix(9.6 8.6 -4.2 4.7 256 225.6)"><stop offset="0" stop-color="#e95567"/><stop offset=".7" stop-color="#ffbc5a"/><stop offset=".9" stop-color="#fcad5c"/><stop offset="1" stop-color="#f38561"/><stop offset="1" stop-color="#e95567"/></linearGradient><radialGradient id="Gradient-3" cx="0" cy="0" r="1" fx="0" fy="0" gradientUnits="userSpaceOnUse" gradientTransform="matrix(86.8 0 0 86.9 170.7 176.2)"><stop offset="0" stop-color="#a4009e"/><stop offset=".7" stop-color="#a4009e" stop-opacity=".86"/><stop offset=".8" stop-color="#a4009e" stop-opacity=".47"/><stop offset="1" stop-color="#a4009e" stop-opacity="0"/></radialGradient><linearGradient id="Gradient-4" x1="0" y1="0" x2="1" y2="-0.2" gradientUnits="userSpaceOnUse" gradientTransform="matrix(-148.2 -249.1 191.9 -154 230.3 265.2)"><stop offset="0" stop-color="#55b0b8" stop-opacity="0"/><stop offset=".5" stop-color="#55b0b8" stop-opacity=".18"/><stop offset="1" stop-color="#55b0b8" stop-opacity=".8"/></linearGradient><radialGradient id="Gradient-5" cx="0" cy="0" r="1" fx="0" fy="0" gradientUnits="userSpaceOnUse" gradientTransform="matrix(72 123.8 -123.8 72 143.6 148.6)"><stop offset="0" stop-color="#3d839b" stop-opacity="0"/><stop offset=".5" stop-color="#3d839b" stop-opacity="0"/><stop offset=".9" stop-color="#3d839b" stop-opacity="0"/><stop offset="1" stop-color="#3d839b"/></radialGradient><radialGradient id="Gradient-6" cx="0" cy="0" r="1" fx="0" fy="0" gradientUnits="userSpaceOnUse" gradientTransform="matrix(84.9 179 -166.2 91.4 124 99)"><stop offset="0" stop-color="#fff" stop-opacity=".4"/><stop offset=".1" stop-color="#fff" stop-opacity=".29"/><stop offset=".3" stop-color="#fff" stop-opacity="0"/><stop offset=".5" stop-color="#3d839b" stop-opacity="0"/><stop offset=".8" stop-color="#3d839b" stop-opacity=".6"/><stop offset="1" stop-color="#3d839b" stop-opacity=".3"/></radialGradient><mask id="Mask-1"><path d="M69.7 264.4c-26.9-19.4-65.3-52.2-63-107.5c1.7-41.5 19.4-77.6 45-106.6c19-21.4 37-37.7 66.3-43.5c17.1-3.4 33.8-2.6 49.8 2.9c41.9 14.4 81.1 44.4 102.8 84.4c20.8 38.2 9.1 99-16.6 133.1c-10.7 14.1-25.1 26.1-38.5 37.2c-15.9 13-29.3 21.2-50.5 24.6c-30.3 4.8-71.4-7.6-95.3-24.6Z" fill="#fff" transform="translate(73.6,-47.9) rotate(30) scale(.8,.801)"/></mask></defs><g transform="translate(398.3,-124.3) translate(-366.3,-658.4)"><g fill-rule="evenodd" clip-rule="evenodd" stroke-linecap="round" stroke-linejoin="round" stroke-miterlimit="1.5" transform="translate(220.8,1207.3) scale(.8,.801) translate(-148.4,-183.1)"><path d="M68.2 266.7c-27.5-19.7-66.6-53.1-64.3-109.6c1.7-42.4 19.8-79.1 46-108.8c19.3-21.8 37.7-38.4 67.6-44.4c17.4-3.5 34.4-2.6 50.8 3c42.7 14.7 82.7 45.3 104.9 86.1c21.2 39 9.2 101.1-17 135.8c-10.9 14.4-25.6 26.7-39.2 37.9c-16.2 13.4-29.9 21.7-51.6 25.2c-30.9 4.9-72.8-7.8-97.2-25.2Z" fill="rgba(255,255,255,0.50)" stroke="#3c839b" stroke-width="1.8"/><path id="nucleus-2" d="M102.5 124.5c31.5-40 82.3-46.4 122.9-16.8c31.9 23.2 44.1 82.3 17.6 114.5c-28.6 34.7-94.1 54.7-132.9 30c-40.6-25.9-26.6-103.4-7.6-127.6Z" fill="url(#Gradient-3)" transform="translate(-67.4,-10) translate(0,0) translate(0,0)"/><g transform="translate(148.4,152) translate(-149.1,-152.6)"><g opacity=".8" transform="translate(.7,.6)"><path d="M69.7 264.4c-26.9-19.4-65.3-52.2-63-107.5c1.7-41.5 19.4-77.6 45-106.6c19-21.4 37-37.7 66.3-43.5c17.1-3.4 33.8-2.6 49.8 2.9c41.9 14.4 81.1 44.4 102.8 84.4c20.8 38.2 9.1 99-16.6 133.1c-10.7 14.1-25.1 26.1-38.5 37.2c-15.9 13-29.3 21.2-50.5 24.6c-30.3 4.8-71.4-7.6-95.3-24.6Z" fill="#87d088"/><image xlink:href="exports/t_texture.jpg" width="223.5" height="221.7" preserveAspectRatio="none" mask="url(#Mask-1)" transform="translate(163.9,144.9) rotate(-30) skewX(0) scale(1.25,1.249) translate(-129.2,-118.2)"/><path d="M69.7 264.4c-26.9-19.4-65.3-52.2-63-107.5c1.7-41.5 19.4-77.6 45-106.6c19-21.4 37-37.7 66.3-43.5c17.1-3.4 33.8-2.6 49.8 2.9c41.9 14.4 81.1 44.4 102.8 84.4c20.8 38.2 9.1 99-16.6 133.1c-10.7 14.1-25.1 26.1-38.5 37.2c-15.9 13-29.3 21.2-50.5 24.6c-30.3 4.8-71.4-7.6-95.3-24.6Zm1.1-1.5c-26.6-19.1-64.6-51.3-62.3-106c1.7-41 19.2-76.7 44.6-105.4c18.7-21.1 36.4-37.2 65.3-43c16.8-3.3 33.1-2.5 48.8 2.9c41.5 14.2 80.3 44 101.8 83.6c20.5 37.6 8.9 97.6-16.5 131.1c-10.5 14-24.9 25.9-38.1 36.9c-15.6 12.8-28.8 20.9-49.7 24.2c-29.9 4.8-70.4-7.5-93.9-24.3Z" fill="#3d839b" fill-opacity=".8"/><path d="M69.7 264.4c-26.9-19.4-65.3-52.2-63-107.5c1.7-41.5 19.4-77.6 45-106.6c19-21.4 37-37.7 66.3-43.5c17.1-3.4 33.8-2.6 49.8 2.9c41.9 14.4 81.1 44.4 102.8 84.4c20.8 38.2 9.1 99-16.6 133.1c-10.7 14.1-25.1 26.1-38.5 37.2c-15.9 13-29.3 21.2-50.5 24.6c-30.3 4.8-71.4-7.6-95.3-24.6Z" fill="url(#Gradient-4)"/><path d="M69.7 264.4c-26.9-19.4-65.3-52.2-63-107.5c1.7-41.5 19.4-77.6 45-106.6c19-21.4 37-37.7 66.3-43.5c17.1-3.4 33.8-2.6 49.8 2.9c41.9 14.4 81.1 44.4 102.8 84.4c20.8 38.2 9.1 99-16.6 133.1c-10.7 14.1-25.1 26.1-38.5 37.2c-15.9 13-29.3 21.2-50.5 24.6c-30.3 4.8-71.4-7.6-95.3-24.6Z" fill="url(#Gradient-5)"/><path d="M69.7 264.4c-26.9-19.4-65.3-52.2-63-107.5c1.7-41.5 19.4-77.6 45-106.6c19-21.4 37-37.7 66.3-43.5c17.1-3.4 33.8-2.6 49.8 2.9c41.9 14.4 81.1 44.4 102.8 84.4c20.8 38.2 9.1 99-16.6 133.1c-10.7 14.1-25.1 26.1-38.5 37.2c-15.9 13-29.3 21.2-50.5 24.6c-30.3 4.8-71.4-7.6-95.3-24.6Z" fill="url(#Gradient-6)"/></g><g transform="translate(149.1,152.6) translate(-149.1,-152.6)"><use width="13.7" height="11.5" xlink:href="#tReceptor" transform="translate(260.7,232.1) translate(-6.8,-5.8)"/><use width="13.7" height="11.5" xlink:href="#tReceptor" transform="translate(280.8,199.8) rotate(-28.3) translate(-6.8,-5.8)"/><use width="13.7" height="11.5" xlink:href="#tReceptor" transform="translate(289.2,134) rotate(-40.1) translate(-6.8,-5.8)"/><use width="13.7" height="11.5" xlink:href="#tReceptor" transform="translate(196.8,13.9) rotate(-92.6) translate(-6.8,-5.8)"/><use width="13.7" height="11.5" xlink:href="#tReceptor" transform="translate(90.1,7.7) rotate(-160.4) translate(-6.8,-5.8)"/><use width="13.7" height="11.5" xlink:href="#tReceptor" transform="translate(35.9,57.3) rotate(-175.8) translate(-6.8,-5.8)"/><use width="13.7" height="11.5" xlink:href="#tReceptor" transform="translate(22.4,76.4) rotate(-185.2) translate(-6.8,-5.8)"/><use width="13.7" height="11.5" xlink:href="#tReceptor" transform="translate(8.2,112.7) rotate(-195.8) translate(-6.8,-5.8)"/><use width="13.7" height="11.5" xlink:href="#tReceptor" transform="translate(21.6,227) rotate(-247.7) translate(-6.8,-5.8)"/><use width="13.7" height="11.5" xlink:href="#tReceptor" transform="translate(44.6,253.7) rotate(-267.9) translate(-6.8,-5.8)"/><use width="13.7" height="11.5" xlink:href="#tReceptor" transform="translate(133.6,296.4) rotate(-296.9) translate(-6.8,-5.8)"/></g></g></g><g transform="translate(228.5,1278.2) translate(-140.9,-208.9)"><text id="_a0" font-size="18" font-family="ABCSans" font-weight="900" letter-spacing=".1em" word-spacing="0" text-anchor="middle" opacity="0" transform="translate(129.6,280.1)" style="line-height: 16px;">T CELL</text></g></g><script xlink:href="keyshapejs-1.1.0.min.js"/><script><![CDATA[if(KeyshapeJS.version.indexOf('1.')!=0)throw Error('Expected KeyshapeJS v1.*.*');window.ks=document.ks=KeyshapeJS;(function(ks){
ks.animate("#nucleus-2",[{p:'mpath',t:[0,1000,2000,3000,4000,5000],v:['0%','51.5%','63.6%','75.7%','87.9%','100%'],e:[[1,.4,0,.6,1],[1,.4,0,.6,1],[1,.4,0,.6,1],[1,.4,0,.6,1],[1,.4,0,.6,1],[0]],mp:"M-67.4,-10L-5.2,1.3L-20,2.9L-5.2,1.3L-20,2.9L-5.2,1.3"}],
"#_a0",[{p:'opacity',t:[1500,2500],v:[0,1],e:[[0],[0]]}],
{autoremove:false,markers:{"LoopStart":3000}}).range(0,5000);
if(document.location.search.substr(1).split('&').indexOf('global=paused')>=0)ks.globalPause()})(KeyshapeJS);
]]></script></svg>